<svg xmlns="http://www.w3.org/2000/svg" width="235.229" height="288.708" viewBox="0 0 235.229 288.708"><g transform="translate(-292.748 -156)"><g transform="translate(292.748 247.325)"><rect width="11.116" height="43.346" transform="translate(211.327 190.014) rotate(180)" fill="#263238"/><rect width="11.116" height="43.346" transform="translate(36.37 190.014) rotate(180)" fill="#263238"/><path d="M232.984,317.584c2.583-4.32,27.981-17.29,27.981-17.29s4.672-21.142,17.084-25.119c6.057-1.912,143.666,1.912,143.666,1.912,5.592,3.259,9.423,23.207,9.423,23.207,9.9,2.409,33.148,15.455,34.434,20.865s1.554,104.4-.158,109.8c-8.037,3.24-15.836,3.67-23.5.746l-182.544-.774s-23.082,8.392-26.387-.459C231.43,426.45,230.351,321.895,232.984,317.584Z" transform="translate(-231.388 -274.64)" fill="#656f75"/><path d="M259.61,397.838c0-.143,40.757-.248,91.015-.248s91.015.105,91.015.248-40.747.249-91.015.249S259.61,397.982,259.61,397.838Z" transform="translate(-232.636 -280.074)" fill="#263238"/><path d="M452.839,430.191V427.62c0-1.74-.07-4.282-.119-7.589-.09-6.643-.219-16.335-.378-28.559s-.318-27.021-.527-43.843v-6.4c0-2.16.129-4.358,0-6.566a22.449,22.449,0,0,0-1.333-6.557,25.363,25.363,0,0,0-3.383-6.041,38.843,38.843,0,0,0-10.806-9.692,80.517,80.517,0,0,0-13.831-6.777h-.09v-.086l-4.139-9.558-2.109-4.865c-.358-.812-.707-1.625-1.065-2.447a10.111,10.111,0,0,0-1.294-2.294,9.862,9.862,0,0,0-6.906-3.823c-.915-.086-1.881-.105-2.816-.163l-11.463-.573c-15.433-.746-31.413-1.453-47.762-2.055q-12.428-.449-24.547-.745c-8.08-.172-16.03-.315-23.831-.182-1.99,0-3.891.086-5.821.191-1,0-1.92.134-2.866.22a13.19,13.19,0,0,0-2.766.516,11.429,11.429,0,0,0-4.567,3.011,23.465,23.465,0,0,0-3.294,4.33,50.713,50.713,0,0,0-4.358,9.759A79.722,79.722,0,0,0,270.1,306.9v.143h-.149a30.8,30.8,0,0,0-7.134,2.867,51.651,51.651,0,0,0-6.358,4.053,28.089,28.089,0,0,0-5.313,4.989,10.211,10.211,0,0,0-1.652,3.078,17.341,17.341,0,0,0-.657,3.393c-.368,4.617.428,9.138.607,13.563.08,2.237,0,4.4-.05,6.557s0,4.263-.07,6.356c-.139,16.7,0,31.379.08,43.527s0,21.764,0,28.349c-.05,3.278-.09,5.8-.119,7.522v-7.532c0-6.576,0-16.191-.109-28.34s-.3-26.82-.189-43.527q0-3.145.06-6.366c0-2.141.119-4.339,0-6.528-.179-4.4-.995-8.918-.627-13.611a17.788,17.788,0,0,1,.667-3.5,10.79,10.79,0,0,1,1.711-3.2,28.974,28.974,0,0,1,5.393-5.075,51.554,51.554,0,0,1,6.418-4.1,31.338,31.338,0,0,1,7.254-2.953l-.179.182a79.823,79.823,0,0,1,2.667-10.141,50.992,50.992,0,0,1,4.4-9.854,24.511,24.511,0,0,1,3.353-4.425,11.971,11.971,0,0,1,4.776-3.126,13.412,13.412,0,0,1,2.866-.545c1-.1,1.93-.182,2.9-.22,1.94-.115,3.891-.172,5.841-.2,7.821-.134,15.771,0,23.881.182s16.269.44,24.557.736c16.378.6,32.358,1.319,47.762,2.065l11.463.583c1,.057,1.881.076,2.846.162a10.462,10.462,0,0,1,7.264,4.014,11.213,11.213,0,0,1,1.343,2.39c.358.822.706,1.634,1.065,2.447.7,1.634,1.4,3.25,2.1,4.865l4.129,9.558-.129-.124a82.247,82.247,0,0,1,13.93,6.834,39.559,39.559,0,0,1,10.945,9.816,25.983,25.983,0,0,1,3.423,6.146,23.362,23.362,0,0,1,1.353,6.691c.129,2.237.05,4.445,0,6.6s-.08,4.292,0,6.394c.159,16.813.308,31.6.418,43.833s.189,21.926.239,28.559c0,3.317,0,5.859.05,7.589v1.912A1.931,1.931,0,0,0,452.839,430.191Z" transform="translate(-232.137 -274.797)" fill="#263238"/><g transform="translate(53.91 5.923)" opacity="0.4"><path d="M445.43,434.027c1.491-31.025.229-59.91,0-90.964-.1-10.514,1.262-18.39-10.743-28.177-6.6-5.372-17.529-10.084-17.529-10.084-3.116-4.387-3.565-12.11-6.5-16.621-4.378-6.748-13.821-7.4-21.869-7.341l-84.742.64c-6.738.048-14.213.392-19,5.133-4.444,4.406-5.161,11.25-5.419,17.51q-.507,11.871-.105,23.752c.134,3.9.488,8.163,3.173,10.992,2.227,2.351,5.563,3.441,8.793,3.747,23.9,2.208,93.411,1.8,123.3,1.8l21.745,20.464.191,67.136Z" transform="translate(-279.344 -280.837)" fill="#334048"/></g><path d="M268,369.038c0-.143,36.884-.249,82.362-.249s82.362.105,82.362.249-36.865.249-82.362.249S268,369.172,268,369.038Z" transform="translate(-224.932 -278.801)" fill="#263238"/><path d="M259.61,434.136v-4.865c0-3.2,0-7.866-.05-13.83,0-11.957,0-29.1-.05-49.893v-.086l.06-.057,18.622-18.227.07-.067h143l.06.057c5.248,4.425,10.235,8.717,14.9,12.913,2.319,2.112,4.6,4.158,6.637,6.327.25.287.5.554.72.86a3.488,3.488,0,0,1,.32.487.925.925,0,0,1,.1.334v59.594a3.38,3.38,0,0,1,0,.421v-1.673c0-1.118,0-2.753-.05-4.875,0-4.282-.08-10.514-.14-18.418s-.1-17.5-.16-28.445v-6.576a1.744,1.744,0,0,0-.06-.172,4.488,4.488,0,0,0-.29-.421c-.21-.287-.46-.554-.7-.832-2-2.141-4.3-4.186-6.617-6.28-4.668-4.186-9.676-8.468-14.913-12.884l.15.057H278.411l.17-.076c-6.627,6.461-12.914,12.6-18.662,18.16l.06-.134c-.05,20.789-.09,37.936-.12,49.893,0,5.964-.05,10.629-.07,13.831v3.622A3.471,3.471,0,0,1,259.61,434.136Z" transform="translate(-232.631 -277.843)" fill="#263238"/><path d="M423.509,307.9c.134,0-.277,8.449-.956,18.868s-1.281,18.839-1.415,18.839.277-8.459.956-18.877S423.375,307.89,423.509,307.9Z" transform="translate(-233.258 -276.11)" fill="#263238"/><path d="M234.92,320.916a24.028,24.028,0,0,1,6.356.3,23.726,23.726,0,0,1,6.194,1.491c0,.134-2.8-.516-6.26-1S234.91,321.069,234.92,320.916Z" transform="translate(-231.544 -276.681)" fill="#263238"/><path d="M263.62,302.388a3.948,3.948,0,0,1,2.495.421,3.823,3.823,0,0,1,2.026,1.52,21.338,21.338,0,0,1-2.227-1.061A19.359,19.359,0,0,1,263.62,302.388Z" transform="translate(-232.813 -275.864)" fill="#263238"/><path d="M454.4,326.479a22.624,22.624,0,0,1,10.342-4.779c0,.143-2.428.86-5.276,2.2S454.486,326.6,454.4,326.479Z" transform="translate(-233.171 -276.72)" fill="#263238"/></g><g transform="translate(310.126 156)"><path d="M251.443,320.055c2.007-3.632,5.534-6.127,8.937-8.507,5.792-4.033,11.909-8.2,18.934-8.994,7.36-.832,14.748,2.265,20.55,6.872,13.534,10.753,22.892,32.5,17.367,48.9-11.756,4.11-24.994,7.322-37.42,6.385-5.419-.4-11.02-1.386-15.446-4.55-5.477-3.909-8.268-10.514-10.8-16.707C250.516,335.93,247.515,327.147,251.443,320.055Z" transform="translate(-249.569 -184.543)" fill="#f5f5f5"/><path d="M279.69,363.339a1.7,1.7,0,0,1,.287-.335,10.916,10.916,0,0,1,.956-.889,28.68,28.68,0,0,1,3.728-2.867,43.786,43.786,0,0,1,14.27-5.83,87.326,87.326,0,0,1,15.341-1.845c1.969-.086,3.565-.134,4.674-.143h1.271a1.463,1.463,0,0,1,.449,0,11.527,11.527,0,0,1-1.711.163l-4.664.3A99.72,99.72,0,0,0,299,353.876a46.06,46.06,0,0,0-14.2,5.639,35.453,35.453,0,0,0-3.823,2.7,13.454,13.454,0,0,1-1.281,1.118Z" transform="translate(-250.9 -186.708)" fill="#ff641e"/><path d="M272.27,365.591a5.037,5.037,0,0,1,1.176-2.6,5.1,5.1,0,0,1,2.093-1.912,21.544,21.544,0,0,1-1.692,2.227A21.788,21.788,0,0,1,272.27,365.591Z" transform="translate(-250.572 -187.135)" fill="#ff641e"/><path d="M312.06,336.318a9.013,9.013,0,0,1,7.484-1.233c0,.153-1.73-.076-3.823.277S312.127,336.461,312.06,336.318Z" transform="translate(-249.755 -185.972)" fill="#ff641e"/><path d="M265.71,350.666a2.617,2.617,0,0,1,.287-.344l.889-.956c.392-.4.879-.87,1.472-1.4s1.233-1.147,2.007-1.768a64.826,64.826,0,0,1,5.591-4.186,72.254,72.254,0,0,1,7.407-4.272,73.339,73.339,0,0,1,7.895-3.278,65.688,65.688,0,0,1,6.691-1.912c.956-.239,1.854-.382,2.628-.526s1.453-.249,2-.315l1.271-.143a1.147,1.147,0,0,1,.449,0,2.043,2.043,0,0,1-.43.115l-1.252.239c-.554.1-1.214.22-1.979.4s-1.654.325-2.6.593c-1.912.459-4.186,1.128-6.691,1.979a77.68,77.68,0,0,0-7.828,3.288,81.231,81.231,0,0,0-7.379,4.205c-2.17,1.443-4.081,2.867-5.611,4.081-.793.593-1.453,1.195-2.055,1.7s-1.109.956-1.52,1.329l-.956.841A1.833,1.833,0,0,1,265.71,350.666Z" transform="translate(-250.282 -185.83)" fill="#ff641e"/><path d="M255.85,350.009a6.184,6.184,0,0,1,2.227-2.982,6.1,6.1,0,0,1,3.46-1.357c.057.163-1.577.583-3.154,1.759S255.993,350.114,255.85,350.009Z" transform="translate(-249.847 -186.454)" fill="#ff641e"/><path d="M259.22,338.8a8.2,8.2,0,0,1,.832-1.214,15.772,15.772,0,0,1,1.08-1.357c.449-.516.956-1.118,1.539-1.72a40.793,40.793,0,0,1,4.425-4.024,42.238,42.238,0,0,1,12.884-6.9,40.633,40.633,0,0,1,5.811-1.462c.841-.172,1.606-.239,2.275-.325a17.068,17.068,0,0,1,1.73-.153,7.643,7.643,0,0,1,1.481,0,7.559,7.559,0,0,1-1.462.22c-.468.048-1.042.105-1.711.229s-1.424.2-2.246.392a44.771,44.771,0,0,0-5.735,1.548,49.328,49.328,0,0,0-6.691,2.867,48,48,0,0,0-6.1,3.938,44.642,44.642,0,0,0-4.464,3.909c-.621.583-1.109,1.166-1.577,1.654s-.832.956-1.137,1.3A9.158,9.158,0,0,1,259.22,338.8Z" transform="translate(-249.996 -185.391)" fill="#ff641e"/><path d="M250.6,337.459a7.36,7.36,0,0,1,5.333-4.139c.048.143-1.4.659-2.867,1.816S250.724,337.545,250.6,337.459Z" transform="translate(-249.615 -185.909)" fill="#ff641e"/><path d="M299.76,324.928a6.233,6.233,0,0,1,1.8-1.061,17.759,17.759,0,0,1,9.9-1.4,6.135,6.135,0,0,1,2.026.516,24.191,24.191,0,0,0-13.7,1.911Z" transform="translate(-249.647 -185.421)" fill="#ff641e"/><path d="M280.62,317.2a3.431,3.431,0,0,1,.736-.545c.487-.335,1.214-.774,2.141-1.281a37.629,37.629,0,0,1,7.646-3.059,37.089,37.089,0,0,1,8.1-1.319,22.145,22.145,0,0,1,2.495,0,3.07,3.07,0,0,1,.956.1c0,.076-1.3.086-3.374.268a44.112,44.112,0,0,0-15.608,4.349C281.776,316.609,280.668,317.278,280.62,317.2Z" transform="translate(-249.553 -184.92)" fill="#ff641e"/><path d="M253.24,325.008a10.409,10.409,0,0,1,1.979-1.845,25.671,25.671,0,0,1,5.63-3.336,26.015,26.015,0,0,1,6.28-1.8,9.559,9.559,0,0,1,2.7-.172,23.953,23.953,0,0,1-2.638.516,30.587,30.587,0,0,0-11.756,5.066A26.409,26.409,0,0,1,253.24,325.008Z" transform="translate(-249.731 -185.224)" fill="#ff641e"/><path d="M249.86,324.595c-.076-.115.478-.612,1.223-1.109s1.424-.822,1.5-.707-.478.621-1.223,1.118S249.936,324.71,249.86,324.595Z" transform="translate(-249.582 -185.442)" fill="#ff641e"/><path d="M253.47,317.965a8.083,8.083,0,0,1,1.195-.784c.784-.487,1.912-1.157,3.364-1.959,2.867-1.606,6.9-3.709,11.47-5.83s8.765-3.823,11.842-4.97c1.539-.583,2.791-1.023,3.67-1.309a6.611,6.611,0,0,1,1.367-.4,8.119,8.119,0,0,1-1.3.583l-3.613,1.453c-3.039,1.233-7.216,2.992-11.756,5.1s-8.6,4.158-11.47,5.687l-3.441,1.806A7.642,7.642,0,0,1,253.47,317.965Z" transform="translate(-249.742 -184.556)" fill="#ff641e"/><path d="M288.82,367.3a4.778,4.778,0,0,1,1.185-.268l3.25-.573c2.753-.478,6.538-1.176,10.705-2.055s7.9-1.787,10.609-2.456l3.2-.8a6.57,6.57,0,0,1,1.195-.239,6.182,6.182,0,0,1-1.137.421c-.746.249-1.826.573-3.173.956-2.686.765-6.423,1.73-10.6,2.609s-7.981,1.529-10.743,1.912c-1.386.191-2.5.335-3.278.411a6.77,6.77,0,0,1-1.214.086Z" transform="translate(-249.463 -187.128)" fill="#263238"/><path d="M252.289,319.22a2.083,2.083,0,0,1,.153.564l.335,1.634c.134.717.306,1.587.573,2.581s.5,2.141.908,3.374c.191.612.382,1.262.593,1.912s.487,1.357.736,2.074c.487,1.434,1.157,2.915,1.826,4.492a73.546,73.546,0,0,0,5.381,9.721,74.489,74.489,0,0,0,6.9,8.7c1.2,1.223,2.313,2.409,3.46,3.412.564.507,1.09,1.023,1.625,1.472l1.568,1.3c.956.841,1.912,1.5,2.762,2.122s1.558,1.128,2.16,1.52l1.386.956a3.276,3.276,0,0,1,.459.354,2.305,2.305,0,0,1-.516-.268l-1.434-.86c-.621-.373-1.376-.841-2.208-1.453s-1.835-1.243-2.867-2.084l-1.6-1.271c-.554-.449-1.08-.956-1.654-1.472-1.166-.956-2.294-2.179-3.508-3.393a64.6,64.6,0,0,1-12.425-18.543c-.66-1.6-1.319-3.087-1.787-4.55-.249-.726-.516-1.415-.717-2.093s-.392-1.338-.564-1.912c-.392-1.243-.612-2.4-.841-3.412s-.392-1.912-.5-2.6-.172-1.223-.239-1.654a4.4,4.4,0,0,1,.029-.621Z" transform="translate(-249.688 -185.285)" fill="#263238"/><path d="M262.5,355.069a9.328,9.328,0,0,1,2.514-5.209,13.788,13.788,0,0,1-1.223,2.619,14.27,14.27,0,0,1-1.29,2.59Z" transform="translate(-250.141 -186.64)" fill="#263238"/><path d="M261.4,351.633c-.115-.076.315-.9,1.128-1.673s1.634-1.176,1.711-1.061-.6.679-1.367,1.424S261.514,351.709,261.4,351.633Z" transform="translate(-250.091 -186.596)" fill="#263238"/><path d="M260.767,325.84a20.733,20.733,0,0,0-3.068,2.867,13.383,13.383,0,0,0-1.912,3.747,2.332,2.332,0,0,1,.1-1.281,7.56,7.56,0,0,1,1.367-2.772,6.691,6.691,0,0,1,3.517-2.562Z" transform="translate(-249.842 -185.578)" fill="#263238"/><path d="M257.9,323.38a28.725,28.725,0,0,1-1.176,2.867,24.716,24.716,0,0,1-1.07,2.867,6.252,6.252,0,0,1,.6-3.068A6.137,6.137,0,0,1,257.9,323.38Z" transform="translate(-249.837 -185.469)" fill="#263238"/><path d="M284.64,327.455a5.339,5.339,0,0,1,1.2-.258,11.487,11.487,0,0,1,1.424-.182,18.979,18.979,0,0,1,1.912-.1,21.637,21.637,0,0,1,2.313.067,19.629,19.629,0,0,1,2.657.315,28.676,28.676,0,0,1,11.269,4.531c.765.545,1.5,1.051,2.131,1.606a20.464,20.464,0,0,1,1.73,1.558,18.647,18.647,0,0,1,1.309,1.4,10.654,10.654,0,0,1,.908,1.118,5.546,5.546,0,0,1,.688,1.023c-.076.057-1.1-1.367-3.154-3.288-.516-.468-1.08-.956-1.74-1.482s-1.367-1.023-2.122-1.548a30.109,30.109,0,0,0-11.106-4.464c-.908-.143-1.778-.306-2.6-.354s-1.587-.115-2.294-.134C286.38,327.235,284.65,327.56,284.64,327.455Z" transform="translate(-249.5 -185.625)" fill="#263238"/><path d="M275.12,318.973a6.192,6.192,0,0,1,1.185-.268,10.916,10.916,0,0,1,1.405-.191,15.684,15.684,0,0,1,1.912-.115,18.816,18.816,0,0,1,2.294.048,24.4,24.4,0,0,1,2.609.287,31.01,31.01,0,0,1,5.811,1.587,30.455,30.455,0,0,1,5.343,2.8c.755.535,1.491,1.023,2.112,1.568a19.8,19.8,0,0,1,1.7,1.529,16.588,16.588,0,0,1,1.319,1.357,10.209,10.209,0,0,1,.9,1.1,5.931,5.931,0,0,1,.688.956c-.086.067-1.09-1.338-3.125-3.221-.507-.459-1.071-.956-1.72-1.453s-1.357-.956-2.112-1.51a29.448,29.448,0,0,0-10.973-4.32c-.9-.134-1.749-.287-2.562-.325a18.958,18.958,0,0,0-2.256-.105C276.831,318.743,275.13,319.078,275.12,318.973Z" transform="translate(-250.698 -185.248)" fill="#263238"/><path d="M278.084,289s34.42-30.586,40.9-37.926c4.294-4.875,12.52-6.9,17.566-7.646h0l17.867-2.734,37.119,3.183a.747.747,0,0,1,.371,0h.3v.1c5.016,2.189,30.427,27.269,30.427,27.269l7.484-18.782,17.606,3.7L440.9,295.209c-4.374,7.274-11.035,10.246-18.248,5.572l-24.88-18.16c-1,12.225-3.391,44.607-1.234,51.164,2.418,7.341-69.894-6.146-69.894-6.146l5.869-49.874-27.729,20.167-.411.488c5.337,6.624,10.213,13.506,11.728,20.55-2.749,4.416-8.347,6.079-15.781,5.974L276.87,299.912Z" transform="translate(-250.776 -181.815)" fill="#ffd1bc"/><path d="M395.149,308.565a1.606,1.606,0,0,1,0-.468c0-.363.048-.812.076-1.338.086-1.243.2-2.867.344-4.922.335-4.225.784-9.921,1.281-16.249s.908-12,1.233-16.249c.134-2.017.239-3.68.325-4.922,0-.526.048-.956.067-1.338a1.579,1.579,0,0,1,.067-.459,2.148,2.148,0,0,1,0,.468c0,.363,0,.8,0,1.338,0,1.166-.067,2.867-.162,4.932-.2,4.167-.593,9.912-1.1,16.249s-1.013,12.062-1.415,16.249c-.21,2.017-.382,3.67-.507,4.9-.067.535-.124.956-.163,1.338a1.769,1.769,0,0,1-.048.468Z" transform="translate(-250.13 -182.784)" fill="#263238"/><path d="M335.342,273.956c-.086-.048.755-1.243,1.615-3.393a19.776,19.776,0,0,0-1.233-17.357c-1.147-2.007-2.151-3.059-2.074-3.125a4.111,4.111,0,0,1,.726.717,15.751,15.751,0,0,1,1.654,2.237,18.944,18.944,0,0,1,1.252,17.673,16.832,16.832,0,0,1-1.319,2.437A3.888,3.888,0,0,1,335.342,273.956Z" transform="translate(-249.861 -182.23)" fill="#263238"/><path d="M286.92,291.251a2.132,2.132,0,0,1,.755-.239,9.194,9.194,0,0,1,2.141-.162,13.448,13.448,0,0,1,6.691,2.3,26.12,26.12,0,0,1,5.219,4.731,14.414,14.414,0,0,1,1.806,2.284,19.109,19.109,0,0,1-2.065-2.045,31.41,31.41,0,0,0-5.228-4.559,14.269,14.269,0,0,0-6.4-2.361,25.338,25.338,0,0,0-2.915.048Z" transform="translate(-249.602 -184.031)" fill="#263238"/><path d="M294.11,285.94a9.558,9.558,0,0,1,2.131,1.539,24.965,24.965,0,0,1,7.111,10.332,9.3,9.3,0,0,1,.669,2.533,24.94,24.94,0,0,1-.956-2.4,29.926,29.926,0,0,0-7.025-10.208A24.375,24.375,0,0,1,294.11,285.94Z" transform="translate(-249.678 -183.814)" fill="#263238"/><path d="M425.78,291.911a5.846,5.846,0,0,1-.573-.583,13.424,13.424,0,0,1-1.309-1.8,18.393,18.393,0,0,1-1.491-2.953,21.789,21.789,0,0,1-1.1-3.9,21.53,21.53,0,0,1-.277-4.043,18.879,18.879,0,0,1,.411-3.288,14.334,14.334,0,0,1,.631-2.131c.191-.487.306-.755.344-.736s-.315,1.118-.631,2.934a21.879,21.879,0,0,0,0,7.178,21.477,21.477,0,0,0,2.409,6.758C425.1,290.956,425.837,291.854,425.78,291.911Z" transform="translate(-249.073 -183.22)" fill="#263238"/><path d="M429.438,231.285l5.114-2.065-.507,3.661-2.16,1.673,1.692,1.74-.879,6.375-3.881-4.9a3.307,3.307,0,0,1-.526-3.135Z" transform="translate(-249.386 -181.308)" fill="#ffbe9d"/><path d="M450.1,242.964l-6.222,12.387L432.2,252.78V238.013l17.3-2.963Z" transform="translate(-249.567 -181.565)" fill="#ffbe9d"/><path d="M432.755,229.985l1.233-8.927a1.367,1.367,0,0,1,.956-1.118l14-4.693a1.376,1.376,0,0,1,1.8,1.558l-5.735,30.825a1.386,1.386,0,0,1-1.08,1.109l-12.425,2.59a1.386,1.386,0,0,1-1.654-1.558Z" transform="translate(-249.462 -180.687)" fill="#263238"/><path d="M443.083,225.627a1.023,1.023,0,1,1-.306-1.415,1.023,1.023,0,0,1,.306,1.415Z" transform="translate(-249.965 -181.079)" fill="#ebebeb"/><path d="M450.829,220.17s2.093,0,1.912,2.963a23.183,23.183,0,0,1-1.912,7.828,2.5,2.5,0,0,1,0,2.581s1.548-.115,1.462,2.59a2.867,2.867,0,0,1-.5,4.129s1.4,1.806-.86,3.651a6.4,6.4,0,0,1-5.314.956Z" transform="translate(-250.16 -180.908)" fill="#ffbe9d"/><path d="M449.706,231.6c-1.663,1.109-3.536,2.17-5.018,3.384-.487.392-1.032.593-1.243,1.185a1.329,1.329,0,0,0,.507,1.634,1.912,1.912,0,0,0,1.6-.191,28.061,28.061,0,0,0,5.142-3.47" transform="translate(-250.059 -181.413)" fill="#ffbe9d"/><path d="M450.005,235.05c-1.663,1.109-3.546,2.17-5.018,3.384-.487.392-1.032.593-1.252,1.185a1.338,1.338,0,0,0,.516,1.634,1.912,1.912,0,0,0,1.587-.191,27.72,27.72,0,0,0,5.142-3.47" transform="translate(-250.072 -181.565)" fill="#ffbe9d"/><path d="M450.016,238.7c-1.663,1.109-3.546,2.17-5.018,3.384-.488.392-1.032.593-1.243,1.185a1.319,1.319,0,0,0,.507,1.634,1.912,1.912,0,0,0,1.634-.182,28.128,28.128,0,0,0,5.152-3.47" transform="translate(-250.073 -181.727)" fill="#ffbe9d"/><path d="M450.673,234.36c-.048-.067-1.195.822-2.657,1.816s-2.714,1.72-2.676,1.8A16.878,16.878,0,0,0,450.673,234.36Z" transform="translate(-250.147 -181.535)" fill="#eb996e"/><path d="M451.941,237.06c-.048-.067-1.367.956-3.02,2.074a29.924,29.924,0,0,0-3,2.122,16,16,0,0,0,3.173-1.912A16.4,16.4,0,0,0,451.941,237.06Z" transform="translate(-250.173 -181.654)" fill="#eb996e"/><path d="M451.917,241.1a19.659,19.659,0,0,0-2.925,1.692,18.66,18.66,0,0,0-2.772,1.912,19.461,19.461,0,0,0,2.934-1.692A18.233,18.233,0,0,0,451.917,241.1Z" transform="translate(-250.186 -181.833)" fill="#eb996e"/><path d="M451.138,230.68c-.057-.067-1.491,1.023-3.355,2.227s-3.441,2.084-3.393,2.16a4.282,4.282,0,0,0,1.09-.468,28.542,28.542,0,0,0,2.466-1.443,28.217,28.217,0,0,0,2.323-1.673A4.311,4.311,0,0,0,451.138,230.68Z" transform="translate(-250.105 -181.372)" fill="#eb996e"/><path d="M325.988,445.18l-1.453,18.782s-24.144,5.458-24.966,9.673l44.464,5.926,4.3-33.2Z" transform="translate(-249.135 -190.852)" fill="#455a64"/><g transform="translate(87.937 272.863)" opacity="0.6"><path d="M340.23,464.723a1.825,1.825,0,0,1,.956,2.237,1.759,1.759,0,0,1-2.208.956,1.912,1.912,0,0,1-1.023-2.38,1.826,1.826,0,0,1,2.418-.774" transform="translate(-337.846 -464.572)" fill="#fff"/></g><g transform="translate(50.365 280.756)" opacity="0.6"><path d="M344.034,480.782l.354-3.623-42.763-4.33s-2.093.6-2.055,2.026Z" transform="translate(-299.569 -472.83)" fill="#fff"/></g><path d="M325,464.484c0,.22,1.051.459,2.026,1.3s1.424,1.835,1.634,1.768.057-1.357-1.137-2.351S324.943,464.274,325,464.484Z" transform="translate(-249.855 -191.7)" fill="#263238"/><path d="M319.82,465.857c-.086.2.812.7,1.424,1.711s.7,2.017.956,2.036.516-1.185-.268-2.437S319.848,465.647,319.82,465.857Z" transform="translate(-249.851 -191.763)" fill="#263238"/><path d="M316.212,471.146c.191.067.631-.956.239-2.237s-1.357-1.912-1.472-1.7.43.889.736,1.912S315.954,471.1,316.212,471.146Z" transform="translate(-249.845 -191.824)" fill="#263238"/><path d="M326.1,459.035c.067.21,1.109.048,2.323.3s2.122.755,2.256.583-.679-1.061-2.112-1.338S326,458.854,326.1,459.035Z" transform="translate(-249.845 -191.441)" fill="#263238"/><path d="M326.66,454.078a4.12,4.12,0,0,0,2.237.287,10.255,10.255,0,0,0,2.418-.4,12.794,12.794,0,0,0,1.376-.507,2.812,2.812,0,0,0,.736-.44.956.956,0,0,0,.258-1.137,1.185,1.185,0,0,0-.889-.621,2.812,2.812,0,0,0-.851,0,8.393,8.393,0,0,0-1.443.287,7.743,7.743,0,0,0-2.237,1.08c-1.157.813-1.615,1.577-1.548,1.634s.679-.535,1.835-1.176a9.07,9.07,0,0,1,2.131-.86,8.309,8.309,0,0,1,1.338-.22c.488-.067.889,0,.956.21s0,.124-.076.249a2.747,2.747,0,0,1-.545.315,13.625,13.625,0,0,1-1.271.516,12.927,12.927,0,0,1-2.265.535,15.946,15.946,0,0,0-2.16.249Z" transform="translate(-249.805 -191.119)" fill="#263238"/><path d="M326.812,454.242a3.68,3.68,0,0,0,.87-2.074,7.1,7.1,0,0,0,0-2.476,7.651,7.651,0,0,0-.382-1.434,1.854,1.854,0,0,0-1.271-1.309,1.042,1.042,0,0,0-1.013.5,2.868,2.868,0,0,0-.335.784,4.886,4.886,0,0,0-.2,1.5,5.162,5.162,0,0,0,.64,2.428c.717,1.271,1.587,1.644,1.615,1.577a18.025,18.025,0,0,1-1.128-1.816,5.076,5.076,0,0,1-.43-2.189,4.723,4.723,0,0,1,.21-1.281c.134-.459.363-.822.535-.746a1.638,1.638,0,0,1,.679.832,6.772,6.772,0,0,1,.392,1.281,7.951,7.951,0,0,1,.134,2.275C327.032,453.411,326.7,454.195,326.812,454.242Z" transform="translate(-249.86 -190.93)" fill="#263238"/><path d="M349.557,445.693l2.141-14.576-23.78-1.157-.707,14.547Z" transform="translate(-249.481 -190.18)" fill="#ffbe9d"/><path d="M395.572,394.53l7.541,17.262s24.593-2.762,26.763.956l-40.058,20.2L374.85,402.989Z" transform="translate(-247.032 -188.614)" fill="#455a64"/><g transform="translate(139.846 227.27)" opacity="0.6"><path d="M390.524,417.291a1.835,1.835,0,0,0-.191,2.437,1.768,1.768,0,0,0,2.408.21,1.912,1.912,0,0,0,.191-2.581,1.816,1.816,0,0,0-2.533.057" transform="translate(-389.958 -416.871)" fill="#fff"/></g><g transform="translate(141.256 222.85)" opacity="0.6"><path d="M390.439,433.717l-1.529-3.307,38.978-18.16s2.17-.124,2.609,1.233Z" transform="translate(-388.91 -412.247)" fill="#fff"/></g><path d="M404.877,412c.1.191-.841.774-1.481,1.912s-.745,2.189-.956,2.208-.5-1.262.306-2.6S404.819,411.836,404.877,412Z" transform="translate(-250.182 -189.384)" fill="#263238"/><path d="M410.225,411.639c.143.162-.535.956-.784,2.084s0,2.141-.2,2.227-.879-.956-.545-2.389S410.129,411.447,410.225,411.639Z" transform="translate(-250.241 -189.368)" fill="#263238"/><path d="M415.406,415.449c-.153.134-.956-.707-.956-2.036s.659-2.208.822-2.084-.105.956-.057,2.064S415.6,415.334,415.406,415.449Z" transform="translate(-248.782 -189.356)" fill="#263238"/><path d="M401.943,407.272c0,.22-1.023.4-2.093,1.032s-1.749,1.424-1.912,1.3.3-1.223,1.558-1.959S401.962,407.071,401.943,407.272Z" transform="translate(-250.122 -189.169)" fill="#263238"/><path d="M399.66,402.839a4.245,4.245,0,0,1-2.007.956,9.9,9.9,0,0,1-2.428.421,10.877,10.877,0,0,1-1.462,0,2.536,2.536,0,0,1-.841-.162.956.956,0,0,1-.612-.956,1.2,1.2,0,0,1,.631-.879,2.772,2.772,0,0,1,.8-.277,8.133,8.133,0,0,1,1.462-.2,7.973,7.973,0,0,1,2.466.277c1.357.4,2.045.956,2,1.042s-.812-.277-2.122-.516a9.2,9.2,0,0,0-2.294-.105,8.406,8.406,0,0,0-1.329.229c-.487.105-.851.277-.86.526,0,.1,0,.124.153.2a2.448,2.448,0,0,0,.621.124,13.474,13.474,0,0,0,1.367.067,12.37,12.37,0,0,0,2.313-.229,14.419,14.419,0,0,1,2.141-.516Z" transform="translate(-249.998 -188.932)" fill="#263238"/><path d="M399.777,402.975c-.048.067-.793-.44-1.5-1.663a7.226,7.226,0,0,1-.831-2.342,6.689,6.689,0,0,1-.105-1.472,1.844,1.844,0,0,1,.765-1.663,1.051,1.051,0,0,1,1.118.143,2.715,2.715,0,0,1,.583.631,5.19,5.19,0,0,1,.87,3.823c-.258,1.434-.956,2.084-1.013,2.026a17.926,17.926,0,0,0,.478-2.093,5.171,5.171,0,0,0-.315-2.2,4.966,4.966,0,0,0-.621-1.147c-.277-.392-.612-.65-.746-.535a1.3,1.3,0,0,0-.373,1.013,7.639,7.639,0,0,0,.048,1.338,8.106,8.106,0,0,0,.621,2.2C399.29,402.268,399.882,402.9,399.777,402.975Z" transform="translate(-250.139 -188.667)" fill="#263238"/><path d="M374.535,402.364,367.73,389.3l22.089-8.9,5.439,13.506Z" transform="translate(-249.337 -187.989)" fill="#ffbe9d"/><path d="M324.681,367.2s-9.023-1.673-10.6-4.827,6.452-38.232,16.077-58.744c10.514-22.509,32.5-15.742,37.745-7.818,9.224,13.888,23.637,82.964,23.637,82.964l-25.53,9.558L339.868,325.73s-4.97-2.762-9.453.631S324.681,367.2,324.681,367.2Z" transform="translate(-248.172 -183.919)" fill="#263238"/><path d="M356.651,427.614c-.956-.315-33.711,0-33.711,0l1.969-60.751,1.912-41.386,23.9-5.907,28.483,7.5s18.772,6.987,19.709,18.323a122.393,122.393,0,0,1,0,20.473,71.227,71.227,0,0,1-30.872,5.362l-6.28-2.5Z" transform="translate(-248.026 -185.301)" fill="#263238"/><path d="M381.75,327.42a2.3,2.3,0,0,1,.182.526c.105.4.248.9.421,1.52.354,1.386.841,3.288,1.443,5.611,1.195,4.779,2.762,11.336,4.473,18.6s3.307,13.85,4.473,18.6c.574,2.332,1.032,4.234,1.376,5.63.143.621.258,1.137.354,1.539a1.958,1.958,0,0,1,.086.545,3.161,3.161,0,0,1-.182-.516c-.124-.4-.268-.9-.449-1.52-.373-1.309-.889-3.221-1.52-5.591-1.262-4.731-2.867-11.3-4.626-18.571s-3.211-13.8-4.33-18.629c-.535-2.332-.956-4.253-1.29-5.649l-.325-1.548A1.911,1.911,0,0,1,381.75,327.42Z" transform="translate(-249.803 -185.648)" fill="#455a64"/><path d="M325,392.534a1.576,1.576,0,0,1,0-.373v-5.419c0-3.728,0-9.118.057-15.79s.191-14.614.516-23.427c.2-4.406.373-9.032.956-13.821a18.264,18.264,0,0,1,2.1-7.054A6.824,6.824,0,0,1,331.394,324a5.984,5.984,0,0,1,3.823-.459,8.535,8.535,0,0,1,3.5,1.663,11.536,11.536,0,0,1,2.5,2.867,45.1,45.1,0,0,1,3.135,6.691l5.3,12.779c3.374,8.134,6.413,15.474,8.965,21.639l6,14.6c.688,1.711,1.233,3.049,1.606,3.986l.411,1.042a2.5,2.5,0,0,1,.124.354,1.442,1.442,0,0,1-.172-.335l-.449-1.023c-.4-.956-.956-2.256-1.7-3.947l-6.184-14.586c-2.581-6.155-5.649-13.477-9.061-21.6q-2.552-6.108-5.333-12.77a45.643,45.643,0,0,0-3.1-6.566,11.009,11.009,0,0,0-2.39-2.743,7.808,7.808,0,0,0-3.288-1.558,5.419,5.419,0,0,0-3.536.4,6.422,6.422,0,0,0-2.562,2.466,17.94,17.94,0,0,0-2.045,6.872c-.593,4.731-.765,9.367-.956,13.764-.354,8.8-.507,16.746-.621,23.408s-.172,12.034-.22,15.79c0,1.845-.048,3.288-.057,4.3v1.118A1.848,1.848,0,0,1,325,392.534Z" transform="translate(-249.097 -185.471)" fill="#455a64"/><path d="M388.894,184.089c-3.508-1.348-7.474,1.587-11.1.6-2.2-.6-3.756-2.514-5.658-3.766A11.47,11.47,0,0,0,361.96,179.8c-3.145,1.329-5.219,2.867-5.869,6.175-2.648-1.787-7.5,1.357-9.319,4.6s-1.673,6.691-1.042,10.39a49.023,49.023,0,0,0,6.834,17.778c.306.478.8,1.023,1.329.812.363-.134.516-.564.6-.956.765-3.25.593-6.633.554-9.969s.057-6.767,1.338-9.845,3.957-5.792,7.264-6.194A10.514,10.514,0,0,1,370.6,194.6c2.055,1.367,3.823,3.106,5.735,4.626a13.659,13.659,0,0,0,6.6,3.125,6.412,6.412,0,0,0,6.375-2.867c1.214-2.189.258-5.4-2.112-6.079a4.846,4.846,0,0,0,1.663-9.367Z" transform="translate(-248.81 -179.092)" fill="#263238"/><path d="M351.079,202.567l.86,37.4c.153,6.366,6.4,11.737,12.75,11.279h0c5.926-.43,9.654-5.878,9.51-11.814-.076-2.81-.124-5.161-.115-5.448,0,0,9.5-1.118,9.979-10.514.22-4.559-.076-13.993-.44-22.528a17.625,17.625,0,0,0-16.946-16.822h-.908C355.925,184.244,350.6,192.722,351.079,202.567Z" transform="translate(-249.209 -179.314)" fill="#ffbe9d"/><path d="M374.616,235.967A21.983,21.983,0,0,1,362.43,232s2.657,6.91,12.11,6.413Z" transform="translate(-249.786 -181.431)" fill="#eb996e"/><path d="M381.975,209.021a1.357,1.357,0,0,1-1.357,1.319,1.3,1.3,0,0,1-1.338-1.271,1.357,1.357,0,0,1,1.348-1.319,1.3,1.3,0,0,1,1.348,1.271Z" transform="translate(-250.089 -180.359)" fill="#263238"/><path d="M382.572,206.37c-.172.172-1.166-.621-2.619-.669s-2.542.631-2.7.449.115-.392.583-.717a3.756,3.756,0,0,1,2.17-.574,3.575,3.575,0,0,1,2.074.755C382.524,205.949,382.658,206.3,382.572,206.37Z" transform="translate(-250.008 -180.231)" fill="#263238"/><path d="M367.5,209.021a1.357,1.357,0,0,1-1.348,1.319,1.3,1.3,0,0,1-1.348-1.271,1.357,1.357,0,0,1,1.357-1.319,1.29,1.29,0,0,1,1.338,1.271Z" transform="translate(-250.031 -180.359)" fill="#263238"/><path d="M367.633,206.1c-.172.172-1.166-.621-2.619-.679s-2.542.64-2.686.459.105-.392.583-.717a3.823,3.823,0,0,1,2.16-.583,3.546,3.546,0,0,1,2.074.765C367.585,205.7,367.748,206.023,367.633,206.1Z" transform="translate(-249.957 -180.219)" fill="#263238"/><path d="M372.991,217.079a9.387,9.387,0,0,1,2.38-.344c.373,0,.726-.076.793-.335a1.911,1.911,0,0,0-.2-1.109l-.956-2.867c-1.376-4.072-2.351-7.417-2.189-7.474s1.415,3.2,2.781,7.283c.335.956.65,1.912.956,2.867a2.141,2.141,0,0,1,.143,1.462.955.955,0,0,1-.631.516,2.658,2.658,0,0,1-.64.067,10.218,10.218,0,0,1-2.437-.067Z" transform="translate(-250.03 -180.235)" fill="#263238"/><path d="M368.457,218.52c.229,0,.182,1.567,1.482,2.743s2.992,1.051,3,1.271-.392.3-1.1.287a3.9,3.9,0,0,1-2.5-.956,3.431,3.431,0,0,1-1.147-2.294C368.161,218.893,368.343,218.51,368.457,218.52Z" transform="translate(-249.993 -180.835)" fill="#263238"/><path d="M368.193,200.175c-.163.392-1.606.153-3.307.3s-3.106.554-3.326.191c-.086-.172.162-.535.736-.9a5.735,5.735,0,0,1,5.047-.363C367.954,199.668,368.259,199.955,368.193,200.175Z" transform="translate(-249.923 -179.971)" fill="#263238"/><path d="M382.2,201.926c-.268.315-1.262-.057-2.456-.124s-2.227.143-2.456-.21c-.1-.172.076-.5.535-.793a3.565,3.565,0,0,1,3.957.268C382.192,201.448,382.316,201.792,382.2,201.926Z" transform="translate(-250.019 -180.031)" fill="#263238"/><path d="M351.312,210.743c-.153-.067-6.413-2.16-6.452,4.311s6.461,5.161,6.471,4.98S351.312,210.743,351.312,210.743Z" transform="translate(-249.874 -180.475)" fill="#ffbe9d"/><path d="M349.447,217.663a1.757,1.757,0,0,1-.306.172,1.176,1.176,0,0,1-.841,0,2.772,2.772,0,0,1-1.271-2.5,3.672,3.672,0,0,1,.325-1.615,1.31,1.31,0,0,1,.851-.86.573.573,0,0,1,.659.315c.086.182,0,.306.076.315s.143-.105.1-.373a.736.736,0,0,0-.258-.4.841.841,0,0,0-.621-.172,1.567,1.567,0,0,0-1.176.956,3.7,3.7,0,0,0-.4,1.806,2.867,2.867,0,0,0,1.625,2.8,1.223,1.223,0,0,0,1.032-.172C349.438,217.825,349.476,217.682,349.447,217.663Z" transform="translate(-249.954 -180.57)" fill="#eb996e"/><path d="M385.638,198.938a13.649,13.649,0,0,1-12.014-3.183c-2.217-2.036-3.89-4.9-6.738-5.9a7.713,7.713,0,0,0-5.9.583,14.852,14.852,0,0,0-4.6,3.928c1.644,4.865.22,10.179-1.2,15.111a2.618,2.618,0,0,1-.812,1.462c-.784.564-1.912.057-2.552-.66a8.048,8.048,0,0,1-1.6-4.282,26.62,26.62,0,0,1,.459-10.514,18.161,18.161,0,0,1,5.3-8.946,17.2,17.2,0,0,1,12.167-4.043,21.1,21.1,0,0,1,12.043,4.779A12.425,12.425,0,0,1,384.022,192" transform="translate(-249.133 -179.241)" fill="#263238"/><path d="M392.048,186.631a1.233,1.233,0,0,1-.076.554,2.648,2.648,0,0,1-.956,1.3,4.129,4.129,0,0,1-2.447.717,6.69,6.69,0,0,1-1.6-.162,3.373,3.373,0,0,1-1.625-.822,2.284,2.284,0,0,1-.736-1.854,2.017,2.017,0,0,1,1.434-1.6,2.514,2.514,0,0,1,1.166-.105,2.075,2.075,0,0,1,1.09.545,2.953,2.953,0,0,1,.879,2.294,3.412,3.412,0,0,1-1.109,2.332,5.21,5.21,0,0,1-2.39,1.233,8.459,8.459,0,0,1-5.5-.8,24.122,24.122,0,0,1-4.664-3.059,31.078,31.078,0,0,0-4.225-2.925,9.672,9.672,0,0,0-4.4-1.243,9.031,9.031,0,0,0-3.9.851,11.471,11.471,0,0,0-4.435,3.728,13.28,13.28,0,0,0-.87,1.348,5.405,5.405,0,0,1-.287.478.314.314,0,0,1,.048-.134c.048-.086.1-.22.182-.382a12.423,12.423,0,0,1,.832-1.376,11.278,11.278,0,0,1,4.435-3.871,9.28,9.28,0,0,1,4-.908,9.787,9.787,0,0,1,4.53,1.252,31.007,31.007,0,0,1,4.282,2.934,24.851,24.851,0,0,0,4.617,3.02,8.239,8.239,0,0,0,5.285.784,4.779,4.779,0,0,0,2.246-1.156,3.077,3.077,0,0,0,1.023-2.122,2.648,2.648,0,0,0-.774-2.074,1.912,1.912,0,0,0-1.978-.382,1.73,1.73,0,0,0-1.271,1.367,2.045,2.045,0,0,0,.65,1.663,3.26,3.26,0,0,0,1.51.793,6.865,6.865,0,0,0,1.548.172,4.033,4.033,0,0,0,2.37-.631,2.657,2.657,0,0,0,.956-1.223A3.777,3.777,0,0,0,392.048,186.631Z" transform="translate(-249.136 -179.255)" fill="#455a64"/><path d="M345.42,196.576a10.92,10.92,0,0,0,1.912.583,5.631,5.631,0,0,0,2.179-.143,9.417,9.417,0,0,0,2.456-1.071,7.474,7.474,0,0,0,3.02-3.737,14.726,14.726,0,0,0,.507-1.988,1.635,1.635,0,0,1,0,.564,6.5,6.5,0,0,1-.306,1.491,7.331,7.331,0,0,1-3.068,3.938,8.792,8.792,0,0,1-2.562,1.09,5.476,5.476,0,0,1-2.275.086,5.008,5.008,0,0,1-1.453-.507A1.635,1.635,0,0,1,345.42,196.576Z" transform="translate(-249.799 -179.584)" fill="#455a64"/><path d="M345.53,201.474c0-.057.765.134,1.978.115a9.157,9.157,0,0,0,4.511-1.29,9.023,9.023,0,0,0,3.211-3.412c.583-1.07.755-1.826.812-1.806a1.748,1.748,0,0,1-.1.535,7.184,7.184,0,0,1-.516,1.376,8.6,8.6,0,0,1-3.25,3.575,8.755,8.755,0,0,1-4.674,1.252,7.08,7.08,0,0,1-1.462-.182A1.68,1.68,0,0,1,345.53,201.474Z" transform="translate(-249.79 -179.799)" fill="#455a64"/><path d="M362.591,212.424a.182.182,0,0,1-.191-.153.163.163,0,0,1,.134-.191.153.153,0,0,1,.182.143.172.172,0,0,1-.124.2Z" transform="translate(-250.077 -180.55)" fill="#eb996e"/><path d="M365.511,211.871a.191.191,0,0,1-.191-.172.2.2,0,0,1,.134-.229.21.21,0,0,1,.057.4Z" transform="translate(-250.09 -180.523)" fill="#eb996e"/><path d="M367.471,211.886c-.086,0-.172-.105-.182-.248s0-.268.134-.268.172.1.182.239S367.557,211.877,367.471,211.886Z" transform="translate(-250.099 -180.519)" fill="#eb996e"/><path d="M363.992,214.3c-.1,0-.162-.048-.162-.105s.076-.105.162-.1.163.048.163.105S364.04,214.31,363.992,214.3Z" transform="translate(-250.083 -180.639)" fill="#eb996e"/><path d="M366.632,213.774a.172.172,0,0,1-.172-.172.163.163,0,0,1,.325,0,.172.172,0,0,1-.153.172Z" transform="translate(-250.095 -180.61)" fill="#eb996e"/><path d="M380.541,212.643a.182.182,0,0,1-.191-.153.191.191,0,0,1,.134-.21.185.185,0,0,1,.057.363Z" transform="translate(-250.157 -180.559)" fill="#eb996e"/><path d="M382.522,212.531a.189.189,0,0,1-.172-.191.182.182,0,0,1,.153-.21.189.189,0,0,1,.172.191A.176.176,0,0,1,382.522,212.531Z" transform="translate(-250.166 -180.552)" fill="#eb996e"/><path d="M378.791,212.627a.143.143,0,1,1-.048-.277.153.153,0,0,1,.182.115.143.143,0,0,1-.134.162Z" transform="translate(-250.149 -180.562)" fill="#eb996e"/><path d="M380.179,214.654a.191.191,0,1,1,.086-.229.172.172,0,0,1-.086.229Z" transform="translate(-250.155 -180.648)" fill="#eb996e"/><path d="M381.885,214.387a.153.153,0,0,1-.105-.182.143.143,0,0,1,.191-.076.153.153,0,0,1,.115.182A.162.162,0,0,1,381.885,214.387Z" transform="translate(-250.164 -180.64)" fill="#eb996e"/><path d="M346.789,219.615a3.71,3.71,0,0,0-.229,1.453,2.141,2.141,0,0,0,.65,1.386,1.912,1.912,0,0,0,1.72.516,1.787,1.787,0,0,0,1.309-1.2,2.332,2.332,0,0,0-.21-1.51,3.021,3.021,0,0,0-.908-1.166c0-.057.65.172,1.109,1.061a2.447,2.447,0,0,1,.3,1.692,2.064,2.064,0,0,1-1.52,1.443,2.17,2.17,0,0,1-2-.621,2.275,2.275,0,0,1-.679-1.577,2.58,2.58,0,0,1,.22-1.128C346.674,219.72,346.77,219.606,346.789,219.615Z" transform="translate(-249.925 -180.86)" fill="#263238"/><path d="M346.807,218.49a.682.682,0,0,1,.344.459.946.946,0,0,1-.688,1.166.889.889,0,0,1-.793-.22.707.707,0,0,1-.21-.64c.067-.392.344-.487.344-.449a1.074,1.074,0,0,0-.124.468.507.507,0,0,0,.191.4.631.631,0,0,0,.526.134.736.736,0,0,0,.44-.344.88.88,0,0,0,.1-.478C346.931,218.691,346.769,218.528,346.807,218.49Z" transform="translate(-249.972 -180.833)" fill="#263238"/><path d="M318.629,330.453c-1.72-3.613-7.388-11.8-7.388-11.8-5.439-.277-7.264,1.4-9.491,4.55,0,0,.573,10.657.573,10.915s1.969,10.676,1.969,10.676a2.466,2.466,0,0,0,1.778,1.654c1.453.382-.354-8.755-.354-8.755L308,343.882l-.048.449s.077,4.779.717,5.792a1.816,1.816,0,0,0,1.835,1.013c.306,0,.373-3.7.573-7.044l-.889-5.391,2.16,5.142s-.315,5.591.287,6.872,2.523,1.3,2.523.593.086-3.173.182-5.41a43.3,43.3,0,0,0-.6-6.432l1.654,5.247.65,4.836c.382.249,1.625.851,1.969.067a36.253,36.253,0,0,0,.44-4.7c-.067-1.4-.631-5.324-.631-5.324a5.543,5.543,0,0,0,2.915,2.122c1.778.4,2.036-.344,2.036-.344Z" transform="translate(-249.544 -185.259)" fill="#ffbe9d"/><path d="M318.46,335.73a22.328,22.328,0,0,1,1.357,5.1,22.679,22.679,0,0,1,.6,5.238,37.408,37.408,0,0,1-1.1-5.152,38.293,38.293,0,0,1-.86-5.19Z" transform="translate(-249.856 -186.015)" fill="#eb996e"/><path d="M315.279,322.387a3.344,3.344,0,0,1-.573-.679,11.283,11.283,0,0,0-1.587-1.74A5.008,5.008,0,0,0,310,318.716a7.407,7.407,0,0,0-4.024,1.032,13.467,13.467,0,0,0-5.448,5.391,8.659,8.659,0,0,0-.717,3.125,2,2,0,0,1-.115-.879,6.25,6.25,0,0,1,.516-2.38,13.009,13.009,0,0,1,5.515-5.735,7.7,7.7,0,0,1,4.3-1.051,5.285,5.285,0,0,1,3.326,1.443,9.553,9.553,0,0,1,1.51,1.912A2.733,2.733,0,0,1,315.279,322.387Z" transform="translate(-249.625 -185.241)" fill="#263238"/></g></g></svg>