<svg xmlns="http://www.w3.org/2000/svg" viewBox="0 0 823.864 1173.712"><g transform="translate(-125.188 -274.758)"><path d="M823.357,1160.272V0H0V1160.272H0v13.44H10.429c.169-1.947,1.691-3.776,4.232-5.083a19.6,19.6,0,0,1,9.311-1.884c7.069-.211,13.115,2.863,13.543,6.885H45.7c.428-4.023,6.473-7.1,13.543-6.885,7.1-.235,13.188,2.846,13.615,6.885h8.184c.428-4.023,6.473-7.1,13.543-6.885,7.069-.211,13.115,2.863,13.543,6.885h8.256c.428-4.023,6.473-7.1,13.543-6.885,7.069-.211,13.115,2.863,13.543,6.885h8.184c.867-3.894,6.685-6.812,13.579-6.812s12.712,2.919,13.579,6.813h8.184c.719-3.951,6.566-6.953,13.543-6.953s12.824,3,13.543,6.952h8.184c.867-3.894,6.685-6.812,13.579-6.812s12.712,2.919,13.579,6.813H257.6c.719-3.951,6.566-6.953,13.543-6.953s12.824,3,13.543,6.953h8.256c.719-3.951,6.566-6.953,13.543-6.953s12.824,3,13.543,6.953h8.184c.867-3.894,6.685-6.812,13.579-6.812s12.712,2.919,13.579,6.813h8.184c.719-3.951,6.566-6.953,13.543-6.953s12.824,3,13.543,6.953H398.9c.719-3.951,6.566-6.953,13.543-6.953s12.824,3,13.543,6.953h8.546c.867-3.894,6.685-6.812,13.579-6.812s12.712,2.919,13.579,6.813h8.184c.719-3.951,6.566-6.953,13.543-6.953s12.824,3,13.543,6.952h7.821c.867-3.894,6.685-6.812,13.579-6.812s12.712,2.919,13.579,6.813h9.125v-2.35c2.214-2.818,7.18-4.605,12.6-4.535,7.1-.235,13.188,2.845,13.615,6.885h8.184c.719-3.951,6.566-6.953,13.543-6.953s12.824,3,13.543,6.952h8.184c.867-3.894,6.685-6.812,13.579-6.812s12.712,2.919,13.579,6.813h8.184c.719-3.951,6.566-6.953,13.543-6.953s12.824,3,13.543,6.952h8.256c.719-3.951,6.566-6.953,13.543-6.953s12.824,3,13.543,6.952h8.474c.867-3.894,6.685-6.812,13.579-6.812s12.712,2.919,13.579,6.813h8.184c.719-3.951,6.566-6.953,13.543-6.953s12.824,3,13.543,6.952h8.184c.867-3.894,6.685-6.812,13.579-6.812s12.712,2.919,13.579,6.813h9.125v-13.44Z" transform="translate(125.188 274.758)" fill="#f9fffa"/><path d="M8.876,1171.712a7.674,7.674,0,0,1,1.242-2.061,11.5,11.5,0,0,1,3.628-2.8,21.29,21.29,0,0,1,9.559-2.116c.222,0,.446,0,.667.009s.458-.01.687-.01a21.074,21.074,0,0,1,9.754,2.224,9.742,9.742,0,0,1,4.635,4.671h5.118a9.745,9.745,0,0,1,4.635-4.671,21.075,21.075,0,0,1,9.755-2.224c.227,0,.456,0,.682.009.253-.008.51-.012.763-.012a21.073,21.073,0,0,1,9.754,2.224,9.74,9.74,0,0,1,4.636,4.674h5.117a9.744,9.744,0,0,1,4.635-4.671,21.078,21.078,0,0,1,9.755-2.224c.228,0,.458,0,.685.01s.458-.01.687-.01a21.074,21.074,0,0,1,9.754,2.224,9.743,9.743,0,0,1,4.635,4.671h5.191a9.745,9.745,0,0,1,4.635-4.671,21.076,21.076,0,0,1,9.755-2.224c.228,0,.458,0,.686.009s.458-.009.686-.009a21.075,21.075,0,0,1,9.755,2.224A9.742,9.742,0,0,1,145,1171.63h5.253a10.815,10.815,0,0,1,5.03-4.654,24,24,0,0,1,19.893,0,10.816,10.816,0,0,1,5.03,4.654h5.34a10.541,10.541,0,0,1,4.957-4.737,23.819,23.819,0,0,1,20.063,0,10.541,10.541,0,0,1,4.957,4.737h5.34a10.816,10.816,0,0,1,5.03-4.654,24,24,0,0,1,19.893,0,10.816,10.816,0,0,1,5.03,4.654h5.34a10.542,10.542,0,0,1,4.957-4.737,23.817,23.817,0,0,1,20.063,0,10.542,10.542,0,0,1,4.957,4.737H291.5a10.541,10.541,0,0,1,4.957-4.737,23.817,23.817,0,0,1,20.063,0,10.542,10.542,0,0,1,4.957,4.737h5.34a10.816,10.816,0,0,1,5.03-4.654,24,24,0,0,1,19.893,0,10.816,10.816,0,0,1,5.03,4.654h5.34a10.542,10.542,0,0,1,4.957-4.737,23.817,23.817,0,0,1,20.063,0,10.54,10.54,0,0,1,4.957,4.737h5.364a10.541,10.541,0,0,1,4.957-4.737,23.817,23.817,0,0,1,20.063,0,10.54,10.54,0,0,1,4.957,4.737h5.7a10.816,10.816,0,0,1,5.03-4.654,24,24,0,0,1,19.893,0,10.816,10.816,0,0,1,5.03,4.654h5.34a10.541,10.541,0,0,1,4.957-4.737,23.819,23.819,0,0,1,20.063,0,10.541,10.541,0,0,1,4.957,4.737h4.978a10.815,10.815,0,0,1,5.03-4.654,24,24,0,0,1,19.893,0,10.816,10.816,0,0,1,5.03,4.654h5.727v-1.042l.427-.544a13.125,13.125,0,0,1,5.855-3.946,23.541,23.541,0,0,1,8.3-1.354c.258-.008.52-.012.779-.012a21.072,21.072,0,0,1,9.754,2.224,9.739,9.739,0,0,1,4.636,4.673h5.2a10.541,10.541,0,0,1,4.957-4.737,23.819,23.819,0,0,1,20.063,0,10.541,10.541,0,0,1,4.957,4.737h5.34a10.816,10.816,0,0,1,5.03-4.654,24,24,0,0,1,19.893,0,10.816,10.816,0,0,1,5.03,4.654h5.34a10.541,10.541,0,0,1,4.957-4.737,23.818,23.818,0,0,1,20.063,0,10.541,10.541,0,0,1,4.957,4.737h5.364a10.541,10.541,0,0,1,4.957-4.737,23.819,23.819,0,0,1,20.063,0,10.54,10.54,0,0,1,4.957,4.737h5.63a10.816,10.816,0,0,1,5.03-4.654,24,24,0,0,1,19.893,0,10.816,10.816,0,0,1,5.03,4.654h5.34a10.542,10.542,0,0,1,4.957-4.737,23.819,23.819,0,0,1,20.063,0,10.541,10.541,0,0,1,4.957,4.737h5.34a10.815,10.815,0,0,1,5.03-4.654,24,24,0,0,1,19.893,0,10.816,10.816,0,0,1,5.03,4.654h5.728v-9.089l-.507.082V2H2V1171.712H8.876m1.553,2H0V0H823.357V1160.272l.507-.082v13.44h-9.125c-.867-3.894-6.685-6.812-13.579-6.812s-12.712,2.919-13.579,6.812H779.4c-.719-3.95-6.566-6.952-13.543-6.952s-12.824,3-13.543,6.953h-8.184c-.867-3.894-6.685-6.812-13.579-6.812s-12.712,2.919-13.579,6.812H708.5c-.718-3.95-6.566-6.952-13.543-6.952s-12.824,3-13.543,6.953h-8.256c-.719-3.95-6.566-6.952-13.543-6.952s-12.824,3-13.543,6.953h-8.184c-.867-3.894-6.685-6.812-13.579-6.812s-12.712,2.919-13.579,6.812h-8.184c-.719-3.95-6.566-6.952-13.543-6.952s-12.824,3-13.543,6.953h-8.184c-.427-4.04-6.518-7.12-13.615-6.885l-.307,0c-5.3,0-10.122,1.773-12.294,4.537v2.35h-9.125c-.867-3.894-6.685-6.812-13.579-6.812s-12.712,2.919-13.579,6.812h-7.822c-.719-3.95-6.566-6.952-13.543-6.952s-12.824,3-13.543,6.953h-8.184c-.867-3.894-6.685-6.812-13.579-6.812s-12.712,2.919-13.579,6.812h-8.546c-.718-3.95-6.566-6.953-13.543-6.953s-12.824,3-13.543,6.953H390.64c-.718-3.95-6.566-6.953-13.543-6.953s-12.824,3-13.543,6.953h-8.184c-.867-3.894-6.685-6.812-13.579-6.812s-12.712,2.919-13.579,6.812h-8.184c-.719-3.95-6.566-6.953-13.543-6.953s-12.824,3-13.543,6.953h-8.256c-.719-3.95-6.566-6.953-13.543-6.953s-12.824,3-13.543,6.953h-8.184c-.867-3.894-6.685-6.812-13.579-6.812s-12.712,2.919-13.579,6.812h-8.184c-.719-3.95-6.566-6.952-13.543-6.952s-12.824,3-13.543,6.953h-8.184c-.867-3.894-6.685-6.812-13.579-6.812s-12.712,2.919-13.579,6.812h-8.184c-.428-4.023-6.474-7.1-13.543-6.885q-.345-.01-.686-.01c-6.77,0-12.443,3-12.857,6.9h-8.256c-.428-4.023-6.473-7.1-13.543-6.885-7.069-.21-13.115,2.863-13.543,6.885H72.856c-.427-4.04-6.518-7.121-13.615-6.885-7.07-.209-13.115,2.863-13.543,6.885H37.514c-.414-3.892-6.085-6.9-12.856-6.9-.227,0-.457,0-.686.01a19.6,19.6,0,0,0-9.311,1.884C12.12,1169.936,10.6,1171.765,10.429,1173.712Z" transform="translate(125.188 274.758)" fill="#109822"/></g></svg>