<svg xmlns="http://www.w3.org/2000/svg" width="159.005" height="238.054" viewBox="0 0 159.005 238.054"><g transform="translate(-3335.88 21736.931)"><path d="M375.719,245.305a3.187,3.187,0,0,1-.27-.471l-.664-1.4c-.571-1.227-1.358-3.025-2.315-5.248-1.875-4.461-4.275-10.7-6.83-17.611s-4.893-13.173-6.675-17.665l-2.122-5.309-.571-1.443a2.2,2.2,0,0,1-.162-.525,2.009,2.009,0,0,1,.262.478c.185.378.4.841.671,1.4.571,1.227,1.35,3.017,2.315,5.248,1.883,4.453,4.275,10.688,6.83,17.611s4.893,13.165,6.675,17.657l2.122,5.309c.232.579.417,1.057.571,1.451a2.46,2.46,0,0,1,.162.517Z" transform="translate(3058.848 -21894.391)" fill="#e0e0e0"/><path d="M317.2,363.457a2.277,2.277,0,1,1-2.269-2.277A2.277,2.277,0,0,1,317.2,363.457Z" transform="translate(3068.769 -21932.184)" fill="#e0e0e0"/><path d="M315.551,369.123a15.636,15.636,0,0,1,0-4.993,15.635,15.635,0,0,1,0,4.993Z" transform="translate(3068.153 -21932.855)" fill="#e0e0e0"/><path d="M288.051,350.72l-16.021,8.628v12.07l16.021-8.937Z" transform="translate(3078.042 -21929.795)" fill="#e0e0e0"/><path d="M282.4,320.85v46.7l13.15,6.8V327.062Z" transform="translate(3075.675 -21922.977)" fill="#f5f5f5"/><path d="M292.116,315.05l-9.716,4.476,13.15,6.212,8.844-4.985Z" transform="translate(3075.675 -21921.652)" fill="#fafafa"/><path d="M299.44,327.425v47.283l8-4.306.841-47.962Z" transform="translate(3071.785 -21923.34)" fill="#e0e0e0"/><path d="M290.8,270.713a15.636,15.636,0,0,1,0-4.993A15.634,15.634,0,0,1,290.8,270.713Z" transform="translate(3073.803 -21910.391)" fill="#e0e0e0"/><path d="M294.913,286.4a2.277,2.277,0,1,1-2.277-2.277,2.277,2.277,0,0,1,2.277,2.277Z" transform="translate(3073.857 -21914.592)" fill="#e0e0e0"/><path d="M293.251,292.063a15.636,15.636,0,0,1,0-4.993,15.634,15.634,0,0,1,0,4.993Z" transform="translate(3073.243 -21915.266)" fill="#e0e0e0"/><path d="M296.793,303.747a2.277,2.277,0,1,1-2.277-2.277A2.277,2.277,0,0,1,296.793,303.747Z" transform="translate(3073.428 -21918.553)" fill="#e0e0e0"/><path d="M295.131,309.413a15.636,15.636,0,0,1,0-4.993A15.634,15.634,0,0,1,295.131,309.413Z" transform="translate(3072.814 -21919.227)" fill="#e0e0e0"/><circle cx="2.277" cy="2.277" r="2.277" transform="translate(3376.627 -21549.611)" fill="#e0e0e0"/><path d="M309.331,396.843a15.632,15.632,0,0,1,0-4.993A15.636,15.636,0,0,1,309.331,396.843Z" transform="translate(3069.573 -21939.186)" fill="#e0e0e0"/><path d="M311.743,299a2.277,2.277,0,1,1-2.277-2.277A2.277,2.277,0,0,1,311.743,299Z" transform="translate(3070.015 -21917.467)" fill="#e0e0e0"/><path d="M310.081,304.663a15.634,15.634,0,0,1,0-4.993A15.636,15.636,0,0,1,310.081,304.663Z" transform="translate(3069.401 -21918.141)" fill="#e0e0e0"/><path d="M296.86,274.027l18.768-9.947-.077,17.942Z" transform="translate(3072.374 -21910.018)" fill="#ebebeb"/><path d="M365.37,259.79c11.429.286,22.982.586,34.033,3.519s21.724,8.767,28.276,18.135c7.223,10.31,8.659,23.491,9.376,36.055a402.321,402.321,0,0,1-.972,62.571c-1.034,10.526-4.769,20.312-14.562,24.317-11.776,4.823-27.6,0-27.6,0" transform="translate(3056.734 -21909.037)" fill="#263238"/><path d="M405.09,404.417H406.8l4.885-.039a55.334,55.334,0,0,0,7.717-.4c.772-.123,1.543-.208,2.315-.409l1.188-.262c.4-.108.772-.239,1.212-.355.826-.216,1.628-.563,2.47-.872a23.61,23.61,0,0,0,2.469-1.219,17.858,17.858,0,0,0,4.63-3.673,13.938,13.938,0,0,0,3.017-5.556,66.257,66.257,0,0,0,1.736-14.068c.154-5.008.1-10.272.147-15.735s.046-11.105.077-16.893.085-11.445-.1-16.9a114.835,114.835,0,0,0-1.482-15.635c-1.667-9.87-5.117-18.429-9.577-24.556a54.787,54.787,0,0,0-6.822-7.578c-2.2-2.06-4.175-3.743-5.8-5.109l-3.751-3.125-.965-.826a3.734,3.734,0,0,1-.324-.293s.123.085.347.262l1,.772,3.8,3.087c1.636,1.343,3.635,3.01,5.85,5.062a54.157,54.157,0,0,1,6.9,7.578c4.515,6.174,8.018,14.747,9.716,24.695a114.368,114.368,0,0,1,1.5,15.689c.2,5.464.139,11.12.116,16.908s-.054,11.437-.085,16.9,0,10.719-.17,15.743a66.689,66.689,0,0,1-1.783,14.146,14.269,14.269,0,0,1-3.087,5.672,18.219,18.219,0,0,1-4.684,3.712,24.893,24.893,0,0,1-2.5,1.227c-.857.309-1.675.648-2.508.864l-1.219.347-1.2.262c-.772.193-1.543.27-2.315.394a53.535,53.535,0,0,1-7.717.332H405.63Z" transform="translate(3047.667 -21911.576)" fill="#455a64"/><path d="M448.71,370.423a11.4,11.4,0,0,1,4.005-.718,11.63,11.63,0,0,1,4.059.34c0,.116-1.821-.046-4.044.062S448.733,370.539,448.71,370.423Z" transform="translate(3037.709 -21934.119)" fill="#455a64"/><path d="M384.72,260.56h1.165c.772,0,1.9,0,3.349.131a51.359,51.359,0,0,1,12.039,2.57l1.875.695.972.363.957.432,1.983.9c.679.3,1.32.687,2.006,1.042a54.83,54.83,0,0,1,8.18,5.348,56.338,56.338,0,0,1,7.872,7.4,41.433,41.433,0,0,1,6.367,9.685,67.152,67.152,0,0,1,5.7,21.608A159.738,159.738,0,0,1,437.953,329c0,5.2,0,9.4.1,12.309.046,1.435.077,2.554.1,3.349v.864a1.771,1.771,0,0,1,0,.3,1.272,1.272,0,0,1,0-.293,4.9,4.9,0,0,0-.062-.872c-.054-.772-.108-1.891-.17-3.342-.116-2.909-.178-7.115-.232-12.347a179.372,179.372,0,0,0-.887-18.22,67.322,67.322,0,0,0-5.688-21.454,40.769,40.769,0,0,0-6.3-9.6,55.245,55.245,0,0,0-7.8-7.37,54.326,54.326,0,0,0-8.111-5.348c-.671-.355-1.312-.772-1.983-1.049l-1.968-.9-.957-.44-.957-.363-1.86-.71a53.916,53.916,0,0,0-11.962-2.678c-1.443-.124-2.578-.147-3.334-.2l-.872-.054A1.272,1.272,0,0,1,384.72,260.56Z" transform="translate(3052.317 -21909.213)" fill="#e0e0e0"/><path d="M375.46,258.7s2.8-7.4,12.78-6c0,0,4.445-.247,5.255,2.223,0,0-9.3-2.315-13.258,4.121Z" transform="translate(3054.431 -21907.381)" fill="#263238"/><path d="M406.055,267.591h-5.842s-1.134-15.434-15.3-14.856C384.91,252.766,402.521,246.839,406.055,267.591Z" transform="translate(3052.273 -21907.254)" fill="#455a64"/><path d="M448.738,382.87l8.381,1.158-.841,2.979-7.818-.6Z" transform="translate(3037.766 -21937.135)" fill="#455a64"/><path d="M449.48,385.869a6.83,6.83,0,0,1,.98-1.5l.116-.154.131.154,1.173,1.428-.27-.039.833-.617.872-.633.154-.116.116.162,1.073,1.543-.216-.039a7.148,7.148,0,0,1,1.543-.9,6.5,6.5,0,0,1-1.327,1.15l-.147.054-.093-.123-1.142-1.466.27.039-.857.641-.841.61-.154.116-.116-.154-1.111-1.466h.247a6.8,6.8,0,0,1-1.235,1.312Z" transform="translate(3037.533 -21937.441)" fill="#ff641e"/><path d="M290.6,410.1s-1.621-5.279-1.3-7.516,3.326-4.26,3.326-4.26L289.377,313.7s-.417-37.042,19.169-48.518l11.692-2.948,28.839-1.706c.934.309,34.828,13.057,39.489,18.035L373.949,353.19s1.775,22.048,3.542,37.891c.363,3.241,2.794,19.247,2.794,19.247Z" transform="translate(3074.107 -21909.205)" fill="#ff641e"/><g transform="translate(3383.951 -21553.371)" opacity="0.3"><path d="M383.039,414.3c-.278,2.053-1.057,4.561-3.033,5.2a12.911,12.911,0,0,1-6.174.085c-7.223-1.289-13.891-4.684-20.412-8.034-12.2-6.274-24.517-12.61-35.059-21.407-1.482-1.235-3.087-3.156-2.153-4.862,1.026-1.929,3.92-1.281,5.9-.363,20.7,9.538,40.222,19.833,60.919,29.379" transform="translate(-315.931 -384.028)"/></g><path d="M301.237,269.55s-12.911,4.306-17.086,16.268c-4.63,13.212-7.671,38.864-7.671,38.864l12.749,1.605Z" transform="translate(3077.026 -21911.266)" fill="#ff641e"/><path d="M411.662,283.277a72.169,72.169,0,0,1,10.295,20.173c3.349,11.066,5.294,43.131,5.294,43.131l-34.727-.478-1.844-28.222S387.175,270.8,411.662,283.277Z" transform="translate(3050.996 -21913.918)" fill="#ff641e"/><path d="M282.38,304.865a4.113,4.113,0,0,1,.965-.9,4.715,4.715,0,0,1,3.65-.7c1.682.247,3.318,1.543,5.471,2.392a6.174,6.174,0,0,0,3.581.44,9.584,9.584,0,0,0,3.527-2.068,9.721,9.721,0,0,1,1.929-1.212,3.087,3.087,0,0,1,2.4-.1,4.036,4.036,0,0,1,1.868,1.667c.478.694.864,1.451,1.366,2.13a3.742,3.742,0,0,0,1.96,1.543,4.576,4.576,0,0,0,2.578,0,9.9,9.9,0,0,0,2.516-1.088c.772-.471,1.543-1.042,2.4-1.543a11.4,11.4,0,0,1,2.686-1.3,5.108,5.108,0,0,1,3.087,0,8.072,8.072,0,0,1,2.67,1.636c.772.671,1.543,1.412,2.354,2.053a5.966,5.966,0,0,0,2.747,1.343,5.641,5.641,0,0,0,3.087-.316,49.677,49.677,0,0,0,5.757-3.2,10.674,10.674,0,0,1,3.141-1.258,6.258,6.258,0,0,1,3.349.262c2.1.818,3.658,2.415,5.526,3.3a6.637,6.637,0,0,0,1.435.509,5.757,5.757,0,0,0,1.5.1,8.389,8.389,0,0,0,2.879-.826,54.327,54.327,0,0,1,5.4-2.608,5.866,5.866,0,0,1,2.917-.255,5.464,5.464,0,0,1,2.539,1.3c1.412,1.181,2.531,2.686,4.144,3.187a4.808,4.808,0,0,0,2.431.069,17.934,17.934,0,0,0,2.315-.695,8.374,8.374,0,0,1,4.561-.718,4.77,4.77,0,0,1,1.96.965c.563.432,1.057.911,1.543,1.343a8.325,8.325,0,0,0,1.543,1.119,4.946,4.946,0,0,0,1.667.533,6.946,6.946,0,0,0,3.156-.316,9.462,9.462,0,0,0,2.4-1.227,21.01,21.01,0,0,0,2.84-2.462l.695-.695a1.313,1.313,0,0,1,.247-.224s-.069.093-.216.255l-.664.725a20.224,20.224,0,0,1-2.817,2.531,9.538,9.538,0,0,1-2.423,1.273,7.1,7.1,0,0,1-3.249.363,5.132,5.132,0,0,1-1.752-.548A8.887,8.887,0,0,1,384.5,310.5c-1-.849-1.983-1.937-3.4-2.223a8.445,8.445,0,0,0-4.391.733,18.68,18.68,0,0,1-2.361.718,5.186,5.186,0,0,1-2.593-.069,6.344,6.344,0,0,1-2.315-1.4c-.679-.6-1.3-1.258-2-1.837a5,5,0,0,0-2.377-1.212,5.526,5.526,0,0,0-2.732.255,59.185,59.185,0,0,0-5.333,2.6,8.589,8.589,0,0,1-3,.864,6.22,6.22,0,0,1-1.605-.1,7.2,7.2,0,0,1-1.543-.54c-1.945-.934-3.5-2.516-5.5-3.28a5.811,5.811,0,0,0-3.125-.247,10.619,10.619,0,0,0-3.025,1.212,46.99,46.99,0,0,1-5.811,3.234,6.173,6.173,0,0,1-3.288.332,6.4,6.4,0,0,1-2.917-1.428c-1.675-1.3-3.017-3-4.908-3.627a4.715,4.715,0,0,0-2.848,0,11.036,11.036,0,0,0-2.593,1.258c-.826.5-1.59,1.073-2.423,1.543a10.288,10.288,0,0,1-2.6,1.111,5,5,0,0,1-2.778,0,4.16,4.16,0,0,1-2.122-1.644c-.517-.71-.9-1.474-1.358-2.153a3.858,3.858,0,0,0-1.713-1.543,2.771,2.771,0,0,0-2.176.093,9.059,9.059,0,0,0-1.875,1.165,10.245,10.245,0,0,1-3.643,2.091,6.413,6.413,0,0,1-3.72-.486c-2.184-.864-3.789-2.184-5.4-2.446a4.7,4.7,0,0,0-3.581.617A9.032,9.032,0,0,0,282.38,304.865Z" transform="translate(3075.679 -21918.791)" fill="#fafafa"/><path d="M277.08,332.15a1.878,1.878,0,0,1,.34,0l1,.1a8.635,8.635,0,0,0,3.8-.1c.818-.177,1.736-.34,2.74-.517s2.076-.417,3.264-.556a9.059,9.059,0,0,1,3.859.278c1.312.386,2.585,1.057,3.99,1.543a7.717,7.717,0,0,0,4.538.131c1.543-.378,3.087-1.1,4.792-1.675a9.021,9.021,0,0,1,5.4-.533c1.868.525,3.372,1.906,5.24,2.361a4.206,4.206,0,0,0,1.42.1,6.629,6.629,0,0,0,1.428-.34c.941-.324,1.852-.772,2.848-1.15a4.545,4.545,0,0,1,3.195-.108,11.421,11.421,0,0,1,2.7,1.79,6.473,6.473,0,0,0,1.343.81,3.642,3.642,0,0,0,1.543.286,8.2,8.2,0,0,0,3.087-.918,17.634,17.634,0,0,1,3.149-1.258,5.13,5.13,0,0,1,1.752-.124,4.9,4.9,0,0,1,1.682.548,29.339,29.339,0,0,1,2.824,1.937,6.867,6.867,0,0,0,1.435.772,3.691,3.691,0,0,0,.772.216l.394.069h.4a8.775,8.775,0,0,0,3.149-.656c1.019-.37,2.022-.81,3.087-1.119a6.119,6.119,0,0,1,3.249-.239,6,6,0,0,1,2.74,1.651,21.167,21.167,0,0,0,2.253,2.037,4.222,4.222,0,0,0,2.716.772,7.4,7.4,0,0,0,2.716-.826c.857-.417,1.667-.9,2.493-1.358a9.215,9.215,0,0,1,5.248-1.543,10.1,10.1,0,0,1,4.63,2.169,26.571,26.571,0,0,0,3.859,2.6,11.312,11.312,0,0,0,4.044,1.1,14.384,14.384,0,0,0,3.751-.285,13.413,13.413,0,0,0,5.4-2.632,12.347,12.347,0,0,0,2.516-2.871c.216-.378.363-.687.471-.88a2.707,2.707,0,0,1,.17-.3,1.875,1.875,0,0,1-.131.316c-.1.2-.231.517-.44.9a11.636,11.636,0,0,1-2.485,2.948,13.459,13.459,0,0,1-5.441,2.732,14.117,14.117,0,0,1-3.812.324,11.422,11.422,0,0,1-4.152-1.1,26,26,0,0,1-3.928-2.6,9.855,9.855,0,0,0-4.484-2.091,8.722,8.722,0,0,0-5.047,1.5c-.81.455-1.628.949-2.508,1.374a7.756,7.756,0,0,1-2.848.872,4.63,4.63,0,0,1-2.948-.833,20.324,20.324,0,0,1-2.315-2.068,5.611,5.611,0,0,0-2.57-1.543,5.75,5.75,0,0,0-3.048.239c-1.019.3-2.014.772-3.048,1.111a9.037,9.037,0,0,1-3.288.687h-.44l-.424-.077a3.5,3.5,0,0,1-.841-.239,7.364,7.364,0,0,1-1.543-.826,30.819,30.819,0,0,0-2.786-1.914,4.422,4.422,0,0,0-1.543-.5,4.956,4.956,0,0,0-1.613.108,18.379,18.379,0,0,0-3.087,1.235,8.682,8.682,0,0,1-3.226.957,4.291,4.291,0,0,1-1.682-.316,6.945,6.945,0,0,1-1.42-.864,11.891,11.891,0,0,0-2.6-1.744,4.2,4.2,0,0,0-2.94.108c-.957.332-1.875.81-2.848,1.142a6.747,6.747,0,0,1-1.543.355,4.716,4.716,0,0,1-1.543-.108c-2-.509-3.488-1.891-5.255-2.385a8.713,8.713,0,0,0-5.232.5,50.552,50.552,0,0,1-4.831,1.667,7.964,7.964,0,0,1-4.7-.17c-1.435-.486-2.693-1.165-3.974-1.543a8.805,8.805,0,0,0-3.712-.293c-1.173.123-2.261.355-3.264.525s-1.922.309-2.74.478c-.409.077-.772.17-1.173.224a4.353,4.353,0,0,1-1.049,0c-.641-.069-1.181-.147-1.621-.208l-.988-.139A1.755,1.755,0,0,1,277.08,332.15Z" transform="translate(3076.889 -21925.209)" fill="#fafafa"/><path d="M293.73,356.18h.232l.671.069c.587.062,1.451.177,2.562.347,2.23.3,5.4.965,9.423,1.3a32.879,32.879,0,0,0,6.536-.116,15.535,15.535,0,0,1,3.7,0,6.6,6.6,0,0,1,1.875.548,9.4,9.4,0,0,1,1.682,1.1,11.749,11.749,0,0,0,3.334,2.184,3.488,3.488,0,0,0,1.968,0,13.6,13.6,0,0,0,1.96-.772,7.642,7.642,0,0,1,2.122-.71,3.318,3.318,0,0,1,2.253.486c1.335.81,2.207,2.161,3.565,2.732a6.517,6.517,0,0,0,4.306-.185,16.808,16.808,0,0,1,4.337-1.011,4.87,4.87,0,0,1,2.168.455,7.779,7.779,0,0,1,1.783,1.2,15.279,15.279,0,0,0,3.179,2.454,4.839,4.839,0,0,0,3.658,0c1.188-.37,2.277-.949,3.465-1.219a5.078,5.078,0,0,1,3.45.262,2.786,2.786,0,0,1,1.181,1.188,10.681,10.681,0,0,1,.54,1.466,3.28,3.28,0,0,0,.664,1.235,2.709,2.709,0,0,0,1.1.718,4.067,4.067,0,0,0,2.446,0,4.383,4.383,0,0,0,1.829-1.127,7.636,7.636,0,0,0,1.119-1.466A16.618,16.618,0,0,0,371.92,365c.108-.255.185-.463.247-.625a.9.9,0,0,1,.1-.208,1.028,1.028,0,0,1-.062.224l-.208.641a14.428,14.428,0,0,1-1.026,2.385,7.231,7.231,0,0,1-1.111,1.543,4.631,4.631,0,0,1-1.9,1.212,4.29,4.29,0,0,1-2.593.039,2.925,2.925,0,0,1-1.227-.772,3.558,3.558,0,0,1-.772-1.327,11.183,11.183,0,0,0-.532-1.42,2.539,2.539,0,0,0-1.057-1.057,4.754,4.754,0,0,0-3.234-.2c-1.127.255-2.223.833-3.434,1.227a7.137,7.137,0,0,1-1.922.378,4.507,4.507,0,0,1-2-.386,15.591,15.591,0,0,1-3.272-2.5,8.119,8.119,0,0,0-1.7-1.15,4.63,4.63,0,0,0-2-.409,16.717,16.717,0,0,0-4.229,1,11.782,11.782,0,0,1-2.238.494,4.63,4.63,0,0,1-2.315-.316c-1.5-.656-2.385-2.03-3.619-2.763a2.909,2.909,0,0,0-2-.432,7.231,7.231,0,0,0-2.007.671,13.616,13.616,0,0,1-2.014.826,3.859,3.859,0,0,1-2.184,0,11.281,11.281,0,0,1-3.457-2.261,8.728,8.728,0,0,0-1.605-1.057,6.283,6.283,0,0,0-1.775-.533,15.272,15.272,0,0,0-3.612,0,33.225,33.225,0,0,1-6.59.069c-4.021-.37-7.2-1.08-9.423-1.428l-2.554-.424-.664-.1Z" transform="translate(3073.088 -21931.041)" fill="#fafafa"/><path d="M292.33,421.878l.231-.093.671-.231c.594-.208,1.474-.525,2.608-.9a19.983,19.983,0,0,1,4.26-1,6.312,6.312,0,0,1,2.716.448,12.427,12.427,0,0,0,2.894.826,6.259,6.259,0,0,0,3.164-.71,18,18,0,0,1,3.4-1.366,8.35,8.35,0,0,1,3.936.231c1.3.347,2.593.864,3.936,1.258a8.566,8.566,0,0,0,4.19.355,26.457,26.457,0,0,0,4.19-1.628,7.014,7.014,0,0,1,2.315-.548,4.2,4.2,0,0,1,2.361.625c1.412.833,2.423,2.207,3.9,2.755a3.859,3.859,0,0,0,2.277.054,13.957,13.957,0,0,0,2.207-.841,16.21,16.21,0,0,1,2.223-.88,4.19,4.19,0,0,1,2.408-.054,4.738,4.738,0,0,1,1.96,1.3c.54.548,1.019,1.119,1.543,1.582a4.291,4.291,0,0,0,3.92.826c1.366-.27,2.655-.772,3.959-1.15a8.031,8.031,0,0,1,2-.3,3.7,3.7,0,0,1,1.922.471,3.86,3.86,0,0,1,1.4,1.3c.355.509.633,1.042.918,1.543A4.291,4.291,0,0,0,366.091,428a3.8,3.8,0,0,0,2.855-.293,6.66,6.66,0,0,0,2.107-1.605,19.838,19.838,0,0,0,2.23-3.7,15.44,15.44,0,0,1,1.451-2.354,5.311,5.311,0,0,1,.656-.7s-.216.247-.587.772a16.591,16.591,0,0,0-1.381,2.369,19.452,19.452,0,0,1-2.2,3.781,6.769,6.769,0,0,1-2.169,1.69,4.059,4.059,0,0,1-3.087.332,4.63,4.63,0,0,1-2.423-2.354,6.176,6.176,0,0,0-2.207-2.709,5.188,5.188,0,0,0-3.666-.116c-1.258.332-2.562.88-3.974,1.165a5.688,5.688,0,0,1-2.2.077,4.631,4.631,0,0,1-1.1-.332,4.708,4.708,0,0,1-.957-.641c-.579-.494-1.065-1.073-1.59-1.6a4.26,4.26,0,0,0-1.806-1.2,3.859,3.859,0,0,0-2.184.054,16.476,16.476,0,0,0-2.169.864,12.963,12.963,0,0,1-2.277.864,4.283,4.283,0,0,1-2.508-.062c-1.636-.625-2.639-2.022-3.967-2.794a3.8,3.8,0,0,0-2.145-.563,6.591,6.591,0,0,0-2.192.517,26.284,26.284,0,0,1-4.252,1.636,8.93,8.93,0,0,1-4.368-.378c-1.374-.409-2.647-.926-3.928-1.273a8.1,8.1,0,0,0-3.774-.247,18.126,18.126,0,0,0-3.349,1.327,6.606,6.606,0,0,1-3.318.71,12.555,12.555,0,0,1-2.948-.864,6.081,6.081,0,0,0-2.616-.471,20.618,20.618,0,0,0-4.229.918l-2.624.826-.695.193A.774.774,0,0,1,292.33,421.878Z" transform="translate(3073.408 -21945.275)" fill="#fafafa"/><path d="M335.646,397.625a2.506,2.506,0,0,1-.44.286,10.14,10.14,0,0,1-1.358.617,11.159,11.159,0,0,1-5.441.563,11.478,11.478,0,0,1-1.79-.417c-.61-.193-1.219-.471-1.837-.733a4.3,4.3,0,0,0-1.96-.4,4.151,4.151,0,0,0-1.945.833c-.61.432-1.2.949-1.906,1.381a4.631,4.631,0,0,1-1.158.509,2.988,2.988,0,0,1-.641.093,2.314,2.314,0,0,1-.656,0c-1.76-.224-3.164-1.389-4.7-2.161a4.167,4.167,0,0,0-2.385-.61l-.293.039a1.949,1.949,0,0,0-.278.093,2.015,2.015,0,0,0-.54.247,4.824,4.824,0,0,0-.9.772,15.546,15.546,0,0,1-1.7,1.806,2.492,2.492,0,0,1-1.15.525,2.106,2.106,0,0,1-1.235-.177,4.631,4.631,0,0,1-1.636-1.621,15.517,15.517,0,0,0-1.227-1.682,4.3,4.3,0,0,0-3.28-1.3,4.846,4.846,0,0,0-2.77,1.119,6.668,6.668,0,0,0-1.613,1.69,3.5,3.5,0,0,0-.625,1.844,1.489,1.489,0,0,1,0-.517,3.418,3.418,0,0,1,.509-1.412,6.605,6.605,0,0,1,1.605-1.752,5.132,5.132,0,0,1,2.894-1.227,4.569,4.569,0,0,1,3.542,1.366,16.614,16.614,0,0,1,1.258,1.7,4.3,4.3,0,0,0,1.5,1.482,1.852,1.852,0,0,0,2-.316,17.364,17.364,0,0,0,1.644-1.76,5.04,5.04,0,0,1,.98-.864,2.821,2.821,0,0,1,.617-.286l.324-.108.34-.046a4.63,4.63,0,0,1,2.608.648c1.543.772,2.963,1.937,4.561,2.138a3.318,3.318,0,0,0,2.207-.532c.664-.4,1.266-.911,1.9-1.351a3.8,3.8,0,0,1,4.244-.44c.625.278,1.212.548,1.8.772a11.882,11.882,0,0,0,1.736.432,11.467,11.467,0,0,0,5.348-.432C335.014,397.98,335.623,397.586,335.646,397.625Z" transform="translate(3073.447 -21940.137)" fill="#fafafa"/><path d="M293.31,448.6a.92.92,0,0,1,.232.062l.286.093.4.062a4.832,4.832,0,0,0,2.585-.633,19.549,19.549,0,0,1,3.974-1.736,4.5,4.5,0,0,1,1.335-.069,4.344,4.344,0,0,1,1.35.448,20.2,20.2,0,0,1,2.485,1.744,4.437,4.437,0,0,0,2.963,1.05,10.619,10.619,0,0,0,3.311-1.2,7.9,7.9,0,0,1,1.837-.61,5.486,5.486,0,0,1,2.007.046c1.343.247,2.6.818,3.928,1.181a8.242,8.242,0,0,0,4.16.062,29.681,29.681,0,0,0,4.221-1.4,19.47,19.47,0,0,1,4.491-1.3,8.489,8.489,0,0,1,4.762.772c1.5.648,2.863,1.482,4.306,2.06a6.668,6.668,0,0,0,4.407.409c2.879-.826,4.985-3.156,7.717-4.059a6.312,6.312,0,0,1,4.129,0,14.415,14.415,0,0,1,3.45,1.783c1.042.687,2.022,1.381,3.017,1.945a11.058,11.058,0,0,0,3.033,1.219,11.422,11.422,0,0,0,5.58-.239,11.576,11.576,0,0,0,3.781-1.937,11.76,11.76,0,0,0,2.47-2.678,1.2,1.2,0,0,1-.116.216l-.378.6a10.248,10.248,0,0,1-1.883,1.983,11.723,11.723,0,0,1-3.82,1.976,10.719,10.719,0,0,1-8.828-.926c-1.019-.563-2-1.258-3.041-1.929a13.97,13.97,0,0,0-3.38-1.729,5.919,5.919,0,0,0-3.9,0,16.73,16.73,0,0,0-3.72,2.03,14.832,14.832,0,0,1-4.028,2.068,7.146,7.146,0,0,1-4.63-.417c-1.482-.6-2.848-1.435-4.314-2.076a8.126,8.126,0,0,0-4.553-.718,19.145,19.145,0,0,0-4.4,1.258,29.274,29.274,0,0,1-4.283,1.412,8.674,8.674,0,0,1-4.337-.085c-1.366-.378-2.608-.949-3.859-1.188a5,5,0,0,0-1.883-.054,7.329,7.329,0,0,0-1.76.571,10.881,10.881,0,0,1-3.426,1.2,4.7,4.7,0,0,1-3.156-1.127,20.577,20.577,0,0,0-2.431-1.744,4.191,4.191,0,0,0-1.266-.44,4.02,4.02,0,0,0-1.258.046,20.228,20.228,0,0,0-3.936,1.667,4.785,4.785,0,0,1-2.655.563,1.484,1.484,0,0,1-.409-.077l-.278-.116a1.092,1.092,0,0,1-.293-.054Z" transform="translate(3073.184 -21951.373)" fill="#fafafa"/><path d="M295.78,277.65a5.294,5.294,0,0,0,.772.695,6.305,6.305,0,0,0,2.655,1.158,15.5,15.5,0,0,0,4.63.093c.9-.069,1.875-.162,2.917-.147a9.051,9.051,0,0,1,3.241.579,30.24,30.24,0,0,1,3.195,1.675,11.114,11.114,0,0,0,1.721.772,7.4,7.4,0,0,0,1.906.309,19.066,19.066,0,0,0,4.1-.463,15.134,15.134,0,0,1,4.453-.34,10.874,10.874,0,0,1,4.329,1.8,11.838,11.838,0,0,0,4.322,1.922,6.837,6.837,0,0,0,2.4-.162,15.009,15.009,0,0,0,2.315-.88,29.525,29.525,0,0,1,4.785-2.037,6.876,6.876,0,0,1,2.662-.154,7.639,7.639,0,0,1,2.462.918c1.5.849,2.786,1.945,4.26,2.624a7.9,7.9,0,0,0,4.63.571A28.312,28.312,0,0,0,362,285.421a25.043,25.043,0,0,1,4.329-1.042,11.868,11.868,0,0,1,4.2.262,52.737,52.737,0,0,1,7.038,2.6,11.839,11.839,0,0,0,5.973.949,14.176,14.176,0,0,0,4.476-1.127,8.689,8.689,0,0,0,3.164-2.315,4.874,4.874,0,0,1-.664.772,8.29,8.29,0,0,1-2.439,1.667,14.407,14.407,0,0,1-4.515,1.2,13.372,13.372,0,0,1-2.933,0,12.007,12.007,0,0,1-3.164-.88,52.47,52.47,0,0,0-7.015-2.539,11.429,11.429,0,0,0-4.082-.239,26.168,26.168,0,0,0-4.26,1.05,29.536,29.536,0,0,1-4.515,1.188,8.4,8.4,0,0,1-4.854-.594c-1.543-.71-2.824-1.821-4.291-2.639a7.246,7.246,0,0,0-2.315-.872,6.374,6.374,0,0,0-2.5.154,28.779,28.779,0,0,0-4.715,2.014,15.539,15.539,0,0,1-2.408.9,7.084,7.084,0,0,1-2.547.162,12.031,12.031,0,0,1-4.468-1.983,10.542,10.542,0,0,0-4.175-1.752c-2.971-.324-5.765.9-8.489.772a7.487,7.487,0,0,1-1.991-.347,10.8,10.8,0,0,1-1.767-.772,30.807,30.807,0,0,0-3.149-1.682,13.434,13.434,0,0,0-6.043-.471,15.313,15.313,0,0,1-4.669-.162,6.174,6.174,0,0,1-2.67-1.25A3.635,3.635,0,0,1,295.78,277.65Z" transform="translate(3072.62 -21913.115)" fill="#fafafa"/><g transform="translate(3423.305 -21626.59)" opacity="0.3"><path d="M369.908,289.15l10.9,7.54c-3.465,8.589-.262,20.512,2.747,30.267,1.165,3.8,5.032,7.717,4.839,11.715s3.141,10.711-.7,11.715a9.014,9.014,0,0,1-7.439-1.76,20.782,20.782,0,0,1-5.062-6C367.531,330.244,363.958,306.568,369.908,289.15Z" transform="translate(-366.927 -289.15)"/></g><path d="M296.46,441.08a1.4,1.4,0,0,1,.417.046l1.173.216,4.306.818c3.635.687,8.674,1.543,14.261,2.315s10.673,1.312,14.354,1.651l4.368.386,1.188.116a1.466,1.466,0,0,1,.409.069,1.755,1.755,0,0,1-.417,0l-1.188-.039c-1.042-.046-2.531-.131-4.383-.262-3.689-.27-8.79-.772-14.385-1.543s-10.634-1.706-14.261-2.462c-1.814-.37-3.28-.7-4.283-.941l-1.158-.293a1.791,1.791,0,0,1-.4-.077Z" transform="translate(3072.465 -21950.424)" fill="#263238"/><path d="M318.44,429.572a6.3,6.3,0,0,1,.641.139c.417.093,1.019.293,1.821.44a37.358,37.358,0,0,0,6.814.88,38.308,38.308,0,0,0,10.117-.934,36.579,36.579,0,0,0,20.751-12.957,38.825,38.825,0,0,0,7.493-15.187c.208-.772.293-1.412.4-1.829a3.238,3.238,0,0,1,.154-.633,4.068,4.068,0,0,1-.077.648c-.077.424-.139,1.057-.332,1.852a35.5,35.5,0,0,1-2.091,6.583,38.084,38.084,0,0,1-5.255,8.8A37.374,37.374,0,0,1,327.7,431.316a35.008,35.008,0,0,1-6.837-1.011c-.772-.177-1.4-.4-1.806-.517a3.038,3.038,0,0,1-.617-.216Z" transform="translate(3067.447 -21940.928)" fill="#263238"/><path d="M327.24,262.66a2.467,2.467,0,0,1,0,.563v1.59a22.99,22.99,0,0,0,.587,5.78,10.487,10.487,0,0,0,1.667,3.6,10.311,10.311,0,0,0,3.45,2.925,17.318,17.318,0,0,0,4.769,1.705,22.3,22.3,0,0,0,5.4.525,19.925,19.925,0,0,0,10.032-2.832,15.836,15.836,0,0,0,5.757-6.243,14.061,14.061,0,0,0,1.5-5.572c.054-1.374-.093-2.13-.039-2.138a3.973,3.973,0,0,1,.1.548,11.172,11.172,0,0,1,.1,1.6,13.636,13.636,0,0,1-1.4,5.688,15.928,15.928,0,0,1-5.819,6.436,20.065,20.065,0,0,1-10.21,2.917,22.679,22.679,0,0,1-5.51-.54,17.611,17.611,0,0,1-4.862-1.767,10.488,10.488,0,0,1-3.542-3.087,10.665,10.665,0,0,1-1.675-3.72,21.964,21.964,0,0,1-.471-5.85c0-.695.062-1.235.093-1.6A2.47,2.47,0,0,1,327.24,262.66Z" transform="translate(3065.484 -21909.67)" fill="#263238"/><path d="M313.551,264.43s-18.776.718-23.236,19.463c-5.163,21.724-2.045,45.663,4.445,57.655l.3-21.361A98.14,98.14,0,0,1,305.5,277.534Z" transform="translate(3074.459 -21910.096)" fill="#455a64"/><path d="M292.546,326.245a3.6,3.6,0,0,1-.046-.656c0-.463,0-1.088-.062-1.875a27.02,27.02,0,0,1,0-2.971c.046-1.158,0-2.485.131-3.936q.069-1.1.139-2.315c.054-.772.154-1.613.232-2.469.147-1.713.424-3.527.687-5.4a115.562,115.562,0,0,1,2.67-12.27,113.572,113.572,0,0,1,4.136-11.854c.772-1.775,1.482-3.465,2.261-5,.378-.772.718-1.543,1.088-2.23s.733-1.381,1.08-2.022c.664-1.3,1.366-2.423,1.945-3.426s1.111-1.844,1.543-2.531l1.034-1.543a3.5,3.5,0,0,1,.386-.532,4.973,4.973,0,0,1-.316.579l-.957,1.574c-.432.695-.949,1.543-1.5,2.562s-1.242,2.138-1.891,3.442l-1.05,2.03c-.363.71-.695,1.466-1.065,2.238-.772,1.543-1.459,3.226-2.215,4.993a107.749,107.749,0,0,0-6.783,24.047c-.278,1.9-.571,3.7-.725,5.4-.085.857-.193,1.675-.255,2.47s-.116,1.543-.162,2.277c-.131,1.451-.147,2.77-.193,3.92s-.062,2.153-.062,2.971v1.875a3.859,3.859,0,0,1-.046.656Z" transform="translate(3073.392 -21910.275)" fill="#263238"/><path d="M300.379,270.59a2.315,2.315,0,0,1-.224.5c-.185.355-.417.826-.718,1.4-.641,1.2-1.5,2.987-2.516,5.209-.486,1.127-1.05,2.315-1.543,3.681-.255.671-.548,1.358-.772,2.076s-.509,1.466-.772,2.23a87.261,87.261,0,0,0-2.716,10.133,97.067,97.067,0,0,0-1.736,18.977c0,2.446.062,4.422.131,5.788,0,.656.046,1.181.054,1.582a2.143,2.143,0,0,1,0,.548,3.415,3.415,0,0,1-.069-.548c0-.394-.077-.918-.131-1.543-.116-1.366-.208-3.349-.262-5.8a91.156,91.156,0,0,1,1.628-19.061,83.1,83.1,0,0,1,2.709-10.2c.27-.772.533-1.5.772-2.23s.563-1.4.826-2.076c.517-1.343,1.1-2.554,1.605-3.673,1.042-2.215,1.952-3.982,2.639-5.171l.772-1.366A2.946,2.946,0,0,1,300.379,270.59Z" transform="translate(3074.148 -21911.502)" fill="#263238"/><path d="M392.55,271.654s-12.618,34.326-3.318,63.281l.509,10.241s-7.115-.486-12.494-10.642-7.123-20.651-8.944-35.769,6.459-34.365,6.459-34.365S389.455,267.641,392.55,271.654Z" transform="translate(3056.124 -21910.09)" fill="#455a64"/><path d="M393.822,345.82a.817.817,0,0,1-.185-.093l-.525-.293A10.577,10.577,0,0,1,391.306,344a16.924,16.924,0,0,1-4-7.416,43.014,43.014,0,0,1-1.235-5.718c-.363-2.076-.656-4.3-.918-6.652a118.428,118.428,0,0,1-.664-15.357,116.623,116.623,0,0,1,1.335-15.319,92.966,92.966,0,0,1,2.624-12.278,36.9,36.9,0,0,1,3.233-7.825,22.422,22.422,0,0,1,1.227-1.952l.347-.478.131-.162a.343.343,0,0,1-.093.185l-.324.5c-.278.448-.679,1.1-1.158,1.983a39.524,39.524,0,0,0-3.087,7.825A97.929,97.929,0,0,0,386.2,293.59a121.821,121.821,0,0,0-1.32,15.288,123.752,123.752,0,0,0,.625,15.311c.255,2.315.54,4.569.88,6.637a46.978,46.978,0,0,0,1.2,5.734,17.186,17.186,0,0,0,3.859,7.385A14.178,14.178,0,0,0,393.822,345.82Z" transform="translate(3052.375 -21911.561)" fill="#263238"/><path d="M390.564,344.325a.65.65,0,0,1-.208-.069l-.6-.247a13.573,13.573,0,0,1-2.114-1.289,22.68,22.68,0,0,1-5.749-7.03,74.145,74.145,0,0,1-5.518-12.347,77.554,77.554,0,0,1-3.65-16.113,79.994,79.994,0,0,1-.2-16.53,76.4,76.4,0,0,1,2.439-13.281c.548-1.844,1.011-3.527,1.543-4.947s.949-2.678,1.412-3.65.772-1.721,1-2.261c.116-.239.2-.432.27-.587a1.21,1.21,0,0,1,.108-.193.717.717,0,0,1-.069.208l-.232.6c-.224.548-.54,1.312-.934,2.315s-.841,2.238-1.35,3.673-.98,3.087-1.5,4.947a77.47,77.47,0,0,0-2.315,13.235,80.436,80.436,0,0,0,.232,16.453,79.292,79.292,0,0,0,3.55,16.036,77.04,77.04,0,0,0,5.4,12.3,23.313,23.313,0,0,0,5.595,7.046,15.218,15.218,0,0,0,2.061,1.343l.579.278Z" transform="translate(3055.177 -21910.406)" fill="#263238"/><path d="M388.022,290.64l8.18,2.153-1.188,2.863-7.694-1.536Z" transform="translate(3051.723 -21916.08)" fill="#263238"/><path d="M388.47,293.74a6.622,6.622,0,0,1,1.15-1.374l.139-.147.108.17c.316.494.648,1.011.988,1.543l-.262-.069.911-.517c.316-.177.625-.355.934-.517l.17-.1.093.17.887,1.628-.208-.054a6.852,6.852,0,0,1,1.605-.71,6.618,6.618,0,0,1-1.459.98l-.131.077-.077-.139c-.309-.5-.625-1.034-.957-1.59l.27.077-.934.525-.911.509-.17.093-.093-.162-.926-1.59h.247A7.511,7.511,0,0,1,388.47,293.74Z" transform="translate(3051.46 -21916.441)" fill="#ff641e"/><path d="M290.49,349.33l-8.9-16.43H254.5l-.857,1.628,22.935,38.131,25.961,1.25Z" transform="translate(3082.24 -21925.727)" fill="#455a64"/><path d="M409.428,364.679v28.716a17.472,17.472,0,0,1-6.421,13.52h0a17.456,17.456,0,0,1-17.618,2.639L322.17,381.533l6.174-21.083L379.2,377.212l-.054-13.073Z" transform="translate(3066.596 -21932.016)" fill="#ffbe9d"/><path d="M289.633,351.44l-8.906-16.43H253.64l22.071,39.759,25.961,1.25Z" transform="translate(3082.24 -21926.209)" fill="#263238"/><path d="M320.622,360.168l-4.283-5.317a14.863,14.863,0,0,0-11.576-5.541h-3.758l-2.539,2.848s-18.321.772-18.992,3.087V356.4l15.674,1.05s-13.328-.039-14.13,0-3.72-.224-3.658,1.335c.046,1.289,1.543,2.315,3.859,2.639.941.139,12.494,1.142,12.494,1.142L281,362.445c-1.428,0-1.25,2.315-.4,2.57.671.224,16.978,4.978,16.978,4.978s-2.74,1.829-4.97,1.675-6.066-3.033-6.861-1.675-.641,2.153-.162,2.47a57.053,57.053,0,0,0,7.5,3.511c1.76.478,16.09,2.747,16.09,2.747l5.171.833Z" transform="translate(3076.825 -21929.475)" fill="#ffbe9d"/><path d="M258.017,343.32s-2.832.988-1.4,4.63a31.154,31.154,0,0,0,5.749,9.106,3.326,3.326,0,0,0,1.134,3.257s-2.006.5-.772,3.859a3.812,3.812,0,0,0,2.385,5.016s-1,2.886,2.632,4.26,7.146-1,7.146-1Z" transform="translate(3081.652 -21928.107)" fill="#ffbe9d"/><path d="M265.952,360.75c2.578.695,5.4,1.25,7.787,2.153.772.293,1.543.309,2.084.965a1.8,1.8,0,0,1,.046,2.315,2.508,2.508,0,0,1-2.1.424,37.044,37.044,0,0,1-7.98-2.215" transform="translate(3079.466 -21932.086)" fill="#ffbe9d"/><path d="M267.28,366.32c2.57.695,5.4,1.242,7.779,2.153.772.293,1.543.309,2.084.965a1.8,1.8,0,0,1,.046,2.315,2.539,2.539,0,0,1-2.1.424,37.485,37.485,0,0,1-7.98-2.246" transform="translate(3079.165 -21933.355)" fill="#ffbe9d"/><path d="M269.17,372.05c2.578.695,5.4,1.242,7.787,2.145.772.3,1.543.316,2.076.972a1.79,1.79,0,0,1,.046,2.315,2.485,2.485,0,0,1-2.091.417A37.043,37.043,0,0,1,269,375.677" transform="translate(3078.734 -21934.664)" fill="#ffbe9d"/><path d="M266,365.566c0-.108,1.86.525,4.144,1.158s4.16,1.042,4.144,1.15a15.24,15.24,0,0,1-4.252-.772A15.889,15.889,0,0,1,266,365.566Z" transform="translate(3079.418 -21933.182)" fill="#eb996e"/><path d="M265.36,370.48a47.406,47.406,0,0,1,4.707,1.343c2.593.772,4.715,1.3,4.692,1.412a33.7,33.7,0,0,1-9.4-2.755Z" transform="translate(3079.565 -21934.305)" fill="#eb996e"/><path d="M267.55,376.8a25.466,25.466,0,0,1,4.422.9,26.329,26.329,0,0,1,4.329,1.289,25.348,25.348,0,0,1-4.422-.9A24.911,24.911,0,0,1,267.55,376.8Z" transform="translate(3079.064 -21935.75)" fill="#eb996e"/><path d="M263.22,360.067c0-.116,2.315.656,5.194,1.4s5.232,1.173,5.217,1.3a6.32,6.32,0,0,1-1.543-.131,37.276,37.276,0,0,1-3.735-.772,35.493,35.493,0,0,1-3.65-1.134,5.928,5.928,0,0,1-1.482-.656Z" transform="translate(3080.053 -21931.926)" fill="#eb996e"/><path d="M296.63,353.237a51.968,51.968,0,0,1,6.459-.247,51.841,51.841,0,0,1,6.428.162,51.008,51.008,0,0,1-6.428.239A50.876,50.876,0,0,1,296.63,353.237Z" transform="translate(3072.426 -21930.307)" fill="#eb996e"/><path d="M271.309,343.284a1.358,1.358,0,1,0-.5-.914A1.358,1.358,0,0,0,271.309,343.284Z" transform="translate(3078.323 -21927.547)" fill="#ebebeb"/><path d="M391.8,381.208a1.605,1.605,0,0,1,.625.069,12.221,12.221,0,0,1,1.659.417,19.038,19.038,0,0,1,9.16,6.359,12.97,12.97,0,0,1,.972,1.4c.208.347.309.54.286.556s-.548-.7-1.482-1.783a21.793,21.793,0,0,0-9.029-6.266C392.649,381.471,391.784,381.27,391.8,381.208Z" transform="translate(3050.7 -21936.754)" fill="#eb996e"/><path d="M339.31,256.943h0a15.473,15.473,0,0,1-14.223-16.206c.286-5.865.594-11.151.594-11.151s-12.579-1.96-12.733-14.524,2.03-41.441,2.03-41.441h0a43.687,43.687,0,0,1,43.9,5.526l1.86,1.428-4.762,62.116a15.481,15.481,0,0,1-16.661,14.254Z" transform="translate(3068.703 -21888.557)" fill="#ffbe9d"/><path d="M329.411,245.63A29.217,29.217,0,0,0,345.794,241s-3.859,9.045-16.414,7.91Z" transform="translate(3064.95 -21904.748)" fill="#eb996e"/><path d="M319.6,199.729a1.79,1.79,0,0,0,1.729,1.814,1.721,1.721,0,0,0,1.852-1.621,1.806,1.806,0,0,0-1.729-1.814,1.721,1.721,0,0,0-1.852,1.621Z" transform="translate(3067.182 -21894.955)" fill="#263238"/><path d="M318.652,197.05c.224.232,1.543-.772,3.511-.772s3.349.972,3.558.772c.1-.108-.123-.532-.772-.98a4.97,4.97,0,0,0-2.848-.88,4.753,4.753,0,0,0-2.794.9C318.744,196.517,318.544,196.942,318.652,197.05Z" transform="translate(3067.406 -21894.291)" fill="#263238"/><path d="M343.2,200.319a1.8,1.8,0,0,0,1.729,1.814,1.713,1.713,0,0,0,1.852-1.621,1.8,1.8,0,0,0-1.729-1.814,1.713,1.713,0,0,0-1.852,1.621Z" transform="translate(3061.795 -21895.09)" fill="#263238"/><path d="M343.252,197.522c.224.232,1.59-.772,3.519-.772s3.341.972,3.558.772c.1-.1-.124-.525-.772-.972a4.908,4.908,0,0,0-2.848-.88,4.746,4.746,0,0,0-2.8.9C343.344,196.99,343.144,197.414,343.252,197.522Z" transform="translate(3061.79 -21894.4)" fill="#263238"/><path d="M332.732,211.868a13.078,13.078,0,0,0-3.141-.563c-.494-.054-.957-.154-1.042-.486a2.516,2.516,0,0,1,.332-1.466l1.459-3.758c2.022-5.348,3.488-9.739,3.272-9.824s-2.03,4.19-4.059,9.538q-.725,1.976-1.4,3.781a2.894,2.894,0,0,0-.255,1.937,1.219,1.219,0,0,0,.81.718,3.218,3.218,0,0,0,.841.116A12.621,12.621,0,0,0,332.732,211.868Z" transform="translate(3065.303 -21894.424)" fill="#263238"/><path d="M339.728,218.36c-.316,0-.324,2.076-2.114,3.565s-4.028,1.258-4.044,1.543c0,.131.494.409,1.443.432a5.209,5.209,0,0,0,3.372-1.173,4.522,4.522,0,0,0,1.636-2.994C340.076,218.854,339.867,218.344,339.728,218.36Z" transform="translate(3063.993 -21899.58)" fill="#263238"/><path d="M342.617,187.829c.185.525,2.115.27,4.383.548s4.1.887,4.4.417c.131-.224-.185-.718-.926-1.227a7.315,7.315,0,0,0-3.257-1.142,7.447,7.447,0,0,0-3.434.4C342.949,187.166,342.532,187.575,342.617,187.829Z" transform="translate(3061.931 -21892.277)" fill="#263238"/><path d="M319.565,189.77c.34.44,1.667,0,3.272,0s2.956.3,3.264-.162c.139-.224-.077-.664-.671-1.073a4.7,4.7,0,0,0-5.263.162C319.6,189.106,319.411,189.561,319.565,189.77Z" transform="translate(3067.202 -21892.605)" fill="#263238"/><path d="M372.724,200.443c.208-.093,8.636-2.554,8.358,6.043s-8.844,6.544-8.852,6.3S372.724,200.443,372.724,200.443Z" transform="translate(3055.168 -21895.398)" fill="#ffbe9d"/><path d="M375.767,210.443c.039,0,.147.108.394.232a1.474,1.474,0,0,0,1.119.062c.918-.3,1.729-1.721,1.821-3.264a4.885,4.885,0,0,0-.355-2.161,1.729,1.729,0,0,0-1.088-1.188.772.772,0,0,0-.9.386c-.123.239-.077.409-.123.424s-.177-.154-.1-.5a1.018,1.018,0,0,1,.363-.532,1.15,1.15,0,0,1,.833-.193,2.13,2.13,0,0,1,1.543,1.389,5.07,5.07,0,0,1,.44,2.408c-.108,1.729-1.05,3.326-2.315,3.642a1.621,1.621,0,0,1-1.366-.27C375.775,210.651,375.736,210.459,375.767,210.443Z" transform="translate(3054.363 -21896.23)" fill="#eb996e"/><path d="M308.986,157.313a13.3,13.3,0,0,1,20.643-3.967,13.011,13.011,0,0,1,21.384-2.778c2.408,2.732,3.658,6.444,6.482,8.744,2.439,1.983,5.757,2.647,8.211,4.63a9.492,9.492,0,0,1-3.388,16.546c2.7,4.862.17,11.83-5.016,13.837l-1.25-.517a17.888,17.888,0,0,1-2.57-19.748,4.5,4.5,0,0,1-.455,0,10.032,10.032,0,0,1-13.073-2.987,11.159,11.159,0,0,1-11.977.5,4.63,4.63,0,0,0-1.806-.818,4.306,4.306,0,0,0-2.253.671,10.572,10.572,0,0,1-6.081,1.227,5.857,5.857,0,0,1-4.569-3.264.964.964,0,0,1-.147,0,6.752,6.752,0,0,1-5.032-4.87A10.086,10.086,0,0,1,308.986,157.313Z" transform="translate(3069.878 -21883.1)" fill="#263238"/></g></svg>