<svg xmlns="http://www.w3.org/2000/svg" width="234.11" height="199.608" viewBox="0 0 234.11 199.608"><g transform="translate(-262.274 -0.167)"><g transform="translate(283.15 0.167)"><rect width="213.234" height="0.107" transform="translate(0 173.973)" fill="#ebebeb"/><rect width="3.706" height="0.107" transform="translate(137.548 181.995)" fill="#ebebeb"/><rect width="9.886" height="0.107" transform="translate(63.987 176.694)" fill="#ebebeb"/><rect width="24.168" height="0.107" transform="translate(171.482 178.98)" fill="#ebebeb"/><rect width="24.168" height="0.107" transform="translate(18.219 178.98)" fill="#ebebeb"/><path d="M122.987,175.6H40.641a2.435,2.435,0,0,1-2.431-2.435V57.414A2.435,2.435,0,0,1,40.641,55h82.346a2.435,2.435,0,0,1,2.435,2.435V173.17A2.435,2.435,0,0,1,122.987,175.6ZM40.641,55.085a2.329,2.329,0,0,0-2.324,2.329V173.17a2.329,2.329,0,0,0,2.324,2.329h82.347a2.333,2.333,0,0,0,2.329-2.329V57.414a2.333,2.333,0,0,0-2.329-2.329Z" transform="translate(-21.915 -55)" fill="#ebebeb"/><path d="M339.286,175.6H256.935a2.439,2.439,0,0,1-2.435-2.435V57.414A2.439,2.439,0,0,1,256.935,55h82.351a2.435,2.435,0,0,1,2.427,2.414V173.17A2.435,2.435,0,0,1,339.286,175.6ZM256.935,55.085a2.333,2.333,0,0,0-2.329,2.329V173.17a2.333,2.333,0,0,0,2.329,2.328h82.351a2.333,2.333,0,0,0,2.329-2.329V57.414a2.333,2.333,0,0,0-2.329-2.329Z" transform="translate(-145.964 -55)" fill="#ebebeb"/><rect width="113.236" height="61.509" transform="translate(161.554 77.344) rotate(180)" fill="#e6e6e6"/><rect width="113.236" height="61.509" transform="translate(160.266 77.344) rotate(180)" fill="#f5f5f5"/><rect width="56.323" height="108.617" transform="translate(157.959 18.428) rotate(90)" fill="#fff"/><rect width="56.323" height="0.972" transform="translate(50.315 18.432) rotate(90)" fill="#e6e6e6"/><rect width="111.325" height="3.48" transform="translate(159.311 79.512) rotate(180)" fill="#f5f5f5"/><rect width="111.325" height="3.48" transform="translate(159.311 42.9) rotate(180)" fill="#f5f5f5"/><path d="M103.908,82.07H223.46a.358.358,0,0,1,.354.358h0a.354.354,0,0,1-.354.354H103.908a.358.358,0,0,1-.358-.354h0A.362.362,0,0,1,103.908,82.07Z" transform="translate(-59.389 -70.526)" fill="#e6e6e6"/><path d="M99.39,80.518a1.774,1.774,0,1,0,.518-1.257,1.778,1.778,0,0,0-.518,1.257Z" transform="translate(-57.003 -68.616)" fill="#e6e6e6"/><path d="M377.052,84.88h0a.478.478,0,0,0,.478-.478V83.358a.478.478,0,0,0-.478-.478h0a.482.482,0,0,0-.482.478V84.39a.482.482,0,0,0,.482.49Z" transform="translate(-215.975 -70.99)" fill="#e6e6e6"/><path d="M116.329,84.9h0a.482.482,0,0,0,.482-.478V83.374a.482.482,0,0,0-.482-.465h0a.478.478,0,0,0-.5.465v1.032a.478.478,0,0,0,.5.49Z" transform="translate(-66.432 -71.007)" fill="#e6e6e6"/><rect width="114.681" height="12.913" transform="translate(159.315 24.816) rotate(180)" fill="#e0e0e0" opacity="0.5"/><ellipse cx="1.778" cy="1.778" rx="1.778" ry="1.778" transform="translate(153.579 10.124)" fill="#e6e6e6"/><rect width="7.276" height="48.634" transform="translate(133.463 173.973) rotate(180)" fill="#e6e6e6"/><path d="M297.8,373.493H295.89V366.87h3.919Z" transform="translate(-169.703 -199.52)" fill="#f0f0f0"/><rect width="7.276" height="48.634" transform="translate(192.546 173.973) rotate(180)" fill="#e6e6e6"/><rect width="60.75" height="44.57" transform="translate(186.938 169.909) rotate(180)" fill="#f0f0f0"/><rect width="57.782" height="12.223" transform="translate(185.453 128.743) rotate(180)" fill="#e6e6e6"/><path d="M319.614,276.281H353.2c1.864,0,3.651-1.505,4.934-4.171H314.68C315.964,274.775,317.746,276.281,319.614,276.281Z" transform="translate(-180.479 -157.37)" fill="#f0f0f0"/><path d="M431.159,373.493h1.911V366.87H429.15Z" transform="translate(-246.132 -199.52)" fill="#f0f0f0"/><rect width="57.782" height="12.223" transform="translate(185.453 146.544) rotate(180)" fill="#e6e6e6"/><path d="M319.614,309.581H353.2c1.864,0,3.651-1.51,4.934-4.171H314.68C315.964,308.071,317.746,309.581,319.614,309.581Z" transform="translate(-180.479 -173.072)" fill="#f0f0f0"/><rect width="57.782" height="12.223" transform="translate(185.453 167.934) rotate(180)" fill="#e6e6e6"/><path d="M319.614,342.871H353.2c1.864,0,3.651-1.51,4.934-4.171H314.68C315.964,341.361,317.746,342.871,319.614,342.871Z" transform="translate(-180.479 -183.363)" fill="#f0f0f0"/><path d="M399.132,180.645c-1.151-3.877,13.191-23.272,19.485-22.692s-4.772,24.108-8.171,26.189C406.612,186.492,400.386,184.863,399.132,180.645Z" transform="translate(-228.878 -101.523)" fill="#f5f5f5"/><path d="M397.26,219.34c-.554-1.979,9.472-5.2,13.455-2.866s-4.149,8.342-6.4,8.069C401.755,224.236,397.866,221.494,397.26,219.34Z" transform="translate(-227.829 -130.196)" fill="#f5f5f5"/><path d="M403.95,195.813c1.386-2.6-8.824-17.8-14.265-18.078s1.548,17.485,4.231,19.306C396.948,199.11,402.436,198.641,403.95,195.813Z" transform="translate(-222.339 -111.254)" fill="#f5f5f5"/><path d="M410.75,201.17h-.021a1.071,1.071,0,0,0-1.075.908,94.25,94.25,0,0,0-.426,24.206,1.066,1.066,0,0,0,1.041.943h.021a1.062,1.062,0,0,0,1.07-1.181,94.051,94.051,0,0,1,.422-23.669,1.058,1.058,0,0,0-1.032-1.207Z" transform="translate(-234.372 -121.239)" fill="#ebebeb"/><path d="M400.2,258.021h0c3.77,0,6.947-2.218,7.719-5.224a12.188,12.188,0,0,1,.806-2.333l.06-.124H391.62l.06.124a12.185,12.185,0,0,1,.806,2.333C393.258,255.8,396.439,258.021,400.2,258.021Z" transform="translate(-224.607 -146.606)" fill="#fafafa"/><path d="M390.128,248.009h17.255c.482,0,.9-.469,1.019-1.143h0c.171-.968-.333-1.906-1.019-1.906H390.128c-.687,0-1.19.938-1.015,1.906h0C389.232,247.536,389.65,248.009,390.128,248.009Z" transform="translate(-223.149 -144.719)" fill="#f0f0f0"/><rect width="21.242" height="30.637" transform="translate(92.586 143.336)" fill="#f0f0f0"/><rect width="63.177" height="30.637" transform="translate(92.59 173.973) rotate(180)" fill="#f5f5f5"/><rect width="13.357" height="13.6" transform="translate(48.319 167.188) rotate(180)" fill="#fafafa"/><rect width="13.357" height="13.6" transform="translate(66.452 167.188) rotate(180)" fill="#fafafa"/><rect width="84.641" height="1.744" transform="translate(29.187 138.651)" fill="#e6e6e6" opacity="0.7"/><rect width="22.415" height="5.054" transform="translate(92.586 133.909)" fill="#f0f0f0"/><rect width="64.35" height="5.054" transform="translate(92.59 138.957) rotate(180)" fill="#f5f5f5"/><path d="M108.9,287.91s.405,8.6,15.907,8.6,15.907-8.6,15.907-8.6Z" transform="translate(-62.458 -164.064)" fill="#f0f0f0"/><path d="M108.9,274.55s.405,8.6,15.907,8.6,15.907-8.6,15.907-8.6Z" transform="translate(-62.458 -157.808)" fill="#f0f0f0"/></g><g transform="translate(262.274 93.743)"><rect width="58.065" height="10.928" transform="translate(4.033 76.492)" fill="#ffa726"/><rect width="58.065" height="1.242" transform="translate(4.033 76.492)" opacity="0.2"/><rect width="2.289" height="10.928" transform="translate(8.285 76.492)" opacity="0.2"/><rect width="2.289" height="10.928" transform="translate(13.536 76.492)" opacity="0.2"/><rect width="2.289" height="10.928" transform="translate(18.793 76.492)" opacity="0.2"/><rect width="2.289" height="10.928" transform="translate(24.045 76.492)" opacity="0.2"/><rect width="2.289" height="10.928" transform="translate(29.296 76.492)" opacity="0.2"/><rect width="2.289" height="10.928" transform="translate(34.553 76.492)" opacity="0.2"/><rect width="2.289" height="10.928" transform="translate(39.804 76.492)" opacity="0.2"/><rect width="2.289" height="10.928" transform="translate(45.055 76.492)" opacity="0.2"/><rect width="2.289" height="10.928" transform="translate(50.313 76.492)" opacity="0.2"/><rect width="2.289" height="10.928" transform="translate(55.564 76.492)" opacity="0.2"/><rect width="58.065" height="10.928" transform="translate(1.674 65.564)" fill="#ffa726"/><rect width="58.065" height="1.242" transform="translate(1.674 65.564)" opacity="0.2"/><rect width="2.289" height="10.928" transform="translate(5.919 65.564)" opacity="0.2"/><rect width="2.289" height="10.928" transform="translate(11.177 65.564)" opacity="0.2"/><rect width="2.289" height="10.928" transform="translate(16.428 65.564)" opacity="0.2"/><rect width="2.289" height="10.928" transform="translate(21.679 65.564)" opacity="0.2"/><rect width="2.289" height="10.928" transform="translate(26.936 65.564)" opacity="0.2"/><rect width="2.289" height="10.928" transform="translate(32.187 65.564)" opacity="0.2"/><rect width="2.289" height="10.928" transform="translate(37.439 65.564)" opacity="0.2"/><rect width="2.289" height="10.928" transform="translate(42.696 65.564)" opacity="0.2"/><rect width="2.289" height="10.928" transform="translate(47.947 65.564)" opacity="0.2"/><rect width="2.289" height="10.928" transform="translate(53.198 65.564)" opacity="0.2"/><rect width="58.065" height="10.928" transform="translate(0 54.635)" fill="#ffa726"/><rect width="58.065" height="1.242" transform="translate(0 54.635)" opacity="0.2"/><rect width="2.289" height="10.928" transform="translate(4.252 54.635)" opacity="0.2"/><rect width="2.289" height="10.928" transform="translate(9.503 54.635)" opacity="0.2"/><rect width="2.289" height="10.928" transform="translate(14.76 54.635)" opacity="0.2"/><rect width="2.289" height="10.928" transform="translate(20.011 54.635)" opacity="0.2"/><rect width="2.289" height="10.928" transform="translate(25.263 54.635)" opacity="0.2"/><rect width="2.289" height="10.928" transform="translate(30.52 54.635)" opacity="0.2"/><rect width="2.289" height="10.928" transform="translate(35.771 54.635)" opacity="0.2"/><rect width="2.289" height="10.928" transform="translate(41.022 54.635)" opacity="0.2"/><rect width="2.289" height="10.928" transform="translate(46.28 54.635)" opacity="0.2"/><rect width="2.289" height="10.928" transform="translate(51.531 54.635)" opacity="0.2"/><rect width="58.065" height="10.928" transform="translate(2.632 43.713)" fill="#ffa726"/><rect width="58.065" height="1.242" transform="translate(2.632 43.713)" opacity="0.2"/><rect width="2.289" height="10.928" transform="translate(6.877 43.713)" opacity="0.2"/><rect width="2.289" height="10.928" transform="translate(12.135 43.713)" opacity="0.2"/><rect width="2.289" height="10.928" transform="translate(17.386 43.713)" opacity="0.2"/><rect width="2.289" height="10.928" transform="translate(22.637 43.713)" opacity="0.2"/><rect width="2.289" height="10.928" transform="translate(27.894 43.713)" opacity="0.2"/><rect width="2.289" height="10.928" transform="translate(33.146 43.713)" opacity="0.2"/><rect width="2.289" height="10.928" transform="translate(38.397 43.713)" opacity="0.2"/><rect width="2.289" height="10.928" transform="translate(43.654 43.713)" opacity="0.2"/><rect width="2.289" height="10.928" transform="translate(48.905 43.713)" opacity="0.2"/><rect width="2.289" height="10.928" transform="translate(54.156 43.713)" opacity="0.2"/><rect width="58.065" height="10.928" transform="translate(58.148 43.707) rotate(180)" fill="#ffa726"/><rect width="58.065" height="1.242" transform="translate(58.148 34.021) rotate(180)" opacity="0.2"/><rect width="2.289" height="10.928" transform="translate(53.896 43.707) rotate(180)" opacity="0.2"/><rect width="2.289" height="10.928" transform="translate(48.639 43.707) rotate(180)" opacity="0.2"/><rect width="2.289" height="10.928" transform="translate(43.388 43.707) rotate(180)" opacity="0.2"/><rect width="2.289" height="10.928" transform="translate(38.137 43.707) rotate(180)" opacity="0.2"/><rect width="2.289" height="10.928" transform="translate(32.879 43.707) rotate(180)" opacity="0.2"/><rect width="2.289" height="10.928" transform="translate(27.628 43.707) rotate(180)" opacity="0.2"/><rect width="2.289" height="10.928" transform="translate(22.377 43.707) rotate(180)" opacity="0.2"/><rect width="2.289" height="10.928" transform="translate(17.12 43.707) rotate(180)" opacity="0.2"/><rect width="2.289" height="10.928" transform="translate(11.869 43.707) rotate(180)" opacity="0.2"/><rect width="2.289" height="10.928" transform="translate(6.617 43.707) rotate(180)" opacity="0.2"/><rect width="58.065" height="10.928" transform="translate(60.508 32.785) rotate(180)" fill="#ffa726"/><rect width="58.065" height="1.242" transform="translate(60.508 23.098) rotate(180)" opacity="0.2"/><rect width="2.289" height="10.928" transform="translate(56.256 32.785) rotate(180)" opacity="0.2"/><rect width="2.289" height="10.928" transform="translate(51.01 32.785) rotate(180)" opacity="0.2"/><rect width="2.289" height="10.928" transform="translate(45.753 32.785) rotate(180)" opacity="0.2"/><rect width="2.289" height="10.928" transform="translate(40.496 32.785) rotate(180)" opacity="0.2"/><rect width="2.289" height="10.928" transform="translate(35.251 32.785) rotate(180)" opacity="0.2"/><rect width="2.289" height="10.928" transform="translate(29.994 32.785) rotate(180)" opacity="0.2"/><rect width="2.289" height="10.928" transform="translate(24.736 32.785) rotate(180)" opacity="0.2"/><rect width="2.289" height="10.928" transform="translate(19.491 32.785) rotate(180)" opacity="0.2"/><rect width="2.289" height="10.928" transform="translate(14.234 32.785) rotate(180)" opacity="0.2"/><rect width="2.289" height="10.928" transform="translate(8.977 32.785) rotate(180)" opacity="0.2"/><rect width="58.065" height="10.928" transform="translate(62.181 21.856) rotate(180)" fill="#ffa726"/><rect width="58.065" height="1.242" transform="translate(62.181 12.17) rotate(180)" opacity="0.2"/><rect width="2.289" height="10.928" transform="translate(57.929 21.856) rotate(180)" opacity="0.2"/><rect width="2.289" height="10.928" transform="translate(52.672 21.856) rotate(180)" opacity="0.2"/><rect width="2.289" height="10.928" transform="translate(47.421 21.856) rotate(180)" opacity="0.2"/><rect width="2.289" height="10.928" transform="translate(42.17 21.856) rotate(180)" opacity="0.2"/><rect width="2.289" height="10.928" transform="translate(36.912 21.856) rotate(180)" opacity="0.2"/><rect width="2.289" height="10.928" transform="translate(31.661 21.856) rotate(180)" opacity="0.2"/><rect width="2.289" height="10.928" transform="translate(26.41 21.856) rotate(180)" opacity="0.2"/><rect width="2.289" height="10.928" transform="translate(21.153 21.856) rotate(180)" opacity="0.2"/><rect width="2.289" height="10.928" transform="translate(15.902 21.856) rotate(180)" opacity="0.2"/><rect width="2.289" height="10.928" transform="translate(10.65 21.856) rotate(180)" opacity="0.2"/><rect width="58.065" height="10.928" transform="translate(59.55 10.928) rotate(180)" fill="#ffa726"/><rect width="58.065" height="1.242" transform="translate(59.55 1.242) rotate(180)" opacity="0.2"/><rect width="2.289" height="10.928" transform="translate(55.298 10.928) rotate(180)" opacity="0.2"/><rect width="2.289" height="10.928" transform="translate(50.052 10.928) rotate(180)" opacity="0.2"/><rect width="2.289" height="10.928" transform="translate(44.795 10.928) rotate(180)" opacity="0.2"/><rect width="2.289" height="10.928" transform="translate(39.538 10.928) rotate(180)" opacity="0.2"/><rect width="2.289" height="10.928" transform="translate(34.293 10.928) rotate(180)" opacity="0.2"/><rect width="2.289" height="10.928" transform="translate(29.036 10.928) rotate(180)" opacity="0.2"/><rect width="2.289" height="10.928" transform="translate(23.778 10.928) rotate(180)" opacity="0.2"/><rect width="2.289" height="10.928" transform="translate(18.533 10.928) rotate(180)" opacity="0.2"/><rect width="2.289" height="10.928" transform="translate(13.276 10.928) rotate(180)" opacity="0.2"/><rect width="2.289" height="10.928" transform="translate(8.019 10.928) rotate(180)" opacity="0.2"/></g><g transform="translate(382.452 115.604)"><path d="M223.662,191.967,208.856,194.5a1.456,1.456,0,0,0-.594,2.628l2.73,1.932-16.739,23.662a1.433,1.433,0,0,1-2,.34l-24.6-17.393a1.441,1.441,0,0,0-2,.344l-49.6,70.1h17.824l35.251-49.83a1.433,1.433,0,0,1,2-.34l24.6,17.393a1.437,1.437,0,0,0,2-.344l25.14-35.542,2.734,1.932a1.459,1.459,0,0,0,2.269-1.437l-2.541-14.807A1.456,1.456,0,0,0,223.662,191.967Z" transform="translate(-116.05 -191.947)" fill="#ffa726"/><path d="M223.662,191.967,208.856,194.5a1.456,1.456,0,0,0-.594,2.628l2.73,1.932-16.739,23.662a1.433,1.433,0,0,1-2,.34l-24.6-17.393a1.441,1.441,0,0,0-2,.344l-49.6,70.1h17.824l35.251-49.83a1.433,1.433,0,0,1,2-.34l24.6,17.393a1.437,1.437,0,0,0,2-.344l25.14-35.542,2.734,1.932a1.459,1.459,0,0,0,2.269-1.437l-2.541-14.807A1.456,1.456,0,0,0,223.662,191.967Z" transform="translate(-116.05 -191.947)" opacity="0.2"/><path d="M139.446,277.564H126.9a.1.1,0,0,1-.083-.053.1.1,0,0,1,0-.1l45.947-64.958a1.531,1.531,0,0,1,2.136-.378l24.6,17.393a1.342,1.342,0,0,0,1.891-.321l19.174-27.1-3.025-2.151a.087.087,0,0,1-.038-.1.094.094,0,0,1,.076-.072l12.477-2.136a.091.091,0,0,1,.106.076l2.136,12.477a.1.1,0,0,1-.042.1.1.1,0,0,1-.106,0l-3.025-2.151-25.087,35.466a1.531,1.531,0,0,1-2.133.378l-24.6-17.393a1.342,1.342,0,0,0-1.872.321l-35.9,50.662A.1.1,0,0,1,139.446,277.564Zm-12.364-.189H139.4l35.822-50.639a1.535,1.535,0,0,1,2.136-.378l24.6,17.393a1.342,1.342,0,0,0,1.872-.321l25.14-35.542a.079.079,0,0,1,.06-.038.083.083,0,0,1,.072,0l2.93,2.072-2.083-12.1-12.141,2.08,2.93,2.072a.1.1,0,0,1,.038.06.1.1,0,0,1,0,.072L201.55,229.284a1.512,1.512,0,0,1-.991.624,1.539,1.539,0,0,1-1.134-.257l-24.6-17.393a1.342,1.342,0,0,0-1.891.321Z" transform="translate(-122.738 -195.454)" fill="#fff" opacity="0.2"/></g><g transform="translate(392.051 163.442)"><rect width="10.897" height="23.121" rx="4" transform="translate(0 12.598)" fill="#ffa726"/><rect width="10.897" height="35.719" rx="4" transform="translate(13.593 0)" fill="#ffa726"/><rect width="10.897" height="27.152" rx="3" transform="translate(27.443 8.568)" fill="#ffa726"/></g><g transform="translate(288.031 4.356)"><path d="M245.747,401.982l-5.4-1.012.915-12.77,5.4,1.019Z" transform="translate(-201.465 -226.356)" fill="#ffbe9d"/><path d="M297.136,402.234h-5.495L290.28,389.52h5.488Z" transform="translate(-216.535 -226.755)" fill="#ffbe9d"/><path d="M287.2,406.82h6.689a.482.482,0,0,1,.468.377l1.089,4.887a.81.81,0,0,1-.8.977c-2.158-.035-3.728-.168-6.437-.168-1.669,0-6.7.175-9.007.175s-2.6-2.276-1.662-2.485c4.231-.922,7.415-2.2,8.769-3.414A1.327,1.327,0,0,1,287.2,406.82Z" transform="translate(-212.537 -231.976)" fill="#ffa726"/><path d="M235.247,404.78l5.914,1.019a.482.482,0,0,1,.4.447l.237,4.992a.8.8,0,0,1-.943.831c-2.095-.4-5.187-1.061-7.862-1.522-3.135-.538-4.664-.929-8.336-1.564-2.22-.384-1.739-2.793-.768-2.856,4.392-.2,5.942.475,9.984-1.152A2.534,2.534,0,0,1,235.247,404.78Z" transform="translate(-196.25 -231.353)" fill="#ffa726"/><path d="M251.827,165.922c-.188.559-.335.963-.51,1.4s-.349.894-.531,1.334c-.363.887-.747,1.752-1.152,2.618a50.567,50.567,0,0,1-2.716,5.062,33.379,33.379,0,0,1-7.868,9.132,19.326,19.326,0,0,1-2.793,1.773c-.251.14-.51.258-.775.377s-.5.23-.817.349a11.251,11.251,0,0,1-1.906.517,19.553,19.553,0,0,1-3.191.272c-1.005,0-1.969,0-2.918-.091a55.858,55.858,0,0,1-10.941-1.983l.552-4.084c3.491-.133,7.031-.244,10.354-.538.831-.077,1.648-.175,2.423-.293a13.15,13.15,0,0,0,2.095-.461,3.072,3.072,0,0,0,.642-.265c.23-.14.545-.272.8-.454a12.566,12.566,0,0,0,1.613-1.208,20.75,20.75,0,0,0,3-3.3,36.872,36.872,0,0,0,2.611-4c.817-1.4,1.55-2.883,2.269-4.378.349-.747.7-1.508,1.005-2.269l.468-1.138.426-1.075Z" transform="translate(-194.028 -123.835)" fill="#ffbe9d"/><path d="M257.7,157.866c10.019,0-.991,21.644-.991,21.644l-12.784-5.174s3.491-7.526,5.788-11.834A8.511,8.511,0,0,1,257.7,157.866Z" transform="translate(-202.542 -122.216)" fill="#ffa726"/><path d="M257.14,167.89a18.841,18.841,0,0,0-6.94,11.241l7.3,2.96c1.327-1.983,2.618-4.322,4.042-6.374.391-1.068.775-2.192,1.11-3.33Z" transform="translate(-204.438 -125.245)" opacity="0.2"/><path d="M217.647,190.649l-4.392-2.479-3.365,6.284a15.3,15.3,0,0,0,5.858-.147Z" transform="translate(-192.272 -131.366)" fill="#ffbe9d"/><path d="M207.634,188.17l-2.444,5.544,3.254.761,3.365-6.3Z" transform="translate(-190.853 -131.366)" fill="#ffbe9d"/><path d="M241.458,388.21l-.468,6.577,5.4,1.012.468-6.577Z" transform="translate(-201.658 -226.359)" opacity="0.2"/><path d="M295.765,389.53H290.27l.712,6.556h5.488Z" transform="translate(-216.532 -226.758)" opacity="0.2"/><path d="M287.425,160.1a123.788,123.788,0,0,0-3.491,18.062c-.524,4.252-.831,8.308-1.026,11.995-.461,8.63-.265,15.206-.524,17.455-4.294-.293-20.471-1.4-29.324-2.039-3.987-31.23,3.631-47.316,3.631-47.316a57.287,57.287,0,0,1,6.982-.873c.5,0,1.005-.049,1.515-.056a108.307,108.307,0,0,1,12.456.866c.782.091,1.578.209,2.346.335A72.77,72.77,0,0,1,287.425,160.1Z" transform="translate(-204.953 -122.058)" fill="#ffa726"/><path d="M292.189,172.62a23.04,23.04,0,0,0,3.624,12.693c.084-.838.182-1.683.286-2.534.391-3.2.894-6.507,1.557-9.851Z" transform="translate(-217.11 -126.672)" opacity="0.2"/><path d="M283.011,138.33c-1.061,3.959-2.36,11.241.258,14.11a12.483,12.483,0,0,1-9.872,3.149c-3.442-.314-3.442-2.737-2.583-4.015,4.545-.754,4.657-4.077,4.1-7.247Z" transform="translate(-210.515 -116.323)" fill="#ffbe9d"/><path d="M275.63,161.552a10.325,10.325,0,0,1,2.527,3.128c1.767-.14,9.565-3.561,8.455-6.2-.97-.272-1.822-.831-2.095-.545C284.148,158.5,280.838,160.5,275.63,161.552Z" transform="translate(-212.113 -122.216)" fill="#fff"/><path d="M273.169,161.225s-3,1.012-3.693,2.716c-1.808-.8-2.793-4.426-1.194-6.807,1-.084,1.955-.58,2.136-.251C270.7,157.5,269.937,159.172,273.169,161.225Z" transform="translate(-209.652 -121.889)" fill="#fff"/><path d="M281.686,141.84l-4.8,3.54a12.386,12.386,0,0,1,.23,2.241c1.725-.126,4.189-1.836,4.51-3.61A5.937,5.937,0,0,0,281.686,141.84Z" transform="translate(-212.493 -117.382)" opacity="0.2"/><path d="M271.1,120.032c-2.094.824-2.869,8.93,1.4,8.134S275.315,118.378,271.1,120.032Z" transform="translate(-210.234 -110.739)" fill="#263238"/><path d="M284.459,127.475c-1.711,5.174-2.444,8.287-5.809,10.291-5.069,3.009-10.926-1.11-10.8-6.689.112-5.02,2.884-12.644,8.588-13.377a7.429,7.429,0,0,1,8.022,9.775Z" transform="translate(-209.764 -110.076)" fill="#ffbe9d"/><path d="M282.02,127.769c-2.171.042-3.952-6.535.426-8.378-3.449-.4-14.04.182-15.939-4.552s5.467-5.467,7.973-3.679c-.8-2.6,2.444-6.444,8.266-2.953s5.753,7.8,5.208,9.076c2.6.7,3.107,6.479.237,7.254,1.683,2.332.23,7.233-4.308,6.186-.154,2.856-3.337,1.606-3.142-.586S282.02,127.769,282.02,127.769Z" transform="translate(-209.266 -106.81)" fill="#263238"/><path d="M274.955,138.233h0a4.015,4.015,0,0,0,3.61-.7.147.147,0,0,0,0-.2.14.14,0,0,0-.2,0,3.777,3.777,0,0,1-3.351.7.11.11,0,1,0-.063.2Z" transform="translate(-211.878 -116.01)" fill="#263238"/><path d="M290.843,137.824a5.2,5.2,0,0,1-3.707,1.4c-1.815-.077-2.164-1.836-1.194-3.254.88-1.278,2.876-2.793,4.468-2.018a2.325,2.325,0,0,1,.433,3.875Z" transform="translate(-215.066 -114.937)" fill="#ffbe9d"/><path d="M237.847,309.709l9.076,1.521s3.212-25.09,5.969-38.876a138.326,138.326,0,0,1,3.589-14.276c2.171-6.9,4.887-14.365,7.135-20.21,2.353-6.157,4.147-10.511,4.147-10.511l-19.256-.956s-10.424,32.247-11.527,44.086C235.8,282.841,237.847,309.709,237.847,309.709Z" transform="translate(-200.338 -142.904)" fill="#ff641e"/><path d="M264.883,276.174c2.171-9.726,4.887-20.247,7.135-28.486l-2-4.308C265.26,249.056,263.975,266.629,264.883,276.174Z" transform="translate(-208.787 -148.029)" opacity="0.2"/><path d="M268.49,227.44s2.095,33.219,4.4,44.47c2.534,12.336,8.979,39.249,8.979,39.249h10.061s-2.793-25.6-4.685-37.66c-2.157-13.743.147-45.126.147-45.126Z" transform="translate(-209.958 -143.218)" fill="#ff641e"/><path d="M285.625,395.78h11.841l.524-3.54-13.07-.23Z" transform="translate(-214.917 -227.506)" fill="#1e2e73"/><path d="M237.429,393.772l10.312,1.941,1.166-3.6L237.15,389.89Z" transform="translate(-200.499 -226.866)" fill="#1e2e73"/><path d="M279.8,130.745c-.119.426-.433.7-.7.642s-.419-.482-.307-.908.433-.7.7-.642S279.911,130.319,279.8,130.745Z" transform="translate(-213.057 -113.757)" fill="#263238"/><path d="M272.862,128.921c-.112.426-.433.7-.7.635s-.412-.475-.3-.908.433-.7.7-.642S272.974,128.489,272.862,128.921Z" transform="translate(-210.965 -113.205)" fill="#263238"/><path d="M273.549,129.89a16.062,16.062,0,0,1-3.009,3.128c.565.9,2.025.824,2.025.824Z" transform="translate(-210.577 -113.776)" fill="#263238"/><path d="M281.609,128.312a.258.258,0,0,1-.223-.161,2.1,2.1,0,0,0-1.4-1.264.259.259,0,1,1,.1-.51,2.583,2.583,0,0,1,1.773,1.578.258.258,0,0,1-.14.342A.244.244,0,0,1,281.609,128.312Z" transform="translate(-213.365 -112.714)" fill="#263238"/><path d="M270.283,125.243a.279.279,0,0,1-.147-.063.258.258,0,0,1,0-.37,2.583,2.583,0,0,1,2.178-.943.272.272,0,0,1,.223.293.265.265,0,0,1-.293.223h0a2.094,2.094,0,0,0-1.718.768A.265.265,0,0,1,270.283,125.243Z" transform="translate(-210.431 -111.956)" fill="#263238"/><path d="M250.362,195.732l-2.227-1.592L211.62,245.254l2.227,1.592a31.418,31.418,0,0,0,36.515-51.114Z" transform="translate(-192.794 -133.167)" fill="#ffa726"/><path d="M250.362,195.732l-2.227-1.592L211.62,245.254l2.227,1.592a31.418,31.418,0,0,0,36.515-51.114Z" transform="translate(-192.794 -133.167)" opacity="0.1"/><path d="M189.545,230.9a33.751,33.751,0,0,1,.943-12.9l.7.181a32.941,32.941,0,0,0-.922,12.637Z" transform="translate(-186.058 -140.369)" fill="#ffa726"/><path d="M192.031,246.361a33.886,33.886,0,0,1-1.5-4.887l.7-.154A33.691,33.691,0,0,0,192.7,246.1Z" transform="translate(-186.428 -147.407)" fill="#ffa726"/><ellipse cx="31.404" cy="31.404" rx="31.404" ry="31.404" transform="matrix(0.979, -0.202, 0.202, 0.979, 0, 62.097)" fill="#ffa726"/><path d="M252.151,217.081a25.581,25.581,0,0,0-50.374,8.378,25.581,25.581,0,1,1,50.374-8.378Z" transform="translate(-189.626 -133.166)" opacity="0.1"/><path d="M299.764,165.6c.7.887,1.278,1.683,1.864,2.548s1.159,1.7,1.718,2.562c1.11,1.731,2.164,3.491,3.142,5.327s1.885,3.714,2.709,5.655l.6,1.473.545,1.515c.182.5.335,1.026.5,1.543l.23.782.063.2.1.426a6.573,6.573,0,0,1,.14.88,7.422,7.422,0,0,1-.384,2.9,10.379,10.379,0,0,1-.943,2.011,18.394,18.394,0,0,1-2.206,2.9,38.97,38.97,0,0,1-4.783,4.308,70.19,70.19,0,0,1-10.347,6.556l-2.262-3.449c2.925-2.492,5.851-5.118,8.5-7.778a38.508,38.508,0,0,0,3.575-4.077,11.207,11.207,0,0,0,1.2-1.934,3.557,3.557,0,0,0,.238-.7h0a.383.383,0,0,0,0,.154.441.441,0,0,0,0,.063l-.063-.154-.244-.614c-.168-.419-.314-.831-.51-1.243l-.559-1.236-.593-1.236c-.831-1.641-1.718-3.274-2.681-4.887s-1.962-3.219-3-4.8c-.51-.8-1.04-1.585-1.571-2.36l-1.592-2.269Z" transform="translate(-216.586 -124.554)" fill="#ffbe9d"/><path d="M299.134,161.206c5.146,1.04,9.663,13.622,9.663,13.622l-10.738,8.748s-3.491-6.4-6.339-12.567C288.654,164.285,292.9,159.95,299.134,161.206Z" transform="translate(-216.661 -123.162)" fill="#ffa726"/><path d="M289.874,219.54l-5.543.607,3.6,6.018s4.608-1.564,4.049-4.091Z" transform="translate(-214.739 -140.834)" fill="#ffbe9d"/><path d="M279.6,223.587l3.2,4.838,3.693-2-3.6-6.018Z" transform="translate(-213.311 -141.096)" fill="#ffbe9d"/><text transform="matrix(0.819, 0.574, -0.574, 0.819, 27.628, 81.317)" fill="#cc861e" font-size="25" font-family="IranNastaliq"><tspan x="0" y="0">ريال</tspan></text></g></g></svg>