<svg xmlns="http://www.w3.org/2000/svg" viewBox="0 0 492.86 297.93"><g id="Layer_2" data-name="Layer 2"><g id="Layer_1-2" data-name="Layer 1"><path d="M61,149.94c-7.9,0-15.84-.42-23.71.12s-9.8-3-9.75-10.13c.05-6.73,2.37-9.2,9.24-9.05,16.33.35,32.68.38,49,0,7.2-.17,9,2.93,8.89,9.35-.13,5.86-.66,10.23-8.39,9.82C77.91,149.59,69.46,149.94,61,149.94Z" fill="#ec6e34"/><path d="M61.76,165.5c7.38,0,14.76.23,22.13-.07,6.58-.26,10.85.51,11,8.95.12,8.75-3.61,10.44-11.35,10.21q-22.91-.68-45.84,0c-7.54.23-10.07-2.3-10.14-9.8-.07-8,3.42-9.78,10.52-9.39C45.93,165.83,53.85,165.5,61.76,165.5Z" fill="#ec6e34"/><path d="M61,237.78c-7.9,0-15.84-.42-23.71.12s-9.76-3.08-9.72-10.16c0-6.77,2.45-9.16,9.27-9,16.33.34,32.68.38,49,0,7.25-.18,9,3,8.86,9.38-.12,5.89-.72,10.2-8.42,9.79C77.89,237.43,69.43,237.78,61,237.78Z" fill="#ec6e34"/><path d="M71.53,121.71c-11.61,0-23.22.09-34.83-.06-3.39,0-8,1.28-8.52-4.27s4-5.17,7.6-5.18q36.42-.09,72.83,0c3.57,0,8.09-.58,7.74,5s-5,4.36-8.4,4.4C95.81,121.79,83.67,121.71,71.53,121.71Z" fill="#ec6e34"/><path d="M73.18,247.09c12.14,0,24.28,0,36.42,0,3.21,0,6.59.09,6.81,4.47s-2.9,5-6.28,5q-38,0-76,0c-3.46,0-6.4-.86-6-5.23s3.91-4.21,7-4.22C47.85,247.06,60.51,247.09,73.18,247.09Z" fill="#ec6e34"/><path d="M60.49,193.74c8.44,0,16.89-.1,25.33,0,3.44.06,8.07-1.09,8.37,4.44s-4.21,5-7.78,5q-25.33.1-50.66,0c-3.6,0-8.08.49-7.55-5.21.51-5.55,5.17-4.15,8.55-4.23C44.65,193.61,52.57,193.74,60.49,193.74Z" fill="#ec6e34"/><circle cx="463.61" cy="24.61" r="14.44" fill="#fff"/><path d="M129.54,275.5V274H22.81a6.32,6.32,0,0,1-6.31-6.31V109.59a6.32,6.32,0,0,1,6.31-6.31H129.54a6.32,6.32,0,0,1,6.31,6.31v158.1a6.32,6.32,0,0,1-6.31,6.31v3a9.31,9.31,0,0,0,9.31-9.31V109.59a9.31,9.31,0,0,0-9.31-9.31H22.81a9.31,9.31,0,0,0-9.31,9.31v158.1A9.31,9.31,0,0,0,22.81,277H129.54Z" fill="#fff"/><path d="M479.47,294.43v-3.5H13.39A6.38,6.38,0,0,1,7,284.54V13.39A6.38,6.38,0,0,1,13.39,7H479.47a6.38,6.38,0,0,1,6.39,6.39V284.54a6.38,6.38,0,0,1-6.39,6.39v7a13.38,13.38,0,0,0,13.39-13.39V13.39A13.38,13.38,0,0,0,479.47,0H13.39A13.38,13.38,0,0,0,0,13.39V284.54a13.38,13.38,0,0,0,13.39,13.39H479.47v-3.5Z" fill="#fff"/><path d="M470.25,232.73v-1.5H152.87a6.32,6.32,0,0,1-6.31-6.31V109.59a6.32,6.32,0,0,1,6.31-6.31H470.24a6.32,6.32,0,0,1,6.31,6.31V224.92a6.32,6.32,0,0,1-6.31,6.31v3a9.31,9.31,0,0,0,9.31-9.31V109.59a9.31,9.31,0,0,0-9.31-9.31H152.87a9.31,9.31,0,0,0-9.31,9.31V224.92a9.31,9.31,0,0,0,9.31,9.31H470.24Z" fill="#fff"/><path d="M469.92,96v-1.5H23.13a6.62,6.62,0,0,1-6.63-6.63V53a6.62,6.62,0,0,1,6.63-6.63H469.92A6.62,6.62,0,0,1,476.55,53V87.85a6.62,6.62,0,0,1-6.63,6.63v3a9.63,9.63,0,0,0,9.63-9.63V53a9.63,9.63,0,0,0-9.63-9.63H23.13A9.63,9.63,0,0,0,13.5,53V87.85a9.63,9.63,0,0,0,9.63,9.63H469.92V96Z" fill="#fff"/><path d="M457.64,160.27v-1H313.1a4.3,4.3,0,0,1-4.29-4.29V152.1a4.3,4.3,0,0,1,4.29-4.29H457.64a4.3,4.3,0,0,1,4.29,4.29V155a4.3,4.3,0,0,1-4.29,4.29v2a6.29,6.29,0,0,0,6.29-6.29V152.1a6.29,6.29,0,0,0-6.29-6.29H313.1a6.29,6.29,0,0,0-6.29,6.29V155a6.29,6.29,0,0,0,6.29,6.29H457.64v-1Z" fill="#fff"/><rect x="160.46" y="254.36" width="297.96" height="6.89" fill="#fff"/><rect x="35.2" y="66.97" width="423.22" height="6.89" fill="#fff"/><rect x="351.86" y="170.07" width="111.07" height="2.08" fill="#fff"/><rect x="351.86" y="182.27" width="111.07" height="2.08" fill="#fff"/></g></g></svg>