<svg xmlns="http://www.w3.org/2000/svg" width="257.591" height="214.42" viewBox="0 0 257.591 214.42"><g transform="translate(-481.068 -3763.37)" opacity="0.7"><path d="M452.107,145.006c.462-3.352-4.269-6.109-7.832-6.391-1.7-.141-3.454.117-5.06-.439-3.477-1.214-4.872-5.7-8.263-7.135-2.538-1.073-5.483-.117-7.919,1.12s-4.887,2.8-7.636,2.968c-2.389.157-4.981-.728-7.049.439-1.566.869-2.35,2.663-3.814,3.72a9.039,9.039,0,0,1-4.981,1.355,13.99,13.99,0,0,0-5.138.838c-1.59.728-2.9,2.4-2.569,4.12Z" transform="translate(153.447 3661.129)" fill="#fff"/><g transform="translate(485.866 3763.37)"><path d="M74.05,122.123c.558-.643,8.289-6.047,8.872-6.453l-1.328-.22S74.507,121.455,74.05,122.123Z" transform="translate(1.656 -63.771)" fill="#fff"/><path d="M67.409,122.2h0c.068.135.6.254,1.193.338h0a4.957,4.957,0,0,0,1.692,0c.169-.11,5.751-2.909,9.168-4.618l.127-.059h0l.482-.237,1.353-.7.55-.279-5.743-1c-.33.22-2.943,2.047-5.252,3.7l-.237.169-.634.465a34.418,34.418,0,0,0-2.757,2.106h0Z" transform="translate(8.272 -63.775)" fill="#26a69a"/><g transform="translate(75.681 54.244)" opacity="0.1"><path d="M70.16,122.609h0c.068.135.6.254,1.193.338h0a4.956,4.956,0,0,0,1.692,0c.169-.11,5.921-2.994,9.3-4.677-.558.271-7.9,3.806-9.388,2.123A32.966,32.966,0,0,0,70.2,122.5h0Z" transform="translate(-70.16 -118.27)"/></g><path d="M113.13,126.447h0c0,.77,4.229,1,4.813.846s46.713-18.286,46.713-18.286L147.68,102.3l-.491.338-.22.152c-3.129,2.165-12.458,8.635-20.6,14.328l-.482.33-.651.448C119.626,121.821,114.72,125.263,113.13,126.447Z" transform="translate(-113.13 -62.326)" fill="#26a69a"/><path d="M133.18,126.288c4.127-3.079,31.04-21.737,34.567-24.172l-2.148-.846s-31.345,23.834-32.3,24.79A.423.423,0,0,0,133.18,126.288Z" transform="translate(-133.18 -62.261)" fill="#fff"/><g transform="translate(0 39.974)" opacity="0.5"><path d="M113.13,126.447h0c0,.77,4.229,1,4.813.846s46.713-18.286,46.713-18.286L147.68,102.3s4.178,4.821-5.751,12.179c-6.766,5-13.981,6.064-16.679,3.383C119.626,121.821,114.72,125.263,113.13,126.447Z" transform="translate(-113.13 -102.3)" opacity="0.1"/></g><path d="M127.014,116.766c1.311.626,2.732,1.125,2.833-.186,0-.533-.381-1.116-2.478-2.131-.5-.237-1.692-.761-2.055.33S126.532,116.555,127.014,116.766Z" transform="translate(-88.581 -63.78)" fill="#fff"/><path d="M139.644,121.937c1.311.626,2.732,1.125,2.842-.186,0-.533-.381-1.116-2.487-2.131-.491-.228-1.691-.761-2.055.33S139.145,121.691,139.644,121.937Z" transform="translate(-111.903 -64.144)" fill="#fff"/><path d="M152.294,127.107c1.319.643,2.732,1.142,2.833-.178,0-.541-.364-1.125-2.478-2.131-.5-.237-1.692-.77-2.055.321S151.8,126.87,152.294,127.107Z" transform="translate(-135.243 -64.505)" fill="#fff"/><path d="M130.674,112.473c1.286,2.284,4.229,3.112,6.064,3.857,4.914,2,8.458,3.062,10.234-1.4a5.462,5.462,0,0,0,.414-1.607c.279-3.383-3.205-5.075-4.99-5.988h0c-2.14-1.116-3.654-1.852-4.77-2.326a8.914,8.914,0,0,0-3.51-.9c-1,0-3.231.22-3.992,4.339A5.819,5.819,0,0,0,130.674,112.473Z" transform="translate(-110.13 -62.776)" fill="#26a69a"/><path d="M141.54,109.412c0,2.537,1.565,4.533,3.5,4.533s3.51-2,3.51-4.533-1.565-4.542-3.51-4.542S141.54,106.874,141.54,109.412Z" transform="translate(-121.056 -62.97)" fill="#263238"/><path d="M142.02,109.512c0,2.207,1.4,4,3.1,4s3.1-1.8,3.1-4-1.4-3.992-3.1-3.992S142.02,107.279,142.02,109.512Z" transform="translate(-121.129 -63.046)" fill="#455a64"/><path d="M35,107.339l.8.3,1.827.651,6.352-2.723c6.123-2.622,13.363-5.667,14.742-6.191l-.178.059h-.152l-.22.068h-.127l-.474.152-.5.161-1.387.457-.482.161-.44.152-.254.076-.744.254-.5.169-6.479,2.2-.617.2-2.427.846-4.178,1.412-.584.195-1.818.617h0l-.431.11-.22.076H36.4Z" transform="translate(58.882 -62.598)" fill="#fff"/><path d="M27.89,108.247l4.889,1.759s10.936-5.075,17.457-8.246H50.4l1.869-.888a16.642,16.642,0,0,0,2.715-1.5c-.178-.364-4.229-.448-5.861,0h-.152c-1.353.457-8.162,3.383-14.142,5.92l-.144.059-.474.211Z" transform="translate(68.639 -62.522)" fill="#26a69a"/><g transform="translate(96.529 39.437)" opacity="0.1"><path d="M33.5,108.737l4.889,1.759s10.936-5.075,17.457-8.246c-1.074.448-12.145,5.32-14.869,4.652a1.582,1.582,0,0,1-1.142-.922Z" transform="translate(-33.5 -102.25)"/></g><path d="M60.86,97.7,72.7,103.422s-.118-10.149-.211-17.508V84.561c0-2.537-.059-4.525-.068-5.438,0-2.994-.364-3.544-1.142-3.07A36.414,36.414,0,0,0,65.985,80.9c-.846,1.1-2.74,7.79-3.992,12.382V93.4l-.211.77C61.266,96.284,60.86,97.7,60.86,97.7Z" transform="translate(23.034 -60.578)" fill="#26a69a"/><g transform="translate(83.893 26.151)" opacity="0.1"><path d="M60.86,99.53,72.7,105.248S72.583,95.1,72.49,87.74c-1.751,3.891-5.2,9.227-10.75,8.255C61.266,98.109,60.86,99.53,60.86,99.53Z" transform="translate(-60.86 -87.74)"/></g><path d="M153.279,108.538c1.226-3.053-4-5.827-9.862-8.458s-63.984-28.266-72.4-30.55-18.227.846-19.884,5.65c-2.487,7.223,7.984,13.262,45.613,28.875,4.939,2,26.972,7.341,39.4,7.375C149.439,111.456,152.712,110.052,153.279,108.538Z" transform="translate(-49.205 -59.79)" fill="#fff"/><path d="M96.774,104.039c4.939,2,26.972,7.324,39.4,7.367,13.262.051,16.535-1.353,17.136-2.867s-.474-3.113-2.537-4.584a2.2,2.2,0,0,1-.161.9c-.55,1.362-3.527,2.647-15.546,2.605-11.257,0-27.446-9.151-31.962-11C68.956,82.311,55.626,81.127,57.884,74.589c1-2.859,5.117-5.075,9.98-5.65-7.57-.913-15.317,2-16.772,6.242C48.674,82.387,59.187,88.418,96.774,104.039Z" transform="translate(-49.198 -59.791)" fill="#ebebeb"/><path d="M326.018,103.774l-1.328-.584v1.971l1.328.567Z" transform="translate(-240.323 -63.035)" fill="#455a64"/><path d="M328.991,102.516l-1.421-.626v1.971l1.421.617Z" transform="translate(-245.732 -62.942)" fill="#455a64"/><path d="M331.981,101.227l-1.421-.617v1.971l1.421.609Z" transform="translate(-251.251 -62.852)" fill="#455a64"/><path d="M334.969,99.929l-1.43-.609v1.962l1.43.617Z" transform="translate(-256.76 -62.761)" fill="#455a64"/><path d="M337.949,98.637l-1.43-.617v1.971l1.43.609Z" transform="translate(-262.26 -62.67)" fill="#455a64"/><path d="M340.939,97.347l-1.429-.617v1.962l1.429.617Z" transform="translate(-267.779 -62.58)" fill="#455a64"/><path d="M343.929,96.057,342.5,95.44V97.4l1.429.609Z" transform="translate(-273.298 -62.488)" fill="#455a64"/><path d="M346.919,94.759l-1.429-.609V96.1l1.429.626Z" transform="translate(-278.817 -62.397)" fill="#455a64"/><path d="M349.9,93.467l-1.429-.617v1.971l1.429.609Z" transform="translate(-284.317 -62.306)" fill="#455a64"/><path d="M352.889,92.169l-1.429-.609v1.962l1.429.617Z" transform="translate(-289.836 -62.216)" fill="#455a64"/><path d="M355.871,90.887l-1.421-.617v1.962l1.421.609Z" transform="translate(-295.347 -62.125)" fill="#455a64"/><path d="M358.852,89.589l-1.412-.609v1.954l1.412.617Z" transform="translate(-300.857 -62.035)" fill="#455a64"/><path d="M361.839,88.3l-1.429-.617v1.962l1.429.626Z" transform="translate(-306.356 -61.942)" fill="#455a64"/><path d="M364.829,87.007,363.4,86.39v1.962l1.429.617Z" transform="translate(-311.875 -61.852)" fill="#455a64"/><path d="M367.811,85.716l-1.421-.626v1.971l1.421.617Z" transform="translate(-317.385 -61.76)" fill="#455a64"/><path d="M370.8,84.427l-1.429-.617v1.954l1.429.617Z" transform="translate(-322.894 -61.671)" fill="#455a64"/><path d="M373.789,83.127l-1.429-.617v1.962l1.429.617Z" transform="translate(-328.413 -61.579)" fill="#455a64"/><path d="M376.779,81.837l-1.429-.617v1.971l1.429.609Z" transform="translate(-333.932 -61.489)" fill="#455a64"/><path d="M379.761,80.537l-1.421-.617v1.971l1.421.617Z" transform="translate(-339.442 -61.397)" fill="#455a64"/><path d="M382.741,79.256l-1.421-.626v1.962l1.421.617Z" transform="translate(-344.943 -61.307)" fill="#455a64"/><path d="M385.731,77.959l-1.421-.609V79.3l1.421.617Z" transform="translate(-350.462 -61.216)" fill="#455a64"/><path d="M387.3,76.05v1.962l1.421.609V76.667Z" transform="translate(-355.981 -61.125)" fill="#455a64"/><path d="M390.29,74.76v1.962l1.412.617V75.369Z" transform="translate(-361.491 -61.034)" fill="#455a64"/><path d="M393.26,73.46v1.971l1.429.609V74.077Z" transform="translate(-366.99 -67.106)" fill="#455a64"/><path d="M396.25,72.17v1.962l1.429.617V72.779Z" transform="translate(-372.509 -66.907)" fill="#455a64"/><path d="M156.429,71.056a6.767,6.767,0,0,0-2.639-1.226v1.226Z" transform="translate(-139.293 -66.546)" fill="#455a64"/><path d="M158.23,69.4v1.8c.668-.068,1.328-.1,2-.135V69.49A9.846,9.846,0,0,0,158.23,69.4Z" transform="translate(-146.846 -66.477)" fill="#455a64"/><path d="M161.93,72.016a13.289,13.289,0,0,0,1.582-.178c.524-.059,1-.152,1.514-.2.727-.11,1.446-.186,2.157-.262V69.58a10.284,10.284,0,0,0-4,1.429,7.305,7.305,0,0,0-1.252,1.006Z" transform="translate(-156.932 -66.507)" fill="#455a64"/><path d="M19.458,86.422,36.2,94.414S62.8,80.205,81.886,69.768h.051c10.2-5.565,17.973-9.862,17.846-10.056-.321-.431-5.438-.381-7.468-.1a3.466,3.466,0,0,0-.592.1c-.846.237-30.956,11.384-52.041,19.2Z" transform="translate(30.968 -59.395)" fill="#26a69a"/><g transform="translate(50.425 11.288)" opacity="0.1"><path d="M40.62,88.313l16.738,7.993S83.967,82.1,103.047,71.66c-1.489.744-35.726,17.973-40.2,15.41-1.692-1.007-2.123-3.5-2-6.293Z" transform="translate(-40.62 -71.66)"/></g><path d="M28.35,85.338l4.99,2.394c12.687-5.337,65.616-26.219,70.048-27.961h.254a3.465,3.465,0,0,0-.592.1C101.79,60.091,28.35,85.338,28.35,85.338Z" transform="translate(19.589 -59.55)" fill="#fff"/><path d="M72.89,89.863c1.632.8,3.383,1.412,3.544-.237.051-.668-.474-1.387-3.1-2.656-.626-.3-2.131-1-2.537.414S72.273,89.609,72.89,89.863Z" transform="translate(10.944 -61.826)" fill="#fff"/><path d="M56.143,81.394c1.641.8,3.383,1.429,3.544-.22.059-.677-.465-1.4-3.1-2.664-.617-.3-2.123-1-2.537.406S55.534,81.1,56.143,81.394Z" transform="translate(41.85 -61.235)" fill="#fff"/><path d="M39.524,72.878c1.514.736,3.172,1.328,3.29-.211,0-.626-.44-1.294-2.884-2.478-.584-.279-2-.888-2.394.381S38.941,72.6,39.524,72.878Z" transform="translate(72.694 -66.541)" fill="#fff"/><path d="M80.873,87.023c1.294,2.292,4.229,3.121,6.064,3.857,4.914,2,8.458,3.07,10.234-1.4a5.622,5.622,0,0,0,.389-1.624c.3-3.383-3.2-4.99-4.99-5.988h0c-2.14-1.116-3.645-1.844-4.779-2.326a8.653,8.653,0,0,0-3.493-.9c-1,0-3.231.22-3.992,4.33A5.845,5.845,0,0,0,80.873,87.023Z" transform="translate(-18.176 -61.065)" fill="#26a69a"/><ellipse cx="3.502" cy="4.542" rx="3.502" ry="4.542" transform="translate(62.647 18.168)" fill="#263238"/><path d="M92.2,84.026c0,2.216,1.37,4,3.1,4s3.079-1.8,3.079-4S97,80,95.3,80,92.2,81.81,92.2,84.026Z" transform="translate(-29.147 -61.288)" fill="#455a64"/><path d="M36.41,99.971l.5-.161Z" transform="translate(79.505 -62.858)" fill="#26a69a"/></g><rect width="257.591" height="5.128" rx="2" transform="translate(481.068 3944.323)" fill="#ffd1bc"/><rect width="257.591" height="5.128" rx="2" transform="translate(481.068 3894.527)" fill="#ffd1bc"/><g transform="translate(481.316 3913.58)"><ellipse cx="3.327" cy="3.675" rx="3.327" ry="3.675" transform="translate(50.409 25.682)" fill="#455a64"/><path d="M111.96,331.325a3.344,3.344,0,1,0,3.327-3.676A3.514,3.514,0,0,0,111.96,331.325Z" transform="translate(-71.568 -301.969)" fill="#455a64"/><ellipse cx="3.327" cy="3.675" rx="3.327" ry="3.675" transform="translate(106.577 25.682)" fill="#455a64"/><ellipse cx="3.327" cy="3.675" rx="3.327" ry="3.675" transform="translate(96.559 25.682)" fill="#455a64"/><ellipse cx="3.327" cy="3.675" rx="3.327" ry="3.675" transform="translate(155.335 25.682)" fill="#455a64"/><path d="M-35.61,331.323a3.514,3.514,0,0,0,3.327,3.668,3.516,3.516,0,0,0,3.32-3.676,3.515,3.515,0,0,0-3.32-3.675,3.177,3.177,0,0,0-2.355,1.079,3.88,3.88,0,0,0-.972,2.6Z" transform="translate(180.928 -301.966)" fill="#455a64"/><ellipse cx="3.327" cy="3.675" rx="3.327" ry="3.675" transform="translate(241.961 25.682)" fill="#455a64"/><path d="M-157.45,331.325A3.515,3.515,0,0,0-154.13,335a3.514,3.514,0,0,0,3.327-3.675,3.515,3.515,0,0,0-3.327-3.676A3.516,3.516,0,0,0-157.45,331.325Z" transform="translate(389.393 -301.969)" fill="#455a64"/><ellipse cx="3.327" cy="3.675" rx="3.327" ry="3.675" transform="translate(203.54 25.682)" fill="#455a64"/><ellipse cx="3.327" cy="3.675" rx="3.327" ry="3.675" transform="translate(193.515 25.682)" fill="#455a64"/><path d="M-178.865,314.772a172.668,172.668,0,0,1,21.834-13.932,51.5,51.5,0,0,1,21.13-5.749c8.482-.259,149.127-.1,207.307,0a2.359,2.359,0,0,1,2.225,2.466V301.7H-125.527c-9.243,0-14.632,2.922-23.924,7.853-9.143,4.853-17.995,10.39-21.806,14.325-.313,0-.626-.047-.939-.055-1.813-.063-3.733.086-5.6,0C-182.8,323.065-186.963,320.906-178.865,314.772Z" transform="translate(183.43 -294.95)" fill="#26a69a"/><path d="M-183.44,325.7c3.811-3.927,12.662-9.471,21.806-14.325,9.292-4.94,14.646-7.854,23.924-7.854H61.449v18.848a3.829,3.829,0,0,1-.965,2.568A3.135,3.135,0,0,1,58.157,326H-179.259C-180.653,325.887-182.054,325.777-183.44,325.7Z" transform="translate(195.62 -296.788)" fill="#208478"/><path d="M-164.67,327.437c4.65-.66,174.147-1.115,236.428-1.257v1.854a2.673,2.673,0,0,1-2.531,2.8h-227.84c-22.1,0-22.581,0-24.827-1.343C-183.44,329.486-170.756,328.3-164.67,327.437Z" transform="translate(185.311 -301.652)" fill="#455a64"/><rect width="49.619" height="7.335" transform="translate(66.193 6.724)" fill="#455a64"/><path d="M91.762,301.375a.938.938,0,0,1,.911.16,1.164,1.164,0,0,1,.419.908v11.82H88.776s-.149-8.694,0-10.5C88.869,302.639,90.525,301.854,91.762,301.375Z" transform="translate(-29.515 -296.317)" fill="#455a64"/><rect width="3.334" height="3.683" transform="translate(67.928 8.545)" fill="#fff"/><rect width="2.19" height="3.683" transform="translate(60.342 8.545)" fill="#fff"/><path d="M2.272,301.355a.938.938,0,0,1,.911.16,1.164,1.164,0,0,1,.419.908V314.2H-.714s-.149-8.694,0-10.5C-.621,302.635,1.042,301.8,2.272,301.355Z" transform="translate(123.6 -296.313)" fill="#455a64"/><rect width="2.19" height="3.683" transform="translate(123.967 8.53)" fill="#fff"/><path d="M-81.384,301.355a.938.938,0,0,0-.911.16,1.164,1.164,0,0,0-.419.908V314.2H-78.4s.149-8.694,0-10.5C-78.49,302.635-80.154,301.8-81.384,301.355Z" transform="translate(263.786 -296.313)" fill="#455a64"/><rect width="2.19" height="3.683" transform="translate(182.118 8.529)" fill="#fff"/><path d="M-95.568,301.355a.939.939,0,0,1,.911.16,1.164,1.164,0,0,1,.419.908V314.2h-4.316s-.149-8.694,0-10.5C-98.461,302.635-96.812,301.8-95.568,301.355Z" transform="translate(291.002 -296.313)" fill="#455a64"/><rect width="2.19" height="3.683" transform="translate(193.529 8.53)" fill="#fff"/><path d="M-178.114,301.355a.938.938,0,0,0-.911.16,1.164,1.164,0,0,0-.419.908V314.2h4.316s.149-8.694,0-10.5C-175.22,302.635-176.884,301.8-178.114,301.355Z" transform="translate(429.289 -296.313)" fill="#455a64"/><rect width="2.19" height="3.683" transform="translate(250.891 8.529)" fill="#fff"/><rect width="3.334" height="3.683" transform="translate(73.431 8.545)" fill="#fff"/><rect width="3.334" height="3.683" transform="translate(78.749 8.545)" fill="#fff"/><rect width="3.334" height="3.683" transform="translate(84.245 8.545)" fill="#fff"/><rect width="3.334" height="3.683" transform="translate(89.819 8.545)" fill="#fff"/><rect width="3.334" height="3.683" transform="translate(95.308 8.545)" fill="#fff"/><rect width="3.334" height="3.683" transform="translate(100.633 8.545)" fill="#fff"/><rect width="3.334" height="3.683" transform="translate(106.122 8.545)" fill="#fff"/><rect width="3.334" height="3.683" transform="translate(111.07 8.545)" fill="#fff"/><rect width="49.619" height="7.335" transform="translate(129.527 6.724)" fill="#455a64"/><rect width="3.334" height="3.683" transform="translate(131.262 8.545)" fill="#fff"/><rect width="3.334" height="3.683" transform="translate(136.765 8.545)" fill="#fff"/><rect width="3.334" height="3.683" transform="translate(142.09 8.545)" fill="#fff"/><rect width="3.334" height="3.683" transform="translate(147.579 8.545)" fill="#fff"/><rect width="3.334" height="3.683" transform="translate(153.153 8.545)" fill="#fff"/><rect width="3.334" height="3.683" transform="translate(158.648 8.545)" fill="#fff"/><rect width="3.334" height="3.683" transform="translate(163.967 8.545)" fill="#fff"/><rect width="3.334" height="3.683" transform="translate(169.462 8.545)" fill="#fff"/><rect width="3.334" height="3.683" transform="translate(174.404 8.545)" fill="#fff"/><rect width="49.619" height="7.335" transform="translate(198.449 6.724)" fill="#455a64"/><rect width="3.334" height="3.683" transform="translate(200.184 8.545)" fill="#fff"/><rect width="3.334" height="3.683" transform="translate(205.687 8.545)" fill="#fff"/><rect width="3.334" height="3.683" transform="translate(211.012 8.545)" fill="#fff"/><rect width="3.334" height="3.683" transform="translate(216.501 8.545)" fill="#fff"/><rect width="3.334" height="3.683" transform="translate(222.075 8.545)" fill="#fff"/><rect width="3.334" height="3.683" transform="translate(227.571 8.545)" fill="#fff"/><rect width="3.334" height="3.683" transform="translate(232.889 8.545)" fill="#fff"/><rect width="3.334" height="3.683" transform="translate(238.385 8.545)" fill="#fff"/><rect width="3.334" height="3.683" transform="translate(243.326 8.545)" fill="#fff"/><path d="M-155.814,319.75H33.306v1.72H-162.213c-12.087,0-21.187.236-21.187.236C-182.4,321.517-182.305,319.711-155.814,319.75Z" transform="translate(223.735 -300.272)" fill="#455a64"/><path d="M132.943,302.518c6.249-4.563,10.352-5.215,13.423-4.382,1.173.314,3.875,1.673,4.138,2.765a.671.671,0,0,1-.292.746c-2.247,1.712-10,6.4-15.876,9.644a9.075,9.075,0,0,1-6.022,1.194,8.027,8.027,0,0,1-4.365-2.356A73.692,73.692,0,0,1,132.943,302.518Z" transform="translate(-112.004 -295.566)" fill="#455a64"/><rect width="0.583" height="26.867" transform="translate(119.054 0.001)" fill="#455a64"/><rect width="0.583" height="26.867" transform="translate(188.453 0.001)" fill="#455a64"/></g><g transform="translate(485.702 3844.396)"><ellipse cx="6.676" cy="6.676" rx="6.676" ry="6.676" transform="translate(16.318 39.393)" fill="#455a64"/><path d="M112.19,223.016a6.676,6.676,0,1,0,6.666-6.666,6.676,6.676,0,0,0-6.666,6.666Z" transform="translate(-45.969 -176.946)" fill="#455a64"/><path d="M47.3,210.418c.955-9.43,2.032-17.132,3.689-22.426s1.7-8.271,9.836-8.271h99.706a4.979,4.979,0,0,1,5.081,3.882H85.775c-3.872,0-3.292,9.735-3.435,21.166-.061,4.786-.1,11.686-.122,18.291H48.98S46.4,219.451,47.3,210.418Z" transform="translate(-47.02 -179.715)" fill="#26a69a"/><path d="M85.217,183.55h79.8a14.558,14.558,0,0,1,.579,4.491v30.576l-5.081,4.552-78.854-.112c0-6.646-.061-20.262,0-25.048C81.8,186.568,81.345,183.55,85.217,183.55Z" transform="translate(-46.462 -179.441)" fill="#208478"/><path d="M113.44,222.942s2.886-9.054,17.864-12.8a21.491,21.491,0,0,0,14.856-12.631l2.9-.518s.681,2.154-1.423,6.1a15.72,15.72,0,0,1-4.827,5.7,27.528,27.528,0,0,0,14.135-5.69,7.591,7.591,0,0,0,3.048-5.579h3.13s-.335,6.473-2.784,8.617c-5.406,4.7-11.747,6-18.85,8.495-9.643,3.394-11.107,8.322-11.107,8.322Z" transform="translate(-45.949 -178.554)" fill="#fff"/><path d="M131.964,196.741s-3.292,9.338-9.958,10.548c-11.97,2.164-16.045,6.6-16.045,6.6a13.067,13.067,0,0,1,5.152-6.92c4.989-3.13,9.145-2.154,10.5-7.794C122.33,196.111,131.964,196.741,131.964,196.741Z" transform="translate(-46.069 -179.088)" fill="#fff"/><path d="M128.428,213a20.108,20.108,0,0,0-6.493,4.9,16.765,16.765,0,0,0-3.048,4.908H114.72s2.7-4.481,6.026-6.564A32.639,32.639,0,0,1,128.428,213Z" transform="translate(-45.928 -177.552)" fill="#208478"/><path d="M49,222.45s104.36-1.534,109.014-1.534a14.226,14.226,0,0,0,8.129-2.866s-.721,4.552-7.713,6.1c-4.065.925-86.7.8-104.065.813a6.951,6.951,0,0,1-5.081-2.185Z" transform="translate(-46.99 -179.369)" fill="#455a64"/><path d="M78.47,209.93s.081,4.064-3.282,5.416a50.8,50.8,0,0,1-8.048,2.083,4.735,4.735,0,0,1,2.632-4.6A45.226,45.226,0,0,1,78.47,209.93Z" transform="translate(-46.697 -178.047)" fill="#fff"/><path d="M47.3,209.93a14.465,14.465,0,0,1,2.683,3.75,28.209,28.209,0,0,1,1.392,3.75s-3.648-.894-4.268-1.88A22.891,22.891,0,0,1,47.3,209.93Z" transform="translate(-47.021 -178.047)" fill="#fff"/><path d="M141.544,197.622s.234,3.506-4.4,7.062a19.906,19.906,0,0,1-7.184,3.13s5.558-4.654,6.95-7.479L138.3,197.5Z" transform="translate(-45.681 -179.365)" fill="#fff"/><path d="M52.67,223.668v-.925A2.8,2.8,0,0,1,55.454,220h9.318a2.784,2.784,0,0,1,2.784,2.784v.925Z" transform="translate(-46.93 -177.079)" fill="#455a64"/><path d="M47.51,207.633s.315-3.943,1.26-10.527A73.161,73.161,0,0,1,52.4,183.54H74.936c-.061,3.892-.356,13.911-1.819,19.815a14.948,14.948,0,0,1-3.049,6.31,96.158,96.158,0,0,1-11.381.691,23.514,23.514,0,0,1-11.178-2.723Z" transform="translate(-47.014 -180.166)" fill="#455a64"/><path d="M74.579,183.54h0c1.819,0,4.654.681,4.654,3.933,0,4.776-.417,12.061-.7,16.614a5.5,5.5,0,0,1-4.7,4.989c-1.189.193-2.612.4-4.187.589a14.947,14.947,0,0,0,3.048-6.31C74.223,197.451,74.518,187.432,74.579,183.54Z" transform="translate(-46.656 -180.202)" fill="#fff"/><path d="M121.5,208.39a7.581,7.581,0,0,1-3.851,4.064c-4.6,2.134-6.92,7.692-6.92,7.692s-.193-4.065.874-6.1a7.916,7.916,0,0,1,4.766-3.424A29.476,29.476,0,0,0,121.5,208.39Z" transform="translate(-45.993 -177.99)" fill="#fff"/><rect width="15.385" height="13.291" transform="translate(88.161 6.774)" fill="#455a64"/><rect width="15.385" height="13.291" transform="translate(71.444 6.774)" fill="#455a64"/><path d="M162.668,200.5H150.24V187.21h12.428Z" transform="translate(-45.353 -180.436)" fill="#455a64"/><path d="M85.21,216.729V187.21H99.8v22.873C96.439,210.592,90.26,210.988,85.21,216.729Z" transform="translate(-46.405 -179.56)" fill="#455a64"/><rect width="15.385" height="13.291" transform="translate(54.728 6.774)" fill="#455a64"/><rect width="15.385" height="3.709" transform="translate(88.161 2.204)" fill="#fff"/><rect width="15.385" height="3.709" transform="translate(71.444 2.204)" fill="#fff"/><path d="M160.859,183.551c1.809,0,1.809,2.764,1.809,3.678H150.24V183.51Z" transform="translate(-45.353 -181.35)" fill="#fff"/><path d="M89.062,183.55H99.8v3.719H85.18A3.841,3.841,0,0,1,89.062,183.55Z" transform="translate(-46.405 -181.346)" fill="#fff"/><rect width="15.385" height="3.709" transform="translate(54.728 2.204)" fill="#fff"/><ellipse cx="6.676" cy="6.676" rx="6.676" ry="6.676" transform="translate(93.069 39.393)" fill="#455a64"/><ellipse cx="4.034" cy="4.034" rx="4.034" ry="4.034" transform="translate(95.711 41.992)" fill="#26a69a"/><ellipse cx="1.392" cy="1.392" rx="1.392" ry="1.392" transform="translate(98.352 44.588)" fill="#455a64"/><ellipse cx="6.676" cy="6.676" rx="6.676" ry="6.676" transform="translate(44.343 39.393)" fill="#455a64"/><ellipse cx="4.034" cy="4.034" rx="4.034" ry="4.034" transform="translate(46.985 41.992)" fill="#26a69a"/><ellipse cx="1.392" cy="1.392" rx="1.392" ry="1.392" transform="translate(49.627 44.588)" fill="#455a64"/><path d="M104.956,209.76s-2.134,4.248-6.656,4.491a15.069,15.069,0,0,0-8.81,3.668,11.178,11.178,0,0,1,4.745-5.345C99.733,209.719,102.466,211.02,104.956,209.76Z" transform="translate(-46.335 -178.03)" fill="#fff"/></g><g transform="translate(696.788 3845.685)"><rect width="3.392" height="82.069" transform="translate(0.729 1.75)" fill="#dbdbdb"/><rect width="4.593" height="5.122" transform="translate(0.688 0)" fill="#c7c7c7"/><path d="M38.6,367.242l31.864-.031L70.4,301.158A6.158,6.158,0,0,0,64.245,295H38.55Z" transform="translate(-38.54 -266.882)" fill="#26a69a"/><path d="M72.59,297.69l.062,70.861,14.395-.015Z" transform="translate(-72.59 -268.192)" opacity="0.1"/><rect width="1.642" height="72.591" transform="translate(15.657 27.933)" fill="#263238"/><rect width="1.642" height="72.591" transform="translate(13.599 27.938)" fill="#263238"/><rect width="3.51" height="19.645" transform="translate(8.452 54.408)" fill="#263238"/><rect width="3.51" height="8.729" transform="translate(8.452 42.22)" fill="#263238"/><path d="M47.7,423.76c0,1.709-3.433,2.391-6.507,2.391S40.084,429.9,38.55,429.9h9.155Z" transform="translate(-15.78 -329.564)" fill="#263238"/><path d="M82.78,423.79c0,1.709,3.454,2.376,6.528,2.376s1.108,3.751,2.643,3.751H82.785Z" transform="translate(-82.724 -329.579)" fill="#263238"/><rect width="3.839" height="7.405" transform="translate(25.372 100.359)" fill="#263238"/><rect width="3.839" height="7.405" transform="translate(2.787 100.359)" fill="#263238"/></g><g transform="translate(665.029 3908.726)"><path d="M99.536,342.545h10.955a1.216,1.216,0,0,0,1.216-1.216h0a1.216,1.216,0,0,0-1.216-1.219H99.536a1.216,1.216,0,0,0-1.216,1.219h0A1.216,1.216,0,0,0,99.536,342.545Z" transform="translate(-88.577 -340.11)" fill="#263238"/><rect width="25.395" height="40.463" rx="8.96" transform="translate(6.029 1.788)" fill="#26a69a"/><g transform="translate(6.029 1.788)" opacity="0.3"><rect width="25.395" height="40.463" rx="8.96" transform="translate(0)"/></g><rect width="25.395" height="40.463" rx="8.96" transform="translate(0 1.788)" fill="#26a69a"/><path d="M91.63,440.362c0,.049,5.654.092,12.637.092s12.641-.042,12.641-.092-5.654-.092-12.641-.092S91.63,440.312,91.63,440.362Z" transform="translate(-91.414 -404.874)" fill="#263238"/><path d="M91.63,424.582c0,.049,5.654.092,12.637.092s12.641-.042,12.641-.092-5.654-.092-12.641-.092S91.63,424.532,91.63,424.582Z" transform="translate(-91.414 -394.671)" fill="#263238"/><path d="M91.63,408.832c0,.049,5.654.092,12.637.092s12.641-.042,12.641-.092-5.654-.092-12.641-.092S91.63,408.768,91.63,408.832Z" transform="translate(-91.414 -384.487)" fill="#263238"/><path d="M91.63,393.022c0,.049,5.654.092,12.637.092s12.641-.042,12.641-.092-5.654-.092-12.641-.092S91.63,392.955,91.63,393.022Z" transform="translate(-91.414 -374.264)" fill="#263238"/><path d="M91.63,377.232c0,.053,5.654.092,12.637.092s12.641-.039,12.641-.092-5.654-.092-12.641-.092S91.63,377.182,91.63,377.232Z" transform="translate(-91.414 -364.054)" fill="#263238"/><path d="M91.63,361.452c0,.053,5.654.092,12.637.092s12.641-.039,12.641-.092-5.654-.092-12.641-.092S91.63,361.4,91.63,361.452Z" transform="translate(-91.414 -353.85)" fill="#263238"/><path d="M139.45,461.861a2.188,2.188,0,1,0,.641-1.55A2.191,2.191,0,0,0,139.45,461.861Z" transform="translate(-135.238 -417.419)" fill="#263238"/><path d="M143.77,461.861a2.191,2.191,0,1,0,2.191-2.191A2.191,2.191,0,0,0,143.77,461.861Z" transform="translate(-141.084 -417.419)" fill="#455a64"/><path d="M90.14,461.861a2.188,2.188,0,1,0,.641-1.55A2.191,2.191,0,0,0,90.14,461.861Z" transform="translate(-68.502 -417.419)" fill="#263238"/><path d="M94.46,461.861a2.191,2.191,0,1,0,2.191-2.191A2.191,2.191,0,0,0,94.46,461.861Z" transform="translate(-74.349 -417.419)" fill="#455a64"/><rect width="2.718" height="14.454" rx="1.359" transform="translate(27.215 13.178)" fill="#263238"/><path d="M80.2,385.114a.412.412,0,0,0,.088-.064l.244-.2a4.239,4.239,0,0,0,.753-.961,8.845,8.845,0,0,0,.873-4.368c-.064-3.785-.212-9-.353-14.772s-.318-10.98-.428-14.772a13.184,13.184,0,0,0-.226-2.548,3.686,3.686,0,0,0-.862-1.721,2.529,2.529,0,0,0-1.007-.686,1.591,1.591,0,0,0-.417-.092,2.715,2.715,0,0,1,.4.127,2.522,2.522,0,0,1,.968.707,3.646,3.646,0,0,1,.816,1.7,13.576,13.576,0,0,1,.194,2.527c.1,3.792.226,9.008.375,14.772s.311,10.976.417,14.768a8.913,8.913,0,0,1-.806,4.333A4.725,4.725,0,0,1,80.2,385.114Z" transform="translate(-52.147 -343.227)" fill="#263238"/></g><g transform="translate(575.442 3784.641)"><path d="M197.846,268.63l8.272,5.36.751,8.357s-2.422,1.132-6-2.114-8.218-9.823-8.218-9.823Z" transform="translate(-128.372 -198.721)" fill="#ffbe9d"/><path d="M190.53,265.345l2.707-13.735,7.231,2.858-1.847,18.1Z" transform="translate(-120.687 -192.008)" fill="#ffbe9d"/><path d="M201.651,244.546a.9.9,0,0,1,.666-.569l5.2-.993a1.635,1.635,0,0,1,1.3.321l15.685,12.342-.642.715-5.547,1.69L201.56,244.8Z" transform="translate(-151.393 -188.595)" fill="#263238"/><path d="M233.028,246.7a.375.375,0,1,1-.182-.418A.333.333,0,0,1,233.028,246.7Z" transform="translate(-178.555 -189.887)" fill="#fff"/><path d="M203.18,245.178a7.115,7.115,0,0,0,1.023-.139l2.768-.484,1.914-.351a1.09,1.09,0,0,1,.921.188l.9.709,4.009,3.161c2.852,2.241,5.45,4.239,7.328,5.693l2.241,1.7a6.524,6.524,0,0,0,.848.606,5.766,5.766,0,0,0-.769-.684l-2.18-1.78c-1.853-1.484-4.421-3.525-7.267-5.765l-4.027-3.143-.908-.7a1.356,1.356,0,0,0-1.132-.23l-1.9.394-2.755.606A5.964,5.964,0,0,0,203.18,245.178Z" transform="translate(-153.013 -188.973)" fill="#455a64"/><path d="M205.536,252.237s.412-.23,1.066.9,2.616,4.336,2.616,4.336l1.865-2.017,3.028-.606s.836.369.478.848a10.978,10.978,0,0,1-2.077,1.423l-.7,2.422,3.276-3.216s1.411-.1,1.3.818a26.359,26.359,0,0,1-1.889,4.281l1.9-.811,1.817-2.186s.721-.206.666.485a22.536,22.536,0,0,1-1.726,3.694l-2.422,2.422s-1.629.412-1.944,0a5.973,5.973,0,0,1-.575-1.072s-.921.061-1.211-.3a2.678,2.678,0,0,1-.418-1.036s-1.247.684-1.659,0a8.869,8.869,0,0,1-.836-2.8c-.055-.606-2.55-5.656-2.55-5.838S204.585,252.171,205.536,252.237Z" transform="translate(-147.938 -192.248)" fill="#ffbe9d"/><path d="M207.74,271.541a1.775,1.775,0,0,0,.842,0,5.388,5.388,0,0,0,1.889-.739,5.269,5.269,0,0,0,1.484-1.387,1.744,1.744,0,0,0,.388-.745,11.01,11.01,0,0,1-2.041,1.865A11.567,11.567,0,0,1,207.74,271.541Z" transform="translate(-142.984 -198.736)" fill="#eb996e"/><path d="M212.427,269.8c.067.054.491-.394.89-1.036a2.633,2.633,0,0,0,.533-1.254c-.073-.042-.412.466-.8,1.09S212.354,269.743,212.427,269.8Z" transform="translate(-147.337 -198.277)" fill="#eb996e"/><path d="M216.661,266.493c.067.055.49-.388.842-1.042a2.337,2.337,0,0,0,.418-1.272c-.085-.03-.351.491-.69,1.12S216.588,266.438,216.661,266.493Z" transform="translate(-153.957 -196.965)" fill="#eb996e"/><path d="M221.042,263.761a7.926,7.926,0,0,0,.46-1.393,8.135,8.135,0,0,0,.466-1.369,3.385,3.385,0,0,0-.945,2.774Z" transform="translate(-160.64 -195.711)" fill="#eb996e"/><path d="M174.023,167.357l.109-2.156-12.875-2.865c-3.979-.545-8.424,3.325-8.8,7.322-.418,4.445-.757,9.889-.333,13.226.854,6.716,5.947,7.721,5.947,7.721l-.176,8.169,14.752-.527Z" transform="translate(-70.975 -156.778)" fill="#ffbe9d"/><path d="M181.969,182.161a.854.854,0,0,0,.8.89.818.818,0,0,0,.908-.745.854.854,0,0,0-.8-.89.818.818,0,0,0-.908.745Z" transform="translate(-98.712 -164.321)" fill="#263238"/><path d="M179.921,178.667c.1.115.763-.345,1.684-.315s1.587.515,1.69.406-.048-.254-.339-.478a2.313,2.313,0,0,0-1.344-.46,2.252,2.252,0,0,0-1.35.388C179.969,178.418,179.866,178.618,179.921,178.667Z" transform="translate(-97.112 -162.904)" fill="#263238"/><path d="M167.79,182.812a.854.854,0,0,0,.8.89.818.818,0,0,0,.908-.745.866.866,0,0,0-.8-.89.824.824,0,0,0-.908.745Z" transform="translate(-75.946 -164.578)" fill="#263238"/><path d="M164.955,179.447c.1.115.769-.345,1.69-.315s1.581.515,1.69.406-.055-.254-.339-.478a2.332,2.332,0,0,0-1.35-.46,2.234,2.234,0,0,0-1.344.388C165.01,179.18,164.907,179.374,164.955,179.447Z" transform="translate(-73.093 -163.211)" fill="#263238"/><path d="M177.664,186.1a5.986,5.986,0,0,0-1.49-.315c-.236-.036-.46-.091-.49-.248a1.175,1.175,0,0,1,.176-.7c.242-.563.491-1.151.751-1.768a31.206,31.206,0,0,0,1.714-4.639,30.982,30.982,0,0,0-2.083,4.488c-.248.606-.491,1.211-.721,1.786a1.363,1.363,0,0,0-.151.921.605.605,0,0,0,.375.351,1.555,1.555,0,0,0,.4.073A6.266,6.266,0,0,0,177.664,186.1Z" transform="translate(-89.356 -163.145)" fill="#263238"/><path d="M163.218,207.7a17.69,17.69,0,0,0,9.247-2.114s-2.422,4.609-9.3,3.779Z" transform="translate(-76.116 -173.857)" fill="#eb996e"/><path d="M171.515,194.394a1.659,1.659,0,0,1,1.508-.575,1.551,1.551,0,0,1,1.03.606.957.957,0,0,1,.036,1.1,1.108,1.108,0,0,1-1.211.272,3.557,3.557,0,0,1-1.157-.739,1.038,1.038,0,0,1-.254-.285.309.309,0,0,1,0-.345" transform="translate(-82.886 -169.208)" fill="#eb996e"/><path d="M174.79,192.28c-.145,0-.182.987-1.06,1.671s-1.938.539-1.95.678.23.206.678.23a2.459,2.459,0,0,0,1.629-.515,2.132,2.132,0,0,0,.824-1.4C174.959,192.528,174.856,192.274,174.79,192.28Z" transform="translate(-83.787 -168.608)" fill="#263238"/><path d="M163.863,175.232c.085.254,1.011.163,2.089.327s1.944.484,2.089.266c.073-.109-.073-.345-.418-.606a3.507,3.507,0,0,0-1.544-.606,3.55,3.55,0,0,0-1.641.139C164.038,174.923,163.832,175.111,163.863,175.232Z" transform="translate(-72.127 -161.625)" fill="#263238"/><path d="M180.151,173.408c.157.212.8,0,1.562.03s1.405.188,1.562-.03c.067-.1,0-.315-.3-.521a2.229,2.229,0,0,0-2.513,0C180.182,173.093,180.085,173.305,180.151,173.408Z" transform="translate(-97.221 -160.806)" fill="#263238"/><path d="M183.277,160.75a14.066,14.066,0,0,1-2.483,3.579,4.754,4.754,0,0,1-3.979,1.411c.26-.436.521-.872.775-1.308a20.991,20.991,0,0,1-7.2,4.845,23.748,23.748,0,0,1,4.845-6.952c2.132-1.877,5.22-2.943,7.873-1.944" transform="translate(-91.299 -157.298)" fill="#263238"/><path d="M155.179,217.356l16.46-1.266-2.762,8.721L154.791,229.5l-1.871-3.161Z" transform="translate(-69.081 -177.999)" fill="#ffbe9d"/><path d="M104.05,241.121A13.965,13.965,0,0,1,122.218,252.9c.436,4-.86,8.067-.176,12.027.5,2.919,2.047,5.553,2.731,8.436,1.478,6.207-1.478,13.057-6.662,16.751s-12.275,4.306-18.283,2.162l-6.177-9.69,4.094-37.232,6.316-4.239" transform="translate(13.296 -187.605)" fill="#455a64"/><path d="M171.769,257.882s1.411,7.564.563,8.708a3.47,3.47,0,0,1-2.247,1.284l-27.3-2.114-.908-15.025s-2.749-10.3-1.484-14.661,6.7-17.732,6.7-17.732l4.185-1.254s0,4.366,1.538,4.645,8.981.327,12.627-4.378l1.405-1.266,7.788,5.674-3.6,30.77Z" transform="translate(-64.288 -177.999)" fill="#26a69a"/><path d="M150.171,231.5s-5.087-7.637-7.122-9.792c-3.2-3.391-7.727-4.772-8.811-4.142-1.49.86-8.92,8.593-9.514,13.814s0,18.168,0,18.168l6.28,1.9.067-6.256,1.042-15.388s2.574-7.267,8.605-7.509c0,0,6.3,5.3,6.528,10.4Z" transform="translate(-30.378 -178.521)" fill="#455a64"/><path d="M135.489,285.949l12.59,11.506-3.325,4.439s-15.315-9.762-16.914-19.494Z" transform="translate(-30.333 -204.152)" fill="#455a64"/><path d="M109.932,293.771a11.006,11.006,0,0,0,1.817-1.254,14.885,14.885,0,0,0,3.743-4.693,16.954,16.954,0,0,0,1.435-3.912,23.617,23.617,0,0,0,.509-4.76,60.439,60.439,0,0,0-1.139-10.864,69.918,69.918,0,0,1-1.272-10.8,27.9,27.9,0,0,1,.333-4.724c.242-1.465.551-2.828.7-4.094a11.67,11.67,0,0,0,0-3.44,7.444,7.444,0,0,0-.824-2.459,4.987,4.987,0,0,0-1.011-1.3,2.9,2.9,0,0,0-.448-.351,6.191,6.191,0,0,1,1.35,1.7,7.636,7.636,0,0,1,.763,2.422,12.038,12.038,0,0,1-.055,3.379c-.17,1.254-.484,2.6-.739,4.082a27.085,27.085,0,0,0-.369,4.766,67.763,67.763,0,0,0,1.247,10.858,61.348,61.348,0,0,1,1.163,10.81,23.849,23.849,0,0,1-.472,4.7,16.836,16.836,0,0,1-1.381,3.876,15.3,15.3,0,0,1-3.634,4.7c-.26.236-.515.43-.727.606s-.4.309-.551.412l-.345.248A.909.909,0,0,0,109.932,293.771Z" transform="translate(11.15 -187.871)" fill="#263238"/><path d="M98.29,280.085a29.605,29.605,0,0,0,4.354.157,29.465,29.465,0,0,0,4.348-.157,30.477,30.477,0,0,0-4.348-.157A30.616,30.616,0,0,0,98.29,280.085Z" transform="translate(28.649 -203.169)" fill="#263238"/><path d="M198.379,219.81s-4.905,2.2-6.589,4.972-6.25,18.67-6.25,18.67l6.419,1.266Z" transform="translate(-115.576 -179.466)" fill="#26a69a"/><path d="M183.655,242.085s1.478-14.534,2.1-15.467,1.617-8.018,4.754-8.478a20.479,20.479,0,0,0-5.214,1.986c-1.908,1.223-3.979,7.824-3.979,7.824L180.1,239.457Z" transform="translate(-104.407 -178.807)" fill="#455a64"/><path d="M116.37,235.61a3.8,3.8,0,0,1,.9-.915,2.714,2.714,0,0,1,1.3-.4,3.064,3.064,0,0,1,1.617.412,4.935,4.935,0,0,1,1.986,2.332,11.841,11.841,0,0,0,.509,1.211,3.483,3.483,0,0,0-.3-1.314,4.742,4.742,0,0,0-2.041-2.525,3.222,3.222,0,0,0-1.78-.424,2.791,2.791,0,0,0-1.411.5A1.69,1.69,0,0,0,116.37,235.61Z" transform="translate(2.006 -185.055)" fill="#263238"/><path d="M120,232.875a7.36,7.36,0,0,0,.388-.818l.2-.448c.085-.163.176-.333.279-.515s.212-.382.321-.606l.424-.606a10.757,10.757,0,0,1,2.64-2.677,9.417,9.417,0,0,1,4.36-1.684h0a5.341,5.341,0,0,1,3.282,1h-.036c.042.042.079.091.121.139a66.644,66.644,0,0,1,6.492,9.084c.727,1.211,1.29,2.247,1.671,2.949l.436.812a1.212,1.212,0,0,0,.176.279,1.473,1.473,0,0,0-.115-.3c-.085-.194-.212-.484-.388-.842-.351-.727-.878-1.762-1.593-3.028a59.763,59.763,0,0,0-6.444-9.187l-.115-.139h0a8.262,8.262,0,0,0-1.7-.824,4.022,4.022,0,0,0-1.817-.218h0a9.472,9.472,0,0,0-4.5,1.774,10.465,10.465,0,0,0-2.653,2.78l-.412.648c-.109.212-.206.418-.3.606l-.266.527-.176.46A5.578,5.578,0,0,0,120,232.875Z" transform="translate(-18.26 -181.599)" fill="#263238"/><path d="M126.86,297.48a8.167,8.167,0,0,0,1.441,1.1A24.677,24.677,0,0,0,136.338,302a7.745,7.745,0,0,0,1.817.273,15.448,15.448,0,0,0-1.738-.491,32.129,32.129,0,0,1-7.994-3.379A14.42,14.42,0,0,0,126.86,297.48Z" transform="translate(-19.815 -210.099)" fill="#263238"/><path d="M238.27,400.851l3.833,37.2,11.706-.157.842-39.309Z" transform="translate(-203.781 -249.974)" fill="#ffbe9d"/><path d="M251.6,457.7v.781s-13.184,5.335-13.323,7.836l26.2-.2-.424-8.721a14.989,14.989,0,0,1-12.457.3Z" transform="translate(-213.62 -273.172)" fill="#26a69a"/><g transform="translate(46.545 186.986)" opacity="0.6"><path d="M243.32,461.982a1.072,1.072,0,0,1,.751,1.211,1.03,1.03,0,0,1-1.211.751,1.133,1.133,0,0,1-.787-1.29,1.072,1.072,0,0,1,1.332-.648" transform="translate(-242.054 -461.955)" fill="#fff"/></g><g transform="translate(24.654 190.847)" opacity="0.6"><path d="M264.486,470.431l-.1-2.1-25.078.963s-1.163.521-1.023,1.338Z" transform="translate(-238.27 -468.33)" fill="#fff"/></g><path d="M255.737,459.236c0,.127.642.182,1.278.606s.969.939,1.09.89-.079-.793-.854-1.272S255.707,459.115,255.737,459.236Z" transform="translate(-217.845 -273.851)" fill="#263238"/><path d="M261.332,461.183c0,.127.527.339.969.878s.569,1.108.7,1.1.2-.733-.357-1.393S261.332,461.049,261.332,461.183Z" transform="translate(-226.183 -274.642)" fill="#263238"/><path d="M267.559,465.239c.115.03.285-.606-.049-1.308s-.932-.975-.987-.866.321.478.606,1.054S267.413,465.227,267.559,465.239Z" transform="translate(-233.942 -275.397)" fill="#263238"/><path d="M269.545,417.77l-17.8,20.275,8.363,8.194,21.123-18.453Z" transform="translate(-238.514 -257.542)" fill="#ffbe9d"/><path d="M297.323,444.328l-.557.551s-13.075-5.6-14.946-3.93L300.43,459.4l5.886-6.431A15.018,15.018,0,0,1,297.323,444.328Z" transform="translate(-281.82 -266.562)" fill="#26a69a"/><g transform="translate(18.804 186.013)" opacity="0.6"><path d="M289.807,460.846a1.072,1.072,0,0,1-.333,1.387,1.03,1.03,0,0,1-1.381-.321,1.126,1.126,0,0,1,.363-1.465,1.06,1.06,0,0,1,1.393.491" transform="translate(-287.96 -460.349)" fill="#fff"/></g><g transform="translate(0 174.021)" opacity="0.6"><path d="M307.81,459.364l1.417-1.55L290.871,440.7s-1.211-.46-1.671.212Z" transform="translate(-289.2 -440.546)" fill="#fff"/></g><path d="M296.172,447.61c-.085.091.327.606.484,1.32s0,1.351.133,1.4.509-.606.3-1.5S296.232,447.507,296.172,447.61Z" transform="translate(-281.34 -269.305)" fill="#263238"/><path d="M301.731,445.745c-.109.067.127.606.055,1.3s-.382,1.211-.291,1.272.666-.369.739-1.211S301.816,445.66,301.731,445.745Z" transform="translate(-289.649 -268.572)" fill="#263238"/><path d="M306.322,446.32c.067.1.642-.23.9-.957s.03-1.35-.085-1.314-.115.563-.339,1.163S306.255,446.217,306.322,446.32Z" transform="translate(-297.68 -267.906)" fill="#263238"/><path d="M134.023,225.672a3.337,3.337,0,0,1,4.439.236c2.229,2.229,5.45,5.971,5.559,9.005.151,4.645.9,16.957.9,16.957l-17.078-.606s0-16.351,1.5-20.075C130.184,229.052,132.321,227.029,134.023,225.672Z" transform="translate(-27.172 -181.489)" fill="#26a69a"/><path d="M166.936,267.544s.975,9.393-.109,13.7c-1.12,4.463-3.331,4.4-5.19,4.53s-31.212-15.255-31.212-15.255l3.258-5.783,22.1,6.662-.2-4.318Z" transform="translate(-51.159 -197.186)" fill="#ffbe9d"/><path d="M203.65,259.959l-5.3-6.631-4.784-1.108-5.826.642a1.211,1.211,0,0,0,.7,1.338l-2.041.115a1.169,1.169,0,0,0,.757,1.52l-1.453.254a2.089,2.089,0,0,0,2.271,1.211,31.864,31.864,0,0,1,4.318-.291l2.852,1.575-4.239-.176-3.095.606s-.406.787.291.975a19.886,19.886,0,0,0,3.385,0l4.082,1.066a15.919,15.919,0,0,0,1.4,3.2c.527.581,3.44,1.338,3.44,1.338Z" transform="translate(-120.944 -192.248)" fill="#ffbe9d"/><path d="M196.67,255.138a7.58,7.58,0,0,0,1.587-.055c.975-.079,2.319-.206,3.8-.363l1.423-.164h-.061c1.108.309,2.065.569,2.749.739a4.633,4.633,0,0,0,1.108.218,5.106,5.106,0,0,0-1.054-.406c-.672-.218-1.617-.515-2.719-.848h-.061l-1.429.151c-1.478.158-2.822.321-3.791.454A8.117,8.117,0,0,0,196.67,255.138Z" transform="translate(-131.217 -193.053)" fill="#eb996e"/><path d="M199.11,257.881a6.8,6.8,0,0,0,1.435-.1c.884-.1,2.1-.26,3.44-.46l1.332-.2h-.079a24.806,24.806,0,0,0,3.355,1.211,23.644,23.644,0,0,0-3.24-1.465h-.079l-1.338.188c-1.338.194-2.55.388-3.422.545A6.576,6.576,0,0,0,199.11,257.881Z" transform="translate(-134.008 -194.082)" fill="#eb996e"/><path d="M200.584,265.5a4.856,4.856,0,0,0-.466-.157c-.309-.1-.769-.236-1.35-.448-.285-.109-.606-.23-.951-.394a2.566,2.566,0,0,1-.5-.285,1.362,1.362,0,0,1-.363-.484,21.044,21.044,0,0,1-1.114-2.81v-.048h-.055l-4.076-1.084h-.042c-.69.042-1.429.073-2.192.073a6.367,6.367,0,0,1-1.132-.079.37.37,0,0,1-.309-.285.841.841,0,0,1,.1-.5l-.1.073,3.089-.575h-.03l4.239.182h.654l-.575-.315-2.852-1.575h-.073c-1.084,0-2.216.048-3.373.164-.321.036-.636.073-.951.127a2.082,2.082,0,0,1-.866,0,2.053,2.053,0,0,1-1.26-1.084l-.115.212,1.46-.254.533-.1-.5-.2a1.144,1.144,0,0,1-.606-.527,1.017,1.017,0,0,1-.042-.787l-.133.1,2.041-.121.557-.03-.5-.254a1.212,1.212,0,0,1-.527-.491,1.024,1.024,0,0,1-.1-.678l-.127.109,5.832-.66h-.048l4.79,1.084-.061-.036,3.918,4.845,1.072,1.3.285.333c.067.073.1.109.109.1l-.085-.127-.26-.351-1.078-1.4c-.927-1.169-2.229-2.834-3.846-4.893h-.036L193.789,252h-.042l-5.832.606h-.1v.1a1.3,1.3,0,0,0,.115.89,1.477,1.477,0,0,0,.66.606l.06-.285-2.041.115h-.1v.091a1.35,1.35,0,0,0,.048,1.042,1.471,1.471,0,0,0,.793.678l-.036-.212-1.46.26-.2.03.085.182a2.332,2.332,0,0,0,1.465,1.266,2.424,2.424,0,0,0,1,0c.3-.048.606-.091.927-.121,1.139-.115,2.271-.151,3.343-.164h-.079l2.871,1.575.079-.285-4.239-.169h-.036l-3.089.606H187.9v.061a1.211,1.211,0,0,0-.121.684.648.648,0,0,0,.515.491,5.889,5.889,0,0,0,1.211.085c.775,0,1.508-.048,2.21-.1h-.036l4.033,1.048-.067-.067a19.088,19.088,0,0,0,1.169,2.822,1.52,1.52,0,0,0,.412.527,3.31,3.31,0,0,0,.533.291,10.215,10.215,0,0,0,.969.369c.606.194,1.054.321,1.369.4l.357.085C200.542,265.5,200.578,265.5,200.584,265.5Z" transform="translate(-121.136 -192.162)" fill="#eb996e"/><path d="M142.327,253.834a.894.894,0,0,0-.285-.036l-.83-.054-3.089-.145-10.592-.406.145.145c-.036-1.484,0-3.064.073-4.693.133-2.689.369-5.244.515-7.576.085-1.169.115-2.277.212-3.307a19.376,19.376,0,0,1,.436-2.834,10.7,10.7,0,0,1,1.659-3.779c.575-.793,1-1.151.975-1.169a1.382,1.382,0,0,0-.309.248,6.965,6.965,0,0,0-.769.848,10.433,10.433,0,0,0-1.768,3.8,18.77,18.77,0,0,0-.485,2.864c-.109,1.036-.151,2.144-.236,3.307-.17,2.332-.412,4.887-.545,7.582-.085,1.635-.109,3.228-.061,4.724v.145h.139l10.6.3,3.095.054h.83Z" transform="translate(-24.284 -183.477)" fill="#263238"/><path d="M213.788,300.488s7.733,10.537,7.733,14.776-.163,10.543-5.2,15.085-66.543,57.683-66.543,57.683L134.8,374.794l55.751-56.32s-2.6-4.706-1.459-6.661a6.238,6.238,0,0,1,2.919-2.6l.163-10.434Z" transform="translate(-107.99 -210.612)" fill="#ff641e"/><path d="M221.952,298.11l-1.308,11.125s-39.6,20.518-42.791,26.58C176.4,338.564,175,363.436,175,363.436l19.524.442,2.525-19.712,10.477-5.662,18.731-19.034,6.383-20.53Z" transform="translate(-143.455 -210.348)" fill="#ff641e"/><g transform="translate(26.634 88.616)"><path d="M148.98,300.91a2.639,2.639,0,0,0-.182.66,13.318,13.318,0,0,0-.224,1.847,11.136,11.136,0,0,0,.2,2.768,8.478,8.478,0,0,0,1.332,3.137,6.583,6.583,0,0,0,2.592,2.21,5.81,5.81,0,0,0,2.743.5,4.846,4.846,0,0,0,1.817-.5,2.928,2.928,0,0,0,.43-.266c.1-.067.139-.109.133-.121a5.848,5.848,0,0,1-2.386.66,5.67,5.67,0,0,1-2.6-.539,6.421,6.421,0,0,1-2.459-2.126,9.629,9.629,0,0,1-1.568-5.711C148.829,301.873,149.035,300.916,148.98,300.91Z" transform="translate(-79.258 -300.068)" fill="#ffd1bc" stroke="#ffd1bc" stroke-width="1"/><path d="M174.56,313.36a3.727,3.727,0,0,0,1.023.793,11.567,11.567,0,0,0,2.864,1.272,11.415,11.415,0,0,0,3.1.46,3.944,3.944,0,0,0,1.29-.121,22.534,22.534,0,0,1-4.3-.642A22.075,22.075,0,0,1,174.56,313.36Z" transform="translate(-120.02 -304.978)" fill="#ffd1bc" stroke="#ffd1bc" stroke-width="1"/><path d="M186.156,301.025c0-.03-.376-.133-.842.218a1.108,1.108,0,0,0-.43.9,1.145,1.145,0,0,0,.66,1.029,1.078,1.078,0,0,0,1.211-.273.9.9,0,0,0-.351-1.441.329.329,0,0,0-.242,0,.851.851,0,0,1,.527.545.66.66,0,0,1-.145.709.824.824,0,0,1-.86.182.884.884,0,0,1-.5-.757.921.921,0,0,1,.285-.715C185.811,301.074,186.162,301.08,186.156,301.025Z" transform="translate(-130.417 -300.099)" fill="#ffd1bc" stroke="#ffd1bc" stroke-width="1"/><path d="M172.5,330.8a10.806,10.806,0,0,0,1.308-1.078,36.485,36.485,0,0,1,3.24-2.459,27.355,27.355,0,0,1,3.531-2,14.046,14.046,0,0,0,1.526-.733,6.551,6.551,0,0,0-1.617.527A20.785,20.785,0,0,0,176.854,327a24.709,24.709,0,0,0-3.21,2.562A7.733,7.733,0,0,0,172.5,330.8Z" transform="translate(-118.039 -309.383)" fill="#ffd1bc" stroke="#ffd1bc" stroke-width="1"/><path d="M194.228,320.239a4.082,4.082,0,0,0-1.744-3.579c-.067.073.606.715,1.054,1.7S194.131,320.251,194.228,320.239Z" transform="translate(-142.268 -306.28)" fill="#ffd1bc" stroke="#ffd1bc" stroke-width="1"/><path d="M198.5,388.312s-.085-.091-.254-.248l-.769-.7-2.961-2.659-10.931-9.689v.176l28.287-28.2,20.318-20.324,2.2-2.247,1.072-1.078c.351-.357.7-.709,1.078-1.023a6.13,6.13,0,0,0,1.871-2.222,2.423,2.423,0,0,0,.115-1.429c-.109-.472-.309-.866-.436-1.29a14.2,14.2,0,0,1-.606-2.5,4.735,4.735,0,0,1,.182-2.344,6.771,6.771,0,0,1,1.363-1.744,6.339,6.339,0,0,1,1.684-1.169h.054v-.054c.036-3.173.061-5.681.079-7.412v-2.64a.611.611,0,0,0,0,.17v.5c0,.46,0,1.12-.054,1.968-.036,1.726-.091,4.239-.157,7.406l.055-.079a6.531,6.531,0,0,0-1.756,1.211,6.836,6.836,0,0,0-1.417,1.817,4.844,4.844,0,0,0-.212,2.453,14,14,0,0,0,.606,2.537c.127.424.327.848.424,1.266a2.21,2.21,0,0,1-.109,1.3,5.994,5.994,0,0,1-1.817,2.113,14.381,14.381,0,0,0-1.084,1.023l-1.078,1.078-2.229,2.21c-6.056,6.026-12.972,12.948-20.348,20.3l-28.239,28.263-.085.091.091.079,10.985,9.581,3.028,2.61.787.672Z" transform="translate(-183.34 -299.52)" fill="#ffd1bc" stroke="#ffd1bc" stroke-width="1"/><path d="M203.27,372.649c-.061.061,2.634,2.538,6.008,5.523s6.165,5.36,6.219,5.293-2.634-2.538-6.007-5.529S203.324,372.583,203.27,372.649Z" transform="translate(-170.065 -328.362)" fill="#ffd1bc" stroke="#ffd1bc" stroke-width="1"/><path d="M212.137,374.379a5.3,5.3,0,0,0,.709,1.211,24.008,24.008,0,0,0,2.083,2.6,24.645,24.645,0,0,0,2.422,2.3,5.23,5.23,0,0,0,1.126.8c.061-.073-1.569-1.4-3.313-3.307S212.222,374.325,212.137,374.379Z" transform="translate(-178.418 -329.044)" fill="#ffd1bc" stroke="#ffd1bc" stroke-width="1"/><path d="M150.21,302.58a2.2,2.2,0,0,0,.085.5,8.4,8.4,0,0,0,.454,1.32,11.009,11.009,0,0,0,1.005,1.817,12.6,12.6,0,0,0,1.665,1.932,12.41,12.41,0,0,0,2.041,1.514,10.944,10.944,0,0,0,1.889.866,7.714,7.714,0,0,0,1.35.351,1.816,1.816,0,0,0,.509.055c0-.061-.7-.188-1.78-.606a11.776,11.776,0,0,1-1.817-.908,12.89,12.89,0,0,1-1.98-1.5,13.442,13.442,0,0,1-1.641-1.859,12.926,12.926,0,0,1-1.036-1.744C150.446,303.264,150.252,302.562,150.21,302.58Z" transform="translate(-81.644 -300.726)" fill="#ffd1bc" stroke="#ffd1bc" stroke-width="1"/><path d="M233.52,361.82a27.013,27.013,0,0,1,3.131,3.47,27.384,27.384,0,0,1,2.2,4.118,4.4,4.4,0,0,0-.369-1.338,13.7,13.7,0,0,0-1.581-2.961,13.447,13.447,0,0,0-2.253-2.489A4.354,4.354,0,0,0,233.52,361.82Z" transform="translate(-211.743 -324.092)" fill="#ffd1bc" stroke="#ffd1bc" stroke-width="1"/><path d="M234.11,365.46c0,.1,2.15.49,4.627,1.538s4.282,2.32,4.336,2.235a5.247,5.247,0,0,0-1.139-.884,19.11,19.11,0,0,0-3.076-1.641,19.466,19.466,0,0,0-3.319-1.054A5.506,5.506,0,0,0,234.11,365.46Z" transform="translate(-216.318 -325.526)" fill="#ffd1bc" stroke="#ffd1bc" stroke-width="1"/></g><path d="M15.1,18.146a1.891,1.891,0,0,1-.922-1.548c-.019-.714.4-1.377.22-2.067a3.862,3.862,0,0,0-.493-.93A3.931,3.931,0,0,1,13.7,9.967s-5.992.645-9.023-.93S-1.049,3.12.406.882s5.128.467,7.631.636,11.435,1.015,13.229,4.2-.2,4.519.116,7.664,1.024,9.1-3.863,8.847a4.425,4.425,0,0,0,0-4.638C16.544,16.65,15.1,18.146,15.1,18.146Z" transform="matrix(0.998, -0.07, 0.07, 0.998, 82.814, 1.536)" fill="#334048"/></g></g></svg>