<?xml version="1.0" encoding="utf-8"?>
<!-- Generator: Adobe Illustrator 25.4.1, SVG Export Plug-In . SVG Version: 6.00 Build 0)  -->
<svg version="1.1" id="Layer_1" xmlns="http://www.w3.org/2000/svg" xmlns:xlink="http://www.w3.org/1999/xlink" x="0px" y="0px"
	 viewBox="0 0 363 249" style="enable-background:new 0 0 363 249;" xml:space="preserve">
<style type="text/css">
	.st0{fill:#B3E5FC;}
	.st1{fill:#64B5F6;}
	.st2{opacity:0.5;}
	.st3{fill:#334048;}
	.st4{fill:#FAFAFA;}
	.st5{fill:#E0E0E0;}
	.st6{opacity:0.4;}
	.st7{fill:#FFFFFF;stroke:#FFFFFF;stroke-width:3;}
	.st8{fill:#263238;}
	.st9{fill:#455A64;}
	.st10{fill:#E3F2FD;stroke:#E3F2FD;stroke-width:3;}
	.st11{fill:#FFFFFF;}
	.st12{opacity:0.2;}
	.st13{fill:#D9F3FF;}
	.st14{fill:#FFBE9D;}
	.st15{fill:#AA6550;}
	.st16{fill:#EBEBEB;}
	.st17{fill:#457DAB;}
	.st18{opacity:0.3;}
	.st19{fill:#FF641E;}
	.st20{fill:#FFD1BC;stroke:#FFD1BC;stroke-width:0.9999;stroke-miterlimit:3.9995;}
	
		.st21{opacity:0.8;fill:none;stroke:#FFFFFF;stroke-width:0.9999;stroke-linecap:round;stroke-linejoin:round;stroke-miterlimit:3.9998;enable-background:new    ;}
	.st22{fill:none;stroke:#263238;stroke-width:0.2;stroke-linecap:round;stroke-linejoin:round;stroke-miterlimit:3.9998;}
	
		.st23{opacity:0.8;fill:none;stroke:#FFFFFF;stroke-width:0.5;stroke-linecap:round;stroke-linejoin:round;stroke-miterlimit:3.9998;enable-background:new    ;}
	.st24{fill:#EB996E;}
</style>
<g transform="translate(0.457 0)">
	<g transform="translate(126.694 -26.194)">
		<g transform="translate(186.715 23.502)">
			<path class="st0" d="M496.6,129.4c2.8,3.1,4.2,7.2,4,11.4c-0.3,4.1-1.6,8.2-3.7,11.8c-3.9,7-11.1,12.7-18,16.8c-4-8-1.5-18,0-23
				C481.3,138.4,490.6,125.7,496.6,129.4"/>
			<path class="st0" d="M481.1,184.5c0.9-4.6,4.2-8.4,8.7-10c4.5-1.4,9.3-1,13.5,1.1c1.9,1,3.8,2.4,4.3,4.5c0.3,2-0.5,4-2.1,5.3
				c-1.6,1.2-3.5,2-5.5,2.3C493.1,189,486.4,188.9,481.1,184.5"/>
			<path class="st0" d="M463.8,203.8c0.2-0.5,0.5-1,0.8-1.4l2.4-3.8c2.1-3.1,5-7.7,9.6-11.4c3.9-3.2,8.5-5.3,13.5-6.1
				c1.5-0.2,3-0.3,4.5-0.1c0.4,0,0.8,0.1,1.2,0.2c0.3,0,0.4,0.1,0.4,0.1c-2-0.1-4.1,0-6.1,0.2c-4.9,0.9-9.4,3.1-13.2,6.2
				c-4.5,3.6-7.4,8-9.6,11.1c-1.1,1.6-2,2.8-2.6,3.7C464.5,203,464.2,203.5,463.8,203.8z"/>
			<path class="st0" d="M490.4,139.8c0,0.2-0.1,0.5-0.2,0.7l-0.7,1.9c-0.6,1.7-1.5,4.1-2.6,7.1c-2.3,6-5.4,14.2-9.2,23.2
				s-7.3,17.1-10,22.9c-1.3,2.9-2.4,5.2-3.2,6.8c-0.4,0.8-0.7,1.4-0.9,1.8c-0.1,0.2-0.2,0.4-0.4,0.6c0.1-0.2,0.1-0.5,0.2-0.7
				c0.2-0.5,0.5-1.1,0.8-1.9l3-6.9c2.6-5.8,6.1-13.9,9.8-22.9s7-17.2,9.3-23.1l2.8-7c0.3-0.8,0.6-1.4,0.8-1.9
				C490.2,140.2,490.3,140,490.4,139.8z"/>
			<path class="st0" d="M468.5,184.6c2.2-9.7-0.4-19.9-7-27.3c-1.7-1.9-4.1-3.6-6.4-2.8s-3.1,3.8-3.1,6.3c0,10.6,6.4,20.2,16.2,24.3
				"/>
			<path class="st0" d="M459.7,164.7c0.4,0.3,0.8,0.7,1.1,1.1c0.4,0.4,0.8,0.9,1.1,1.4c0.4,0.6,0.9,1.2,1.4,2c0.5,0.8,1,1.7,1.5,2.5
				c0.5,1,1,2,1.4,3c1,2.4,1.7,4.9,2.1,7.4c0.4,2.6,0.4,5.1,0.2,7.7c-0.1,1.1-0.3,2.2-0.5,3.3c-0.2,1-0.4,1.9-0.7,2.8
				c-0.2,0.8-0.5,1.5-0.8,2.3c-0.2,0.6-0.5,1.1-0.8,1.7c-0.2,0.5-0.4,0.9-0.7,1.4c-0.1,0,0.9-2,1.9-5.4c0.3-0.9,0.5-1.9,0.6-2.8
				c0.2-1.1,0.4-2.2,0.5-3.3c0.2-2.5,0.1-5.1-0.2-7.6c-0.4-2.5-1.1-5-2-7.3c-0.5-1.1-0.9-2.1-1.4-3c-0.4-0.9-0.9-1.7-1.4-2.5
				C461.1,166.4,459.5,164.8,459.7,164.7z"/>
			<path class="st0" d="M-127,240.3c-7.7-16.4-20.9-45.7-32.3-70.8s-21.8-47.8-29.4-64.2l-9-19.4l-2.4-5.3l-0.6-1.4
				c-0.1-0.2-0.2-0.3-0.2-0.5c0,0,0.1,0.1,0.2,0.5l0.7,1.4c0.6,1.2,1.4,3,2.5,5.2c2.2,4.5,5.3,11.2,9.2,19.3
				c7.7,16.4,18.1,39.1,29.6,64.2s24.6,54.5,32.2,70.9"/>
			<path class="st0" d="M-198.4,130.8c0.4,0.1,0.8,0.2,1.1,0.4c0.7,0.3,1.7,0.7,3,1.2c2.5,1.1,5.9,2.6,9.7,4.4l9.6,4.5l2.9,1.4
				c0.4,0.1,0.7,0.3,1,0.5c-0.4-0.1-0.8-0.2-1.1-0.4c-0.7-0.3-1.7-0.7-3-1.2c-2.5-1.1-5.9-2.7-9.6-4.4l-9.6-4.5l-2.9-1.4
				C-197.7,131.2-198.1,131-198.4,130.8L-198.4,130.8z"/>
			<path class="st0" d="M-169.9,142.3c-0.1,0,2.8-7.3,6.4-16.1s6.8-15.9,6.9-15.9c0.1,0-2.7,7.3-6.4,16.1S-169.8,142.3-169.9,142.3z
				"/>
			<path class="st0" d="M-154.1,181.6c0.2-0.3,0.4-0.7,0.7-1c0.5-0.7,1.2-1.5,2.1-2.6c1.7-2.2,4.1-5.2,6.6-8.6s4.7-6.5,6.2-8.8
				l1.8-2.7c0.2-0.3,0.4-0.7,0.7-1c-0.1,0.4-0.3,0.7-0.6,1.1c-0.4,0.7-1,1.6-1.7,2.8c-1.5,2.4-3.6,5.5-6.1,8.9s-4.9,6.4-6.8,8.5
				c-0.9,1-1.6,1.9-2.2,2.5C-153.5,181.1-153.8,181.4-154.1,181.6z"/>
			<path class="st0" d="M-182.1,176.9c0.4,0,0.8,0,1.1,0.1l3,0.4c2.5,0.4,6,0.9,9.9,1.5s7.4,1.1,9.9,1.6l3,0.5
				c0.4,0,0.7,0.1,1.1,0.3c-0.4,0-0.8,0-1.1-0.1l-3-0.4c-2.5-0.4-6.1-0.9-9.9-1.5s-7.4-1.1-9.9-1.6l-3-0.5
				C-181.4,177.2-181.8,177.1-182.1,176.9L-182.1,176.9z"/>
			<path class="st0" d="M-172.6,213.5c0.5,0,1,0,1.4,0.1l3.9,0.5c3.3,0.4,7.7,1,12.7,1.8s9.4,1.4,12.7,1.9l3.8,0.6
				c0.5,0.1,0.9,0.2,1.4,0.3c-0.5,0-1,0-1.4-0.1l-3.9-0.5c-3.3-0.4-7.8-1-12.7-1.8c-5-0.7-9.4-1.4-12.7-1.9l-3.8-0.6
				C-171.6,213.7-172.1,213.6-172.6,213.5z"/>
			<path class="st0" d="M-137.5,218.3c0.3-0.4,0.5-0.9,0.9-1.3c0.6-0.9,1.5-2,2.5-3.3c2.1-2.8,5-6.7,8.1-11.1s5.8-8.4,7.7-11.4
				l2.3-3.5c0.3-0.4,0.6-0.9,0.9-1.3c-0.2,0.5-0.4,0.9-0.7,1.4c-0.5,0.9-1.2,2.1-2.1,3.6c-1.8,3-4.5,7.1-7.6,11.5s-6,8.3-8.2,11.1
				c-1.1,1.4-2,2.5-2.6,3.2C-136.8,217.6-137.1,217.9-137.5,218.3z"/>
			<path class="st0" d="M133.3,172.6c2.7-17.5,6.4-34.9,11.1-52l3.6-13.5c1.2-4.4,2.4-8.8,3.8-13c2.7-8.1,5.9-16,9.6-23.8
				c3.4-7.4,6.9-14.3,10.2-20.8s6.6-12.4,9.7-17.7c5-8.4,10.6-16.3,16.8-23.8c2.2-2.7,4-4.7,5.2-6l1.4-1.5c0.2-0.2,0.3-0.3,0.5-0.5
				c-0.1,0.2-0.3,0.4-0.4,0.6l-1.3,1.6c-1.1,1.4-2.9,3.4-5,6.1c-6.1,7.5-11.6,15.5-16.5,23.9c-3.1,5.3-6.3,11.2-9.6,17.7
				s-6.8,13.4-10.1,20.8c-3.6,7.7-6.8,15.7-9.5,23.8c-1.4,4.2-2.6,8.6-3.8,13s-2.4,8.9-3.6,13.5c-4.7,17.1-8.4,34.4-11.1,51.9"/>
			<path class="st0" d="M152.1,94c-0.3-0.7-0.6-1.4-0.8-2.1c-0.5-1.4-1.1-3.4-1.8-5.9c-1.5-5-3.2-12-5.2-19.7s-3.8-14.6-5.3-19.6
				c-0.8-2.5-1.4-4.5-1.9-5.9c-0.3-0.7-0.5-1.4-0.6-2.2c0.4,0.6,0.7,1.3,1,2c0.6,1.3,1.3,3.3,2.1,5.8c1.7,4.9,3.7,11.8,5.6,19.5
				l4.9,19.7c0.6,2.4,1.1,4.4,1.5,6C151.9,92.5,152,93.2,152.1,94L152.1,94z"/>
			<path class="st0" d="M216.1,72.2c-0.8,0.3-1.7,0.5-2.6,0.7c-1.7,0.4-4.1,1-7,1.7c-5.9,1.5-14.1,3.9-22.9,6.9s-16.7,6.2-22.4,8.6
				c-2.8,1.1-5.1,2.2-6.7,2.9c-0.8,0.4-1.6,0.7-2.5,1c0.7-0.5,1.5-1,2.3-1.3c1.5-0.8,3.8-1.9,6.5-3.2c5.6-2.6,13.5-5.8,22.3-8.8
				c7.6-2.6,15.3-4.9,23.1-6.7c3-0.7,5.4-1.1,7.1-1.4C214.3,72.3,215.2,72.2,216.1,72.2z"/>
			<path class="st0" d="M134,171.3c-0.2-0.2-0.4-0.5-0.6-0.7c-0.4-0.6-0.9-1.3-1.5-2.3c-1.3-1.9-3-4.8-5.2-8.3
				c-4.3-7.1-9.8-17.1-15.9-28.1s-11.5-21.1-15.6-28.2l-4.9-8.5l-1.3-2.3c-0.2-0.3-0.3-0.5-0.4-0.8c0.2,0.2,0.4,0.5,0.6,0.7l1.5,2.3
				c1.3,1.9,3,4.8,5.2,8.3c4.3,7.1,9.9,17.1,15.9,28.1s11.5,21.1,15.6,28.2l4.9,8.5c0.5,0.9,1,1.7,1.3,2.3
				C133.8,170.8,133.9,171,134,171.3L134,171.3z"/>
			<path class="st0" d="M217.4,130.4c-0.3,0.2-0.5,0.4-0.8,0.5l-2.4,1.2l-8.9,4.4c-7.5,3.7-17.9,9-29.3,14.8s-21.9,11-29.5,14.5
				c-3.8,1.8-6.9,3.2-9.1,4.1l-2.5,1c-0.3,0.1-0.6,0.3-0.9,0.3c0.3-0.2,0.5-0.4,0.8-0.5l2.4-1.2l8.9-4.4c7.5-3.7,17.9-8.9,29.3-14.8
				s21.8-11,29.5-14.5c3.8-1.8,6.9-3.2,9.1-4.1l2.5-1C216.8,130.6,217.1,130.5,217.4,130.4z"/>
			<path class="st0" d="M362.1,53.2c0-18.6-19.5-30.3-39.4-21c-4.5,2.1-8.2,5.6-10.5,10c-5,9.7-2.8,20.7,1.8,29.9l15.5,39.2
				c1.3,3.4,5.2,5.1,8.6,3.8c1.7-0.7,3.1-2.1,3.8-3.8L357.1,72C362.4,59.9,362.1,53.2,362.1,53.2z M343.5,69.4
				c-13.4,7.8-26.9-6.6-19.6-20.8c1-1.9,2.4-3.5,4.3-4.5c13.4-7.8,26.9,6.6,19.6,20.8C346.8,66.7,345.3,68.3,343.5,69.4z"/>
		</g>
		<g transform="translate(170.778 102.518)">
			<rect x="-156.6" y="139.4" class="st1" width="707.9" height="103.9"/>
			<g transform="translate(44.362 139.416)" class="st2">
				<rect x="-201" y="0" width="707.9" height="103.9"/>
			</g>
			<ellipse class="st3" cx="-61.5" cy="242.6" rx="68.3" ry="68.3"/>
			<path class="st3" d="M-129.8,241.4v0.2c-0.5,37.7,29.6,68.7,67.3,69.3s68.7-29.6,69.3-67.3l0,0v-0.2L-129.8,241.4z"/>
			<path class="st4" d="M-109.4,241.9c-0.4,26.5,20.7,48.2,47.2,48.6s48.2-20.7,48.6-47.2c0.4-26.5-20.7-48.2-47.2-48.6c0,0,0,0,0,0
				C-87.3,194.3-109,215.4-109.4,241.9z"/>
			<path class="st5" d="M-60.8,194.7c-26.5-0.4-48.2,20.8-48.6,47.2l95.8,1.4C-13.2,216.8-34.4,195.1-60.8,194.7z"/>
			<path class="st3" d="M-90.7,242.2c-0.2,16.1,12.6,29.4,28.8,29.6s29.4-12.6,29.6-28.8c0.2-16.1-12.6-29.4-28.8-29.6c0,0,0,0,0,0
				C-77.2,213.2-90.5,226.1-90.7,242.2z"/>
			<ellipse class="st3" cx="460.5" cy="242.5" rx="68.2" ry="68.2"/>
			<path class="st3" d="M392.2,241.4v0.2c-0.5,37.7,29.6,68.7,67.3,69.3c37.7,0.5,68.7-29.6,69.3-67.3v-0.2L392.2,241.4z"/>
			<path class="st4" d="M412.6,241.9c-0.4,26.5,20.7,48.2,47.2,48.6s48.2-20.7,48.6-47.2c0.4-26.5-20.7-48.2-47.2-48.6c0,0,0,0,0,0
				C434.7,194.3,413,215.4,412.6,241.9z"/>
			<path class="st5" d="M461.2,194.7c-26.5-0.4-48.2,20.8-48.6,47.2l95.8,1.4C508.8,216.8,487.6,195.1,461.2,194.7L461.2,194.7z"/>
			<path class="st3" d="M431.3,242.2c-0.2,16.1,12.6,29.4,28.8,29.6s29.4-12.6,29.6-28.8s-12.6-29.4-28.8-29.6c0,0,0,0,0,0
				C444.7,213.2,431.5,226.1,431.3,242.2z"/>
			<path class="st1" d="M28,81c0,0-100.5,7.4-137.8,15.8c-26.3,5.9-76.9,16.1-76.3,47.9l4,22.8c0,0-18.8,8.6-18.8,30.5
				s-4.6,55.8,39.3,57.2c7.2,0.2,20.9,0,20.9,0s-8.4-93.4,77.4-96.1c87.3-2.8,81.5,95.3,81.5,95.3h364.2c0,0-15-95.5,79-95.7
				s79.6,96.3,79.6,96.3s34.6,3,50.6-26.1s11.9-49.8,11.9-49.8l-0.5-18.4c-0.2-6.3-5.2-11.3-11.5-11.5l0,0c0,0,6.3-46.2-3.4-54.2
				s-62.4-56.3-62.4-56.3l2.6-1.6c2.8-1.7,3.6-5.4,1.8-8.2c-0.7-1.2-1.8-2-3.1-2.4c-20-6.9-59.7-20.5-69-23.8
				c-1.4-0.5-2.8-0.8-4.3-0.9c-5.6-0.4-21.3-1.4-50.2-1.7c-35.2-0.4-175,0-175,0s-48.1,4-74.9,15.7C125.5,28.3,28,81,28,81z"/>
			<g transform="translate(10.306 194.955)" class="st6">
				<path d="M-185.7,0.5c-3.6-0.7-9.2-0.8-12,1.7c-2.1,1.8-2.6,4.8-2.9,7.6c-0.6,3.8-0.5,7.6,0.3,11.3c0.8,3.8,3.1,7,6.4,9
					c3.3,1.8,7.9,1.5,10.5-1.3c2.4-2.6,2.6-6.4,2.6-9.8c-0.1-4.9,0.3-9.1-0.6-13.9c-0.2-1-0.6-2-1.3-2.8
					C-183.5,1.2-184.5,0.5-185.7,0.5"/>
			</g>
			<path class="st3" d="M-182.1,167.5c10.7,0,21-0.6,31.7-1.3c1.2,0.1,2.3-0.3,3.2-1c0.9-1.1,1.3-2.5,1.1-3.8c0-5.7-0.2-12.2-4.6-16
				c-2.7-2.3-6.3-3-9.8-3.3c-8.7-0.9-17.4-0.1-25.7,2.6L-182.1,167.5z"/>
			<path class="st7" d="M39.5,251.4c0-0.3,0-0.6-0.1-0.9c-0.1-0.6-0.1-1.5-0.2-2.7c-0.1-2.4-0.3-5.8-0.6-10.3s-0.5-9.9-1.2-16.3
				c-0.7-7.2-1.9-14.3-3.8-21.2c-2.3-8.4-5.8-16.4-10.3-23.9c-5.1-8.6-11.8-16.2-19.9-22.2c-17.2-12.2-40.5-19.1-64.8-19.5
				s-47.6,7.4-64.4,20.3c-8,6-15.1,13.2-20.9,21.3c-5.1,7.1-9.2,14.8-12.2,23c-2.5,6.7-4.3,13.7-5.2,20.9
				c-0.7,5.4-0.9,10.8-0.6,16.2c0.2,3.4,0.6,6.8,1.3,10.2c0.2,1.1,0.4,2,0.5,2.6c0.1,0.6,0.1,0.9,0.1,0.9s-0.1-0.3-0.2-0.9l-0.5-2.6
				c-0.7-3.4-1.2-6.8-1.4-10.2c-0.3-5.4-0.2-10.9,0.5-16.3c0.9-7.2,2.6-14.2,5.1-21c3.1-8.2,7.2-16,12.2-23.2
				c5.8-8.2,12.9-15.5,21-21.5c16.9-13,40.2-20.7,64.7-20.4s47.8,7.3,65.2,19.6c8.1,6,14.9,13.6,20,22.4c4.5,7.5,7.9,15.6,10.2,24.1
				c1.8,7,3.1,14.1,3.7,21.3c0.6,6.4,0.9,11.8,1.1,16.3s0.3,7.9,0.4,10.3c0,1.2,0.1,2.1,0.1,2.7C39.5,250.8,39.5,251.1,39.5,251.4z"
				/>
			<path class="st8" d="M43.4,253v-0.8l-0.1-2.3c-0.1-2-0.2-5-0.3-8.8c-0.2-7.7-0.5-19.1-0.9-33.5s-0.9-31.9-1.4-51.9
				c-0.1-5-0.3-10.2-0.4-15.5c-0.1-2.7,0-5.4,0.4-8.1l0.6-4.1l0.8-4.1c1.3-5.6,3.2-11.1,5.7-16.3c2.5-5.5,5.7-10.7,9.3-15.5l0,0
				l63.1-39.7l17-10.7c5.7-3.8,11.8-7.2,18-10.1c6.4-3,13-5.7,19.7-7.9c3.3-1.2,6.8-2.1,10.2-3.2s6.9-1.9,10.5-2.6
				c13.4-2.9,27-4.6,40.6-5.1c13.1-0.6,26.3-0.6,39.4,0.1h0.4l-0.1,0.4l-16.9,75.8l0,0c-3.1,5.1-5.7,10.6-7.7,16.3
				c-1.9,5.4-2.8,11.1-2.6,16.8c0.4,5.6,0.6,11.1,0.7,16.4s0.2,10.5,0.3,15.5c0.3,20,0.4,37.5,0.4,51.9s0,25.7,0,33.4l0,0
				c0-7.7-0.1-19-0.2-33.4s-0.2-31.9-0.6-51.9c-0.1-5-0.2-10.2-0.3-15.5c-0.2-5.3-0.3-10.8-0.8-16.4c-0.3-5.8,0.6-11.6,2.6-17.1
				c1.9-5.7,4.5-11.2,7.7-16.4v0.1c5.2-23.3,10.9-48.8,16.9-75.8l0.3,0.4c-13.1-0.7-26.2-0.7-39.3-0.1c-13.6,0.5-27.2,2.2-40.5,5.1
				c-3.5,0.7-7,1.7-10.4,2.6s-6.8,2-10.2,3.1c-6.7,2.3-13.3,4.9-19.7,7.9c-6.2,2.9-12.2,6.2-17.9,10l-17,10.7L57.4,92.4v-0.1
				c-3.7,4.8-6.8,9.9-9.3,15.4c-2.5,5.2-4.3,10.6-5.7,16.2c-2.9,10.9-1.4,21.7-1.4,31.7l1.3,51.9c0.3,14.4,0.6,25.7,0.8,33.5
				c0.1,3.8,0.1,6.8,0.2,8.8v2.3C43.3,252.5,43.4,252.7,43.4,253z"/>
			<path class="st8" d="M275,15h0.6l1.7-0.1l6.8-0.2l25.1-0.5l84.7-1.5h0.2l0.1,0.1l11.9,14.5c12,14.8,23.5,28.8,33.9,41.6l3.8,4.7
				c1.2,1.6,2.3,3.3,3.2,5.1c3.2,6.8,3.4,14.6,0.5,21.5l-3.8,8.9l-11.7,27.1l-3.2,7.4l-0.9,1.9c-0.2,0.4-0.3,0.6-0.3,0.6
				s0.1-0.2,0.2-0.7s0.5-1.1,0.8-1.9c0.7-1.7,1.8-4.2,3.1-7.4l11.5-27.2c2.2-5.8,6.1-11.8,5.8-19.2c-0.1-3.8-0.9-7.5-2.6-10.9
				c-0.9-1.8-1.9-3.4-3.1-5l-3.8-4.7l-33.9-41.5l-11.9-14.5l0.3,0.1l-84.7,1.3l-25.1,0.3h-8.5L275,15z"/>
			<path class="st8" d="M232.2,127.7c0.3,0,0.7-0.1,1-0.2c1-0.2,1.9-0.5,2.7-1.1c1.3-0.8,2.2-2.1,2.7-3.5c0.3-0.9,0.4-1.9,0.4-2.8
				c0-1.1-0.3-2.1-0.8-3c-1.2-2.2-3.4-3.6-5.9-3.6H204c-3.4,0-6.2,2.6-6.6,5.9c-0.2,1.5,0.1,3.1,0.8,4.5c0.7,1.3,1.9,2.3,3.3,2.9
				c1.4,0.5,2.8,0.6,4.2,0.5h11.7l10.9,0.1l2.9,0.1c0.3,0,0.7,0,1,0.1c-0.3,0-0.7,0.1-1,0.1h-2.9l-10.9,0.1h-13.9
				c-0.8,0-1.5-0.2-2.3-0.5c-1.5-0.6-2.8-1.7-3.6-3.2c-0.8-1.5-1.1-3.2-0.9-4.9c0.4-3.7,3.5-6.5,7.3-6.5h28.3
				c2.7,0.1,5.1,1.6,6.3,3.9c0.5,1,0.8,2.1,0.8,3.2c0,1-0.1,2-0.4,2.9c-0.5,1.5-1.6,2.8-2.9,3.6c-0.8,0.5-1.8,0.9-2.8,1
				C232.9,127.5,232.6,127.6,232.2,127.7L232.2,127.7z"/>
			<path class="st8" d="M421.1,127.7c0.3,0,0.7-0.1,1-0.2c1-0.2,1.9-0.5,2.7-1.1c1.3-0.8,2.2-2.1,2.7-3.5c0.3-0.9,0.4-1.9,0.4-2.8
				c0-1.1-0.3-2.1-0.8-3c-1.2-2.2-3.4-3.6-5.9-3.6h-28.3c-3.4,0-6.2,2.6-6.6,5.9c-0.2,1.5,0.1,3.1,0.8,4.5c0.7,1.3,1.9,2.3,3.3,2.9
				c1.4,0.5,2.8,0.6,4.2,0.5h11.7l10.9,0.1l2.9,0.1c0.3,0,0.7,0,1,0.1c-0.3,0-0.7,0.1-1,0.1h-2.9l-10.9,0.1h-13.9
				c-0.8,0-1.5-0.2-2.3-0.5c-1.5-0.6-2.8-1.7-3.6-3.2c-0.8-1.5-1.1-3.2-0.9-4.9c0.4-3.7,3.5-6.5,7.3-6.5h28.3
				c2.7,0.1,5.1,1.6,6.3,3.9c0.5,1,0.8,2.1,0.8,3.2c0,1-0.1,2-0.4,2.9c-0.5,1.5-1.6,2.8-2.9,3.6c-0.8,0.5-1.8,0.9-2.8,1
				C421.8,127.5,421.4,127.6,421.1,127.7z"/>
			<path class="st4" d="M586.5,96.9h-37.8c-5.2,0-9.9,2.9-12.3,7.4l0,0c-2,3.8-2.1,8.2-0.4,12.1l14.8,33.6l37.8-0.4
				C588.6,149.7,596.7,107,586.5,96.9z"/>
			<path class="st8" d="M62,92.1l194.9-3.6l126.8-2.3L425.5,62c3.1-1.8,4.1-5.8,2.3-8.9c-0.1-0.2-0.3-0.5-0.4-0.7l-26-34.2
				c-2.7-3.6-6.9-5.7-11.4-5.7l-141.9-1.1c0,0-53.4-3.1-95.5,20.4C108.4,56.7,62,92.1,62,92.1z"/>
			<path class="st9" d="M151.3,15c0,0,9.8,4.5,3.4,8.6S49.6,89.9,49.6,89.9L26.9,79.6C67.1,57.2,107.7,35.5,151.3,15z"/>
			<path class="st10" d="M52.8,91.5l-0.6,0.2L50.4,92l-6.9,1.4c-6,1.2-14.8,2.9-25.5,4.7c-21.7,3.7-51.7,8.1-85.1,10.9
				c-8.4,0.7-16.6,1.3-24.4,1.8s-15.5,1-22.7,1.7c-14.5,1.3-27.4,3.4-37.9,6.5c-8.4,2.3-16.4,5.7-23.9,9.9c-2.7,1.4-4.7,2.8-6,3.7
				l-1.6,1l-0.5,0.3c0.2-0.1,0.3-0.3,0.5-0.4l1.5-1c1.4-0.9,3.3-2.3,6-3.8c7.5-4.4,15.5-7.8,23.9-10.2c10.5-3.2,23.5-5.4,38-6.6
				c7.2-0.7,14.8-1.2,22.7-1.7s16-1.1,24.4-1.9c33.4-2.9,63.4-7.1,85.1-10.8c10.8-1.8,19.6-3.4,25.6-4.5l7-1.3l1.8-0.3L52.8,91.5z"
				/>
			<path class="st8" d="M601.6,178.7c0,0.2-13,0.3-29,0.3s-29-0.1-29-0.3s13-0.3,29-0.3S601.6,178.6,601.6,178.7z"/>
			<path class="st8" d="M364,211.9c0,0.2-73.3,0.3-163.7,0.3s-163.8-0.1-163.8-0.3s73.3-0.3,163.8-0.3S364,211.7,364,211.9z"/>
			<path class="st8" d="M-149.3,179.8c0,0.2-10.4,0.3-23.2,0.3c-12.8,0-23.2-0.1-23.2-0.3s10.4-0.3,23.2-0.3
				C-159.7,179.5-149.3,179.6-149.3,179.8z"/>
			<path class="st9" d="M524.8,37.5c0,0-8.7,9.7-5.3,16.9s38.8,32.2,38.8,32.2l25.7,4.8L524.8,37.5z"/>
			<path class="st9" d="M280.8,20L275,82.3l103.2-2.9l41.6-24.2L392.9,20H280.8z"/>
			<path class="st9" d="M86.4,85.5c0,0,62.3-45,86.9-53.9c23.7-8.6,36.1-10.8,58.4-11.5c21.3-0.6,34.3,0,34.3,0l-16.5,63.4
				L86.4,85.5z"/>
			<path class="st1" d="M77.3,85.7L77.3,85.7c0-3.9,2.1-7.6,5.6-9.5l14.3-8c4.1-2.3,8.7-3.5,13.4-3.5l0,0c2.9,0,5.7,0.5,8.5,1.4
				c6.1,2.1,10.3,7.8,10.4,14.3l0,0c0.3,8.7-6.4,16-15.1,16.3c-0.2,0-0.4,0-0.6,0H88.2C82.2,96.6,77.3,91.7,77.3,85.7z"/>
			<path class="st8" d="M77.3,85.7c0,0.5,0.1,0.9,0.2,1.4c0.2,1.3,0.6,2.6,1.3,3.7c1,1.8,2.6,3.3,4.4,4.3c1.1,0.6,2.4,1,3.7,1.1
				c1.5,0.1,2.9,0.1,4.4,0.1l21.8-0.1c2.1,0.1,4.1-0.3,6.1-1c4.1-1.6,7.4-4.8,9-8.9c0.8-2.2,1.1-4.5,1-6.8
				c-0.3-4.6-2.7-8.8-6.4-11.4c-1.8-1.2-3.8-2.1-5.9-2.6c-5.8-1.4-11.9-0.8-17.4,1.7c-1.6,0.7-3.2,1.7-4.6,2.5l-4.3,2.4l-7.3,4.1
				c-1.8,1-3.4,2.5-4.4,4.3c-0.6,1.2-1.1,2.4-1.3,3.7C77.4,85.2,77.4,85.6,77.3,85.7c0-0.5,0-1,0-1.4c0.1-1.3,0.5-2.6,1.2-3.8
				c1-1.9,2.5-3.5,4.4-4.5l7.3-4.1l4.2-2.4c1.5-0.8,3-1.8,4.7-2.6c5.6-2.6,11.8-3.2,17.7-1.8c2.2,0.4,4.3,1.3,6.1,2.6
				c3.9,2.8,6.4,7.1,6.7,11.9c0.2,2.4-0.2,4.8-1,7c-1.7,4.3-5.1,7.7-9.4,9.3c-2,0.7-4.1,1.1-6.3,1l-21.8-0.1c-1.5,0-3,0-4.5-0.1
				c-1.3-0.2-2.6-0.6-3.8-1.3c-1.9-1.1-3.4-2.6-4.4-4.5c-0.6-1.2-1-2.5-1.2-3.8C77.3,86.6,77.3,86.1,77.3,85.7L77.3,85.7z"/>
			<path class="st11" d="M557.2,252v-0.9c0-0.6,0.1-1.5,0.2-2.6s0.2-2.6,0.3-4.2s0.1-3.6,0.2-5.8s0-4.6,0-7.2c0-2.9-0.2-5.7-0.5-8.6
				c-0.6-6.9-1.8-13.8-3.7-20.5c-1.1-3.9-2.5-7.7-4.1-11.5c-1.7-4-3.8-7.9-6.2-11.6c-5.3-8.1-12.1-15.2-20-20.8
				c-8.7-6.3-18.3-11.1-28.6-14.1c-10.6-3.3-22.2-4.4-34-4.5c-11.5-0.1-22.9,1.6-33.9,4.9c-5.2,1.6-10.3,3.7-15.1,6.2
				c-4.6,2.5-9,5.3-13.1,8.6c-7.6,6-14.4,12.9-20.2,20.7c-2.5,3.6-4.8,7.3-6.7,11.3c-1.8,3.6-3.3,7.4-4.6,11.2
				c-4.1,11.5-6.6,23.5-7.4,35.7c-0.2,4.3-0.2,7.7-0.1,10c0.1,1.1,0.1,2,0.1,2.6c0,0.3,0,0.6,0,0.9c0-0.3,0-0.6-0.1-0.9
				c-0.1-0.6-0.1-1.5-0.2-2.6c-0.2-3.3-0.2-6.7,0-10c0.7-12.3,3.1-24.4,7.2-35.9c1.3-3.8,2.9-7.6,4.6-11.3c1.9-4,4.2-7.8,6.7-11.4
				c5.8-7.8,12.6-14.8,20.3-20.9c4.1-3.3,8.5-6.2,13.2-8.7c4.9-2.5,10-4.6,15.2-6.3c11.1-3.4,22.6-5.1,34.1-5
				c11.8,0.1,23.5,1.3,34.2,4.6c10.3,3.1,20.1,7.9,28.8,14.2c4,3,7.8,6.3,11.3,9.9c3.3,3.4,6.2,7.1,8.8,11.1
				c2.4,3.7,4.5,7.6,6.2,11.7c1.6,3.7,3,7.6,4,11.5c1.9,6.7,3.1,13.6,3.6,20.6c0.3,3.1,0.3,5.9,0.5,8.6s0,5.1,0,7.2
				s-0.2,4.1-0.3,5.8s-0.2,3.1-0.3,4.2s-0.2,2-0.2,2.6S557.2,252,557.2,252z"/>
			<path class="st11" d="M246.8,92.1h-1.2l-3.3,0.1L230,92.4c-10.3,0.2-24.6,0.6-40.4,1s-30,0.7-40.4,0.8h-16.4c-0.1,0-0.2,0-0.3,0
				c0.1,0,0.2,0,0.3,0h0.9l3.3-0.1l12.2-0.2c10.3-0.2,24.6-0.6,40.4-1s30-0.7,40.4-0.8L246.8,92.1L246.8,92.1z"/>
			<path class="st11" d="M229.8,111.3c-3.7,0.3-7.4,0.4-11.2,0.3c-3.7,0.1-7.5,0-11.2-0.3c3.7-0.3,7.4-0.4,11.2-0.3
				C222.4,110.9,226.1,111,229.8,111.3z"/>
			<path class="st11" d="M233.9,43c0.1,0.2-13.8,5.9-31,12.9s-31.2,12.5-31.2,12.3s13.8-5.9,31-12.9S233.9,42.8,233.9,43z"/>
			<path class="st11" d="M205.8,47.4c0.1,0.2-13.1,6-29.5,13s-29.7,12.6-29.8,12.4s13.1-6,29.5-13S205.7,47.2,205.8,47.4z"/>
			<path class="st11" d="M384.2,40.6c0.1,0.2-13.8,5.9-31,12.9S322,66,321.9,65.8s13.8-5.9,31-12.9
				C370.1,45.9,384.1,40.4,384.2,40.6z"/>
			<path class="st11" d="M356,45c0.1,0.2-13.1,6-29.5,13s-29.7,12.6-29.8,12.4s13.1-6,29.5-13S356,44.8,356,45z"/>
			<path class="st11" d="M386.9,92.1c0,0.2-27.6,0.5-61.6,0.7s-61.6,0.2-61.6,0s27.6-0.5,61.6-0.7S386.9,91.9,386.9,92.1z"/>
			<path class="st11" d="M417.4,110.2c0,0.2-7.7,0.4-17.3,0.5s-17.3,0-17.3-0.2s7.7-0.4,17.3-0.5S417.4,110,417.4,110.2z"/>
			<path class="st11" d="M-111,100.8c-0.2,0.1-0.5,0.1-0.8,0.2l-2.2,0.3c-0.9,0.1-2.1,0.2-3.4,0.5s-2.8,0.4-4.5,0.7
				c-3.3,0.6-7.3,1.5-11.6,2.6c-4.7,1.3-9.3,2.8-13.8,4.6c-4.8,1.9-9.3,4-13.2,6c-3.5,1.8-6.9,3.8-10.2,6c-1.4,0.9-2.7,1.8-3.8,2.6
				s-2.1,1.4-2.8,2l-1.8,1.3c-0.2,0.2-0.4,0.3-0.7,0.4c0.2-0.2,0.4-0.4,0.6-0.5l1.7-1.4c0.7-0.6,1.7-1.3,2.8-2.1
				c1.2-0.9,2.5-1.8,3.8-2.6c2.8-1.9,6.3-4,10.2-6.1c8.6-4.6,17.7-8.2,27.2-10.7c4.3-1.1,8.3-2,11.7-2.5c1.7-0.3,3.2-0.5,4.5-0.6
				s2.6-0.3,3.4-0.4l2.2-0.2C-111.5,100.8-111.3,100.8-111,100.8L-111,100.8z"/>
			<path class="st11" d="M116.8,70.7c-0.4-0.4-0.8-0.8-1.3-1.2c-1.2-0.9-2.7-1.5-4.2-1.7c-2.3-0.2-4.6,0.1-6.8,0.7
				c-7.8,2-15,5.7-21.1,10.9c-3,2.6-4.6,4.4-4.7,4.3c0.3-0.5,0.7-0.9,1.1-1.4c1.1-1.2,2.2-2.3,3.3-3.3c3.9-3.5,8.3-6.3,13.1-8.4
				c2.6-1.2,5.4-2.1,8.2-2.7c2.3-0.7,4.7-0.9,7-0.6c1.6,0.2,3.1,0.9,4.3,2c0.3,0.3,0.6,0.6,0.9,1C116.8,70.5,116.9,70.7,116.8,70.7z
				"/>
			<path class="st8" d="M527.6,37c-1.8,0.4-3.6,0.6-5.4,0.6c-2.1-0.1-4.3-0.3-6.4-0.8c-2.8-0.7-5.5-1.5-8.1-2.6
				c-2.9-1.1-6.1-2.6-9.5-4l-5.3-2.1c-1.8-0.7-3.8-1.4-5.7-2.1c-8.5-2.9-17.2-5.2-26-7.1c-16-3.3-32.3-5.3-48.6-6
				c-3.1-0.2-6-0.2-8.5-0.2h-6.4l-4,0.1h-1.4c0.1,0,0.2,0,0.4,0l1-0.1l4-0.2l6.4-0.1c2.6,0,5.3,0,8.5,0.2
				c16.4,0.5,32.7,2.5,48.7,5.9c8.8,1.8,17.5,4.2,26,7.1c1.9,0.7,3.8,1.4,5.7,2.1l5.3,2.2c3.4,1.5,6.5,2.9,9.4,4
				c2.6,1.1,5.3,1.9,8,2.6c2.1,0.5,4.2,0.8,6.3,0.9c1.3,0,2.7,0,4-0.1l1-0.1L527.6,37z"/>
		</g>
		<g transform="matrix(0.951, 0.309, -0.309, 0.951, 109.479, 0)">
			<g transform="matrix(0.951, -0.309, 0.309, 0.951, 0, 95.472)">
				<path class="st1" d="M-47.8,68.6c-6-28.5-9.8-33-13-42.8C-64.1,16-69.1,9.6-75.3,7.2c-4.1-1.6-24.8-9-32-6.8
					c-6.9,2.2-13.5,5.3-19.7,9.1c-4.7,2.9-8.3,7.3-10.1,12.4l-10.4,29.1l19.6,18.5l9.3-19.3l10.9,23.6l-1.1,23.6l60.3,16.4
					C-43.2,105.7-44.4,84.8-47.8,68.6z"/>
				<g transform="translate(97.394 37.349)" class="st12">
					<path d="M-161.4,0c-2.4,14.8-2.8,16.8-5.1,31.5c-0.8,5.1-3.3,12.9-7.1,16.6c-2.8,2.7-5.5,5.2-9.4,6c-3.6,0.8-9.2,0.7-12.6-0.7
						s-6.5-7.9-5.1-11.1c5.1,1.1,6.7,2.7,11.1,0.2c3.8-2.2,9.1-7.3,11.1-11.1C-170.1,15.4-167.6,14.9-161.4,0"/>
				</g>
				<path class="st13" d="M-106.9,65.3c-1-1.3-1.9-2.6-2.7-3.9l-6.4-9.8l-6.5-9.6c-1-1.3-1.8-2.6-2.6-4c0.3,0.3,0.6,0.6,0.9,1
					c0.5,0.6,1.3,1.6,2.2,2.8c1.8,2.4,4.2,5.8,6.7,9.5c2.5,3.8,4.7,7.3,6.2,9.8c0.8,1.3,1.4,2.3,1.8,3
					C-107.2,64.4-107.1,64.8-106.9,65.3z"/>
				<path class="st14" d="M-89.5,47.8c-0.1,0.5-6.3,12.6-6.3,12.6l-30.7-15.8l-3.3-12.5c-1.3-4.3-5.6-6.8-10-5.9l-8.9,3.3
					c-0.7,0.3-1.3,0.9-1.4,1.6c-0.1,0.6,0,1.3,1.2,1.2c2.2-0.1,6.8-0.5,6.8-0.5l-2,7.1c-0.5,1.9-0.3,3.9,0.7,5.6l1.4,2.5l3.1,4.6
					h-0.1c0,0,30.1,29.4,46.8,31.6c10,1.3,20.8-25.1,20.8-25.1L-89.5,47.8z"/>
				<path class="st15" d="M-142.4,32.3c0.2-0.2,0.5-0.4,0.7-0.6c0.7-0.4,1.5-0.7,2.3-0.6c0.9,0.1,1.7,0.6,2.1,1.3
					c0.3,0.6,0.1,1,0,0.9c-0.1,0,0-0.4-0.3-0.8c-0.4-0.6-1.1-0.9-1.8-1c-0.7,0-1.5,0.2-2.1,0.5C-141.9,32.2-142.3,32.3-142.4,32.3z"
					/>
				<path class="st15" d="M-138.4,36.8c0,0-0.2-0.2-0.5-0.6c-0.8-0.9-2-1.4-3.2-1.2c-0.5,0-0.7,0.1-0.8,0.1c0-0.1,0.2-0.2,0.7-0.4
					c1.3-0.3,2.8,0.2,3.5,1.4C-138.4,36.5-138.4,36.8-138.4,36.8z"/>
				<path class="st1" d="M-83.9,9.4l-7.5,37l22.1,12.9l8-22.7C-61.3,36.6-65.4,8.8-83.9,9.4z"/>
				<path class="st16" d="M-72.1,10.2c-0.2,0.1-0.4,0.2-0.6,0.3c-0.4,0.2-0.9,0.5-1.6,0.8c-1.4,0.7-3.5,1.6-6.2,2.7
					c-6.9,2.9-14.2,5-21.6,6.1c-7.6,1.1-15.3,0.8-22.7-1.1c-2.2-0.6-4.4-1.4-6.5-2.3c-0.6-0.2-1.2-0.5-1.7-0.8
					c-0.2-0.1-0.4-0.2-0.6-0.3c0.8,0.3,1.6,0.6,2.4,0.9c2.1,0.9,4.3,1.6,6.6,2.1c7.4,1.7,15,2,22.5,0.9c7.4-1.2,14.6-3.1,21.5-5.9
					c2.7-1,4.8-1.9,6.3-2.5C-73.6,10.8-72.9,10.5-72.1,10.2z"/>
				<path class="st16" d="M-66.3,14.4c-0.2,0.2-0.4,0.3-0.6,0.4l-1.8,1.1c-0.9,0.6-1.9,1.1-2.9,1.6c-1.2,0.6-2.5,1.3-4,1.9l-2.4,1
					c-0.8,0.3-1.7,0.6-2.6,1c-1.8,0.7-3.8,1.2-5.9,1.8c-9.3,2.5-18.9,3.4-28.4,2.7c-2.2-0.2-4.3-0.4-6.3-0.7c-1-0.2-1.9-0.3-2.8-0.4
					l-2.6-0.5c-1.6-0.3-3.1-0.7-4.4-1.1c-1.1-0.3-2.2-0.6-3.3-1l-2.1-0.7c-0.2-0.1-0.5-0.2-0.7-0.3c0.3,0,0.5,0.1,0.7,0.2l2.1,0.6
					c0.9,0.3,2,0.6,3.3,0.9c1.3,0.3,2.7,0.7,4.4,1l2.6,0.5c0.9,0.2,1.8,0.3,2.7,0.4c1.9,0.3,4.1,0.5,6.2,0.6
					c9.5,0.6,19-0.3,28.2-2.7c2.1-0.6,4.1-1.1,5.9-1.8c0.9-0.3,1.8-0.6,2.6-0.9l2.4-1c1.5-0.6,2.8-1.2,4.1-1.8c1-0.4,2-0.9,3-1.5
					l1.9-1C-66.7,14.6-66.5,14.5-66.3,14.4z"/>
				<g transform="translate(100.264 8.718)">
					<path class="st13" d="M-164.8,83.8c-0.4,0.2-0.9,0.4-1.4,0.5c-0.6,0.2-1.1,0.3-1.7,0.4c-0.8,0.2-1.5,0.3-2.3,0.4
						c-2,0.3-4,0.4-6.1,0.4c-2.5,0-5-0.3-7.5-0.7c-2.5-0.5-4.9-1.2-7.2-2.1c-1.9-0.7-3.7-1.6-5.5-2.6c-0.8-0.4-1.4-0.9-2-1.2
						c-0.5-0.3-1-0.7-1.5-1c-0.4-0.3-0.8-0.6-1.2-1c0.1-0.1,1.8,1.2,4.8,2.8c1.8,0.9,3.6,1.8,5.5,2.4c4.6,1.7,9.5,2.6,14.5,2.8
						c2,0,4-0.1,6-0.3C-166.9,84.3-164.9,83.7-164.8,83.8z"/>
					<path class="st13" d="M-169.6,50.5c-0.6-0.3-1.2-0.6-1.8-0.9l-4.9-2.7l-16.6-9.3l-0.2-0.1v-0.2c0.5-2.8,1.1-5.7,1.7-8.8
						c0.9-4.6,1.8-9,2.5-12.9c0.4-2,0.7-3.9,1.1-5.7c0.3-1.7,0.9-3.3,1.7-4.8c1.1-2.3,3.1-4,5.6-4.8c0.7-0.2,1.4-0.3,2.1-0.3
						c0.2,0,0.5,0,0.7,0.1c-0.9,0-1.8,0.2-2.7,0.4c-2.3,0.9-4.2,2.6-5.2,4.8c-0.7,1.5-1.2,3.1-1.5,4.7c-0.3,1.8-0.7,3.7-1.1,5.7
						c-0.8,4-1.6,8.4-2.5,13c-0.6,3.1-1.2,6-1.7,8.8l-0.2-0.3l16.5,9.5l4.8,2.8C-170.7,49.7-170.2,50.1-169.6,50.5z"/>
					<path class="st13" d="M-163.4,26.7c0.1,1.2,0.1,2.3-0.1,3.5c-0.2,2.8-0.7,5.5-1.4,8.2c-0.7,2.7-1.6,5.3-2.8,7.9
						c-0.4,1.1-1,2.1-1.7,3c0.3-1.1,0.7-2.2,1.2-3.2c2-5.1,3.4-10.5,4.1-15.9C-163.8,29-163.6,27.8-163.4,26.7z"/>
				</g>
				<path class="st1" d="M-177.8,240l0.1,19.8c0,0-21.2,6.1-21.5,9.7l40.5,2.5l1.1-30.9L-177.8,240z"/>
				<path class="st5" d="M-165,259c0.8,0.3,1.3,1.1,1.1,1.9c-0.3,0.8-1.1,1.2-1.9,1c-0.8-0.3-1.3-1.1-1.1-2c0.4-0.8,1.3-1.1,2.1-0.8
					"/>
				<path class="st5" d="M-158.7,272.1l-0.1-3.1l-38.8-1.3c0,0-1.8,0.6-1.7,1.9L-158.7,272.1z"/>
				<path class="st17" d="M-178.3,259.6c0,0.2,1,0.3,1.9,1c0.9,0.7,1.4,1.5,1.6,1.4c0.2-0.1,0-1.2-1.3-1.9S-178.4,259.5-178.3,259.6
					z"/>
				<path class="st17" d="M-182.6,261c0,0.2,0.8,0.6,1.4,1.4c0.6,0.8,0.8,1.7,1,1.7c0.2,0,0.3-1-0.5-2.1
					C-181.5,261-182.6,260.9-182.6,261z"/>
				<path class="st17" d="M-185.2,265.7c0.2,0,0.5-0.9,0-1.9c-0.5-1.1-1.4-1.5-1.5-1.3c-0.1,0.2,0.5,0.7,0.8,1.6
					C-185.5,264.9-185.4,265.7-185.2,265.7z"/>
				<path class="st17" d="M-177.8,255.1c0.1,0.2,1,0,2.1,0.1c1.1,0.1,2,0.5,2.1,0.4c0.1-0.2-0.7-0.9-2-1S-177.9,255-177.8,255.1z"/>
				<g transform="translate(23.262 243.968)" class="st18">
					<path d="M-201,0l0,3.5l19.9,1.1l0.1-3.2L-201,0z"/>
				</g>
				<path class="st17" d="M-177.8,251.1c0.7,0.2,1.3,0.3,2,0.1c0.7-0.1,1.4-0.2,2.1-0.5c0.4-0.1,0.8-0.3,1.2-0.5
					c0.2-0.1,0.4-0.2,0.6-0.4c0.3-0.3,0.3-0.7,0.1-1c-0.2-0.3-0.5-0.5-0.9-0.5c-0.3,0-0.5,0-0.8,0.1c-0.4,0.1-0.9,0.2-1.3,0.3
					c-0.7,0.3-1.3,0.6-1.9,1c-1,0.8-1.3,1.5-1.2,1.5c0.1,0,0.6-0.5,1.5-1.1c0.6-0.4,1.2-0.6,1.8-0.9c0.4-0.1,0.8-0.2,1.2-0.3
					c0.4-0.1,0.8-0.1,0.9,0.1c0.1,0.2,0,0.1,0,0.2c-0.1,0.1-0.3,0.2-0.5,0.3c-0.4,0.2-0.7,0.4-1.1,0.5c-0.6,0.3-1.3,0.5-2,0.6
					C-176.4,250.9-177.1,251-177.8,251.1z"/>
				<path class="st17" d="M-177.5,251.4c0.4-0.5,0.6-1.2,0.6-1.8c0.1-0.7,0-1.4-0.2-2.1c-0.1-0.4-0.3-0.8-0.5-1.2
					c-0.2-0.5-0.7-0.9-1.3-1.1c-0.4,0-0.7,0.2-0.9,0.5c-0.1,0.2-0.2,0.5-0.2,0.7c-0.1,0.4-0.1,0.9,0,1.3c0.1,0.7,0.4,1.4,0.8,2
					c0.8,1.1,1.6,1.3,1.6,1.3c-0.5-0.4-0.8-1-1.2-1.5c-0.3-0.6-0.5-1.2-0.6-1.8c0-0.4,0-0.8,0.1-1.1c0.1-0.4,0.2-0.7,0.4-0.7
					c0.3,0.1,0.5,0.4,0.7,0.7c0.2,0.3,0.3,0.7,0.5,1.1c0.2,0.6,0.3,1.3,0.3,1.9C-177.4,250.7-177.6,251.4-177.5,251.4z"/>
				<path class="st19" d="M-98.1,97.9c0,0-63.6-26.3-83.2-27.7c-12.3-0.9-21.4,6.4-19.5,18.5c1,6.1,19.7,77,19.7,77l26.4-11.1
					l-13.7-49.1l52.4,24.9L-98.1,97.9z"/>
				<path class="st19" d="M-48.5,113.9c0,0-7.8,9.6-15.3,12.1c-9.5,3.2-79.2,33.5-79.2,33.5s-11.1,90-10.1,86.2l-29.5-1.2l1.7-83
					c0.2-10.6,8.9-22.7,18.4-27.9l64.5-35.7L-48.5,113.9z"/>
				<g transform="translate(19.351 93)">
					<path class="st20" d="M-195.9,0c-0.2,0.2,1.9,2.8,4.2,6.2s3.8,6.4,4.1,6.3s-0.9-3.2-3.3-6.7S-195.7-0.1-195.9,0z"/>
					<path class="st20" d="M-201,2.7c-0.1,0.2,3.1,2.2,6.9,4.9s6.7,5,6.9,4.9s-2.6-2.9-6.4-5.6S-200.9,2.5-201,2.7z"/>
					<path class="st20" d="M-200.6,83.7c0.1-0.4,0.1-0.8,0.1-1.1c0-0.8,0.1-1.9,0.1-3.3c0.1-4,0.4-8,1-11.9
						c0.8-5.8,2.8-11.4,6.1-16.3c2-2.8,4.6-5.3,7.4-7.3c3.2-2.2,6.5-4.1,9.9-5.8c14-7.5,26.1-15.1,35.1-20.4
						c4.5-2.6,8.1-4.8,10.6-6.2l2.9-1.7c0.3-0.2,0.7-0.4,1-0.6c-0.4,0.1-0.7,0.3-1.1,0.5c-0.7,0.3-1.7,0.8-3,1.5
						c-2.6,1.3-6.3,3.4-10.8,6c-9,5.1-21.2,12.7-35.1,20.2c-3.5,1.7-6.8,3.7-10,5.9c-2.9,2-5.5,4.6-7.6,7.5c-3.3,5-5.3,10.8-6,16.7
						c-0.5,4-0.7,8-0.7,12c0,1.3,0,2.4,0.1,3.3C-200.7,83-200.7,83.4-200.6,83.7z"/>
					<path class="st20" d="M-93.7,29.9c-0.6-0.8-1.2-1.6-1.8-2.3c-2.8-3.7-3.9-8.5-3-13c0.3-0.9,0.5-1.8,0.7-2.8
						c-0.6,0.7-1.1,1.6-1.3,2.6c-0.7,2.3-0.7,4.8-0.2,7.1c0.6,2.4,1.7,4.6,3.3,6.5C-94.8,29.4-93.7,30-93.7,29.9z"/>
					<path class="st20" d="M-191.2,151.7c0-0.1,0.1-0.3,0.1-0.5c0-0.4,0.1-0.8,0.2-1.4c0.1-1.3,0.3-3,0.5-5.2
						c0.4-4.6,1-11.2,1.6-19.3c0.3-4.1,0.7-8.5,1.1-13.3c0.4-4.8,0.8-9.9,1.1-15.3c0.3-5.6,0.8-11.3,1.7-16.9
						c0.9-6,2.6-11.8,5.1-17.3c2.6-5.4,6.2-10.4,10.4-14.7c4-4.1,8.4-7.7,13.1-10.9c8.1-5.4,16.6-10.3,25.3-14.7
						c7.4-3.9,13.3-7.3,17.2-9.9c2-1.3,3.5-2.3,4.5-3l1.1-0.8c0.3-0.2,0.4-0.3,0.4-0.3c-0.1,0.1-0.3,0.1-0.4,0.2l-1.2,0.8
						c-1,0.7-2.6,1.7-4.5,2.9c-4,2.4-9.9,5.7-17.3,9.6c-8.8,4.4-17.3,9.2-25.5,14.6c-4.8,3.2-9.2,6.9-13.3,11
						c-4.3,4.4-7.9,9.4-10.6,14.9c-2.5,5.6-4.3,11.4-5.1,17.5c-0.9,5.8-1.3,11.5-1.7,16.9c-0.3,5.4-0.7,10.5-1.1,15.3
						c-0.4,4.8-0.7,9.3-1,13.3c-0.6,8.1-1.1,14.7-1.3,19.3c-0.1,2.2-0.2,4-0.3,5.2c0,0.6,0,1-0.1,1.4
						C-191.2,151.3-191.2,151.5-191.2,151.7z"/>
				</g>
				<path class="st14" d="M-131.4,61l-32.2-26.3l-10.4,2.1c0,0,11.4,22,19.6,30.1c0,0,8.1,10.2,21,6.1S-131.4,61-131.4,61z"/>
				<path class="st9" d="M-166.6,6.4l-13.5-0.2c-1,0-1.9,0.5-2.6,1.3c-0.6,0.8-0.8,1.8-0.5,2.7l14,25.4c0.6,1,1.6,1.6,2.8,1.6
					l16.4,0.3c0.8-0.1,1.4-0.5,1.8-1.2c0.3-0.7,0.3-1.5-0.1-2.1l-13.5-24.8C-162.7,7.6-164.5,6.5-166.6,6.4z"/>
				<path class="st8" d="M-167.4,7.9l-13.5-0.2c-0.8,0-1.5,0.3-1.9,1c-0.4,0.6-0.4,1.4-0.1,2.1l13.7,24.8c0.6,1,1.6,1.6,2.8,1.6
					l16.3,0.3c0.4,0,0.9-0.2,1.1-0.6c0.2-0.4,0.3-0.8,0.1-1.2l-13.5-24.8C-163.5,9-165.4,7.9-167.4,7.9z"/>
				<path class="st14" d="M-168.4,18.1l-8.1,3l-1.6,6.3l4.1,9.4l14.5,2.3l-4.3-4.2l0.5-3.6c0,0,4.1-1.1,4.1-1.7
					c0-0.6-0.6-2.6-1.2-2.7c-1.6,0.3-3.2,0.8-4.7,1.3c0,0,4.9-3.7,4.8-4.3c-0.1-0.6-0.7-2.2-1.7-2.4c-1-0.2-9,3.3-9,3.3l-1.3,2.8
					l-1.2-4.6C-173.8,23.1-166.6,21.3-168.4,18.1z"/>
				<path class="st15" d="M-167.1,32.9c-0.2-0.2-0.3-0.5-0.3-0.8c-0.2-1.3,0.3-2.7,1.3-3.6c0.4-0.3,0.7-0.4,0.7-0.4
					c-0.6,0.6-1.1,1.4-1.5,2.2C-167.1,31.2-167.1,32-167.1,32.9z"/>
				<path class="st15" d="M-171,31.5c0.1-0.7,0.2-1.4,0.3-2c0-0.8,0.1-1.5,0.4-2.3c0.3-1,1.1-1.7,2.1-2c1.9-0.6,3.7-1.2,5-1.5
					c0.7-0.2,1.4-0.4,2.1-0.5c-0.6,0.3-1.3,0.6-2,0.8c-1.3,0.4-3,1-4.9,1.6c-0.4,0.1-0.8,0.4-1.2,0.7c-0.3,0.3-0.5,0.7-0.7,1.1
					c-0.2,0.7-0.4,1.4-0.4,2.2C-170.4,30.2-170.6,30.9-171,31.5z"/>
				<path class="st15" d="M-172.9,30.1c-0.1-0.5-0.1-1,0-1.5c0.1-0.8,0.3-1.5,0.5-1.5c0.1,0.5,0.1,1,0,1.5
					C-172.6,29.4-172.8,30.1-172.9,30.1z"/>
				<path class="st4" d="M-173.5,12.5c0,0.9,0.8,1.7,1.8,1.7c0.9,0,1.6-0.6,1.7-1.5c0,0,0-0.1,0-0.1c0-0.9-0.8-1.7-1.8-1.7
					c-0.4,0-0.9,0.1-1.2,0.5C-173.3,11.7-173.5,12.1-173.5,12.5z"/>
			</g>
			<g transform="translate(38.213 26.157) rotate(-30)">
				<path class="st21" d="M-165.4-4.4c-0.8-1.9-3-3.1-5.1-3.5c-2.1-0.2-4.3-0.3-6.4-0.3c-3-0.1-5.9-1-8.4-2.5
					c-2.5-1.5-4.4-4-5.2-6.8"/>
				<path class="st21" d="M-160.4-4.7c-1.4-3.9-5.8-6.5-10.1-6.9c-2.1-0.2-4.2-0.1-6.3-0.3c-2.1-0.2-4.1-1.3-5.4-3"/>
				<path class="st14" d="M-185-27.9c0,0-7,11-8,14.9s-1.1,11-0.5,13.7s5.3,17.1,6.8,17.5l1.6,1.5l-0.2,6.2c0,0,7.5,10.2,25.1,1.3
					c0,0-0.8-12.4,1-16.4s5.7,0.4,7.7-11s-10.1-22.5-10.1-22.5L-185-27.9z"/>
				<path class="st22" d="M-180-11.1c-0.1,1.5-0.2,3-0.5,4.5c-0.1,0.7-0.3,1.4-0.7,2c-0.8,1-2.2,1.3-3.5,1.6c-0.2,0-0.4,0.1-0.6,0.3
					c-0.1,0.2-0.1,0.4-0.1,0.6c0.2,1.5,0.8,2.9,1.8,4"/>
				<path class="st8" d="M-170.4,1.3c0,0-5.6,5.1-12.1,3.7C-182.5,5-175.1,16.2-170.4,1.3z"/>
				<path class="st8" d="M-173.7-6.9c0,1.3,0.5,2.4,1.2,2.4c0.7,0.1,1.2-1,1.3-2.3s-0.5-2.4-1.2-2.4C-173.2-9.2-173.8-8.2-173.7-6.9
					z"/>
				<path class="st8" d="M-187.3-8.4c0,1.3,0.5,2.4,1.2,2.4c0.7,0,1.2-1,1.3-2.3c0-1.3-0.5-2.4-1.2-2.4
					C-186.8-10.7-187.3-9.7-187.3-8.4z"/>
				<path class="st22" d="M-173.5-12.4c0,0,3.3-2,6.3,1.7"/>
				<path class="st22" d="M-182.9-14.2c0,0-4.2-2.9-6,0.4"/>
				<path class="st3" d="M-159.1-3c-1.2-0.7-1.9-1.9-2-3.3c0-1.5,0.9-2.9,0.5-4.4c-0.3-0.7-0.6-1.4-1.1-2c-1.4-2.4-1.6-5.3-0.4-7.8
					c0,0-12.8,1.4-19.3-2s-12.2-12.6-9.1-17.4c3.1-4.8,11,1,16.3,1.4c5.3,0.4,24.4,2.2,28.3,9c3.8,6.8-0.4,9.7,0.2,16.4
					s2.2,19.4-8.3,18.9c0,0,3.3-5.1,0-9.9C-156-6.2-159.1-3-159.1-3z"/>
				<path class="st3" d="M-188-32.1c-3.2,2.9-5,7.1-4.8,11.4c0,5.1-8,15.4-0.7,20.6c0,0,0.8-6,1.4-9c0.6-3,1.1-8.4,2.4-10.3
					c1.3-2,8.6-8.9,8.6-8.9L-188-32.1z"/>
				<path class="st23" d="M-154.8-24.4c-1.2-2.2-4-3.5-6.5-3.7c-2.6-0.1-5.1,0-7.7,0.3c-3.6,0.2-7.1-0.6-10.3-2.1
					c-3.2-1.6-5.7-4.3-7-7.7"/>
				<path class="st23" d="M-148.8-25.2c-2.2-4.6-7.7-7.2-12.8-7.3c-2.5-0.1-5,0.4-7.6,0.3s-5.3-1-6.8-3"/>
				<path class="st24" d="M-185.1,20.2c6.6,1.5,13.4,1.3,19.8-0.6c0,0-6.1,7.9-19.6,3.7L-185.1,20.2z"/>
			</g>
		</g>
	</g>
</g>
</svg>
