<svg xmlns="http://www.w3.org/2000/svg" viewBox="0 0 84.203 68.079"><g transform="translate(13647 6499)"><g transform="translate(-13647 -6499)"><g transform="translate(0 0)"><path d="M34.094,289.081a7.228,7.228,0,0,1,4.1.954l14.857,8.572H24.942l3.423-5.939A7.234,7.234,0,0,1,34.094,289.081Z" transform="translate(-11.949 -289.064)" fill="#334048" fill-rule="evenodd"/><g transform="translate(0 10.903)"><path d="M52.627,304.1a6.323,6.323,0,0,1,6.3,6.279V343.9a6.32,6.32,0,0,1-6.3,6.275H6.559a6.32,6.32,0,0,1-6.3-6.275v-6.291H10.748a10.468,10.468,0,0,0,0-20.935H.264v-6.291a6.323,6.323,0,0,1,6.3-6.279Z" transform="translate(3.925 -304.103)" fill="none" stroke="#334048" stroke-miterlimit="10" stroke-width="2" fill-rule="evenodd"/><path d="M74.262,327.832a6.277,6.277,0,0,1,0,12.554H61.692a2.045,2.045,0,0,1-2.1-2.086v-8.378a2.049,2.049,0,0,1,2.1-2.09Z" transform="translate(-59.589 -311.073)" fill="#ff641e" fill-rule="evenodd"/><circle cx="2.825" cy="2.825" r="2.825" transform="translate(11.435 20.468)" fill="#fafafa"/></g></g><rect width="23" height="24" transform="translate(43.452 6.227)" fill="#fff"/><path d="M2.622,0A3.467,3.467,0,0,0,.1,1.074a.374.374,0,0,0,0,.525L2.358,3.847a.374.374,0,0,0,.529,0L5.135,1.6a.375.375,0,0,0,0-.525A3.469,3.469,0,0,0,2.622,0Z" transform="translate(61.438 14.981) rotate(-135)" fill="#fafafa" stroke="#656f75" stroke-linecap="round" stroke-linejoin="round" stroke-width="1.5"/><path d="M6.511,0A8.466,8.466,0,0,0,.091,2.941a.375.375,0,0,0,.019.509L2.147,5.488a.358.358,0,0,0,.287.109.377.377,0,0,0,.272-.142,4.865,4.865,0,0,1,7.611,0,.375.375,0,0,0,.272.142h.022a.374.374,0,0,0,.265-.11l2.037-2.037a.375.375,0,0,0,.019-.509A8.469,8.469,0,0,0,6.511,0Z" transform="translate(60.128 21.79) rotate(-135)" fill="#ff641e"/><path d="M21.237,4.649A14.339,14.339,0,0,0,.1,4.649a.375.375,0,0,0,.011.518L2.229,7.286A.4.4,0,0,0,2.5,7.4a.375.375,0,0,0,.269-.125,10.6,10.6,0,0,1,15.79,0,.375.375,0,0,0,.269.125h.01a.373.373,0,0,0,.265-.11l2.119-2.119A.375.375,0,0,0,21.237,4.649Z" transform="translate(58.915 28.882) rotate(-135)" fill="#334048"/></g><rect width="27" height="27" transform="translate(-13623.548 -6468.773)" fill="#fff"/><g transform="translate(-13628.139 -6480.421)"><g transform="translate(0 2.428)"><g transform="translate(0 0)"><path d="M52.627,304.1a6.323,6.323,0,0,1,6.3,6.279V343.9a6.32,6.32,0,0,1-6.3,6.275H6.559a6.32,6.32,0,0,1-6.3-6.275v-6.291H10.748a10.468,10.468,0,0,0,0-20.935H.264v-6.291a6.323,6.323,0,0,1,6.3-6.279Z" transform="translate(3.925 -304.103)" fill="#fafafa" stroke="#334048" stroke-miterlimit="10" stroke-width="2" fill-rule="evenodd"/><path d="M74.262,327.832a6.277,6.277,0,0,1,0,12.554H61.692a2.045,2.045,0,0,1-2.1-2.086v-8.378a2.049,2.049,0,0,1,2.1-2.09Z" transform="translate(-59.589 -311.073)" fill="#ff641e" fill-rule="evenodd"/><circle cx="2.825" cy="2.825" r="2.825" transform="translate(11.435 20.468)" fill="#fafafa" stroke="#656f75" stroke-linecap="round" stroke-linejoin="round" stroke-width="1.5"/></g></g><rect width="20" height="20" transform="translate(43.591 1.649)" fill="#fafafa"/><path d="M2.622,0A3.467,3.467,0,0,0,.1,1.074a.374.374,0,0,0,0,.525L2.358,3.847a.374.374,0,0,0,.529,0L5.135,1.6a.375.375,0,0,0,0-.525A3.469,3.469,0,0,0,2.622,0Z" transform="translate(61.438 6.506) rotate(-135)" fill="#fafafa" stroke="#656f75" stroke-linecap="round" stroke-linejoin="round" stroke-width="1.5"/><path d="M6.511,0A8.466,8.466,0,0,0,.091,2.941a.375.375,0,0,0,.019.509L2.147,5.488a.358.358,0,0,0,.287.109.377.377,0,0,0,.272-.142,4.865,4.865,0,0,1,7.611,0,.375.375,0,0,0,.272.142h.022a.374.374,0,0,0,.265-.11l2.037-2.037a.375.375,0,0,0,.019-.509A8.469,8.469,0,0,0,6.511,0Z" transform="translate(60.128 13.315) rotate(-135)" fill="#ff641e"/><path d="M21.237,4.649A14.339,14.339,0,0,0,.1,4.649a.375.375,0,0,0,.011.518L2.229,7.286A.4.4,0,0,0,2.5,7.4a.375.375,0,0,0,.269-.125,10.6,10.6,0,0,1,15.79,0,.375.375,0,0,0,.269.125h.01a.373.373,0,0,0,.265-.11l2.119-2.119A.375.375,0,0,0,21.237,4.649Z" transform="translate(58.915 20.407) rotate(-135)" fill="#334048"/></g></g></svg>