<svg xmlns="http://www.w3.org/2000/svg" width="117.889" height="91.498" viewBox="0 0 117.889 91.498"><g transform="translate(-483.826 -1246.527)"><path d="M38.829,289.089a10.968,10.968,0,0,1,6.216,1.447l22.543,13.007H24.942l5.194-9.012A10.977,10.977,0,0,1,38.829,289.089Z" transform="translate(478.599 957.463)" fill="#979797" fill-rule="evenodd"/><path d="M79.717,304.1a9.594,9.594,0,0,1,9.552,9.528v50.859a9.589,9.589,0,0,1-9.552,9.521H9.816a9.589,9.589,0,0,1-9.552-9.521v-9.546H16.172a15.883,15.883,0,0,0,0-31.766H.264v-9.546A9.594,9.594,0,0,1,9.816,304.1Z" transform="translate(489.918 958.968)" fill="#979797" stroke="#334048" stroke-miterlimit="10" stroke-width="2" fill-rule="evenodd"/><path d="M81.853,327.832a9.524,9.524,0,0,1,0,19.049H62.78a3.1,3.1,0,0,1-3.19-3.165V331a3.109,3.109,0,0,1,3.19-3.172Z" transform="translate(424.237 960.668)" fill="#ff641e" fill-rule="evenodd"/><ellipse cx="4.287" cy="4.287" rx="4.287" ry="4.287" transform="translate(501.177 1294.129)" fill="#fafafa" stroke="#d4d6d8" stroke-linecap="round" stroke-linejoin="round" stroke-width="1.5"/><path d="M38.4,289.088a10.627,10.627,0,0,1,6.023,1.4l21.843,12.6H24.942l5.033-8.732A10.636,10.636,0,0,1,38.4,289.088Z" transform="translate(502.476 964.195)" stroke="#dcdcdc" stroke-width="1" fill-rule="evenodd"/><path d="M77.249,304.1a9.3,9.3,0,0,1,9.256,9.232v49.279a9.291,9.291,0,0,1-9.256,9.226H9.519a9.291,9.291,0,0,1-9.256-9.226v-9.25H15.677a15.39,15.39,0,0,0,0-30.779H.264v-9.25A9.3,9.3,0,0,1,9.519,304.1Z" transform="translate(514.21 965.187)" stroke="#dcdcdc" stroke-miterlimit="10" stroke-width="2" fill-rule="evenodd"/><path d="M81.162,327.832a9.229,9.229,0,0,1,0,18.457H62.68a3.007,3.007,0,0,1-3.091-3.067V330.9a3.012,3.012,0,0,1,3.091-3.073Z" transform="translate(448.727 966.098)" fill="#ff641e" fill-rule="evenodd"/><ellipse cx="4.153" cy="4.153" rx="4.153" ry="4.153" transform="translate(525.127 1299.383)" stroke="#dcdcdc" stroke-linecap="round" stroke-linejoin="round" stroke-width="1.5"/></g></svg>