<?xml version="1.0" standalone="no"?>
<!DOCTYPE svg PUBLIC "-//W3C//DTD SVG 20010904//EN"
 "http://www.w3.org/TR/2001/REC-SVG-20010904/DTD/svg10.dtd">
<svg version="1.0" xmlns="http://www.w3.org/2000/svg"
 width="2004.000000pt" height="2004.000000pt" viewBox="0 0 2004.000000 2004.000000"
 preserveAspectRatio="xMidYMid meet">
<metadata>
Created by potrace 1.14, written by Peter Selinger 2001-2017
</metadata>
<g transform="translate(0.000000,2004.000000) scale(0.100000,-0.100000)"
fill="#000000" stroke="none">
<path d="M9470 20019 c-1629 -95 -3149 -563 -4539 -1396 -873 -524 -1685
-1206 -2364 -1985 -1298 -1492 -2120 -3341 -2352 -5293 -62 -524 -85 -1110
-67 -1697 13 -406 29 -629 67 -953 215 -1812 941 -3542 2084 -4970 1103 -1378
2521 -2420 4161 -3057 876 -341 1794 -549 2795 -633 255 -22 993 -31 1270 -16
682 37 1286 128 1930 291 1539 389 2942 1136 4155 2214 172 153 610 591 761
761 1350 1517 2191 3347 2444 5318 63 493 79 780 79 1417 0 637 -16 924 -79
1417 -362 2820 -1950 5367 -4330 6948 -1481 983 -3143 1534 -4935 1635 -202
11 -881 11 -1080 -1z m530 -2785 c273 -47 523 -156 739 -320 71 -54 794 -771
2812 -2791 1593 -1594 2737 -2746 2766 -2786 198 -271 295 -548 310 -882 18
-432 -149 -853 -462 -1160 -204 -201 -466 -341 -758 -406 -144 -32 -425 -37
-582 -11 -227 39 -451 132 -642 265 -70 48 -347 319 -1353 1322 -1358 1354
-1604 1587 -1952 1848 -575 431 -992 525 -1537 345 -346 -115 -749 -374 -1331
-857 -311 -258 -758 -675 -1079 -1007 -85 -87 -451 -454 -815 -814 -492 -487
-684 -671 -749 -717 -531 -374 -1232 -384 -1769 -24 -335 224 -561 564 -650
975 -19 85 -22 132 -22 306 0 174 3 221 22 306 45 207 124 395 242 574 57 86
311 343 2714 2748 1458 1459 2685 2682 2726 2716 251 211 563 344 900 386 105
12 357 4 470 -16z m-33 -5605 c43 -5 128 -23 189 -39 592 -156 1046 -649 1155
-1255 19 -104 23 -291 70 -3190 40 -2402 49 -3108 41 -3205 -25 -284 -138
-578 -309 -804 -424 -557 -1138 -775 -1788 -545 -560 197 -972 710 -1045 1298
-12 104 -103 5916 -97 6196 4 151 10 224 26 296 140 649 648 1134 1301 1244
94 16 353 18 457 4z"/>
</g>
</svg>
