<svg xmlns="http://www.w3.org/2000/svg" width="826.131" height="816.412" viewBox="0 0 826.131 816.412"><g transform="translate(-5138 9620.741)"><g transform="translate(5138 -9620.741)" fill="none"><path d="M97.192,0H728.939a97.192,97.192,0,0,1,97.192,97.192V719.22a97.192,97.192,0,0,1-97.192,97.192H97.192A97.192,97.192,0,0,1,0,719.22V97.192A97.192,97.192,0,0,1,97.192,0Z" stroke="none"/><path d="M 97.19189453125 4.99993896484375 C 90.93353271484375 4.99993896484375 84.6805419921875 5.63018798828125 78.60675048828125 6.873046875 C 72.68975830078125 8.0838623046875 66.8697509765625 9.8905029296875 61.3082275390625 12.24285888671875 C 55.8465576171875 14.5528564453125 50.57830810546875 17.41241455078125 45.64996337890625 20.741943359375 C 40.7672119140625 24.04071044921875 36.175537109375 27.82928466796875 32.00244140625 32.00238037109375 C 27.829345703125 36.175537109375 24.040771484375 40.76715087890625 20.74200439453125 45.64996337890625 C 17.41241455078125 50.57830810546875 14.5528564453125 55.84649658203125 12.24285888671875 61.30816650390625 C 9.89056396484375 66.8697509765625 8.0838623046875 72.68975830078125 6.87310791015625 78.60675048828125 C 5.63018798828125 84.68048095703125 5 90.93353271484375 5 97.19183349609375 L 5 719.2198486328125 C 5 725.4781494140625 5.63018798828125 731.731201171875 6.87310791015625 737.804931640625 C 8.0838623046875 743.721923828125 9.89056396484375 749.5419311523438 12.24285888671875 755.103515625 C 14.5528564453125 760.565185546875 17.41241455078125 765.8333129882812 20.74200439453125 770.7615966796875 C 24.040771484375 775.6444091796875 27.8292236328125 780.2362060546875 32.00244140625 784.4093017578125 C 36.175537109375 788.5823974609375 40.7672119140625 792.3709716796875 45.64996337890625 795.6697387695312 C 50.57830810546875 798.9991455078125 55.8465576171875 801.8587036132812 61.3082275390625 804.1688232421875 C 66.8697509765625 806.5210571289062 72.68975830078125 808.3277587890625 78.60662841796875 809.5385131835938 C 84.6805419921875 810.7813720703125 90.93353271484375 811.41162109375 97.19189453125 811.41162109375 L 728.93896484375 811.41162109375 C 735.1973266601562 811.41162109375 741.4503173828125 810.7813720703125 747.5242309570312 809.5385131835938 C 753.4411010742188 808.3277587890625 759.2611083984375 806.5210571289062 764.8226318359375 804.1688232421875 C 770.2843017578125 801.8587036132812 775.5525512695312 798.9991455078125 780.4808959960938 795.6697387695312 C 785.3636474609375 792.3709716796875 789.955322265625 788.5823974609375 794.12841796875 784.4093017578125 C 798.3016357421875 780.2362060546875 802.090087890625 775.6444091796875 805.3888549804688 770.7615966796875 C 808.7184448242188 765.8333129882812 811.5780029296875 760.565185546875 813.8880004882812 755.103515625 C 816.2402954101562 749.5419311523438 818.0469970703125 743.721923828125 819.2577514648438 737.804931640625 C 820.5006713867188 731.731201171875 821.130859375 725.4781494140625 821.130859375 719.2198486328125 L 821.130859375 97.19183349609375 C 821.130859375 90.93353271484375 820.5006713867188 84.68048095703125 819.2577514648438 78.60675048828125 C 818.0469970703125 72.68975830078125 816.2402954101562 66.8697509765625 813.8880004882812 61.30816650390625 C 811.5780029296875 55.84649658203125 808.7184448242188 50.57830810546875 805.3888549804688 45.64996337890625 C 802.090087890625 40.76715087890625 798.301513671875 36.175537109375 794.12841796875 32.00238037109375 C 789.955322265625 27.82928466796875 785.3636474609375 24.04071044921875 780.4808959960938 20.741943359375 C 775.5525512695312 17.41241455078125 770.2843017578125 14.5528564453125 764.8226318359375 12.24285888671875 C 759.2611083984375 9.8905029296875 753.4411010742188 8.0838623046875 747.5241088867188 6.873046875 C 741.4503173828125 5.63018798828125 735.1973266601562 4.99993896484375 728.93896484375 4.99993896484375 L 97.19189453125 4.99993896484375 M 97.19189453125 -6.103515625e-05 L 728.93896484375 -6.103515625e-05 C 782.6165161132812 -6.103515625e-05 826.130859375 43.5142822265625 826.130859375 97.19183349609375 L 826.130859375 719.2198486328125 C 826.130859375 772.8973999023438 782.6165161132812 816.41162109375 728.93896484375 816.41162109375 L 97.19189453125 816.41162109375 C 43.51434326171875 816.41162109375 0 772.8973999023438 0 719.2198486328125 L 0 97.19183349609375 C 0 43.5142822265625 43.51434326171875 -6.103515625e-05 97.19189453125 -6.103515625e-05 Z" stroke="none" fill="#707070"/></g><path d="M416.217,394.605h73.626a18.26,18.26,0,0,0,18.229-18.229V302.75c0-30.7,46.423-30.716,46.423,0v73.626a64.719,64.719,0,0,1-64.651,64.651H416.217C385.51,441.028,385.5,394.605,416.217,394.605ZM12.9,302.75c0-30.7,46.423-30.716,46.423,0v73.626a18.26,18.26,0,0,0,18.229,18.229h73.626c30.707,0,30.716,46.423,0,46.423H77.548A64.719,64.719,0,0,1,12.9,376.377Z" transform="translate(5261.17 -9385.342)" fill="#fafafa" opacity="0.1"/><path d="M416.217,326.139h73.626a18.26,18.26,0,0,1,18.229,18.228v73.624c0,30.7,46.423,30.715,46.423,0V344.367a64.718,64.718,0,0,0-64.651-64.65H416.217C385.509,279.718,385.5,326.139,416.217,326.139ZM12.9,417.992c0,30.7,46.423,30.715,46.423,0V344.367a18.26,18.26,0,0,1,18.229-18.228h73.626c30.707,0,30.716-46.422,0-46.422H77.548A64.718,64.718,0,0,0,12.9,344.367Z" transform="translate(5261.17 -9764.391)" fill="#fafafa" opacity="0.1"/><rect width="477.248" height="48.534" rx="23" transform="translate(5296.263 -9228.713)" fill="#ff641e" opacity="0.22"/></g></svg>