<svg xmlns="http://www.w3.org/2000/svg" width="117.536" height="70.036" viewBox="0 0 117.536 70.036"><g transform="translate(1 1)"><rect width="92" height="63" rx="10" fill="none" stroke="#334048" stroke-miterlimit="10" stroke-width="2"/><rect width="80.684" height="8.275" rx="3" transform="translate(5.5 14.892)" fill="#ff641e"/><g transform="translate(6.905 38.641)"><rect width="42.277" height="5.42" rx="2.71" transform="translate(0 9.756)" fill="#ff641e"/><rect width="21.681" height="5.42" rx="2.71" transform="translate(0.517 0)" fill="#fafafa" stroke="#656f75" stroke-linecap="round" stroke-linejoin="round" stroke-width="1.5"/></g><g transform="translate(14987.964 3089.464)"><path d="M28.536,5A23.536,23.536,0,1,0,52.072,28.536,23.536,23.536,0,0,0,28.536,5Z" transform="translate(-14924.5 -3073.5)" fill="#fff" stroke="#334048" stroke-width="2"/><path d="M45.213,23.807a3.3,3.3,0,0,1,3.156-2.434,1.994,1.994,0,0,1,2.091,2.463A3.3,3.3,0,0,1,47.3,26.27a1.994,1.994,0,0,1-2.091-2.463Zm5.278,22.5a17.844,17.844,0,0,1-5.3,4.271c-2.819,1.432-5.964.754-5.381-1.927l2.917-13.421c.555-2.554-1.735-2.309-4.326-.817a.26.26,0,0,1-.326-.4,17.844,17.844,0,0,1,5.3-4.271c2.819-1.432,5.964-.754,5.381,1.927L45.839,45.1c-.555,2.554,1.735,2.309,4.326.817a.26.26,0,0,1,.326.4Z" transform="translate(-14940.516 -3081.76)" fill="#334048"/></g></g></svg>