<svg xmlns="http://www.w3.org/2000/svg" width="119.591" height="70.174" viewBox="0 0 119.591 70.174"><g transform="translate(1 1)"><g transform="translate(6600.5 -2071)"><path d="M10,0H82A10,10,0,0,1,92,10V53A10,10,0,0,1,82,63H10A10,10,0,0,1,0,53V10A10,10,0,0,1,10,0Z" transform="translate(-6600.5 2071)" fill="none" stroke="#dcdcdc" stroke-miterlimit="10" stroke-width="2"/><rect width="80.684" height="8.275" rx="3" transform="translate(-6595 2085.892)" fill="#ff641e"/><g transform="translate(-6593.595 2109.641)"><rect width="42.277" height="5.42" rx="2.71" transform="translate(0 9.756)" fill="#ff641e"/><rect width="21.681" height="5.42" rx="2.71" transform="translate(0.517 0)" fill="#19191a" stroke="#c8c8c8" stroke-linecap="round" stroke-linejoin="round" stroke-width="1.5"/></g></g><g transform="translate(15439.474 3327.474)"><path d="M27.18,50.618A23.437,23.437,0,1,1,50.618,27.18,23.465,23.465,0,0,1,27.18,50.618Z" transform="translate(-15373 -3310.417)" stroke="#dcdcdc" stroke-linecap="round" stroke-linejoin="round" stroke-width="3"/><path d="M31.647,8.532a1.125,1.125,0,0,0-.454-.818A16.793,16.793,0,0,0,7.712,31.194a1.121,1.121,0,0,0,.818.454c.029,0,.058,0,.085,0a1.116,1.116,0,0,0,.792-.329C31.551,9.177,31.672,8.857,31.647,8.532Z" transform="translate(-15367.073 -3304.491)" fill="#19191a" stroke="#c8c8c8" stroke-width="2"/><path d="M30.579,7.625a1.124,1.124,0,0,0-.905.322L7.949,29.673A1.121,1.121,0,0,0,8.124,31.4,16.8,16.8,0,0,0,31.4,8.123,1.131,1.131,0,0,0,30.579,7.625Z" transform="translate(-15363.181 -3300.599)" fill="#19191a" stroke="#c8c8c8" stroke-width="2"/></g></g></svg>