<svg xmlns="http://www.w3.org/2000/svg" width="113.811" height="69.536" viewBox="0 0 113.811 69.536"><g transform="translate(1 1)"><g transform="translate(-0.336 -0.095)"><path d="M10,0H82A10,10,0,0,1,92,10V53A10,10,0,0,1,82,63H10A10,10,0,0,1,0,53V10A10,10,0,0,1,10,0Z" transform="translate(0.336 0.095)" fill="none" stroke="#dcdcdc" stroke-miterlimit="10" stroke-width="2"/><path d="M37.029,36.981H27.183c-6.244,0-6.244,9.51,0,9.51h9.846v9.846c0,6.244,9.462,6.244,9.462,0V46.491h9.846c6.244,0,6.244-9.51,0-9.51H46.491v-9.8c0-6.244-9.462-6.244-9.462,0Z" transform="translate(50.627 6.111)" fill="#19191a" stroke="#dcdcdc" stroke-width="3" fill-rule="evenodd"/><rect width="80.684" height="8.275" rx="3" transform="translate(5.836 14.987)" fill="#ff641e"/><g transform="translate(7.241 38.736)"><rect width="42.277" height="5.42" rx="2.71" transform="translate(0 9.756)" fill="#ff641e"/><rect width="21.681" height="5.42" rx="2.71" transform="translate(0.517 0)" fill="#19191a" stroke="#c8c8c8" stroke-linecap="round" stroke-linejoin="round" stroke-width="1.5"/></g></g></g></svg>