<svg id="Layer_1" data-name="Layer 1" xmlns="http://www.w3.org/2000/svg" viewBox="0 0 154.4 91.9"><path d="M131.7,17.2a3.69,3.69,0,0,0-3.7-3.7H33.8A3.63,3.63,0,0,0,30.2,17V36.9H131.5ZM55.5,20.3a.54.54,0,0,1,.5-.5h2.4a.54.54,0,0,1,.5.5v2.4a.54.54,0,0,1-.5.5H56a.54.54,0,0,1-.5-.5ZM66.9,31.5a.54.54,0,0,1-.5.5H47.7a.54.54,0,0,1-.5-.5v-12a.54.54,0,0,1,.5-.5h2.5a.54.54,0,0,1,.5.5v8.1a1,1,0,0,0,1,1h11a.89.89,0,0,0,.9-.9V19.5a.54.54,0,0,1,.5-.5h2.4a.54.54,0,0,1,.5.5v12Zm7.8.5H72.2a.47.47,0,0,1-.5-.5V19.6a.47.47,0,0,1,.5-.5h2.5a.54.54,0,0,1,.5.5v12A.66.66,0,0,1,74.7,32Zm27-.5a.54.54,0,0,1-.5.5H98.8a.54.54,0,0,1-.5-.5V29.1a.54.54,0,0,1,.5-.5h2.4a.54.54,0,0,1,.5.5Zm6,0a.54.54,0,0,1-.5.5h-2.4a.54.54,0,0,1-.5-.5V29.1a.54.54,0,0,1,.5-.5h2.4a.54.54,0,0,1,.5.5Zm.8-5.8a.47.47,0,0,1-.5.5H93.3c-1.5,0-1.8,0-1.9.6v4.8a.47.47,0,0,1-.5.5H80.3a.54.54,0,0,1-.5-.5V29a.47.47,0,0,1,.5-.5h6.6c.8,0,1-.3,1-.8V19.4a.47.47,0,0,1,.5-.5h2.5a.47.47,0,0,1,.5.5v1.7c0,1.5-.1,1.5,1.7,1.5H103c1.6,0,2,0,2.2-.7V19.3a.47.47,0,0,1,.5-.5h2.5a.54.54,0,0,1,.5.5v6.4Zm7.6,6.3h-2.5a.47.47,0,0,1-.5-.5V19.6a.47.47,0,0,1,.5-.5h2.5a.54.54,0,0,1,.5.5v12A.46.46,0,0,1,116.1,32Z" fill="#ff641e"/><path d="M134.1,16.2a7.27,7.27,0,0,0-2.2-3.9,5.45,5.45,0,0,0-1.7-1.1,8.08,8.08,0,0,0-3.4-.8H34.9a7.07,7.07,0,0,0-3.4.8,7.12,7.12,0,0,0-1.7,1.1,7.85,7.85,0,0,0-2.2,3.9,9.85,9.85,0,0,0-.2,1.7l-.1,23.9A15.16,15.16,0,0,1,30.9,40V18a4.31,4.31,0,0,1,.3-1.7.35.35,0,0,1,.1-.2c0-.1.1-.1.1-.2A4.19,4.19,0,0,1,35,14.2h91.5a4.06,4.06,0,0,1,3.6,1.7c0,.1.1.1.1.2a.35.35,0,0,0,.1.2,4.31,4.31,0,0,1,.3,1.7l-.1,22.5.1,32.5c0,2.7-1.8,4.1-4.4,4.1h-68a20,20,0,0,1-3.6,3.5h71.8a7.37,7.37,0,0,0,7.8-7.7v-55A4.73,4.73,0,0,0,134.1,16.2Z" fill="#c8c8c8"/><path d="M39.9,41.2A20.6,20.6,0,1,0,60.5,61.8,20.57,20.57,0,0,0,39.9,41.2ZM52.2,74a17.38,17.38,0,1,1,5.1-12.3A18.16,18.16,0,0,1,52.2,74Z" fill="#c8c8c8"/><path d="M48.3,54.8,36.1,67l-4.7-4.5A1.7,1.7,0,0,0,29,64.9l5.8,5.7a1.82,1.82,0,0,0,2.4,0L50.7,57.3a1.82,1.82,0,0,0,0-2.4,1.56,1.56,0,0,0-2.4-.1Z" fill="#ff641e"/><path d="M82.7,40.9,71.5,45.8,71,49.5l2.6,2.2a15.76,15.76,0,0,1,1.5,1.2c.5.5,1,.8,1.4,1.2a4.84,4.84,0,0,1,1,1.2c.2.5.5.8.5,1.1a1.09,1.09,0,0,1-.1.5c-.1.1-.1.3-.2.5a1.07,1.07,0,0,1-.5.3,9,9,0,0,0-.9.5h0a2.39,2.39,0,0,1-.9.2,4.64,4.64,0,0,1-1.4.2c-.5.1-1,.1-1.7.2s-1.2.1-1.8.1H69.3a12.31,12.31,0,0,1-2-.2c-.7-.1-1.4-.1-2-.2s-1.2-.2-1.8-.3c-.1,0-.2-.1-.3-.1.1,1.1.2,2.3.2,3.4v.7l1.7.3c1.2.2,2.6.2,4.2.3h1.4c1.2,0,2.4-.1,3.5-.2a21.85,21.85,0,0,0,3.4-1c.5-.2.8-.3,1-.6a2.41,2.41,0,0,0,.8-.6c.2-.3.3-.3.5-.5s.2-.2.2-.3h0a4.69,4.69,0,0,0,.9-1.7,5,5,0,0,0,.2-1.7,7.72,7.72,0,0,0-.2-1.5,4,4,0,0,0-.7-1.5,17,17,0,0,0-1-1.4,14.93,14.93,0,0,0-1.2-1.4,7.47,7.47,0,0,0-1.4-1.2A14.93,14.93,0,0,1,75.3,48L84,44.3Z" fill="#c8c8c8"/><path d="M108.1,62.9a5.86,5.86,0,0,0,3.9-3.1,5.93,5.93,0,0,0,.5-2.3,10,10,0,0,0-.2-1.6,7.67,7.67,0,0,0-.5-1.9c-.2-.7-.5-1.2-.7-1.8a8,8,0,0,0-.8-1.6l-3.5,1.7a4.07,4.07,0,0,0,.6,1.1c.2.5.5.9.7,1.5a9.38,9.38,0,0,1,.6,1.5,3,3,0,0,1,.2,1.2c0,.2-.1.5-.1.6s-.5.3-.7.5a23.12,23.12,0,0,1-5.7.5h0c-.2,0-.5,0-.6-.1a1.85,1.85,0,0,1-.7-.2,3.81,3.81,0,0,1-.5-.6,3.55,3.55,0,0,1-.2-1c0-.7-.1-1.5-.1-2.3s-.1-1.6-.2-2.4-.1-1.6-.2-2.4-.1-1.6-.2-2.3-.1-1.5-.2-2c-.1-.7-.1-1.1-.2-1.7a2.78,2.78,0,0,1-.3-1.3v-.5l-3.9.7a15.65,15.65,0,0,0,.5,2.7c.1,1,.3,2,.5,3.2s.3,2.3.5,3.5.2,2.5.3,3.7a1.93,1.93,0,0,1-.3,1,7.27,7.27,0,0,1-.8.9c-.2-.6-.3-1.2-.6-1.9s-.6-1.4-.8-2.2a14.72,14.72,0,0,0-1-2.2,22.56,22.56,0,0,0-1.1-2.2l-3.4-5.5-2.8,2.8a5.63,5.63,0,0,1,1,1.4c.3.5.8,1.1,1.2,1.7a9.63,9.63,0,0,1,1.2,2,16.65,16.65,0,0,1,1.2,2.3,11.18,11.18,0,0,1,1.1,2.5,26.72,26.72,0,0,1,.9,2.6,2.2,2.2,0,0,1-.8.1H90.2c-.3,0-.7-.1-1.1-.1l-1.1,4a8.87,8.87,0,0,0,1.5.2c.5,0,.9.1,1.2.1a17,17,0,0,0,2.2-.1,6.53,6.53,0,0,0,2-.5,9.82,9.82,0,0,0,1.8-.8,9.06,9.06,0,0,0,1.6-1.1,4.81,4.81,0,0,0,1.1.9c.5.2.8.3,1.2.5s.8.1,1.1.2A14.35,14.35,0,0,0,108.1,62.9Z" fill="#c8c8c8"/><polygon points="107.4 67.1 105.1 64.7 102.7 67.1 105.1 69.6 107.4 67.2 109.8 69.5 112.1 67.1 109.8 64.7 107.4 67.1" fill="#c8c8c8"/><polygon points="105.2 70.7 107.4 72.9 109.6 70.7 107.5 68.4 105.2 70.7" fill="#c8c8c8"/></svg>