<svg id="Layer_1" data-name="Layer 1" xmlns="http://www.w3.org/2000/svg" viewBox="0 0 85.87 74.69"><rect x="0.75" y="32.57" width="60.42" height="41.37" rx="6" fill="none" stroke="#c8c8c8" stroke-miterlimit="10" stroke-width="1.5"/><path d="M7.08,42.35h22.2c1.5,0,1.25,1.21,1.25,2.71h0c0,1.5.33,2.72-1.17,2.72H7.08a2.72,2.72,0,0,1-2.72-2.72h0A2.71,2.71,0,0,1,7.08,42.35Z" fill="#ff641e"/><path d="M7.07,64.35h24.2a1.78,1.78,0,0,1,1.78,1.78h0a1.78,1.78,0,0,1-1.78,1.78H7.07a1.78,1.78,0,0,1-1.78-1.78h0A1.78,1.78,0,0,1,7.07,64.35Z" fill="#ff641e"/><path d="M7.4,57.94H18.08a1.78,1.78,0,0,1,1.78,1.78h0a1.78,1.78,0,0,1-1.78,1.78H7.4a1.78,1.78,0,0,1-1.78-1.78h0A1.78,1.78,0,0,1,7.4,57.94Z" fill="none" stroke="#c8c8c8" stroke-linecap="round" stroke-linejoin="round" stroke-width="1.5"/><path d="M30.53,47.59V42.1A2.56,2.56,0,0,1,33,39.54l7,2.19A5.19,5.19,0,0,0,40,48l-7,2.19A2.57,2.57,0,0,1,30.53,47.59Z" fill="none" stroke="#c8c8c8" stroke-miterlimit="10" stroke-width="1.25"/><path d="M38.67,59.81,37.2,56.29l-3.65,1.13L37,50.11l3.87-1.23A5.11,5.11,0,0,0,43.25,50Z" fill="#ff641e"/><circle cx="44.16" cy="44.84" r="4.1" fill="#ff641e"/><path d="M51.13,56.29l-1.5,3.52L45,50a5.31,5.31,0,0,0,2.42-1.11l3.87,1.22,3.41,7.31Z" fill="#ff641e"/><path d="M69.37,0a9.23,9.23,0,0,1,3.56,4.34,16.58,16.58,0,0,1,1.44,6.94A12.55,12.55,0,0,1,73,16.47a21.83,21.83,0,0,1-5.91,7.82,13.59,13.59,0,0,1-5,2.62,1.59,1.59,0,0,1-.3.06h-.23a.63.63,0,0,1,.19-.4,52.09,52.09,0,0,0,5.59-11A62.53,62.53,0,0,0,70,5.22,8,8,0,0,0,69.37.3a.46.46,0,0,1-.08-.3Z" fill="#fbd109"/><path d="M40.66,24.15A8,8,0,0,1,43,23.09c1.43-.46,2.88-.88,4.34-1.22a5.3,5.3,0,0,0,2.83-1.73,6.51,6.51,0,0,1,4.06-2.27,6.89,6.89,0,0,1,4,.77,12.73,12.73,0,0,1,4.82,4.76c-.15.05-.18,0-.23-.1-.73-.77-1.43-1.59-2.21-2.31a7.49,7.49,0,0,0-6.72-2,3.33,3.33,0,0,0-2.21,1.44A1.12,1.12,0,0,0,51.8,22a1.44,1.44,0,0,0,.31.19,6.23,6.23,0,0,0,1.58.52,8.32,8.32,0,0,1,2.54,1.14,3.75,3.75,0,0,1,1.6,3.46,30.62,30.62,0,0,1-.61,3.55,6.89,6.89,0,0,0,.5,4.49,4.86,4.86,0,0,0,1.51,1.77,35.92,35.92,0,0,0,4.21,2.43,10.37,10.37,0,0,1,1.58,1A2.87,2.87,0,0,1,66,42c.52,1.89,1,3.81,1.34,5.72a2.42,2.42,0,0,0,1.56,1.76,32.34,32.34,0,0,0-.9-6.93.89.89,0,0,1,.27.48,32.2,32.2,0,0,1,1.38,5.8l.06.37c0,.29,0,.63.24.82a2.82,2.82,0,0,0,1.3.39c.22,0,.16-.16.15-.27,0-.63-.13-1.27-.18-1.89a17.22,17.22,0,0,0-.84-4.32c.14,0,.15.1.18.17a15,15,0,0,1,1.27,4.65c.07.43.15.88.23,1.31s.25.69.82.68c1.06,0,1,.17.85-.84q-.3-3-.89-6a49.09,49.09,0,0,0-2.48-8.12,9.25,9.25,0,0,0-1.3-2.18c.75.2,1.43.12,1.84.91a26.62,26.62,0,0,1,2,5.45,55.63,55.63,0,0,1,1.66,8.68c.1,1,.14,2,.22,3,0,.2-.06.24-.23.23a15.53,15.53,0,0,1-6.19-1.35,4,4,0,0,1-2.14-3.21c-.24-1.4-.32-2.69-.61-4,0-.15-.07-.3-.1-.42a2.87,2.87,0,0,0-1.77-2.12,34.45,34.45,0,0,1-4.61-2.25,7.76,7.76,0,0,1-3.9-6.47,23.67,23.67,0,0,0-.19-3.26,4.71,4.71,0,0,0-.92-2.14,7.92,7.92,0,0,0-4.24-3,6.23,6.23,0,0,0-1.36-.15,50.13,50.13,0,0,0-7.74.57Z" fill="#247bba"/><path d="M61.73,27.38c.6-.15,1.21-.25,1.8-.46a17.52,17.52,0,0,0,6-3.74,22.75,22.75,0,0,0,4.73-6,13.42,13.42,0,0,0,1.15-2.93.9.9,0,0,1,.46-.61c1.39-.85,2.79-1.65,4.17-2.5.85-.52,1.62-1.13,2.46-1.76a3.72,3.72,0,0,1-.16,1.15,24.5,24.5,0,0,1-5.57,11.17,17.17,17.17,0,0,1-8.47,5.14,16.19,16.19,0,0,1-4.48.66A10.66,10.66,0,0,1,61.73,27.38Z" fill="#49b648"/><path d="M85.87,20.63a19,19,0,0,1-8.59,7.69,17.83,17.83,0,0,1-15.36-.46,8.68,8.68,0,0,1,1.69.11,17.62,17.62,0,0,0,11.63-3.08,18.73,18.73,0,0,0,3.44-3.09,1.14,1.14,0,0,1,.82-.42c2-.19,4-.43,6-.78A.46.46,0,0,1,85.87,20.63Z" fill="#247bba"/><path d="M82.26,30.88a10,10,0,0,1-1.62.84,20.27,20.27,0,0,1-9.23,1.87,12.54,12.54,0,0,1-9.65-5.16.87.87,0,0,1-.08-.14c.24-.06.4.09.56.19a17.1,17.1,0,0,0,5.43,2.09,16.65,16.65,0,0,0,10.12-1,1,1,0,0,1,.84,0,14.46,14.46,0,0,0,3.28,1.18A1.4,1.4,0,0,1,82.26,30.88Z" fill="#db2229"/><path d="M57.79,47.59a2.57,2.57,0,0,1-2.49,2.57L48.35,48a5.21,5.21,0,0,0,0-6.25l6.95-2.18a2.56,2.56,0,0,1,2.49,2.56Z" fill="none" stroke="#c8c8c8" stroke-miterlimit="10" stroke-width="1.25"/></svg>