<svg xmlns="http://www.w3.org/2000/svg" xmlns:xlink="http://www.w3.org/1999/xlink" width="141.524" height="143.524" viewBox="0 0 141.524 143.524"><defs><clipPath id="a"><rect width="141.524" height="143.524" rx="9" transform="translate(0)" fill="#fff" stroke="#707070" stroke-width="1"/></clipPath></defs><g clip-path="url(#a)"><g transform="translate(-0.001 -0.001)"><rect width="141.524" height="43.73" transform="translate(0 99.794)" fill="#ffbe00"/><rect width="141.524" height="98.673" fill="#ffbe00"/><ellipse cx="68.516" cy="26.911" rx="68.516" ry="26.911" transform="translate(2.246 23.547)" fill="#005b9a"/><path d="M5705.954,4464.425h0a20.941,20.941,0,0,1-.522,4.188,17.5,17.5,0,0,1-1.205,4.025c-.522,1.095-1.043,1.642-1.508,1.642-.522,0-.988-.657-1.345-2q-.781-2.833-3.373-19.52l5.841-6.187c.357-.384.632-.575.74-.575s.193.164.274.52a48.937,48.937,0,0,1,1.042,8.925C5705.954,4456.485,5705.954,4459.47,5705.954,4464.425Z" transform="translate(-5584.64 -4412.374)" fill="#fefefe"/><path d="M5216.042,5574.138h0l-2.358-2.245a.388.388,0,0,0-.6,0l-2.029,2.081-2.167-2.081a.387.387,0,0,0-.6,0l-2.112,2.135c-.247.246-.247.438-.055.631l2.3,2.244a.308.308,0,0,0,.493,0l2.14-2.108,2.167,2.108a.309.309,0,0,0,.493,0l2.3-2.272C5216.206,5574.44,5216.206,5574.3,5216.042,5574.138Z" transform="translate(-5106.11 -5507.304)" fill="#fefefe"/><path d="M5256.626,4763.608h0a13.97,13.97,0,0,0-3.017-9.2c-.191-.274-.357-.411-.466-.411s-.247.163-.438.438l-3.594,5.229c-.191.274-.191.521,0,.685a27.435,27.435,0,0,1,3.1,3.23,1.365,1.365,0,0,1,.329.767c0,.411-.384.631-1.15.631H5247v8.787h1.535c3.183,0,5.375-.876,6.582-2.573C5256.133,4769.714,5256.626,4767.2,5256.626,4763.608Z" transform="translate(-5146.008 -4711.942)" fill="#fefefe"/><path d="M4657.8,5023.7h-1.071a2.392,2.392,0,0,1-1.425-.466v1.7a12.091,12.091,0,0,1-1.18,4.737,13.888,13.888,0,0,1-2.249,3.641,1.593,1.593,0,0,1-1.179.465h-9.1c-1.07,0-1.591-.438-1.591-1.314a1.1,1.1,0,0,1,.686-1.068,50.324,50.324,0,0,0,6.307-3.778c3.237-2.218,4.882-3.806,4.882-4.737,0-.766-1.454-2.518-4.36-5.229l3.1-6.378c.192-.384.438-.439.713-.138a28.744,28.744,0,0,0,2.551,2.465,5.08,5.08,0,0,0,3.208,1.287h.713Z" transform="translate(-4555.654 -4961.849)" fill="#fefefe"/><path d="M4370.953,4473.234h0a20.292,20.292,0,0,1-.522,4.134,15.949,15.949,0,0,1-1.206,4c-.522,1.095-1.042,1.643-1.508,1.643-.521,0-.96-.657-1.344-2q-.782-2.791-3.373-19.327l5.841-6.106c.357-.383.631-.575.741-.575s.192.164.273.52a45.77,45.77,0,0,1,1.042,8.816C4370.953,4465.375,4370.953,4468.333,4370.953,4473.234Z" transform="translate(-4286.25 -4421.128)" fill="#fefefe"/><path d="M3964.538,4508.737h0a.332.332,0,0,1,0,.547l-2.605,2.575a.361.361,0,0,1-.576,0l-2.632-2.547c-.22-.191-.193-.438.055-.683l2.44-2.464q.288-.33.658,0Z" transform="translate(-3892.917 -4470.731)" fill="#fefefe"/><path d="M3933.625,4759.5h0c0,3.531-.494,6.022-1.508,7.473q-1.81,2.546-6.582,2.546H3924v-8.678h4.388c.768,0,1.151-.192,1.151-.631a1.239,1.239,0,0,0-.33-.739,27.572,27.572,0,0,0-3.1-3.2c-.191-.165-.191-.411,0-.685l3.593-5.146c.192-.3.33-.438.439-.438s.274.137.467.383A13.8,13.8,0,0,1,3933.625,4759.5Z" transform="translate(-3859.291 -4708.052)" fill="#fefefe"/><path d="M3122.859,4999.058h0v-8.623h-1.481a1.76,1.76,0,0,1-1.728-1.123c-.3-1.122-.466-1.807-.548-2.081-.219-.74-.6-1.095-1.207-1.095a1.224,1.224,0,0,0-1.289,1.067c-.191.738-.356,1.451-.466,2.108a1.631,1.631,0,0,1-3.1,0c-.219-1.013-.356-1.725-.466-2.108-.165-.767-.576-1.122-1.207-1.122-.659,0-1.07.355-1.289,1.122-.274,1.041-.439,1.752-.521,2.135a1.593,1.593,0,0,1-1.563,1.15,1.735,1.735,0,0,1-1.782-1.177c-.274-1.15-.466-1.861-.549-2.163-.192-.767-.631-1.15-1.262-1.15-.576,0-1.015.411-1.343,1.287-.193.685-.357,1.369-.576,2.026a2.038,2.038,0,0,1-2.029,1.177H3099v8.623h1.508c1.344,0,2.6-.876,3.757-2.628.851,1.7,2,2.573,3.456,2.573.987,0,2.057-.875,3.236-2.573a4.7,4.7,0,0,0,1.371,1.752,3.042,3.042,0,0,0,1.975.821c1.015,0,2.167-.849,3.4-2.49,1.152,1.642,2.386,2.49,3.648,2.49Z" transform="translate(-3056.916 -4937.59)" fill="#fefefe"/><path d="M2282.023,4438.083h-1.261a3.532,3.532,0,0,1-2.578-1.342,11.907,11.907,0,0,1-1.563,6.105q-2.469,4.353-8.228,4.354a11.889,11.889,0,0,1-7.294-2,7.719,7.719,0,0,1-3.1-6.681,19.053,19.053,0,0,1,.877-5.2c.658-2.354,1.454-3.532,2.3-3.532.795,0,1.179.711,1.179,2.081a7.53,7.53,0,0,1-.138,1.369,11.354,11.354,0,0,0-.137,1.37c0,2.737,2.359,4.1,7.1,4.1,3.592,0,5.375-1.259,5.375-3.805v-.547l-1.508-20.725a.553.553,0,0,1,.219-.52l5.841-3.722c.192-.138.3-.192.329-.138a1.157,1.157,0,0,1,.055.439v17.686c0,1.368.63,2.025,1.865,2.025h.658Z" transform="translate(-2238.979 -4376.614)" fill="#fefefe"/><path d="M4803.439,7201.337l6.034-26.254-7.3-.083-4.059,17.274h-.082l-9.846-17.11-6.637-.054-6.554,26.2,6.718.055,3.209-13.359c.137-.548.246-1.123.356-1.7.083-.574.137-1.013.191-1.478h.138a2.56,2.56,0,0,0,.192.438c.083.191.165.385.246.575.111.219.221.411.3.6a5.461,5.461,0,0,0,.274.547l8.037,14.346Z" transform="translate(-4686.953 -7066.662)" fill="#004eaf"/><path d="M3939.2,7190.968h-8.227l-3.73,16.126h-6.609l3.7-16.126H3916l1.4-5.968h23.2Z" transform="translate(-3851.51 -7076.388)" fill="#004eaf"/><path d="M2254.036,7203.255h-7.9l3.428-15.878h-.165c-.192.383-.411.794-.631,1.177s-.439.766-.657,1.095c-.22.356-.439.657-.6.931a6.547,6.547,0,0,1-.494.685l-7.24,11.991h-7.651l-.439-12.019c-.028-1.341-.22-2.738-.3-4.052h-.192l-5.156,16.18H2218l8.337-26.255h9.571l1.865,17.987c.22,0,.494-.712.6-.9.192-.356.356-.684.548-1.039.22-.33.412-.686.631-1.014a7.578,7.578,0,0,1,.631-.849l8.556-14.182L2260.4,7177Z" transform="translate(-2200.076 -7068.607)" fill="#004eaf"/><path d="M4058.3,8032l-.687,2.9H4051l.659-2.9Z" transform="translate(-3982.807 -7900.2)" fill="#e62e21"/><path d="M4081.884,7992l-.248,1.094H4075l.246-1.094Z" transform="translate(-4006.15 -7861.295)" fill="#ffbe00"/></g></g></svg>