<svg xmlns="http://www.w3.org/2000/svg" width="116.487" height="80.586" viewBox="0 0 116.487 80.586"><g transform="translate(1 1)"><rect width="69" height="48" rx="10" transform="translate(30.999 29)" fill="#19191a" stroke="#c8c8c8" stroke-miterlimit="10" stroke-width="2"/><path d="M37.182,75.1A1.025,1.025,0,0,1,36.1,76.188H27.421A1.025,1.025,0,0,1,26.336,75.1V70.765a1.025,1.025,0,0,1,1.085-1.085H36.1a1.025,1.025,0,0,1,1.085,1.085Zm15.184,0a1.025,1.025,0,0,1-1.085,1.085H42.605A1.025,1.025,0,0,1,41.52,75.1V70.765a1.025,1.025,0,0,1,1.085-1.085h8.677a1.025,1.025,0,0,1,1.085,1.085Zm15.184,0a1.025,1.025,0,0,1-1.085,1.085H57.79A1.025,1.025,0,0,1,56.7,75.1V70.765A1.025,1.025,0,0,1,57.79,69.68h8.677a1.025,1.025,0,0,1,1.085,1.085Z" transform="translate(12.101 -8.391)" fill="#ff641e"/><rect width="60.892" height="4.684" rx="2" transform="translate(36.138 43.924)" fill="#19191a" stroke="#c8c8c8" stroke-linecap="round" stroke-linejoin="round" stroke-width="1.5"/><path d="M13.85,42.669h0c8.99,0,18.24.918,14.734-13.149,0,0-1.015-5.622-7.709-9.044A14.9,14.9,0,0,0,14.15,18.85" transform="translate(85.413 36.158)" fill="#19191a" stroke="#c8c8c8" stroke-linecap="round" stroke-linejoin="round" stroke-width="1.5"/><path d="M29.345,42.67c-8.952,0-18.247.947-14.734-13.15,0,0,1.015-5.623,7.709-9.044a14.9,14.9,0,0,1,6.725-1.626" transform="translate(71.021 36.158)" fill="#19191a" stroke="#c8c8c8" stroke-linecap="round" stroke-linejoin="round" stroke-width="1.5"/><path d="M8.489,20.459A8.452,8.452,0,0,1,0,12.188,8.118,8.118,0,0,1,.3,10V7.749s-.76-2.927,2.38-5.51A9.6,9.6,0,0,1,8,.024V.017A4.463,4.463,0,0,1,8.5,0a4.462,4.462,0,0,1,.5.017V.024a9.6,9.6,0,0,1,5.319,2.215c3.141,2.583,2.381,5.51,2.381,5.51V10a8.142,8.142,0,0,1,.3,2.19A8.456,8.456,0,0,1,8.66,20.461Z" transform="translate(90.792 37.295)" fill="#19191a" stroke="#c8c8c8" stroke-linecap="round" stroke-linejoin="round" stroke-width="1.5"/><g transform="translate(98.195 60.383)"><circle cx="2.073" cy="2.073" r="2.073" fill="#19191a"/><circle cx="2.073" cy="2.073" r="2.073" transform="translate(0 6.514)" fill="#19191a"/><circle cx="2.073" cy="2.073" r="2.073" transform="translate(0 13.03)" fill="#19191a"/></g><g transform="translate(-0.417)"><circle cx="25.5" cy="25.5" r="25.5" transform="translate(0.417)" fill="#19191a" stroke="#c8c8c8" stroke-miterlimit="10" stroke-width="2"/><path d="M.946,41.1a14.808,14.808,0,0,0,3.182,9.148L15.716,64.815,27.3,50.252A14.767,14.767,0,1,0,.946,41.1Zm9.262,0A5.506,5.506,0,1,1,15.714,46.6,5.51,5.51,0,0,1,10.208,41.1Z" transform="translate(10.166 -19.283)" fill="#c8c8c8"/></g></g></svg>