<svg xmlns="http://www.w3.org/2000/svg" viewBox="0 0 116.487 80.587">
  <g id="Destination_Card_Vector" transform="translate(0.583 1)">
    <g id="Group_2901" data-name="Group 2901" transform="translate(31.417 29.25)">
      <rect id="Rectangle_2211" data-name="Rectangle 2211" width="69" height="48" rx="10" transform="translate(0 -0.25)" fill="#fff" stroke="#334048" stroke-miterlimit="10" stroke-width="2"/>
      <path id="Path_1322" data-name="Path 1322" d="M37.182,75.1A1.025,1.025,0,0,1,36.1,76.188H27.421A1.025,1.025,0,0,1,26.336,75.1V70.765a1.025,1.025,0,0,1,1.085-1.085H36.1a1.025,1.025,0,0,1,1.085,1.085Zm15.184,0a1.025,1.025,0,0,1-1.085,1.085H42.605A1.025,1.025,0,0,1,41.52,75.1V70.765a1.025,1.025,0,0,1,1.085-1.085h8.677a1.025,1.025,0,0,1,1.085,1.085Zm15.184,0a1.025,1.025,0,0,1-1.085,1.085H57.79A1.025,1.025,0,0,1,56.7,75.1V70.765A1.025,1.025,0,0,1,57.79,69.68h8.677a1.025,1.025,0,0,1,1.085,1.085Z" transform="translate(-18.899 -37.64)" fill="#ff641e"/>
      <rect id="Rectangle_2870" data-name="Rectangle 2870" width="60.892" height="4.684" rx="2" transform="translate(5.139 14.673)" fill="#fff" stroke="#656f75" stroke-linecap="round" stroke-linejoin="round" stroke-width="1.5"/>
      <g id="Group_2895" data-name="Group 2895" transform="translate(53.872 8.046)">
        <path id="Path_3094" data-name="Path 3094" d="M13.85,42.669h0c8.99,0,18.24.918,14.734-13.149,0,0-1.015-5.622-7.709-9.044A14.9,14.9,0,0,0,14.15,18.85" transform="translate(0.542 -1.136)" fill="#fafafa" stroke="#334048" stroke-linecap="round" stroke-linejoin="round" stroke-width="1.5"/>
        <path id="Path_3095" data-name="Path 3095" d="M29.345,42.67c-8.952,0-18.247.947-14.734-13.15,0,0,1.015-5.623,7.709-9.044a14.9,14.9,0,0,1,6.725-1.626" transform="translate(-13.85 -1.136)" fill="#fafafa" stroke="#334048" stroke-linecap="round" stroke-linejoin="round" stroke-width="1.5"/>
        <path id="Union_2" data-name="Union 2" d="M8.489,20.459A8.452,8.452,0,0,1,0,12.188,8.118,8.118,0,0,1,.3,10V7.749s-.76-2.927,2.38-5.51A9.6,9.6,0,0,1,8,.024V.017A4.463,4.463,0,0,1,8.5,0a4.462,4.462,0,0,1,.5.017V.024a9.6,9.6,0,0,1,5.319,2.215c3.141,2.583,2.381,5.51,2.381,5.51V10a8.142,8.142,0,0,1,.3,2.19A8.456,8.456,0,0,1,8.66,20.461Z" transform="translate(5.921 0)" fill="#fafafa" stroke="#334048" stroke-linecap="round" stroke-linejoin="round" stroke-width="1.5"/>
        <g id="Group_2894" data-name="Group 2894" transform="translate(13.325 23.088)">
          <circle id="Ellipse_476" data-name="Ellipse 476" cx="2.073" cy="2.073" r="2.073" fill="#fafafa"/>
          <circle id="Ellipse_477" data-name="Ellipse 477" cx="2.073" cy="2.073" r="2.073" transform="translate(0 6.514)" fill="#fafafa"/>
          <circle id="Ellipse_478" data-name="Ellipse 478" cx="2.073" cy="2.073" r="2.073" transform="translate(0 13.03)" fill="#fafafa"/>
        </g>
      </g>
    </g>
    <g id="Group_2900" data-name="Group 2900" transform="translate(0 0)">
      <circle id="Ellipse_479" data-name="Ellipse 479" cx="25.5" cy="25.5" r="25.5" transform="translate(0.417)" fill="#fff" stroke="#334048" stroke-miterlimit="10" stroke-width="2"/>
      <path id="Path_3103" data-name="Path 3103" d="M.946,41.1a14.808,14.808,0,0,0,3.182,9.148L15.716,64.815,27.3,50.252A14.767,14.767,0,1,0,.946,41.1Zm9.262,0A5.506,5.506,0,1,1,15.714,46.6,5.51,5.51,0,0,1,10.208,41.1Z" transform="translate(10.166 -19.283)" fill="#334048"/>
    </g>
  </g>
</svg>
