<svg xmlns="http://www.w3.org/2000/svg" width="107.633" height="67.315" viewBox="0 0 107.633 67.315"><g transform="translate(1 1)"><g transform="translate(6600.5 -2071)"><path d="M10,0H82A10,10,0,0,1,92,10V53A10,10,0,0,1,82,63H10A10,10,0,0,1,0,53V10A10,10,0,0,1,10,0Z" transform="translate(-6600.5 2071)" fill="none" stroke="#dcdcdc" stroke-miterlimit="10" stroke-width="2"/><rect width="80.684" height="8.275" rx="3" transform="translate(-6595 2085.892)" fill="#ff641e"/><g transform="translate(-6593.595 2109.641)"><rect width="42.277" height="5.42" rx="2.71" transform="translate(0 9.756)" fill="#ff641e"/><rect width="21.681" height="5.42" rx="2.71" transform="translate(0.517 0)" fill="#19191a" stroke="#c8c8c8" stroke-linecap="round" stroke-linejoin="round" stroke-width="1.5"/></g></g><g transform="translate(78.183 10)"><path d="M117.227,58.595l-19.673-.087a4.225,4.225,0,0,1-4.264-4.183l.207-47.9A4.227,4.227,0,0,1,97.8,2.28h0l19.673.09a4.222,4.222,0,0,1,4.266,4.18h0l-.21,47.9A4.225,4.225,0,0,1,117.227,58.595Z" transform="translate(-93.29 -2.28)" fill="#c8c8c8"/><path d="M121.437,9.217,117.612,9.2a.935.935,0,0,0-.933.935h0V10.8a.9.9,0,0,1-.261.657.96.96,0,0,1-.665.284h0l-7.454-.034a.937.937,0,0,1-.926-.945V10.1a.937.937,0,0,0-.926-.945H105.1l-3.348-.017a3.054,3.054,0,0,0-2.136.845,2.863,2.863,0,0,0-.887,2.063L98.52,58.783a2.862,2.862,0,0,0,.874,2.066,3.053,3.053,0,0,0,2.129.857h0l19.69.09a3.054,3.054,0,0,0,2.138-.844,2.863,2.863,0,0,0,.887-2.064h0l.2-46.755a2.862,2.862,0,0,0-.877-2.061A3.053,3.053,0,0,0,121.437,9.217Z" transform="translate(-97.252 -7.477)" fill="#19191a"/></g><path d="M222.8,97.88l.691,7.9,7.428-2.766,1.778,3.951L225.09,109.5l5.453,6.7-3.3,2.568-5.314-6.954-3.951,6.954-3.734-2.509,4.208-6.7-7.9-2.529,1.087-3.951,7.9,2.667-.691-7.9Z" transform="translate(-129.05 -69.34)" stroke="#dcdcdc" stroke-linecap="round" stroke-linejoin="round" stroke-width="1.5"/></g></svg>