<svg id="Layer_1" data-name="Layer 1" xmlns="http://www.w3.org/2000/svg" viewBox="0 0 602 695"><path d="M170.83,334.19v-23c.56-1.18,0-2.5.49-3.69.1-1.26.23-2.51.37-4.1,4.82,1.66,8.7,4.62,12.45,7.64a146.46,146.46,0,0,1,37,44.21c1.58,2.91,3.4,5.72,4.68,8.76,1,2.24,2.49,2.31,4.34,2.13,2.34-.22,1.3-2.12,1.4-3.22A116.57,116.57,0,0,1,255.09,301c1.36-1.8,2.53-3.75,4-5.45,2.9-3.37,3.47-3.25,5.65.57,4.94,8.66,8.24,18,11,27.52,5.41,18.91,8.78,38.2,11.17,57.7,1,8.29,1.72,16.62,2.78,24.9.5,1.17-.12,2.48.5,3.63l.18,4.66c.51,1.18-.08,2.51.5,3.68-.3,5.71.61,11.36.91,17,.44,1.19-.09,2.5.47,3.68l.21,7.36c.46,1.2-.08,2.52.46,3.71V690.92c0,4.53,0,4.53-4.51,4.53q-142.35,0-284.73.09c-3.39,0-4.08-.88-4.08-4.15q.12-246.6,0-493.19c0-22.59,7.62-42.37,20.91-60.32A76.61,76.61,0,0,1,44.4,116.81a4.18,4.18,0,0,1,1.88-1.27,67.8,67.8,0,0,1,9.82-4.27,2,2,0,0,1,2.72.8,1.21,1.21,0,0,1,.09.2q6.47,10.49,13,20.88c1.35,2.14-.72,2-1.58,2.34A61.11,61.11,0,0,0,43.83,153c-8,8.9-12.38,19.51-14.61,31.12a33.75,33.75,0,0,0-.78,9.87c-.6,1.42,0,3-.49,4.41-.06,2.92-.13,5.83-.19,8.74-.62,1.41,0,3-.49,4.38-.07,4.36-.22,8.73-.22,13.09V413q0,53.29.1,106.58c0,1.15.1,2.29.15,3.44a14.42,14.42,0,0,1,.17,3.77v95.54c0,1.24-.26,2.53.28,3.74-.25,13.74-.44,27.48.09,41.21,1,.62,2,.35,3,.35h104a6.77,6.77,0,0,0,3.06-.27c6.2.06,12.41.16,18.61.17h57.24c1.25,0,2.51-.12,3.77-.18,1.33.55,2.72.27,4.08.27h39.9c1.23,0,2.52.36,3.7-.34.06-1.26.17-2.52.17-3.78V482.06c0-5.88-.21-6.18-5.84-7.53a103.67,103.67,0,0,1-40.55-19.16c-11.1-8.73-19.66-19.68-26.52-32a146.57,146.57,0,0,1-12.55-29.69A181.7,181.7,0,0,1,173.6,364c-1-8.47-1.88-16.94-2.27-25.46C170.78,337.14,171.47,335.59,170.83,334.19Z" fill="#b17d57"/><path d="M430.28,311.22v29.86c-.63,1.41,0,3-.5,4.37-1.66,19.12-4.28,38-11,56.19a132.54,132.54,0,0,1-22.14,38,98.9,98.9,0,0,1-18.07,17.63c-11.75,8.55-24.79,14.88-39.22,17.87a30.4,30.4,0,0,0-2.94.89c-.77,4.05-.21,8.14-.34,12.21-.18,5.56.26,11.14-.23,16.69,0,13.2-.11,26.4-.11,39.59q0,33.75.11,67.48a11.94,11.94,0,0,1,.21,3.77c0,16.21.07,32.42-.06,48.63,0,2.64.78,3.23,3.31,3.22q115.88-.09,231.76-.06c.9,0,1.85.24,2.68-.35.06-2.87.17-5.73.18-8.59q.06-38.4.08-76.81c.53-1.21.27-2.49.27-3.74V225.5c0-1.24.29-2.53-.3-3.73l-.19-8.9c-.57-3,.26-6.13-.48-9.15.56-16.83-2.89-32.73-12.72-46.54-7-9.81-16.73-16.56-28.32-20.38-3.65-1.2-4-2-2-5.34,3.61-6,7.37-11.94,10.86-18,1.43-2.5,2.94-2.8,5.46-1.74a82,82,0,0,1,39.87,34.75,106.92,106.92,0,0,1,15,55.88q-.12,102.84,0,205.69,0,89.22.1,178.44c0,1.15.08,2.3.13,3.44a9.66,9.66,0,0,1,.19,3.08v99.25c0,1.07.51,2.3-.53,3.23H312.91c-5.25,0-4.5.6-4.5-4.63V572.5q0-56.07-.15-112.14v-6.87c.6-1.4,0-2.93.45-4.35l.24-9.47c.63-1.4,0-2.94.47-4.34.08-2.69.16-5.37.22-8.06.56-1.17,0-2.49.47-3.68.52-7.92.68-15.89,1.66-23.75l2.16-17.18c.86-6.8,1.51-13.66,2.74-20.37,1.61-8.81,3.19-17.63,5.25-26.36A172.07,172.07,0,0,1,336,296.81c.36-.71.83-1.37,1.17-2.09.85-1.81,1.55-2.13,3.12-.38,14,15.54,22.58,33.78,27.28,54a96.4,96.4,0,0,1,2.28,14.52c.44,1-.3,2.22.5,3.18,2.25.52,4,.47,5.22-2.15a144.85,144.85,0,0,1,23.18-34.71A189.76,189.76,0,0,1,424.47,305c3.89-3,4.86-2.41,5.33,2.55C430.26,308.73,429.73,310,430.28,311.22Z" fill="#b17d57"/><path d="M402,174.25l1.44-1.61a4,4,0,0,1,2-2.53l1.76-2c1.29-3.67,4.41-6,6.75-8.86,3-3.68,5.77-7.64,9.66-10.53l2-2c.51-1.33,1.13-2.55,2.83-2.59,4.28-4.23,8.63-8.39,12.82-12.7,5-5.11,10.66-9.37,16-14.08,7.29-6.51,15.43-11.83,23.25-17.59,1.85-1.36,3.91-2.41,5.88-3.61a4.36,4.36,0,0,1,2.84-1.77,212.27,212.27,0,0,1,88.11-30.17c-1.6,3.24-4.46,4.2-6.63,5.79a212.47,212.47,0,0,0-29.21,26,265.27,265.27,0,0,0-24,30.1,10.57,10.57,0,0,0-.85,1.84c-.5.67-.28,1.85-1.46,2C503.22,147.6,494,166.6,486.31,186.34a312.22,312.22,0,0,0-15.09,51.89c-2,9.64-3,19.47-4.32,29.22-3.43,24.66-7.24,49.24-16.73,72.48-1.57,3.85-3.23,7.78-6.29,10.95.38-7.68,1.45-15.21,1.63-22.8a17.66,17.66,0,0,0,0-7.52c0-13.37-1.44-26.61-3.24-39.83-.42-3.06-1.94-1.09-2.74-.66-9.42,5-18.16,11.06-26.91,17.13-2.1,1.45-4,4.61-6.43,3.78-1.93-.67-2.83-4-4.46-5.86-8.52-9.87-18.7-16.35-32.35-16.08-8,.16-15.37,2.35-22.78,4.85-.71.24-1.72,1.44-2.38.4a3.56,3.56,0,0,1,0-2.79c1.69-5.37,3-10.91,4.92-16.14,2.48-6.78,5-13.61,8-20.2a257.36,257.36,0,0,1,12-23.88A276.78,276.78,0,0,1,384.81,197a8.29,8.29,0,0,1,3.35-4.87l1.68-2a14.92,14.92,0,0,1,5.18-7c1-1.21,1.92-2.43,2.89-3.64C398.56,177.26,400.41,175.87,402,174.25Z" fill="#fff"/><path d="M156.9,128.81c6.22,6.28,12.53,12.47,18.64,18.87,12,12.57,23,26.06,33.84,39.64a253.3,253.3,0,0,1,27,40.72c4.1,7.85,7.24,16.21,10.74,24.36,4,9.31,6.82,19,9.84,28.68.23.76,1.31,1.94.14,2.73-.76.51-1.65-.08-2.53-.38-8.16-2.74-16.46-4.79-25.19-4.28-12.79.76-23.1,6-30.35,16.74-4,5.89-3.93,5.82-9.92,1.72-9.61-6.56-18.84-13.69-29.81-18.64-.78,6.77-1.75,13.34-2.25,20a280.89,280.89,0,0,0-.71,33.71c.2,4.65.85,9.27,1.18,13.92.06.74.81,1.89-.55,2.32s-1.47-.91-1.78-1.58a208.8,208.8,0,0,1-9.78-24.81A225,225,0,0,1,137,285.37c-1.34-9.48-2.22-19-3.55-28.5-3.39-24.15-7.92-48.08-17.48-70.65a352.72,352.72,0,0,0-21.21-42.65,368.4,368.4,0,0,0-20.48-30.82c-3.9-5.27-8.51-10.06-12.77-15.08-4.89-5.75-10.47-10.73-15.91-15.86A112.9,112.9,0,0,0,27.41,68c-.68-.42-1.14-1.09-1.87-1.34s-1.33-.45-1.08-1.37c.38-1.35,1.5-.82,2.28-.71,4.38.62,8.8,1.08,13.1,2C59.31,71,78.37,76.62,96.13,86a264.43,264.43,0,0,1,51.43,35c1.19,1,2.52,1.92,3.79,2.88a4.27,4.27,0,0,1,2.15,2c0,.74.58.77,1.12.79A3.32,3.32,0,0,1,156.9,128.81Z" fill="#fff"/><path d="M335.89,268.15c-2.83,7.08-5.66,14.17-8.54,21.23-.31.77-.31,1.87-1.37,2.18-.9.27-1-.46-1.4-1-3.49-5.58-9-8.1-15.06-9.53-8.6-2-17.06-1.78-25.11,2.37-1,.51-2.13.84-2.65,2a.63.63,0,0,1-.64.5,10.29,10.29,0,0,0-3.94,4.2c-1.36,2.61-2.08,1.32-2.68-.22-2.39-6.06-4.68-12.17-7-18.27q-2.22-5.83-4.4-11.68a1.89,1.89,0,0,1-1.06-2.15c-2.8-6.44-5.18-13.07-8.53-19.27a6.41,6.41,0,0,1-1.2-3c-3.9-8.06-7.77-16.14-11.74-24.17a3.61,3.61,0,0,1,.15-3.61c5-10.22,10.47-20.17,14.89-30.66-.36-.72.19-1,.63-1.39,21.2-46.77,33.28-96.31,44.47-146.22,2,3.75,2.37,7.8,3.19,11.7a856.38,856.38,0,0,0,23.66,88.13,3.63,3.63,0,0,0,.61.83c2.11,2,2.25,4.95,3.26,7.46.72,1.81,1.25,3.69,2,5.46.51,1.45.94,2.93,1.5,4.37,2.94,8,6.07,16,9.49,23.84a24.25,24.25,0,0,0,1.5,3.66c1.27,3.18,2.68,6.31,4,9.46.47,1,1,2,1.51,3,1,3.11,3.07,5.8,3.5,9.12a17,17,0,0,0,2.65,5.45,4.25,4.25,0,0,1,1.5,2.85c4.32,5.74,0,10.4-2.22,15-6.9,14.61-13.26,29.44-19.61,44.29a8.44,8.44,0,0,0-.32,1.65A2.79,2.79,0,0,1,335.89,268.15Z" fill="#fff"/><path d="M378.75,80.41a193.15,193.15,0,0,0,22.8-39.56c2.74-6.21,4.62-12.72,7.32-19.74,1.69,4.25,1.14,8,1.6,11.63.47,1.19-.08,2.51.48,3.7l.21,6.66c.48,1.17-.1,2.49.49,3.66-.09,9.07,1.36,18,2.45,27,.68,5.68,1.7,11.31,2.57,17,1.26.73,1.38,2,1.62,3.27a212,212,0,0,0,7.43,28.69c.86,2.5.16,4.34-1.54,6.24-15,16.81-29.59,34-43.5,51.68-3.26,4.16-6.31,8.49-9.59,12.64-2.35,3-3.87,2.9-5.57-.45-8.8-17.44-17.91-34.73-23.82-53.48-4-12.62-4.05-12.45,5.11-21.91A327.85,327.85,0,0,0,375.4,83.88,11.1,11.1,0,0,1,378.75,80.41Z" fill="#b17e57"/><path d="M177,128c-1.49-1-1.56-2.44-1-3.95,4.32-11.39,6-23.34,8.12-35.26,1.66-9.5,2.6-19.08,3.83-28.62.82-6.37,1.28-12.83,1.65-19.28.35-6.09,1.33-12.17,1.25-18.31,0-.44-.09-1,.44-1.17a1,1,0,0,1,1.3.56s0,.1.05.16c.51,1.51.88,3.06,1.35,4.58,7.44,24,20.56,44.82,36.11,64.25a418.51,418.51,0,0,0,29.47,32.83,5.15,5.15,0,0,1,1.52,5.74c-3.78,12.89-8.78,25.31-14,37.66-3.51,8.29-7.6,16.3-11.52,24.39a23.2,23.2,0,0,1-1.93,2.37c-1,1.49-1.78,1.07-2.54-.2-5.57-9.2-12.23-17.62-18.84-26.06-4.25-5.41-9-10.45-13.52-15.62-4.27-4.86-8.61-9.66-12.91-14.48a10.45,10.45,0,0,1-1.93-2l-5.66-6.27A2.39,2.39,0,0,1,177,128Z" fill="#b17e57"/><path d="M210.69,23.74c1.3-9.91,7-16,16.25-19.37a57.46,57.46,0,0,1,38-.71c13,4.14,18.35,11.39,18.9,25S281.54,55.3,278,68.24c-3.54,13.27-7.54,26.48-11.4,39.71-.4,1.38-.73,3.4-2.67,1C247.69,89,228.8,71,216.7,47.87,213.63,42,211,36,210.63,29.24A16.38,16.38,0,0,1,210.69,23.74Z" fill="#fff"/><path d="M333.17,101.7c-2.13-9.81-5.45-19.29-8.09-29-3.54-13-6.93-26-7.94-39.55-1-13,4.72-22,16.15-27.73,16.18-8.07,32.09-6.48,47.31,2.3C390,13.12,393,22.78,390,33.88c-3.94,14.67-12.66,26.64-21.74,38.4-3.85,5-7.9,9.8-11.86,14.7-.87,2.86-3.21,4.67-5,6.81-4.34,5.1-9.09,9.85-13.22,15.14-1.34,1.73-2.74,1.65-3.66-.33S332.63,104.19,333.17,101.7Z" fill="#fff"/><path d="M175,56.72c-.4,13.46-3.44,26.48-6.72,39.45-1.33,5.27-2.91,10.47-4.48,15.67-1.15,3.76-1.49,3.86-4.23,1.12a155.78,155.78,0,0,0-13-11.08c-7.49-6-15.71-10.82-23.8-15.81C115.14,81.39,107.33,77,101,70.78c-9.49-9.26-11.57-21.29-3.12-32.4,5.28-7,12.43-11.05,20-14.33a54.51,54.51,0,0,1,24.73-4.31c10.27.57,19.52,3.61,25.77,12.43C173.56,39.48,175.34,47.83,175,56.72Z" fill="#fff"/><path d="M445.47,109.79a22.77,22.77,0,0,0-4.75,5c-1,.69-1.54.29-1.85-.72-2.7-9.21-5.57-18.37-8-27.64-3.18-11.92-5.49-24-4.43-36.43.74-8.66,3.45-16.59,10.23-22.52a28.38,28.38,0,0,1,14.39-6.35c13.41-2.09,26.41-.55,38.64,5.76,10.84,5.59,17.91,14.15,19.77,26.44A15.09,15.09,0,0,1,507,63.38c-4.71,7.6-12.09,12.18-19.32,16.91-9.76,6.37-20.13,11.79-29.58,18.65-3.77,2.73-7.6,5.4-10.72,8.93A2.17,2.17,0,0,1,445.47,109.79Z" fill="#fff"/></svg>