<svg id="Layer_1" data-name="Layer 1" xmlns="http://www.w3.org/2000/svg" viewBox="0 0 154.4 91.9"><path d="M48.8,48.5A19.9,19.9,0,1,0,68.7,68.4,19.89,19.89,0,0,0,48.8,48.5ZM60.6,80.2a16.71,16.71,0,0,1-11.8,4.9A16.89,16.89,0,0,1,37,80.2a16.71,16.71,0,0,1-4.9-11.8A16.89,16.89,0,0,1,37,56.6a16.71,16.71,0,0,1,11.8-4.9,16.89,16.89,0,0,1,11.8,4.9,16.71,16.71,0,0,1,4.9,11.8A17,17,0,0,1,60.6,80.2Z" fill="#c8c8c8"/><path d="M53,72.7A4.12,4.12,0,0,0,49.9,75l-6.7-2.2a5,5,0,0,0,.4-3,5.11,5.11,0,0,0-1.3-2.4L47.4,63a4.78,4.78,0,0,0,4,1.1,4.45,4.45,0,0,0,3.5-5.3,4.73,4.73,0,0,0-5.4-3.6A4.58,4.58,0,0,0,46,60.6a5.09,5.09,0,0,0,.7,1.7l-5.2,4.5a4.45,4.45,0,0,0-3.2-.6,4.54,4.54,0,1,0,1.8,8.9,4.16,4.16,0,0,0,2.6-1.6l6.9,2.4a4.89,4.89,0,0,0-.1,2.1,4.65,4.65,0,0,0,5.4,3.6,4.58,4.58,0,0,0,3.5-5.4A4.63,4.63,0,0,0,53,72.7Z" fill="#ff641e" fill-rule="evenodd"/><path d="M111,14.3v-.9a8.14,8.14,0,0,0-4.9-7.3,16.88,16.88,0,0,0-2.4-.8h-53l-.1.1c-4.9,1.2-7.2,4.1-7.2,9.1V46.3a18.57,18.57,0,0,1,3.4-.6V14.2c0-3.5,2.1-5.6,5.6-5.6H102c3.6,0,5.6,2.1,5.6,5.7v63c0,3.6-2.1,5.7-5.6,5.7H65.6a24.89,24.89,0,0,1-3.8,3.4h40.5a8.5,8.5,0,0,0,8.7-9Z" fill="#c8c8c8"/><path d="M99.3,55.1H66.7a23.29,23.29,0,0,1,2,3.4H99.4a1.65,1.65,0,0,0,1.5-1.7A1.82,1.82,0,0,0,99.3,55.1Z" fill="#c8c8c8"/><path d="M98.8,69.5H71.3a19.7,19.7,0,0,1-.4,3.4H99.4a1.75,1.75,0,0,0,1.5-1.8C100.8,70,100.1,69.5,98.8,69.5Z" fill="#c8c8c8"/><path d="M92.4,19.9h6.3c1.4,0,2.1.6,2.1,1.7s-.8,1.7-2.1,1.7H85.8a1.72,1.72,0,0,1-1.9-1.6,1.68,1.68,0,0,1,1.8-1.8C88,19.8,90.2,19.9,92.4,19.9Z" fill="#c8c8c8"/><path d="M99,30a1.66,1.66,0,0,1,1.8,1.7,1.69,1.69,0,0,1-1.9,1.7H85.8a1.67,1.67,0,0,1-1.7-1,1.36,1.36,0,0,1,.3-1.7,2.81,2.81,0,0,1,1.5-.6C88.1,30,96.8,30,99,30Z" fill="#c8c8c8"/><path d="M92.4,43.5H85.8A1.61,1.61,0,0,1,84.3,41a2,2,0,0,1,1.4-.8c4.5-.1,9,0,13.5,0a1.61,1.61,0,0,1,1.7,1.6,1.63,1.63,0,0,1-1.7,1.7Z" fill="#c8c8c8"/><path d="M73.8,23.3H67.1V40.2h1.4c1.2,0,1.9.6,1.9,1.7a1.69,1.69,0,0,1-1.9,1.7H62.2a1.74,1.74,0,0,1-1.9-1.7,1.77,1.77,0,0,1,1.8-1.7h1.5V23.4H56.9v1.5a1.66,1.66,0,0,1-1.7,1.8A1.55,1.55,0,0,1,53.6,25V21.8a1.53,1.53,0,0,1,1.7-1.7H75.4a1.68,1.68,0,0,1,1.8,1.8v3.2a1.66,1.66,0,0,1-1.7,1.8,1.55,1.55,0,0,1-1.6-1.7A14.93,14.93,0,0,1,73.8,23.3Z" fill="#ff641e"/></svg>