<svg xmlns="http://www.w3.org/2000/svg" width="119.342" height="81.572" viewBox="0 0 119.342 81.572"><g transform="translate(1 1)"><rect width="92" height="63" rx="10" fill="none" stroke="#334048" stroke-miterlimit="10" stroke-width="2"/><rect width="80.684" height="8.275" rx="3" transform="translate(5.5 14.892)" fill="#ff641e"/><g transform="translate(6.905 38.641)"><rect width="42.277" height="5.42" rx="2.71" transform="translate(0 9.756)" fill="#ff641e"/><rect width="21.681" height="5.42" rx="2.71" transform="translate(0.517 0)" fill="#fafafa" stroke="#656f75" stroke-linecap="round" stroke-linejoin="round" stroke-width="1.5"/></g><g transform="translate(-423.572 -1062.067)"><path d="M35.842,20.575V36.614c0,.753-.039,1.457-.832,1.837s-1.312-.076-1.853-.525c-2.1-1.745-4.2-3.467-6.26-5.249a.88.88,0,0,0-1.4,0c-1.751,1.533-3.551,3.013-5.325,4.52-1.52,1.286-2.8,1.312-4.3.055-1.819-1.507-3.675-2.987-5.441-4.535-.612-.525-.992-.459-1.575.037-2.024,1.756-4.108,3.467-6.171,5.178-.541.454-1.087.887-1.853.512S0,37.433,0,36.7Q.016,20.711,0,4.724C.013,1.622,1.635,0,4.748,0H31.215C34.2,0,35.837,1.648,35.84,4.633Q35.848,12.6,35.842,20.575Z" transform="translate(496.572 1094.567)" fill="#fff" stroke="#334048" stroke-width="2"/><path d="M35.842,20.575V36.614c0,.753-.039,1.457-.832,1.837s-1.312-.076-1.853-.525c-2.1-1.745-4.2-3.467-6.26-5.249a.88.88,0,0,0-1.4,0c-1.751,1.533-3.551,3.013-5.325,4.52-1.52,1.286-2.8,1.312-4.3.055-1.819-1.507-3.675-2.987-5.441-4.535-.612-.525-.992-.459-1.575.037-2.024,1.756-4.108,3.467-6.171,5.178-.541.454-1.087.887-1.853.512S0,37.433,0,36.7Q.016,20.711,0,4.724C.013,1.622,1.635,0,4.748,0H31.215C34.2,0,35.837,1.648,35.84,4.633Q35.848,12.6,35.842,20.575Z" transform="translate(500.572 1098.567)" fill="#fff" stroke="#334048" stroke-width="2"/><g transform="translate(4.734 4.143)"><path d="M35.842,20.575V36.614c0,.753-.039,1.457-.832,1.837s-1.312-.076-1.853-.525c-2.1-1.745-4.2-3.467-6.26-5.249a.88.88,0,0,0-1.4,0c-1.751,1.533-3.551,3.013-5.325,4.52-1.52,1.286-2.8,1.312-4.3.055-1.819-1.507-3.675-2.987-5.441-4.535-.612-.525-.992-.459-1.575.037-2.024,1.756-4.108,3.467-6.171,5.178-.541.454-1.087.887-1.853.512S0,37.433,0,36.7Q.016,20.711,0,4.724C.013,1.622,1.635,0,4.748,0H31.215C34.2,0,35.837,1.648,35.84,4.633Q35.848,12.6,35.842,20.575Z" transform="translate(500.338 1098.924)" fill="#fff" stroke="#334048" stroke-width="2"/><rect width="6.772" height="2.822" rx="1" transform="translate(522.252 1119.443)" fill="#fafafa" stroke="#656f75" stroke-linecap="round" stroke-linejoin="round" stroke-width="1.5"/><rect width="22.01" height="2.822" rx="1.411" transform="translate(507.015 1114.364)" fill="#ff641e"/><rect width="11.287" height="2.822" rx="1" transform="translate(517.737 1109.285)" fill="#fafafa" stroke="#656f75" stroke-linecap="round" stroke-linejoin="round" stroke-width="1.5"/></g></g></g></svg>