<svg xmlns="http://www.w3.org/2000/svg" width="116.524" height="88.876" viewBox="0 0 116.524 88.876"><g transform="translate(-792.311 -1258.156)"><path d="M38.977,289.09a11.085,11.085,0,0,1,6.282,1.463L68.043,303.7h-43.1l5.25-9.108A11.094,11.094,0,0,1,38.977,289.09Z" transform="translate(787.294 969.594)" stroke="#dcdcdc" stroke-width="1" fill-rule="evenodd"/><path d="M80.565,304.1a9.7,9.7,0,0,1,9.654,9.629v51.4a9.691,9.691,0,0,1-9.654,9.623H9.918a9.691,9.691,0,0,1-9.654-9.623v-9.648H16.341a16.052,16.052,0,0,0,0-32.1H.264v-9.648A9.7,9.7,0,0,1,9.918,304.1Z" transform="translate(798.472 971.276)" stroke="#dcdcdc" stroke-miterlimit="10" stroke-width="2" fill-rule="evenodd"/><path d="M82.091,327.832a9.626,9.626,0,0,1,0,19.252H62.814a3.137,3.137,0,0,1-3.224-3.2V331.037a3.142,3.142,0,0,1,3.224-3.205Z" transform="translate(732.722 973.249)" fill="#ff641e" fill-rule="evenodd"/><ellipse cx="4.332" cy="4.332" rx="4.332" ry="4.332" transform="translate(809.848 1306.768)" stroke="#dcdcdc" stroke-linecap="round" stroke-linejoin="round" stroke-width="1.5"/><path d="M71.946,32.905a2.721,2.721,0,0,1-2.478,1.722H60.681V52.378a3.088,3.088,0,0,1-.8,2.092,2.624,2.624,0,0,1-1.93.866H48.514a2.623,2.623,0,0,1-1.93-.866,3.088,3.088,0,0,1-.8-2.092V34.627H36.728a2.725,2.725,0,0,1-2.478-1.721,3.159,3.159,0,0,1,.4-3.162L51.025,9.035a2.594,2.594,0,0,1,4.146,0L71.54,29.745A3.152,3.152,0,0,1,71.946,32.905Z" transform="translate(835.592 1290.696)" stroke="#dcdcdc" stroke-width="2"/></g></svg>