<svg xmlns="http://www.w3.org/2000/svg" width="119.051" height="88.729" viewBox="0 0 119.051 88.729"><g transform="translate(-466.826 -1237.527)"><path d="M37.186,289.086a9.67,9.67,0,0,1,5.481,1.276l19.877,11.468h-37.6l4.58-7.946A9.679,9.679,0,0,1,37.186,289.086Z" transform="translate(459.267 948.463)" fill="#979797" fill-rule="evenodd"/><path d="M70.319,304.1a8.459,8.459,0,0,1,8.422,8.4v44.843a8.455,8.455,0,0,1-8.422,8.4H8.686a8.455,8.455,0,0,1-8.422-8.4v-8.417H14.29a14,14,0,0,0,0-28.008H.264V312.5a8.459,8.459,0,0,1,8.422-8.4Z" transform="translate(472.167 948.011)" fill="#979797" stroke="#334048" stroke-miterlimit="10" stroke-width="2" fill-rule="evenodd"/><path d="M79.22,327.832a8.4,8.4,0,0,1,0,16.8H62.4a2.736,2.736,0,0,1-2.813-2.791V330.628a2.741,2.741,0,0,1,2.813-2.8Z" transform="translate(407.237 946.704)" fill="#ff641e" fill-rule="evenodd"/><ellipse cx="3.78" cy="3.78" rx="3.78" ry="3.78" transform="translate(482.125 1279.498)" fill="#fafafa" stroke="#d4d6d8" stroke-linecap="round" stroke-linejoin="round" stroke-width="1.5"/><path d="M37.186,289.086a9.67,9.67,0,0,1,5.481,1.276l19.877,11.468h-37.6l4.58-7.946A9.679,9.679,0,0,1,37.186,289.086Z" transform="translate(474.256 956.399)" fill="#979797" fill-rule="evenodd"/><path d="M70.319,304.1a8.459,8.459,0,0,1,8.422,8.4v44.843a8.455,8.455,0,0,1-8.422,8.4H8.686a8.455,8.455,0,0,1-8.422-8.4v-8.417H14.29a14,14,0,0,0,0-28.008H.264V312.5a8.459,8.459,0,0,1,8.422-8.4Z" transform="translate(487.155 955.947)" fill="#979797" stroke="#334048" stroke-miterlimit="10" stroke-width="2" fill-rule="evenodd"/><path d="M79.22,327.832a8.4,8.4,0,0,1,0,16.8H62.4a2.736,2.736,0,0,1-2.813-2.791V330.628a2.741,2.741,0,0,1,2.813-2.8Z" transform="translate(422.226 954.639)" fill="#ff641e" fill-rule="evenodd"/><ellipse cx="3.78" cy="3.78" rx="3.78" ry="3.78" transform="translate(497.113 1287.434)" fill="#fafafa" stroke="#d4d6d8" stroke-linecap="round" stroke-linejoin="round" stroke-width="1.5"/><path d="M36.806,289.086a9.37,9.37,0,0,1,5.31,1.237l19.259,11.112H24.942l4.437-7.7A9.378,9.378,0,0,1,36.806,289.086Z" transform="translate(495.309 962.334)" stroke="#dcdcdc" stroke-width="1" fill-rule="evenodd"/><path d="M68.142,304.1a8.2,8.2,0,0,1,8.161,8.14v43.45a8.192,8.192,0,0,1-8.161,8.134H8.424a8.192,8.192,0,0,1-8.161-8.134v-8.155H13.854a13.569,13.569,0,0,0,0-27.138H.264v-8.155a8.2,8.2,0,0,1,8.161-8.14Z" transform="translate(508.574 961.43)" stroke="#dcdcdc" stroke-miterlimit="10" stroke-width="2" fill-rule="evenodd"/><path d="M78.61,327.832a8.137,8.137,0,0,1,0,16.274H62.315a2.651,2.651,0,0,1-2.726-2.7v-10.86a2.656,2.656,0,0,1,2.726-2.71Z" transform="translate(443.818 959.427)" fill="#ff641e" fill-rule="evenodd"/><ellipse cx="3.662" cy="3.662" rx="3.662" ry="3.662" transform="translate(518.231 1292.066)" stroke="#dcdcdc" stroke-linecap="round" stroke-linejoin="round" stroke-width="1.5"/></g></svg>