<svg xmlns="http://www.w3.org/2000/svg" width="99.546" height="106.294" viewBox="0 0 99.546 106.294"><g transform="translate(-501.999 -1521.681)"><g transform="translate(553.57 1580)"><g transform="translate(0 0)" fill="#fff" stroke="#707070" stroke-width="1"><circle cx="23.988" cy="23.988" r="23.988" stroke="none"/><circle cx="23.988" cy="23.988" r="23.488" fill="none"/></g><g transform="translate(6.151 6.151)"><g transform="translate(0 0)"><rect width="33.214" height="33.214" fill="none"/><path d="M21.019,19.809a4.072,4.072,0,0,0-2.746,1.083L8.281,15.053a4.623,4.623,0,0,0,.126-.985,4.623,4.623,0,0,0-.126-.985L18.16,7.3a4.19,4.19,0,0,0,7.062-3.081,4.2,4.2,0,1,0-8.407,0,4.623,4.623,0,0,0,.126.985L7.062,10.988a4.221,4.221,0,1,0,0,6.162L17.039,23a3.984,3.984,0,0,0-.112.914,4.092,4.092,0,1,0,4.092-4.108Z" transform="translate(4.041 3.413)" fill="#ff641e"/></g></g></g><path d="M-8391.59-4632.049h-10.862l-4.307,0h-12.921c-6.115,0-10.476,0-13.979,0-3.087,0-5.311-2.113-6.1-5.791a11.616,11.616,0,0,1-.229-2.391v-4.027c0-2.25,0-4.577-.013-6.863a1.766,1.766,0,0,1,.444-1.3q3.787-4.249,7.744-8.714l1.946-2.192.429-.483.4-.451q2.525-2.851,5.058-5.7l.04-.045c.655-.74,1.074-1.028,1.494-1.028s.853.3,1.544,1.057l.665.735.365.4.151.167c2.849,3.141,5.54,6.107,8.266,9.091a2.9,2.9,0,0,0,2,1.2c.682,0,1.36-.479,2.133-1.506l7.875-10.451,7.876-10.453,7.886-10.468c.708-.938,1.212-1.339,1.687-1.339.508,0,1.013.469,1.686,1.567l2.727,4.444,1.366,2.228,1.044,1.7,1.446,2.362,1.447,2.362a30.035,30.035,0,0,0-24.211,29.44,29.874,29.874,0,0,0,4.908,16.45Zm-48.252-28.758h0a.914.914,0,0,1-.142-.721v-.016a1.586,1.586,0,0,0,.013-.206c-.007-21.147-.007-40.624,0-61.293,0-4.96,1.9-7.271,5.988-7.273,8.771,0,17.691,0,26.318,0H-8380V-4716a2,2,0,0,0,2,2h13.058c0,6.969,0,13.9,0,20.676v14.865c-.388-.021-.8-.034-1.223-.038-1.25-2.038-2.436-3.972-3.62-5.906l-.9-1.46c-1.62-2.642-3.75-6.115-5.853-9.554-1.5-2.449-3.437-3.8-5.456-3.8-1.812,0-3.562,1.052-5.062,3.043l-.06.079-.15.2-.3.4c-7.029,9.318-14.3,18.953-21.419,28.461-.275.367-.479.523-.683.523-.221,0-.436-.191-.692-.479-1.941-2.192-3.947-4.387-5.887-6.51l-.032-.035-.249-.272-.152-.169-.563-.614-.576-.631a6.419,6.419,0,0,0-4.628-2.463c-1.605,0-3.182.86-4.686,2.557l-7.978,8.994-1.446,1.631-2.906,3.275q-.076.086-.155.171l-.052.057-.07.076-.028.031c-.025.028-.051.056-.074.085Z" transform="translate(8942.5 6252.5)" fill="none" stroke="#656f75" stroke-linecap="round" stroke-linejoin="round" stroke-width="1"/><circle cx="6" cy="6" r="6" transform="translate(510 1529)" fill="#ff641e"/><path d="M294.787,74.28,308.5,88.005h-2.167c-3.569,0-7.139-.02-10.708.017-.733.008-.926-.208-.92-.927.032-4.118.015-8.236.019-12.354C294.725,74.564,294.64,74.345,294.787,74.28Z" transform="translate(269.998 1447.721)" fill="#ff641e"/></g></svg>