<svg xmlns="http://www.w3.org/2000/svg" width="97.977" height="106.975" viewBox="0 0 97.977 106.975"><g transform="translate(-806.998 -1523)"><path d="M-8388.36-4626.5H-8432.5a7.51,7.51,0,0,1-7.5-7.5v-87a7.51,7.51,0,0,1,7.5-7.5h51.5v13a2,2,0,0,0,2,2h14v37.017c-.274-.011-.592-.017-1-.017a30.033,30.033,0,0,0-30,30,29.952,29.952,0,0,0,7.638,20Z" transform="translate(9247.499 6252)" fill="#fff" stroke="#707070" stroke-linecap="round" stroke-linejoin="round" stroke-width="1"/><path d="M161.962,219.23H138.535c-.314,0-.628.007-.942-.009-.86-.043-1.33-.86-1.341-2.123s.477-2.068,1.318-2.164a8.193,8.193,0,0,1,.941-.038q23.486,0,46.971,0c1.653,0,2.279.6,2.286,2.165s-.621,2.169-2.262,2.169Z" transform="translate(680.93 1344.286)" fill="#fafafa" stroke="#656f75" stroke-linecap="round" stroke-linejoin="round" stroke-width="1.5"/><g transform="translate(857 1582)" fill="#fff" stroke="#707070" stroke-width="1"><circle cx="23.988" cy="23.988" r="23.988" stroke="none"/><circle cx="23.988" cy="23.988" r="23.488" fill="none"/></g><rect width="33.214" height="33.214" transform="translate(863.15 1588.15)" fill="none"/><path d="M21.019,19.809a4.072,4.072,0,0,0-2.746,1.083L8.281,15.053a4.623,4.623,0,0,0,.126-.985,4.623,4.623,0,0,0-.126-.985L18.16,7.3a4.19,4.19,0,0,0,7.062-3.081,4.2,4.2,0,1,0-8.407,0,4.623,4.623,0,0,0,.126.985L7.062,10.988a4.221,4.221,0,1,0,0,6.162L17.039,23a3.984,3.984,0,0,0-.112.914,4.092,4.092,0,1,0,4.092-4.108Z" transform="translate(867.191 1591.563)" fill="#ff641e"/><path d="M153.489,266.172H138.536a10.492,10.492,0,0,1-1.059-.02,1.352,1.352,0,0,1-.038-2.69,6.266,6.266,0,0,1,.94-.033q15.13,0,30.26,0a6.394,6.394,0,0,1,.823.022,1.356,1.356,0,0,1-.078,2.71c-.863.026-1.727.012-2.59.012Z" transform="translate(680.937 1311.847)" fill="#ff641e"/><path d="M150.7,314.695q-6.294,0-12.587,0c-1.262,0-1.925-.49-1.916-1.387.009-.88.689-1.379,1.946-1.379q12.7-.007,25.408,0c.836,0,1.6.137,1.8,1.119.211,1-.457,1.646-1.716,1.648Q157.169,314.7,150.7,314.695Z" transform="translate(680.969 1278.622)" fill="#ff641e"/><path d="M148.645,363.214c-3.535,0-7.069-.007-10.6.006a1.708,1.708,0,0,1-1.648-.683,1.369,1.369,0,0,1,1.216-2.085c1.1-.066,2.2-.019,3.3-.019h17.909c.314,0,.63-.017.942.008.863.069,1.438.522,1.424,1.4a1.318,1.318,0,0,1-1.461,1.36c-1.61.021-3.22.008-4.831.008Z" transform="translate(680.982 1245.402)" fill="#334048"/><path d="M294.787,74.28,308.5,88.005h-2.167c-3.569,0-7.139-.02-10.708.017-.733.008-.926-.208-.92-.927.032-4.118.015-8.236.019-12.354C294.725,74.564,294.64,74.345,294.787,74.28Z" transform="translate(573.998 1448.72)" fill="#ff641e"/></g></svg>