<svg xmlns="http://www.w3.org/2000/svg" viewBox="160 126 516 7">
  <path d="m160 126v7h6c0-7 9-7 9 0h6c0-7 9-7 9 0h6c0-7 9-7 9 0h6c0-7 9-7 9 0h6c0-7 9-7 9 0h6c0-7 9-7 9 0h6c0-7 9-7 9 0h6c0-7 9-7 9 0h6c0-7 9-7 9 0h6c0-7 9-7 9 0h6c0-7 9-7 9 0h6c0-7 9-7 9 0h6c0-7 9-7 9 0h6c0-7 9-7 9 0h6c0-7 9-7 9 0h6c0-7 9-7 9 0h6c0-7 9-7 9 0h6c0-7 9-7 9 0h6c0-7 9-7 9 0h6c0-7 9-7 9 0h6c0-7 9-7 9 0h6c0-7 9-7 9 0h6c0-7 9-7 9 0h6c0-7 9-7 9 0h6c0-7 9-7 9 0h6c0-7 9-7 9 0h6c0-7 9-7 9 0h6c0-7 9-7 9 0h6c0-7 9-7 9 0h6c0-7 9-7 9 0h6c0-7 9-7 9 0h6c0-7 9-7 9 0h6c0-7 9-7 9 0h6c0-7 9-7 9 0h6v-7" stroke="#109822" stroke-width="2" fill="none"/>
</svg>