<svg id="Layer_1" data-name="Layer 1" xmlns="http://www.w3.org/2000/svg" viewBox="0 0 88.7 83.5"><path d="M91.7,50.5H63.1a10.24,10.24,0,0,1,3.2,3.3H91.6c13.8-.1,22.7,11,22.9,22.5l-.1,5.9H66.8c.2.1-1.4,1.8-3.4,3.3h54.2v-9A25.86,25.86,0,0,0,91.7,50.5Z" transform="translate(-28.9 -4.8)" fill="#334048"/><path d="M48.8,48.5A19.9,19.9,0,1,0,68.7,68.4,19.89,19.89,0,0,0,48.8,48.5ZM60.6,80.2a16.71,16.71,0,0,1-11.8,4.9A16.89,16.89,0,0,1,37,80.2a16.71,16.71,0,0,1-4.9-11.8A16.89,16.89,0,0,1,37,56.6a16.71,16.71,0,0,1,11.8-4.9,16.89,16.89,0,0,1,11.8,4.9,16.71,16.71,0,0,1,4.9,11.8A17,17,0,0,1,60.6,80.2Z" transform="translate(-28.9 -4.8)" fill="#656f75"/><path d="M59.4,66.7h-9V57.9a1.66,1.66,0,0,0-1.7-1.8,1.72,1.72,0,0,0-1.6,1.6v9H38.2a1.63,1.63,0,0,0-1.7,1.7A1.71,1.71,0,0,0,38,70h9.1v8.9a1.63,1.63,0,0,0,1.7,1.7,1.71,1.71,0,0,0,1.6-1.5V70h8.8A1.66,1.66,0,0,0,61,68.3,1.58,1.58,0,0,0,59.4,66.7Z" transform="translate(-28.9 -4.8)" fill="#ff641e"/><path d="M73.9,4.8A19.9,19.9,0,1,0,93.8,24.7,19.89,19.89,0,0,0,73.9,4.8ZM85.7,36.5a16.71,16.71,0,0,1-11.8,4.9,16.89,16.89,0,0,1-11.8-4.9,16.71,16.71,0,0,1-4.9-11.8,16.89,16.89,0,0,1,4.9-11.8A16.71,16.71,0,0,1,73.9,8a16.89,16.89,0,0,1,11.8,4.9,16.71,16.71,0,0,1,4.9,11.8A17,17,0,0,1,85.7,36.5Z" transform="translate(-28.9 -4.8)" fill="#ff641e"/></svg>