<svg xmlns="http://www.w3.org/2000/svg" width="154.386" height="91.921" viewBox="0 0 154.386 91.921"><g transform="translate(-786.794 -2086.028)"><path d="M35.633,22.742V29.7H34.495V28.684a1.517,1.517,0,0,0-3.035,0v3.692a1.517,1.517,0,1,0,3.035,0V31.213h4.021v1.315a1.517,1.517,0,1,0,3.035,0V28.684a1.517,1.517,0,0,0-3.035,0v1.037H37.377V22.59Z" transform="translate(865.729 2113.553)" fill="#c8c8c8"/><path d="M35.633,22.742V29.7H34.495V28.684a1.517,1.517,0,0,0-3.035,0v3.692a1.517,1.517,0,1,0,3.035,0V31.213h4.021v1.315a1.517,1.517,0,1,0,3.035,0V28.684a1.517,1.517,0,0,0-3.035,0v1.037H37.377V22.59Z" transform="translate(788.059 2113.553)" fill="#c8c8c8"/><path d="M41.421,13.049a1.189,1.189,0,0,0-1.037,1.416l.455,2.706a1.214,1.214,0,0,0,1.467.961l25.288-5.69a1.264,1.264,0,1,0-.329-2.352Z" transform="translate(835.559 2102.718)" stroke="#c8c8c8" stroke-linecap="round" stroke-linejoin="round" stroke-width="1.5"/><path d="M43.084,13.045a1.214,1.214,0,0,1,1.037,1.416l-.48,2.706a1.163,1.163,0,0,1-1.441.961l-25.44-5.69a1.315,1.315,0,0,1-1.012-1.467A1.29,1.29,0,0,1,17.215,9.96Z" transform="translate(803.785 2102.721)" stroke="#c8c8c8" stroke-linecap="round" stroke-linejoin="round" stroke-width="1.5"/><path d="M-7218.989-9511l-75.722,14.036L-7370.625-9511" transform="translate(8158.625 11631.356)" fill="none" stroke="#dcdcdc" stroke-linecap="round" stroke-width="2"/><path d="M-7218.771-9520.823l-76.524,33.063-75.229-33.063" transform="translate(8158.637 11641.379)" fill="none" stroke="#dcdcdc" stroke-linecap="round" stroke-width="2"/><path d="M50.054,0H2.528" transform="translate(862.855 2086) rotate(90)" stroke="#dcdcdc" stroke-linecap="round" stroke-width="5"/><g transform="translate(837.527 2111.027)" fill="#19191a" stroke="#dcdcdc" stroke-width="2"><circle cx="25.329" cy="25.329" r="25.329" stroke="none"/><circle cx="25.329" cy="25.329" r="24.329" fill="none"/></g><path d="M0,17.5C0,7.834,8.248,0,18.421,0S36.842,7.834,36.842,17.5Z" transform="translate(844.896 2119.316)" stroke="#c8c8c8" stroke-linecap="round" stroke-linejoin="round" stroke-width="1.5"/><path d="M57.97,24.641a3.98,3.98,0,1,1,3.98-4,3.98,3.98,0,0,1-3.98,4Z" transform="translate(804.721 2129.122)" fill="#c8c8c8"/><path d="M55.315,25.615V35.8H53.161V33.9a2.884,2.884,0,0,0-5.731,0v6.863a2.884,2.884,0,0,0,5.731,0V38.613h7.3v2.446a2.884,2.884,0,0,0,5.731,0V34.2a2.847,2.847,0,0,0-2.847-2.847A2.884,2.884,0,0,0,60.462,34.2v1.9H58.636V25.323" transform="translate(805.857 2134.331)" fill="#dcdcdc"/><path d="M61.507,31.715a7.517,7.517,0,1,1,7.517-7.545,7.517,7.517,0,0,1-7.517,7.545Z" transform="translate(855.053 2107.18)" stroke="#c8c8c8" stroke-linecap="round" stroke-linejoin="round" stroke-width="1.5"/><path d="M59.141,26.982a5.151,5.151,0,1,1,5.151-5.17,5.151,5.151,0,0,1-5.151,5.17Z" transform="translate(857.418 2109.546)" fill="#ff641e"/><path d="M61.507,31.715a7.517,7.517,0,1,1,7.517-7.545,7.517,7.517,0,0,1-7.517,7.545Z" transform="translate(748.115 2107.18)" stroke="#c8c8c8" stroke-linecap="round" stroke-linejoin="round" stroke-width="1.5"/><path d="M59.141,26.982a5.151,5.151,0,1,1,5.151-5.17,5.151,5.151,0,0,1-5.151,5.17Z" transform="translate(750.48 2109.546)" fill="#ff641e"/></g></svg>