<svg id="Layer_1" data-name="Layer 1" xmlns="http://www.w3.org/2000/svg" viewBox="0 0 130.8 86.4"><ellipse cx="114.2" cy="17.3" rx="6.8" ry="6.9" fill="#ff641e"/><path d="M144.6,4.9Z" transform="translate(-11.4 -2.8)" fill="#334048"/><path d="M142.2,7.8a6.86,6.86,0,0,0-1.3-3.6,5,5,0,0,0-3.3-1.4H16a5.18,5.18,0,0,0-3.3,1.4,5.46,5.46,0,0,0-1.3,3.6h0V84.2a6.86,6.86,0,0,0,1.3,3.6A5,5,0,0,0,16,89.2H137.6a5.18,5.18,0,0,0,3.3-1.4,4.92,4.92,0,0,0,1.3-3.6h0V7.8ZM15.4,9.3a2,2,0,0,1,1.9-2H136a2.06,2.06,0,0,1,1.9,2V82.5a2,2,0,0,1-1.9,2H17.4a2.06,2.06,0,0,1-1.9-2C15.4,82.5,15.4,9.3,15.4,9.3Z" transform="translate(-11.4 -2.8)" fill="#c8c8c8"/><path d="M9.8,4.9Z" transform="translate(-11.4 -2.8)" fill="#334048"/><path d="M144.6,87Z" transform="translate(-11.4 -2.8)" fill="#334048"/><path d="M9.8,87Z" transform="translate(-11.4 -2.8)" fill="#fff"/><path d="M110.7,14a2.44,2.44,0,0,0-2-.8H24.1a3.86,3.86,0,0,0-2,.8,3.7,3.7,0,0,0-.9,2.4v7.5a3.7,3.7,0,0,0,.9,2.4,2.44,2.44,0,0,0,2,.8h84.8a3.86,3.86,0,0,0,2-.8,3.7,3.7,0,0,0,.9-2.4V16.4A4.48,4.48,0,0,0,110.7,14Z" transform="translate(-11.4 -2.8)" fill="#c8c8c8"/><path d="M131.4,33a3.24,3.24,0,0,0-2.3-.8H24.5a4.23,4.23,0,0,0-2.3.8,3,3,0,0,0-1,2.4v7.3a4.39,4.39,0,0,0,1,2.4,3.24,3.24,0,0,0,2.3.8H129.1a4.23,4.23,0,0,0,2.3-.8,3,3,0,0,0,1-2.4V35.4A3.55,3.55,0,0,0,131.4,33Z" transform="translate(-11.4 -2.8)" fill="#c8c8c8"/><path d="M131.9,74.8a2.1,2.1,0,0,0-1.1-.4H23a1.25,1.25,0,0,0-1.1.4c-.3.2-.6.5-.6.8v1.7c0,.4.2.6.6.8a2.1,2.1,0,0,0,1.1.4H130.7a1.25,1.25,0,0,0,1.1-.4c.3-.2.6-.5.6-.8V75.6A1.77,1.77,0,0,0,131.9,74.8Z" transform="translate(-11.4 -2.8)" fill="#c8c8c8"/><path d="M131.5,57.4a4.13,4.13,0,0,0-2.3-.5H25.4a4.56,4.56,0,0,0-2.3.5c-.6.4-.8.7-.8,1.2v1.2c0,.5.3.8.8,1.2a3.93,3.93,0,0,0,2.3.5H129.3a4.56,4.56,0,0,0,2.3-.5c.6-.4.8-.7.8-1.2V58.6A2,2,0,0,0,131.5,57.4Z" transform="translate(-11.4 -2.8)" fill="#ff641e"/></svg>