<svg id="Layer_1" data-name="Layer 1" xmlns="http://www.w3.org/2000/svg" viewBox="0 0 130.8 86.4"><ellipse cx="114.2" cy="17.3" rx="6.8" ry="6.9" fill="#ff641e"/><path d="M144.9,4.9Z" transform="translate(-11.7 -2.8)" fill="#334048"/><path d="M142.5,7.8a6.86,6.86,0,0,0-1.3-3.6,5,5,0,0,0-3.3-1.4H16.3A5.18,5.18,0,0,0,13,4.2a5.46,5.46,0,0,0-1.3,3.6h0V84.2A6.86,6.86,0,0,0,13,87.8a5,5,0,0,0,3.3,1.4H137.9a5.18,5.18,0,0,0,3.3-1.4,4.92,4.92,0,0,0,1.3-3.6h0ZM15.7,9.3a2,2,0,0,1,1.9-2H136.3a2.06,2.06,0,0,1,1.9,2V82.5a2,2,0,0,1-1.9,2H17.7a2.06,2.06,0,0,1-1.9-2C15.7,82.5,15.7,9.3,15.7,9.3Z" transform="translate(-11.7 -2.8)" fill="#334048"/><path d="M10.1,4.9Z" transform="translate(-11.7 -2.8)" fill="#334048"/><path d="M144.9,87Z" transform="translate(-11.7 -2.8)" fill="#334048"/><path d="M10.1,87Z" transform="translate(-11.7 -2.8)" fill="#fff"/><path d="M111,14a2.44,2.44,0,0,0-2-.8H24.4a3.86,3.86,0,0,0-2,.8,3.7,3.7,0,0,0-.9,2.4v7.5a3.7,3.7,0,0,0,.9,2.4,2.44,2.44,0,0,0,2,.8h84.8a3.86,3.86,0,0,0,2-.8,3.7,3.7,0,0,0,.9-2.4V16.4A6.74,6.74,0,0,0,111,14Z" transform="translate(-11.7 -2.8)" fill="#334048"/><path d="M131.7,33a3.24,3.24,0,0,0-2.3-.8H24.8a4.23,4.23,0,0,0-2.3.8,3,3,0,0,0-1,2.4v7.3a4.39,4.39,0,0,0,1,2.4,3.24,3.24,0,0,0,2.3.8H129.4a4.23,4.23,0,0,0,2.3-.8,3,3,0,0,0,1-2.4V35.4A3.55,3.55,0,0,0,131.7,33Z" transform="translate(-11.7 -2.8)" fill="#656f75"/><path d="M132.2,74.8a2.1,2.1,0,0,0-1.1-.4H23.2a1.25,1.25,0,0,0-1.1.4c-.3.2-.6.5-.6.8v1.7c0,.4.2.6.6.8a2.1,2.1,0,0,0,1.1.4H130.9a1.25,1.25,0,0,0,1.1-.4c.3-.2.6-.5.6-.8V75.6A1,1,0,0,0,132.2,74.8Z" transform="translate(-11.7 -2.8)" fill="#656f75"/><path d="M131.7,57.4a4.13,4.13,0,0,0-2.3-.5H25.7a4.56,4.56,0,0,0-2.3.5c-.6.4-.8.7-.8,1.2v1.2c0,.5.3.8.8,1.2a3.93,3.93,0,0,0,2.3.5H129.6a4.56,4.56,0,0,0,2.3-.5c.6-.4.8-.7.8-1.2V58.6A1.88,1.88,0,0,0,131.7,57.4Z" transform="translate(-11.7 -2.8)" fill="#ff641e"/></svg>