<svg xmlns="http://www.w3.org/2000/svg" width="105.671" height="112.617" viewBox="0 0 105.671 112.617"><g transform="translate(-180.045 -2083.419)"><g transform="translate(196.731 2181.192)"><rect width="19" height="15" rx="4" transform="translate(-0.349 -0.156)" fill="#dcdcdc"/><rect width="19" height="15" rx="4" transform="translate(54.651 -0.156)" fill="#dcdcdc"/></g><path d="M10.088,97.13V9.528A9.529,9.529,0,0,1,19.617,0H86.456a9.5,9.5,0,0,1,9.386,9.528c0,24.132.187,21.173,0,87.6,0,5.688-1.991,5.831-6.4,5.831H16.488C12.079,102.961,10.088,102.819,10.088,97.13Z" transform="translate(180.324 2084.419)" fill="#19191a" stroke="#dcdcdc" stroke-width="2" fill-rule="evenodd"/><path d="M106.947,28.628h-5.4c-1,0-1.422.569-1.422,1.564v3.84H98.557a1.614,1.614,0,0,0-1.564,1.707V48.679a1.708,1.708,0,0,0,1.564,1.707h5.12a1.729,1.729,0,0,0,1.707-1.707V35.738a1.643,1.643,0,0,0-1.707-1.707h-1.422V30.761h4.693Z" transform="translate(83.053 2082.117)" fill="#dcdcdc" fill-rule="evenodd"/><path d="M19.318,20.609A5.547,5.547,0,0,0,13.691,26.1V64.016a5.635,5.635,0,0,0,5.627,5.493,411.635,411.635,0,0,0,62.967,0,5.607,5.607,0,0,0,5.493-5.493V26.1a5.517,5.517,0,0,0-5.493-5.493Z" transform="translate(182.15 2089.634)" stroke="#c8c8c8" stroke-linecap="round" stroke-linejoin="round" stroke-width="1.5" fill-rule="evenodd"/><path d="M96.993,28.628h5.4c1,0,1.422.569,1.422,1.564v3.84h1.564a1.614,1.614,0,0,1,1.564,1.707V48.68a1.708,1.708,0,0,1-1.564,1.707h-5.12a1.729,1.729,0,0,1-1.707-1.707V35.738a1.643,1.643,0,0,1,1.707-1.707h1.422V30.761H96.993Z" transform="translate(178.769 2082.117)" fill="#dcdcdc" fill-rule="evenodd"/><path d="M28.071,3.6a2.286,2.286,0,0,0-2.418,2.046v5.909A2.286,2.286,0,0,0,28.071,13.6h50.2a2.286,2.286,0,0,0,2.418-2.046V5.649A2.286,2.286,0,0,0,78.271,3.6Z" transform="translate(180.055 2089.575)" stroke="#c8c8c8" stroke-linecap="round" stroke-linejoin="round" stroke-width="1.5" fill-rule="evenodd"/><path d="M68.758,87.255c-1.138,1-.569,2.7,1.138,3.413,5.4,1.138,17.776,1,20.194-1.849l-.142-5.688C85.112,77.3,70.18,85.975,68.758,87.255Zm-31.429,0c1.138,1,.569,2.7-1.138,3.413-5.262,1.138-17.634,1-20.194-1.849l.142-5.688C20.975,77.3,35.907,85.975,37.329,87.255Z" transform="translate(179.843 2085.317)" fill="#ff641e" fill-rule="evenodd"/><path d="M45.238,93.1H61.593a1.122,1.122,0,0,1,1.138,1.138V97.51a1.047,1.047,0,0,1-1.138,1.138H45.238A1.047,1.047,0,0,1,44.1,97.51V94.239A1.122,1.122,0,0,1,45.238,93.1Z" transform="translate(180.357 2084.172)" fill="#c8c8c8" stroke="#c8c8c8" stroke-linecap="round" stroke-width="1.5" fill-rule="evenodd"/><path d="M106.947,28.628h-5.4c-1,0-1.422.569-1.422,1.564v3.84H98.557a1.614,1.614,0,0,0-1.564,1.707V48.679a1.708,1.708,0,0,0,1.564,1.707h5.12a1.729,1.729,0,0,0,1.707-1.707V35.738a1.643,1.643,0,0,0-1.707-1.707h-1.422V30.761h4.693Z" transform="translate(83.053 2082.117)" fill="#dcdcdc" fill-rule="evenodd"/></g></svg>