<svg xmlns="http://www.w3.org/2000/svg" width="104.96" height="111.242" viewBox="0 0 104.96 111.242"><g transform="translate(-180.045 -2083.419)"><g transform="translate(196.618 2180.541)"><rect width="18" height="14" rx="4" transform="translate(0.408 0.12)" fill="#334048"/><rect width="19" height="14" rx="4" transform="translate(54.408 0.12)" fill="#334048"/></g><path d="M10.088,96.477V9.464A9.465,9.465,0,0,1,19.552,0h66.39a9.436,9.436,0,0,1,9.323,9.464c0,23.97.185,21.031,0,87.013,0,5.65-1.978,5.791-6.356,5.791H16.445C12.066,102.268,10.088,102.127,10.088,96.477Z" transform="translate(180.255 2084.419)" fill="#fff" stroke="#334048" stroke-width="2" fill-rule="evenodd"/><path d="M106.88,28.6h-5.368c-.989,0-1.413.565-1.413,1.554v3.814H98.546a1.6,1.6,0,0,0-1.554,1.7V48.518a1.7,1.7,0,0,0,1.554,1.7h5.085a1.718,1.718,0,0,0,1.7-1.7V35.664a1.632,1.632,0,0,0-1.7-1.7h-1.413V30.721h4.661Z" transform="translate(83.053 2081.966)" fill="#334048" fill-rule="evenodd"/><path d="M19.28,20.609a5.51,5.51,0,0,0-5.589,5.456V63.724A5.6,5.6,0,0,0,19.28,69.18a408.868,408.868,0,0,0,62.543,0,5.569,5.569,0,0,0,5.456-5.456V26.065a5.48,5.48,0,0,0-5.456-5.456Z" transform="translate(182.044 2089.46)" fill="#fafafa" stroke="#656f75" stroke-linecap="round" stroke-linejoin="round" stroke-width="1.5" fill-rule="evenodd"/><path d="M96.993,28.6h5.368c.989,0,1.413.565,1.413,1.554v3.814h1.554a1.6,1.6,0,0,1,1.554,1.7V48.519a1.7,1.7,0,0,1-1.554,1.7h-5.085a1.718,1.718,0,0,1-1.7-1.7V35.665a1.632,1.632,0,0,1,1.7-1.7h1.413V30.721H96.993Z" transform="translate(178.125 2081.966)" fill="#334048" fill-rule="evenodd"/><path d="M28.055,3.6a2.271,2.271,0,0,0-2.4,2.032V11.5a2.271,2.271,0,0,0,2.4,2.032H77.918a2.271,2.271,0,0,0,2.4-2.032V5.635a2.271,2.271,0,0,0-2.4-2.032Z" transform="translate(179.882 2089.516)" fill="#fafafa" stroke="#656f75" stroke-linecap="round" stroke-linejoin="round" stroke-width="1.5" fill-rule="evenodd"/><path d="M68.4,87.213c-1.13.989-.565,2.684,1.13,3.39,5.368,1.13,17.657.989,20.058-1.836l-.141-5.65C84.647,77.326,69.815,85.942,68.4,87.213Zm-31.217,0c1.13.989.565,2.684-1.13,3.39-5.226,1.13-17.516.989-20.058-1.836l.141-5.65C20.941,77.326,35.773,85.942,37.185,87.213Z" transform="translate(179.737 2084.766)" fill="#ff641e" fill-rule="evenodd"/><path d="M45.231,93.1H61.475a1.114,1.114,0,0,1,1.13,1.13V97.48a1.04,1.04,0,0,1-1.13,1.13H45.231a1.04,1.04,0,0,1-1.13-1.13V94.231A1.114,1.114,0,0,1,45.231,93.1Z" transform="translate(180.058 2083.548)" fill="#656f75" stroke="#656f75" stroke-linecap="round" stroke-width="1.5" fill-rule="evenodd"/><path d="M106.88,28.6h-5.368c-.989,0-1.413.565-1.413,1.554v3.814H98.546a1.6,1.6,0,0,0-1.554,1.7V48.518a1.7,1.7,0,0,0,1.554,1.7h5.085a1.718,1.718,0,0,0,1.7-1.7V35.664a1.632,1.632,0,0,0-1.7-1.7h-1.413V30.721h4.661Z" transform="translate(83.053 2081.966)" fill="#334048" fill-rule="evenodd"/></g></svg>