<svg xmlns="http://www.w3.org/2000/svg" width="118.392" height="85.805" viewBox="0 0 118.392 85.805"><g transform="translate(-806.568 -1090.317)"><g transform="translate(806.764 1091.123)"><path d="M123.754,22.141l-12.633,1.731c-1.384.173-3.115,1.558-3.115,2.942V30.1a2.662,2.662,0,0,0,2.6,2.6h7.441A99.659,99.659,0,0,0,123.754,22.141Z" transform="translate(-108.007 -1.229)" fill="#dcdcdc" fill-rule="evenodd"/><rect width="26.253" height="15.752" rx="4" transform="translate(2.273 69.247)" fill="#dcdcdc"/><rect width="26.253" height="15.752" rx="4" transform="translate(89.719 69.247)" fill="#dcdcdc"/><path d="M108.007,22.141l12.633,1.731c1.384.173,3.115,1.557,3.115,2.942V30.1a2.661,2.661,0,0,1-2.6,2.6h-7.441A99.655,99.655,0,0,1,108.007,22.141Z" transform="translate(-6.494 -1.229)" fill="#dcdcdc" fill-rule="evenodd"/><path d="M2.343,74.7c0-10.821-.31-14.625-.155-25.446C2.343,36.27,7.767,32.56,8.852,31.323c5.352-2.59,4.35-7.236,12.709-23.342.62-.927,4.649-5.256,9.609-6.029a197.92,197.92,0,0,1,58.893,0c4.8.773,8.834,5.1,9.454,6.029,12.212,22.817,7.13,19.825,12.708,23.342,1.7,1.668,6.664,4.947,6.819,17.931,0,10.821-.155,14.625-.155,25.446C118.889,84.622,2.343,85.048,2.343,74.7Z" transform="translate(-1.599 0.25)" fill="#19191a" stroke="#dcdcdc" stroke-width="1.5" fill-rule="evenodd"/><path d="M31.364,9.579a9.472,9.472,0,0,0-5.812,5.415C23.471,21.35,20.2,28.05,18.111,34.3h83.211c-2.971-5.73-5.2-11.954-8.617-19.3a9.737,9.737,0,0,0-6.027-5.415C67.449,5.918,53.335,6.437,31.364,9.579Z" transform="translate(-0.082 -2.9)" stroke="#c8c8c8" stroke-linecap="round" stroke-linejoin="round" stroke-width="1.5" fill-rule="evenodd"/><path d="M3.875,0H29.339a3.875,3.875,0,0,1,0,7.75H3.875a3.875,3.875,0,0,1,0-7.75Z" transform="translate(42.399 70.957)" fill="#c8c8c8"/><path d="M-5915.37-11800.93l38.322,6.73s7.759.76,11.613,0,38.35-6.7,38.35-6.7" transform="translate(5929.931 11860.82)" fill="none" stroke="#c8c8c8" stroke-linecap="round" stroke-linejoin="round" stroke-width="0.75"/><path d="M-5915.37-11800.93l43.98,8.954s8.9,1.012,13.329,0,44.012-8.918,44.012-8.918" transform="translate(5923.413 11846.23)" fill="none" stroke="#c8c8c8" stroke-linecap="round" stroke-linejoin="round" stroke-width="0.75"/><path d="M9.719,51.839c8.133,1.557,16.267,2.6,24.227,4.326a12.608,12.608,0,0,1,4.672,4.845,12.64,12.64,0,0,1,0,3.634c-7.787-1.211-15.4-2.423-23.189-3.807a10.474,10.474,0,0,1-5.884-5.365A7.546,7.546,0,0,1,9.719,51.839Z" transform="translate(-1.765 -4.024)" fill="#ff641e" fill-rule="evenodd"/><path d="M38.461,51.839c-8.133,1.557-16.267,2.6-24.227,4.326A12.608,12.608,0,0,0,9.562,61.01a12.639,12.639,0,0,0,0,3.634c7.787-1.211,15.4-2.423,23.189-3.807a10.474,10.474,0,0,0,5.884-5.364A7.546,7.546,0,0,0,38.461,51.839Z" transform="translate(70.962 -4.024)" fill="#ff641e" fill-rule="evenodd"/></g></g></svg>