<svg xmlns="http://www.w3.org/2000/svg" width="119.39" height="86.807" viewBox="0 0 119.39 86.807"><g transform="translate(5927.242 11919.807)"><rect width="24" height="15" rx="4" transform="translate(-5925 -11848)" fill="#334048"/><rect width="24" height="15" rx="4" transform="translate(-5834 -11848)" fill="#334048"/><path d="M108.007,22.141l11.41,1.563c1.25.156,2.813,1.407,2.813,2.657v2.97a2.4,2.4,0,0,1-2.345,2.345h-6.721A90.012,90.012,0,0,1,108.007,22.141Z" transform="translate(-5931 -11919.75)" fill="#334048" fill-rule="evenodd"/><path d="M2.345,75.536c0-10.941-.313-14.788-.156-25.729.156-13.13,5.627-16.881,6.721-18.131,5.4-2.619,4.387-7.317,12.817-23.6.625-.938,4.689-5.314,9.691-6.1a199.1,199.1,0,0,1,59.4,0c4.845.782,8.909,5.158,9.535,6.1,12.317,23.071,7.191,20.046,12.817,23.6,1.717,1.687,6.721,5,6.877,18.131,0,10.941-.156,14.788-.156,25.729C119.886,85.568,2.345,86,2.345,75.536Z" transform="translate(-5928.645 -11918.75)" fill="#fff" stroke="#334048" stroke-width="1.5" fill-rule="evenodd"/><path d="M122.23,22.141,110.82,23.7c-1.25.156-2.813,1.407-2.813,2.657v2.97a2.4,2.4,0,0,0,2.345,2.345h6.721A90.018,90.018,0,0,0,122.23,22.141Z" transform="translate(-6035 -11919.75)" fill="#334048" fill-rule="evenodd"/><path d="M32.043,9.332a9.6,9.6,0,0,0-6.109,4.891c-2.188,5.741-5.622,11.793-7.822,17.436h87.469c-3.123-5.176-5.466-10.8-9.058-17.436-1.563-3.19-4.459-4.253-6.335-4.891C69.974,6.025,55.138,6.494,32.043,9.332Z" transform="translate(-5928.82 -11922.299)" fill="#fafafa" stroke="#656f75" stroke-linecap="round" stroke-linejoin="round" stroke-width="1.5" fill-rule="evenodd"/><path d="M3.5,0h23a3.5,3.5,0,0,1,0,7H3.5a3.5,3.5,0,0,1,0-7Z" transform="translate(-5882.5 -11846)" fill="#656f75"/><path d="M-5915.37-11800.93l45.068,8.088s9.125.914,13.658,0,45.1-8.055,45.1-8.055" transform="translate(-4.358 -71)" fill="#fff" stroke="#656f75" stroke-linecap="round" stroke-width="0.75"/><path d="M-5915.37-11800.93l41.508,8.088s8.4.914,12.579,0,41.538-8.055,41.538-8.055" transform="translate(-0.258 -59)" fill="#fff" stroke="#656f75" stroke-linecap="round" stroke-width="0.75"/><path d="M9.691,51.839c7.346,1.407,14.693,2.345,21.883,3.908a11.388,11.388,0,0,1,4.22,4.377,11.417,11.417,0,0,1,0,3.282c-7.034-1.094-13.911-2.188-20.945-3.439a9.461,9.461,0,0,1-5.314-4.845A6.816,6.816,0,0,1,9.691,51.839Z" transform="translate(-5929.5 -11921.75)" fill="#ff641e" fill-rule="evenodd"/><path d="M35.652,51.839c-7.346,1.407-14.693,2.345-21.883,3.908a11.388,11.388,0,0,0-4.22,4.376,11.416,11.416,0,0,0,0,3.282c7.034-1.094,13.911-2.188,20.945-3.439a9.46,9.46,0,0,0,5.314-4.845A6.816,6.816,0,0,0,35.652,51.839Z" transform="translate(-5851.5 -11921.75)" fill="#ff641e" fill-rule="evenodd"/></g></svg>