<svg xmlns="http://www.w3.org/2000/svg" width="126.298" height="91.387" viewBox="0 0 126.298 91.387"><g transform="translate(-800.287 -3638.25)"><path d="M57.442,56.25a1.351,1.351,0,0,0-1.332,1.332v8.352a1.332,1.332,0,0,0,2.664,0V57.677a1.332,1.332,0,0,0-1.332-1.427Z" transform="translate(843.408 3645.389)" fill="#1ebaff"/><path d="M53.084,63.777V59.972a1.332,1.332,0,0,0-2.664,0v3.805a1.332,1.332,0,0,0,2.664,0Z" transform="translate(842.486 3647.547)" fill="#bce2ff"/><path d="M63.792,53.44a1.351,1.351,0,0,0-1.332,1.332v13.7a1.332,1.332,0,0,0,2.664,0v-13.7a1.332,1.332,0,0,0-1.332-1.332Z" transform="translate(844.104 3642.854)" fill="#334048"/><path d="M69.825,50.744a1.332,1.332,0,0,0,0-2.664h-18.7a1.332,1.332,0,1,0,0,2.664Z" transform="translate(808.977 3643.506)" fill="#bce2ff"/><path d="M26.691,58.619c-15.116,0-30.713,1.6-24.878-22.279,0,0,1.714-9.493,13.017-15.27" transform="translate(800.441 3657.539)" fill="none" stroke="#334048" stroke-linecap="round" stroke-linejoin="round" stroke-width="1.5"/><path d="M13.85,58.582c15.116,0,30.809,1.6,24.878-22.2,0,0-1.714-9.493-13.017-15.27" transform="translate(812.742 3657.576)" fill="none" stroke="#334048" stroke-linecap="round" stroke-linejoin="round" stroke-width="1.5"/><circle cx="3.5" cy="3.5" r="3.5" transform="translate(823.574 3685.014)" fill="#bce2ff"/><circle cx="3.5" cy="3.5" r="3.5" transform="translate(823.574 3696.014)" fill="#bce2ff"/><circle cx="3.5" cy="3.5" r="3.5" transform="translate(823.574 3707.014)" fill="#bce2ff"/><path d="M51.122,43.834H88.527a1.332,1.332,0,1,0,0-2.664H51.122a1.332,1.332,0,1,0,0,2.664Z" transform="translate(808.977 3644.053)" fill="#334048"/><path d="M57.442,56.25a1.351,1.351,0,0,0-1.332,1.332v8.352a1.332,1.332,0,0,0,2.664,0V57.677a1.332,1.332,0,0,0-1.332-1.427Z" transform="translate(843.408 3645.389)" fill="#ff641e"/><path d="M53.084,63.777V59.972a1.332,1.332,0,0,0-2.664,0v3.805a1.332,1.332,0,0,0,2.664,0Z" transform="translate(842.486 3647.547)" fill="#fafafa" stroke="#656f75" stroke-linecap="round" stroke-linejoin="round" stroke-width="1.5"/><path d="M63.792,53.44a1.351,1.351,0,0,0-1.332,1.332v13.7a1.332,1.332,0,0,0,2.664,0v-13.7a1.332,1.332,0,0,0-1.332-1.332Z" transform="translate(844.104 3642.854)" fill="#334048"/><path d="M69.825,50.744a1.332,1.332,0,0,0,0-2.664h-18.7a1.332,1.332,0,1,0,0,2.664Z" transform="translate(808.977 3644.506)" fill="#fafafa" stroke="#656f75" stroke-linecap="round" stroke-linejoin="round" stroke-width="1.5"/><path d="M52.481,77.561H102.2V18.023A17.5,17.5,0,0,0,84.677.5H25.408A10.668,10.668,0,0,0,14.74,11.091v66.47H39.772" transform="translate(813.566 3638.5)" fill="none" stroke="#334048" stroke-miterlimit="10" stroke-width="1.5"/><path d="M20.58.5C32.018.5,34.714,16.733,34.714,16.733V86.188a4.255,4.255,0,0,0,4.795,4.159,5.469,5.469,0,0,0,5.777-4.833V79.622a2.06,2.06,0,0,1,2.06-2.06H104.8a2.06,2.06,0,0,1,2.06,2.06v.193A10.552,10.552,0,0,1,96.312,90.386h-56.8" transform="translate(818.971 3638.5)" fill="none" stroke="#334048" stroke-miterlimit="10" stroke-width="1.5"/><rect width="16.464" height="55.091" transform="translate(818.467 3661.067)" fill="#fff"/><path d="M6.676,18.008s-6.162-3.967,0-9.8C11.529,3.643,16.9,2.834,23.082,2.68h-.135c6.181.154,11.553.963,16.387,5.526,6.2,5.777,0,9.8,0,9.8Z" transform="translate(803.568 3640.518)" fill="#656f75" stroke="#656f75" stroke-linecap="round" stroke-linejoin="round" stroke-width="1.5"/><path d="M26.691,58.619c-15.116,0-30.713,1.6-24.878-22.279,0,0,1.714-9.493,13.017-15.27" transform="translate(800.441 3657.539)" fill="none" stroke="#334048" stroke-linecap="round" stroke-linejoin="round" stroke-width="1.5"/><path d="M13.85,58.582c15.116,0,30.809,1.6,24.878-22.2,0,0-1.714-9.493-13.017-15.27" transform="translate(812.742 3657.576)" fill="none" stroke="#334048" stroke-linecap="round" stroke-linejoin="round" stroke-width="1.5"/><path d="M23.211,42.482A16.5,16.5,0,0,1,6.189,26.557a15.289,15.289,0,0,1,.6-4.217V18.008s-6.162-3.967,0-9.8C11.658,3.643,17.069,2.834,23.211,2.68" transform="translate(803.67 3640.518)" fill="none" stroke="#334048" stroke-linecap="round" stroke-linejoin="round" stroke-width="1.5"/><path d="M14,42.482A16.5,16.5,0,0,0,31.022,26.557a15.289,15.289,0,0,0-.6-4.217V18.008s6.162-3.967,0-9.8C25.553,3.643,20.1,2.834,14,2.68" transform="translate(812.881 3640.518)" fill="none" stroke="#334048" stroke-linecap="round" stroke-linejoin="round" stroke-width="1.5"/><path d="M38.552,12.355l-.635,4.737-31.93.027-.5-4.764S9.372,7.638,22.157,7.638,38.552,12.355,38.552,12.355Z" transform="translate(805.004 3645.092)" fill="#ff641e"/><rect width="7" height="23" rx="0.48" transform="translate(865.574 3647.015)" fill="#ff641e"/><rect width="6" height="23" rx="0.48" transform="translate(884.574 3647.015)" fill="#ff641e"/><rect width="7" height="23" rx="0.48" transform="translate(896.574 3647.015)" fill="#ff641e"/><rect width="3" height="30" rx="0.32" transform="translate(859.574 3647.015)" fill="#ff641e"/><rect width="4" height="23" rx="0.27" transform="translate(877.574 3647.015)" fill="#ff641e"/><rect width="3" height="30" rx="0.32" transform="translate(906.574 3647.015)" fill="#ff641e"/><circle cx="3.5" cy="3.5" r="3.5" transform="translate(823.574 3685.014)" fill="#656f75"/><circle cx="3.5" cy="3.5" r="3.5" transform="translate(823.574 3696.014)" fill="#334048"/><circle cx="3.5" cy="3.5" r="3.5" transform="translate(823.574 3707.014)" fill="#656f75"/></g></svg>