<svg id="Layer_1" data-name="Layer 1" xmlns="http://www.w3.org/2000/svg" viewBox="0 0 109.14 81.23"><path d="M131.7,27.1a6.73,6.73,0,0,0-1.9-3.4,6.53,6.53,0,0,0-1.5-1,7.75,7.75,0,0,0-3-.7H44.4a6.58,6.58,0,0,0-3,.7,5.6,5.6,0,0,0-1.5,1A6.33,6.33,0,0,0,38,27.1a7.72,7.72,0,0,0-.2,1.5V50.2a18.19,18.19,0,0,1,3.1-1.6V46.2h87.8v2.2l.1,28.6c0,2.4-1.6,3.6-3.9,3.6H64.8a23.45,23.45,0,0,1-3.2,3.1H125a6.54,6.54,0,0,0,6.9-6.8V28.6A7.72,7.72,0,0,0,131.7,27.1Zm-2.9,5.5H40.9v-4a3.34,3.34,0,0,1,.3-1.5.35.35,0,0,1,.1-.2c0-.1.1-.1.1-.2a3.68,3.68,0,0,1,3.2-1.5h80.5a3.68,3.68,0,0,1,3.2,1.5c0,.1.1.1.1.2a.35.35,0,0,0,.1.2,3.34,3.34,0,0,1,.3,1.5v4Z" transform="translate(-22.76 -5.37)" fill="#c8c8c8"/><path d="M35.5,51.6V26a7.72,7.72,0,0,1,.2-1.5,5.88,5.88,0,0,1,2-3.4,5.37,5.37,0,0,1,1.6-1,6.3,6.3,0,0,1,3-.7h70.4l-.9-8.4a6.16,6.16,0,0,0-6.9-5.6h-.1L28.5,13.2h-.1a6.15,6.15,0,0,0-5.6,6.9l4.7,45.7.3,1.5C27.4,61.1,30.7,55.3,35.5,51.6Z" transform="translate(-22.76 -5.37)" fill="#ff641e"/><path d="M48.1,49.4a18.91,18.91,0,0,0-8.5,2.3,18.57,18.57,0,0,0-9.7,17.1,18.22,18.22,0,0,0,5.8,12.7l-4,.1a1.4,1.4,0,1,0,0,2.8l7.9-.2h0a1.28,1.28,0,0,0,1-.4h0l.1-.1.1-.1c0-.1.1-.2.1-.3h0c.1,0,.1-.1.1-.2h0v-.3h0l-.2-7.9a1.51,1.51,0,0,0-1.4-1.4A1.52,1.52,0,0,0,38,75l.2,5a15.35,15.35,0,0,1-5.5-11.2A15.58,15.58,0,0,1,41,54.3h0a15.81,15.81,0,0,1,7.2-2h0a1.51,1.51,0,0,0,1.4-1.4A1.47,1.47,0,0,0,48.1,49.4Z" transform="translate(-22.76 -5.37)" fill="#ff641e"/><path d="M39.7,51.8Z" transform="translate(-22.76 -5.37)" fill="#ff641e"/><path d="M48.8,86.6a18.91,18.91,0,0,0,8.5-2.3A18.57,18.57,0,0,0,67,67.2a18.22,18.22,0,0,0-5.8-12.7l4-.1a1.4,1.4,0,0,0,0-2.8l-7.9.2h0a1.28,1.28,0,0,0-1,.4h0l-.1.1-.2.1c0,.1-.1.2-.1.3h0c-.1,0-.1.1-.1.2h0v.3h0l.2,7.9a1.4,1.4,0,0,0,2.8,0l-.2-5a15.35,15.35,0,0,1,5.5,11.2,15.86,15.86,0,0,1-8.3,14.5h0a15.81,15.81,0,0,1-7.2,2h0a1.51,1.51,0,0,0-1.4,1.4C47.2,85.9,48,86.5,48.8,86.6Z" transform="translate(-22.76 -5.37)" fill="#c8c8c8"/><path d="M57.3,84.2Z" transform="translate(-22.76 -5.37)" fill="#c8c8c8"/></svg>