<svg xmlns="http://www.w3.org/2000/svg" xmlns:xlink="http://www.w3.org/1999/xlink" width="122.5" height="84" viewBox="0 0 122.5 84"><defs><clipPath id="a"><rect width="23" height="28" transform="translate(-14169 -3360)" fill="none" stroke="#707070" stroke-width="1"/></clipPath><clipPath id="b"><rect width="23" height="28" transform="translate(-14209 -3393)" fill="none" stroke="#707070" stroke-width="1"/></clipPath></defs><g transform="translate(1 1)"><rect width="92" height="63" rx="10" fill="none" stroke="#334048" stroke-miterlimit="10" stroke-width="2"/><rect width="80.684" height="8.275" rx="3" transform="translate(5.5 14.892)" fill="#ff641e"/><g transform="translate(6.905 38.641)"><rect width="42.277" height="5.42" rx="2.71" transform="translate(0 9.756)" fill="#ff641e"/><rect width="21.681" height="5.42" rx="2.71" transform="translate(0.517 0)" fill="#fafafa" stroke="#656f75" stroke-linecap="round" stroke-linejoin="round" stroke-width="1.5"/></g><path d="M230.829,97.905l1.145,13.083,12.3-4.579,2.944,6.541-12.592,4.187,9.027,11.088-5.462,4.252-8.8-11.513-6.542,11.513-6.182-4.154,6.967-11.088-13.083-4.187,1.8-6.542,13.083,4.416L224.287,97.84Z" transform="translate(-137.179 -62.199)" fill="#fff" stroke="#334048" stroke-linecap="round" stroke-linejoin="round" stroke-width="2"/><g transform="translate(14267.5 3415)" clip-path="url(#a)"><g transform="translate(-14202 -3388)" fill="none" stroke="#334048" stroke-width="2"><circle cx="26" cy="26" r="26" stroke="none"/><circle cx="26" cy="26" r="25" fill="none"/></g></g><g transform="translate(14267.5 3415)" clip-path="url(#b)"><g transform="translate(-14202 -3388)" fill="none" stroke="#334048" stroke-width="2"><circle cx="26" cy="26" r="26" stroke="none"/><circle cx="26" cy="26" r="25" fill="none"/></g></g></g></svg>