<svg id="Layer_1" data-name="Layer 1" xmlns="http://www.w3.org/2000/svg" viewBox="0 0 119.47 86.1"><path d="M89.9,39.1a1.7,1.7,0,0,1,0-3.4h12a11.25,11.25,0,0,0-20.7-4,11.46,11.46,0,0,0-9.6-5.4A11.59,11.59,0,0,0,60.9,34a10.88,10.88,0,0,0-.7,4,12.09,12.09,0,0,0,.6,3.8,9.77,9.77,0,0,0,1.3,2.5c.8,1,1.6,2.1,2,2.5l17,17.5L98.7,46.2a10.59,10.59,0,0,0,2.6-4.3,13.56,13.56,0,0,0,.6-2.9Z" transform="translate(-17.46 -2.9)" fill="#ff641e"/><path d="M17.5,60.4V75.7a1.77,1.77,0,0,0,1.8,1.7,33.08,33.08,0,0,1,7.1,1.2l.6.2c.1,0,.1,0,.2.1,9.2,2.3,28.4,7.2,39.1,9.9h.2a8.75,8.75,0,0,0,1.6.2,9.12,9.12,0,0,0,2.7-.5l.3-.1c.2-.1.4-.1.5-.3l29.8-21.6a6.1,6.1,0,0,0,1.6-1.2l.1-.1a6.73,6.73,0,0,0,2-4.8,7,7,0,0,0-6.3-6.9,5.41,5.41,0,0,0-2.2,0c-.3.1-.6.1-.9.2s-.7.3-1.1.4l-.6.3c-.1,0-.1.1-.2.1L90.6,57,72.7,68.6h-.8c-.8-.2-3.5-.9-11.4-3l-.3-.1c-1.5-.4-3-.8-4.4-1.2l-4.2-1.1a3.28,3.28,0,0,1-1.5-2.7,3.24,3.24,0,0,1,2.5-3.2H64a4.9,4.9,0,1,0,0-9.8H51.7c-1.6,0-3.5-.1-6-.1A21.67,21.67,0,0,0,32.5,52a19.52,19.52,0,0,0-2.3,1.7c-3.5,2.6-6.5,4.8-10.9,4.8a1.75,1.75,0,0,0-1.4.7A1.15,1.15,0,0,0,17.5,60.4ZM21,74.1V61.7c4.7-.5,8-3,11.3-5.4l2.2-1.6c2.9-2,6.2-3.9,11.1-3.9,2.4,0,4.4,0,6,.1H64a1.6,1.6,0,0,1,0,3.2H52.2a6.65,6.65,0,0,0-5.6,6.5A6.41,6.41,0,0,0,50,66.3c.1.1.3.1.4.2l4.5,1.2c1.4.3,2.8.7,4.3,1.1l.3.1c6.9,1.8,10.8,2.8,11.6,3h.3a7.86,7.86,0,0,0,2.3-.2,1.42,1.42,0,0,0,.6-.2L92.6,59.7l.1-.1,3.2-2.3h0c.1-.1.2-.1.3-.2s.3-.2.5-.2.2-.1.4-.1h1.2a3.59,3.59,0,0,1,3.2,3.6,3.63,3.63,0,0,1-1.1,2.6h0a2.1,2.1,0,0,1-.8.6.35.35,0,0,0-.2.1L69.7,85.4l-.1.1a4.07,4.07,0,0,1-2.2.2h-.1C56.6,83,37.4,78.1,28.2,75.8l-.6-.2c-.1,0-.1,0-.2-.1A64.49,64.49,0,0,0,21,74.1Z" transform="translate(-17.46 -2.9)" fill="#c8c8c8"/><path d="M136.9,30V15.5a1.69,1.69,0,0,0-1.8-1.6,34.73,34.73,0,0,1-7.2-1.2l-.6-.2c-.1,0-.1,0-.2-.1C117.9,10.3,98.5,5.6,87.7,3h-.2c-.5,0-1.1-.1-1.6-.1a8.42,8.42,0,0,0-2.7.4l-.3.1c-.2.1-.4.1-.5.3l-30,20.5a9.06,9.06,0,0,0-1.6,1.1l-.1.1a6.29,6.29,0,0,0-2,4.6,6.66,6.66,0,0,0,6.4,6.5,5.43,5.43,0,0,0,2.2,0,2.92,2.92,0,0,0,.9-.2,4.87,4.87,0,0,0,1.1-.4l.6-.3c.1,0,.1-.1.2-.1l3.3-2.2,18.1-11h.8c.8.2,3.5.8,11.4,2.8l.3.1c1.5.4,3,.8,4.4,1.1l4.2,1.1a3,3,0,0,1-1,5.6H90a4.92,4.92,0,0,0-5.1,4.7A4.92,4.92,0,0,0,90,42.4h12.4c1.6,0,3.5.1,6.1.1a23.59,23.59,0,0,0,13.3-4.3c.8-.5,1.6-1.1,2.3-1.6,3.5-2.5,6.5-4.6,11-4.6a1.8,1.8,0,0,0,1.5-.7A1.52,1.52,0,0,0,136.9,30Zm-3.6-12.9V28.8c-4.7.5-8.1,2.9-11.4,5.2-.7.5-1.5,1-2.2,1.5a19.33,19.33,0,0,1-11.1,3.7c-2.5,0-4.4,0-6-.1H90.1a1.5,1.5,0,0,1,0-3h12a6.33,6.33,0,0,0,5.6-6.2,6.1,6.1,0,0,0-3.5-5.4c-.1-.1-.3-.1-.4-.2l-4.5-1.1c-1.4-.3-2.8-.7-4.3-1.1l-.4-.1c-6.9-1.7-10.9-2.7-11.7-2.9h-.3a9,9,0,0,0-2.4.2,1.42,1.42,0,0,0-.6.2L61.2,30.7h-.1L57.9,33h0c-.1.1-.2.1-.3.2s-.3.1-.5.2-.2.1-.4.1H55.5a3.47,3.47,0,0,1-3.2-3.4,3.19,3.19,0,0,1,1.1-2.4h0a5.55,5.55,0,0,0,.8-.6.35.35,0,0,0,.2-.1l30-20.6.1-.1a4.12,4.12,0,0,1,2.2-.1h.1c10.7,2.6,30.1,7.2,39.3,9.4l.6.2c.1,0,.1,0,.2.1,2.6.5,4.7.9,6.4,1.2Z" transform="translate(-17.46 -2.9)" fill="#c8c8c8"/></svg>