<?xml version="1.0" encoding="utf-8"?>
<!-- Generator: Adobe Illustrator 26.0.0, SVG Export Plug-In . SVG Version: 6.00 Build 0)  -->
<svg version="1.1" id="Layer_1" xmlns="http://www.w3.org/2000/svg" xmlns:xlink="http://www.w3.org/1999/xlink" x="0px" y="0px"
	 viewBox="0 0 154.4 91.9" style="enable-background:new 0 0 154.4 91.9;" xml:space="preserve">
<style type="text/css">
	.st0{fill-rule:evenodd;clip-rule:evenodd;fill:#C8C8C8;}
	.st1{fill:#C8C8C8;}
	.st2{fill-rule:evenodd;clip-rule:evenodd;fill:#FF641E;}
	.st3{fill:#FF641E;}
</style>
<g>
	<path class="st0" d="M118,42.1H94.9c-1.6,0-2.9,1.3-2.9,3v13.8c0,1.6,1.3,3,2.9,3H118c1.6,0,2.9-1.3,2.9-3V45.1
		C120.9,43.5,119.6,42.1,118,42.1z M106,57.6c-3.1,0-5.8-2.6-5.8-5.8s2.6-5.8,5.8-5.8s5.8,2.5,5.8,5.8C111.9,55,109.3,57.6,106,57.6
		z"/>
	<path class="st1" d="M93.8,39.4h25.5V26c0-3.3-2.9-7.1-7.2-7.1H36c-3.5,0-7.1,2.6-7.1,7.1v22.8c1.2-0.8,2-1.2,3.3-1.6
		c0-7.1,0-14.2,0-21.2c0-2.7,1.7-3.8,3.8-3.8h76.1c2.7,0,4,1.7,4,3.9v10H93.8c-3.8,0-8.7,3.2-8.7,8.7v14.7c0,2.3,1,4.6,2.5,6.1l0,0
		c0,0,0,0,0,0c0,0,0,0,0.1,0.1l0,0c1.6,1.6,3.8,2.5,6.1,2.5l22.3,0v10c0,2.5-1.7,3.9-4.2,3.9c-17.9,0-35.5,0-53.4,0
		c-0.3,0.7-1.9,2.4-3.3,3.3c18.9,0,37.7,0,56.7,0c4.5,0,7.4-3.2,7.4-7.3V65H93.8c-1.5,0-2.9-0.6-3.8-1.6c-1-1-1.6-2.2-1.6-3.8V44.8
		C88.4,41.4,90.9,39.4,93.8,39.4z"/>
</g>
<path class="st2" d="M36.7,16.3c17-4.2,47.1-8.6,64-12.8c1.5,0,2.5,0.7,3.1,1.8c1,3.7,1.9,7.3,2.9,11C87.7,16.3,55.6,16.3,36.7,16.3
	L36.7,16.3z"/>
<path class="st1" d="M40.3,48.5c-11,0-19.9,8.9-19.9,19.9s8.9,19.9,19.9,19.9s19.9-8.9,19.9-19.9C60.2,57.4,51.3,48.5,40.3,48.5z
	 M52.1,80.2c-3,3-7.2,4.9-11.8,4.9s-8.7-1.9-11.8-4.9c-3-3-4.9-7.2-4.9-11.8c0-4.6,1.9-8.7,4.9-11.8c3-3,7.2-4.9,11.8-4.9
	s8.7,1.9,11.8,4.9c3,3,4.9,7.2,4.9,11.8C56.9,73.1,55.1,77.2,52.1,80.2z"/>
<g>
	<path class="st3" d="M48.4,61.7L36.6,73.4L32.1,69c-0.7-0.6-1.7-0.6-2.3,0c-0.6,0.7-0.6,1.7,0,2.3l5.6,5.5c0.6,0.6,1.7,0.6,2.3,0
		L50.8,64c0.6-0.6,0.6-1.7,0-2.3C50.1,61,49.1,61,48.4,61.7L48.4,61.7z"/>
</g>
</svg>
