<svg id="Layer_1" data-name="Layer 1" xmlns="http://www.w3.org/2000/svg" viewBox="0 0 100.5 84.8"><path d="M118,42.1H94.9a2.93,2.93,0,0,0-2.9,3V58.9a3,3,0,0,0,2.9,3H118a2.93,2.93,0,0,0,2.9-3V45.1A3,3,0,0,0,118,42.1ZM106,57.6a5.87,5.87,0,0,1-5.8-5.8A5.8,5.8,0,0,1,106,46a5.74,5.74,0,0,1,5.8,5.8A5.68,5.68,0,0,1,106,57.6Z" transform="translate(-20.4 -3.5)" fill="#c8c8c8" fill-rule="evenodd"/><path d="M93.8,39.4h25.5V26a7.34,7.34,0,0,0-7.2-7.1H36A7,7,0,0,0,28.9,26V48.8a11.18,11.18,0,0,1,3.3-1.6V26A3.47,3.47,0,0,1,36,22.2h76.1a3.65,3.65,0,0,1,4,3.9v10H93.8a8.88,8.88,0,0,0-8.7,8.7V59.5a8.88,8.88,0,0,0,2.5,6.1h0l.1.1h0a8.62,8.62,0,0,0,6.1,2.5h22.3v10c0,2.5-1.7,3.9-4.2,3.9H58.5a11.28,11.28,0,0,1-3.3,3.3h56.7a7.06,7.06,0,0,0,7.4-7.3V65H93.8a5.46,5.46,0,0,1-5.4-5.4V44.8A5.2,5.2,0,0,1,93.8,39.4Z" transform="translate(-20.4 -3.5)" fill="#c8c8c8"/><path d="M36.7,16.3c17-4.2,47.1-8.6,64-12.8a3.31,3.31,0,0,1,3.1,1.8c1,3.7,1.9,7.3,2.9,11Z" transform="translate(-20.4 -3.5)" fill="#ff641e" fill-rule="evenodd"/><path d="M40.3,48.5A19.9,19.9,0,1,0,60.2,68.4,19.89,19.89,0,0,0,40.3,48.5ZM52.1,80.2a16.71,16.71,0,0,1-11.8,4.9,16.89,16.89,0,0,1-11.8-4.9,16.71,16.71,0,0,1-4.9-11.8,16.89,16.89,0,0,1,4.9-11.8,16.71,16.71,0,0,1,11.8-4.9,16.89,16.89,0,0,1,11.8,4.9A16.71,16.71,0,0,1,57,68.4,17,17,0,0,1,52.1,80.2Z" transform="translate(-20.4 -3.5)" fill="#c8c8c8"/><path d="M48.4,61.7,36.6,73.4,32.1,69a1.63,1.63,0,0,0-2.3,2.3l5.6,5.5a1.69,1.69,0,0,0,2.3,0L50.8,64a1.69,1.69,0,0,0,0-2.3,1.63,1.63,0,0,0-2.4,0Z" transform="translate(-20.4 -3.5)" fill="#ff641e"/></svg>