<svg xmlns="http://www.w3.org/2000/svg" xmlns:xlink="http://www.w3.org/1999/xlink" width="134.131" height="132.929" viewBox="0 0 134.131 132.929"><defs><filter id="a" x="0" y="0" width="134.131" height="132.929" filterUnits="userSpaceOnUse"><feOffset dy="5" input="SourceAlpha"/><feGaussianBlur stdDeviation="5" result="b"/><feFlood flood-opacity="0.161"/><feComposite operator="in" in2="b"/><feComposite in="SourceGraphic"/></filter></defs><g transform="translate(-483 -1705)"><g transform="matrix(1, 0, 0, 1, 483, 1705)" filter="url(#a)"><path d="M12.015,0h78.1a12.015,12.015,0,0,1,12.015,12.015v76.9a12.015,12.015,0,0,1-12.015,12.015h-78.1A12.015,12.015,0,0,1,0,88.914v-76.9A12.015,12.015,0,0,1,12.015,0Z" transform="translate(16 11)" fill="#fff" stroke="#334048" stroke-width="2"/></g><path d="M62.757,293.921h9.1a2.257,2.257,0,0,0,2.254-2.254v-9.1c0-3.8,5.739-3.8,5.739,0v9.1a8,8,0,0,1-7.993,7.993h-9.1C58.961,299.66,58.96,293.921,62.757,293.921ZM12.9,282.565c0-3.8,5.739-3.8,5.739,0v9.1a2.257,2.257,0,0,0,2.254,2.254h9.1c3.8,0,3.8,5.739,0,5.739h-9.1a8,8,0,0,1-7.993-7.993Z" transform="translate(502.925 1499.964)" fill="#fafafa" stroke="#656f75" stroke-linecap="round" stroke-linejoin="round" stroke-width="1.5"/><path d="M62.757,285.457h9.1a2.257,2.257,0,0,1,2.254,2.253v9.1c0,3.8,5.739,3.8,5.739,0v-9.1a8,8,0,0,0-7.993-7.992h-9.1C58.961,279.718,58.96,285.457,62.757,285.457ZM12.9,296.812c0,3.8,5.739,3.8,5.739,0v-9.1a2.257,2.257,0,0,1,2.254-2.253h9.1c3.8,0,3.8-5.739,0-5.739h-9.1A8,8,0,0,0,12.9,287.71Z" transform="translate(502.925 1453.104)" fill="#fafafa" stroke="#656f75" stroke-linecap="round" stroke-linejoin="round" stroke-width="1.5"/><rect width="59" height="6" rx="3" transform="translate(518.565 1764.465)" fill="#ff641e"/></g></svg>