<svg id="Layer_1" data-name="Layer 1" xmlns="http://www.w3.org/2000/svg" viewBox="0 0 154.4 91.9"><path d="M117,72.4l-6.1-13.5a1,1,0,0,0-1.3-.5l-2.4,1.1v-.1a.37.37,0,0,0-.3-.1l-.6.3a.37.37,0,0,0-.1.3V60L104,61,99,49.9l.1-.1c.1,0,.1-.1.1-.2l-.1-.3h0l-.1-.4c0-.1-.1-.1-.2-.1l-1,.5c-.1,0-.1.1-.1.2l.1.3h0l.1.3a.1.1,0,0,0,.1.1h.1l.1-.1,5.1,11.3a1,1,0,0,0-.1.9l6.1,13.5a1,1,0,0,0,.9.6,1.78,1.78,0,0,0,.7.8,1.35,1.35,0,0,0,1.6-.7,1.18,1.18,0,0,0-.1-1l.7-.3h.1l.6-.3h.1l2.5-1.1A1.1,1.1,0,0,0,117,72.4Z" fill="#c8c8c8" fill-rule="evenodd"/><path d="M35.8,81.1H57.3a1.79,1.79,0,0,0,1.8-1.8V79a1.79,1.79,0,0,0-1.8-1.8H35.8A1.79,1.79,0,0,0,34,79v.3A1.79,1.79,0,0,0,35.8,81.1Z" fill="#c8c8c8"/><path d="M26.3,19.1a1.82,1.82,0,0,0-1.9,1.8l.1,58.3A1.82,1.82,0,0,0,26.4,81h.1a1.9,1.9,0,0,0,1.9-1.9V24.4a1.88,1.88,0,0,1,1.9-1.8H63.4a1.82,1.82,0,0,1,1.9,1.8V79.1A1.9,1.9,0,0,0,67.2,81h.1a1.9,1.9,0,0,0,1.9-1.9V20.8A1.88,1.88,0,0,0,67.3,19H64V18h3.1A1.82,1.82,0,0,0,69,16.2V12.5a1.88,1.88,0,0,0-1.9-1.8H26.3a1.82,1.82,0,0,0-1.9,1.8v3.7A1.88,1.88,0,0,0,26.3,18h3.1v1.1Z" fill="#c8c8c8" fill-rule="evenodd"/><path d="M130,73.7V26.9a7.37,7.37,0,0,0-7.8-7.7H71.6s1,.3,1,1.8v1.6H122c2.6,0,4.4,1.4,4.4,4.1l-.1,24.4.1,22.4a4.31,4.31,0,0,1-.3,1.7.35.35,0,0,0-.1.2c0,.1-.1.1-.1.2a4.06,4.06,0,0,1-3.6,1.7H72.6v1.9a2,2,0,0,1-.8,1.9h50.9a8.08,8.08,0,0,0,3.4-.8,5.45,5.45,0,0,0,1.7-1.1,7.27,7.27,0,0,0,2.2-3.9A8.48,8.48,0,0,0,130,73.7Z" fill="#c8c8c8"/><path d="M96.6,41.4A6.63,6.63,0,0,1,93,42.5a6.38,6.38,0,0,1-3.6-1.1,7.84,7.84,0,0,0-6.3,7.7v7.4a2.8,2.8,0,0,0,2.8,2.8h.7V74.7a2.69,2.69,0,0,0,2.7,2.7h.5a2.69,2.69,0,0,0,2.7-2.7V64.1a.7.7,0,0,1,1.4,0V74.6a2.69,2.69,0,0,0,2.7,2.7h.5a2.69,2.69,0,0,0,2.7-2.7V59.3h.7a2.8,2.8,0,0,0,2.8-2.8V49.1A8.62,8.62,0,0,0,96.6,41.4Z" fill="#ff641e"/><path d="M89.5,40A5.6,5.6,0,0,0,93,41.3,5.2,5.2,0,0,0,96.5,40a5.47,5.47,0,0,0,2-4.2,5.5,5.5,0,0,0-11,0A5.47,5.47,0,0,0,89.5,40Z" fill="#ff641e"/><path d="M57.4,40.3l-15.2,15-5.8-5.7a2.12,2.12,0,0,0-3,3l7.2,7.1a2.17,2.17,0,0,0,3,0L60.4,43.3a2.18,2.18,0,0,0,0-3,2,2,0,0,0-3,0Z" fill="#ff641e"/></svg>