<svg xmlns="http://www.w3.org/2000/svg" width="139.872" height="124.5" viewBox="0 0 139.872 124.5"><g transform="translate(-468 -3616.97)"><rect width="17" height="80" rx="2" transform="translate(475 3656)" fill="#ff641e"/><path d="M-5376.988-9823.241l-10.18-2.1-7.917-1.635" transform="matrix(0.996, -0.087, 0.087, 0.996, 6722.773, 13000.089)" fill="none" stroke="#334048" stroke-linecap="round" stroke-linejoin="round" stroke-width="3"/><rect width="31" height="7" rx="1" transform="translate(468 3734)" fill="#334048"/><path d="M14.806,20.609a1.322,1.322,0,0,0-1.115,1.465V32.188a1.346,1.346,0,0,0,1.115,1.465,60.67,60.67,0,0,0,12.478,0,1.348,1.348,0,0,0,1.088-1.465V22.074c0-.822-.5-1.465-1.088-1.465Z" transform="translate(462.416 3652.025)" fill="#fafafa" stroke="#656f75" stroke-linecap="round" stroke-linejoin="round" stroke-width="1.5" fill-rule="evenodd"/><g transform="translate(-326.738 14.664)"><path d="M4481.547,64.363c8.845-10.391,33.009-10.618,42.847-1.015-2.321-10.244-9.165-19.433-19.036-26.458-11.3-8.054-25.611-12.675-40.358-13.89,3.649,2.457,7.063,6.678,9.871,12.675C4478.436,43.261,4480.857,53.238,4481.547,64.363Z" transform="translate(-3593.917 3580.189)" fill="#fafafa" stroke="#656f75" stroke-linecap="round" stroke-linejoin="round" stroke-width="1.5"/><path d="M2758.15,41.592c-.706-10.724-3.061-20.312-6.474-27.591-8.593-18.336-21.609-18.336-30.2,0-3.414,7.265-5.751,16.827-6.474,27.524C2724.316,31.336,2748.918,31.363,2758.15,41.592Z" transform="translate(-1873.345 3602.556)" fill="#334048" stroke="#334048" stroke-width="1"/><path d="M42.814,64.431c.706-11.143,3.128-21.15,6.693-28.752,2.808-6,6.222-10.221,9.871-12.679C44.63,24.216,30.319,28.839,19.019,36.895,9.165,43.909,2.321,53.074,0,63.308,9.9,53.742,34.036,54.01,42.814,64.431Z" transform="translate(796 3580.189)" fill="#fafafa" stroke="#656f75" stroke-linecap="round" stroke-linejoin="round" stroke-width="1.5"/></g><g transform="translate(-329 361.47)"><path d="M-5376.931-9820.624l-10.211-3.574-7.942-2.78" transform="translate(6238.361 13148.996)" fill="none" stroke="#334048" stroke-linecap="round" stroke-linejoin="round" stroke-width="3"/><g transform="translate(6647.269 12862.732)"><g transform="translate(-5811 -9555)"><rect width="20" height="12" rx="4" transform="translate(1.731 60.267)" fill="#334048"/><rect width="20" height="12" rx="4" transform="translate(78.731 60.267)" fill="#334048"/><path d="M108.007,22.141l9.624,1.318c1.055.132,2.373,1.186,2.373,2.241v2.5a2.028,2.028,0,0,1-1.977,1.977h-5.669A75.918,75.918,0,0,1,108.007,22.141Z" transform="translate(-20.291 -4.099)" fill="#334048" fill-rule="evenodd"/><path d="M2.313,63.67c0-9.228-.264-12.473-.132-21.7C2.313,30.9,6.927,27.731,7.85,26.677c4.552-2.209,3.7-6.171,10.81-19.907.527-.791,3.955-4.482,8.174-5.141a167.925,167.925,0,0,1,50.1,0c4.087.659,7.514,4.35,8.042,5.141,10.388,19.459,6.065,16.907,10.81,19.907,1.449,1.423,5.669,4.219,5.8,15.292,0,9.228-.132,12.473-.132,21.7C101.451,72.131,2.313,72.5,2.313,63.67Z" transform="translate(-1.729 0.25)" fill="#fff" stroke="#334048" stroke-width="1.5" fill-rule="evenodd"/><path d="M120,22.141l-9.624,1.318c-1.055.132-2.373,1.187-2.373,2.241v2.5a2.028,2.028,0,0,0,1.977,1.978h5.669A75.923,75.923,0,0,0,120,22.141Z" transform="translate(-108.007 -4.099)" fill="#334048" fill-rule="evenodd"/><path d="M29.861,8.971A8.1,8.1,0,0,0,24.709,13.1c-1.846,4.842-4.742,9.946-6.6,14.706H91.885c-2.634-4.365-4.61-9.107-7.639-14.706A8.382,8.382,0,0,0,78.9,8.971C61.853,6.182,49.34,6.577,29.861,8.971Z" transform="translate(-4.376 -3.882)" fill="#fafafa" stroke="#656f75" stroke-linecap="round" stroke-linejoin="round" stroke-width="1.5" fill-rule="evenodd"/><path d="M2.952,0h19.4a2.952,2.952,0,0,1,0,5.9H2.952a2.952,2.952,0,0,1,0-5.9Z" transform="translate(37.527 61.57)" fill="#656f75"/><path d="M-5915.37-11800.929l33.7,5.127s6.823.579,10.213,0,33.725-5.106,33.725-5.106" transform="translate(5926.462 11852.328)" fill="#fff" stroke="#656f75" stroke-linecap="round" stroke-linejoin="round" stroke-width="0.75"/><path d="M-5915.37-11800.929l38.011,6.821s7.7.771,11.52,0,38.039-6.794,38.039-6.794" transform="translate(5921.497 11839.942)" fill="#fff" stroke="#656f75" stroke-linecap="round" stroke-linejoin="round" stroke-width="0.75"/><path d="M9.65,51.839c6.2,1.186,12.392,1.977,18.456,3.3a9.6,9.6,0,0,1,3.559,3.691,9.629,9.629,0,0,1,0,2.768c-5.932-.923-11.733-1.846-17.665-2.9a7.979,7.979,0,0,1-4.482-4.087A5.749,5.749,0,0,1,9.65,51.839Z" transform="translate(-3.591 -10.436)" fill="#ff641e" fill-rule="evenodd"/><path d="M31.547,51.839c-6.2,1.186-12.392,1.977-18.456,3.3a9.6,9.6,0,0,0-3.559,3.691,9.629,9.629,0,0,0,0,2.768c5.932-.923,11.733-1.846,17.665-2.9a7.979,7.979,0,0,0,4.482-4.087A5.749,5.749,0,0,0,31.547,51.839Z" transform="translate(62.196 -10.436)" fill="#ff641e" fill-rule="evenodd"/></g></g><path d="M7031.259,13022.567a5.98,5.98,0,0,1-.614-2.647v-.638a6,6,0,0,1,6-6h3a6,6,0,0,1,6,6v.638a5.98,5.98,0,0,1-.614,2.647Z" transform="translate(-6174.646 -9691.281)" fill="#fafafa" stroke="#656f75" stroke-linecap="round" stroke-linejoin="round" stroke-width="1.5"/><ellipse cx="4.5" cy="4" rx="4.5" ry="4" transform="translate(859 3315)" fill="#ff641e"/><path d="M-5393.286-9826.331l-1.012-.364-.787-.283" transform="translate(6249.568 13152.653)" fill="none" stroke="#334048" stroke-linecap="round" stroke-linejoin="round" stroke-width="3"/></g></g></svg>