<svg xmlns="http://www.w3.org/2000/svg" width="84.926" height="71.341" viewBox="0 0 84.926 71.341"><path d="M16.393,88.269a15.287,15.287,0,0,1,16.03-1.509,15.233,15.233,0,0,1,4.506,3.6,12.065,12.065,0,0,1,3.182,5.775,7.517,7.517,0,0,0,1.348,3.536,1.662,1.662,0,0,0,2.019,0,7.486,7.486,0,0,0,1.348-3.536,12.091,12.091,0,0,1,3.178-5.775,15.022,15.022,0,0,1,4.5-3.615,15.288,15.288,0,0,1,16.026,1.509,13.539,13.539,0,0,1,5.449,11.221,7.559,7.559,0,0,0-4.836,5.874,6.424,6.424,0,0,0,3.426,6.286c2.361,1.065,5.948.75,6.392-2.267-1.532.786-3.414,1.41-5.08.621a4.6,4.6,0,0,1-2.071-6.322,6.5,6.5,0,0,1,8.321-2.6,8.365,8.365,0,0,1,4.785,7.272,9.15,9.15,0,0,1-4.381,7.952,10.5,10.5,0,0,1-8.978.523,10.765,10.765,0,0,1-5.06-5.532c-2.208,1.473-4.935,1.78-7.512,2.008a3.835,3.835,0,0,0-2.919,1.407c-.57.817-.1,1.819.1,2.676a4.938,4.938,0,0,1-2.727-3.658,4.272,4.272,0,0,1,1.627-3.469,6.3,6.3,0,0,1-.707-4.294c.475-2.805,4.428-5.253,6.8-4.6a5.506,5.506,0,0,0-1.572,1.772,2.777,2.777,0,0,0,3.072,3.65,7.077,7.077,0,0,0,3.493-2.5,8.251,8.251,0,0,0,1.815-4.074,7.944,7.944,0,0,0-3.835-8.1,9.555,9.555,0,0,0-11.355,1.242,9.134,9.134,0,0,0-2.585,6.546c.075,1.088-.786,1.843-1.32,2.676.051.361.416.574.613.853a8.022,8.022,0,0,1,.656,9.865,8.85,8.85,0,0,1-7.072,4.393c-.2,0-.393.02-.609.02h0c-.2,0-.393,0-.605-.02a8.862,8.862,0,0,1-7.072-4.393,8.028,8.028,0,0,1,.656-9.865c.2-.279.562-.491.613-.853-.538-.833-1.395-1.572-1.316-2.676a9.088,9.088,0,0,0-2.589-6.546A9.551,9.551,0,0,0,20.8,92.107a7.952,7.952,0,0,0-3.839,8.1,8.222,8.222,0,0,0,1.819,4.074,7.06,7.06,0,0,0,3.493,2.5,2.771,2.771,0,0,0,3.068-3.65,5.747,5.747,0,0,0-1.572-1.772c2.357-.656,6.318,1.792,6.793,4.6a6.277,6.277,0,0,1-.707,4.294,4.264,4.264,0,0,1,1.63,3.469,4.934,4.934,0,0,1-2.731,3.658c.2-.856.668-1.858.1-2.676a3.823,3.823,0,0,0-2.923-1.391c-2.577-.228-5.3-.534-7.512-2.008a10.777,10.777,0,0,1-5.06,5.532,10.5,10.5,0,0,1-8.985-.538A9.139,9.139,0,0,1,0,108.338a8.361,8.361,0,0,1,4.781-7.272,6.5,6.5,0,0,1,8.321,2.6,4.609,4.609,0,0,1-2.067,6.322c-1.666.786-3.536.181-5.084-.621.444,3.017,4.015,3.269,6.4,2.267s3.591-3.787,3.422-6.286a7.559,7.559,0,0,0-4.833-5.862,13.559,13.559,0,0,1,5.449-11.221Zm17.68-4.345a2.462,2.462,0,0,0,1.371,2.357A17.137,17.137,0,0,1,42.41,97.643a2.721,2.721,0,0,0,.079.295l.059-.3a17.1,17.1,0,0,1,6.97-11.358,2.442,2.442,0,0,0,1.371-2.357,2.36,2.36,0,0,0-2.271-1.242H36.352a2.418,2.418,0,0,0-2.271,1.242Zm-2.841-7.441a5.5,5.5,0,0,1,1.438-.114c6.714.024,13.425,0,20.14,0a2.061,2.061,0,0,1,2.212,2.444A2.323,2.323,0,0,1,52.5,80.383c-6.722-.083-13.441-.067-20.159-.079a2.256,2.256,0,0,1-2.5-2.09,1.885,1.885,0,0,1,1.4-1.741Zm11.252,29.369H42.43a3.343,3.343,0,0,0-1.092.189h0a3.329,3.329,0,0,0-2.294,3.194,3.4,3.4,0,0,0,3.253,3.34h.322a3.392,3.392,0,0,0,3.249-3.34,3.321,3.321,0,0,0-2.291-3.194h0A3.368,3.368,0,0,0,42.485,105.851Z" transform="translate(0.004 -46.359)" fill="#1d4b9b" fill-rule="evenodd"/><path d="M87.081,8.129A24.9,24.9,0,0,1,89.552,0c.9,3.709,3.383,6.754,5.87,9.532,2.683,2.617,4.99,5.893,5.5,9.7a10.215,10.215,0,0,1-2.5,7.673c-.3.31-.589.746-1.084.66q-9.822,0-19.644.031C73.078,22.811,74.3,17.3,78.476,12.69a8.492,8.492,0,0,0,3.1,7.339,1.772,1.772,0,0,0,.613.31,6.469,6.469,0,0,0-.684-1.768,11.331,11.331,0,0,1,.02-8.824,14.875,14.875,0,0,1,3.729-4.994,13.3,13.3,0,0,0,2.236,11.205,10.247,10.247,0,0,0,1.835,2.067c.071.047.664.393.7.2a2.161,2.161,0,0,0-.318-.471A12.775,12.775,0,0,1,87.081,8.129Z" transform="translate(-45.379)" fill="#e20714" fill-rule="evenodd"/></svg>