<svg xmlns="http://www.w3.org/2000/svg" width="118" height="85.5" viewBox="0 0 118 85.5"><g transform="translate(1 1)"><g transform="translate(6600.5 -2071)"><path d="M10,0H82A10,10,0,0,1,92,10V53A10,10,0,0,1,82,63H10A10,10,0,0,1,0,53V10A10,10,0,0,1,10,0Z" transform="translate(-6600.5 2071)" fill="none" stroke="#dcdcdc" stroke-miterlimit="10" stroke-width="2"/><rect width="80.684" height="8.275" rx="3" transform="translate(-6595 2085.892)" fill="#ff641e"/><g transform="translate(-6593.595 2109.641)"><rect width="42.277" height="5.42" rx="2.71" transform="translate(0 9.756)" fill="#ff641e"/><rect width="21.681" height="5.42" rx="2.71" transform="translate(0.517 0)" fill="#19191a" stroke="#c8c8c8" stroke-linecap="round" stroke-linejoin="round" stroke-width="1.5"/></g></g><text transform="translate(91 65.5)" stroke="#dcdcdc" stroke-linecap="round" stroke-linejoin="round" stroke-width="3" font-size="47" font-family="Poppins-Bold, Poppins" font-weight="700"><tspan x="-22.254" y="0">IR</tspan></text></g></svg>