<svg id="Layer_1" data-name="Layer 1" xmlns="http://www.w3.org/2000/svg" viewBox="0 0 154.4 91.9"><path d="M134.1,16.2a7.27,7.27,0,0,0-2.2-3.9,5.45,5.45,0,0,0-1.7-1.1,8.08,8.08,0,0,0-3.4-.8H34.9a7.07,7.07,0,0,0-3.4.8,7.12,7.12,0,0,0-1.7,1.1,7.85,7.85,0,0,0-2.2,3.9,9.85,9.85,0,0,0-.2,1.7l-.1,23.9A15.16,15.16,0,0,1,30.9,40V18a4.31,4.31,0,0,1,.3-1.7.35.35,0,0,1,.1-.2c0-.1.1-.1.1-.2A4.19,4.19,0,0,1,35,14.2h91.5a4.06,4.06,0,0,1,3.6,1.7c0,.1.1.1.1.2a.35.35,0,0,0,.1.2,4.31,4.31,0,0,1,.3,1.7l-.1,22.5.1,32.5c0,2.7-1.8,4.1-4.4,4.1h-68a20,20,0,0,1-3.6,3.5h71.8a7.37,7.37,0,0,0,7.8-7.7v-55A4.73,4.73,0,0,0,134.1,16.2Z" fill="#c8c8c8"/><path d="M39.9,41.2A20.6,20.6,0,1,0,60.5,61.8,20.57,20.57,0,0,0,39.9,41.2ZM52.2,74a17.38,17.38,0,1,1,5.1-12.3A18.16,18.16,0,0,1,52.2,74Z" fill="#c8c8c8"/><path d="M114.2,45.3a14.72,14.72,0,0,1-9.1,3.1A14.94,14.94,0,0,1,96,45.3a13.7,13.7,0,0,0-9.4,12.9v5.1a4.91,4.91,0,0,0,4.9,4.9h27a4.91,4.91,0,0,0,4.9-4.9V58.2A13.27,13.27,0,0,0,114.2,45.3Z" fill="#ff641e"/><path d="M93.3,37.4a11.38,11.38,0,0,0,3.2,5.1,14.63,14.63,0,0,0,2.8,2.1,12.35,12.35,0,0,0,11.8,0,14.63,14.63,0,0,0,2.8-2.1,12.45,12.45,0,0,0-8.7-21.3,11.77,11.77,0,0,0-5.9,1.5,13.73,13.73,0,0,0-2,1.3,14.82,14.82,0,0,0-2.4,2.6c-.2.3-.4.7-.6,1a9.61,9.61,0,0,0-1.1,2.8,15.46,15.46,0,0,0-.4,3.1,12.65,12.65,0,0,0,.3,2.8A3.09,3.09,0,0,0,93.3,37.4Z" fill="#ff641e"/><path d="M56.7,40.5H78.2A1.79,1.79,0,0,0,80,38.7v-.3a1.79,1.79,0,0,0-1.8-1.8H56.7a1.79,1.79,0,0,0-1.8,1.8v.3A1.79,1.79,0,0,0,56.7,40.5Z" fill="#c8c8c8"/><path d="M41.7,27.9H78.2A1.79,1.79,0,0,0,80,26.1v-.3A1.79,1.79,0,0,0,78.2,24H41.7a1.79,1.79,0,0,0-1.8,1.8v.3A1.79,1.79,0,0,0,41.7,27.9Z" fill="#c8c8c8"/><path d="M80,52.7v-.3a1.79,1.79,0,0,0-1.8-1.8h-17a16.82,16.82,0,0,1,1.6,3.9H78.2A1.79,1.79,0,0,0,80,52.7Z" fill="#c8c8c8"/><path d="M78.2,67.5A1.79,1.79,0,0,0,80,65.7v-.3a1.79,1.79,0,0,0-1.8-1.8H63.8a26.29,26.29,0,0,1-.6,3.9Z" fill="#c8c8c8"/><path d="M39.6,65.9H29.2a1.11,1.11,0,0,1-1.1-1.1V62a1.11,1.11,0,0,1,1.1-1.1H39.6A1.11,1.11,0,0,1,40.7,62v2.7A1.13,1.13,0,0,1,39.6,65.9Z" fill="#ff641e"/><path d="M43.9,72.6v-4c0-1.4-.1-2.7-.1-4.1s-.2-2.7-.3-4-.3-2.5-.5-3.7a26.62,26.62,0,0,0-.8-3.3A11.82,11.82,0,0,0,41,50.7l3.3-2a9,9,0,0,1,1.2,2.4,21.28,21.28,0,0,1,.8,2.7c.2,1,.4,1.9.6,3s.3,2.1.4,3.1a21.12,21.12,0,0,1,.2,2.6c.1.9.1,1.9.2,2.9s.1,1.9.1,2.9v4.4l-3.9-.1Z" fill="#ff641e"/></svg>