<svg id="Layer_1" data-name="Layer 1" xmlns="http://www.w3.org/2000/svg" viewBox="0 0 154.4 91.9"><path d="M121.7,14.9a8.5,8.5,0,0,0-8.7-9H72.5a24.89,24.89,0,0,1,3.8,3.4h36.4c3.5,0,5.6,2.1,5.6,5.7V78c0,3.6-2,5.7-5.6,5.7H63.1c-3.5,0-5.6-2.1-5.6-5.6V46.6a18.57,18.57,0,0,1-3.4-.6V77.8c0,8.6,7.3,9.2,7.3,9.2h53c6.5,0,7.3-7.5,7.3-9Z" fill="#c8c8c8"/><path d="M73.6,75.5A1.61,1.61,0,0,1,72.1,73a2,2,0,0,1,1.4-.8c4.5-.1,24,0,28.5,0a1.61,1.61,0,0,1,1.7,1.6,1.63,1.63,0,0,1-1.7,1.7Z" fill="#c8c8c8"/><path d="M66.9,17.2,55.1,28.9l-4.5-4.4a1.63,1.63,0,0,0-2.3,2.3l5.6,5.5a1.69,1.69,0,0,0,2.3,0L69.3,19.5a1.69,1.69,0,0,0,0-2.3,1.63,1.63,0,0,0-2.4,0Z" fill="#ff641e"/><path d="M70.9,8.2h0A19.73,19.73,0,0,0,58.7,4.1H57.4A19.59,19.59,0,0,0,45.3,9.4h0A19.89,19.89,0,0,0,39.1,24v1.3h0a19.53,19.53,0,0,0,4.4,10.9c-.7.8-1.5,1.7-2.2,2.6-.1,0-.1-.1-.2-.1H41a1.45,1.45,0,0,0-.7-.2,1.14,1.14,0,0,0-.8.3l-.5.5h0c-2.5,2.8-4.9,5.8-7.5,8.6h0a6.59,6.59,0,0,0-1.9,3.7h0c0,.4.1.9.1,1.2v.3l.2.4h0a4.43,4.43,0,0,0,2.6,2.9h0c.6.2,1.1.3,1.6.5h.2c.4,0,.9-.1,1.2-.1h0a6.79,6.79,0,0,0,3.3-2.3h0c2.5-2.8,4.9-5.7,7.4-8.6h0a2.65,2.65,0,0,0,.5-.6h0a1.88,1.88,0,0,0,.2-.8,4.33,4.33,0,0,0-.1-.5.31.31,0,0,1-.1-.2l-.3-.3,2.3-2.6a20.15,20.15,0,0,0,10,2.8,6.15,6.15,0,0,0,1.4-.1h0a21,21,0,0,0,5.8-1.3h0a19,19,0,0,0,10.3-9,19.91,19.91,0,0,0,2.4-9.4A19.71,19.71,0,0,0,70.9,8.2ZM34.2,53.9a3,3,0,0,1-1-.4,2.76,2.76,0,0,1-.6-.8,1.49,1.49,0,0,1-.1-.6h0v-.2a2.08,2.08,0,0,1,.5-1.2c1.4-1.6,6.8-7.4,7.6-8.4.6.5,2,1.8,3,2.6-1.7,2-6,6.6-7.7,8.5h0a1.43,1.43,0,0,1-1.2.6A.75.75,0,0,0,34.2,53.9ZM60.1,40.7H58.8A16.87,16.87,0,0,1,42.1,25.1V23.9A16.78,16.78,0,0,1,57.6,7.2h1.3A16.87,16.87,0,0,1,75.6,22.8C75.6,32.6,69,39.9,60.1,40.7Z" fill="#c8c8c8"/><path d="M88.1,19.9a23.91,23.91,0,0,0-6.6.9,26.08,26.08,0,0,1,0,2.8,22.31,22.31,0,0,1-2.8,10.8A22.55,22.55,0,0,1,76.3,38c-.1,1.1-.3,2.1-.4,3.2H73.1A22,22,0,0,1,68.7,44h7.2c.4,3.2.8,6.2,1.3,9.2H72a1,1,0,0,1-.7-.4A19.3,19.3,0,0,1,68.6,44a12.2,12.2,0,0,1-1.7.7L66,45c1.3,11,9.9,20,21.8,20.1,12.9.1,22-10.5,22.1-22.5C110,31,101.2,20.1,88.1,19.9ZM86.6,23v6.6H81.1C81.8,26.9,84.9,22.8,86.6,23Zm-6.7,9.9a1.24,1.24,0,0,1,.8-.6c1.5-.1,3.1,0,4.6,0,.4,0,.9.1,1.3.1v8.9H78.5C78.9,38.4,79.4,35.7,79.9,32.9Zm6.7,20.3h-6c-.2,0-.5-.3-.6-.6a15.29,15.29,0,0,1-.7-2.9c-.3-1.8-.5-3.7-.7-5.5h7.9C86.6,47.2,86.6,50.2,86.6,53.2Zm-13,2.7h4.3a1.14,1.14,0,0,1,.6.3c.8,1.5,1.6,3.2,2.4,4.8A18,18,0,0,1,73.6,55.9Zm13,6.2c-2-.4-5-4-5.2-6.1h5.2Zm17.6-29.7a1,1,0,0,1,.7.4,19.19,19.19,0,0,1,2.5,8.7h-7c-.2,0-.5-.4-.6-.7a21.05,21.05,0,0,1-.2-2.5c-.2-2-.6-3.9-.9-6C100.5,32.4,102.4,32.3,104.2,32.4Zm-1.4-2.7H98.2a.85.85,0,0,1-.5-.3c-.9-1.8-1.7-3.5-2.6-5.3A18.63,18.63,0,0,1,102.8,29.7ZM97.2,41.4H89.3v-9h3.1c1.1,0,2.2,0,3.3.1.3,1.2.7,2.3.9,3.5C96.9,37.7,97,39.6,97.2,41.4Zm-8-18c0-.2.1-.3.1-.5,2.1.4,5,4.1,5.4,6.6-.2,0-.5.1-.7.1H89.3C89.2,27.5,89.2,25.5,89.2,23.4Zm.1,20.9h8c-.5,3.1-1,6-1.5,8.9H89.2C89.3,50.2,89.3,47.2,89.3,44.3Zm0,18V56h5.4C93.5,58.6,92.1,61,89.3,62.3ZM95,61c.8-1.6,1.6-3.1,2.3-4.6a.82.82,0,0,1,.6-.4c1.4-.1,2.7,0,4.3,0A17.73,17.73,0,0,1,95,61Zm9.5-8c-.1.2-.4.2-.6.2H98.6c.4-3,.8-6,1.3-9h7.3C107.3,46.3,105.7,51.5,104.5,53Z" fill="#ff641e"/></svg>