<svg id="Layer_1" data-name="Layer 1" xmlns="http://www.w3.org/2000/svg" viewBox="0 0 154.4 91.9"><path d="M118.5,45.3a14.72,14.72,0,0,1-9.1,3.1,14.94,14.94,0,0,1-9.1-3.1,13.7,13.7,0,0,0-9.4,12.9v5.1a4.91,4.91,0,0,0,4.9,4.9h27a4.91,4.91,0,0,0,4.9-4.9V58.2A13.27,13.27,0,0,0,118.5,45.3Z" fill="#ff641e"/><path d="M97.6,37.4a11.38,11.38,0,0,0,3.2,5.1,14.63,14.63,0,0,0,2.8,2.1,12.35,12.35,0,0,0,11.8,0,14.63,14.63,0,0,0,2.8-2.1,12.45,12.45,0,0,0-8.7-21.3,11.77,11.77,0,0,0-5.9,1.5,13.73,13.73,0,0,0-2,1.3,14.82,14.82,0,0,0-2.4,2.6c-.2.3-.4.7-.6,1a9.61,9.61,0,0,0-1.1,2.8,15.46,15.46,0,0,0-.4,3.1,12.65,12.65,0,0,0,.3,2.8A3.09,3.09,0,0,0,97.6,37.4Z" fill="#ff641e"/><path d="M59.2,52.8v.3A1.79,1.79,0,0,0,61,54.9H82.5a1.79,1.79,0,0,0,1.8-1.8v-.3A1.79,1.79,0,0,0,82.5,51H61A1.79,1.79,0,0,0,59.2,52.8Z" fill="#c8c8c8"/><path d="M44.2,65.4v.3A1.79,1.79,0,0,0,46,67.5H82.5a1.79,1.79,0,0,0,1.8-1.8v-.3a1.79,1.79,0,0,0-1.8-1.8H46A1.79,1.79,0,0,0,44.2,65.4Z" fill="#c8c8c8"/><path d="M138.5,74.9v-55a7.37,7.37,0,0,0-7.8-7.7H59a6.47,6.47,0,0,1,.9.8l.1.1a31.89,31.89,0,0,1,2.6,2.6h67.9c2.6,0,4.4,1.4,4.4,4.1l-.1,32.5.1,22.5a4.31,4.31,0,0,1-.3,1.7.35.35,0,0,0-.1.2c0,.1-.1.1-.1.2a4.06,4.06,0,0,1-3.6,1.7H39.3a4.19,4.19,0,0,1-3.6-1.7c0-.1-.1-.1-.1-.2a.35.35,0,0,1-.1-.2,4.31,4.31,0,0,1-.3-1.7V54l-3.6,4.1.1,16.8a9.85,9.85,0,0,0,.2,1.7,7.85,7.85,0,0,0,2.2,3.9,8.09,8.09,0,0,0,5.1,1.9h91.9a8.08,8.08,0,0,0,3.4-.8,5.45,5.45,0,0,0,1.7-1.1,7.27,7.27,0,0,0,2.2-3.9A4.73,4.73,0,0,0,138.5,74.9Z" fill="#c8c8c8"/><path d="M64.9,29h0a19.69,19.69,0,0,0-7.8-14.1h0a19.73,19.73,0,0,0-12.2-4.1H43.6a19.59,19.59,0,0,0-12.1,5.3h0a19.89,19.89,0,0,0-6.2,14.6V32h0a19.53,19.53,0,0,0,4.4,10.9c-.7.8-1.5,1.7-2.2,2.6-.1,0-.1-.1-.2-.1h-.1a1.45,1.45,0,0,0-.7-.2,1.14,1.14,0,0,0-.8.3l-.5.5h0c-2.5,2.8-4.9,5.8-7.5,8.6h0a6.59,6.59,0,0,0-1.9,3.7h0c0,.4.1.9.1,1.2v.3l.2.4h0a4.43,4.43,0,0,0,2.6,2.9h0c.6.2,1.1.3,1.6.5h.2c.4,0,.9-.1,1.2-.1h0A6.79,6.79,0,0,0,25,61.2h0c2.5-2.8,4.9-5.7,7.4-8.6h0a2.65,2.65,0,0,0,.5-.6h0a1.88,1.88,0,0,0,.2-.8,4.33,4.33,0,0,0-.1-.5.31.31,0,0,1-.1-.2l-.3-.3,2.3-2.6a20.15,20.15,0,0,0,10,2.8,6.15,6.15,0,0,0,1.4-.1h0A21,21,0,0,0,52.1,49h0a19,19,0,0,0,10.3-9,19.91,19.91,0,0,0,2.4-9.4A8.6,8.6,0,0,0,64.9,29ZM20.4,60.6a3,3,0,0,1-1-.4,2.76,2.76,0,0,1-.6-.8,1.49,1.49,0,0,1-.1-.6h0v-.2a2.08,2.08,0,0,1,.5-1.2C20.6,55.8,26,50,26.8,49c.6.5,2,1.8,3,2.6-1.7,2-6,6.6-7.7,8.5h0a1.43,1.43,0,0,1-1.2.6A.75.75,0,0,0,20.4,60.6ZM46.3,47.4H45A16.87,16.87,0,0,1,28.3,31.8V30.6A16.78,16.78,0,0,1,43.8,13.9h1.3A16.87,16.87,0,0,1,61.8,29.5v1.2A16.77,16.77,0,0,1,46.3,47.4Z" fill="#c8c8c8"/><path d="M84.3,39.1v-.3A1.79,1.79,0,0,0,82.5,37h-15a16.42,16.42,0,0,1-1.4,3.9H82.5A1.79,1.79,0,0,0,84.3,39.1Z" fill="#c8c8c8"/><path d="M84.3,26.1v-.3A1.79,1.79,0,0,0,82.5,24H67.1a18,18,0,0,1,.8,3.9H82.4A1.82,1.82,0,0,0,84.3,26.1Z" fill="#c8c8c8"/><path d="M53.1,23.9,41.3,35.6l-4.5-4.4a1.63,1.63,0,0,0-2.3,2.3L40.1,39a1.69,1.69,0,0,0,2.3,0L55.5,26.2a1.69,1.69,0,0,0,0-2.3,1.63,1.63,0,0,0-2.4,0Z" fill="#ff641e"/></svg>