<svg xmlns="http://www.w3.org/2000/svg" width="97.065" height="71.586" viewBox="0 0 97.065 71.586"><g transform="translate(-178.999 -1097)"><path d="M36.581,42.73a15.775,15.775,0,0,0-11.453,4.888,1.7,1.7,0,0,0,.023,2.388L35.376,60.232a1.7,1.7,0,0,0,2.409,0L48.011,50.005a1.7,1.7,0,0,0,.023-2.388A15.781,15.781,0,0,0,36.581,42.73Z" transform="translate(190.952 1107.104)" fill="#fafafa" stroke="#656f75" stroke-linecap="round" stroke-linejoin="round" stroke-width="1.5"/><path d="M43.374,26.641A38.518,38.518,0,0,0,14.162,40.023a1.706,1.706,0,0,0,.088,2.318l9.269,9.269a1.63,1.63,0,0,0,1.305.5,1.713,1.713,0,0,0,1.239-.644,22.132,22.132,0,0,1,34.626,0,1.708,1.708,0,0,0,1.239.644c.034,0,.067,0,.1,0a1.7,1.7,0,0,0,1.2-.5L72.5,42.341a1.706,1.706,0,0,0,.088-2.318A38.53,38.53,0,0,0,43.374,26.641Z" transform="translate(184.159 1097.077)" fill="#ff641e"/><path d="M98.718,31.33a65.237,65.237,0,0,0-96.169,0,1.7,1.7,0,0,0,.05,2.357l9.64,9.642a1.818,1.818,0,0,0,1.251.5,1.706,1.706,0,0,0,1.224-.567,48.237,48.237,0,0,1,71.837,0,1.706,1.706,0,0,0,1.224.567h.045a1.7,1.7,0,0,0,1.2-.5l9.64-9.642A1.706,1.706,0,0,0,98.718,31.33Z" transform="translate(176.898 1086.819)" fill="#334048"/></g></svg>