<svg xmlns="http://www.w3.org/2000/svg" width="96" height="88.338" viewBox="0 0 96 88.338"><g transform="translate(-493 -1091)"><path d="M66.558,38.206V67.991c0,1.4-.073,2.705-1.545,3.412s-2.437-.141-3.441-.975c-3.9-3.241-7.8-6.438-11.624-9.748a1.634,1.634,0,0,0-2.608,0c-3.251,2.846-6.594,5.6-9.889,8.393-2.822,2.388-5.191,2.437-7.993.1-3.378-2.8-6.823-5.546-10.1-8.422-1.136-.975-1.842-.853-2.924.068C12.672,64.082,8.8,67.26,4.971,70.437c-1,.843-2.018,1.647-3.441.95S0,69.511,0,68.151Q.029,38.46,0,8.773C.024,3.012,3.036,0,8.817,0H57.965c5.537,0,8.583,3.061,8.588,8.6Q66.567,23.395,66.558,38.206Z" transform="translate(507.465 1106.72)" fill="none" stroke="#dcdcdc" stroke-width="2"/><rect width="96" height="12" rx="4" transform="translate(493 1091)" fill="#dcdcdc"/><rect width="12.576" height="5.24" rx="1" transform="translate(548.159 1144.822)" stroke="#c8c8c8" stroke-linecap="round" stroke-linejoin="round" stroke-width="1.5"/><rect width="40.871" height="5.24" rx="2.62" transform="translate(519.863 1135.391)" fill="#ff641e"/><rect width="20.959" height="5.24" rx="1" transform="translate(539.775 1125.959)" stroke="#c8c8c8" stroke-linecap="round" stroke-linejoin="round" stroke-width="1.5"/></g></svg>