<svg id="Layer_1" data-name="Layer 1" xmlns="http://www.w3.org/2000/svg" viewBox="0 0 131.1 86.1"><path d="M110.2,75.1" transform="translate(-11.7 -2.9)" fill="#ff641e"/><path d="M101.4,75.1A2.4,2.4,0,0,0,98,78.5l.4.4,1-1-.4-.4a1,1,0,1,1,1.4,0h0l-4.2,4.2h1.9l3.2-3.2h0A2.23,2.23,0,0,0,101.4,75.1Z" transform="translate(-11.7 -2.9)" fill="#ff641e"/><rect x="92.99" y="73.6" width="1.8" height="1.8" transform="translate(-36.88 85.31) rotate(-45)" fill="#ff641e"/><path d="M115.8,76.7a2.35,2.35,0,0,0-2.4-2.3h-.7l3.1-3.1h-1.9l-3.1,3.1h0v1.4h2.6a1,1,0,0,1,1,1.1,1,1,0,0,1-1,.9h-3.1V71.3h-1.4v7.8h4.5A2.37,2.37,0,0,0,115.8,76.7Z" transform="translate(-11.7 -2.9)" fill="#ff641e"/><path d="M106,74.4h-3.1v1.4h3.2a1,1,0,0,1,1,1.1,1,1,0,0,1-1,.9H103l-1.4,1.4h4.5a2.43,2.43,0,0,0,2.4-2.4A2.52,2.52,0,0,0,106,74.4Z" transform="translate(-11.7 -2.9)" fill="#ff641e"/><path d="M96.9,76.7v-.9H95.5a3.38,3.38,0,0,1,0,1.1,1,1,0,0,1-1,.9H91.4V71.3H90v7.8h4.5A2.43,2.43,0,0,0,96.9,76.7Z" transform="translate(-11.7 -2.9)" fill="#ff641e"/><path d="M132.5,63.4l-.8-.3-.8-.3-.8-.3a17.55,17.55,0,0,1-3.2,1.2,12.87,12.87,0,0,1-9.8-1.9.1.1,0,0,1-.1-.1h-.1v.1a12.65,12.65,0,0,0,15.9,2.1c.2-.1.1-.3,0-.4Z" transform="translate(-11.7 -2.9)" fill="#ff641e"/><path d="M134.1,55.6l-.8.1-.8.1-.8.1-.8.1-.8.1a12.6,12.6,0,0,1-3,3.1,12.77,12.77,0,0,1-9.9,2.2c-.1,0-.1,0-.1.1h0v.1A12.63,12.63,0,0,0,134.7,56c.1-.2-.1-.3-.2-.3Z" transform="translate(-11.7 -2.9)" fill="#ff641e"/><path d="M130.3,47.8l-.6.4-.7.4-.7.4-.7.4-.7.5a13.3,13.3,0,0,1-1.6,5,12.39,12.39,0,0,1-8.2,6,.1.1,0,0,0-.1.1h0a.1.1,0,0,0,.1.1A12.73,12.73,0,0,0,131,47.6c0-.2-.2-.3-.4-.2Z" transform="translate(-11.7 -2.9)" fill="#ff641e"/><path d="M121.9,40.6h0a24.41,24.41,0,0,1-.8,10.4L120,55.9a9.45,9.45,0,0,1-2.2,4.2,4.62,4.62,0,0,1-.7.7v.1h0a.1.1,0,0,0,.1.1,12.84,12.84,0,0,0,7.5-6.8,12.65,12.65,0,0,0-2.2-13.7.3.3,0,0,0-.4,0h0C121.9,40.4,121.9,40.5,121.9,40.6Z" transform="translate(-11.7 -2.9)" fill="#ff641e"/><path d="M123.9,66.2c-.1-.2-.2-.3-.3-.5l-1.2-.3.4.7c3.7,6.2,3.4,11.4,3.3,12.1a.1.1,0,0,1-.1.1h-1.2a.1.1,0,0,1-.1-.1,16.3,16.3,0,0,0-.8-5c0-.1-.2,0-.1,0a16.48,16.48,0,0,1,.4,4.8.22.22,0,0,1-.2.2l-.9-.3c-.1,0-.1-.1-.1-.2a18.18,18.18,0,0,0-.8-5.1c0-.1-.2-.1-.1,0a21.09,21.09,0,0,1,.4,4.7.19.19,0,0,1-.3.1,1.76,1.76,0,0,1-.5-.4c-1.4-1.3-.8-4.3-2.1-6s-5.2-1.6-6.4-4.8c-1-2.6,1.2-5.2-.2-7.4-.7-1-2.3-1.5-3.6-1.8a1,1,0,0,1-.4-1.9,4.36,4.36,0,0,1,2.5-.8c2.5,0,4.7,1.7,6.1,3.4h.1v-.1c-1.4-1.9-3.1-4-6.3-4.1-2.5-.1-3.7,1.6-4.4,2.3a3.29,3.29,0,0,1-1.3.7L100.4,58c-.1,0-.1.2,0,.2a45,45,0,0,1,6.9-.3,7.62,7.62,0,0,1,3.5,2.4c1.4,2.3.3,4.3,1.5,6.4,1.9,3.3,6.1,3.2,7,4.8s.5,4.2,1.5,5.5c1.2,1.7,4.8,1.9,5.8,1.9a.32.32,0,0,0,.3-.3V77.3A27.89,27.89,0,0,0,123.9,66.2Z" transform="translate(-11.7 -2.9)" fill="#ff641e"/><path d="M39.1,89H57.8a.9.9,0,0,0,.9-.9v-28a.9.9,0,0,1,.9-.9H65a.92.92,0,0,0,.6-1.6L49,42.7a.91.91,0,0,0-1.2,0L31.3,57.6a.92.92,0,0,0,.6,1.6h5.4a.9.9,0,0,1,.9.9v28A.9.9,0,0,0,39.1,89Z" transform="translate(-11.7 -2.9)" fill="#ff641e"/><path d="M68.2,89H79a.9.9,0,0,0,.9-.9V75.5a.9.9,0,0,1,.9-.9h2a.92.92,0,0,0,.6-1.6l-9.2-8.3a.91.91,0,0,0-1.2,0L63.8,73a.92.92,0,0,0,.6,1.6h2a.9.9,0,0,1,.9.9V88.1A.9.9,0,0,0,68.2,89Z" transform="translate(-11.7 -2.9)" fill="#c8c8c8"/><path d="M17.9,89H28.6a.9.9,0,0,0,.9-.9V75.5a.9.9,0,0,1,.9-.9h2.1a.92.92,0,0,0,.6-1.6l-9.2-8.3a.91.91,0,0,0-1.2,0L13.4,73a.92.92,0,0,0,.6,1.6h2.1a.9.9,0,0,1,.9.9V88.1A.9.9,0,0,0,17.9,89Z" transform="translate(-11.7 -2.9)" fill="#c8c8c8"/><path d="M133.4,2.9H20.9a9,9,0,0,0-9.2,9.2V69.2L16,65V36.7H138.6V79.6c0,3.3-2.2,5-5.4,5H85v4.3h48.2a9.16,9.16,0,0,0,9.6-9.5V12.1C142.7,7.9,139,2.9,133.4,2.9ZM16,17.7V12.1c0-3.4,2.2-4.9,4.9-4.9H133.4c3.4,0,5.2,2.2,5.2,5v5.5Z" transform="translate(-11.7 -2.9)" fill="#c8c8c8"/></svg>