<svg xmlns="http://www.w3.org/2000/svg" xmlns:xlink="http://www.w3.org/1999/xlink" width="107.091" height="133.694" viewBox="0 0 107.091 133.694"><defs><clipPath id="a"><path d="M0,0H63V94S4.8,118.741-10.945,95.241,0,0,0,0Z" transform="translate(244 3468)" fill="#fff"/></clipPath></defs><g transform="translate(0.534 0.5)"><g transform="translate(-200.444 -3440.18)" clip-path="url(#a)"><g transform="translate(-710.052 27.051)"><g transform="translate(909.683 3471.186)"><path d="M-5381.136-9822.116l-7.846-2.735-6.1-2.127" transform="translate(5402.858 9839.143)" fill="none" stroke="#dcdcdc" stroke-linecap="round" stroke-linejoin="round" stroke-width="3"/><path d="M-5394.247-9826.692l-.471-.16-.366-.126" transform="translate(5410.576 9841.896)" fill="none" stroke="#dcdcdc" stroke-linecap="round" stroke-linejoin="round" stroke-width="3"/><g transform="translate(-3.879)"><g transform="translate(0)"><path d="M-5376.931-9820.624l-10.211-3.574-7.942-2.78" transform="translate(5402.093 9840.285)" fill="none" stroke="#dcdcdc" stroke-linecap="round" stroke-linejoin="round" stroke-width="3"/><rect width="20" height="12" rx="4" transform="translate(1.731 55.753)" fill="#dcdcdc"/><rect width="20" height="12" rx="4" transform="translate(72.349 55.753)" fill="#dcdcdc"/><path d="M108.007,22.141l9.624,1.318c1.055.132,2.373,1.186,2.373,2.241v2.5a2.028,2.028,0,0,1-1.977,1.977h-5.669A75.918,75.918,0,0,1,108.007,22.141Z" transform="translate(-26.673 -5.367)" fill="#dcdcdc" fill-rule="evenodd"/><path d="M2.3,59.571c0-8.636-.247-11.673-.123-20.309C2.3,28.9,6.62,25.937,7.484,24.95c4.26-2.067,3.463-5.776,10.116-18.63.493-.74,3.7-4.195,7.649-4.812a157.135,157.135,0,0,1,46.88,0c3.824.617,7.032,4.071,7.526,4.812,9.721,18.211,5.676,15.823,10.116,18.63,1.356,1.332,5.3,3.948,5.428,14.312,0,8.636-.123,11.673-.123,20.309C95.076,67.49,2.3,67.831,2.3,59.571Z" transform="translate(-1.729 0.25)" fill="#19191a" stroke="#dcdcdc" stroke-width="1.5" fill-rule="evenodd"/><path d="M120,22.141l-9.624,1.318c-1.055.132-2.373,1.187-2.373,2.241v2.5a2.028,2.028,0,0,0,1.977,1.978h5.669A75.923,75.923,0,0,0,120,22.141Z" transform="translate(-108.007 -5.367)" fill="#dcdcdc" fill-rule="evenodd"/><path d="M28.845,8.971A7.532,7.532,0,0,0,24.138,13.1c-1.686,4.842-4.332,9.946-6.027,14.706H85.5C83.1,23.437,81.291,18.695,78.524,13.1a7.765,7.765,0,0,0-4.881-4.125C58.069,6.182,46.638,6.577,28.845,8.971Z" transform="translate(-4.376 -3.882)" stroke="#c8c8c8" stroke-linecap="round" stroke-linejoin="round" stroke-width="1.5" fill-rule="evenodd"/><path d="M2.952,0h19.4a2.952,2.952,0,0,1,0,5.9H2.952a2.952,2.952,0,0,1,0-5.9Z" transform="translate(34.314 57.056)" fill="#c8c8c8"/><path d="M-5915.37-11800.929l30.931,5.127s6.262.579,9.373,0,30.953-5.106,30.953-5.106" transform="translate(5926.462 11848.859)" fill="none" stroke="#c8c8c8" stroke-linecap="round" stroke-linejoin="round" stroke-width="0.75"/><path d="M-5915.37-11800.929l35.241,6.821s7.135.771,10.68,0,35.267-6.794,35.267-6.794" transform="translate(5921.497 11837.237)" fill="none" stroke="#c8c8c8" stroke-linecap="round" stroke-linejoin="round" stroke-width="0.75"/><path d="M9.65,51.839c6.2,1.186,12.392,1.977,18.456,3.3a9.6,9.6,0,0,1,3.559,3.691,9.629,9.629,0,0,1,0,2.768c-5.932-.923-11.733-1.846-17.665-2.9a7.979,7.979,0,0,1-4.482-4.087A5.749,5.749,0,0,1,9.65,51.839Z" transform="translate(-3.591 -13.426)" fill="#ff641e" fill-rule="evenodd"/><path d="M31.547,51.839c-6.2,1.186-12.392,1.977-18.456,3.3a9.6,9.6,0,0,0-3.559,3.691,9.629,9.629,0,0,0,0,2.768c5.932-.923,11.733-1.846,17.665-2.9a7.979,7.979,0,0,0,4.482-4.087A5.749,5.749,0,0,0,31.547,51.839Z" transform="translate(55.813 -13.426)" fill="#ff641e" fill-rule="evenodd"/><path d="M.613,9.284A5.976,5.976,0,0,1,0,6.638V6A6,6,0,0,1,6,0H9a6,6,0,0,1,6,6v.638a5.976,5.976,0,0,1-.613,2.645Z" transform="translate(18.248 13.246)" fill="#fafafa" stroke="#656f75" stroke-linecap="round" stroke-linejoin="round" stroke-width="1.5"/><ellipse cx="4.5" cy="4" rx="4.5" ry="4" transform="translate(21.134 7.268)" fill="#ff641e"/><path d="M-5393.286-9826.331l-1.012-.364-.787-.283" transform="translate(5412.114 9843.79)" fill="none" stroke="#dcdcdc" stroke-linecap="round" stroke-linejoin="round" stroke-width="3"/></g></g></g><g transform="translate(926.805 3477.317)"><path d="M.636,8A5.449,5.449,0,0,1,5.447,0h.311a5.449,5.449,0,0,1,4.811,8Z" transform="translate(0 5.143)" fill="#c8c8c8" stroke="#656f75" stroke-linecap="round" stroke-linejoin="round" stroke-width="1.5"/><ellipse cx="3.879" cy="3.448" rx="3.879" ry="3.448" transform="translate(1.724 0)" fill="#c8c8c8"/></g></g></g><g transform="translate(-17.051 -7)"><g transform="translate(17.051 7)"><path d="M46.124,18.669A17.524,17.524,0,0,1,63.512,34.227H75.2a29.135,29.135,0,0,0-58.146,0H28.735A17.525,17.525,0,0,1,46.124,18.669Z" transform="translate(-17.051 -7)" fill="none" stroke="#dcdcdc" stroke-width="1"/><path d="M38.538,15A13.62,13.62,0,0,0,25.08,26.669H52A13.62,13.62,0,0,0,38.538,15Z" transform="translate(-9.465 0.558)" fill="#dcdcdc"/><path d="M28.613,44.373V56.062A17.524,17.524,0,0,0,44.171,73.45l.285,41.824a1.945,1.945,0,0,0,3.89,0L48.061,73.45A17.524,17.524,0,0,0,63.619,56.062V44.373A29.184,29.184,0,0,0,75.173,23H17.059A29.185,29.185,0,0,0,28.613,44.373Z" transform="translate(-17.043 8.116)" fill="#19191a" stroke="#dcdcdc" stroke-width="1"/></g></g><path d="M44.171,46.7v-2.3a1.945,1.945,0,1,1,3.89,0v2.3a5.8,5.8,0,0,1,0,10.949v2.3a1.945,1.945,0,1,1-3.89,0v-2.3a5.8,5.8,0,0,1,0-10.949Z" transform="translate(-17.043 8.115)" fill="#ff641e"/></g></svg>