<svg xmlns="http://www.w3.org/2000/svg" xmlns:xlink="http://www.w3.org/1999/xlink" width="107.091" height="133.695" viewBox="0 0 107.091 133.695">
  <defs>
    <clipPath id="clip-path">
      <path id="Path_2677" data-name="Path 2677" d="M0,0H63V94S4.8,118.741-10.945,95.241,0,0,0,0Z" fill="#fff"/>
    </clipPath>
  </defs>
  <g id="Marginal_Park_Vector" transform="translate(-197.909 -3290.679)">
    <g id="Mask_Group_2" data-name="Mask Group 2" transform="translate(242 3319)" clip-path="url(#clip-path)">
      <g id="Group_2855" data-name="Group 2855" transform="translate(7231.917 9368.638)">
        <g id="Group_2855-2" data-name="Group 2855" transform="translate(-7274 -9337)">
          <rect id="Rectangle_2936" data-name="Rectangle 2936" width="17" height="11" rx="4" transform="translate(1.083 50.363)" fill="#334048"/>
          <rect id="Rectangle_2937" data-name="Rectangle 2937" width="17" height="11" rx="4" transform="translate(66.082 50.363)" fill="#334048"/>
          <path id="Path_3037" data-name="Path 3037" d="M108.007,22.141l8.141,1.115c.892.112,2.007,1,2.007,1.9v2.119a1.715,1.715,0,0,1-1.673,1.673h-4.8A64.228,64.228,0,0,1,108.007,22.141Z" transform="translate(-33.801 -6.878)" fill="#334048" fill-rule="evenodd"/>
          <path id="Path_3038" data-name="Path 3038" d="M2.287,53.825c0-7.807-.223-10.552-.112-18.358.112-9.368,4.015-12.045,4.8-12.937,3.851-1.868,3.131-5.221,9.145-16.84.446-.669,3.346-3.792,6.915-4.35a142.06,142.06,0,0,1,42.38,0c3.457.558,6.357,3.68,6.8,4.35,8.788,16.462,5.131,14.3,9.145,16.84,1.225,1.2,4.8,3.569,4.907,12.937,0,7.807-.112,10.552-.112,18.358C86.155,60.983,2.287,61.291,2.287,53.825Z" transform="translate(-1.793 0.25)" fill="#fff" stroke="#334048" stroke-width="1.5" fill-rule="evenodd"/>
          <path id="Path_3039" data-name="Path 3039" d="M118.156,22.141l-8.141,1.115c-.892.112-2.007,1-2.007,1.9v2.119a1.715,1.715,0,0,0,1.673,1.673h4.8A64.231,64.231,0,0,0,118.156,22.141Z" transform="translate(-108.007 -6.878)" fill="#334048" fill-rule="evenodd"/>
          <path id="Path_3040" data-name="Path 3040" d="M28.051,8.671a6.849,6.849,0,0,0-4.359,3.49c-1.561,4.1-4.011,8.414-5.581,12.441H80.522c-2.228-3.693-3.9-7.7-6.463-12.441a7.091,7.091,0,0,0-4.52-3.49C55.116,6.312,44.53,6.646,28.051,8.671Z" transform="translate(-6.492 -4.366)" fill="#fafafa" stroke="#656f75" stroke-linecap="round" stroke-linejoin="round" stroke-width="1.5" fill-rule="evenodd"/>
          <path id="Path_3043" data-name="Path 3043" d="M2.5,0H18.908a2.5,2.5,0,0,1,0,4.995H2.5A2.5,2.5,0,0,1,2.5,0Z" transform="translate(31.747 52.087)" fill="#656f75"/>
          <path id="Path_3050" data-name="Path 3050" d="M-5915.37-11800.929l29.035,4.337a49.484,49.484,0,0,0,8.8,0c2.922-.49,29.058-4.319,29.058-4.319" transform="translate(5924.148 11844.257)" fill="#fff" stroke="#656f75" stroke-linecap="round" stroke-width="0.75"/>
          <path id="Path_3051" data-name="Path 3051" d="M-5915.37-11800.93l32.156,5.771s6.511.652,9.745,0,32.181-5.747,32.181-5.747" transform="translate(5920.554 11834.088)" fill="#fff" stroke="#656f75" stroke-linecap="round" stroke-width="0.75"/>
          <path id="Path_3048" data-name="Path 3048" d="M9.617,51.839c5.242,1,10.483,1.673,15.614,2.788a8.125,8.125,0,0,1,3.011,3.123,8.146,8.146,0,0,1,0,2.342c-5.019-.781-9.926-1.561-14.944-2.454a6.75,6.75,0,0,1-3.792-3.457A4.863,4.863,0,0,1,9.617,51.839Z" transform="translate(-4.491 -16.813)" fill="#ff641e" fill-rule="evenodd"/>
          <path id="Path_3049" data-name="Path 3049" d="M28.14,51.839c-5.242,1-10.483,1.673-15.614,2.788a8.125,8.125,0,0,0-3.011,3.123,8.146,8.146,0,0,0,0,2.342c5.019-.781,9.926-1.561,14.944-2.454a6.75,6.75,0,0,0,3.792-3.457A4.863,4.863,0,0,0,28.14,51.839Z" transform="translate(51.163 -16.813)" fill="#ff641e" fill-rule="evenodd"/>
        </g>
      </g>
    </g>
    <g id="Group_2567" data-name="Group 2567" transform="translate(181.393 3284.179)">
      <g id="Group_2566" data-name="Group 2566" transform="translate(17.051 7)">
        <path id="Path_2674" data-name="Path 2674" d="M46.124,18.669A17.524,17.524,0,0,1,63.512,34.227H75.2a29.135,29.135,0,0,0-58.146,0H28.735A17.525,17.525,0,0,1,46.124,18.669Z" transform="translate(-17.051 -7)" fill="none" stroke="#334048" stroke-width="1"/>
        <path id="Path_2675" data-name="Path 2675" d="M38.538,15A13.62,13.62,0,0,0,25.08,26.669H52A13.62,13.62,0,0,0,38.538,15Z" transform="translate(-9.465 0.558)" fill="#334048"/>
        <path id="Path_2681" data-name="Path 2681" d="M28.613,44.373V56.062A17.524,17.524,0,0,0,44.171,73.45l.285,41.824a1.945,1.945,0,0,0,3.89,0L48.061,73.45A17.524,17.524,0,0,0,63.619,56.062V44.373A29.184,29.184,0,0,0,75.173,23H17.059A29.185,29.185,0,0,0,28.613,44.373Z" transform="translate(-17.043 8.116)" fill="#fff" stroke="#334048" stroke-width="1"/>
      </g>
    </g>
    <path id="Path_2679" data-name="Path 2679" d="M44.171,46.7v-2.3a1.945,1.945,0,1,1,3.89,0v2.3a5.8,5.8,0,0,1,0,10.949v2.3a1.945,1.945,0,1,1-3.89,0v-2.3a5.8,5.8,0,0,1,0-10.949Z" transform="translate(181.4 3299.295)" fill="#ff641e"/>
  </g>
</svg>
