<svg id="Layer_1" data-name="Layer 1" xmlns="http://www.w3.org/2000/svg" viewBox="0 0 133.53 86.32"><path d="M72.6,59.7c-.1.1-.2.2-.3.2a3,3,0,0,1-4.3-.5v-.1a33.29,33.29,0,0,0-2.5-2.8,34.83,34.83,0,0,0-49.1-.1c-.9.9-1.8,1.9-2.6,2.8A3.06,3.06,0,0,1,9,55.4a23.52,23.52,0,0,1,3-3.3,40.86,40.86,0,0,1,57.7.1c1,1,2,2.2,2.9,3.3l.1.2A2.75,2.75,0,0,1,72.6,59.7Z" transform="translate(-8.37 -2.9)" fill="#ff641e"/><path d="M63.7,68.4a1.38,1.38,0,0,1-.4.3A3.06,3.06,0,0,1,59,68a20.94,20.94,0,0,0-2.4-2.8,22.36,22.36,0,0,0-31.5-.1,20.94,20.94,0,0,0-2.4,2.8,3.08,3.08,0,0,1-5-3.6,21.09,21.09,0,0,1,3.1-3.6,28.61,28.61,0,0,1,40.2.2,32.69,32.69,0,0,1,3,3.5A3,3,0,0,1,63.7,68.4Z" transform="translate(-8.37 -2.9)" fill="#ff641e"/><path d="M54.7,77.5a5.55,5.55,0,0,1-.8.6,3.11,3.11,0,0,1-4.1-1.4,8.32,8.32,0,0,0-1.9-2.6,9.84,9.84,0,0,0-14,0A10.15,10.15,0,0,0,32,76.8a3.06,3.06,0,0,1-5.5-2.7,16.06,16.06,0,0,1,25.8-4.2,15.86,15.86,0,0,1,3,4.3A2.81,2.81,0,0,1,54.7,77.5Z" transform="translate(-8.37 -2.9)" fill="#ff641e"/><circle cx="32.43" cy="80.9" r="5.2" fill="#ff641e"/><path d="M132.5,2.9H20a9,9,0,0,0-9.2,9.2V47A23,23,0,0,1,13,45c.8-.6,1.5-1,2.1-1.4,0-10.5,0-21-.1-31.5,0-3.4,2.2-4.9,4.9-4.9H94.6V18.5l2.1,1.8,2.1-1.8V7.2h33.6c3.4,0,5.2,2.2,5.2,5V42.4c-5.2.1-10.5.2-15.7.2a12.89,12.89,0,0,1-1.3,1.8,7.77,7.77,0,0,1-3.1,2.2h20.1v33c0,3.3-2.2,5-5.4,5H98.8V55.3l-2-2.3-2.1,2.3V84.6H49.2a6.32,6.32,0,0,1-.5,2.1A13.09,13.09,0,0,1,47.2,89c44.8.5,78.6,0,85.1,0a9.16,9.16,0,0,0,9.6-9.5V12.1C141.8,7.9,138.1,2.9,132.5,2.9Z" transform="translate(-8.37 -2.9)" fill="#334048"/><path d="M69.7,46.6h6.1a11.79,11.79,0,0,1-3-2.2,10.45,10.45,0,0,1-1.7-2.1c-2.4,0-4.8,0-7.2.1,1,.6,2,1.2,3.1,2S68.9,45.9,69.7,46.6Z" transform="translate(-8.37 -2.9)" fill="#334048"/><path d="M82.2,60.8l-1.9-1.7a1.42,1.42,0,0,1-.1-2c1.6-1.6,3.1-3.2,4.6-4.7,1.8-1.9,3.6-3.7,5.5-5.7-3.7,0-7.2.2-10.5-1.7a13.34,13.34,0,0,1-6.4-8.3A13.11,13.11,0,0,1,87,20.4a13.31,13.31,0,0,1,9.7,5.2c4.2-4.7,9.2-6.5,15.2-4.4A13.09,13.09,0,0,1,120.3,36a13.35,13.35,0,0,1-12.7,10.7h-4.4l10,10.3a1.39,1.39,0,0,1,0,1.9l-1.9,1.9a1.39,1.39,0,0,1-1.9,0c-4-4.2-8.2-8.6-12.7-13.3-4.5,4.7-8.6,9-12.6,13.2A1.3,1.3,0,0,1,82.2,60.8Zm26.2-19.5a7.62,7.62,0,0,0,6.8-8.1,8,8,0,0,0-7.5-7.6,7.62,7.62,0,0,0-8.2,7,85.79,85.79,0,0,0-.1,8.8A89.39,89.39,0,0,0,108.4,41.3ZM93.9,31.8c-.6-4.1-4.6-6.6-8.8-6.1a8.14,8.14,0,0,0-6.8,7.8,7.85,7.85,0,0,0,7.1,7.9c2.8.2,5.7,0,8.5,0A61.52,61.52,0,0,0,93.9,31.8Z" transform="translate(-8.37 -2.9)" fill="#ff641e"/></svg>