<svg id="Layer_1" data-name="Layer 1" xmlns="http://www.w3.org/2000/svg" viewBox="0 0 1138.19 1073.13"><path d="M425.36,338.15q0-11.49,0-23c.56-1.18,0-2.5.49-3.69.11-1.26.23-2.51.37-4.1,4.82,1.66,8.71,4.62,12.46,7.64a146.6,146.6,0,0,1,37,44.21c1.58,2.91,3.39,5.72,4.68,8.76.95,2.24,2.48,2.31,4.34,2.13,2.34-.22,1.3-2.12,1.39-3.22A116.62,116.62,0,0,1,509.62,305c1.36-1.8,2.53-3.75,4-5.45,2.9-3.37,3.47-3.25,5.65.57,4.94,8.66,8.24,18,11,27.52,5.41,18.91,8.78,38.2,11.17,57.7,1,8.29,1.72,16.62,2.78,24.9.5,1.17-.12,2.48.5,3.63l.18,4.66c.51,1.18-.08,2.51.5,3.68-.3,5.71.61,11.36.91,17,.44,1.19-.09,2.5.47,3.68l.21,7.36c.46,1.2-.08,2.52.47,3.71,0,2.64,0,5.28,0,7.92v233c0,4.53,0,4.53-4.51,4.53q-142.36,0-284.73.09c-3.39,0-4.08-.88-4.08-4.15q.12-246.6,0-493.19c0-22.59,7.62-42.37,20.91-60.32a76.56,76.56,0,0,1,23.89-21.07,4.12,4.12,0,0,1,1.88-1.27,67.33,67.33,0,0,1,9.82-4.27,2,2,0,0,1,2.81,1q6.45,10.49,13.05,20.88c1.35,2.14-.72,2.05-1.58,2.34A61.18,61.18,0,0,0,298.36,157c-8,8.9-12.38,19.51-14.61,31.12a34.07,34.07,0,0,0-.78,9.87c-.6,1.42,0,3-.49,4.41-.06,2.92-.13,5.83-.19,8.74-.62,1.41,0,3-.49,4.38-.07,4.36-.22,8.73-.22,13.09q0,94.17,0,188.34,0,53.3.1,106.58c0,1.15.1,2.29.15,3.44a14,14,0,0,1,.17,3.77q0,47.77,0,95.54c0,1.24-.26,2.53.28,3.74-.25,13.74-.44,27.48.09,41.21,1,.62,2,.35,3,.35H389.33a6.74,6.74,0,0,0,3.06-.27c6.2.06,12.41.16,18.61.17q28.62,0,57.24,0c1.25,0,2.51-.12,3.77-.18,1.33.55,2.72.27,4.08.27q19.95,0,39.91,0c1.23,0,2.52.36,3.7-.34.06-1.26.17-2.52.17-3.78q0-90.72,0-181.43c0-5.88-.21-6.18-5.84-7.53a103.48,103.48,0,0,1-40.55-19.16c-11.1-8.73-19.66-19.68-26.52-32a145.83,145.83,0,0,1-12.55-29.69A182.51,182.51,0,0,1,428.13,368c-1-8.47-1.88-16.94-2.27-25.46C425.31,341.1,426,339.55,425.36,338.15Z" transform="translate(0 -4.16)" fill="#b17d57"/><path d="M684.81,315.18q0,14.93,0,29.86c-.63,1.41,0,3-.5,4.37-1.66,19.12-4.28,38-11,56.19a132.23,132.23,0,0,1-22.14,38,98.49,98.49,0,0,1-18.07,17.63c-11.75,8.55-24.79,14.88-39.22,17.87-1,.21-2,.59-2.94.89-.77,4.05-.21,8.14-.34,12.21-.18,5.56.26,11.14-.23,16.69,0,13.2-.11,26.4-.11,39.59q0,33.75.11,67.48a11.65,11.65,0,0,1,.21,3.77c0,16.21.07,32.42-.06,48.63,0,2.64.78,3.23,3.31,3.22q115.88-.09,231.76-.06c.9,0,1.85.24,2.68-.35.06-2.87.17-5.73.18-8.59q.06-38.4.08-76.81c.53-1.21.27-2.49.27-3.74q0-176.28,0-352.57c0-1.24.29-2.53-.3-3.73l-.19-8.9c-.57-3,.26-6.13-.48-9.15.56-16.83-2.89-32.73-12.72-46.54-7-9.81-16.73-16.56-28.32-20.38-3.65-1.2-4-2-2-5.34,3.61-6,7.37-11.94,10.86-18,1.43-2.5,2.94-2.8,5.46-1.74a81.89,81.89,0,0,1,39.87,34.75,106.88,106.88,0,0,1,15,55.88Q855.87,309.15,856,412q0,89.22.1,178.44c0,1.15.08,2.3.13,3.44a9.38,9.38,0,0,1,.19,3.08q0,49.62,0,99.25c0,1.07.51,2.3-.52,3.23q-34.33,0-68.67,0-109.89,0-219.79,0c-5.25,0-4.5.6-4.5-4.63q0-59.18,0-118.35,0-56.07-.15-112.14,0-3.43,0-6.87c.61-1.4,0-2.93.45-4.35l.24-9.47c.63-1.4,0-2.94.48-4.34.07-2.69.15-5.37.22-8.06.56-1.17,0-2.49.47-3.68.52-7.92.68-15.89,1.66-23.75q1.07-8.6,2.16-17.18c.86-6.8,1.51-13.66,2.74-20.37,1.61-8.81,3.19-17.63,5.25-26.36a171.56,171.56,0,0,1,14.05-39.12c.36-.71.83-1.37,1.17-2.09.85-1.81,1.55-2.13,3.12-.38,14,15.54,22.58,33.78,27.28,54a97.48,97.48,0,0,1,2.28,14.52c.44,1-.3,2.22.5,3.18,2.25.52,4,.47,5.22-2.15a144.66,144.66,0,0,1,23.18-34.71A189.76,189.76,0,0,1,679,309c3.89-2.95,4.86-2.41,5.33,2.55C684.79,312.69,684.26,314,684.81,315.18Z" transform="translate(0 -4.16)" fill="#b17d57"/><path d="M656.5,178.21l1.44-1.61a4,4,0,0,1,2-2.53l1.76-2c1.29-3.67,4.41-6,6.75-8.86,3-3.68,5.77-7.64,9.66-10.53l2-2c.51-1.33,1.13-2.55,2.83-2.59,4.28-4.23,8.63-8.39,12.82-12.7,5-5.11,10.66-9.37,16-14.08,7.29-6.51,15.43-11.83,23.25-17.59,1.85-1.36,3.91-2.41,5.88-3.61a4.36,4.36,0,0,1,2.84-1.77,212.39,212.39,0,0,1,88.11-30.17c-1.6,3.24-4.46,4.2-6.63,5.79A213.1,213.1,0,0,0,796,100,267.61,267.61,0,0,0,772,130.1a11.42,11.42,0,0,0-.85,1.84c-.5.67-.28,1.85-1.46,2.05-11.94,17.57-21.13,36.57-28.85,56.31a312.5,312.5,0,0,0-15.09,51.89c-1.95,9.64-3,19.47-4.32,29.22-3.43,24.66-7.24,49.24-16.73,72.48-1.57,3.85-3.23,7.78-6.29,10.95.38-7.68,1.45-15.21,1.63-22.8a17.5,17.5,0,0,0,0-7.52c0-13.37-1.44-26.61-3.24-39.83-.42-3.06-1.94-1.09-2.74-.66-9.42,5-18.16,11.06-26.91,17.13-2.1,1.45-4,4.61-6.43,3.78-1.93-.67-2.83-4-4.46-5.86-8.52-9.87-18.7-16.35-32.35-16.08-8,.16-15.37,2.35-22.78,4.85-.71.24-1.72,1.44-2.38.4a3.6,3.6,0,0,1,0-2.79c1.69-5.37,3-10.91,4.92-16.14,2.48-6.78,5-13.61,8-20.2a260,260,0,0,1,12-23.88A278.16,278.16,0,0,1,639.34,201a8.32,8.32,0,0,1,3.35-4.87l1.68-2a15,15,0,0,1,5.18-7c1-1.21,1.92-2.43,2.89-3.64C653.09,181.22,654.94,179.83,656.5,178.21Z" transform="translate(0 -4.16)" fill="#fff"/><path d="M411.43,132.77c6.22,6.28,12.53,12.47,18.64,18.87,12,12.57,23,26.06,33.84,39.64A252.4,252.4,0,0,1,490.86,232c4.1,7.85,7.24,16.21,10.74,24.36,4,9.31,6.83,19,9.84,28.68.23.76,1.31,1.94.14,2.73-.76.51-1.65-.08-2.53-.38-8.16-2.74-16.46-4.79-25.19-4.28-12.79.76-23.1,6-30.35,16.74-4,5.89-3.93,5.82-9.92,1.72-9.6-6.56-18.84-13.69-29.81-18.64-.78,6.77-1.75,13.34-2.25,20a283,283,0,0,0-.71,33.71c.2,4.65.85,9.27,1.18,13.92.06.74.81,1.89-.55,2.32s-1.47-.91-1.78-1.58a210.52,210.52,0,0,1-9.78-24.81,225.5,225.5,0,0,1-8.33-37.16c-1.34-9.48-2.22-19-3.55-28.5-3.39-24.15-7.92-48.08-17.48-70.65a350.51,350.51,0,0,0-21.21-42.65,366.78,366.78,0,0,0-20.48-30.82c-3.9-5.27-8.51-10.06-12.77-15.08-4.89-5.75-10.47-10.73-15.91-15.86A112.62,112.62,0,0,0,281.94,72c-.68-.42-1.14-1.09-1.87-1.34s-1.33-.45-1.08-1.37c.38-1.35,1.5-.82,2.28-.71,4.38.62,8.8,1.08,13.1,2,19.47,4.37,38.53,10,56.29,19.33a264.53,264.53,0,0,1,51.43,35c1.19,1,2.52,1.92,3.79,2.88a4.23,4.23,0,0,1,2.15,2c0,.74.58.77,1.12.79A3.31,3.31,0,0,1,411.43,132.77Z" transform="translate(0 -4.16)" fill="#fff"/><path d="M590.42,272.11c-2.83,7.08-5.65,14.17-8.53,21.23-.31.77-.31,1.87-1.37,2.18-.9.27-1-.46-1.4-1-3.49-5.58-9-8.1-15.06-9.53-8.6-2-17.06-1.78-25.11,2.37-1,.51-2.13.84-2.65,2a.63.63,0,0,1-.64.5,10.19,10.19,0,0,0-3.94,4.2c-1.36,2.61-2.08,1.32-2.68-.22-2.39-6.06-4.68-12.17-7-18.27q-2.22-5.83-4.4-11.68a1.88,1.88,0,0,1-1.06-2.15c-2.8-6.44-5.18-13.07-8.53-19.27a6.35,6.35,0,0,1-1.2-3c-3.9-8.06-7.77-16.14-11.74-24.17a3.59,3.59,0,0,1,.15-3.61c5-10.22,10.47-20.17,14.89-30.66-.36-.72.19-1,.63-1.39,21.2-46.77,33.28-96.31,44.47-146.22,2,3.75,2.37,7.8,3.19,11.7a853.84,853.84,0,0,0,23.66,88.13,3.41,3.41,0,0,0,.61.83c2.11,2,2.25,4.95,3.26,7.46.72,1.81,1.25,3.69,2,5.46.51,1.45.94,2.93,1.5,4.37,2.94,8,6.07,16,9.49,23.84a23.26,23.26,0,0,0,1.5,3.66c1.27,3.18,2.68,6.31,4,9.46.47,1,1,2,1.51,3,1,3.11,3.07,5.8,3.5,9.12a16.83,16.83,0,0,0,2.65,5.45,4.29,4.29,0,0,1,1.5,2.85c4.32,5.74,0,10.4-2.22,15-6.9,14.61-13.26,29.44-19.61,44.29a8,8,0,0,0-.32,1.65A2.8,2.8,0,0,1,590.42,272.11Z" transform="translate(0 -4.16)" fill="#fff"/><path d="M491,868c.87-.51,1.74-1,2.62-1.52a6.86,6.86,0,0,1,2.8-1.17c5.49-3.12,11.11-6,16.29-9.67,10.18-7.29,20.47-14.41,30.31-22.16,3.6-2.84,7.55-5.24,11.35-7.84.64-.64.93-1.78,2.18-1.57,9.24-7,18.93-13.27,28.65-19.49,4.38-2.8,9.23-4.87,13.88-7.24,1.76-.9,3.64-1.44,5.28.17a9.28,9.28,0,0,1,2.92,8.41c-1.33,8-6.19,13.42-13.18,17.16-5.57,3-11.2,5.87-16.68,9-9.43,5.41-17.4,12.85-26.12,19.25-20.32,14.92-40,30.79-61.14,44.52-23,14.87-47.92,25.16-74.3,32.14-11.22,3-22.4,6.18-33.73,8.68-8.07,1.77-16.36,2.54-24.56,3.75-7.55,1.11-15.17,1.28-22.78,1.6a93.36,93.36,0,0,1-9.61,0c-5.65-.58-11.34-.29-17-.92a204.75,204.75,0,0,1-22.4-4A91,91,0,0,1,259,926.31c-2.49-1.48-6.76.28-8.47,3.43-4.65,8.55-9.93,16.66-17.09,23.36-5.5,5.15-11.51,9.22-19.62,8.81a14.93,14.93,0,0,1-9.27-3.86c-9-7.71-12.61-17.82-14.14-29.29-.81-6.1.58-12.23-1-18.23-.1-.37.73-.84.52-1.49,1-2.12-.7-4.45.51-6.55.3-6.89.44-13.78.93-20.65.46-6.46,1.3-12.9,2-19.34.44-.89.06-1.94.55-2.82,1.27-7.91,2.39-15.84,3.84-23.72,1.17-6.37,2.74-12.67,4.13-19a1.31,1.31,0,0,1,.34-1.48c1-3.7,2.06-7.38,3-11.11.36-1.52,1-2.23,2.57-1.8.82,0,1.05.7,1.46,1.18,3.63,4.79,1.49,10.11,1.06,15.13-.69,8-2.14,16-3.12,23.94-.86,7-2.34,13.9-2.1,21a1.67,1.67,0,0,1-.45,2.1l-.27,7.46c-.67,1.11,0,2.4-.47,3.55-.42,11-.88,22.13,2.65,32.77,2.84,8.57,8.32,14.82,17.57,17.18,5.07,1.3,9.3-.47,13.53-2.74.2-1,1-1.28,1.79-1.65C246,918,250,911,255.48,905.34c.19-1.1,1.12-1.57,1.89-2.17,4.46-4.07,9.45-6.95,15.71-6.84a9.7,9.7,0,0,1,4,.55c10.6,4.73,21.74,7.15,33.26,8.58,11.86,1.47,23.68,1.22,35.53,1,1.13-.45,2.42.22,3.51-.49,11.42-.16,22.67-2,33.91-3.74A423.4,423.4,0,0,0,428.27,892c7.79-2.13,15.4-4.92,23-7.59,6.74-2.35,13.45-4.82,20.07-7.48,5.42-2.17,10.7-4.71,16-7.08C488.13,868.31,489.81,868.61,491,868Z" transform="translate(0 -4.16)" fill="#fff"/><path d="M960.23,920.41a38.78,38.78,0,0,0,5.2-9.68c.27-.79.5-2.05,1.62-1.94s1.28,1.45,1.55,2.36c.43,1.4-.35,2.69-.64,4-2.63,11.92-6.05,23.52-13.17,33.68a34.58,34.58,0,0,1-11.39,10.68c-7.38,4.1-15.49.84-20.14-8.56a51.78,51.78,0,0,1-5-21.29c0-1.48-.18-3-.28-4.44-.09-3.89-.18-7.79,0-11.68l.27-6.07-.7-.35L902.38,926c-.58.53-.19,1.86-1.47,1.83-16.83,16.82-38.51,23.92-60.66,29.83a277.85,277.85,0,0,1-45.74,7.83,297,297,0,0,1-41.85,1c-12.59-.59-25.2-2.34-37-7-6.61-2.59-13.47-5.76-16.72-13.09a20.06,20.06,0,0,1-1.69-7.47c-.19-5.1-.67-10.38-.09-15.28.83-7.08,1.72-14.33,4.12-21.17.34-1,.7-2.19,2.32-2.07s1.12,1.35,1.33,2.24c2.78,12,11.33,18.6,22.09,22.55,11.71,4.29,24,5.87,36.46,5.66,2.29.75,4.68,0,7,.43a28.19,28.19,0,0,0,6.93.08c2.8-.61,5.68.28,8.46-.49a275.78,275.78,0,0,0,46.86-4.07q6.87-1.14,13.71-2.41a1.24,1.24,0,0,1,.74-.36c7.58-1.12,14.88-3.41,22.18-5.63a128.88,128.88,0,0,0,26-10.61c10.13-5.68,20-12.24,24.13-23.75,2.9-8,4.34-16.55,6.42-24.86.58-2.32,1.08-4.66,1.61-7a1.28,1.28,0,0,1,.34-1.48c2.34-8,4.3-16.05,7.14-23.83a88.12,88.12,0,0,1,13.32-24.5c2.32-3,3.78-6.47,6.12-9.45a81.09,81.09,0,0,1,15-14.65c14.39-10.92,30.58-18.76,46.58-26.89,1-.53,2.18-.88,3.26-1.32h0c6-2.81,11.86-5.72,17.88-8.4,15.23-6.78,30-14.44,45-21.8,4.29-2.11,8.32-4.74,12.47-7.13.18-.66.86-.48,1.27-.75l7.47-4.43c.45-.37.7-1,1.43-1a179.61,179.61,0,0,0,22.18-16.43c1.84-1.63,3.95-2.92,5.56-4.87,2.7-3.26,3.22-3.15,5.49.46a9.54,9.54,0,0,1,0,4.12c-3,8.87-9,15.4-16,21.25-2.07,1.74-4.57,2.91-6.43,4.93-.81,1.72-2.39,2.33-4.07,2.8l-20.72,13.59a3.34,3.34,0,0,1-2.66,1.65c-11.5,6.47-22.85,13.19-34.53,19.36-17.07,9-34.87,16.49-51.91,25.53-5.65,3-11.49,5.71-16.68,9.53-.19.67-.87.48-1.29.74-9.59,5-18,11.69-27,17.61-7.28,4.81-9.11,12.25-11.56,19.55a223.19,223.19,0,0,0-8.8,38.67c-1.33,9.12-2.71,18.32-2.31,27.61-.66,1.62,0,3.35-.41,5-.8,8-.35,15.78,5.26,22.14,6.05,6.86,12.91,8.37,20.05,1.85A2.4,2.4,0,0,1,960.23,920.41Z" transform="translate(0 -4.16)" fill="#fff"/><path d="M633.28,84.37a192.62,192.62,0,0,0,22.8-39.56c2.74-6.21,4.62-12.72,7.32-19.74,1.69,4.25,1.14,8,1.6,11.63.47,1.19-.08,2.51.48,3.7l.21,6.66c.48,1.17-.1,2.49.49,3.66-.09,9.07,1.36,18,2.45,27,.68,5.68,1.7,11.31,2.57,17,1.26.73,1.38,2,1.62,3.27a213.53,213.53,0,0,0,7.43,28.69c.86,2.5.16,4.34-1.54,6.24-15,16.81-29.59,34-43.5,51.68-3.26,4.16-6.31,8.49-9.59,12.64-2.35,3-3.87,2.9-5.57-.45-8.8-17.44-17.9-34.73-23.82-53.48-4-12.62-4.05-12.45,5.11-21.91a325.54,325.54,0,0,0,28.59-33.56A11.27,11.27,0,0,1,633.28,84.37Z" transform="translate(0 -4.16)" fill="#b17e57"/><path d="M431.48,132c-1.49-1-1.56-2.44-1-3.95,4.32-11.39,6-23.34,8.12-35.26,1.66-9.5,2.6-19.08,3.83-28.62.82-6.37,1.28-12.83,1.65-19.28.35-6.09,1.33-12.17,1.25-18.31,0-.44-.09-1,.44-1.17a1,1,0,0,1,1.35.72c.51,1.51.88,3.06,1.35,4.58,7.44,24,20.56,44.82,36.11,64.25a420.52,420.52,0,0,0,29.47,32.83,5.13,5.13,0,0,1,1.52,5.74c-3.78,12.89-8.78,25.31-14,37.66-3.51,8.29-7.6,16.3-11.52,24.39a21.08,21.08,0,0,1-1.93,2.37c-1,1.49-1.78,1.07-2.54-.2-5.57-9.2-12.23-17.62-18.84-26.06-4.25-5.41-9-10.45-13.52-15.62-4.27-4.86-8.61-9.66-12.91-14.48a10.7,10.7,0,0,1-1.93-2l-5.66-6.27A2.42,2.42,0,0,1,431.48,132Z" transform="translate(0 -4.16)" fill="#b17e57"/><path d="M152,875.54c-.86,13.39-2.51,26.66-6,39.65-4,14.93-11.08,28.36-19.86,41a8.46,8.46,0,0,0-.64,1.51c0,.73-.66,1-1,1.43-6.07,8-12.17,15.91-19.34,23-12,11.92-26.88,18-43,21.86a79.85,79.85,0,0,1-11.82,1.65,59.85,59.85,0,0,1-6.83,0,50.31,50.31,0,0,1-19.82-4.71,37.6,37.6,0,0,1-20.2-22.83c-.43-1.28-1-2.52-1.45-3.78-.81-.87,0-2.06-.61-3l-.95-8.79c-.35-1.24.09-2.58-.44-3.8l0-4.4c.87-1.31-.4-2.88.49-4.2.62-12.62,3.82-24.68,8-36.53-.33-1.21.36-2,1.1-2.84,3.81-8.93,7.23-18,12.54-26.27.69-1.07,1.3-2.2,2.84-2,1.77.2,1.48,1.9,1.82,2.9,1.23,3.58-.59,6.7-1.9,9.89-3.7,9.06-7.5,18.1-9.41,27.76-2.76,13.93-.2,26.49,10.32,36.63,6.41,6.18,14.5,9.09,23.11,10.47,19.63,3.13,37-3.52,53.21-13.48a69.2,69.2,0,0,0,15.63-12.55c6.16-6.91,10.86-14.66,15.11-23,5.35-10.52,4.38-21.32,4.6-32.24.69-2.32,0-4.73.41-7.07-1-9.67,2.13-18.66,4.63-27.74,1.49-5.41,3.23-10.75,5-16.07a3.81,3.81,0,0,1,2.26-2.41c2-.69,3.58-1,3.5,2.19-.18,7.47-.08,15-.09,22.42-.61,1.15-.05,2.45-.45,3.62-.07,2.73-.15,5.46-.22,8.19C151.83,873.1,152.51,874.4,152,875.54Z" transform="translate(0 -4.16)" fill="#fff"/><path d="M465.22,27.7c1.3-9.91,7-16,16.25-19.37a57.53,57.53,0,0,1,38-.71c13,4.14,18.36,11.39,18.9,25s-2.3,26.64-5.83,39.58C529,85.47,525,98.68,521.14,111.91c-.4,1.38-.73,3.4-2.67,1C502.22,93,483.33,75,471.23,51.83c-3.07-5.88-5.67-11.89-6.07-18.63A16.65,16.65,0,0,1,465.22,27.7Z" transform="translate(0 -4.16)" fill="#fff"/><path d="M587.7,105.66c-2.13-9.81-5.45-19.29-8.09-29-3.53-13-6.93-26-7.94-39.55-1-13,4.73-22,16.15-27.73,16.18-8.07,32.09-6.48,47.31,2.3,9.36,5.4,12.37,15.06,9.39,26.16-3.94,14.67-12.66,26.64-21.74,38.4-3.85,5-7.9,9.8-11.86,14.7-.87,2.86-3.21,4.67-5,6.81-4.34,5.1-9.09,9.85-13.22,15.14-1.34,1.73-2.74,1.65-3.66-.33C588,110.43,587.16,108.15,587.7,105.66Z" transform="translate(0 -4.16)" fill="#fff"/><path d="M429.49,60.68c-.4,13.46-3.44,26.48-6.72,39.45-1.33,5.27-2.91,10.47-4.48,15.67-1.14,3.76-1.49,3.86-4.23,1.12a155.78,155.78,0,0,0-13-11.08c-7.48-6-15.71-10.82-23.79-15.81-7.59-4.68-15.4-9.09-21.76-15.29-9.49-9.26-11.57-21.29-3.12-32.4,5.28-7,12.43-11.05,20-14.33a54.43,54.43,0,0,1,24.73-4.31c10.26.57,19.51,3.61,25.76,12.43C428.09,43.44,429.87,51.79,429.49,60.68Z" transform="translate(0 -4.16)" fill="#fff"/><path d="M700,113.75a23,23,0,0,0-4.75,5c-1,.69-1.54.29-1.85-.72-2.7-9.21-5.57-18.37-8-27.64-3.18-11.92-5.49-24-4.43-36.43.74-8.66,3.45-16.59,10.23-22.52a28.5,28.5,0,0,1,14.39-6.35C719,23,732,24.54,744.23,30.85,755.07,36.44,762.14,45,764,57.29a15,15,0,0,1-2.49,10.05c-4.71,7.6-12.09,12.18-19.32,16.91-9.76,6.37-20.13,11.79-29.58,18.65-3.77,2.73-7.6,5.4-10.71,8.93A2.18,2.18,0,0,1,700,113.75Z" transform="translate(0 -4.16)" fill="#fff"/><path d="M1002.58,952.16c-3.64-5.37-4.11-11.58-4.94-17.76-1-7.62-.44-15.25-.64-22.87.7-1.1.08-2.37.45-3.5a230.2,230.2,0,0,1,3.88-33.26,344.47,344.47,0,0,1,7.9-33.85,134.92,134.92,0,0,1,8.46-23.08c1-2.11,2.41-2.7,4.3-2.23,2.26.55,2,2.59,1.76,4.25-1.77,15.43-5.15,30.58-8,45.83-.38,2.06-1.23,4.2-.74,6.42.72,1.11,0,1.92-.59,2.76a112.53,112.53,0,0,0-1.49,28.67c.51,7.56,2.26,14.73,9.06,19.62,7,5,13.25,2.69,17.31-4.44,1.61-2.83,2.75-5.92,4.11-8.89.44-.94.26-2.64,1.77-2.41s2.18,1.63,2.24,3.32c.19,5.77-1.1,11.29-2.71,16.75-2.8,9.49-6.77,18.4-13.27,26a21.94,21.94,0,0,1-11.06,7.42c-.79,1-1.74.62-2.68.29a17,17,0,0,1-8.94-3c-.74,0-1-.69-1.42-1.11-1-1.4-3.11-1.72-3.66-3.6C1003.28,953.13,1002.62,952.89,1002.58,952.16Z" transform="translate(0 -4.16)" fill="#fff"/><path d="M637.33,815.52c3.83,0,3.83,0,4,6.06-.75,1.35.08,2.9-.55,4.25-2.36,12.78-4.62,25.57-7.09,38.32s-4.13,25.46-3.33,38.4c.41,6.48,1.57,12.8,6.29,17.85,7.35,7.86,15.51,6.94,20.58-2.5a49.11,49.11,0,0,0,3.61-8.33c.95-3,2.2-2.54,3.94-.85.79,1.56.35,3.18.25,4.79-1.86,14.89-6.59,28.66-16.37,40.27-7.2,8.55-17.43,9.8-25.44,1.89-.94-.32-1.27-1.24-1.87-1.9-5.21-5.95-5.3-13.41-6.23-20.67-.86-6.71-.32-13.44-.63-20.15.64-1.12.12-2.37.39-3.53a18.85,18.85,0,0,0,.2-5.56c-1.19-1.58.18-2.79.61-4.13a204.75,204.75,0,0,1,3.19-24.19c1.45-8.37,2.59-16.87,5-25,3.33-11.13,5.79-22.61,11.39-33C635.4,816.34,636.34,815.9,637.33,815.52Z" transform="translate(0 -4.16)" fill="#fff"/><path d="M598.07,1018.54a147.72,147.72,0,0,1,15-17.64c1.23-1.2,2.47-1.24,4.06-.68,5.88,2.08,10.73,5.86,15.68,9.44,4,2.89,3.7,2.82,7-.89,4.17-4.69,7.87-9.74,11.75-14.64a2.07,2.07,0,0,1,2.93-.72c5.89,2.89,12.29,4.86,17.28,9.35,4.74,4.27,6.48,7.62,3.24,14.08-3.8,7.61-9.69,13.49-15.78,19.19-2.42,2.27-5.81.91-9.79-2.16-4.24-3.29-8.13-7.23-13.54-8.88-2.2-.68-3.63-.3-5,1.45a110,110,0,0,1-10.9,12.33c-3.46,3.2-4.53,3.26-8.41.62-5.55-3.76-11-7.67-16.78-11-2.15-1.26-1.74-2.32-1-3.73a44.08,44.08,0,0,1,2.7-4.16C597.16,1019.93,597.06,1018.79,598.07,1018.54Z" transform="translate(0 -4.16)" fill="#fff"/><path d="M207.27,1038.5c-2.18,1.87-3.8,4.37-6.41,5.78-1.14,0-2.3.39-3.41-.15-5.6-4.82-12.27-8-18.48-11.83-1.66-1-2.33-2-1.18-4,2.23-3.79,4.76-7.37,7.34-10.93a2.68,2.68,0,0,1,1.8-2.4l5.78-7.33a1.82,1.82,0,0,1,1.2-1.63c2-3.38,4.76-3.3,7.88-1.94,1.52.65,2.84,1.77,4.55,2,1,.43,2.45.07,2.72,1.66,3.21,2.26,6.45,4.47,9.61,6.81.9.67,1.51.5,2-.26,1.9-3.13,4.94-5.38,6.59-8.69a1.87,1.87,0,0,1,1.15-1.64,45.31,45.31,0,0,0,5.43-7.12c1.52-2.46,3.43-1.45,4.37-.94,5,2.72,10.65,4.21,15.3,7.76,6.6,5,7.57,8.3,4,15.61-2,4.18-5.06,7.7-7.63,11.52a4.82,4.82,0,0,1-2,2.18c-1.08.48-1.61,1.48-2.34,2.33-3.92,4.64-7.23,4.91-11.86,1a60.18,60.18,0,0,0-12.58-8.2c-2.76-1.32-5.24-1.62-7.13,1.66a71.56,71.56,0,0,1-4.78,6.55A6.69,6.69,0,0,1,207.27,1038.5Z" transform="translate(0 -4.16)" fill="#fff"/><path d="M578.49,872.1c.74-1.12,1.53-2.2,2.22-3.35s.81-2.86,2.74-2c1.71.72,2.23,2.12,1.91,3.95-1.16,6.59-1.87,13.25-3.32,19.8-3.19,14.41-7.51,28.41-14.53,41.48-5,9.25-11,17.57-20,23.36-5.89,3.79-12.54,5.1-19.32,6-.94.05-1.74.85-2.75.55-2.71,0-5.43.1-8.13-.05-1.29-.07-3,.89-3.8-1.12-.76-1.85.37-3.06,1.26-4.36a5.05,5.05,0,0,1,1-.89c.59-.65,1.22-1.28,1.87-1.87a185.24,185.24,0,0,1,16.79-13A145.88,145.88,0,0,0,559,918.88c4.26-4.83,6.55-11.14,8.7-17.31,3-8.71,6.28-17.35,9.44-26A3.78,3.78,0,0,1,578.49,872.1Z" transform="translate(0 -4.16)" fill="#fff"/><path d="M1037,1020c.21,2.93-1.57,5.34-3,7.67a67.57,67.57,0,0,1-15.85,18.23c-2,1.56-3.27,1.86-5.39-.26-5.51-5.52-12.27-9.33-19.29-12.68-6.19-3-5.93-2.86-1.87-8.7,5.64-8.14,12.66-15.1,18.71-22.87a1.58,1.58,0,0,1,2.09-.52c7.77,2.95,15.32,6.28,21.45,12.12A8.89,8.89,0,0,1,1037,1020Z" transform="translate(0 -4.16)" fill="#fff"/><path d="M956.72,718.11c2.75-3.63,5.63-7.16,8.17-10.92.87-1.29,1.4-1.62,2.87-1.18,8.51,2.56,16.19,6.46,22.3,13.11a3,3,0,0,1,1,3.21,46.71,46.71,0,0,1-15.64,25.26c-2.25,1.94-4,2.54-6.91-.26A49.12,49.12,0,0,0,948.66,736c-2.09-.62-2.52-1.55-1.49-3.63,2.27-4.62,5.42-8.63,8.41-12.76A2.43,2.43,0,0,1,956.72,718.11Z" transform="translate(0 -4.16)" fill="#fff"/><path d="M91.11,914.91c-2.2,1.38-3.69,3.57-6,4.94-2.73,1.64-5.22,2.07-7.58-.31s-5.16-3.7-7.81-5.44c-.64,0-1.19-.05-1.32-.82-3.32-1.7-6.58-3.53-10-5.07-2.08-.94-2.7-1.65-1.32-4,3.64-6.07,8.11-11.49,12.42-17,1.31-1.68,3.09-3.09,4-4.93,1.62-3.21,3.73-3.78,6.92-2.59,4,1.48,8,2.6,11.75,4.79,7.45,4.39,9.14,8.49,6.6,16.7-1.4,4.52-3.89,8.42-6.43,12.33C92.39,914.35,91.56,914.45,91.11,914.91Z" transform="translate(0 -4.16)" fill="#fff"/><path d="M654.55,1050.2c-.24,3.8-2,7-3.78,10.14A44.44,44.44,0,0,1,638.15,1075c-4,2.92-5.33,3.26-8.7-.47-4.61-5.1-10.69-8.17-16.76-11-1.88-.88-2-1.64-1.2-2.84a183.74,183.74,0,0,1,13.33-18.2c1.29-1.54,3-2.91,3.78-4.68,1.78-3.85,4.5-4,7.84-2.65,5.77,2.3,11.69,4.36,15.68,9.57A10.7,10.7,0,0,1,654.55,1050.2Z" transform="translate(0 -4.16)" fill="#fff"/><path d="M786.49,871.45c2-1.2,3.76-1.36,4.69,1.37a2,2,0,0,0,2.07,1.47,2.47,2.47,0,0,1,2.81,1.12c4.5.81,7.12-2.45,9.08-5.3,3.14-4.52,7.43-6.18,12.34-7.2a13.11,13.11,0,0,1,4.1,0c2.7.8,4.64,2.29,4.83,5.36a7.23,7.23,0,0,1-4,7.08c-2.1,1.19-4.46,2-5.66-1.33-.26-.73-.83-.64-1.41-.53-.81.78-2-.09-2.82.62-2.45.81-3.82,2.94-5.56,4.61a2.76,2.76,0,0,1-2.69,2.24c-4,2.41-8,4.55-12.91,4.2-3.76-.27-6.79-1.5-7.92-5.52a9.71,9.71,0,0,1-.11-3.4c.32-.91.65-1.81,1-2.72A4.27,4.27,0,0,1,786.49,871.45Z" transform="translate(0 -4.16)" fill="#fff"/></svg>