<svg id="Layer_1" data-name="Layer 1" xmlns="http://www.w3.org/2000/svg" viewBox="0 0 154.4 91.9"><path d="M93.4,59.5H100a.9.9,0,0,0,.9-.9V31a.9.9,0,0,0-.9-.9H93.4a.9.9,0,0,0-.9.9V58.6C92.4,59.1,92.9,59.5,93.4,59.5Z" fill="#ff641e"/><path d="M80.3,59.5h6.6a.9.9,0,0,0,.9-.9V41a.9.9,0,0,0-.9-.9H80.3a.9.9,0,0,0-.9.9V58.6A.9.9,0,0,0,80.3,59.5Z" fill="#ff641e"/><path d="M67.3,59.5h6.6a.9.9,0,0,0,.9-.9V48.7a.9.9,0,0,0-.9-.9H67.3a.9.9,0,0,0-.9.9v9.8A.92.92,0,0,0,67.3,59.5Z" fill="#ff641e"/><path d="M54.4,59.5H61a.9.9,0,0,0,.9-.9V44.3a.9.9,0,0,0-.9-.9H54.4a.9.9,0,0,0-.9.9V58.6A.9.9,0,0,0,54.4,59.5Z" fill="#ff641e"/><path d="M75.6,76.7H99.1a1.79,1.79,0,0,0,1.8-1.8v-.3a1.79,1.79,0,0,0-1.8-1.8H75.6a1.79,1.79,0,0,0-1.8,1.8v.3A1.79,1.79,0,0,0,75.6,76.7Z" fill="#c8c8c8"/><path d="M55.3,68.1H99.1a1.79,1.79,0,0,0,1.8-1.8V66a1.79,1.79,0,0,0-1.8-1.8H55.3A1.79,1.79,0,0,0,53.5,66v.3A1.79,1.79,0,0,0,55.3,68.1Z" fill="#c8c8c8"/><path d="M102.6,8.8a5,5,0,0,1,5,5V78.2a5,5,0,0,1-5,5H51.8a5,5,0,0,1-5-5V13.8a5,5,0,0,1,5-5h50.8m0-3.5H51.8a8.49,8.49,0,0,0-8.5,8.5V78.2a8.49,8.49,0,0,0,8.5,8.5h50.8a8.49,8.49,0,0,0,8.5-8.5V13.8A8.49,8.49,0,0,0,102.6,5.3Z" fill="#c8c8c8"/><path d="M100.9,24.1V15.8c0-.9-.1-1.6-1.1-1.6H91.2a1.6,1.6,0,0,0-1.5,1.4,1.6,1.6,0,0,0,1.4,1.5l4.9.1L71,38.6c-.5.4-.8.9-1.5.5L55.2,34.3c-1.7-.5-2.6,2.2-.7,2.9,4.5,1.7,15.1,5.2,15.1,5.2a1.5,1.5,0,0,0,1.8-.4L98,19.4,97.9,24a1.6,1.6,0,0,0,1.4,1.5A1.62,1.62,0,0,0,100.9,24.1Z" fill="#c8c8c8"/></svg>