<svg id="Layer_1" data-name="Layer 1" xmlns="http://www.w3.org/2000/svg" viewBox="0 0 131.68 86.1"><path d="M133.3,2.9H20.8a9,9,0,0,0-9.2,9.2V61L16,56.1l-.1-44c0-3.4,2.2-4.9,4.9-4.9H133.3c3.4,0,5.2,2.2,5.2,5V79.6c0,3.3-2.2,5-5.4,5H46.4V89h86.7a9.16,9.16,0,0,0,9.6-9.5V12.1A9.61,9.61,0,0,0,133.3,2.9Z" transform="translate(-11.02 -2.9)" fill="#334048"/><polygon points="84.48 3 84.48 15.6 86.58 17.4 88.68 15.6 88.68 3 84.48 3" fill="#334048"/><path d="M139.9,42.4l-15.7.3a12.45,12.45,0,0,1-1.5,1.9,18.1,18.1,0,0,1-2.5,2h19.7Z" transform="translate(-11.02 -2.9)" fill="#334048"/><polygon points="84.48 52.4 84.48 82.8 88.68 82.8 88.68 52.4 86.58 50.1 84.48 52.4" fill="#334048"/><path d="M46.5,46.6H74.4a12.37,12.37,0,0,1-2.2-2,13.81,13.81,0,0,1-1.3-2.2H46.5Z" transform="translate(-11.02 -2.9)" fill="#334048"/><path d="M29,42.4H11.6v4.2H25.4Z" transform="translate(-11.02 -2.9)" fill="#334048"/><path d="M83.1,60.8l-1.9-1.7a1.42,1.42,0,0,1-.1-2c1.6-1.6,3.1-3.2,4.6-4.7,1.8-1.9,3.6-3.7,5.5-5.7-3.7,0-7.2.2-10.5-1.7a13.34,13.34,0,0,1-6.4-8.3A13.11,13.11,0,0,1,87.9,20.4a13.31,13.31,0,0,1,9.7,5.2c4.2-4.7,9.2-6.5,15.2-4.4A13.09,13.09,0,0,1,121.2,36a13.35,13.35,0,0,1-12.7,10.7h-4.4l10,10.3a1.39,1.39,0,0,1,0,1.9l-1.9,1.9a1.39,1.39,0,0,1-1.9,0c-4-4.2-8.2-8.6-12.7-13.3-4.5,4.7-8.6,9-12.6,13.2A1.31,1.31,0,0,1,83.1,60.8Zm26.2-19.5a7.62,7.62,0,0,0,6.8-8.1,8,8,0,0,0-7.5-7.6,7.62,7.62,0,0,0-8.2,7,85.79,85.79,0,0,0-.1,8.8A89.74,89.74,0,0,0,109.3,41.3ZM94.7,31.8c-.6-4.1-4.6-6.6-8.8-6.1a8.14,8.14,0,0,0-6.8,7.8,7.85,7.85,0,0,0,7.1,7.9c2.8.2,5.7,0,8.5,0A61.52,61.52,0,0,0,94.7,31.8Z" transform="translate(-11.02 -2.9)" fill="#ff641e"/><path d="M42.2,78.1V36.6a1.07,1.07,0,0,0-1.9-.7l-29,31.2a1.07,1.07,0,0,0,.8,1.8H23.2a1.08,1.08,0,0,1,1,1.5l-6,13.2a1,1,0,0,0,.6,1.4l3.7,1.6a1.15,1.15,0,0,0,1.4-.5l6.6-13.9a1.17,1.17,0,0,1,1.7-.4l8.2,7.1A1,1,0,0,0,42.2,78.1Z" transform="translate(-11.02 -2.9)" fill="#ff641e"/></svg>