<svg id="Layer_1" data-name="Layer 1" xmlns="http://www.w3.org/2000/svg" viewBox="0 0 105.4 82.9"><path d="M36.6,48.5A19.9,19.9,0,1,0,56.5,68.4,19.89,19.89,0,0,0,36.6,48.5ZM48.4,80.2a16.71,16.71,0,0,1-11.8,4.9,16.89,16.89,0,0,1-11.8-4.9,16.71,16.71,0,0,1-4.9-11.8,16.89,16.89,0,0,1,4.9-11.8,16.71,16.71,0,0,1,11.8-4.9,16.89,16.89,0,0,1,11.8,4.9,16.71,16.71,0,0,1,4.9,11.8A17,17,0,0,1,48.4,80.2Z" transform="translate(-16.7 -5.4)" fill="#656f75"/><path d="M88.3,27.4c.2,6-5.4,11.4-11.1,11.4S66,33.5,66.1,27.5c.1-6.4,4.8-11.4,11-11.4A11.14,11.14,0,0,1,88.3,27.4Zm-18.5,0a7.4,7.4,0,0,0,14.8.2,7.43,7.43,0,0,0-7.3-7.7A7.31,7.31,0,0,0,69.8,27.4Z" transform="translate(-16.7 -5.4)" fill="#ff641e"/><path d="M113.3,5.4h-73a8.56,8.56,0,0,0-8.7,8.7V46.5a29,29,0,0,1,4.1-.6l-.1-31.8a4.25,4.25,0,0,1,4.6-4.6h73a4.52,4.52,0,0,1,4.9,4.7v41c-3.6-2.8-15.1-11.7-18.7-14.4-1.2-.9-1.5-.9-2.6.2-2.9,3-5.9,5.9-8.8,8.9C84.8,53.2,78.2,60,78,60.1L66.3,48.4c-.9-.9-1.4-.9-2.4-.1-2.9,2.4-5.8,4.9-8.7,7.3A17.4,17.4,0,0,1,57,58.9c2.4-2.1,4.9-4.1,7.3-6.2.5-.4.8-.4,1.3.1L95.3,82.5H54.1a27.89,27.89,0,0,1-4.4,4h.2l-.1.1h63.3a8.58,8.58,0,0,0,9-8.9V14.1A8.91,8.91,0,0,0,113.3,5.4ZM99.9,81.9c-2.8-2.7-5.6-5.5-8.4-8.2L81,63.2a4.68,4.68,0,0,1-.5-.6c2.4-2.4,4.7-4.7,7-7.1L97.7,45c.5-.5.8-.6,1.4-.1,2.1,1.7,4.3,3.2,6.4,4.9,4.2,3.3,8.5,6.5,12.7,9.8v18c0,3.1-2.1,4.7-5.1,4.7H100.8A1.27,1.27,0,0,1,99.9,81.9Z" transform="translate(-16.7 -5.4)" fill="#334048"/><path d="M38.7,73.6c.2-.2.3-.2.4-.3L43,69.4a2.12,2.12,0,0,1,2.6-.3,2.18,2.18,0,0,1,.8,2.5,1.56,1.56,0,0,1-.6.8c-2.5,2.5-5,5.1-7.6,7.6a2.12,2.12,0,0,1-3.1,0l-7.6-7.6a2.06,2.06,0,1,1,2.9-2.9l3.8,3.8a1.38,1.38,0,0,0,.4.3V58.3a2.08,2.08,0,0,1,2.1-2.2,2,2,0,0,1,2,1.9V73.6Z" transform="translate(-16.7 -5.4)" fill="#ff641e"/></svg>