<svg id="Layer_1" data-name="Layer 1" xmlns="http://www.w3.org/2000/svg" viewBox="0 0 121.9 74.8"><path d="M138.1,15.7a7.11,7.11,0,0,0-2.1-5.1h0a7.36,7.36,0,0,0-5.1-2.1H45.5a8.25,8.25,0,0,0-5.8,2.4L30,20.9a8,8,0,0,0-2.4,5.8V43a28.27,28.27,0,0,1,3.1-1.1V26.5A4.63,4.63,0,0,1,32,23.3l9.9-9.9a4.38,4.38,0,0,1,3.2-1.3h86.4a3.49,3.49,0,0,1,2.4,1,3.25,3.25,0,0,1,1,2.4V73a3.54,3.54,0,0,1-3.5,3.5H53.8a24.22,24.22,0,0,1-3.1,3.3h80.2a7.15,7.15,0,0,0,7.1-7.2Z" transform="translate(-16.2 -8.5)" fill="#334048"/><path d="M67.8,67.2a7.76,7.76,0,0,0,5.3,2H119a7.76,7.76,0,0,0,5.3-2,6.55,6.55,0,0,0,2.2-4.8V25.9a6.55,6.55,0,0,0-2.2-4.8,7.76,7.76,0,0,0-5.3-2H73.1c-4.2,0-7.6,3-7.6,6.8V62.4A6.66,6.66,0,0,0,67.8,67.2ZM83.9,54.5H69.5V46.2H83.9Zm0-11.8H69.5V33.6H83.9Zm-10.8,23a3.54,3.54,0,0,1-2.6-1,3,3,0,0,1-1.1-2.3V58H87.7V44.5h0V31.9h0V22.7h16v43Zm34.6-19.8h15v8.8h-15Zm14.9-3.5h-15V33.6h15Zm-1,22.3a4,4,0,0,1-2.6,1H107.7V58.2h15v4.2A3.57,3.57,0,0,1,121.6,64.7ZM119,22.6a3.54,3.54,0,0,1,2.6,1,3,3,0,0,1,1.1,2.3v4.2h-15V22.6Zm-45.9,0H83.9v7.5H69.5V25.9A3.4,3.4,0,0,1,73.1,22.6Z" transform="translate(-16.2 -8.5)" fill="#656f75"/><path d="M36.1,43.5A19.9,19.9,0,1,0,56,63.4,19.89,19.89,0,0,0,36.1,43.5ZM47.9,75.2a16.71,16.71,0,0,1-11.8,4.9,16.89,16.89,0,0,1-11.8-4.9,16.71,16.71,0,0,1-4.9-11.8,16.89,16.89,0,0,1,4.9-11.8,16.71,16.71,0,0,1,11.8-4.9,16.89,16.89,0,0,1,11.8,4.9,16.71,16.71,0,0,1,4.9,11.8A17,17,0,0,1,47.9,75.2Z" transform="translate(-16.2 -8.5)" fill="#656f75"/><path d="M46.8,61.8h-9V53a1.66,1.66,0,0,0-1.7-1.8,1.72,1.72,0,0,0-1.6,1.6v9H25.6a1.63,1.63,0,0,0-1.7,1.7,1.71,1.71,0,0,0,1.5,1.6h9.1V74a1.63,1.63,0,0,0,1.7,1.7,1.71,1.71,0,0,0,1.6-1.5V65.1h8.8a1.66,1.66,0,0,0,1.8-1.7A1.58,1.58,0,0,0,46.8,61.8Z" transform="translate(-16.2 -8.5)" fill="#ff641e"/></svg>