<svg xmlns="http://www.w3.org/2000/svg" width="109.013" height="96.77" viewBox="0 0 109.013 96.77"><g transform="translate(-486 -4526)"><path d="M30.087,68.828a3.526,3.526,0,0,1,3.522-3.522H35.37V58.262h3.522v7.044h1.761a3.526,3.526,0,0,1,3.522,3.522V89.959a3.526,3.526,0,0,1-3.522,3.522H38.892v7.044H35.37V93.481H33.609a3.526,3.526,0,0,1-3.522-3.522Z" transform="translate(468.678 4511)" fill="#334048"/><path d="M47.7,58.262a3.526,3.526,0,0,1,3.522-3.522h1.761V47.7H56.5V54.74h1.761a3.526,3.526,0,0,1,3.522,3.522V93.481A3.526,3.526,0,0,1,58.262,97H56.5v7.044H52.979V97H51.219A3.526,3.526,0,0,1,47.7,93.481Z" transform="translate(470.592 4513)" fill="#fafafa" stroke="#656f75" stroke-linecap="round" stroke-linejoin="round" stroke-width="1.5"/><path d="M47.7,58.262a3.526,3.526,0,0,1,3.522-3.522h1.761V47.7H56.5V54.74h1.761a3.526,3.526,0,0,1,3.522,3.522V93.481A3.526,3.526,0,0,1,58.262,97H56.5v7.044H52.979V97H51.219A3.526,3.526,0,0,1,47.7,93.481Z" transform="translate(524.592 4492)" fill="#fafafa" stroke="#656f75" stroke-linecap="round" stroke-linejoin="round" stroke-width="1.5"/><path d="M65.306,61.784a3.526,3.526,0,0,1,3.522-3.522h1.761V51.219h3.522v7.044h1.761a3.526,3.526,0,0,1,3.522,3.522V88.2a3.526,3.526,0,0,1-3.522,3.522H74.111v7.044H70.589V91.72H68.828A3.526,3.526,0,0,1,65.306,88.2Z" transform="translate(470.459 4514)" fill="#ff641e"/><path d="M65.306,61.784a3.526,3.526,0,0,1,3.522-3.522h1.761V51.219h3.522v7.044h1.761a3.526,3.526,0,0,1,3.522,3.522V79.27a3.526,3.526,0,0,1-3.522,3.522H74.111v7.044H70.589V82.792H68.828a3.526,3.526,0,0,1-3.522-3.522Z" transform="translate(486.459 4497)" fill="#fafafa" stroke="#656f75" stroke-linecap="round" stroke-linejoin="round" stroke-width="1.5"/><path d="M-4921.023-8072.913s12.386-.344,12.386,0,15.138-8.945,15.138-8.945l19.611,3.784,15.827-14.45,17.2-7.569h14.45" transform="translate(5415.765 12633.608)" fill="none" stroke="#ff641e" stroke-linecap="round" stroke-width="1"/><path d="M-4775.765-8372.741v94.77h107.013" transform="translate(5262.765 12899.741)" fill="none" stroke="#334048" stroke-linecap="round" stroke-linejoin="round" stroke-width="2"/></g></svg>