<svg xmlns="http://www.w3.org/2000/svg" width="82" height="87" viewBox="0 0 82 87"><g transform="translate(-253.004 -1725.871)"><g transform="translate(253.004 1725.871)" fill="none" stroke="#dcdcdc" stroke-width="1.5" stroke-dasharray="10 0"><rect width="82" height="87" rx="8" stroke="none"/><rect x="0.75" y="0.75" width="80.5" height="85.5" rx="7.25" fill="none"/></g><path d="M146.007,8.88c-2.588.44-4.289,2.648-6.335,4.587L125.709,26.848a6.724,6.724,0,0,0-2.223,3.3,5.135,5.135,0,0,0,.684,4.052,5.56,5.56,0,0,0,3.49,2.383,5.864,5.864,0,0,0,4.467-.779c.647-.4,7.618-7.2,8.484-7.995,1.43-1.369,3.611-4.307,7.305-3.717a6.125,6.125,0,0,1,3.454,2c.95.919,1.816,1.729,2.765,2.648,1.805,1.719,6.752,7,8.714,7.675a5.773,5.773,0,0,0,6.244-1.451,5.188,5.188,0,0,0,.717-6.114c-.824-1.539-9.507-9.434-11-10.923-1.847-1.829-3.715-3.548-5.614-5.346-1.409-1.349-3.527-4.277-7.138-3.658m.23,19.487a5.5,5.5,0,0,0-5.093,5.486c-.083,3.408,0,6.925,0,10.343,0,2.3-.292,8.314.157,10.163a5.747,5.747,0,0,0,6.408,4.127,5.525,5.525,0,0,0,4.967-5.556c.052-3.428,0-6.9,0-10.333,0-2.238.282-8.424-.157-10.183a5.758,5.758,0,0,0-6.335-4.087Z" transform="translate(147.201 1736.108)" fill="#ff641e" fill-rule="evenodd"/></g></svg>