<svg id="Layer_1" data-name="Layer 1" xmlns="http://www.w3.org/2000/svg" viewBox="0 0 154.4 91.9"><path d="M119.7,25.8a45.6,45.6,0,0,0-17-15.6A46.29,46.29,0,0,0,80.6,4.3a24.37,24.37,0,0,0-2.7.1.52.52,0,0,0-.4.2.45.45,0,0,0,0,.5c.5,1.3,1,2.5,1.4,3.8a1.61,1.61,0,0,0,.4.7,1.78,1.78,0,0,0,.8.7,2,2,0,0,0,1.1.3,13.59,13.59,0,0,1,3.5.7A11,11,0,0,1,87.9,13a8.24,8.24,0,0,1,2.7,3.3,9.84,9.84,0,0,1,.8,4.2c0,.2-.4.2-.7.2-6.2.1-12.3.1-18.5.2H70.8c-.1,0-.1,0-.1-.1a.1.1,0,0,0-.1-.1c0-.1-.1-.2-.2-.5s-.1-.5-.2-.8a18,18,0,0,0-.6-2.2A23,23,0,0,0,63.4,6.7a.47.47,0,0,0-.6-.1c-1.4.8-2.7,1.5-3.8,2.2-.1.2-.2.5,0,.7,1.3,2.5,2.6,4.9,3.7,7.3a22.08,22.08,0,0,1,2,9.4,28.25,28.25,0,0,1-.2,2.9,20.78,20.78,0,0,1-2.6,8.2,21.91,21.91,0,0,1-5.6,6.6,24.92,24.92,0,0,1-6.6,3.9,23.83,23.83,0,0,1-7.5,1.5h-.9c-2.5,0-5-.3-7.5-.5a.6.6,0,0,0-.4.1.52.52,0,0,0-.2.4v4.3a.76.76,0,0,0,.2.4.52.52,0,0,0,.4.2H56.7c.2,0,.4-.1.6-.1a2.65,2.65,0,0,0,.6-.5,2.09,2.09,0,0,0,.4-.6c2-3.9,4-7.9,6-11.8.1-.2.2-.3.2-.4l.3-.3c.1-.1.3-.1.6-.1h.1c6.5.2,12.9.3,19.4.5a1.27,1.27,0,0,1,.6.1c.2,0-3.6,8-5.6,12.4a.45.45,0,0,0,0,.5.76.76,0,0,0,.4.2H92.2a.37.37,0,0,0,.3-.1c.1-.1.3-.1.4-.2s.3-.3.4-.4.2-.3.3-.5c1.9-3.8,3.7-7.7,5.5-11.5a1.38,1.38,0,0,1,.3-.4c.1-.2.2-.3.4-.3s.3-.1.7-.1h.1c6.7.2,13.3.2,20,.3h4.1a.76.76,0,0,0,.4-.2.6.6,0,0,0,.1-.4A40.41,40.41,0,0,0,119.7,25.8Z" fill="#c8c8c8"/><path d="M34.5,39.3c7,1.8,13.3.8,17.7-5.1,5-6.8,3-13.4-1.6-19.7,1.3-1,2.6-2.1,4-3a1.47,1.47,0,0,1,1.1.2A18.74,18.74,0,0,1,61,21.8c1.3,7.1-.5,13.3-5.7,18.4a19.13,19.13,0,0,1-13.7,5.7c-2.2,0-4.3-.3-6.5-.5-.7-.1-1.2-.4-1-1.3C34.2,42.5,34.3,40.9,34.5,39.3Z" fill="#ff641e"/><path d="M35.6,34.9c.7-1.5,1.3-2.9,2-4.4,3.5,1,5.6.6,7.1-1.5,1.8-2.5,1.5-4.7-.9-8,1.3-1.1,2.5-2.3,3.8-3.5,3.8,3.4,4.8,9.4,2,13.5A11.1,11.1,0,0,1,35.6,34.9Z" fill="#c8c8c8"/><path d="M80.5,63.4a5.45,5.45,0,0,0-1.1-1.7,9.58,9.58,0,0,0-2.5-2,25.32,25.32,0,0,0-6.4-2.6,55.3,55.3,0,0,0-13.4-1.7h-2a50.88,50.88,0,0,0-10.2,1.3,25.74,25.74,0,0,0-7,2.6,13.08,13.08,0,0,0-3.3,2.5,3.91,3.91,0,0,0-1,1.6,5.26,5.26,0,0,0-.4,1.7,4.53,4.53,0,0,0,.3,1.6,6,6,0,0,0,.9,1.5,7.94,7.94,0,0,0,2.2,1.9,23,23,0,0,0,5,2.4,44.31,44.31,0,0,0,13,2.2h1.9c1.2,0,2.4,0,3.5-.1a53.53,53.53,0,0,0,7-.8,31.35,31.35,0,0,0,7.9-2.4,11.56,11.56,0,0,0,4.3-3,6.19,6.19,0,0,0,1.1-1.7,5.84,5.84,0,0,0,.4-1.8A1.71,1.71,0,0,0,80.5,63.4ZM59.2,60.8,60,60a.35.35,0,0,1,.2-.1c.1,0,.1.1.2.1l.8.8c.1.1.1.2,0,.4a4.62,4.62,0,0,0-.7.7c-.1.1-.2.1-.4,0l-.8-.8C59,61,59,60.9,59.2,60.8Zm-.3,6.7h-.7a1.8,1.8,0,0,1-1.5-.7,1.68,1.68,0,0,1-2.8,0,1.88,1.88,0,0,1-3-.1,1.51,1.51,0,0,1-1.4.7,2.32,2.32,0,0,1-1.6-.3,1.7,1.7,0,0,1-.1.7A2.85,2.85,0,0,1,45.9,70a4.44,4.44,0,0,1-3,.2A2.44,2.44,0,0,1,41,68a6.72,6.72,0,0,1,.7-3.4A9.29,9.29,0,0,1,43,65c-.1.4-.2.9-.3,1.3a3.4,3.4,0,0,0-.1,1,1,1,0,0,0,.6.9A3.86,3.86,0,0,0,46,68a.61.61,0,0,0,.3-.7c-.1-2.4-.1-4.7-.2-7.1a.27.27,0,0,1,.3-.3c.4,0,.9-.1,1.4-.1v4.4c0,1,.2,1.2,1.2,1.2h.2c.6,0,.8-.2.9-.8v-.7c0-.2,0-.2.2-.2h1.1c.2,0,.2.1.2.2V65a.37.37,0,0,0,.1.3.72.72,0,0,0,1.2-.3,3.4,3.4,0,0,0,.1-1v-.2h1.3a.35.35,0,0,1,.1.2v1.1c0,.1.1.2.1.3a.75.75,0,0,0,.8.1.45.45,0,0,0,.3-.3,4.87,4.87,0,0,0,.1-1.2v-.4h1.5v1.1c0,.7.2.9.9.9a2.77,2.77,0,0,0,.9-.1c.2,0,.3-.2.3-.4-.1-.7-.1-1.3-.2-2,.5-.1,1-.2,1.6-.3,0,.2.1.3.1.5a12.1,12.1,0,0,1,.1,1.9C61.3,66.5,60.4,67.4,58.9,67.5Zm3.3-.3c0-2.3-.1-4.7-.1-7,0-.2,0-.3.3-.3.5,0,.9-.1,1.4-.1v7.3c0,.3-.1.3-.3.3a4.87,4.87,0,0,0-1.2.1A.37.37,0,0,1,62.2,67.2Zm4.6,0c-.1.3-.1.5-.2.8A3,3,0,0,1,64,70.2c-.2,0-.4.1-.7.1a.35.35,0,0,1-.2-.1c-.1-.5-.2-1-.3-1.6.2-.1.5-.1.7-.2a6.72,6.72,0,0,0,1.2-.6.81.81,0,0,0,.4-.9c-.1-.9-.3-1.8-.4-2.7V64c.5-.1,1-.3,1.6-.4.1.3.1.6.2.9,0,.1.1.2.1.4.2.6.4.7,1,.7a3.4,3.4,0,0,0,1-.1c.4-.1.4-.2.4-.5-.1-.6-.1-1.3-.2-1.9.5-.1,1-.2,1.6-.3,0,.4.1.8.1,1.2a7.52,7.52,0,0,1,0,1.5,2.31,2.31,0,0,1-2.3,2.2C67.8,67.5,67.2,67.6,66.8,67.2ZM71,69.4l-.7.7a.3.3,0,0,1-.4,0c-.2-.3-.5-.5-.7-.8l-.8.8c-.1.1-.2.1-.4,0l-.7-.7a.19.19,0,0,1,0-.3l.7-.7c.1-.1.2-.1.4,0a6,6,0,0,0,.8.8l.8-.8a.21.21,0,0,1,.4,0,4.62,4.62,0,0,0,.7.7C71.2,69.1,71.2,69.3,71,69.4Zm.5-1.9v-.2c-.1-2.3-.1-4.7-.2-7,0-.3.1-.3.3-.3.4,0,.9-.1,1.3-.1v7.6Z" fill="#c8c8c8"/><path d="M39,87a26.81,26.81,0,0,1,.7-2.7c.5-2.1,1-4.3,1.6-6.4.1-.3.2-.4.4-.4h3.4c.3,0,.3,0,.4.3.1,2,.3,4,.4,6V84c.1-.1.1-.2.2-.3l3.3-6c.1-.2.2-.2.4-.2h4a6.37,6.37,0,0,1-.2.7l-2.1,8.4c-.1.2-.2.3-.4.3H48.4c.6-2.2,1.2-4.4,1.8-6.5h0c-.4.7-.7,1.3-1.1,2-.8,1.4-1.6,2.9-2.4,4.3-.1.2-.2.3-.4.3h-2a.27.27,0,0,1-.3-.3c-.1-1.1-.2-2.2-.2-3.4-.1-.9-.1-1.8-.2-2.7a.35.35,0,0,1-.1.2c-.5,1.9-1,3.9-1.4,5.8-.1.2-.1.3-.4.3H39.4C39.3,87,39.2,87,39,87Z" fill="#c8c8c8"/><path d="M66.9,81.1c-.2.8-.4,1.5-.6,2.2-.3,1.2-.6,2.3-.9,3.5,0,.1-.1.2-.3.2H62.5v-.3c.7-3,1.4-5.9,2.2-8.9.1-.2.1-.3.4-.3h2.3c.2,0,.3.1.4.3.9,1.8,1.7,3.6,2.6,5.3,0,.1.1.2.2.4.1-.5.2-.9.3-1.3.4-1.4.7-2.9,1.1-4.3.1-.2.1-.3.3-.3H75a.37.37,0,0,1-.1.3c-.7,2.9-1.5,5.9-2.2,8.8-.1.2-.2.3-.4.3H70c-.2,0-.3-.1-.4-.3-.9-1.8-1.7-3.6-2.6-5.4C67,81.4,67,81.3,66.9,81.1Z" fill="#c8c8c8"/><path d="M54.4,80.2c.2-.9.4-1.7.6-2.5,0-.1.1-.1.2-.2h8.7c0,.2-.1.3-.1.4-.2.6-.3,1.3-.5,1.9-.1.2-.1.3-.4.3H60.5c-.2,0-.3.1-.4.3-.4,1.5-.7,2.9-1.1,4.4-.1.2-.1.3-.4.3H56c.4-1.6.8-3.3,1.2-4.9Z" fill="#ff641e"/><path d="M58.9,85.7l-.3,1.2a.35.35,0,0,1-.2.1H55.7c.1-.5.2-.9.3-1.3l.1-.1a25.28,25.28,0,0,0,2.8.1Z" fill="#ff641e"/><path d="M114.7,51.7c2.6-1.2,5.5-2.4,8.5-2a2.21,2.21,0,0,1,1.3,1v1.1a13.57,13.57,0,0,1-2.2,3.9,34.49,34.49,0,0,1-5,5.1,2.66,2.66,0,0,0-1,1.1c-.2.1-.5.2-.7.3a1.38,1.38,0,0,0,.4.3c-.2,0-.5-.1-.7-.1,1.2-.9,2.1-2.1,3.2-3.1a18.85,18.85,0,0,0,2.5-3.1,10.67,10.67,0,0,0,1.6-3.2,1.29,1.29,0,0,0-.6-1.3,5.66,5.66,0,0,0-2.6.1,45.56,45.56,0,0,0-13.3,6.9,45.3,45.3,0,0,0-8.1,7,11.45,11.45,0,0,0-2.7,3.8,2.82,2.82,0,0,0-.2,1.8c.8.7,2.1.5,3.1.4a44.18,44.18,0,0,0,8.6-3.1,53.34,53.34,0,0,1-7.6,3.7,17.26,17.26,0,0,1-4.5,1,2.57,2.57,0,0,1-2-.8,1.59,1.59,0,0,1-.3-1.3,8.49,8.49,0,0,1,1.1-2.6l.3-.6a42.48,42.48,0,0,1,3.5-3.9c1.2-1.1,2.4-2.3,3.7-3.3a58.35,58.35,0,0,1,13.7-9.1Z" fill="#ff641e" fill-rule="evenodd"/><path d="M116.2,62a16.52,16.52,0,0,1,5.4.5c.8.3,1.7.7,1.9,1.6a3.08,3.08,0,0,1-1.4,2.7,27.75,27.75,0,0,1-7.6,4.5,71.62,71.62,0,0,1-8.9,3,53.52,53.52,0,0,1-13.8,2,10.79,10.79,0,0,1-4.3-.7,4.49,4.49,0,0,1-1.3-1.1v-1c1-2,3-3.2,4.8-4.3A12.27,12.27,0,0,1,93.6,68l-.3.6A14.7,14.7,0,0,0,89,72.1c-.3.5-.5,1.2-.1,1.6a4.47,4.47,0,0,0,2.5.9,23.75,23.75,0,0,0,5.3-.2A58.64,58.64,0,0,0,111,70.9a33.49,33.49,0,0,0,7.8-3.9,5.46,5.46,0,0,0,1.8-1.9,1.15,1.15,0,0,0-.5-1.4c-1.3-.8-2.8-.8-4.3-1a1.38,1.38,0,0,0-.4-.3,5.9,5.9,0,0,1,.8-.4Z" fill="#c8c8c8" fill-rule="evenodd"/><path d="M98.9,77.4c-.4.2-.8.3-1.2.5v6.4a1.37,1.37,0,0,1-.6,1.3c-1.1.6-2.2,1-3.3,1.6a1.74,1.74,0,0,1-1.4.3,1.27,1.27,0,0,1-.4-.7,1.59,1.59,0,0,1,.8-1c1.2-.6,2.5-1.1,3.7-1.7a6.6,6.6,0,0,0-.1-1.4,26.4,26.4,0,0,0-3.8,1.8,2.73,2.73,0,0,0-.9,3.7,1.77,1.77,0,0,0,1.7.5c.6,0,1-.4,1.5-.6.9-.4,1.9-.8,2.8-1.3A3.22,3.22,0,0,0,99,83.9C99,81.6,99,79.5,98.9,77.4Z" fill="#c8c8c8"/><path d="M105.7,77.4a6.12,6.12,0,0,0-1.2.5v7.8l1.2-.6Z" fill="#c8c8c8"/><path d="M112.8,85.2V77.4a6.12,6.12,0,0,0-1.2.5c-.1,2.6,0,5.2,0,7.8A6.12,6.12,0,0,0,112.8,85.2Z" fill="#c8c8c8"/><path d="M119.3,82.2a24,24,0,0,1-2.3,1.1.85.85,0,0,1-.7,0c.7-.7,2-.8,2.6-1.8.2-.6.3-1.5-.3-1.9a10.41,10.41,0,0,0-2.5-2.2,6.75,6.75,0,0,0-.2,1.4,7.15,7.15,0,0,0-2.1,3.1,1.63,1.63,0,0,0,.3,1.5,1.76,1.76,0,0,0,1.4.2c.1.2.3.4.4.6-2.3,1.1-4.6,2.2-7,3.3v1.3c3.5-1.6,6.9-3.3,10.4-4.8A10.82,10.82,0,0,0,119.3,82.2Zm-2.4-2.5,1.2,1.2-1.5.9A7.61,7.61,0,0,1,116.9,79.7Zm-1.2,2.4a2.77,2.77,0,0,1-1.3.3,5.85,5.85,0,0,1,1.5-2A9.85,9.85,0,0,1,115.7,82.1Z" fill="#c8c8c8"/><path d="M103.1,81.9a2.74,2.74,0,0,0-2.5-.9,2.66,2.66,0,0,0-1.1,3.1.78.78,0,0,0,.9.6c.9-.2,1.8-.8,2.7-1a.76.76,0,0,1,.2.4,2.51,2.51,0,0,1-.7.4l-3.9,1.8v1.4c1.3-.5,2.6-1.2,3.8-1.7.5-.2,1.1-.4,1.3-1A2.77,2.77,0,0,0,103.1,81.9Zm-2.8,1.4a1.45,1.45,0,0,1,.7-1c.4-.2.7,0,1.1.2A14.17,14.17,0,0,1,100.3,83.3Z" fill="#c8c8c8"/><path d="M111.1,85.3c.1-.6.2-1.2-.3-1.6a17.94,17.94,0,0,0-2.5-2.3,5.9,5.9,0,0,0-.2,1.4c-1,1-2.1,2.2-2.2,3.7a1.2,1.2,0,0,0,1.5,1.2,12.27,12.27,0,0,0,2.6-1.2A2.58,2.58,0,0,0,111.1,85.3Zm-3.9,1c-.2.1-.5,0-.7,0a8.82,8.82,0,0,1,2.4-2.7,15.93,15.93,0,0,1,1.3,1.3A11.69,11.69,0,0,1,107.2,86.3Z" fill="#c8c8c8"/></svg>