<svg xmlns="http://www.w3.org/2000/svg" width="101.367" height="82.961" viewBox="0 0 101.367 82.961"><g transform="translate(-497.633 -3465.29)"><path d="M85.561,120.191v64.061a7.95,7.95,0,0,0,7.95,7.95h43.566a7.948,7.948,0,0,0,7.948-7.948V120.162a7.9,7.9,0,0,0-7.9-7.9H93.486a7.926,7.926,0,0,0-7.926,7.926Z" transform="translate(412.822 3353.775)" fill="#19191a" stroke="#dcdcdc" stroke-width="1.5"/><rect width="4.021" height="43.989" transform="translate(561.543 3479.039)" stroke="#c8c8c8" stroke-linecap="round" stroke-linejoin="round" stroke-width="1.5"/><rect width="4.021" height="41.64" transform="translate(569.099 3481.389)" stroke="#c8c8c8" stroke-linecap="round" stroke-linejoin="round" stroke-width="1.5"/><path d="M250.26,81.767H237.588V73.913h-4.021v39.779H218.091v3.9h19.5v-8.1H250.26Z" transform="translate(343.452 3413.533)" fill="#c8c8c8"/><g transform="translate(0 24)"><ellipse cx="19" cy="18" rx="19" ry="18" transform="translate(561 3484)" fill="#19191a"/><path d="M6257.234,13138a20.283,20.283,0,0,1-14.307-5.856,19.924,19.924,0,0,1-4.338-6.358,19.854,19.854,0,0,1,0-15.569,19.924,19.924,0,0,1,4.338-6.358,20.341,20.341,0,0,1,31.8,4.073l-6.954,4.519a11.8,11.8,0,1,0,0,11.1l6.954,4.516a20.245,20.245,0,0,1-9.614,8.362A20.35,20.35,0,0,1,6257.234,13138Z" transform="translate(-5676.498 -9614.5)" fill="#fff" stroke="#334048" stroke-linecap="round" stroke-linejoin="round" stroke-width="1.5"/></g><path d="M151.642,256.29a16.752,16.752,0,1,0,12.475,12.477A16.752,16.752,0,0,0,151.642,256.29Z" transform="translate(375.438 3246.715)" stroke="#c8c8c8" stroke-linecap="round" stroke-linejoin="round" stroke-width="1.5"/><path d="M228.861,145.6a9.43,9.43,0,1,0,7.389,7.407A9.43,9.43,0,0,0,228.861,145.6Z" transform="translate(314.816 3325.996)" stroke="#c8c8c8" stroke-linecap="round" stroke-linejoin="round" stroke-width="1.5"/><path d="M223.8,145.521a5.2,5.2,0,1,0,4.077,4.086A5.2,5.2,0,0,0,223.8,145.521Z" transform="translate(319.043 3330.223)" fill="#dcdcdc"/><path d="M145.419,256.155a11.688,11.688,0,1,0,8.7,8.705A11.688,11.688,0,0,0,145.419,256.155Z" transform="translate(380.502 3251.777)" fill="#ff641e"/></g></svg>