<svg xmlns="http://www.w3.org/2000/svg" width="80.715" height="116.83" viewBox="0 0 80.715 116.83"><g transform="translate(-500.135 -2080)"><path d="M60.716,127.85h46.757a2.249,2.249,0,0,1,2.175,1.66l.8,3a2.547,2.547,0,0,1-.444,2.043,1.942,1.942,0,0,1-1.722.8H59.849a1.945,1.945,0,0,1-1.734-.812,2.551,2.551,0,0,1-.424-2.068l.884-3A2.246,2.246,0,0,1,60.716,127.85Z" transform="translate(456.461 2048)" stroke="#c8c8c8" stroke-linecap="round" stroke-linejoin="round" stroke-width="1.5"/><path d="M57.36,138.22h52.6a2.527,2.527,0,0,1,2.44,1.87l.884,3.35a2.865,2.865,0,0,1-.5,2.3,2.184,2.184,0,0,1-1.937.893H56.387a2.193,2.193,0,0,1-1.928-.929,2.872,2.872,0,0,1-.468-2.311l.946-3.39A2.5,2.5,0,0,1,57.36,138.22Z" transform="translate(456.891 2048)" stroke="#c8c8c8" stroke-linecap="round" stroke-linejoin="round" stroke-width="1.5"/><path d="M64.83,118.63h39.56a1.884,1.884,0,0,1,1.848,1.37l.672,2.52a2.193,2.193,0,0,1-.393,1.709,1.679,1.679,0,0,1-1.437.691H64.1a1.682,1.682,0,0,1-1.448-.707,2.2,2.2,0,0,1-.373-1.733l.734-2.52a1.9,1.9,0,0,1,1.821-1.33Z" transform="translate(455.93 2048)" stroke="#c8c8c8" stroke-linecap="round" stroke-linejoin="round" stroke-width="1.5"/><path d="M83.22,42.21a4.28,4.28,0,1,1,8.56,0h0a4.28,4.28,0,0,1-8.56,0Z" transform="translate(453 2047)" stroke="#c8c8c8" stroke-linecap="round" stroke-linejoin="round" stroke-width="1.5"/><path d="M104.64,98.22h9.66a1.46,1.46,0,0,1,1.59,1.3v5.39a1.47,1.47,0,0,1-1.59,1.31h-9.66a1.47,1.47,0,0,1-1.59-1.31V99.52a1.46,1.46,0,0,1,1.59-1.3Z" transform="translate(453 2047)" fill="#ff641e"/><path d="M61.54,98.22H71.2a1.46,1.46,0,0,1,1.59,1.3v5.39a1.47,1.47,0,0,1-1.59,1.31H61.54a1.48,1.48,0,0,1-1.6-1.31V99.52a1.47,1.47,0,0,1,1.6-1.3Z" transform="translate(453 2047)" fill="#ff641e"/><rect width="15.67" height="3.83" rx="0.84" transform="translate(532.66 2147.3)" fill="#c8c8c8" stroke="#c8c8c8" stroke-linecap="round" stroke-width="1.5"/><line x2="10.15" y2="28.13" transform="translate(567.5 2165.5)" fill="none" stroke="#dcdcdc" stroke-linecap="round" stroke-linejoin="round" stroke-width="5"/><line x1="9.21" y2="28.13" transform="translate(503.289 2165.5)" fill="none" stroke="#dcdcdc" stroke-linecap="round" stroke-linejoin="round" stroke-width="5"/><g transform="translate(502.492 2080.5)"><path d="M37.81,83.34h-26C-.35,76.94.55,66.37.55,66.37,5.14,28.46,0,27.44.55,18.24c1-16,17-17.74,17-17.74H58.09s16,1.69,17,17.74c.57,9.2-4.6,10.22,0,48.13,0,0,.89,10.57-11.24,17Z" fill="none" stroke="#dcdcdc" stroke-linecap="round" stroke-linejoin="round" stroke-width="2"/></g><path d="M64,94.97V64.586A11.658,11.658,0,0,1,75.646,52.94h33.392A11.658,11.658,0,0,1,120.78,64.586V95.525H64Z" transform="translate(448.109 2043.332)" stroke="#c8c8c8" stroke-linecap="round" stroke-linejoin="round" stroke-width="1.5"/></g></svg>