<svg xmlns="http://www.w3.org/2000/svg" width="102.086" height="127.142" viewBox="0 0 102.086 127.142"><g transform="translate(-186 -1182)"><path d="M14.5,55.5c3.808,1.142,5.9,0,5.9,0V49.79l-5.9-.19Z" transform="translate(200.086 1248.24)" fill="#656f75"/><path d="M14.5,55.5c3.808,1.142,5.9,0,5.9,0V49.79l-5.9-.19Z" transform="translate(239.145 1248.24)" fill="#656f75"/><rect width="16.74" height="20.925" rx="3" transform="translate(199.109 1288.218)" fill="#c8c8c8"/><rect width="16.74" height="20.925" rx="3" transform="translate(259.094 1288.218)" fill="#c8c8c8"/><path d="M0,99.757V45.906H.083C.1,41.47.3,28.711.3,25.083V7.839C.3,3.789,2.252,1.176,6.438,0H75.907a7.756,7.756,0,0,1,6.138,7.709c-.139,5.356,0,10.712,0,16.068v22.47H81.9V99.757Z" transform="translate(196.709 1197.852)" fill="#19191a" stroke="#dcdcdc" stroke-width="1.5"/><path d="M95.607,52.573V28.8c0-3.354-1.674-5.1-4.743-5.1H27.951c-3.208,0-4.743,1.75-4.743,4.958V52.573C22.062,52.359,57.067,63.024,95.607,52.573Z" transform="translate(178.404 1181.895)" stroke="#c8c8c8" stroke-linecap="round" stroke-linejoin="round" stroke-width="1.5"/><path d="M89.518,49.36c-27.153,6.295-44,4.178-63.458,0A35.135,35.135,0,0,1,28.8,55.646c1.852,5.385,3.067,8.988,5.061,14.373,1.282,3.45,4.7,5.048,10.54,5.048H71.886c5.127,0,8.261-1.262,9.685-4.123a69.931,69.931,0,0,0,2.706-7.4c1.139-3.281,1.348-4.613,2.487-7.894C87.9,52.029,89.233,49.444,89.518,49.36Z" transform="translate(179.764 1203.371)" fill="#313135" stroke="#656f75" stroke-linecap="round" stroke-linejoin="round" stroke-width="1.5"/><path d="M98.2,49.36c-30.866,7.23-50.02,4.8-72.135,0a40.582,40.582,0,0,1,3.111,7.22c2.1,6.185,3.486,10.324,5.753,16.509,1.457,3.962,5.343,5.8,11.981,5.8H78.152c5.829,0,9.39-1.45,11.009-4.735a80.863,80.863,0,0,0,3.076-8.5c1.3-3.769,1.532-5.3,2.827-9.067C96.361,52.425,97.872,49.457,98.2,49.36Z" transform="translate(175.426 1194.279)" stroke="#656f75" stroke-linecap="round" stroke-linejoin="round" stroke-width="1.5"/><g transform="translate(201.584 1182)"><path d="M27.072,34.84h4.582V19.114a4.049,4.049,0,0,0-3.348,3.764Z" transform="translate(-27.072 -19.076)"/><rect width="64.093" height="15.764" transform="translate(3.97)"/><path d="M70.012,19.114V34.84h4.582L73.36,22.878A4.049,4.049,0,0,0,70.012,19.114Z" transform="translate(-2.557 -19.076)"/></g><path d="M82.271,71.9H74.738a9.21,9.21,0,0,0-1.953.139,3.412,3.412,0,0,0-3.208,2.79c-.419,1.534-.7,3.208-.976,4.882H82.271Z" transform="translate(192.16 1212.094)" fill="#ff641e"/><path d="M68.6,71.9h7.533a9.212,9.212,0,0,1,1.953.139,3.412,3.412,0,0,1,3.209,2.79c.419,1.534.7,3.208.977,4.882H68.6Z" transform="translate(133.57 1212.094)" fill="#ff641e"/><path d="M45.72,93.1H69a1.6,1.6,0,0,1,1.619,1.619v4.655A1.49,1.49,0,0,1,69,100.995H45.72A1.49,1.49,0,0,1,44.1,99.376V94.721A1.6,1.6,0,0,1,45.72,93.1Z" transform="translate(179.986 1192.314)" fill="#c8c8c8" fill-rule="evenodd"/><path d="M75.1,50.214V29.784c0-3.208,1.535-3.113,3.371-3.284h2.181c2.876,0,4.165,1.813,4.264,5.859s.1,7.951,0,12c0,2.929-.595,3.766-2.578,4.324C79.959,49.238,77.579,49.657,75.1,50.214Z" transform="translate(203.096 1183.002)" fill="#c8c8c8"/><path d="M86.352,50.214V29.784c0-3.208-1.747-3.113-3.835-3.284H80.035c-3.271,0-4.738,1.813-4.851,5.859s-.113,7.951,0,12c0,2.929.677,3.766,2.933,4.324C80.825,49.238,83.532,49.657,86.352,50.214Z" transform="translate(110.9 1183.002)" fill="#c8c8c8"/></g></svg>