<svg id="Layer_1" data-name="Layer 1" xmlns="http://www.w3.org/2000/svg" viewBox="0 0 124.7 69.3"><path d="M139.7,72.9a22.17,22.17,0,0,0-22.2-22.3H92.3A22.11,22.11,0,0,0,70.1,72.9v7.7h69.6V72.9Zm-2.8,4.9H72.8l-.1-5.1c.2-9.9,7.8-19.4,19.7-19.3h24.9c11.9-.1,19.5,9.4,19.7,19.3Z" transform="translate(-15 -11.3)" fill="#334048"/><path d="M104.9,11.3A17.1,17.1,0,1,0,122,28.4,17.09,17.09,0,0,0,104.9,11.3ZM115,38.5a14.24,14.24,0,1,1,4.2-10.1A14.54,14.54,0,0,1,115,38.5Z" transform="translate(-15 -11.3)" fill="#ff641e"/><path d="M66.9,20.3A14.6,14.6,0,1,0,81.5,34.9,14.55,14.55,0,0,0,66.9,20.3Zm8.4,23a11.94,11.94,0,0,1-8.4,3.5,11.71,11.71,0,0,1-8.4-3.5A11.94,11.94,0,0,1,55,34.9a11.71,11.71,0,0,1,3.5-8.4A11.94,11.94,0,0,1,66.9,23a11.71,11.71,0,0,1,8.4,3.5,11.94,11.94,0,0,1,3.5,8.4A12.58,12.58,0,0,1,75.3,43.3Z" transform="translate(-15 -11.3)" fill="#ff641e"/><path d="M67.7,74.3l-25.9.1V70.9a15.11,15.11,0,0,1,15-15.2H75a13.84,13.84,0,0,1,3.6-2.8H56.7A18,18,0,0,0,38.7,71v6.3h29Z" transform="translate(-15 -11.3)" fill="#656f75"/><path d="M35.9,30.9A10.8,10.8,0,1,0,46.7,41.7,10.76,10.76,0,0,0,35.9,30.9Zm5.8,16.7a8.2,8.2,0,0,1-14-5.8A8.08,8.08,0,0,1,30.1,36a8.2,8.2,0,0,1,14,5.8A8.08,8.08,0,0,1,41.7,47.6Z" transform="translate(-15 -11.3)" fill="#ff641e"/><path d="M36.5,70.3H17.6v-2c.1-5.9,3.7-10.2,10.8-10.4H41a11.66,11.66,0,0,1,3.5-2.8H28.4A13.32,13.32,0,0,0,15,68.4V73H36.5Z" transform="translate(-15 -11.3)" fill="#334048"/></svg>