<svg xmlns="http://www.w3.org/2000/svg" width="84.814" height="65.314" viewBox="0 0 84.814 65.314"><g transform="translate(-906.381 -458.358)"><path d="M34.631,289.082a7.652,7.652,0,0,1,4.337,1.01L54.7,299.166H24.942l3.624-6.288A7.659,7.659,0,0,1,34.631,289.082Z" transform="translate(895.194 169.795)" stroke="#dcdcdc" stroke-width="1" fill-rule="evenodd"/><path d="M55.7,304.1a6.694,6.694,0,0,1,6.665,6.647v35.484a6.69,6.69,0,0,1-6.665,6.643H6.928a6.69,6.69,0,0,1-6.665-6.643v-6.66h11.1a11.081,11.081,0,0,0,0-22.163H.264v-6.66A6.694,6.694,0,0,1,6.928,304.1Z" transform="translate(910.552 166.299)" stroke="#dcdcdc" stroke-miterlimit="10" stroke-width="2" fill-rule="evenodd"/><path d="M75.123,327.832a6.645,6.645,0,0,1,0,13.29H61.815a2.165,2.165,0,0,1-2.226-2.208v-8.869a2.169,2.169,0,0,1,2.226-2.213Z" transform="translate(846.792 160.313)" fill="#ff641e" fill-rule="evenodd"/><ellipse cx="2.991" cy="2.991" rx="2.991" ry="2.991" transform="translate(918.486 492.07)" stroke="#dcdcdc" stroke-linecap="round" stroke-linejoin="round" stroke-width="1.5"/><path d="M35.612,35.569H26.726c-5.635,0-5.635,8.583,0,8.583h8.886v8.886c0,5.635,8.539,5.635,8.539,0V44.151h8.886c5.635,0,5.635-8.583,0-8.583H44.151V26.726c0-5.635-8.539-5.635-8.539,0Z" transform="translate(932.432 464.908)" stroke="#dcdcdc" stroke-width="3" fill-rule="evenodd"/></g></svg>