<svg xmlns="http://www.w3.org/2000/svg" width="117.669" height="91.047" viewBox="0 0 117.669 91.047"><g transform="translate(-791.377 -1258.658)"><path d="M39.283,289.09a11.327,11.327,0,0,1,6.419,1.495l23.281,13.432H24.942l5.364-9.307A11.336,11.336,0,0,1,39.283,289.09Z" transform="translate(786.795 969.594)" fill="#334048" fill-rule="evenodd"/><path d="M82.317,304.1a9.908,9.908,0,0,1,9.865,9.839v52.523a9.9,9.9,0,0,1-9.865,9.833H10.128a9.9,9.9,0,0,1-9.865-9.833v-9.859H16.692a16.4,16.4,0,0,0,0-32.806H.264v-9.859a9.908,9.908,0,0,1,9.865-9.839Z" transform="translate(797.677 971.641)" fill="#fafafa" stroke="#334048" stroke-miterlimit="10" stroke-width="2" fill-rule="evenodd"/><path d="M82.582,327.832a9.836,9.836,0,0,1,0,19.672h-19.7a3.205,3.205,0,0,1-3.295-3.269V331.107a3.211,3.211,0,0,1,3.295-3.275Z" transform="translate(731.788 974.173)" fill="#ff641e" fill-rule="evenodd"/><ellipse cx="4.427" cy="4.427" rx="4.427" ry="4.427" transform="translate(809.296 1307.818)" fill="#fafafa" stroke="#656f75" stroke-linecap="round" stroke-linejoin="round" stroke-width="1.5"/><rect width="34" height="44" transform="translate(860 1270)" fill="#fff"/><path d="M4.109,0A5.433,5.433,0,0,0,.164,1.683a.586.586,0,0,0,.008.822L3.695,6.028a.586.586,0,0,0,.83,0L8.046,2.506a.587.587,0,0,0,.008-.822A5.435,5.435,0,0,0,4.109,0Z" transform="translate(887.652 1282.134) rotate(-135)" fill="#fafafa" stroke="#656f75" stroke-linecap="round" stroke-linejoin="round" stroke-width="1.5"/><path d="M10.2,0A13.267,13.267,0,0,0,.142,4.609a.587.587,0,0,0,.03.8L3.365,8.6a.561.561,0,0,0,.45.171.59.59,0,0,0,.427-.222,7.623,7.623,0,0,1,11.926,0,.588.588,0,0,0,.427.222h.035a.586.586,0,0,0,.415-.172l3.192-3.192a.587.587,0,0,0,.03-.8A13.271,13.271,0,0,0,10.2,0Z" transform="translate(885.6 1292.803) rotate(-135)" fill="#ff641e"/><path d="M33.278,7.284a22.47,22.47,0,0,0-33.124,0A.587.587,0,0,0,.172,8.1l3.32,3.321a.626.626,0,0,0,.431.172.588.588,0,0,0,.422-.2,16.614,16.614,0,0,1,24.743,0,.588.588,0,0,0,.422.2h.016a.585.585,0,0,0,.415-.172L33.26,8.1A.587.587,0,0,0,33.278,7.284Z" transform="translate(883.698 1303.916) rotate(-135)" fill="#334048"/><path d="M71.946,32.905a2.721,2.721,0,0,1-2.478,1.722H60.681V52.378a3.088,3.088,0,0,1-.8,2.092,2.624,2.624,0,0,1-1.93.866H48.514a2.623,2.623,0,0,1-1.93-.866,3.088,3.088,0,0,1-.8-2.092V34.627H36.728a2.725,2.725,0,0,1-2.478-1.721,3.159,3.159,0,0,1,.4-3.162L51.025,9.035a2.594,2.594,0,0,1,4.146,0L71.54,29.745A3.152,3.152,0,0,1,71.946,32.905Z" transform="translate(835.803 1293.369)" fill="#fafafa" stroke="#334048" stroke-width="2"/></g></svg>