<svg xmlns="http://www.w3.org/2000/svg" width="141.475" height="106.583" viewBox="0 0 141.475 106.583"><g transform="translate(-470 -1584)"><path d="M38.529,289.089A10.731,10.731,0,0,1,44.61,290.5L66.666,303.23H24.942l5.082-8.817A10.74,10.74,0,0,1,38.529,289.089Z" transform="translate(464.347 1294.936)" fill="#334048" fill-rule="evenodd"/><path d="M78,304.1a9.387,9.387,0,0,1,9.346,9.322v49.76A9.382,9.382,0,0,1,78,372.5H9.609a9.382,9.382,0,0,1-9.346-9.316v-9.34H15.828a15.54,15.54,0,0,0,0-31.08H.264v-9.34A9.387,9.387,0,0,1,9.609,304.1Z" transform="translate(475.955 1296.083)" fill="#fafafa" stroke="#334048" stroke-miterlimit="10" stroke-width="2" fill-rule="evenodd"/><path d="M81.372,327.832a9.319,9.319,0,0,1,0,18.637H62.711a3.037,3.037,0,0,1-3.121-3.1V330.935a3.042,3.042,0,0,1,3.121-3.1Z" transform="translate(410.411 1297.234)" fill="#334048" fill-rule="evenodd"/><circle cx="4.194" cy="4.194" r="4.194" transform="translate(486.976 1630.573)" fill="#fafafa"/><rect width="33" height="35" transform="translate(534.998 1594)" fill="#fff"/><path d="M3.893,0A5.147,5.147,0,0,0,.156,1.595a.556.556,0,0,0,.007.779L3.5,5.711a.555.555,0,0,0,.786,0L7.623,2.374a.556.556,0,0,0,.007-.779A5.149,5.149,0,0,0,3.893,0Z" transform="translate(561.208 1606.241) rotate(-135)" fill="#334048"/><path d="M9.666,0A12.569,12.569,0,0,0,.134,4.367a.557.557,0,0,0,.029.756L3.187,8.147a.532.532,0,0,0,.426.162.559.559,0,0,0,.4-.21,7.222,7.222,0,0,1,11.3,0,.557.557,0,0,0,.4.21h.033a.555.555,0,0,0,.393-.163l3.024-3.024a.557.557,0,0,0,.029-.756A12.573,12.573,0,0,0,9.666,0Z" transform="translate(559.264 1616.348) rotate(-135)" fill="#334048"/><path d="M31.527,6.9A21.288,21.288,0,0,0,.146,6.9a.556.556,0,0,0,.016.769l3.146,3.146a.593.593,0,0,0,.408.163.557.557,0,0,0,.4-.185,15.74,15.74,0,0,1,23.441,0,.557.557,0,0,0,.4.185h.015a.554.554,0,0,0,.393-.163L31.51,7.671A.557.557,0,0,0,31.527,6.9Z" transform="translate(557.463 1626.877) rotate(-135)" fill="#334048"/><rect width="42" height="40" transform="translate(521 1635)" fill="#fff"/><rect width="42" height="40" transform="translate(496 1622)" fill="#fff"/><path d="M38.529,289.089A10.731,10.731,0,0,1,44.61,290.5L66.666,303.23H24.942l5.082-8.817A10.74,10.74,0,0,1,38.529,289.089Z" transform="translate(485.347 1300.936)" fill="#334048" fill-rule="evenodd"/><path d="M78,304.1a9.387,9.387,0,0,1,9.346,9.322v49.76A9.382,9.382,0,0,1,78,372.5H9.609a9.382,9.382,0,0,1-9.346-9.316v-9.34H15.828a15.54,15.54,0,0,0,0-31.08H.264v-9.34A9.387,9.387,0,0,1,9.609,304.1Z" transform="translate(496.955 1302.083)" fill="#fafafa" stroke="#334048" stroke-miterlimit="10" stroke-width="2" fill-rule="evenodd"/><path d="M81.372,327.832a9.319,9.319,0,0,1,0,18.637H62.711a3.037,3.037,0,0,1-3.121-3.1V330.935a3.042,3.042,0,0,1,3.121-3.1Z" transform="translate(431.411 1303.234)" fill="#334048" fill-rule="evenodd"/><circle cx="4.194" cy="4.194" r="4.194" transform="translate(507.976 1636.573)" fill="#fafafa"/><rect width="33" height="30" transform="translate(555.998 1605)" fill="#fafafa"/><path d="M3.893,0A5.147,5.147,0,0,0,.156,1.595a.556.556,0,0,0,.007.779L3.5,5.711a.555.555,0,0,0,.786,0L7.623,2.374a.556.556,0,0,0,.007-.779A5.149,5.149,0,0,0,3.893,0Z" transform="translate(582.208 1612.241) rotate(-135)" fill="#334048"/><path d="M9.666,0A12.569,12.569,0,0,0,.134,4.367a.557.557,0,0,0,.029.756L3.187,8.147a.532.532,0,0,0,.426.162.559.559,0,0,0,.4-.21,7.222,7.222,0,0,1,11.3,0,.557.557,0,0,0,.4.21h.033a.555.555,0,0,0,.393-.163l3.024-3.024a.557.557,0,0,0,.029-.756A12.573,12.573,0,0,0,9.666,0Z" transform="translate(580.264 1622.348) rotate(-135)" fill="#334048"/><path d="M31.527,6.9A21.288,21.288,0,0,0,.146,6.9a.556.556,0,0,0,.016.769l3.146,3.146a.593.593,0,0,0,.408.163.557.557,0,0,0,.4-.185,15.74,15.74,0,0,1,23.441,0,.557.557,0,0,0,.4.185h.015a.554.554,0,0,0,.393-.163L31.51,7.671A.557.557,0,0,0,31.527,6.9Z" transform="translate(578.463 1632.877) rotate(-135)" fill="#334048"/><path d="M78,304.1a9.387,9.387,0,0,1,9.346,9.322v49.76A9.382,9.382,0,0,1,78,372.5H9.609a9.382,9.382,0,0,1-9.346-9.316v-9.34H15.828a15.54,15.54,0,0,0,0-31.08H.264v-9.34A9.387,9.387,0,0,1,9.609,304.1Z" transform="translate(520.955 1317.083)" fill="#fafafa" stroke="#334048" stroke-miterlimit="10" stroke-width="2" fill-rule="evenodd"/><path d="M81.372,327.832a9.319,9.319,0,0,1,0,18.637H62.711a3.037,3.037,0,0,1-3.121-3.1V330.935a3.042,3.042,0,0,1,3.121-3.1Z" transform="translate(455.411 1318.234)" fill="#ff641e" fill-rule="evenodd"/><circle cx="4.194" cy="4.194" r="4.194" transform="translate(531.976 1651.573)" fill="#fafafa" stroke="#656f75" stroke-linecap="round" stroke-linejoin="round" stroke-width="1.5"/><rect width="30" height="30" transform="translate(579.998 1620)" fill="#fafafa"/><path d="M3.893,0A5.147,5.147,0,0,0,.156,1.595a.556.556,0,0,0,.007.779L3.5,5.711a.555.555,0,0,0,.786,0L7.623,2.374a.556.556,0,0,0,.007-.779A5.149,5.149,0,0,0,3.893,0Z" transform="translate(606.208 1627.241) rotate(-135)" fill="#fafafa" stroke="#656f75" stroke-linecap="round" stroke-linejoin="round" stroke-width="1.5"/><path d="M9.666,0A12.569,12.569,0,0,0,.134,4.367a.557.557,0,0,0,.029.756L3.187,8.147a.532.532,0,0,0,.426.162.559.559,0,0,0,.4-.21,7.222,7.222,0,0,1,11.3,0,.557.557,0,0,0,.4.21h.033a.555.555,0,0,0,.393-.163l3.024-3.024a.557.557,0,0,0,.029-.756A12.573,12.573,0,0,0,9.666,0Z" transform="translate(604.264 1637.348) rotate(-135)" fill="#ff641e"/><path d="M31.527,6.9A21.288,21.288,0,0,0,.146,6.9a.556.556,0,0,0,.016.769l3.146,3.146a.593.593,0,0,0,.408.163.557.557,0,0,0,.4-.185,15.74,15.74,0,0,1,23.441,0,.557.557,0,0,0,.4.185h.015a.554.554,0,0,0,.393-.163L31.51,7.671A.557.557,0,0,0,31.527,6.9Z" transform="translate(602.463 1647.877) rotate(-135)" fill="#334048"/></g></svg>