<svg xmlns="http://www.w3.org/2000/svg" width="112.948" height="91.483" viewBox="0 0 112.948 91.483"><g transform="translate(13669 6441)"><path d="M38.529,289.089A10.731,10.731,0,0,1,44.61,290.5L66.666,303.23H24.942l5.082-8.817A10.74,10.74,0,0,1,38.529,289.089Z" transform="translate(-13674.652 -6730.064)" fill="#334048" fill-rule="evenodd"/><path d="M78,304.1a9.387,9.387,0,0,1,9.346,9.322v49.76A9.382,9.382,0,0,1,78,372.5H9.609a9.382,9.382,0,0,1-9.346-9.316v-9.34H15.828a15.54,15.54,0,0,0,0-31.08H.264v-9.34A9.387,9.387,0,0,1,9.609,304.1Z" transform="translate(-13663.044 -6728.917)" fill="#fafafa" stroke="#334048" stroke-miterlimit="10" stroke-width="2" fill-rule="evenodd"/><path d="M81.372,327.832a9.319,9.319,0,0,1,0,18.637H62.711a3.037,3.037,0,0,1-3.121-3.1V330.935a3.042,3.042,0,0,1,3.121-3.1Z" transform="translate(-13728.589 -6727.766)" fill="#ff641e" fill-rule="evenodd"/><circle cx="4.194" cy="4.194" r="4.194" transform="translate(-13652.023 -6394.427)" fill="#fafafa" stroke="#656f75" stroke-linecap="round" stroke-linejoin="round" stroke-width="1.5"/><rect width="33" height="42" transform="translate(-13604 -6431)" fill="#fff"/><path d="M31.527,6.9A21.288,21.288,0,0,0,.146,6.9a.556.556,0,0,0,.016.769l3.146,3.146a.593.593,0,0,0,.408.163.557.557,0,0,0,.4-.185,15.74,15.74,0,0,1,23.441,0,.557.557,0,0,0,.4.185h.015a.554.554,0,0,0,.393-.163L31.51,7.671A.557.557,0,0,0,31.527,6.9Z" transform="translate(-13581.535 -6398.123) rotate(-135)" fill="#334048"/><path d="M3.893,0A5.147,5.147,0,0,0,.156,1.595a.556.556,0,0,0,.007.779L3.5,5.711a.555.555,0,0,0,.786,0L7.623,2.374a.556.556,0,0,0,.007-.779A5.149,5.149,0,0,0,3.893,0Z" transform="translate(-13577.79 -6418.759) rotate(-135)" fill="#fafafa" stroke="#656f75" stroke-linecap="round" stroke-linejoin="round" stroke-width="1.5"/><path d="M9.666,0A12.569,12.569,0,0,0,.134,4.367a.557.557,0,0,0,.029.756L3.187,8.147a.532.532,0,0,0,.426.162.559.559,0,0,0,.4-.21,7.222,7.222,0,0,1,11.3,0,.557.557,0,0,0,.4.21h.033a.555.555,0,0,0,.393-.163l3.024-3.024a.557.557,0,0,0,.029-.756A12.573,12.573,0,0,0,9.666,0Z" transform="translate(-13579.734 -6408.652) rotate(-135)" fill="#ff641e"/><path d="M40.078,24.522V43.639c0,.9-.044,1.736-.93,2.19s-1.467-.091-2.072-.626c-2.348-2.08-4.7-4.132-7-6.257-.587-.544-.974-.566-1.57,0-1.958,1.827-3.971,3.591-5.955,5.387-1.7,1.533-3.126,1.564-4.813.066-2.034-1.8-4.109-3.56-6.084-5.406-.684-.626-1.109-.547-1.761.044C7.631,41.13,5.3,43.17,2.994,45.21c-.6.541-1.215,1.057-2.072.61S0,44.615,0,43.743Q.018,24.685,0,5.631C.015,1.933,1.828,0,5.309,0H34.9c3.334,0,5.168,1.965,5.171,5.521Q40.084,15.016,40.078,24.522Z" transform="translate(-13597.13 -6396.49)" fill="#fafafa" stroke="#334048" stroke-width="2"/><rect width="7.573" height="3.155" rx="1" transform="translate(-13572.625 -6371.916)" fill="#fafafa" stroke="#656f75" stroke-linecap="round" stroke-linejoin="round" stroke-width="1.5"/><rect width="24.611" height="3.155" rx="1.578" transform="translate(-13589.663 -6377.999)" fill="#ff641e"/><rect width="12.621" height="3.155" rx="1" transform="translate(-13577.674 -6384.082)" fill="#fafafa" stroke="#656f75" stroke-linecap="round" stroke-linejoin="round" stroke-width="1.5"/></g></svg>