<svg xmlns="http://www.w3.org/2000/svg" width="117.417" height="91.975" viewBox="0 0 117.417 91.975"><g transform="translate(-489 -1259.498)"><path d="M38.977,289.09a11.085,11.085,0,0,1,6.282,1.463L68.043,303.7h-43.1l5.25-9.108A11.094,11.094,0,0,1,38.977,289.09Z" transform="translate(483.983 970.936)" stroke="#dcdcdc" stroke-width="1" fill-rule="evenodd"/><path d="M80.565,304.1a9.7,9.7,0,0,1,9.654,9.629v51.4a9.691,9.691,0,0,1-9.654,9.623H9.918a9.691,9.691,0,0,1-9.654-9.623v-9.648H16.341a16.052,16.052,0,0,0,0-32.1H.264v-9.648A9.7,9.7,0,0,1,9.918,304.1Z" transform="translate(495.16 972.618)" stroke="#dcdcdc" stroke-miterlimit="10" stroke-width="2" fill-rule="evenodd"/><path d="M82.091,327.832a9.626,9.626,0,0,1,0,19.252H62.814a3.137,3.137,0,0,1-3.224-3.2V331.037a3.142,3.142,0,0,1,3.224-3.205Z" transform="translate(429.411 974.591)" fill="#ff641e" fill-rule="evenodd"/><ellipse cx="4.332" cy="4.332" rx="4.332" ry="4.332" transform="translate(506.536 1308.11)" stroke="#dcdcdc" stroke-linecap="round" stroke-linejoin="round" stroke-width="1.5"/><path d="M40.078,24.522V43.639c0,.9-.044,1.736-.93,2.19s-1.467-.091-2.072-.626c-2.348-2.08-4.7-4.132-7-6.257-.587-.544-.974-.566-1.57,0-1.958,1.827-3.971,3.591-5.955,5.387-1.7,1.533-3.126,1.564-4.813.066-2.034-1.8-4.109-3.56-6.084-5.406-.684-.626-1.109-.547-1.761.044C7.631,41.13,5.3,43.17,2.994,45.21c-.6.541-1.215,1.057-2.072.61S0,44.615,0,43.743Q.018,24.685,0,5.631C.015,1.933,1.828,0,5.309,0H34.9c3.334,0,5.168,1.965,5.171,5.521Q40.084,15.016,40.078,24.522Z" transform="translate(565.339 1304.5)" stroke="#dcdcdc" stroke-width="2"/><rect width="7.573" height="3.155" rx="1" transform="translate(589.843 1329.075)" fill="#fafafa" stroke="#c8c8c8" stroke-linecap="round" stroke-linejoin="round" stroke-width="1.5"/><rect width="24.611" height="3.155" rx="1.578" transform="translate(572.805 1322.992)" fill="#ff641e"/><rect width="12.621" height="3.155" rx="1" transform="translate(584.794 1316.908)" fill="#fafafa" stroke="#c8c8c8" stroke-linecap="round" stroke-linejoin="round" stroke-width="1.5"/></g></svg>