<svg xmlns="http://www.w3.org/2000/svg" viewBox="0 0 84.314 64.312"><g transform="translate(22621.623 6733.342)"><g transform="translate(-22621.623 -6733.342)"><path d="M34.631,289.082a7.652,7.652,0,0,1,4.337,1.01L54.7,299.166H24.942l3.624-6.288A7.659,7.659,0,0,1,34.631,289.082Z" transform="translate(-11.187 -289.064)" fill="#334048" fill-rule="evenodd"/><g transform="translate(0 11.542)"><path d="M55.7,304.1a6.694,6.694,0,0,1,6.665,6.647v35.484a6.69,6.69,0,0,1-6.665,6.643H6.928a6.69,6.69,0,0,1-6.665-6.643v-6.66h11.1a11.081,11.081,0,0,0,0-22.163H.264v-6.66A6.694,6.694,0,0,1,6.928,304.1Z" transform="translate(4.171 -304.103)" fill="#fafafa" stroke="#334048" stroke-miterlimit="10" stroke-width="2" fill-rule="evenodd"/><path d="M75.123,327.832a6.645,6.645,0,0,1,0,13.29H61.815a2.165,2.165,0,0,1-2.226-2.208v-8.869a2.169,2.169,0,0,1,2.226-2.213Z" transform="translate(-59.589 -310.09)" fill="#ff641e" fill-rule="evenodd"/><ellipse cx="2.991" cy="2.991" rx="2.991" ry="2.991" transform="translate(12.105 21.669)" fill="#fafafa" stroke="#656f75" stroke-linecap="round" stroke-linejoin="round" stroke-width="1.5"/></g></g><rect width="23" height="29" transform="translate(-22575.004 -6725.202)" fill="#fafafa"/><path d="M2.776,0A3.671,3.671,0,0,0,.111,1.137a.4.4,0,0,0,.005.556L2.5,4.072a.4.4,0,0,0,.561,0l2.38-2.38a.4.4,0,0,0,.005-.556A3.672,3.672,0,0,0,2.776,0Z" transform="translate(-22556.582 -6717.482) rotate(-135)" fill="#fafafa" stroke="#656f75" stroke-linecap="round" stroke-linejoin="round" stroke-width="1.5"/><path d="M6.893,0A8.963,8.963,0,0,0,.1,3.114a.4.4,0,0,0,.02.539L2.273,5.81a.379.379,0,0,0,.3.116.4.4,0,0,0,.288-.15,5.15,5.15,0,0,1,8.057,0,.4.4,0,0,0,.288.15h.023a.4.4,0,0,0,.28-.116l2.157-2.157a.4.4,0,0,0,.02-.539A8.966,8.966,0,0,0,6.893,0Z" transform="translate(-22557.969 -6710.274) rotate(-135)" fill="#ff641e"/><path d="M22.482,4.921A15.18,15.18,0,0,0,.1,4.921a.4.4,0,0,0,.012.548L2.359,7.713a.423.423,0,0,0,.291.116A.4.4,0,0,0,2.935,7.7a11.224,11.224,0,0,1,16.716,0,.4.4,0,0,0,.285.132h.011a.4.4,0,0,0,.28-.116L22.47,5.47A.4.4,0,0,0,22.482,4.921Z" transform="translate(-22559.252 -6702.767) rotate(-135)" fill="#334048"/><path d="M35.612,35.569H26.726c-5.635,0-5.635,8.583,0,8.583h8.886v8.886c0,5.635,8.539,5.635,8.539,0V44.151h8.886c5.635,0,5.635-8.583,0-8.583H44.151V26.726c0-5.635-8.539-5.635-8.539,0Z" transform="translate(-22595.572 -6727.293)" fill="#fafafa" stroke="#334048" stroke-width="2" fill-rule="evenodd"/></g></svg>