<svg xmlns="http://www.w3.org/2000/svg" width="89.842" height="88.82" viewBox="0 0 89.842 88.82"><path d="M201.336,282.1q-.267-.087-.526-.182a32.776,32.776,0,0,1-5.133-2.461,49.953,49.953,0,0,1-8.423,5.762,49.366,49.366,0,0,1-6.694,2.808q1.327.115,2.684.117a30.029,30.029,0,0,0,18.1-6.032Z" transform="translate(-138.316 -214.077)" fill="#0297f1"/><path d="M121.555,237.664a62.489,62.489,0,0,0,10.907-4.1,51.028,51.028,0,0,0,8.678-6.027l.674-.538.756.428a35.309,35.309,0,0,0,5.5,2.7c.613.22,1.27.423,2.019.627.3-.271.585-.55.87-.835a30.315,30.315,0,0,0,5.252-7.059,30.969,30.969,0,0,1-7.335-2.9A23.506,23.506,0,0,1,142.7,215,77.11,77.11,0,0,1,126.7,226.317a58.491,58.491,0,0,1-16.125,5.676,30.087,30.087,0,0,0,10.975,5.683Z" transform="translate(-84.708 -164.698)" fill="#0297f1"/><path d="M131.905,156.786c-6.223-1.455-9.185-3.292-9.454-12.194-7.208-2.992-15.151,5.746-25.291,12.725-7.875,5.421-15.867,9.094-22.839,9.213a30.181,30.181,0,0,0,6.069,8.855,55.416,55.416,0,0,0,17.353-5.762,75.436,75.436,0,0,0,16.426-11.831l1.022-.952.863,1.1a20.977,20.977,0,0,0,6.3,5.381,29.034,29.034,0,0,0,7.218,2.784,30.053,30.053,0,0,0,2.34-9.321Z" transform="translate(-56.932 -110.3)" fill="#0297f1"/><path d="M50.178,21.955l-.084.152a.164.164,0,0,1-.138.108,1.067,1.067,0,0,1,.419.363.505.505,0,0,1,.014.543.777.777,0,0,1-.7.4,2.192,2.192,0,0,1-.91-.187.168.168,0,0,0-.049.058.213.213,0,0,0,0,.185.267.267,0,0,0,.122.147l.91.487a1.5,1.5,0,0,1,.278.234,1.4,1.4,0,0,1,.234.278.337.337,0,0,1,0,.309q-.049.091-.211.07a.634.634,0,0,1-.234-.073q-.744-.4-1.752-.849a.8.8,0,0,1-.494-.6,1.2,1.2,0,0,1,.157-.807c.033-.061.068-.119.105-.178-.14-.087-.2-.154-.168-.206a2.866,2.866,0,0,1,.365-.213c.257-.136.4-.215.428-.234a1.539,1.539,0,0,0,.452-.435l.1-.18,1.17.625Zm-.606.625a.409.409,0,0,0-.374,0,5.868,5.868,0,0,1-.576.234q.833.3,1.008-.03a.14.14,0,0,0-.058-.218Zm.016-2.548a2.059,2.059,0,0,0-1.43-.3.1.1,0,0,0-.089.035c-.007.014,0,.042.019.091l.379.891c.023.047.051.066.091.054a3.638,3.638,0,0,1,.667-.166.187.187,0,0,1,.124,0c.054.035.051.1,0,.206l-.353.59,1.132.678.122-.2a1.213,1.213,0,0,0,.2-1.088,2.011,2.011,0,0,0-.854-.8Zm2.155,1.025c.033-.016.054,0,.061.037l.1.487a.054.054,0,0,1-.04.068l-.456.138.108.44a.054.054,0,0,1-.042.07l-.468.138q-.058.016-.077-.056l-.1-.454a.061.061,0,0,1,.049-.08l.442-.131-.105-.423a.061.061,0,0,1,.049-.08l.48-.14Zm-.131-3.666a1.245,1.245,0,0,1,.3,1.97q-.716.936-1.5.356a1.659,1.659,0,0,1-.468-.559.194.194,0,0,1,0-.218c.047-.061.122-.07.234-.03a.517.517,0,0,0,.4.037,1.656,1.656,0,0,0,.447-.468c.234-.318.323-.508.248-.564A.26.26,0,0,0,51.1,17.9a4.81,4.81,0,0,0-1.277.468l-.519-.95c-.028-.056-.033-.1-.016-.117a.234.234,0,0,1,.068-.047,2.3,2.3,0,0,1,.828-.218A1.958,1.958,0,0,1,51.6,17.4Zm1-1.348q-.889-.725-1.083-.875a7.424,7.424,0,0,0-1.17-.749c-.049-.023-.08-.03-.089-.019a.276.276,0,0,0,0,.147l.154,1.317c1.5.894,2.391,1.4,2.67,1.518.2.087.321.1.372.035s.033-.175-.044-.349a2.808,2.808,0,0,0-.372-.543,3.236,3.236,0,0,0-.447-.468Zm2.106-2.183a1.246,1.246,0,0,1,.112,1.991q-.8.873-1.523.215a1.7,1.7,0,0,1-.426-.6.192.192,0,0,1,.016-.215c.051-.056.126-.058.234,0a.515.515,0,0,0,.4.073,1.638,1.638,0,0,0,.484-.419c.271-.295.372-.468.3-.538a.248.248,0,0,0-.171-.03,4.583,4.583,0,0,0-1.329.351l-.4-1.008c-.021-.061-.023-.1,0-.119a.234.234,0,0,1,.073-.042,2.265,2.265,0,0,1,.842-.138,1.954,1.954,0,0,1,1.38.494Zm3.9-1.792a2.293,2.293,0,0,1,.615,1.682.26.26,0,0,1-.1.173l-1.1.91c-.131.108-.234.11-.321,0a.166.166,0,0,1-.019-.19,8.06,8.06,0,0,0,.4-1.069c.182-.585.234-.936.138-1.039s-.416-.145-1.027-.168l-.234-1.048c0-.061.012-.089.075-.089a1.907,1.907,0,0,1,.812.171,2.5,2.5,0,0,1,.758.657Zm.55-1.991q-.686-.919-.84-1.109a7.316,7.316,0,0,0-.957-1.006c-.042-.037-.07-.049-.082-.04a.287.287,0,0,0-.04.14L57.08,9.379q1.872,1.83,2.234,2.106c.171.131.29.171.356.124s.073-.161.04-.349a2.782,2.782,0,0,0-.234-.613,3.135,3.135,0,0,0-.323-.569ZM62.6,9.562l-.138.094a.377.377,0,0,1-.234.07l.143.211a1.731,1.731,0,0,1,.248.7,1.972,1.972,0,0,1,.014.648.248.248,0,0,1-.115.161l-1.17.807c-.14.1-.234.089-.321-.021a.161.161,0,0,1,0-.19,7.955,7.955,0,0,0,.5-1.032q.356-.845.234-1.022c-.066-.1-.4-.18-1.011-.257l-.138-1.067c0-.066.019-.091.082-.08a4.457,4.457,0,0,0,.543.08.849.849,0,0,0,.526-.126l.091-.061.744,1.09Zm.919-2.391a2.5,2.5,0,0,0-.716-.826.939.939,0,0,0-1.069-.152.709.709,0,0,0-.325.716,1.678,1.678,0,0,0,.2.8q.292.522.976.145a1.563,1.563,0,0,0,.4-.267.157.157,0,0,1,.042-.037c.051-.026.089-.019.112.028a.119.119,0,0,1,0,.122,3.1,3.1,0,0,1-.959.655l-.335.187L62.484,9.7l.342-.19a1.529,1.529,0,0,0,.7-2.34Zm-.936-.234c.019.033-.066.1-.253.206s-.314.133-.349.07a.173.173,0,0,1,0-.18.386.386,0,0,1,.14-.133.482.482,0,0,1,.234-.047q.164,0,.211.084Zm-.545-1.86c.028,0,.04.026.03.063l-.15.468a.051.051,0,0,1-.07.033L61.4,5.533l-.143.442c0,.033-.028.044-.07.037l-.468-.119c-.042,0-.054-.037-.04-.082l.133-.442a.061.061,0,0,1,.082-.044l.454.1L61.474,5a.063.063,0,0,1,.082-.047l.491.119Zm6.979-.33a1.518,1.518,0,0,1-.07,1.568,3.229,3.229,0,0,1-1.394.938,2.974,2.974,0,0,1-1.324.321,1.13,1.13,0,0,1-.971-.777,2.054,2.054,0,0,1-.159-.653c-.019-.257.026-.409.131-.468s.2.023.278.2a.606.606,0,0,0,.358.391,2.036,2.036,0,0,0,1.217-.234c.494-.213.807-.351.936-.416a1.216,1.216,0,0,0,.416-.3c.033-.044.047-.08.037-.1a.271.271,0,0,0-.1-.075A1.745,1.745,0,0,0,67.854,5a.061.061,0,0,1-.063-.075L67.914,3.9c0-.044.033-.058.082-.044a1.542,1.542,0,0,1,1.008.9Zm-.54,2.929-.538-.19a.075.075,0,0,0-.1.047l-.208.484a.07.07,0,0,0,.04.1l.533.19a.061.061,0,0,0,.082-.035l.22-.517A.054.054,0,0,0,68.478,7.676ZM71.452.959c.04.145-.077.344-.351.592a2.258,2.258,0,0,1-.936.529,2.192,2.192,0,0,1-.433.051,2.183,2.183,0,0,0-.426.047c-.051.014-.1.075-.129.185s-.07.168-.112.18c-.094.023-.157-.033-.194-.171a1.083,1.083,0,0,1,.07-.505c.08-.264.173-.412.278-.442q-.087.026-.084.035a1.437,1.437,0,0,0,.454,0,5.556,5.556,0,0,0,.861-.1,1.857,1.857,0,0,0,.487-.248,2.208,2.208,0,0,1,.379-.22c.075-.019.122,0,.14.075Zm-.671,1.09c-.021-.082-.049-.119-.08-.11A.33.33,0,0,0,70.6,2l-.791.7A22.409,22.409,0,0,0,70.8,5.685c.11.18.2.262.271.234s.122-.119.18-.306a3.3,3.3,0,0,0,.1-.58,2.6,2.6,0,0,0,0-.587c-.019-.133-.11-.529-.267-1.182q-.194-.786-.311-1.221Zm5.582,2.466a2.3,2.3,0,0,1-.314,1.762.267.267,0,0,1-.173.1l-1.4.234c-.166.026-.26-.023-.281-.154a.159.159,0,0,1,.08-.171,8.011,8.011,0,0,0,.884-.725c.452-.412.664-.688.643-.826s-.288-.337-.8-.662l.316-1.029c.019-.058.056-.07.108-.037a1.858,1.858,0,0,1,.618.554,2.5,2.5,0,0,1,.325.952Zm-.99-2.574c.03.019.033.044,0,.075l-.337.468a.054.054,0,0,1-.082,0l-.475-.323q-.056-.03,0-.1l.309-.426a.068.068,0,0,1,.1-.019l.482.314Zm2.452,1.123q-.14-1.137-.178-1.38A7.558,7.558,0,0,0,77.315.336C77.3.283,77.28.259,77.264.262s-.056.035-.105.1l-.8,1.039q.716,2.517.9,2.936c.082.2.166.292.246.283s.143-.105.208-.285a2.782,2.782,0,0,0,.11-.641,3.188,3.188,0,0,0,0-.653Zm2.908-.234a3.4,3.4,0,0,1-.035.653,2.787,2.787,0,0,1-.145.634c-.073.178-.147.269-.222.274S80.172,4.3,80.1,4.1q-.154-.428-.746-2.978L80.2.1c.054-.066.089-.1.11-.1s.03.026.047.077a7.426,7.426,0,0,1,.264,1.364c.019.161.054.625.11,1.387Zm2.84,1.313a2.286,2.286,0,0,1-.632,1.673.234.234,0,0,1-.187.066l-1.43-.033c-.168,0-.253-.073-.25-.2a.166.166,0,0,1,.11-.154,8.065,8.065,0,0,0,1.006-.547c.517-.323.779-.554.781-.7s-.22-.381-.667-.8l.508-.948c.03-.054.068-.058.112-.016a1.9,1.9,0,0,1,.505.66,2.52,2.52,0,0,1,.143.994ZM91.2,3.909a3.391,3.391,0,0,1-.22.615,2.807,2.807,0,0,1-.318.569c-.119.147-.215.215-.288.2s-.126-.133-.14-.349q-.028-.456.126-3.067l1.1-.737q.105-.07.133-.063c.016,0,.023.033.023.089a7.131,7.131,0,0,1-.133,1.383c-.028.159-.124.615-.285,1.362Zm3.858,1.238a1.53,1.53,0,0,1-.583.838,1.132,1.132,0,0,1-1.025.11c-.683-.222-.936-.636-.73-1.242a3.4,3.4,0,0,1,.526-.9c.33-.442.585-.634.76-.578a1.7,1.7,0,0,1,.812.6,1.2,1.2,0,0,1,.234,1.17Zm-.594-.11c.023-.075-.058-.192-.248-.353a1.383,1.383,0,0,0-.412-.271.18.18,0,0,0-.182.066.5.5,0,0,0-.108.175c-.051.161.1.3.449.412C94.256,5.161,94.427,5.151,94.46,5.037Zm3.584,2.824.519-1.214-.208-.089c-.182-.08-.267-.257-.255-.54l.068-1.607c0-.049,0-.077-.019-.084a.166.166,0,0,0-.084.014l-.88.339V5.938a.075.075,0,0,1,0,.04c-.028.063-.131.084-.311.061a1.6,1.6,0,0,1-.421-.112c-.2-.087-.314-.192-.346-.323a2.218,2.218,0,0,1,.016-.314.215.215,0,0,0-.138-.234c-.1-.042-.234.033-.372.234a1.92,1.92,0,0,0-.25.412q-.409.957.447,1.324a1.083,1.083,0,0,0,.7.082,2.22,2.22,0,0,0,.686-.372,1.093,1.093,0,0,0,.592,1.039l.234.105Zm1.872-.77a1.989,1.989,0,0,1-.718.919,1.211,1.211,0,0,1-1.1-.11L97.883,7.8l.58-1.186.618.3c.108.054.175.051.206,0a.2.2,0,0,0,0-.124,3.664,3.664,0,0,0-.234-.65c-.014-.037,0-.068.047-.094l.856-.454c.047-.026.075-.035.089-.028s.03.035.042.084A2.052,2.052,0,0,1,99.9,7.1Zm.73-2.29c.016.04,0,.063-.037.075l-.538.171A.061.061,0,0,1,99.993,5l-.206-.524c-.016-.042,0-.073.051-.089l.505-.166a.068.068,0,0,1,.094.047l.208.529Zm1.111,4.742a2.506,2.506,0,0,0,.33-.95,1.888,1.888,0,0,0-.145-.817c-.021-.058-.056-.073-.11-.037l-.884.608a2.209,2.209,0,0,1,.234,1.015c-.068.124-.4.208-1.015.257a7.852,7.852,0,0,1-1.144.023.166.166,0,0,0-.168.087c-.063.117-.019.215.129.295l1.256.683a.248.248,0,0,0,.2.028,2.286,2.286,0,0,0,1.331-1.193Zm.81-2.648c.014.035,0,.056-.042.066l-.547.154a.056.056,0,0,1-.07-.044l-.187-.54c-.014-.04,0-.068.056-.082l.512-.145a.068.068,0,0,1,.091.051l.187.54Zm2.574,5.323-.133-.1a.393.393,0,0,1-.14-.192l-.152.206a1.719,1.719,0,0,1-.576.468,1.984,1.984,0,0,1-.608.234.234.234,0,0,1-.192-.056l-1.146-.854c-.136-.1-.164-.2-.084-.311a.166.166,0,0,1,.18-.061,7.877,7.877,0,0,0,1.137.14c.611.04.959,0,1.043-.11s.04-.44-.084-1.041l.964-.468c.058-.028.091,0,.1.051a4.513,4.513,0,0,0,.1.54.842.842,0,0,0,.29.456l.089.066-.791,1.06Zm1.053-2.9c0,.035,0,.054-.051.056l-.564.075a.054.054,0,0,1-.063-.054l-.108-.559c0-.042,0-.068.068-.075l.526-.07a.068.068,0,0,1,.084.063l.108.564Zm4.174,5.084-.77.342a1.839,1.839,0,0,0-.662-.438,3.212,3.212,0,0,0-.643-.1,2.95,2.95,0,0,1-.648-.105,2.34,2.34,0,0,1-.84-.51l-.412-.37.889-.978.517.468a4.445,4.445,0,0,0,1.139.819l-.285-.587a1.4,1.4,0,0,0-.257-.4.625.625,0,0,0-.321-.126.8.8,0,0,1-.253-.068q-.131-.115,0-.26a1.193,1.193,0,0,1,.618-.234,1.029,1.029,0,0,1,.922.185,1.588,1.588,0,0,1,.381.723,5.38,5.38,0,0,0,.325.889,7.079,7.079,0,0,0,.4.59c.037.051.044.091.021.117a.321.321,0,0,1-.1.058Zm-2.225,1.313-.028-.5a.063.063,0,0,0-.07-.061l-.468.016h0l-.047-.468a.056.056,0,0,0-.063-.061l-.468.012c-.044,0-.066.023-.061.063l.042.494q0,.044.056.049h.48l.04.484a.044.044,0,0,0,.054.047h.5c.033,0,.049,0,.047-.044Zm-.735.234a.042.042,0,0,1-.047.047h-.5a.051.051,0,0,1-.042,0s0-.019,0-.04l-.037-.51q0-.049.063-.049l.468-.014c.04,0,.063.016.063.054l.047.5Zm4.506,3.123-.108-.129a.393.393,0,0,1-.091-.218l-.194.164a1.7,1.7,0,0,1-.669.314,1.944,1.944,0,0,1-.643.075.246.246,0,0,1-.171-.1l-.917-1.1c-.108-.129-.11-.234,0-.321a.168.168,0,0,1,.19-.019,7.91,7.91,0,0,0,1.06.4c.585.18.936.234,1.039.136s.143-.419.161-1.032l1.048-.234c.066-.014.094,0,.089.075a4,4,0,0,0-.028.547.833.833,0,0,0,.175.512l.07.084Zm2.468,1.755a1.694,1.694,0,0,0,.683-1.2,5.956,5.956,0,0,0,0-1.493.534.534,0,0,0-.042-.192c-.028-.044-.1-.058-.2-.04l-.959.154v.211a.51.51,0,0,0-.594.04.468.468,0,0,0-.175.2l-.2-.295-1.086.742.306.468a1.256,1.256,0,0,0,.763.449,1.937,1.937,0,0,0,.159.915.7.7,0,0,0,.7.255,1.336,1.336,0,0,0,.648-.2Zm-.423-.421c-.112.075-.194.075-.234,0a.657.657,0,0,1-.08-.281,1.588,1.588,0,0,1-.014-.281.407.407,0,0,0,.44-.054l.049-.033c0,.351-.054.564-.161.636Zm-.021-1.072a.2.2,0,0,1-.19,0,.332.332,0,0,1-.171-.124.5.5,0,0,1-.063-.234.338.338,0,0,1,.056-.234.211.211,0,0,1,.222.019.48.48,0,0,1,.185.159.351.351,0,0,1,.054.22.234.234,0,0,1-.094.19Zm1.933,5.236a2.815,2.815,0,0,1-2.052.445.234.234,0,0,1-.145-.126L113,23.62q-.119-.234.056-.316a.164.164,0,0,1,.19.023,9.89,9.89,0,0,0,.894.6c.5.3.8.428.908.379a2.948,2.948,0,0,1-.318-.746.689.689,0,0,1,.435-.7,2.487,2.487,0,0,1,.922-.288.79.79,0,0,1,.877.346.825.825,0,0,1-.222.99,3.152,3.152,0,0,1-.873.648Zm.15-.8c.054-.028.084-.1.089-.208a.48.48,0,0,0-.047-.246c-.089-.168-.192-.22-.309-.157-.066.033-.042.152.066.356s.166.274.2.255Z" transform="translate(-36.437 0.001)" fill="#373435" fill-rule="evenodd"/><path d="M212.383,11.917q-.234,1.818-2.557,1.532-1.8-.22-1.619-1.687a3.23,3.23,0,0,1,.234-.774c.159-.4.311-.6.454-.578s.234.126.218.316a2.1,2.1,0,0,1-.065.267,1.615,1.615,0,0,0-.068.264c-.066.536.386.863,1.359.983a4.342,4.342,0,0,0,1.42-.042c.077-.014.117-.04.122-.075s-.044-.07-.147-.094l-.994-.222c-.4-.131-.592-.332-.557-.611a2.267,2.267,0,0,1,.48-1.032,1.256,1.256,0,0,1,1.128-.634.8.8,0,0,1,.613.44.912.912,0,0,1,.159.554c-.023.19-.065.281-.129.274a2.6,2.6,0,0,1-.321-.131,1.717,1.717,0,0,0-.468-.147.906.906,0,0,0-.545.084c-.129.066-.2.133-.2.2s.129.1.4.168c.416.1.648.166.7.182C212.3,11.259,212.432,11.512,212.383,11.917Zm17.18,8.715-.183-.15a.758.758,0,0,1-.271-.735.788.788,0,0,1-.807-.159l-.234-.19.842-1.018.147.122a.517.517,0,0,0,.468.147,2,2,0,0,0,.311-.185.22.22,0,0,1,.283,0c.075.061.084.15.026.264a1.781,1.781,0,0,0-.14.325.468.468,0,0,0,.215.419l.18.152Zm-.7.531-.066-.5a.063.063,0,0,0-.072-.061l-.449.033-.061-.468a.061.061,0,0,0-.073-.058l-.468.033c-.051,0-.073.028-.068.068l.068.489a.054.054,0,0,0,.061.051l.468-.028.061.468c0,.037.026.054.061.051l.5-.028c.042,0,.058-.019.049-.054Z" transform="translate(-159.481 -7.296)" fill="#373435" fill-rule="evenodd"/><path d="M76.616,114.656a33.894,33.894,0,1,1-63.28-.285l-9.3-6.3a44.92,44.92,0,1,0,81.906.276Z" transform="translate(0 -82.786)" fill="#00368e" fill-rule="evenodd"/></svg>