<svg xmlns="http://www.w3.org/2000/svg" width="128.705" height="98.277" viewBox="0 0 128.705 98.277"><path d="M61.953.958a3.9,3.9,0,0,1,2.508-.93,3.289,3.289,0,0,1,2.345,1.093c1.047,1.087,2.176,2.093,3.226,3.174.837.712,1.555,1.548,2.372,2.28a3.864,3.864,0,0,1,.364.4c-2.186.09-4.379-.009-6.566.049-.665.071-1.335.037-2,.042L53.866,17.4c-.92.9-1.8,1.844-2.757,2.7-1.887,1.883-3.766,3.772-5.657,5.651V17.134c1.258-1.187,2.442-2.442,3.687-3.652,1.1-.983,2.072-2.109,3.188-3.079,1.3-1.34,2.677-2.591,3.976-3.93,1.25-1.117,2.384-2.358,3.594-3.518.723-.627,1.35-1.352,2.056-2m-25.571,8.6c.99,0,1.977-.012,2.968.007.887.09,1.78.038,2.674.051,2.171.008,4.342-.017,6.512.014a28.925,28.925,0,0,1-2.257,2.274c-1.221,1.251-2.526,2.414-3.735,3.673-.022,2.163.06,4.328-.059,6.489q.007,5.349,0,10.692c-.017,1.086.045,2.173-.053,3.256-.01,1.947,0,3.893,0,5.84q-3.088-3.074-6.163-6.163c.024-1.641-.055-3.284.059-4.92V20.435c.02-1.279-.05-2.558.055-3.828.008-2.347,0-4.694,0-7.041m28.125,1.606c.487-.465.956-.957,1.438-1.433H92.487v12c-1.236-1.1-2.349-2.326-3.538-3.469-.873-.759-1.655-1.617-2.483-2.424H66.326c-2.179-.016-4.358.033-6.535-.024.6-.692,1.279-1.308,1.921-1.964.983-.841,1.821-1.834,2.791-2.685M76.377,18.59c2.9-.03,5.8,0,8.7-.014.964,1,2.006,1.923,2.974,2.921.745.73,1.454,1.5,2.244,2.183l4.884,4.884c1.369,1.263,2.648,2.62,3.98,3.92.77.659,1.447,1.419,2.183,2.115a3.56,3.56,0,0,1,.937,3.538,5.523,5.523,0,0,1-1.781,2.166c-1.723,1.716-3.438,3.443-5.163,5.158V39.276c-.077-.764-.05-1.53-.057-2.3-.8-.676-1.47-1.5-2.279-2.171-1.113-1.135-2.29-2.2-3.4-3.341-.838-.707-1.549-1.549-2.373-2.27-.562-.526-1.081-1.094-1.642-1.621-.838-.71-1.544-1.558-2.378-2.273-1.088-1.123-2.258-2.158-3.348-3.279-.872-.755-1.617-1.642-2.5-2.387a7.567,7.567,0,0,1-.979-1.047m-14.07,2.735a16.721,16.721,0,0,1,12.485,3.555,15.558,15.558,0,0,1,1.75,22.85A16.545,16.545,0,0,1,65.051,53c-.776-.017-1.554.037-2.326-.051a16.7,16.7,0,0,1-7.686-2.723A15.693,15.693,0,0,1,48,35.556a15.779,15.779,0,0,1,6.408-11.1,16.619,16.619,0,0,1,7.907-3.131M27.152,34.988c2.067-2.055,4.115-4.129,6.19-6.176.041,2.133,0,4.266.021,6.4a19.9,19.9,0,0,1,.053,2.057c.885.909,1.84,1.744,2.717,2.664.706.608,1.34,1.291,2.008,1.94.83.721,1.545,1.565,2.385,2.277,1.013,1.047,2.093,2.011,3.109,3.051.731.622,1.373,1.341,2.071,2,.644.557,1.208,1.2,1.829,1.778.754.629,1.383,1.4,2.122,2.034.553.5,1.054,1.062,1.6,1.573a8.052,8.052,0,0,1,1.029,1l-.042.135c-2.855.028-5.709,0-8.564.014-.364-.363-.723-.733-1.113-1.069-.936-.885-1.8-1.85-2.769-2.7q-1.923-1.915-3.837-3.837c-1.837-1.687-3.5-3.554-5.349-5.233-.9-.891-1.77-1.8-2.706-2.652a5.058,5.058,0,0,1-1.566-2.372,3.061,3.061,0,0,1,.814-2.887M85.8,32.039c1.574,1.593,3.234,3.1,4.809,4.69a12.367,12.367,0,0,1,1.407,1.385,4.263,4.263,0,0,1,.066,1.163c.019,1.2-.05,2.409.052,3.6.015,1.163,0,2.32.006,3.48.116,1.471.029,2.948.06,4.419.116,1.43.027,2.868.057,4.3.116,1.431.027,2.869.059,4.3.13,1.607-.009,3.221.086,4.829-.745,0-1.491-.007-2.235,0-1.552.116-3.112.022-4.666.065-1.7.145-3.423-.056-5.127.116-.023-.041-.072-.116-.1-.163,1.306-1.319,2.652-2.6,3.912-3.962q.981-.979,1.962-1.961a15.8,15.8,0,0,0-.048-1.708c-.051-1.512.051-3.029-.07-4.535V48.7c-.116-1.471-.028-2.949-.062-4.419-.142-1.665.034-3.342-.107-5.007-.016-1.2.006-2.4-.007-3.6-.1-1.207-.036-2.421-.058-3.63M78.754,52.982c1.471-1.579,3.034-3.07,4.551-4.6.016,1.072-.045,2.148.054,3.218.013,1.793,0,3.587.006,5.38q-2.2,2.19-4.383,4.379c-1.152,1.173-2.371,2.272-3.513,3.461-.888.93-1.871,1.769-2.763,2.7-1.38,1.372-2.737,2.77-4.156,4.1a11.455,11.455,0,0,1-2.47,2.169,3.251,3.251,0,0,1-2.933.073,5.081,5.081,0,0,1-1.257-.972c-1.163-1.124-2.309-2.257-3.488-3.358-.736-.774-1.562-1.455-2.283-2.244,2.824-.183,5.662-.031,8.489-.157L78.752,52.985M35.977,51.922c.7.676,1.352,1.387,2.08,2.027q2,1.992,3.994,3.992H61.669c.735.006,1.472-.029,2.209.05,1.608.036,3.218-.031,4.825.034-.843.909-1.773,1.728-2.647,2.607-.6.643-1.3,1.19-1.9,1.834-.519.555-1.108,1.034-1.635,1.58H51.679c-.388,0-.772-.063-1.163-.06H35.981V51.92m88.366,25.363c1.481-1.016,2.976-2.02,4.361-3.166a3.52,3.52,0,0,1-.937,1.62c-.443.412-.958.737-1.437,1.1-2.127,1.535-4.292,3.023-6.525,4.4a20.509,20.509,0,0,1-1.915,1.107,4.4,4.4,0,0,1,1.512-1.73c1.64-1.121,3.3-2.209,4.94-3.331m-25.566.259c.973-.845,1.861-1.778,2.819-2.642a4.56,4.56,0,0,1-.776,1.654A13.672,13.672,0,0,1,99.339,78.1,59.186,59.186,0,0,1,94.23,82.3a7.413,7.413,0,0,1-1.191.874,3.529,3.529,0,0,1,1-1.659c1.547-1.365,3.193-2.609,4.737-3.977M71.5,80.851a1.793,1.793,0,0,1,1.34-.264A8.063,8.063,0,0,1,74.728,81a.284.284,0,0,1,.134.428,2.3,2.3,0,0,1-1.25,1.047,12.413,12.413,0,0,0-2.457,1.206,5.3,5.3,0,0,1,.916,1.1,1.214,1.214,0,0,1-.514,1.244c-.451.3-.98-.16-1.459.021a2.278,2.278,0,0,0-1.078.906c-.349.7-.576,1.445-.869,2.166-.041.167-.206.233-.336.315,0-.529.2-1.037.191-1.564a.8.8,0,0,0-.942-.759c-.433.152-.641.6-.919.93-.21.284-.507.5-.7.79a7.108,7.108,0,0,1-1.367,2.608,4.409,4.409,0,0,1-2.13.629c.484-.457,1.1-.737,1.611-1.163a4.213,4.213,0,0,0,1.227-1.471c-.509.092-1.144.207-1.541-.219a.993.993,0,0,1-.048-1.117,4.224,4.224,0,0,1,.957-1.585.709.709,0,0,1,.988.1,2.151,2.151,0,0,1,.458.96,4.621,4.621,0,0,0,1.279-1.351,1.109,1.109,0,0,1,1.069-.516c.372.048.57.4.76.68.36-.617.881-1.117,1.279-1.7a4.669,4.669,0,0,1,1.69-2.022,16.3,16.3,0,0,1,1.79-.915,7.342,7.342,0,0,0-1.684-.271c-.471.056-.712.536-1.092.766a2.2,2.2,0,0,1,.807-1.4M36.755,84.366a15.238,15.238,0,0,1,.774-1.986,7.079,7.079,0,0,1-.078,1.1c-.094.766-.035,1.541-.07,2.312a2.338,2.338,0,0,0,.4,1.558,1.53,1.53,0,0,0,1.58.338c.5-.116.733-.621,1.149-.865.307-.064.642.056.93-.086a2.291,2.291,0,0,0,.771-.814c.174-.022.4.062.537-.093.278-.259.285-.731.644-.909-.108.855-.374,1.915-1.265,2.261-.364.16-.6.508-.943.7s-.76.1-1.1.294c-.61.478-.859,1.321-1.576,1.679a1.51,1.51,0,0,1-1.574-.226,4.776,4.776,0,0,1-1.406,2.13,1.378,1.378,0,0,1-1.279.278,1.317,1.317,0,0,1-.608-1.013c.142-.116.324-.213.4-.391a4.987,4.987,0,0,0,.306-2.055,11.433,11.433,0,0,1,.542-4.22,3.2,3.2,0,0,1,.491-1.007A31.418,31.418,0,0,0,35.1,88.1a5.837,5.837,0,0,1-.857,2.809,2.547,2.547,0,0,0,1.449-.4,2.442,2.442,0,0,0,.742-1.7c.134-1.481-.16-3.016.323-4.455m80.375-.55a7.9,7.9,0,0,1,.754-1.551c-.092.957-.371,1.886-.516,2.836a20.2,20.2,0,0,0-.34,3.372,1.6,1.6,0,0,0,.357,1.156.7.7,0,0,0,.89.109c.378-.266.34-.834.73-1.09a5.811,5.811,0,0,1-.522,2.342c-.233.5-.616,1.08-1.233,1.09a1.117,1.117,0,0,1-1-.94,9.26,9.26,0,0,1,.026-3.112,10.542,10.542,0,0,1-1.814,2.073A10.665,10.665,0,0,1,109,92.252a17.578,17.578,0,0,1-4.084.1,2.87,2.87,0,0,1-1.924-.8,1.49,1.49,0,0,1-.3-1.1,13.434,13.434,0,0,1,.233-1.817.529.529,0,0,1,.208-.336c.142.434.145,1.007.6,1.249a7.325,7.325,0,0,0,2.714.592,18.064,18.064,0,0,0,4.054-.209,10.977,10.977,0,0,0,3.5-.986,4.331,4.331,0,0,0,2.121-1.837c.506-1.037.594-2.219,1.006-3.291m3.783.36a6.154,6.154,0,0,1,.7-1.72c-.166,1.964-.555,3.912-.581,5.889a1.633,1.633,0,0,0,.45,1.354.676.676,0,0,0,1.007-.188c.193-.273.2-.69.53-.845a5.963,5.963,0,0,1-.506,2.279c-.233.5-.581,1.072-1.185,1.128a1.017,1.017,0,0,1-1-.743,5.612,5.612,0,0,1-.09-2.619c.188-1.512.362-3.036.67-4.535m-89.9-1.027c.092-.15.216-.362.421-.333a2.3,2.3,0,0,1,1.328.609.738.738,0,0,1,.049.827A2.652,2.652,0,0,1,31.6,85.488a6.04,6.04,0,0,0-2.586,2.169,10.931,10.931,0,0,0,1.306.637c.38.277.324.807.308,1.221a7.676,7.676,0,0,1-1.9,4.5,4.085,4.085,0,0,1-3.1,1.374,2.337,2.337,0,0,1-2.119-1.215,4.816,4.816,0,0,1-.062-3.247,15.11,15.11,0,0,1,1.358-3.4,4.865,4.865,0,0,1,.724-1.157,9.073,9.073,0,0,1-.686,1.666,8.231,8.231,0,0,0-.9,3.323,1.812,1.812,0,0,0,1.34,1.73,4.364,4.364,0,0,0,4.535-1.7,1.449,1.449,0,0,0,.312-.945c-.452-.441-1.192-.335-1.651-.771a1.216,1.216,0,0,1-.241-1.077,4.855,4.855,0,0,1,1.245-2.314c.363-.427.84-.742,1.172-1.2-.14-.116-.279-.221-.416-.333.248-.538.491-1.081.766-1.606m-11.06,1.387a4.518,4.518,0,0,1,.67-1.315c-.284,1.547-.342,3.121-.5,4.684a7.891,7.891,0,0,1-1,3.242,1.745,1.745,0,0,1-.39.421,24.2,24.2,0,0,0,.687-5.086,5.055,5.055,0,0,1,.529-1.945m24.694.172a6.309,6.309,0,0,1,.735-1.491c-.278,1.617-.337,3.256-.51,4.891a7.853,7.853,0,0,1-.93,2.965,1.7,1.7,0,0,1-.435.494,22.624,22.624,0,0,0,.669-4.847,5.052,5.052,0,0,1,.473-2.013m-33.594.108a7.282,7.282,0,0,1,.779-1.593c-.264,1.579-.335,3.179-.494,4.768a7.856,7.856,0,0,1-.967,3.115,1.163,1.163,0,0,1-.419.434,18.91,18.91,0,0,0,.627-4.009,7.006,7.006,0,0,1,.474-2.717m80.942.685a7.872,7.872,0,0,1,1.029-2.326c-.226,1.759-.126,3.541-.338,5.3a5.659,5.659,0,0,1-1.064,2.954c-.65.87-1.99.93-2.456,1.966-.34.763-.6,1.714-1.457,2.055a7.758,7.758,0,0,1-2.252.272c.144-.484.648-.677,1.031-.93.788-.493,1.767-.843,2.223-1.715a5.163,5.163,0,0,1,1.409-1.967c.5-.4,1.249-.524,1.574-1.11.337-1.472.06-3,.3-4.487M56.348,83.719a1.72,1.72,0,0,1,.93-.3,6.723,6.723,0,0,1-.733,1.86,3.465,3.465,0,0,0-2.791,1.433c-.191.266-.526.588-.366.944.329.391.919.374,1.3.7a1.654,1.654,0,0,1,.221,1.279A7.884,7.884,0,0,1,53.448,93.5a4.806,4.806,0,0,1-2.316,1.744,3.031,3.031,0,0,1-2.942-.51,3.11,3.11,0,0,1-.683-2.527,14.358,14.358,0,0,1,1.961-5.364,1.643,1.643,0,0,1,.362-.443c-.224.8-.685,1.512-.974,2.287a6.819,6.819,0,0,0-.614,2.791,1.792,1.792,0,0,0,1.25,1.594,4.118,4.118,0,0,0,3.223-.436,3.69,3.69,0,0,0,1.645-1.709c.055-.181.162-.444-.038-.572-.541-.377-1.416-.269-1.734-.944a2.9,2.9,0,0,1,.383-2.093,9.07,9.07,0,0,1,3.372-3.6m29.231.043c.3-.162.617-.4.974-.3a5.94,5.94,0,0,1-.709,1.821A3.5,3.5,0,0,0,83,86.779c-.174.249-.465.557-.306.88.333.384.915.37,1.293.7a1.651,1.651,0,0,1,.222,1.279,7.564,7.564,0,0,1-1.994,4.486,4.107,4.107,0,0,1-2.648,1.27,2.523,2.523,0,0,1-2.336-.984,3.867,3.867,0,0,1-.341-2.8,15.555,15.555,0,0,1,1.879-4.768,1.628,1.628,0,0,1,.362-.444c-.214.772-.656,1.456-.941,2.2a7.055,7.055,0,0,0-.648,2.879,1.8,1.8,0,0,0,1.337,1.628,4.4,4.4,0,0,0,4.238-1.329,1.989,1.989,0,0,0,.615-1.292c-.471-.541-1.429-.327-1.809-1a2.279,2.279,0,0,1,.131-1.684,8.894,8.894,0,0,1,3.521-4.036m33.688.149c.531.271,1.163.733,1.058,1.412a2.326,2.326,0,0,1-1.1,1.354c-.436-.241-.778-.615-1.194-.885q.6-.951,1.234-1.88M88.113,86.076c.41-.626.808-1.259,1.24-1.871a1.947,1.947,0,0,1,1.028,1.009,1.425,1.425,0,0,1-.465,1.267c-.186.2-.39.445-.677.471-.393-.267-.74-.6-1.126-.877M8.544,85.9a2.906,2.906,0,0,1,.486-1,29.618,29.618,0,0,1-.858,5.537A8.968,8.968,0,0,1,5.79,94.43,4.378,4.378,0,0,1,2.5,95.614,2.7,2.7,0,0,1,.2,93.9a5.3,5.3,0,0,1,.021-2.872,11.961,11.961,0,0,1,1.4-3.384,4.271,4.271,0,0,1-.429,1.4,7.469,7.469,0,0,0-.54,1.977A2.044,2.044,0,0,0,1.667,93a4.1,4.1,0,0,0,3.687-.03,4.962,4.962,0,0,0,2.255-2.29,5.844,5.844,0,0,0,.465-2.926A4.877,4.877,0,0,1,8.539,85.9m8.728.607c.457-.262.436-.942.952-1.135a4.324,4.324,0,0,1-.778,2.221c-.45.609-1.338.638-1.755,1.279-.465.773-.549,1.758-1.185,2.434a3.752,3.752,0,0,1-2.123.7c-.215.035-.729.133-.528-.238.865-.8,2.042-1.254,2.807-2.179a14.594,14.594,0,0,1,1.279-2.209,5.969,5.969,0,0,1,1.333-.878m80.932.937c.415-.6.73-1.27,1.138-1.877a6.1,6.1,0,0,1,1.176,1.376c.19.334-.059.7-.191,1.006a2.49,2.49,0,0,1-.76,1,5.094,5.094,0,0,0-1.45.167,3.658,3.658,0,0,0-1.529,1.236,14.132,14.132,0,0,1-2.3,2.943,7.122,7.122,0,0,1-2.619,1.5,2.58,2.58,0,0,1,.951-.95,10.054,10.054,0,0,0,1.807-1.574c.773-.892,1.269-1.977,1.977-2.92a12.744,12.744,0,0,1,1.8-1.9M61.411,86.327l.233-.19a20.03,20.03,0,0,1-.876,4.07,1.99,1.99,0,0,1-.873,1.226,6.438,6.438,0,0,1-2.229.631c.223-.478.7-.737,1.088-1.069a5.94,5.94,0,0,0,1.652-1.729c.44-.942.616-1.977,1.007-2.94M3.663,88.833c.287-.49.574-.979.891-1.45.465.355,1.12.671,1.219,1.313A2.353,2.353,0,0,1,4.7,90.314c-.37-.385-.814-.686-1.2-1.047-.033-.162.1-.292.159-.429m68.318,4.471c.384-.641.814-1.254,1.216-1.881.526.242,1.116.68,1.085,1.326a2.216,2.216,0,0,1-1.106,1.426,14.475,14.475,0,0,1-1.2-.87m-56.25,3.109c.376-.588.741-1.186,1.155-1.75.465.266,1.034.634,1.01,1.244a2.29,2.29,0,0,1-.649,1.147c-.126.116-.263.3-.456.253-.394-.266-.75-.581-1.119-.886a2.537,2.537,0,0,1-.876,1.021,7.716,7.716,0,0,1-1.206-.851c.387-.609.767-1.226,1.2-1.8a2.267,2.267,0,0,1,.906.814,1.322,1.322,0,0,1,.031.814m105.849-.877c.528.274,1.163.733,1.057,1.412a2.3,2.3,0,0,1-1.081,1.343,10.494,10.494,0,0,1-1.209-.876q.6-.951,1.234-1.879Z" transform="translate(-0.003 -0.024)" fill="#2f3394"/></svg>