<svg xmlns="http://www.w3.org/2000/svg" width="123.592" height="91.588" viewBox="0 0 123.592 91.588"><g transform="translate(1.844)"><path d="M.557.577A.7.7,0,0,1,1.35-.028h42.1c.555-.027,1.108.065,1.665.08q38.3,0,76.606,0c-.061.4-.142.784-.2,1.178-2.008.086-4.021.012-6.03.036-15.712-.009-31.423.021-47.133-.015a2.724,2.724,0,0,0-.549-.068H1.362C1,1.213.552.988.558.577M49.888,3.249a67.126,67.126,0,0,1,9.233.11,14.538,14.538,0,0,1,3.389.7q29.475.038,58.954.011V5.2H63.425a23.86,23.86,0,0,0-3.275.437c-.555.056-1.117.065-1.665.151-.5.026-1.008-.011-1.514.059-1.038.1-2.084-.042-3.121.079a5.938,5.938,0,0,1-1.429-.02c-.955-.1-1.924.064-2.876-.088a28.894,28.894,0,0,1-5.971-.687c-7.666-.027-15.334,0-23.006-.014-.351-.014-.7-.076-1.059-.074q-9.154.009-18.314,0C.876,5.076.472,4.9.5,4.523c-.036-.38.371-.569.695-.539H19.96c1.665.03,3.33-.074,4.995.074,6.206,0,12.425.015,18.638-.009a32.134,32.134,0,0,1,5.042-.692c.409-.083.832-.021,1.241-.115M40.018,7.3c2.652-.183,5.308-.313,7.969-.282,2.618.015,5.241-.07,7.851.141.427.024.857,0,1.285.026.651.092,1.311.1,1.968.151.4.07.805.118,1.211.151.795.109,1.568.334,2.343.513h58.819V9.135H62.648a38.22,38.22,0,0,1-5.19.463,12.66,12.66,0,0,1-1.918.061c-1.554.151-3.119.026-4.677.091a25.183,25.183,0,0,1-2.724.058c-1.6-.182-3.216.036-4.815-.136-1.7-.012-3.393-.1-5.09-.253a25.229,25.229,0,0,1-2.8-.428q-14.227-.014-28.465,0A10.632,10.632,0,0,1,5.3,8.923c-1.592-.023-3.188,0-4.78-.009V7.855c1.138-.059,2.27.117,3.407.074H35.109a7.267,7.267,0,0,0,1.339-.247,32.671,32.671,0,0,1,3.56-.381M-.026,12.22a1.449,1.449,0,0,1,1.544-1.27H7.71a23.7,23.7,0,0,1,2.517.129c.648.035,1.29.13,1.936.194.3.056.605.109.908.151a27.325,27.325,0,0,0,3.873.282H28.9a19.048,19.048,0,0,0,2.493.039,35.283,35.283,0,0,1,6.115-.686c.639-.091,1.293.044,1.927-.094,1.131.021,2.255-.123,3.387-.089,3.3.009,6.605-.045,9.9.091a9.561,9.561,0,0,0,1.6.062,45.468,45.468,0,0,1,4.843.481,6.108,6.108,0,0,0,1.059.2h61.236v1.211H61.451a7.221,7.221,0,0,0-2.045.13c-.757.166-1.524.21-2.285.3-1.178.094-2.355.182-3.534.188-.835.141-1.688-.029-2.519.121q-5.128.039-10.26,0c-2.013-.136-4.04-.133-6.054-.3-.5-.074-1.013-.1-1.514-.151-.686-.089-1.362-.283-2.039-.36H14.359c-.731.1-1.455.256-2.187.354-.4.036-.808.082-1.211.151-.825.045-1.647.115-2.472.168h-7.1C.7,13.512-.1,12.97-.026,12.22M41.633,14.8a23.733,23.733,0,0,1,2.724-.07,18.994,18.994,0,0,1,2.235.056c1.362.074,2.743-.061,4.106.088,1.146,0,2.293.045,3.431.141.851,0,1.694.136,2.541.188.687.071,1.362.245,2.034.356q28.388.017,56.774,0a16.7,16.7,0,0,1,2.119.064c1.291.029,2.582,0,3.873.012v1.135H58.88a31.359,31.359,0,0,1-5.046.545,12.151,12.151,0,0,1-1.627.071c-1.059.141-2.119-.009-3.168.138H39.352c-3.24-.163-6.5-.151-9.721-.584A10.869,10.869,0,0,0,28,16.691H22.25a18.514,18.514,0,0,0-3.413.436,12.006,12.006,0,0,0-1.211.151c-.808.051-1.623.058-2.422.151-4.076.029-8.152.021-12.228,0a2.352,2.352,0,0,1-1.093-.3,1.167,1.167,0,0,1-.239-1.751,2.221,2.221,0,0,1,1.691-.584c3.082,0,6.163-.009,9.245,0,1.223.142,2.455.023,3.682.085.409.089.831.038,1.241.109,1.283.123,2.549.372,3.814.605,1.975.045,3.955,0,5.932.02a32.571,32.571,0,0,0,3.878-.433c3.49-.259,6.988-.372,10.505-.372M2.9,18.919a2.68,2.68,0,0,1,1.339-.173H19.523c1.029.073,2.061.1,3.086.244a9.03,9.03,0,0,0,2.509.286,32.32,32.32,0,0,0,4.483-.133c1.232-.118,2.469-.17,3.7-.247a14.59,14.59,0,0,0,2.105-.067c3.633-.021,7.265,0,10.907-.011,2.44.12,4.884.139,7.323.324.733.082,1.464.162,2.192.278,6.516.014,13.035,0,19.55,0,.348,0,.692.073,1.041.077h45.04v1.135H56.3c-.783.044-1.538.3-2.325.328-.363.053-.733.042-1.093.107-.807.061-1.619.059-2.422.151-.628.041-1.258-.009-1.886.026-1.4.163-2.82-.035-4.221.136-2.04,0-4.087.021-6.121-.011-1.128-.163-2.279.038-3.412-.126-1.389.018-2.77-.118-4.158-.177-.689-.1-1.38-.168-2.067-.277-1.456-.018-2.914-.015-4.37,0-.845.121-1.665.351-2.523.433a18.5,18.5,0,0,0-1.877.085q-8.019.011-16.044,0A1.536,1.536,0,0,1,2.131,20.25a1.315,1.315,0,0,1,.757-1.35m1.324,4.692a1.714,1.714,0,0,1,1.837-1.059c1.159.03,2.323-.059,3.481.062,2.624.076,5.258-.08,7.878.1,2.051-.036,4.1.047,6.142.2.757.03,1.5.107,2.24.2a11.285,11.285,0,0,0,3.239-.126c3.935-.4,7.886-.247,11.831-.277,1.14.038,2.292-.077,3.425.059.867.053,1.739-.044,2.6.074a15.962,15.962,0,0,1,1.786.079c1.1,0,2.2.124,3.3.185q.967.114,1.925.275c16.006.029,32.013-.017,48.017.024a2.66,2.66,0,0,0,.539.062h19v1.135H54.168a44.387,44.387,0,0,1-5.677.586c-.574.038-1.149-.011-1.721.032-1.306.151-2.626-.042-3.935.127-1.968.017-3.944.009-5.915,0-1.1-.151-2.216,0-3.316-.136a43.588,43.588,0,0,1-5.064-.331,11.673,11.673,0,0,0-4.267.151c-.554.076-1.115.067-1.665.151a40.394,40.394,0,0,1-4.591.023c-2.83-.02-5.662,0-8.492-.012-1.362-.151-2.747-.026-4.12-.08a4.129,4.129,0,0,1-.661-.174c-.354-.336-.745-.81-.531-1.329M8.388,26.33a23.3,23.3,0,0,1,3.118.053H23.16c.961-.032,1.913.126,2.876.079,2.372.26,4.742-.151,7.114-.077,1.877.054,3.748-.159,5.626-.058.994.114,2,.032,3,.056,1.079.077,2.16.118,3.24.168,1.65.151,3.292.372,4.934.587q35.757.009,71.516,0v1.135H52.217a21.642,21.642,0,0,0-3.086.1c-1.165.183-2.341.278-3.511.413-1,.068-1.995.177-3,.188-.558.133-1.14-.017-1.7.12-.981.036-1.968-.023-2.942.091-2.743-.03-5.49.077-8.226-.091a14.171,14.171,0,0,0-2.06-.061c-1.088.036-2.187-.077-3.268.061A30.2,30.2,0,0,1,20.9,29.03H10.153a7.212,7.212,0,0,0-1.514.068c-.73-.009-1.618-.368-1.691-1.2a1.485,1.485,0,0,1,1.458-1.576m2.861,4.692a1.654,1.654,0,0,1,1.759-.863c1.719.067,3.431-.1,5.146-.071H26.95a21.121,21.121,0,0,1,2.232.05c.887.067,1.777-.009,2.665.041,1.459.109,2.93.165,4.389.3.5.073,1.008.11,1.514.151.4.068.8.112,1.211.151.4.065.805.109,1.211.151a11.608,11.608,0,0,0,2.511-.026H93.69c1.816-.032,3.632.074,5.449-.077h22.329v1.135c-.551,0-1.1-.014-1.648.017a6.241,6.241,0,0,1-1.3.059H80.67c-1.514.024-3.027-.065-4.541.077H41.621a10.5,10.5,0,0,0-1.647.062c-2.263.315-4.541.506-6.823.622a18.784,18.784,0,0,0-2.422.073c-1.414-.021-2.832.062-4.238-.076H19.075a2.919,2.919,0,0,0-.689.064c-1.968.03-3.953.015-5.93.009a1.319,1.319,0,0,1-1.19-1.86m6.894,4.379a1.6,1.6,0,0,1,1.665-1.347q9.764-.017,19.525,0c1.33.142,2.668.035,4,.091a9.4,9.4,0,0,0,1.6.062c1.28.1,2.573.141,3.846.247,1.347.114,2.69.263,4.031.428q19.979.015,39.957,0c1.261-.018,2.526.053,3.784-.076H121.56a4.936,4.936,0,0,0-.091,1.137c-2.295.036-4.6-.079-6.884.079q-16.5-.009-33,0a23.369,23.369,0,0,0-2.667.061c-8.344.035-16.688.009-25.032.014a17.013,17.013,0,0,0-2.183.174c-.262.039-.524.068-.784.112-1.854.141-3.708.33-5.568.336-1.392.171-2.809-.048-4.2.124-.92.024-1.842.021-2.761,0a2.91,2.91,0,0,0-.7-.064c-6.054.015-12.1-.015-18.146.015A1.392,1.392,0,0,1,18.167,35.4m5.55,3.133a1.835,1.835,0,0,1,1.568-.628c1.816.012,3.632-.011,5.441.011,1.459.174,2.936-.035,4.389.129A7.476,7.476,0,0,0,36.621,38c.787-.074,1.588.067,2.369-.079.518-.014,1.037-.012,1.551-.077,1.32-.058,2.647.062,3.962-.082,1.059-.068,2.119.124,3.178.07s2.158.073,3.24.091c.407.092.832.033,1.243.112.7.051,1.392.118,2.087.2.4.065.807.112,1.211.151.757.115,1.506.263,2.27.3a8.6,8.6,0,0,0,1.451.053h62.278v1.135H58.877A33.38,33.38,0,0,0,54.4,40.3c-1.309.151-2.631.2-3.935.3-1.132-.021-2.255.123-3.386.089H40.873c-.776-.1-1.557-.059-2.337-.089a5.11,5.11,0,0,0-1.147-.062H31.183c-1.665.151-3.33.045-4.995.076-.81-.047-1.735.2-2.408-.387-.1-.159-.2-.315-.3-.468a1.467,1.467,0,0,1,.245-1.244m-1.082,4.4a1.711,1.711,0,0,1,1.733-1.088c2.343.009,4.692-.021,7.029.015,1.309.1,2.629.151,3.935.3.707.1,1.418.182,2.119.31,1.283.212,2.534-.277,3.813-.31.855-.089,1.721-.054,2.573-.151,2.842-.051,5.691-.192,8.532-.012.627,0,1.255-.02,1.881.012.952.1,1.916.079,2.876.151.5.079,1.011.1,1.514.151a22,22,0,0,0,2.96.286h48.441c.371,0,.743,0,1.115.017,1.029.138,2.078.024,3.116.061h7.192V43.8H77.5c-.661.039-1.314-.1-1.968-.082q-6.884.011-13.766,0A9.609,9.609,0,0,0,59.8,43.8a14.227,14.227,0,0,1-2.036.316c-.605.076-1.211.12-1.816.151-1.308.1-2.623.132-3.935.151a3.253,3.253,0,0,1-.695.064c-1.716-.009-3.433,0-5.146,0a2.779,2.779,0,0,1-.551-.061c-1.455,0-2.9-.1-4.353-.186-.454-.07-.908-.1-1.362-.151a7.725,7.725,0,0,0-3.663,0c-.4.036-.808.082-1.211.151-.807.086-1.623.051-2.422.151-2.888.033-5.779.012-8.668.012a1.282,1.282,0,0,1-1.3-1.482m2.27,2.858c1.078-.056,2.163.058,3.237-.07a20.9,20.9,0,0,1,2.888.059,37.534,37.534,0,0,1,4.6.324,34.781,34.781,0,0,0,4.625.433c.748-.018,1.5.038,2.248-.03a27.777,27.777,0,0,1,4.174-.442c.733-.132,1.485.008,2.22-.12a97.935,97.935,0,0,1,10.952.3c.584.07,1.158.222,1.744.283H115.2c2.086.151,4.183.045,6.275.079V47.73H61.46a27.335,27.335,0,0,1-3.843.472c-2.917.212-5.853.123-8.779.117-.558-.136-1.141.014-1.7-.12a24.216,24.216,0,0,1-4.615-.512c-.848-.082-1.7-.012-2.55-.036a24.779,24.779,0,0,0-2.942.251c-1.586.2-3.178.325-4.772.431H24.825a1.334,1.334,0,0,1-1.362-1.287A1.545,1.545,0,0,1,24.9,45.77m2.13,3.958a6,6,0,0,1,2.49-.26,12.105,12.105,0,0,1,1.9.061,17.692,17.692,0,0,1,2.422.151c1.639.1,3.259.383,4.89.546,4.389.012,8.786,0,13.178,0a3.779,3.779,0,0,0,1.128-.091,17.655,17.655,0,0,1,8.545.16q29.938.014,59.879,0v1.211H78.557c-.708.041-1.409-.106-2.119-.082q-6.888.009-13.773,0a5.029,5.029,0,0,0-1.636.129,14.114,14.114,0,0,1-2.54.534,11.435,11.435,0,0,1-2.573.041,11.53,11.53,0,0,1-3.215-.605,2.509,2.509,0,0,0-.935-.1c-4.3.017-8.6-.02-12.9.018-1.93.277-3.867.5-5.807.651-1.635.038-3.269,0-4.9.02a1.8,1.8,0,0,1-1.665-.674,1.244,1.244,0,0,1,.54-1.719m4.238,5.157a1.463,1.463,0,0,1,1.576-1.488c.823-.07,1.489.5,2.27.643a6.15,6.15,0,0,0,1.665.12h64.174c2.27.151,4.541.044,6.819.079h13.7v1.135H35.716c-.925-.015-1.728.566-2.652.584a1.461,1.461,0,0,1-1.8-1.07Z" transform="translate(0.031 0.033)" fill="#c8c8c8"/></g><g transform="translate(0 63.554)"><path d="M123.306,380.932q1.178-1.061,2.332-2.142a4.816,4.816,0,0,1-1.551,2.417,51.472,51.472,0,0,1-6.357,5.124,8.977,8.977,0,0,1-1.542,1.025,5.1,5.1,0,0,1,2.016-2.339c1.7-1.352,3.511-2.585,5.1-4.08m-18.246,1.989c.99-.882,1.983-1.764,2.944-2.685a6.911,6.911,0,0,1-1.861,2.789c-1.046,1.014-2.23,1.873-3.349,2.8a2.188,2.188,0,0,1,.9.862,2.439,2.439,0,0,1-.8,1.423,5.188,5.188,0,0,1-.956-.712,3.427,3.427,0,0,1,.6-1.386c-1.047.789-2.142,1.512-3.187,2.3-.394.238-.7.63-1.161.744a3.725,3.725,0,0,1,1.053-1.555c1.879-1.605,3.979-2.936,5.824-4.584m31.765-.166a8.533,8.533,0,0,1-2.578,3.309c-2.142,1.876-4.536,3.448-6.842,5.116a2.97,2.97,0,0,1,1.118-1.663c1.465-1.236,3.086-2.268,4.559-3.5,1.3-1.032,2.481-2.193,3.744-3.264m-88.973,2.833c.218-.335.421-.68.653-1.008a1.492,1.492,0,0,1,.882.837,1.545,1.545,0,0,1-.839,1.406c-.252-.214-.5-.432-.737-.665a3.761,3.761,0,0,1-.684.994,4.353,4.353,0,0,1-.958-.737,13.536,13.536,0,0,1,.722-1.459.627.627,0,0,1,.61.2c.113.149.234.29.358.432m27.379,2.157a13.446,13.446,0,0,1,.857-1.585c.363.306.882.609.882,1.147a1.76,1.76,0,0,1-.78,1.285,5.924,5.924,0,0,1-.963-.847m36.325-.208a5.954,5.954,0,0,1,.683-1.033,1.787,1.787,0,0,1,.882,1,2.49,2.49,0,0,1-.82,1.288c-.27-.219-.537-.442-.8-.672a2.221,2.221,0,0,1-.786.978c-.289-.244-.58-.485-.863-.733a7.825,7.825,0,0,1,.809-1.526l.289.073a6.3,6.3,0,0,1,.6.624m5.78.042a1.571,1.571,0,0,1,.4-.617c0,.087,0,.263.008.352a10.376,10.376,0,0,0-.265,2.016c-.053.3-.043.606-.089.909a8.165,8.165,0,0,1-.869,3.4c-.272.586-.741,1.232-1.463,1.21l-.365-.335a5.8,5.8,0,0,1-1.305,1.449c-.357.252-.819.071-1.22.149a5.032,5.032,0,0,0-2.984,1.734,12.892,12.892,0,0,1-1.942,2.435,11.1,11.1,0,0,1-2.186,1.561,1.891,1.891,0,0,1-1.106.357,21.045,21.045,0,0,1,2.119-1.71c1.934-1.539,2.715-4.159,4.869-5.465a6.126,6.126,0,0,1,2.97-.7c.252.019.445-.252.474-.483.074-1.06.1-2.121.207-3.178a7.136,7.136,0,0,1,1.008-2.747l.139.171a12.867,12.867,0,0,0-.469,4.342,1.008,1.008,0,0,0,.378.533c.234-.035.533.01.691-.214a2.065,2.065,0,0,0,.252-1.094c.026-.851.093-1.7.159-2.546a4.092,4.092,0,0,1,.585-1.525m13.9,1.942a4.217,4.217,0,0,1,.827-1.545,1.216,1.216,0,0,1,.8.73,2.292,2.292,0,0,1-.612,1.6,7.156,7.156,0,0,1-1.008-.784m-69.765-.63a8.133,8.133,0,0,1,.781-.793,3.326,3.326,0,0,1-1.282,2.309c-.5.67-1.2,1.148-1.764,1.764-.98.98-2.016,1.9-3.024,2.851h.456a1.13,1.13,0,0,1,.914.7,4.8,4.8,0,0,1-.711,3.138,1.687,1.687,0,0,1-1.638,1.016,1.186,1.186,0,0,1-.907-.993,10.516,10.516,0,0,1,.095-3.341,12.592,12.592,0,0,1,.59-2.825c.135-.334.252-.678.411-1.008.184.154.1.393.084.592-.108.944-.21,1.89-.352,2.829.582-.46,1.05-1.047,1.627-1.512,1.544-1.605,3.25-3.05,4.725-4.722m-6.3,8.191c-.222.2-.084.523.06.728a1.314,1.314,0,0,0,1.545,0c.243-.149.17-.46.186-.7a1.234,1.234,0,0,0-1.792-.033m41.668-3.943a5.913,5.913,0,0,1,1.242-3.346c-.093.968-.331,1.918-.415,2.888a1.445,1.445,0,0,0,.63,1.372,1.6,1.6,0,0,0,1.26-.062,7.7,7.7,0,0,1,.989-.871c.287-.174.662.106.931-.126.238-.236.4-.557.714-.7a2.551,2.551,0,0,1-.846,1.695c-.236.237-.588.107-.882.159-.832.328-1.008,1.427-1.871,1.713a1.344,1.344,0,0,1-1.526-.558l.126-.132c-.084-.032-.183-.057-.233.04a4.042,4.042,0,0,0-.479.844c.387.37.974.616,1.1,1.188a4.709,4.709,0,0,1-.412,2.026,5.553,5.553,0,0,1-3.047,3.353,2.742,2.742,0,0,1-2.967-.562,2.887,2.887,0,0,1-.5-2.2,11.075,11.075,0,0,1,1.54-3.939,5.534,5.534,0,0,1,.911-1.386,2.666,2.666,0,0,1-.447,1.45,23.7,23.7,0,0,0-1.113,2.687,1.676,1.676,0,0,0,.339,1.66,2.144,2.144,0,0,0,1.274.5,3.334,3.334,0,0,0,3.584-2.01c-.394-.46-1.046-.6-1.386-1.12a1.888,1.888,0,0,1,.152-.848c.388-.788.852-1.539,1.2-2.345a5.812,5.812,0,0,0,.118-1.379m35.32-2.32c.217-.345.42-.7.655-1.036a1.764,1.764,0,0,1,.891.745,1.817,1.817,0,0,1-.756,1.506c-.333-.091-.519-.46-.824-.63a2.668,2.668,0,0,1-.737,1,7.726,7.726,0,0,1-.931-.756,6.724,6.724,0,0,1,.861-1.553,1.891,1.891,0,0,1,.847.728m-84.9,1.118a15.223,15.223,0,0,1,.592-1.682,2.273,2.273,0,0,1,.892,1.914,14.64,14.64,0,0,1-1.206,3.641c.321.411.969.6,1.017,1.192a7.267,7.267,0,0,1-1.188,4.159,4.4,4.4,0,0,1-2.588,2.047h-1a2.2,2.2,0,0,1-1.512-1.251,5.3,5.3,0,0,1,.082-3.942,22.856,22.856,0,0,1,1.341-3.214.823.823,0,0,1,.411-.436,4.143,4.143,0,0,1-.408,1.37,13.076,13.076,0,0,0-1.048,3.14,2.221,2.221,0,0,0,.58,1.737,2.387,2.387,0,0,0,2.024.378,2.961,2.961,0,0,0,2.646-2.362c-.439-.365-1.074-.519-1.332-1.074a3.48,3.48,0,0,1,.53-1.89,11.754,11.754,0,0,0,.777-2.15A5.233,5.233,0,0,0,47.4,392.4c-.071-.145-.209-.294-.137-.465m31.61,2.142a5.753,5.753,0,0,1,.91-3.056.82.82,0,0,1,.091.543,11.461,11.461,0,0,0-.064,1.3c-.126.7.013,1.413-.083,2.113a4.76,4.76,0,0,1-.974,2.741c-.244-.2-.037-.5-.025-.745a13.837,13.837,0,0,0,.146-2.9m48.313-2.621c.209.233.076.534.028.8-.048.621-.141,1.24-.155,1.865a2.186,2.186,0,0,0,.323,1.837,1.181,1.181,0,0,0,1.46.339c.444-.252.654-.767,1.084-1.04.219-.126.478-.024.708.019a2.016,2.016,0,0,0,.582-.677c.4.328.52-.2.655-.47.455.006.6-.415.725-.774l.161.194a3.386,3.386,0,0,1-.587,1.37,2.66,2.66,0,0,1-1.2.83,6.543,6.543,0,0,1-.5.5c-.252.215-.63.1-.909.266-.573.394-.716,1.195-1.338,1.534a2.682,2.682,0,0,1-.51.192,1.409,1.409,0,0,1-1.047-.728c-.494.8-.906,1.782-1.865,2.13-.554.28-1.142-.126-1.711.016A6.817,6.817,0,0,0,122,400a1.835,1.835,0,0,1,.617-1.1,2.637,2.637,0,0,1,1.7-.951c.31.037.616.136.932.146a1,1,0,0,0,.809-.893c.189-1.22.1-2.467.314-3.683.237-.7.52-1.386.824-2.059m-60.6.785c.388.309.93.64.891,1.21a1.923,1.923,0,0,1-.711,1.239c-.348-.233-.669-.5-1-.756a9.264,9.264,0,0,1,.815-1.689m-1.711.1c.412.333,1.008.716.882,1.334a1.975,1.975,0,0,1-.745,1.115,5.983,5.983,0,0,1-.982-.844,15.925,15.925,0,0,1,.842-1.605m54.76.9c.089-.192.188-.411.418-.456-.116,1.055-.076,2.116-.163,3.172a6.175,6.175,0,0,1-.474,2.615,1.5,1.5,0,0,1-.645.83c.026-.524.183-1.03.223-1.55.019-.819-.015-1.638.015-2.457a6.531,6.531,0,0,1,.619-2.166m-44.607-.307a11.914,11.914,0,0,1,1.348.433c.368.091.687-.157,1-.309a1.425,1.425,0,0,1-.437,1.093,39.1,39.1,0,0,0-2.9,2.772c-.286.252-.532.659-.956.672-.41-.1-.809-.252-1.215-.362a4.574,4.574,0,0,1-1.26,1.292,12.356,12.356,0,0,1-4.788,1.386,12.4,12.4,0,0,1-4.633-.15,1.343,1.343,0,0,1-.966-1.411,4.53,4.53,0,0,1,.222-2.041c.261.33.263.8.549,1.113a3.227,3.227,0,0,0,1.54.526,20.44,20.44,0,0,0,4.74-.113,12.574,12.574,0,0,0,4.22-1.084,2.775,2.775,0,0,0,.694-.565c.013.106.04.316.053.422,1.523-.207,2.625-1.377,3.643-2.422a2.69,2.69,0,0,0-1.26-.456c-.335.035-.53.347-.687.609l-.2.045c.178-.648.539-1.386,1.3-1.454M88.87,394.5c.077-.126.29-.562.415-.225a4.632,4.632,0,0,1-.745,1.753c-.393.532-1.22.518-1.536,1.134-.471.776-.549,1.855-1.386,2.359a4.284,4.284,0,0,1-1.905.355.438.438,0,0,1,.207-.4,14.03,14.03,0,0,0,2.152-1.614c.469-.747.63-1.727,1.372-2.28.461-.378,1.177-.469,1.433-1.075m-7.259,1.8a9.632,9.632,0,0,1,.818-1.822,2.27,2.27,0,0,1,1.338,1.929,4.059,4.059,0,0,1-1.047,2.52,3.52,3.52,0,0,1-2.009.882c.19-.5.756-.662,1.1-1.037a4.416,4.416,0,0,0,.939-1.077c-.112-.63-.708-.991-1.134-1.4m23.9-1.6c.6-.173,1.119.439,1.082,1.008a5.913,5.913,0,0,1-.811,2.747,1.53,1.53,0,0,1-.932.827,6.91,6.91,0,0,1-1.764.48c.741-.973,2.258-1.24,2.6-2.542a.938.938,0,0,1-1.234-.359,4.429,4.429,0,0,1,1.058-2.156M51.475,398.3c.82-.882,1.036-2.126,1.671-3.118.266.263.108.649.037.958a12.759,12.759,0,0,1-1.067,2.772,2.424,2.424,0,0,1-1.666.933c-.339.05-.743.272-1.05.023a24.86,24.86,0,0,1,2.075-1.574m46.978,3.347a3.906,3.906,0,0,1,.712-1.017c.353.242.769.534.818,1a2.06,2.06,0,0,1-.794,1.272,8.053,8.053,0,0,1-.794-.668,2.177,2.177,0,0,1-.786.978c-.294-.239-.591-.474-.864-.735a6.574,6.574,0,0,1,.8-1.477c.43-.057.622.428.911.653M87.319,403.49a10.868,10.868,0,0,1,.619-1.008,1.1,1.1,0,0,1,.8,1.248,2.343,2.343,0,0,1-.658.99c-.36-.016-.547-.435-.811-.645a2.773,2.773,0,0,1-.63.961c-.411-.035-.659-.464-.968-.7a5.211,5.211,0,0,1,.866-1.569,3.223,3.223,0,0,1,.777.726m39.246,1.182a3.3,3.3,0,0,1,.794-1.657,2.383,2.383,0,0,1,.9.882,1.968,1.968,0,0,1-.731,1.469,4.721,4.721,0,0,1-.96-.7m-39.4.082c.217-.268.5.095.645.271.479.591-.071,1.324-.465,1.8-.3-.262-.578-.557-.882-.82a7.02,7.02,0,0,1,.7-1.249" transform="translate(-13.239 -378.79)" fill="#c8c8c8"/><path d="M97.589,411.393c.321-.3.534-.717.939-.919a6.556,6.556,0,0,1-1.638,2.746,87.146,87.146,0,0,1-7.455,6.141c-.236.189-.478.369-.73.536a3.129,3.129,0,0,1,.839-1.569c1.12-1.11,2.414-2.023,3.62-3.034a54.461,54.461,0,0,0,4.427-3.906m-.72,4.6a1.545,1.545,0,0,1,.963,1.074,3.012,3.012,0,0,1-.8,1.536c-.348-.276-.682-.568-1.016-.859a6.542,6.542,0,0,1,.848-1.75m.849,2.06a1.3,1.3,0,0,1,.956,1.07,2.2,2.2,0,0,1-.723,1.323c-.136.154-.325,0-.435-.1-.194-.178-.369-.371-.561-.548a3.808,3.808,0,0,1-.684,1.084,3.561,3.561,0,0,1-1.094-.767,5.459,5.459,0,0,1,.853-1.627l.207-.092a3.359,3.359,0,0,1,.8.806,6.191,6.191,0,0,1,.679-1.152m-10.36,4.85a6.576,6.576,0,0,1,1.1-3.182.785.785,0,0,1,.058.612c-.275,1.69,0,3.413-.325,5.1a8.391,8.391,0,0,1-1.321,3.631,4.427,4.427,0,0,1-3.654,2.062,2.877,2.877,0,0,1-2-.485,1.889,1.889,0,0,1-.334-1.552,8.131,8.131,0,0,1,.413-1.923c.413.188.057.726.3,1.038a1.012,1.012,0,0,0,.733.575,5.2,5.2,0,0,0,3.323-.2,2.439,2.439,0,0,0,1.537-1.764,21.281,21.281,0,0,0,.17-3.906m7.182.578a6.44,6.44,0,0,1,.819-1.852,9.542,9.542,0,0,1-.072,1.326c-.055.333-.095.668-.126,1.008-.055.333-.095.67-.126,1.008a9.527,9.527,0,0,0-.088,3.384c.212.688,1.065.756,1.658.6.388-.252.708-.6,1.115-.824l.417.077c.391-.142.348-.649.639-.882.2-.006.41.091.6.011a8.711,8.711,0,0,0,.427-.949,1.24,1.24,0,0,1-.01,1.08,1.986,1.986,0,0,1-1.125,1.246,2.817,2.817,0,0,1-.57.6c-.273.107-.591-.062-.856.1-.6.422-.872,1.253-1.622,1.478a1.186,1.186,0,0,1-1.5-.781,8.9,8.9,0,0,1-.062-3.6c.142-1.008.268-2.026.48-3.024m6.645-.339c-.059-.126-.252-.41.008-.454a5.431,5.431,0,0,1,2.33,6.213,5.794,5.794,0,0,1-2.224,2.971h-.265c.252-.662.684-1.235.946-1.89a6.038,6.038,0,0,0,.41-4.227,10.29,10.29,0,0,0-1.2-2.61m-23.83,5.215a5.676,5.676,0,0,1,2.6-5.077c.2.236-.039.471-.144.688a8.061,8.061,0,0,0-1.3,3.942,8.409,8.409,0,0,0,1.395,4.128,1.328,1.328,0,0,1,.18.5,1.215,1.215,0,0,1-.616-.328,5.671,5.671,0,0,1-2.121-3.857m15.8-2.859c.352-.268.43-.769.814-1.008a3.05,3.05,0,0,1-.324,1.386,3.148,3.148,0,0,1-.609,1.019c-.489.367-1.159.488-1.546.989-.524.851-.722,1.944-1.547,2.58a3.841,3.841,0,0,1-2.361.386,2.9,2.9,0,0,1,.984-.837,5.937,5.937,0,0,0,2.04-1.743,9.4,9.4,0,0,1,1.008-1.793,7.772,7.772,0,0,1,1.539-.975m-8.469-.411c.164-.223.461-.238.7-.323a4.03,4.03,0,0,1,.175.413,1.952,1.952,0,0,0-.78.319c.048.126.146.359.2.479a1.034,1.034,0,0,1-.854.677c-.183-.079-.645-.32-.336-.518.252-.032.518-.049.776-.086.052-.323-.168-.712.12-.962m8.085,7.122a1.236,1.236,0,0,1,.932,1.348,2.543,2.543,0,0,1-.784,1.186c-.4-.016-.6-.514-.912-.731a3.449,3.449,0,0,1-.693,1.077c-.471-.018-.789-.5-1.127-.788a7.251,7.251,0,0,1,.955-1.764,2.549,2.549,0,0,1,.919.853,9.188,9.188,0,0,1,.709-1.176m-.756,2.394a1.961,1.961,0,0,1,.829.791,2.314,2.314,0,0,1-.756,1.718c-.3-.315-.649-.582-.955-.891A6.022,6.022,0,0,1,92.02,434.62Z" transform="translate(-77.346 -409.916)" fill="#c8c8c8"/></g></svg>