<svg xmlns="http://www.w3.org/2000/svg" viewBox="0 0 335.683 125.697">
    <g transform="translate(-450 -125)">
        <path
            d="M54.37,30.22h74.775a3.739,3.739,0,0,1,3.739,3.739V48.914a3.739,3.739,0,0,1-3.739,3.739H76.8A22.432,22.432,0,0,1,54.37,30.22h0Z"
            transform="translate(497.268 151.272)" fill="#ff641e" />
        <path
            d="M12,30.22H76.119a3.739,3.739,0,0,1,3.739,3.739V48.914a3.739,3.739,0,0,1-3.739,3.739H12V30.22Z"
            transform="translate(460.432 151.272)" fill="#ff641e" />
        <path
            d="M22.432,0h48.6a3.739,3.739,0,0,1,3.739,3.739V18.694a3.739,3.739,0,0,1-3.739,3.739H0A22.432,22.432,0,0,1,22.432,0Z"
            transform="translate(551.638 203.925) rotate(-90)" fill="#ff641e" />
        <path
            d="M22.432,0H32.658A3.739,3.739,0,0,1,36.4,3.739V18.694a3.739,3.739,0,0,1-3.739,3.739H0A22.432,22.432,0,0,1,22.432,0Z"
            transform="translate(450 203.925) rotate(-90)" fill="#ff641e" />
        <rect width="41.743" height="20.694" rx="2" transform="translate(497.295 218.637)"
            fill="#ff641e" />
        <rect width="29.947" height="20.694" rx="2"
            transform="translate(518.251 250.697) rotate(-90)" fill="#ff641e" />
        <rect width="41.743" height="20.694" rx="2" transform="translate(588.408 147.265)"
            fill="#ff641e" />
        <rect width="125.697" height="125.697" rx="15.78" transform="translate(659.987 125)"
            fill="#ff641e" />
        <path
            d="M163.949,8.919c-4.636.823-7.683,4.954-11.347,8.58L127.59,42.53a12.618,12.618,0,0,0-3.982,6.169,9.964,9.964,0,0,0,7.477,12.039,10.132,10.132,0,0,0,8-1.458c1.159-.748,13.646-13.459,15.2-14.955,2.561-2.561,6.468-8.057,13.086-6.954a10.88,10.88,0,0,1,6.188,3.739c1.7,1.72,3.253,3.234,4.954,4.954,3.234,3.215,12.095,13.086,15.609,14.357a10.039,10.039,0,0,0,12.469-14.151c-1.477-2.879-17.03-17.647-19.7-20.432-3.309-3.421-6.655-6.636-10.057-10-2.524-2.524-6.318-8-12.786-6.842m.411,36.453a10.113,10.113,0,0,0-9.123,10.263c-.15,6.375,0,12.955,0,19.348,0,4.3-.523,15.553.28,19.012a10.3,10.3,0,0,0,11.478,7.721,10.188,10.188,0,0,0,8.9-10.394c.094-6.412,0-12.9,0-19.329,0-4.187.5-15.759-.28-19.049a10.319,10.319,0,0,0-11.347-7.646Z"
            transform="translate(557.222 132.681)" fill="#fff" fill-rule="evenodd" />
    </g>
</svg>