<svg xmlns="http://www.w3.org/2000/svg" viewBox="0 0 180.15 121.54"><g id="Layer_2" data-name="Layer 2"><g id="Layer_1-2" data-name="Layer 1"><path class="cls-1" d="M101.64,52.34h74.77a3.73,3.73,0,0,1,3.74,3.74V71a3.73,3.73,0,0,1-3.74,3.74H124.07a22.43,22.43,0,0,1-22.43-22.43Z"/><path class="cls-1" d="M22.43,52.34H86.55a3.73,3.73,0,0,1,3.74,3.74V71a3.73,3.73,0,0,1-3.74,3.74H22.43Z"/><path class="cls-1" d="M101.64,52.34V3.74A3.73,3.73,0,0,1,105.38,0h15a3.73,3.73,0,0,1,3.74,3.74v71a22.43,22.43,0,0,1-22.43-22.43Z"/><path class="cls-1" d="M0,52.34V42.11a3.74,3.74,0,0,1,3.74-3.74h15a3.74,3.74,0,0,1,3.74,3.74V74.77A22.43,22.43,0,0,1,0,52.34Z"/><rect class="cls-1" x="47.3" y="89.48" width="41.74" height="20.69" rx="2"/><rect class="cls-1" x="68.25" y="91.6" width="20.69" height="29.95" rx="2"/><rect class="cls-1" x="138.41" y="18.11" width="41.74" height="20.69" rx="2"/></g></g></svg>