<svg xmlns="http://www.w3.org/2000/svg" width="387.78" height="339.895" viewBox="0 0 387.78 339.895"><g transform="translate(0 322.027)"><ellipse cx="193.89" cy="8.934" rx="193.89" ry="8.934" transform="translate(0 0)" fill="#656f75"/></g><g transform="translate(-346.001 -642.745)"><g transform="translate(7.784)"><path d="M513.569,140.965l-97.481-37.5-96.549,37C307.21,146.7,296.4,150.44,296.4,162.729v61.28a243.939,243.939,0,0,0,31.81,121.871c18.005,31.3,45.873,63.525,88.88,84.017,39.465-13.726,68.925-50.323,86.93-81.637A243.844,243.844,0,0,0,535.832,226.4V171.291C535.76,153.748,527.087,145.186,513.569,140.965Z" transform="translate(115.818 546.498)" fill="#f26722"/><g transform="translate(430.338 695.05)" opacity="0.8"><path d="M480.7,133.944,397.97,103.47l-81.934,30.073c-10.462,5.061-19.635,8.1-19.635,18.09v49.805a191.776,191.776,0,0,0,27,99.051c15.28,25.438,38.929,51.63,75.426,68.285,33.492-11.156,58.492-40.9,73.771-66.35a191.7,191.7,0,0,0,27-99.039V158.592C499.527,144.334,492.167,137.375,480.7,133.944Z" transform="translate(-296.398 -103.47)" fill="#fff"/></g><g transform="translate(479.727 738.337)"><g transform="translate(13.166 0)"><path d="M416.465,225.559H404.709V161.607a27.307,27.307,0,0,0-54.613,0v63.952H338.34V161.607a39.065,39.065,0,1,1,78.13,0Z" transform="translate(-338.34 -122.54)" fill="#334048"/></g><rect width="105.286" height="67.545" rx="5.81" transform="translate(0 58.463)" fill="#f26722"/><path d="M329.843,263.645c-.245,0-.433-11.286-.433-25.158s.188-25.158.433-25.158.442,11.286.442,25.158S330.087,263.645,329.843,263.645Z" transform="translate(-324.228 -144.043)" fill="#fafafa"/><path d="M372.183,238.943a4.107,4.107,0,0,1-1.035-.583,10.561,10.561,0,0,1-2.267-2.314,12.33,12.33,0,0,1,4.383-18.509,10.817,10.817,0,0,1,3.1-1.044,2.821,2.821,0,0,1,1.185-.066,26.679,26.679,0,0,0-3.95,1.655,12.226,12.226,0,0,0-4.166,17.615,26.035,26.035,0,0,0,2.746,3.245Z" transform="translate(-327.763 -146.708)" fill="#fafafa"/><g transform="translate(44.202 74.633)"><path d="M388.116,227.822a8.8,8.8,0,1,0-11.2,8.464v13.167h4.806V236.287a8.775,8.775,0,0,0,6.4-8.464Z" transform="translate(-370.509 -219.014)" fill="#334048"/></g></g></g><g transform="matrix(1, 0.017, -0.017, 1, 14.702, -9.17)"><rect width="19.732" height="5.008" transform="translate(431.525 680.867) rotate(-22)" fill="#d4d6d8"/><rect width="64.354" height="5.008" transform="translate(461.812 668.59) rotate(-22)" fill="#334048"/></g><g transform="translate(12.636 14.965)"><g transform="translate(534.322 869.531)"><path d="M333.075,198.56a19.348,19.348,0,0,1,.964,4.182,32.763,32.763,0,0,1,.261,4.182,31.365,31.365,0,0,1-.261,4.19,19.451,19.451,0,0,1-.964,4.182,19.921,19.921,0,0,1-.956-4.182,32.8,32.8,0,0,1-.27-4.19,34.319,34.319,0,0,1,.27-4.182,19.807,19.807,0,0,1,.956-4.182Z" transform="translate(-324.711 -198.56)" fill="#334048"/><path d="M339.848,208.525a19.45,19.45,0,0,1-4.182.964,32.792,32.792,0,0,1-4.19.261,31.332,31.332,0,0,1-4.182-.261,19.342,19.342,0,0,1-4.182-.964,20.356,20.356,0,0,1,4.182-.964,32.77,32.77,0,0,1,4.182-.261,34.36,34.36,0,0,1,4.191.27,19.923,19.923,0,0,1,4.182.956Z" transform="translate(-323.11 -200.161)" fill="#334048"/><path d="M337.946,201.56a19.956,19.956,0,0,1-2.279,3.635,31.853,31.853,0,0,1-2.769,3.145,32.806,32.806,0,0,1-3.145,2.777,20.022,20.022,0,0,1-3.643,2.279,19.6,19.6,0,0,1,2.279-3.643,33.877,33.877,0,0,1,2.769-3.145,32.941,32.941,0,0,1,3.153-2.769A19.953,19.953,0,0,1,337.946,201.56Z" transform="translate(-323.659 -199.109)" fill="#334048"/><path d="M337.946,213.393a19.955,19.955,0,0,1-3.635-2.279,31.946,31.946,0,0,1-3.153-2.777,32.755,32.755,0,0,1-2.769-3.153,19.6,19.6,0,0,1-2.279-3.643,19.6,19.6,0,0,1,3.643,2.279,32.73,32.73,0,0,1,5.914,5.922A19.956,19.956,0,0,1,337.946,213.393Z" transform="translate(-323.659 -199.106)" fill="#334048"/></g><g transform="translate(474.48 869.531)"><path d="M333.075,198.56a19.348,19.348,0,0,1,.964,4.182,32.763,32.763,0,0,1,.261,4.182,31.365,31.365,0,0,1-.261,4.19,19.451,19.451,0,0,1-.964,4.182,19.921,19.921,0,0,1-.956-4.182,32.8,32.8,0,0,1-.27-4.19,34.319,34.319,0,0,1,.27-4.182,19.807,19.807,0,0,1,.956-4.182Z" transform="translate(-324.711 -198.56)" fill="#334048"/><path d="M339.848,208.525a19.45,19.45,0,0,1-4.182.964,32.792,32.792,0,0,1-4.19.261,31.332,31.332,0,0,1-4.182-.261,19.342,19.342,0,0,1-4.182-.964,20.356,20.356,0,0,1,4.182-.964,32.77,32.77,0,0,1,4.182-.261,34.36,34.36,0,0,1,4.191.27,19.923,19.923,0,0,1,4.182.956Z" transform="translate(-323.11 -200.161)" fill="#334048"/><path d="M337.946,201.56a19.956,19.956,0,0,1-2.279,3.635,31.853,31.853,0,0,1-2.769,3.145,32.806,32.806,0,0,1-3.145,2.777,20.022,20.022,0,0,1-3.643,2.279,19.6,19.6,0,0,1,2.279-3.643,33.877,33.877,0,0,1,2.769-3.145,32.941,32.941,0,0,1,3.153-2.769A19.953,19.953,0,0,1,337.946,201.56Z" transform="translate(-323.659 -199.109)" fill="#334048"/><path d="M337.946,213.393a19.955,19.955,0,0,1-3.635-2.279,31.946,31.946,0,0,1-3.153-2.777,32.755,32.755,0,0,1-2.769-3.153,19.6,19.6,0,0,1-2.279-3.643,19.6,19.6,0,0,1,3.643,2.279,32.73,32.73,0,0,1,5.914,5.922A19.956,19.956,0,0,1,337.946,213.393Z" transform="translate(-323.659 -199.106)" fill="#334048"/></g><g transform="translate(563.826 869.531)"><path d="M333.075,198.56a19.348,19.348,0,0,1,.964,4.182,32.763,32.763,0,0,1,.261,4.182,31.365,31.365,0,0,1-.261,4.19,19.451,19.451,0,0,1-.964,4.182,19.921,19.921,0,0,1-.956-4.182,32.8,32.8,0,0,1-.27-4.19,34.319,34.319,0,0,1,.27-4.182,19.807,19.807,0,0,1,.956-4.182Z" transform="translate(-324.711 -198.56)" fill="#334048"/><path d="M339.848,208.525a19.45,19.45,0,0,1-4.182.964,32.792,32.792,0,0,1-4.19.261,31.332,31.332,0,0,1-4.182-.261,19.342,19.342,0,0,1-4.182-.964,20.356,20.356,0,0,1,4.182-.964,32.77,32.77,0,0,1,4.182-.261,34.36,34.36,0,0,1,4.191.27,19.923,19.923,0,0,1,4.182.956Z" transform="translate(-323.11 -200.161)" fill="#334048"/><path d="M337.946,201.56a19.956,19.956,0,0,1-2.279,3.635,31.853,31.853,0,0,1-2.769,3.145,32.806,32.806,0,0,1-3.145,2.777,20.022,20.022,0,0,1-3.643,2.279,19.6,19.6,0,0,1,2.279-3.643,33.877,33.877,0,0,1,2.769-3.145,32.941,32.941,0,0,1,3.153-2.769A19.953,19.953,0,0,1,337.946,201.56Z" transform="translate(-323.659 -199.109)" fill="#334048"/><path d="M337.946,213.393a19.955,19.955,0,0,1-3.635-2.279,31.946,31.946,0,0,1-3.153-2.777,32.755,32.755,0,0,1-2.769-3.153,19.6,19.6,0,0,1-2.279-3.643,19.6,19.6,0,0,1,3.643,2.279,32.73,32.73,0,0,1,5.914,5.922A19.956,19.956,0,0,1,337.946,213.393Z" transform="translate(-323.659 -199.106)" fill="#334048"/></g><g transform="translate(504.401 869.531)"><path d="M333.075,198.56a19.348,19.348,0,0,1,.964,4.182,32.763,32.763,0,0,1,.261,4.182,31.365,31.365,0,0,1-.261,4.19,19.451,19.451,0,0,1-.964,4.182,19.921,19.921,0,0,1-.956-4.182,32.8,32.8,0,0,1-.27-4.19,34.319,34.319,0,0,1,.27-4.182,19.807,19.807,0,0,1,.956-4.182Z" transform="translate(-324.711 -198.56)" fill="#334048"/><path d="M339.848,208.525a19.45,19.45,0,0,1-4.182.964,32.792,32.792,0,0,1-4.19.261,31.332,31.332,0,0,1-4.182-.261,19.342,19.342,0,0,1-4.182-.964,20.356,20.356,0,0,1,4.182-.964,32.77,32.77,0,0,1,4.182-.261,34.36,34.36,0,0,1,4.191.27,19.923,19.923,0,0,1,4.182.956Z" transform="translate(-323.11 -200.161)" fill="#334048"/><path d="M337.946,201.56a19.956,19.956,0,0,1-2.279,3.635,31.853,31.853,0,0,1-2.769,3.145,32.806,32.806,0,0,1-3.145,2.777,20.022,20.022,0,0,1-3.643,2.279,19.6,19.6,0,0,1,2.279-3.643,33.877,33.877,0,0,1,2.769-3.145,32.941,32.941,0,0,1,3.153-2.769A19.953,19.953,0,0,1,337.946,201.56Z" transform="translate(-323.659 -199.109)" fill="#334048"/><path d="M337.946,213.393a19.955,19.955,0,0,1-3.635-2.279,31.946,31.946,0,0,1-3.153-2.777,32.755,32.755,0,0,1-2.769-3.153,19.6,19.6,0,0,1-2.279-3.643,19.6,19.6,0,0,1,3.643,2.279,32.73,32.73,0,0,1,5.914,5.922A19.956,19.956,0,0,1,337.946,213.393Z" transform="translate(-323.659 -199.106)" fill="#334048"/></g></g></g></svg>