<svg xmlns="http://www.w3.org/2000/svg" width="262" height="532" viewBox="0 0 262 532"><g fill="#19191a" stroke="#fafafa" stroke-linecap="round" stroke-width="0.5" opacity="0.8"><rect width="262" height="532" rx="32" stroke="none"/><rect x="0.25" y="0.25" width="261.5" height="531.5" rx="31.75" fill="none"/></g><rect width="61" height="61" rx="15" transform="translate(18 114)"/><rect width="61" height="61" rx="15" transform="translate(18 196)"/><rect width="227" height="61" rx="15" transform="translate(18 282)"/><rect width="227" height="61" rx="15" transform="translate(18 442)"/><rect width="227" height="61" rx="15" transform="translate(18 29)"/><rect width="61" height="61" rx="15" transform="translate(101 114)"/><rect width="61" height="61" rx="15" transform="translate(101 196)"/><rect width="61" height="61" rx="15" transform="translate(184 114)"/><rect width="61" height="61" rx="15" transform="translate(184 196)"/><rect width="31" height="31" rx="7" transform="translate(33 129)" fill="#ff641e"/><rect width="31" height="31" rx="7" transform="translate(33 211)" fill="#ff641e"/><rect width="31" height="31" rx="7" transform="translate(116 129)" fill="#dcdcdc"/><rect width="31" height="31" rx="7" transform="translate(116 211)" fill="#dcdcdc"/><rect width="31" height="31" rx="7" transform="translate(199 129)" fill="#ff641e"/><rect width="31" height="31" rx="7" transform="translate(199 211)" fill="#ff641e"/><rect width="57" height="7" rx="3.5" transform="translate(173 295)" fill="#c8c8c8"/><rect width="146" height="7" rx="3.5" transform="translate(84 309)" fill="#ff641e"/><rect width="91" height="7" rx="3.5" transform="translate(139 323)" fill="none" stroke="#c8c8c8" stroke-miterlimit="10" stroke-width="1.5"/></svg>