<svg id="Light_Template_Vector" xmlns="http://www.w3.org/2000/svg" viewBox="0 0 99.776 206.626">
  <g id="freepik--Shadow--inject-3" transform="translate(0.088 199.809)">
    <ellipse id="Ellipse_406" data-name="Ellipse 406" cx="49.844" cy="3.408" rx="49.844" ry="3.408" transform="translate(0 0)" fill="#d4d6d8"/>
  </g>
  <g id="freepik--Device--inject-2" transform="translate(0 0)">
    <path id="Path_839" data-name="Path 839" d="M177.237,205.621l-68.994-.315A15.033,15.033,0,0,1,93.29,190.2l.726-172.953A15.032,15.032,0,0,1,109.11,2.28h0L178.1,2.6A15.024,15.024,0,0,1,193.066,17.7h0l-.735,172.961A15.024,15.024,0,0,1,177.237,205.621Z" transform="translate(-93.29 -2.28)" fill="#455a64"/>
    <path id="Path_840" data-name="Path 840" d="M178.661,9.42l-13.379-.053a3.325,3.325,0,0,0-3.264,3.378h0v2.4a3.308,3.308,0,0,1-3.238,3.4h0l-26.066-.122A3.334,3.334,0,0,1,129.477,15V12.614A3.334,3.334,0,0,0,126.24,9.2h-4.7L109.834,9.14a10.5,10.5,0,0,0-10.57,10.5L98.52,188.393a10.5,10.5,0,0,0,10.5,10.553h0l68.854.324a10.5,10.5,0,0,0,10.579-10.5h0l.709-168.823a10.5,10.5,0,0,0-10.5-10.526Z" transform="translate(-93.944 -3.137)" fill="#fafafa"/>
  </g>
</svg>
