<svg xmlns="http://www.w3.org/2000/svg" viewBox="0 0 24.152 27.603">
  <g id="password_3_" data-name="password (3)" transform="translate(-32)">
    <g id="Group_4302" data-name="Group 4302" transform="translate(32)">
      <g id="Group_4301" data-name="Group 4301" transform="translate(0)">
        <ellipse id="Ellipse_552" data-name="Ellipse 552" cx="1.105" cy="0.983" rx="1.105" ry="0.983" transform="translate(17.028 17.687)" fill="#ff641e"/>
        <path id="Path_4861" data-name="Path 4861" d="M55.074,19.516a1.078,1.078,0,0,0,1.078-1.078V14.448a4.318,4.318,0,0,0-4.313-4.313h-1.3v-3.8a6.471,6.471,0,0,0-12.939,0v3.8H36.313A4.318,4.318,0,0,0,32,14.448V23.29A4.318,4.318,0,0,0,36.313,27.6H51.839a4.318,4.318,0,0,0,4.313-4.313,1.078,1.078,0,1,0-2.156,0,2.159,2.159,0,0,1-2.156,2.156H36.313a2.159,2.159,0,0,1-2.156-2.156V14.448a2.159,2.159,0,0,1,2.156-2.156H51.839A2.159,2.159,0,0,1,54,14.448v3.989A1.078,1.078,0,0,0,55.074,19.516Zm-6.687-9.381H39.761v-3.8a4.315,4.315,0,0,1,8.626,0Z" transform="translate(-32)" fill="#ff641e"/>
        <ellipse id="Ellipse_553" data-name="Ellipse 553" cx="1.105" cy="0.983" rx="1.105" ry="0.983" transform="translate(8.922 17.687)" fill="#ff641e"/>
        <ellipse id="Ellipse_554" data-name="Ellipse 554" cx="1.105" cy="0.983" rx="1.105" ry="0.983" transform="translate(4.991 17.687)" fill="#ff641e"/>
        <ellipse id="Ellipse_555" data-name="Ellipse 555" cx="1.105" cy="0.983" rx="1.105" ry="0.983" transform="translate(13.098 17.687)" fill="#ff641e"/>
      </g>
    </g>
  </g>
</svg>
