<svg id="Welcom_Vector" xmlns="http://www.w3.org/2000/svg" viewBox="0 0 150.526 115.659">
  <g id="freepik--Shadow--inject-3" transform="translate(0 108.926)">
    <ellipse id="Ellipse_406" data-name="Ellipse 406" cx="73.055" cy="3.366" rx="73.055" ry="3.366" transform="translate(0 0)" fill="#656f75"/>
  </g>
  <rect id="Rectangle_2137" data-name="Rectangle 2137" width="7.295" height="0.094" transform="translate(124.618 115.459)" fill="#e0e0e0"/>
  <g id="Group_2871" data-name="Group 2871" transform="translate(31.339 25.055)">
    <path id="Path_992" data-name="Path 992" d="M351.292,160.43c3.964-6.036.345-12.524.948-19.24s6.984-8.179,5.775-13.858c-1.4-6.6,2.33-12.933,6.555-12.933s7.951,6.317,6.552,12.923c-1.208,5.688,5.156,7.154,5.775,13.858s-3.016,13.213.951,19.24,2.923,14.029.69,18a15.381,15.381,0,0,1-2.133,2.917,16.175,16.175,0,0,1-23.671,0,15.51,15.51,0,0,1-2.13-2.917C348.366,174.459,347.325,166.479,351.292,160.43Z" transform="translate(-348.619 -114.4)" fill="#f0f0f0"/>
    <path id="Path_993" data-name="Path 993" d="M393.895,271.44h0a2,2,0,0,0-2,2V307.2H395.9V273.445A2,2,0,0,0,393.895,271.44Z" transform="translate(-377.944 -220.83)" fill="#f0f0f0"/>
  </g>
  <ellipse id="Ellipse_403" data-name="Ellipse 403" cx="7.747" cy="7.747" rx="7.747" ry="7.747" transform="matrix(-0.241, -0.971, 0.971, -0.241, 27.88, 82.742)" fill="#f0f0f0"/>
  <ellipse id="Ellipse_404" data-name="Ellipse 404" cx="4.586" cy="4.586" rx="4.586" ry="4.586" transform="translate(61.222 74.031) rotate(-99.25)" fill="#f0f0f0"/>
  <ellipse id="Ellipse_405" data-name="Ellipse 405" cx="3.218" cy="3.218" rx="3.218" ry="3.218" transform="translate(56.804 63.179)" fill="#f0f0f0"/>
  <path id="Path_997" data-name="Path 997" d="M129.327,194.683c-.934-2.735-.192-4.683,2.091-4.683a9.074,9.074,0,0,1,4.94,2.016,1.53,1.53,0,0,1,1.631-1.13c1.556,0,3.7,1.319,5.392,3.18a2.558,2.558,0,0,1,1.756-.708,7.741,7.741,0,0,1,4.868,1.9.848.848,0,0,1,.674-.362,3.321,3.321,0,0,1,2.6,1.707l.1.181H128.86A3.078,3.078,0,0,1,129.327,194.683Z" transform="translate(-35.466 -151.07)" fill="#f0f0f0"/>
  <path id="Path_998" data-name="Path 998" d="M169.455,129.591a4.261,4.261,0,0,1,.584-.041c-.181-2.732.863-4.48,3.1-4.48,1.609,0,3.587.912,5.6,2.453-.576-5.305,1.27-8.753,5.452-8.753,3.368,0,7.637,2.261,11.854,5.9.377-2.08,1.613-3.331,3.7-3.331,3.666,0,8.877,3.858,13.056,9.3h0a5.275,5.275,0,0,1,4.047-2.084c3.489-.245,7.826,1.971,11.68,5.58a1.782,1.782,0,0,1,1.586-1.036c1.91-.136,4.521,1.858,6.07,4.521h-69.8C164.745,133.582,166.049,130.047,169.455,129.591Z" transform="translate(-132.15 -118.736)" fill="#f0f0f0"/>
  <path id="Path_1067" data-name="Path 1067" d="M67.409,299.381a17.579,17.579,0,0,1,7.063,2.7,12.924,12.924,0,0,1,1.626-6.683,22.67,22.67,0,0,1,4.352,6.32c.426-4.473,1.6-8.825,4.212-11.583,3.907,2.459,5.922,6.556,6.879,10.9a19.73,19.73,0,0,1,6.674-7.206c2.391,2.518,3.155,6,3.09,9.568,2.717-3.164,5.732-5.633,8.673-5.922.724,5-.818,9.72-2.779,13.451a14.9,14.9,0,0,1-13.2,7.9H81.223a14.78,14.78,0,0,1-13.1-7.712A14.119,14.119,0,0,1,67.409,299.381Z" transform="translate(31.25 -207.389)" fill="#f0f0f0"/>
  <path id="Path_1068" data-name="Path 1068" d="M62.454,96.273c-1.91-5.6-.377-9.593,4.284-9.593,2.931,0,6.567,1.571,10.109,4.126a3.123,3.123,0,0,1,3.338-2.329c3.191,0,7.588,2.7,11.036,6.5a5.275,5.275,0,0,1,3.595-1.451c3.056-.173,6.752,1.379,9.966,3.9A1.737,1.737,0,0,1,106.2,96.7c1.76-.1,4.145,1.469,5.324,3.5.072.124.136.249.2.377h-50.2A6.328,6.328,0,0,1,62.454,96.273Z" transform="translate(31.561 -86.68)" fill="#f0f0f0"/>
  <g id="freepik--Mail--inject-3" transform="translate(1.231 3.978)">
    <path id="Path_999" data-name="Path 999" d="M198.155,150.56,66.523,169.511,48.86,187.335Z" transform="translate(-48.86 -107.947)" fill="#ff641e"/>
    <path id="Path_1000" data-name="Path 1000" d="M198.155,150.56,66.523,169.511,48.86,187.335Z" transform="translate(-48.86 -107.947)" fill="#fff" opacity="0.6"/>
    <path id="Path_1001" data-name="Path 1001" d="M180.492,150.56,48.86,169.511l6.109,25.776Z" transform="translate(-31.197 -107.947)" fill="#ff641e"/>
    <path id="Path_1002" data-name="Path 1002" d="M180.492,150.56,48.86,169.511l6.109,25.776Z" transform="translate(-31.197 -107.947)" fill="#334048" opacity="0.55"/>
    <path id="Path_1006" data-name="Path 1006" d="M174.383,150.56l-108.571,25.8L48.86,195.286Z" transform="translate(-25.088 -107.947)" fill="#ff641e"/>
    <path id="Path_1007" data-name="Path 1007" d="M174.383,150.56l-108.571,25.8L48.86,195.286Z" transform="translate(-25.088 -107.947)" fill="#fff" opacity="0.6"/>
    <rect id="Rectangle_2141" data-name="Rectangle 2141" width="0.885" height="21.476" transform="matrix(-0.505, -0.863, 0.863, -0.505, 108.641, 68.788)" fill="#334048"/>
    <rect id="Rectangle_2142" data-name="Rectangle 2142" width="0.886" height="7.722" transform="matrix(-0.505, -0.863, 0.863, -0.505, 100.579, 73.332)" fill="#d4d6d8"/>
    <g id="Group_2158" data-name="Group 2158" transform="translate(86.513 80.822) rotate(-163)">
      <path id="Path_868" data-name="Path 868" d="M29.447,70.228c.5-.977,13.7-68.778,13.7-68.778L12.045,0,0,58.272Z" transform="translate(0 0)" fill="#334048"/>
      <path id="Path_869" data-name="Path 869" d="M14.117,0l3.551,1.48L4.232,68.3,0,68.6Z" transform="translate(29.062 1.451)" fill="#656f75"/>
      <path id="Path_870" data-name="Path 870" d="M3.234,1.765A1.628,1.628,0,0,0,.008,1.35,1.657,1.657,0,0,0,1.429,3.156h0A1.628,1.628,0,0,0,3.234,1.765Z" transform="translate(13.753 53.637)" fill="#263238"/>
    </g>
    <path id="Path_1066" data-name="Path 1066" d="M157.431,150.56,48.86,176.365l21.1,25.435Z" transform="translate(-8.135 -107.947)" fill="#ff641e"/>
    <path id="Path_1221" data-name="Path 1221" d="M233.452,248.3a1.213,1.213,0,0,0,.421-.081l17.247-6.848a1.155,1.155,0,1,0-.849-2.148l-17.247,6.825a1.155,1.155,0,0,0,.427,2.229Z" transform="translate(-208.473 -145.38)" fill="#ff641e"/>
    <path id="Path_1222" data-name="Path 1222" d="M281.264,233.237a1.1,1.1,0,0,0,.422-.087l9.5-3.782a1.155,1.155,0,0,0-.849-2.148l-9.5,3.765a1.169,1.169,0,0,0,.427,2.252Z" transform="translate(-276.142 -140.309)" fill="#ffd1bc"/>
    <path id="Path_1223" data-name="Path 1223" d="M268.892,248.448a1.154,1.154,0,0,0,.427-.081l17.68-7a1.155,1.155,0,0,0-.849-2.148l-17.686,7a1.155,1.155,0,0,0,.427,2.229Z" transform="translate(-264.816 -145.38)" fill="#334048"/>
  </g>
</svg>
