<svg id="Layer_1" data-name="Layer 1" xmlns="http://www.w3.org/2000/svg" viewBox="0 0 365.38 256.39"><path d="M44,64.94,42.85,66A8.33,8.33,0,0,0,41,72.83c-.61,1.76,4.35,4.39-.83,5.45-1.29-.12-2.38.1-2.73,1.6a3.61,3.61,0,0,1-.77,1.05A8.06,8.06,0,0,1,30.8,82a13.47,13.47,0,0,1-1.51-3c-.51-.79-.27-2.4-1.86-2-.65.16-.27,1-.12,1.59.22,1.88,2.53,2,3.05,3.56-.1,2.58-3.6,3.32-3.32,6.11-1,4.66,1.65,7.08,5.47,8.76a3,3,0,0,1,.77,1.1c-.7,2.28-3,1.51-4.46,2.35-.41.2-.82.36-1.24.52-5.52,1.57-7.67,5.74-8.49,10.94-1.3,2.52.44,3.24,2.31,3.88a10.65,10.65,0,0,0,2.66.59c1.25,0,2.48.23,3.72.36a8.75,8.75,0,0,1,4.67.88l1.46-.15c.73,1.24.07,2-.93,2.6a50.21,50.21,0,0,1-6.13.17c-1.46,0-2.6,1-3.94,1.4a5.07,5.07,0,0,0-3.72,2.28l.08-.1c-2.43,6.38-1.9,8,3.92,10.68,1.42.65,2.07,2,3.39,2.66,1.42-.21,3-.8,3.71,1.13-1.57,3.15-6,1.53-7.63,4.59a26.41,26.41,0,0,1-2.84,1.83c-2.2,1.41-.49,2.11.54,2.95-.09,2,1.71,3.11,2.18,4.84a2.48,2.48,0,0,1-.07,2,2.65,2.65,0,0,1-.95.81c-.76.4-1.89.34-1.95,1.61a4,4,0,0,1-.21,1.18c-.07.2-.16.39-.23.59-1,2.17.17,2.6,2,2.49,2.25-.13,4.22.3,5.26,2.6.23,1.24.25,2.51.55,3.74l.3,1.17c0,.76-.05,1.5.79,1.89,2.37,3.61,6.74,2.88,10,4.58a1.75,1.75,0,0,1,.32,1.22,7.74,7.74,0,0,1-2,2.41c-.83.7-.26,1.36.1,2,.57,3.11-.91,6.26.41,9.39a1.91,1.91,0,0,1-1.64,2.49c-.34.2-.89-1.52-1.12.13.33,1.19,1,1.61,2.05.83,1.45-1,2.94-1.94,4.85-1.47,2.13,2.74,5.46.31,7.89,1.82a6.26,6.26,0,0,0,1.47.39c8,.35,16.12-.44,24.15.47,3.28,0,6.56.14,9.83.14,1.35,1.07.51,1.57-.55,1.86-1.61.45-3.17.92-3.89,2.66l0,0a3.54,3.54,0,0,1-2,.63,2,2,0,0,1-.49-.09c-5.51-2-5.51-2-5.41,3.53-3.29,2.2-3.67,4.69-.73,7.49a9.11,9.11,0,0,0,.56.78c.86.81.4-.19.36-.31a7.25,7.25,0,0,1-.18-4.25,2.75,2.75,0,0,1,.84-1.12,4.49,4.49,0,0,1,3.39.64c.88.51,1.07,1.44,1.43,2.28.85,2,1.37,4.45,4.52,3.54.85-.17,1.7.29,2.56,0l1.78.61a73.17,73.17,0,0,0,35.59.91c3-1.55,6.47-1,9.42-2.55,9-1.37,18.06-2.69,27.2-3.18a16.32,16.32,0,0,1,1.71.09l1.73.35c6.28.3,12.21-2.11,18.66-1.63,16.34,1.24,32.77.56,49.12.43,40.12-.32,80.23,0,120.34-.27,3.11,0,6.19-.63,9.33.35,2.13.66,3.56,1.6,4,3.79-.59,3.72-3.26,1.3-4.84,1.82,1.5.7,4-.42,5,2.06a119.18,119.18,0,0,1,0,13.76c-1.2,2.8-4,3.84-6.14,5.63-.55,1,.24,1.42.89,1.88a2.36,2.36,0,0,1,1,2.37c-.44,1.12-.89,2.22-2.23,2.55a3.6,3.6,0,0,1-2.54-1.05c-.82-.84-1.16-2-2.12-3.43a16.89,16.89,0,0,0,1.62,3,7.12,7.12,0,0,1,1.48,2.94,7,7,0,0,1-1.77,4.09l-.4.13-.43,0a10.64,10.64,0,0,1-7.7,3.46c-6.58,1-13.14,2.09-19.84,1.5-2.12-.18-4.28.17-6.39-.32-14.08-.68-28.16-1.86-42.25-1.14-37.15,1.9-74.32.56-111.48.67-8.24,0-16.47-.81-24.74.1-5.1.57-10.31-.86-15.34-.64-24.71,1.1-49.43.49-74.14.82a14.53,14.53,0,0,0-2.45.39,53.22,53.22,0,0,1-7.47-.09q135-.31,270.08-.22c6.64,0,13.26.65,19.91.48,1.52,0,3.5-.42,3.8,2-1.77,1.36-3.84.86-5.78.86q-149,0-297.95.1c-5.51,0-9.83-2.53-14.43-4.69A18.27,18.27,0,0,1,6.8,240.44a26.12,26.12,0,0,1,3.3-4.39c1.75-.14,1.56,1.63,2.4,2.49-.93-5.25-2.6-6.74-6.82-6.13-1.33,1-2.58,2.34-4.36.82C0,231,0,228.5,0,226q0-97.65,0-195.3c0-3.33,0-6.63,2.18-9.45,2-.82,2-3.6,4.11-4.32,2.67.29,1.33,3.37,3.33,4.66.82-2.62.36-4.52-1.77-6-.67-.67-1.26-1.36-.73-2.39a.47.47,0,0,1,.61-.09c1.81-1.37,3.58-.34,5.21.46.66-2.13-.33-3.8-.14-5.54l0,0a7.14,7.14,0,0,1,1.86-.76c1.69-.38,3.45,0,5.12-.49a9,9,0,0,0,1.11-.58C22,5.1,22.48,3.38,24,2.63,31.44-.66,39.24,1.28,46.85.89c.95-.05,1.45.59,1.06,1.62-4.4.5-8.78.14-13.17.29H48.38c.9.28,1.16,1.06,1.44,1.82,1.1,1.86,2.94,1.23,4.49,1.23q42.24.06,84.46,0c1.73,0,3.74.61,4.9-1.44a3.62,3.62,0,0,1,1.66-1.91c5.12-.74,10.23-1.38,15.27.47a2.13,2.13,0,0,1,.11,2.55,3.13,3.13,0,0,1-1.29.7c.19.52.53.09.73,0a39.83,39.83,0,0,1,7.94-.4q81,0,161.9,0c1.79,0,3.65.43,5.35-.44.17-.43.37-.84.56-1.26a6.8,6.8,0,0,1,3-1.54c2.11-.58,3.83.29,5.38,1.56a8.68,8.68,0,0,0,5.86,1.9,1.29,1.29,0,0,1,.84.3,42.36,42.36,0,0,0,5.41,5.79,9,9,0,0,1,3.22,5.29c.72,1.75,2,3.41,1,5.47a5.21,5.21,0,0,1-1.31,1.42c-.76.63-1.55,1.35-1,2.44s1.39.32,2.13.25a3.16,3.16,0,0,1,3.28,1.61,5.71,5.71,0,0,1,.26,1.53c.06,3.6,0,7.19,0,10.78-.09,1.42.21,2.9-.66,4.19a3.34,3.34,0,0,1-3.27.59c-2.83-1.86-6-1.11-9.08-1.22H202.53a35.83,35.83,0,0,0-6.4.23c.21,2.08,2.07.85,3,1.49,1.21.81,2.44,1.39.46,2.68a128.08,128.08,0,0,1-22.67-.35c-1.18-2,.55-2.19,1.69-2.35a48.25,48.25,0,0,1,6-.11,67.79,67.79,0,0,0-19.5,2c-13.48.53-26.52-2.44-39.63-4.85-1.65,0-3.37.43-4.74-1-.48-.92-2-.43-2.25-1.65-2.33-2.31-4.67.28-7,0-6.08-.69-12,1.25-18.06,1-4.85-1.11-8.88,2.66-13.61,2.3a6.8,6.8,0,0,1-1.33-.26,23.39,23.39,0,0,1-4.79-2c-.38-.11-.91-.51-1.12,0-.29.66.39,1,.87,1.31,1.18,1,3,1,3.75,2.48a3,3,0,0,1-1.46,2.45C71.59,51,71.41,52.43,74.66,56c1.06,1.17,3.07,2.19,1.91,4s-3.15,1.67-5,1c-7.63-2.76-14.9-.19-22.23,1.47-1.33.41-2.56,1.28-4.07.89-.93-1.62-1.6-3.63-4.18-2.82-1.21,0-2.47-.07-3.22,1.26,1,.58,1.78-.38,2.67-.25a6.53,6.53,0,0,1,3.55,2.08A1,1,0,0,1,44,64.94Z" fill="#3496fc"/><path d="M159.62,76.24c8.06-2.33,16.46-2,24.61-2,58.41-.39,116.83-.24,175.25-.2,1.81,0,4.68-1.12,5.2,1.29.74,3.48,1.15,7.33-.2,10.75-.63,1.58-3,.75-4.63.76-43.64,0-87.29-.17-130.94.11-16.58.11-33.11-.93-49.67-1.24-4.23-.07-8.45-1-12.67-1.58-1.78-1.49-4.71-.31-6.15-2.62,2.68-3,5.85-1.44,8.57-.49,6.89,2.41,13.8,1.82,20.78.9a22.43,22.43,0,0,1,3.56-.4,4.34,4.34,0,0,1,2,.15c9,4.35,18.55,2.61,27.89,2.65q51.8.21,103.59,0c9.76-.06,19.51-.82,29.29-.49,1.81.07,4.89.76,4.83-2.67-.06-3.19-2.76-3.27-5.1-3.48-2-.17-4-.08-6-.08q-82.66,0-165.34,0c-5,0-9.95-.43-14.92-.08-.55.12-1.12.25-1.66.41-2.94.14-5.81,1.26-8.81.62C157.74,77.4,158.5,76.78,159.62,76.24Z" fill="#409bf0"/><path d="M15.09,249.18c1.29.19,2.95-.05,3.82.66,5.61,4.61,12.18,4.38,18.88,4.37q148.65-.09,297.29-.05c3.49-1.79,7-3.5,11-4l7.13-3a3.33,3.33,0,0,1-1.79,2.78c-5.9,3.84-12.12,6.39-19.39,6.38q-149.5-.12-299-.12c-3.41,0-7,.76-10-1.89-3-1.06-5.95-2.13-8.16-4.56C14.91,249.6,15,249.39,15.09,249.18Z" fill="#3d96f1"/><path d="M177.51,190.29c2.06-1.59,4.49-1,6.74-1,58.59,0,117.18,0,175.77-.12,4.31,0,5.26,1.34,5.13,5.35-.27,8.67-.06,8.67-8.75,8.67-52.78,0-105.57.24-158.35-.17-19.82-.15-39.72-.57-59.41-3.11-6.64-.86-13.55-.77-19.92-3.43-.3-2.11,1.32-1.37,2.32-1.54a10.07,10.07,0,0,1,1.42.33c2.7.15,5.33,1,8.08.79,5-.32,9.68,1.89,14.65,1.9,6.36-.59,12.54,1,18.83,1.42,10.92.93,21.87.54,32.8.55q79,.07,158,0c2,0,4,.29,5.85-.67,2.54-4.62,1.78-5.93-4.25-7.25a66.32,66.32,0,0,0-8-.18c-49.11,0-98.22,0-147.32-.09-5.84,0-11.52,1.43-17.34,1.07-2-.12-4,.22-5.83-.86A1.28,1.28,0,0,1,177.51,190.29Z" fill="#4e9ce9"/><path d="M350.16,6.06c-2.18,2.12-4,.72-5.86-.56-1.58-1.08-3-2.59-5.21-2.23a23,23,0,0,0-3.71.18,22.31,22.31,0,0,1-4.47.23H166.54a29.37,29.37,0,0,1-4-.16c-6.06-1.4-12.19-1-18.26-.38-2.14.21-4.27.53-6.41.53q-41.1,0-82.21,0c-2.65,0-5.34.2-7.7-1.41C39.5.84,31-.3,23.05,4.27c-1.33.55-1.62,1.8-2,3h0a4.36,4.36,0,0,1-4,.12c-1.33-1.53.46-2.15.93-3.15C22.21.75,27.34.05,32.46,0Q182.93,0,333.38,0A26.25,26.25,0,0,1,350.16,6.06Z" fill="#4598ef"/><path d="M85.85,59a247.27,247.27,0,0,0,51-2.14c5.9-.9,11.88-1.07,17.79-1.43,68.66-4.08,137.41-1.31,206.11-2.25,3.19,0,4.72.72,4.27,4.09a22.81,22.81,0,0,0,0,3c.05,7.1.05,7.1-7,6.64a1,1,0,0,1-.31-1.09,4.79,4.79,0,0,1,1.12-1.45A21.26,21.26,0,0,1,360.76,63a3,3,0,0,0,1-2.52c0-.63-.07-1.25-.13-1.86-1.45-4.16-4.94-1.46-7.41-2.19-1.4,0-2.79.07-4.2.05q-84.32,0-168.61,0a19,19,0,0,0-5.91.49,16.7,16.7,0,0,1-3.58.44c-6.16.67-12.3,1.85-18.54,1a109.74,109.74,0,0,1-16.91,1,13.53,13.53,0,0,0,3.16.39,11.14,11.14,0,0,1,2.2.38c1.36.85,3.9.21,3.79,2.94l-22-1.33a210.12,210.12,0,0,0-34.94-.33C87.4,61.09,85.71,61.12,85.85,59Z" fill="#4696e7"/><path d="M151.7,174.7c6.81-1,13.6-2.52,20.46-3,63-4.46,126-1.11,189-2.21,3.1-.06,3.91,1,3.94,4,.09,9,.21,9.05-8.88,9-58.28,0-116.57.21-174.85-.31-11.56-.1-23.4-.39-34.75-3.74-2.24-1.25-4.81.17-7.07-.87l0,.06c-.16-1.09-3.13-.38-1.64-2.54a7.08,7.08,0,0,1,3.84.28h1.75c2.26-.83,4.61-.19,6.89-.4.65.12,1.43.31,1.15,1.16s-1.16.95-1.8.95c1.08.87,2.64-.12,4,.34a11.3,11.3,0,0,1,1.43.28c3.52.91,7.14.08,10.67.67a12.62,12.62,0,0,1,1.6.33c3.62.92,7.41-.13,11,.94,2.46.61,5,.37,7.43.37q81.29,0,162.55,0a56.61,56.61,0,0,0,9.39-.71,8.81,8.81,0,0,0,3.65-1c1.59-4.23,1.06-5-3.65-5.46a27.46,27.46,0,0,1-6.65-.46,21.48,21.48,0,0,0-6.44-.49c-47.64,0-95.29-.15-142.93.12-9.21.05-18.34,2.54-27.64,2.09a10.26,10.26,0,0,1-1.73.46c-4.7.39-9.3,1.43-14,2.09a10.27,10.27,0,0,1-6.23-.58A1.24,1.24,0,0,1,151.7,174.7Z" fill="#5098e3"/><path d="M363,213.35a7.34,7.34,0,0,0-8.88-5.44,27,27,0,0,1-5.92.45c-30.73,0-61.47.14-92.2-.07-8.3-.06-16.56,1.49-24.78.92-8.94-.62-17.86-.77-26.79-.84-9.53-.07-19,1.44-28.6-.48-2.34-.47-5.11,1-7.64,1.76s-5.09,1.48-7.55-.27c1.33-1,2.89-.2,4.3-.56-1.42.27-3-.44-4.31.56l-1,0c-.87-1.4-3.18.76-3.69-1.5,24-2.34,48-1.27,72.08-1.37,43.83-.2,87.66,0,131.48-.16,4.81,0,6,1.53,5.57,5.88-.62,6,1,12.17-.85,18.16a.82.82,0,0,1-1.22-.11V214.35c-.34-.22-.45-.45-.34-.67S362.87,213.35,363,213.35Z" fill="#4396f0"/><path d="M166.63,116.86c7-2.28,14.34-2.19,21.53-2.76,56.83-4.54,113.78-1.16,170.68-2.19,2,0,5-1.3,5.79,1.19a18.93,18.93,0,0,1-.08,10.78c-.44,1.52-2.66.89-4.09.89q-20.93,0-41.86,0c-34.54,0-69.09,0-103.64-.12-5.88,0-11.76-1.09-17.64-1.68l.47-.65c2.73-1.5,5.72-.6,8.58-.95a28.66,28.66,0,0,1,3.2-.32,5.23,5.23,0,0,1,1.64.43,6.83,6.83,0,0,0,1.63.67c7.29.43,14.58.17,21.87.18q54.18,0,108.37,0a66,66,0,0,0,7.44-.18,7.92,7.92,0,0,1,2.5-.44,6.51,6.51,0,0,1,1.52.13c2.4.56,4.82,1.38,7.2-.06a7.69,7.69,0,0,0,.7-1,4.37,4.37,0,0,0-.34-4.12c-.87-1.12-1.62-2.42-3.28-2.52a18.58,18.58,0,0,0-5.61.53,7.5,7.5,0,0,1-2.54-.24,46.3,46.3,0,0,0-7-.21H216.84a36.19,36.19,0,0,0-7.43.32c-3.14.75-6.25,1.66-9.52,1.62-1.1.07-2.21,0-3.31,0-8.28.93-16.5,2.61-24.91,2,2.13.06,4.71-2,5.6,2-2.77.2-5.54.06-8.31.09-1.34,0-2.68,0-3-1.77A2.45,2.45,0,0,1,166.63,116.86Z" fill="#499ae5"/><path d="M363,29.16l0-1c-1.23-1.42-2.23-2.83.11-4.16,2.22,2,1.94,4.75,1.95,7.36,0,5-.21,10,.08,14.9.22,3.78-1.14,4.71-4.82,4.68-24-.17-48.08-.1-72.12-.12q-45,0-90,0a38.55,38.55,0,0,1-8.84-1.17c-7.26-.38-14.55.52-21.8-.47l-.49,0L166.6,49a.86.86,0,0,1,.59-1.33c3.18-.86,6.37-1.87,9.4.44l23.91,0c1.91-1.88,4.31-1.62,6.57-1.27a96.11,96.11,0,0,0,14.39.65H349.78c2.82,0,5.63-.08,8.43.14,1.33-.38,3.24,1.76,4.07-.94a2.24,2.24,0,0,1,.68-1.58l.06-4A29.16,29.16,0,0,0,363,29.16Z" fill="#499be9"/><path d="M216.45,93.83c10.63-.07,21.25-.2,31.87-.21q55.29,0,110.59,0c2,0,5.06-1.19,5.75,1.27a17.5,17.5,0,0,1-.16,10.28c-.61,1.74-3,.9-4.54.9q-54.06,0-108.1,0c-12.62,0-25.24,0-37.86,0-1.81,0-3.61-.3-5.42-.46,1.6-3.14,4.58-2.07,7-2.08q52-.12,104,0,16.43,0,32.82,0c1.78,0,3.57.11,5.37,0,2.52-.2,3.93-1.43,3.74-4.09s-2-3-4.14-3.07a32,32,0,0,0-3.88.54,9.38,9.38,0,0,1-2.59-.13c-2.46-.59-5-.35-7.43-.35q-59.1,0-118.2,0c-2.74-.21-5.57.45-8.2-.86A1.5,1.5,0,0,1,216.45,93.83Z" fill="#3a8fe8"/><path d="M244.09,150.49c1.91-.88,3.93-.49,5.9-.48q47.81.11,95.63.28c5.3,0,10.61.13,15.9-.16,2.74-.16,3.4.81,3.56,3.31.68,10.4.75,10.32-9.56,10.31q-73.49-.08-147-.11c-2.44,0-5,.58-7.25-1a4.36,4.36,0,0,1,3.27-1.4,11.24,11.24,0,0,1,2.78-.08q73.63.06,147.29,0c6.12,0,6.75-.54,7.76-5.81a9.41,9.41,0,0,0-.62-1.37c-2-2-4.57-.67-6.8-1.29-1.88-.36-3.7.23-5.56.29-20.38-.1-40.75.42-61.12-.26-4.4-1.27-8.9-.6-13.35-.66-8.28-.11-16.56,0-24.85-.06C248,152,245.74,152.42,244.09,150.49Z" fill="#4390d6"/><path d="M177.58,191.42c58.25-2,116.51-.5,174.77-.91,1.9,0,4-.76,5.67.93a3.31,3.31,0,0,1-1.49,1,10.76,10.76,0,0,1-3.66.4c-36,.46-72,0-108,0-1.27,0-2.54,0-3.82,0-20.56.16-41.13-.4-61.66,1.1a44.76,44.76,0,0,0-5.18-.17c-2.81-.08-5.59,0-8.17,1.38-1,.55-2.37,1.19-3.31.77-5.89-2.57-11.23,1.09-16.85,1.27a7.22,7.22,0,0,1-1.54-.12c-2.25-.66-4.6-.23-6.88-.6a3,3,0,0,1-2-1.19,2.44,2.44,0,0,1,2.15-1.72c5-.42,10-.79,14.94-1.18C160.92,192.3,169.18,190,177.58,191.42Z" fill="#3696f9"/><path d="M354,104.8q-69.84,0-139.68.06c-1.93,0-4-.63-5.78.69l-51-4.77c-3.25-1-6.58-.17-9.86-.46-1.19-.11-2.77.65-3.29-1.26,2.32-1.43,4.89-.34,7.31-.69a30,30,0,0,1,9.4-.74c4.32-.29,8.54.63,12.68,1.49a55.45,55.45,0,0,0,12.69,1.33,28.53,28.53,0,0,1,8.57,1.08c5,1.55,10.08.53,15.12.86,37.88-.12,75.75.32,113.62-.17,8.14-.11,16.28.12,24.42.2C350.36,102.44,353.15,101.58,354,104.8Z" fill="#3c97f2"/><path d="M358,66v.92c-18.91.06-37.81.15-56.72.16q-57.23,0-114.47-.08c-13.37,0-26.64-1.84-39.93-3.1-.44,0-.83-.49-1.25-.75-.75-1.77-3.11-.5-4-2.08a3.52,3.52,0,0,1,2.35-1.2c4.54-.42,8.73,1.47,13.14,2,7,.91,14.09,1.45,21.13,2.23,2.61.78,5.28.46,7.92.47q81.85,0,163.69,0C352.65,64.63,355.6,63.85,358,66Z" fill="#4098e4"/><path d="M364.79,132.72c1.07,11.86,1.07,11.84-10.58,11.84-46.62,0-93.24.2-139.85-.12a263.43,263.43,0,0,1-53-5.61c1-1.39,2.57-1,4-1.14,1.69,0,3.38-.05,5.07.11,5.07.93,10.29.95,15.27,2.46a23.15,23.15,0,0,1,4.15.48c4.5,1.1,9.07.34,13.6.53a23.52,23.52,0,0,1,5.3.35c5.4,1,10.87.26,16.29.62q63.88,0,127.74,0c.86,0,1.73-.11,2.59-.05a24.71,24.71,0,0,0,5.23,0c3.29-2.14,1.94-5.38,1.94-8.29a3,3,0,0,1,.35-1.35A1.53,1.53,0,0,1,364.79,132.72Z" fill="#589ad7"/><path d="M363,132.75c0,.32,0,.63,0,.95l-.67.63c-3.88,1.48-7.92.45-11.88.78-12.77,0-25.54-.05-38.31,0q-19.9.07-39.8,0c-16.4-.19-32.79.13-49.18,0-2.09,0-4.19.09-6.28,0-7.21-.41-14.15,3.06-21.45,1.56-2.28-1.06-5.24.14-7.16-2.13a107.63,107.63,0,0,1,20.89-1.92c1.42-.68,2.94-.38,4.42-.38q72.51,0,145,0C360.08,132.24,361.62,131.83,363,132.75Z" fill="#3a95f7"/><path d="M288.23,151.61l62.81,0c-1.44,3.67-4.69,2-7.22,2.44-8.94-.14-17.89-.06-26.83,0a13.78,13.78,0,0,1-1.82,0,89.46,89.46,0,0,0-9,0,33.48,33.48,0,0,1-4.59,0c-14.54-.1-29.07,0-43.6,0-.93,0-1.86.11-2.79.06-4.55-.15-9.1-.12-13.65,0-2.69.16-5.37-.21-8.06,0-3.21-.07-6.42,0-9.63,0-2.27,0-4.56-.14-6.76.66-5.55.34-11.15,1.17-16.41-1.58a1.08,1.08,0,0,1-.17-1.56.46.46,0,0,1,.68,0c13.36-.91,26.73-.16,40.1-.41q21,0,42.06,0C285,151.17,286.68,150.75,288.23,151.61Z" fill="#3a95f5"/><path d="M363,132.75l-147.84,0c-2,0-4-.06-6-.09,1.72-1.49,3.81-.89,5.74-.89q73-.09,145.94,0c1.33,0,3-.83,3.95,1Z" fill="#4c88c5"/><path d="M166.63,116.86c0,.3,0,.6,0,.9-1.6,1.48-3.57,1.51-5.59,1.43-21.62-.84-43.25-.43-64.88-.22-8.56.7-17.14,0-25.7.21-2.71,0-5.43,0-8.13,0l-7.64,0a30.37,30.37,0,0,0-6.32.28,5.9,5.9,0,0,1-1.57,0,36.19,36.19,0,0,0-7-.36c-1.5-.3-3.44.15-3.75-2.18Z" fill="#699fd3"/><path d="M27.93,155.44q25.68.13,51.36.31a5.93,5.93,0,0,1,1.83.68,2.33,2.33,0,0,1-2,1.62c-10,.33-20.08-.53-30.11.46-6.34.37-12.75.37-18.68,3.16a2.4,2.4,0,0,1-2.15.2,1.32,1.32,0,0,1-.34-1.36,9.35,9.35,0,0,1,5.06-2.8,8.92,8.92,0,0,1,1.37-.07,9.53,9.53,0,0,0-2.2.05C30.28,157.64,28.19,158.2,27.93,155.44Z" fill="#3c95eb"/><path d="M69.87,117.91h26c.74.47,1.7.83,1,2-2.16,1.22-4.53.7-6.8.71q-32,.19-64,.29a.74.74,0,0,1-.27-.77c.07-.26.15-.4.23-.4l6.95,0c1.6-1.18,3.44-1,5.27-1,12.37.4,24.76-.63,35.91.56,1.87,0,.9-.88,1.18-.27a19.44,19.44,0,0,1-4.88.12A.83.83,0,0,1,69.87,117.91Z" fill="#4c94e1"/><path d="M96.89,119.93c-.34-.67-.67-1.35-1-2l70.7-.15c.74,3.2,3.34,1.75,5.18,1.95a51.34,51.34,0,0,0,5.82,0,1.43,1.43,0,0,1,1.8-.31.81.81,0,0,1,.34.73c0,.27-.09.41-.17.41-7.31-.14-14.69,1.11-21.93-.85-2.56-1-5.23-.43-7.84-.44q-22.56-.09-45.12,0c-1.62,0-3.31-.42-4.85.47Z" fill="#4b92cf"/><path d="M113.73,136.84h19a39.82,39.82,0,0,0,11.89,0h19c.12,2.39-2.52.55-3,2l-63.76-.09c.51-2.8,2.73-1,4.09-1.52C105.17,137,109.47,137.63,113.73,136.84Z" fill="#5b9dd9"/><path d="M100.81,137.68c-1.39.15-3-.46-4,1l-47.83,0c-.34-.42-1-.54-1.14-1.14.62-1.05,1.67-.94,2.65-.94l50.31.17c.33.18.44.36.33.55S100.92,137.68,100.81,137.68Z" fill="#5f9fda"/><path d="M141.82,175.42l-4.11.11a3.4,3.4,0,0,1-1.12.79c-2.57.69-5.4-.67-7.86,1l-57.85.1a1,1,0,0,1,.52-1.44,6.52,6.52,0,0,1,2.59-.41c7.69,0,15.38,0,23.07,0,5.24-1.2,10.49,1.43,15.74,0,8.12-.32,16.23-.69,24.36-.93C138.72,174.5,140.51,173.88,141.82,175.42Z" fill="#7ba5ce"/><path d="M33,158.57l-5,2c-1.16.85-.28,1.93-.33,2.91a2.81,2.81,0,0,1-.47,1.21,1.08,1.08,0,0,1-1.2-.15,4.08,4.08,0,0,0-5-2.18c-1.36.32-3.16.81-3.81-1.15-.54-1.64.25-2.89,1.8-3.63a12.25,12.25,0,0,0,1.16.84c-.3-.4-.81-.51-1.16-.84v-1c.16-1.17,1.33-1.33,2-2l1,0c1.58-1.24,3.15-.79,4.71,0l1.13.81c1.35,1.85,3.35.93,5.07,1.19A1.27,1.27,0,0,1,33,158.57Z" fill="#3397fb"/><path d="M112.8,175.48c-3.13,2.08-6.63,1.1-9.86.74a26,26,0,0,0-5.18.26c-8.29-1.09-16.62-.17-24.93-.48-9.3,1.63-18.69.67-28,.9a5.57,5.57,0,0,1-3.54-1,1.19,1.19,0,0,1-.18-1.64q24.26.1,48.51.2A193.67,193.67,0,0,1,112.8,175.48Z" fill="#6d99d2"/><path d="M85.85,59l2,2c-1.13,1.1-2.75,0-3.92.88A121.77,121.77,0,0,1,61.84,63,54.14,54.14,0,0,0,44,64.94c0-.31,0-.62,0-.94-.2-.9.14-1.23,1-1l4-1C56,60.17,63.1,59,70.35,60.73c3.2.75,6.24,1,7.81-2.77,2.47-2.61,3.88,1.58,6,.95Z" fill="#4495e7"/><path d="M166.61,48c0,.31,0,.61,0,.91-12.24.69-24.15-1.94-36.14-3.74-1.72-.25-3.33-1.31-5-2,8.94,1.08,17.92,1.94,26.82,3.35,4.47.7,8.89.24,13.32.53A4.11,4.11,0,0,1,166.61,48Z" fill="#4c9fec"/><path d="M120.8,80.76h-8.08c-3.86-.92-7.7,0-11.55.16-10.42,0-20.84.06-31.26-.06-1.73,0-4.14,1-5-1.79l63.73,0C126.6,82.24,123.23,79.29,120.8,80.76Z" fill="#609ac9"/><path d="M83.92,61.87c1.09-1.27,2.59-.69,3.92-.88,12-1.34,24-2.15,35.83.81Z" fill="#438fc8"/><path d="M49,194.44a15.5,15.5,0,0,0-5.27.57c-2.45.94-2.68-.78-2.69-2.57-5.84-5.22-5.73-10,.32-14.22a1.26,1.26,0,0,1,1.23.7,3.36,3.36,0,0,1-.57,3.56c-2.18,6.52,2.52,8.66,7,10.94.26.23.35.46.25.69S49,194.44,49,194.44Z" fill="#3899f6"/><path d="M121.73,195.42c-1.12.05-2.32-.14-3,1.09l-29.85,0c-.54-1.35-3.2.58-3-1.93h35.87c.23.19.3.38.22.57S121.81,195.42,121.73,195.42Z" fill="#528ed0"/><path d="M104.94,81c-2.17,1.16-4.53.64-6.8.66-19,.16-37.94.24-56.91.35a.85.85,0,0,1-1.44-.36c.88-2.22,2.88-2,4.68-2.11,4.92,0,9.85,0,14.77,0,14,1.82,28,.5,42,.9C102.49,80.58,103.82,80.1,104.94,81Z" fill="#519ee1"/><path d="M86.85,100.77q-20.31.12-40.6.24c-6.08,0-12.18-.39-18.19.94a1.45,1.45,0,0,1,0-2.08h0c4-.68,7.9-1.5,12-1.29a3.7,3.7,0,0,1,1.78.14c12.87.34,25.74.05,38.61.16,2,0,4-.25,5.89.38A1.07,1.07,0,0,1,86.85,100.77Z" fill="#418ddb"/><path d="M99.82,119.74c1-1.22,2.37-1,3.66-1H154c1.29,0,2.68-.25,3.67,1Z" fill="#699fd3"/><path d="M41,98.86H40a.85.85,0,0,1-1.2.1A1.37,1.37,0,0,1,39,97.67c16.05,0,32.1,0,48.15.14,2.94,0,6-.38,8.81.87l-.69.69c-4.1,1.31-8.19-.09-12.29-.06-12.39.08-24.78,0-37.18,0C44.22,99.31,42.53,99.73,41,98.86Z" fill="#4692d3"/><path d="M49,158.51c3.41-1.89,7.09-.71,10.62-.83,6.75-.22,13.51-.07,20.27-.08,3.22-1.38,6.76.43,10-1l8,0a.78.78,0,0,1,.37.92c-.34.48-.9.64-1.36.95Z" fill="#5794cd"/><path d="M69.9,118.77h9.82v1H33c.31-.75.62-1.49.94-2.24.49-1,1.29-.8,2.11-.59,1.1,1.31,2.64.75,4,.94,2.18,1.22,4.73-.33,6.89.94H48c1.94-1,4-.26,6-.48,2.64,0,5.29,0,7.93,0C64.62,118.52,67.31,117.77,69.9,118.77Z" fill="#4195e8"/><path d="M28,99.87l0,2.08c-.25.22-.47.55-.75.62-3.36.85-5.81,3.07-6.08,6.31-.25,2.91,2.35,4.79,4.82,6.23.51.82,1.73,1.37,1,2.65H23a7,7,0,0,0-2.55-3c-1-.84-2.2-1.56-2.43-3a1.35,1.35,0,0,0,.19-.45C18.7,105.12,22.17,101.48,28,99.87Z" fill="#3e96e8"/><path d="M1.32,233.23c1.83.45,2.68-1,3.78-2a2.27,2.27,0,0,1,1.62,2c-.52,2.36.13,4.66.37,7l8,9,0,0c-.29.37-.42.92-1,1C7.64,246.17,3.19,240.66,1.32,233.23Z" fill="#3d96f1"/><path d="M185.61,141.55l-15.05-2.83a.93.93,0,0,1,.29-1.4c1.65-.08,3.31-.41,4.92.27a2,2,0,0,1,.6,0c5.4-1.91,10.69-.86,16,.63,1.37,2.22.22,3.07-1.85,3.1C188.85,141.37,187.21,140.83,185.61,141.55Z" fill="#3495fd"/><path d="M216.45,93.83v1l-.67.63c-7.49,1.58-15.07.68-22.61.78a40.86,40.86,0,0,0-9.23.8c-2.16.18-4.32.09-6.48.12-.53,0-1.05,0-1.58,0-.78,0-1.56,0-2.33,0a10.37,10.37,0,0,1-3.08-.43,2.39,2.39,0,0,1-1.17-1c5.28-2.29,11-1.24,16.46-1.73C195.92,93.11,206.22,93.8,216.45,93.83Z" fill="#3d90e1"/><path d="M204.48,162.51l-3.17.13c-6.26-.39-12.58.9-18.79-.75-4.45-2-9.24.05-13.75-1.15-.12-3.34,2.47-3.22,4.56-3.25,1.24,0,2.52.52,3.83.2a33.91,33.91,0,0,1,7.82,1.17c5.27,2.52,10.92.77,16.36,1.42C202.7,160.59,204.37,160.46,204.48,162.51Z" fill="#3795f7"/><path d="M175.61,154.57a.46.46,0,0,1,.61-.07,101.88,101.88,0,0,1,20.56-1.38c2,2.64-1.06,2.38-1.91,3.39-6.48,1.49-13,2.7-19.34-.4A1.25,1.25,0,0,1,175.61,154.57Z" fill="#3796f8"/><path d="M101.76,80.79,59,80.82c-.35-1.61,1-1.72,1.94-2.17a2.12,2.12,0,0,1,1.29.16l2.75.27c1.71,1.5,3.79.81,5.69.82,10.39.08,20.77,0,31.16,0,.34.2.44.39.32.58S101.88,80.79,101.76,80.79Z" fill="#4893d9"/><path d="M288.23,151.61H241.37c-.32-.26-.42-.51-.31-.75s.22-.37.33-.37h2.7c13,0,26,.07,39,.17C284.83,150.68,286.76,150,288.23,151.61Z" fill="#428dda"/><path d="M192.53,138.68l-16.16-1.07a2.4,2.4,0,0,1,.39-.88c1.32-1.35,3.46.43,4.7-1.24v0c1.62-.77,3.5.22,5.1-.73l1.73-.25c2.37.67,5.08-.82,7.24,1.15A18.79,18.79,0,0,1,192.53,138.68Z" fill="#3597f4"/><path d="M122.76,214.39c-12.15,2.84-24.23,3.36-36.14-1.17,5.34.59,10.67,1.53,16,1.68,5.93.16,11.89-.4,17.83-.64A1.85,1.85,0,0,1,122.76,214.39Z" fill="#3f8fd9"/><path d="M363,230.26l1.22.11a15.46,15.46,0,0,1-4.13,9.91c-.92.23-1.41,0-1.06-1a2.07,2.07,0,0,0-1-2c-1-.74-1.23-2.05-2-3C358.73,233.59,359.86,230.19,363,230.26Z" fill="#3b96f1"/><path d="M160.63,81.85c2.17.25,4.38.39,5.94,2.24a168.11,168.11,0,0,0-34.78-2.35,15.2,15.2,0,0,1-3.31-.67c3.75-2.27,7.86-.62,11.77-1.13,3,.21,5.94-.51,8.93-.38a32.82,32.82,0,0,1,4.32.22C155.84,80.59,158.58,80.05,160.63,81.85Z" fill="#64a0dd"/><path d="M155.93,207.86c1,1,2.89-.05,3.69,1.5-9.4,0-18.66,1.5-27.91,2.95a1,1,0,0,1-.73-.84C139.15,209.27,147.59,208.93,155.93,207.86Z" fill="#3d94d4"/><path d="M241.39,150.49c0,.37,0,.74,0,1.12l-40.14-.06C214.6,150.72,228,150,241.39,150.49Z" fill="#4191d3"/><path d="M49,194.44c0-.34,0-.68,0-1,12-.1,24-.31,35.89,1.14.29.2.38.4.29.6s-.2.29-.3.29c-3.31.25-6.74-.76-9.91,1-1.76-1.46-3.84-1.46-6-1.52-6.65-.17-13.33.59-20-.43Z" fill="#3e8cd8"/><path d="M44,80.88c-1.41.16-3-.32-4.09,1-2,.94-2.95.21-2.9-1.94h0a17.57,17.57,0,0,1,3-3c.76.13,2.28,1.2,1.4-.89C41,75,39.94,74.25,40,73a1,1,0,0,1,1.68,0l2.26,2.94c1.59,1.4,3.88,1.73,5.25,3.45C48,81.64,45.47,79.52,44,80.88Z" fill="#3d98f7"/><path d="M91.85,41.09c7,.16,13.91-1.68,20.93-1,2-.58,4-1.11,6,0l2,2.14c-10-1.59-19.93-.38-29.89-.08C90.59,41.28,90.76,40.75,91.85,41.09Z" fill="#318ede"/><path d="M135.49,195.34l2.21.1c2.18,1.33,4.79-.3,7,1h0a1.92,1.92,0,0,1,0,2.8c-5.09.24-9.8-2.64-15-1.88-.71-.67-2.22-1.19-.46-2.35,1.9,0,3.82-.38,5.68.32A1.56,1.56,0,0,1,135.49,195.34Z" fill="#3497fa"/><path d="M37,79.94a2.87,2.87,0,0,0,2.9,1.94l1.33.14c-4.67.74-9.39,1.35-12.93,5-.57.24-.8.84-1.24,1.23a.89.89,0,0,1-1-.33c-.15-3,2.76-3.91,4-6a.6.6,0,0,1,1,0Z" fill="#4199fa"/><path d="M97.82,157.6c0-.33,0-.66,0-1h29.93c.91,1.46,3.55-.82,3.91,1.82-8.49-.87-17-.64-25.53-.71A17,17,0,0,1,97.82,157.6Z" fill="#76a0bd"/><path d="M363.1,24c-1,1.36-.2,2.77-.11,4.16a9.39,9.39,0,0,1-1.93-.34c-1.41-.57-2.38,4.68-4.05.27-1.12-3-.26-4.66,3-4.91a2,2,0,0,1,2.87,0A2.31,2.31,0,0,1,363.1,24Z" fill="#3596f7"/><path d="M12.81,8c2.92,1.87.4,4.69,2,7-3.12,0-4.65-2.48-7.08-2C8.52,10.52,9.48,8.09,12.81,8Z" fill="#3496f7"/><path d="M30,138.66c-1.06-1.44-2.65-.83-4-1a.72.72,0,0,1,.16-1.24,1.47,1.47,0,0,1,.61.17,46.6,46.6,0,0,1,13.29.06l0,0c.53,1.36,3.51-.47,3,2.28-1.58.83-3.54-.46-5,.9l-.31.12-.31-.11A8.3,8.3,0,0,1,30,138.66Z" fill="#4296f3"/><path d="M169.3,95.74l1.29.17c.34,1.38-.38,2.16-1.55,2.68-2.8-.2-5.64.07-8.39-.72l-8,1c-.34-.23-.46-.47-.35-.7s.22-.36.34-.36A61.67,61.67,0,0,1,169.3,95.74Z" fill="#3c95eb"/><path d="M144.68,98.87c2.44,1.94,5.28.58,7.91,1,1.69.25,3.58-.58,5,.94-7.71.09-15.45.91-23.1-.82,2-1.79,4.7-.93,7-1.58C142.59,98.47,143.73,98.08,144.68,98.87Z" fill="#3c95eb"/><path d="M140.73,80.85l-12.25.22-7.68-.31c2.32-2,5.57.38,7.88-1.66h4.07a10.25,10.25,0,0,0,5.91,0l4,0C143.17,80.89,141.2,80.07,140.73,80.85Z" fill="#5297da"/><path d="M70.93,176.53c0,.29,0,.57-.05.85-7.57,2.09-15.3.68-22.95,1,0-1.15.77-1.51,1.69-1.75C56.72,176.83,63.82,175.84,70.93,176.53Z" fill="#5b98d7"/><path d="M26.16,136.4c-.05.41-.1.82-.16,1.24a13,13,0,0,0-4.39-3c-5.25-2.15-6-6.13-2.34-10.82-.91,5.29-.42,9.79,6.09,11C26.16,135,26.1,135.76,26.16,136.4Z" fill="#4d94e1"/><path d="M168.6,159.59c2.84,1.95,6,.54,9,1,1.68.25,3.69-.74,4.88,1.32-8.34-.3-16.71-.26-24.87-2.36a1,1,0,0,1,.39-1.41C161.66,157.86,165.3,157.54,168.6,159.59Z" fill="#3e8edc"/><path d="M177.58,191.42c-8.37-.54-16.62,1.73-25,1,6-1.86,12.32-1.31,18.48-2a57.73,57.73,0,0,1,6.45-.11C177.54,190.66,177.56,191,177.58,191.42Z" fill="#408ccd"/><path d="M91.85,41.09l-1,1.09-9.84,3a1.93,1.93,0,0,1-2.22.15,1.75,1.75,0,0,1,.1-2.19C83.5,44.31,87.14,39.29,91.85,41.09Z" fill="#3995eb"/><path d="M30,138.66l7.32,1.13c-2.17,1.18-4.52.63-6.79.58-3.06-.07-5.26,1.58-7.48,3.29a.84.84,0,0,1-1.17.17.9.9,0,0,1,.11-1.19C23.45,138.83,27.51,140.29,30,138.66Z" fill="#519ae5"/><path d="M197.5,153.58c-7.13-.59-14.17,1.06-21.28.92,3.37-2.27,7.38-1.57,11-1.93,4.4-.42,8.87-.53,13.29-1,0,.36,0,.73,0,1.09A2.9,2.9,0,0,1,197.5,153.58Z" fill="#468adb"/><path d="M41.07,174.31,41,175.49a2.1,2.1,0,0,1-3,0c-2.21-.5-4.4-1.17-6.64-1.45s-3.06-1.54-3.34-3.5A32.81,32.81,0,0,0,41.07,174.31Z" fill="#4494d8"/><path d="M179.56,120.57v-.81c6.07-2.26,11.75.2,17.54,1.42a1.15,1.15,0,0,1,.49,1.48l-.27.31C191.33,122.67,185.35,122.36,179.56,120.57Z" fill="#499ae5"/><path d="M38,175.52l3,0,3,0c1.26,1.62,4.29-1.24,4.93,1.94-.32.31-.64.62-1,.92l-2.79,1.17c-1.48,1-2.38.2-3.13-1l0,0c-1.17-1-3-.56-4-2Z" fill="#3899f6"/><path d="M103.77,98.93h10.94c-1.22,3-4.16.4-5.88,1.78l-12,0C98.47,97.56,101.73,100.55,103.77,98.93Z" fill="#4e95cd"/><path d="M26,87.91H27c1.12,1.86-.17,4.74,2.52,5.93l3.63,2.68A.86.86,0,0,1,33,97.86C27.55,96.73,24.81,93.71,26,87.91Z" fill="#3597f5"/><path d="M167.53,49.14c7.27.15,14.56-.69,21.8.47C182.06,49.77,174.77,50.43,167.53,49.14Z" fill="#4c9fec"/><path d="M48.91,79c-2-.41-3.93-1-5-3.06,5.65,3.71,12.34.86,18.26,2.9L60.88,79C56.89,80.11,52.89,80.72,48.91,79Z" fill="#519ee1"/><path d="M77.89,199.43l2.06,0c-3.09,3.6-3.67,7.23-.13,10.92a1.83,1.83,0,0,1-1.1.52c-1-.08-1.31-.93-1.83-1.55a2.06,2.06,0,0,0-1-2c-1.49-1.57-1.4-3.4-.92-5.31A4.25,4.25,0,0,1,77.89,199.43Z" fill="#408ad8"/><path d="M147.65,158.49h-9c-1-1.26-3.63.86-3.95-1.87h11C146.12,157.48,148.16,156.64,147.65,158.49Z" fill="#528fd2"/><path d="M108.83,100.71c1.58-1.83,4.31.1,5.88-1.78l12,0c.32.23.43.46.33.7s-.21.35-.32.35Z" fill="#709ac6"/><path d="M103.77,98.93c-1.91,2.11-5-.26-6.92,1.82l-10,0v-.91c2.85-1.3,6,.28,8.86-.94l.29-.24Z" fill="#458fd3"/><path d="M147.65,158.49l-2-1.86,6.78-.13a4.29,4.29,0,0,1,3-.22c.89,1.16.17,1.88-.71,2.55a2.36,2.36,0,0,1-2.23-.17Z" fill="#488fd1"/><path d="M131,211.47l.73.84-9,2.08-2.27-.13C123.67,212.14,127.37,212,131,211.47Z" fill="#438cd7"/><path d="M359,239.24l1.06,1c-1.12,3.09-3.38,5.15-6.07,6.84-1.31-1.74,1.42-2.41,1-3.91.61-.71,1-1.66,2-2Z" fill="#4096f2"/><path d="M144.56,78.85a21.07,21.07,0,0,1,11.1-1.76,1.6,1.6,0,0,1,.26,1.52c-1.09,1.69-2.84,1.2-4.41,1.32-2.13-.15-4.32.38-6.4-.48Z" fill="#4d98d7"/><path d="M362.89,23.2H360c.35-2.11-.69-4-1-6,.35-.55.72-.56,1.1,0C361.44,19,363.65,20.43,362.89,23.2Z" fill="#3a94e8"/><path d="M84.84,195.45c0-.29,0-.59,0-.89h1l3,1.93a36.72,36.72,0,0,0-9,3C79.63,195.82,83.48,197.14,84.84,195.45Z" fill="#4591d9"/><path d="M134.72,156.63c.86,1.58,3.05.38,3.95,1.87l-7-.08c-.94-1.39-3.06-.23-3.91-1.82Z" fill="#6297cd"/><path d="M100.81,137.68c0-.28,0-.56,0-.83h12.93C109.53,138.68,105.1,137.21,100.81,137.68Z" fill="#689fe1"/><path d="M134.92,195.32l-6.19.16c-2.32,1.42-4.64.35-7,0l0-.05c0-.29,0-.58,0-.86C126.15,194.65,130.63,193.4,134.92,195.32Z" fill="#448ed4"/><path d="M22,143.64l1,0c-3.56,3.05-1.86,5.92.29,8.78a.81.81,0,0,1-1.28.16c-1-1.53-2.42-2.88-2.15-5a4.08,4.08,0,0,1-.61-1.34C19.41,144.58,20.07,143.45,22,143.64Z" fill="#4b8ac5"/><path d="M141.67,98.83,134.52,100c1.09-2.21,1.12-2.22,7.16-2,.33.2.44.4.32.59S141.78,98.83,141.67,98.83Z" fill="#4190c5"/><path d="M41.68,73H40c-.14-2.76-.21-5.49,2.85-7C42.41,68.33,41.21,70.51,41.68,73Z" fill="#478ad0"/><path d="M40.06,136.63l-13.29-.06C31.21,134.9,35.63,135.41,40.06,136.63Z" fill="#519ae5"/><path d="M157.65,155.62c3.95-.62,8,.33,11.94-.88a1.62,1.62,0,0,1,.21,1.64C166,159.23,162,158,158,157.11A1,1,0,0,1,157.65,155.62Z" fill="#3e8de0"/><path d="M6.14,17.23c-1.67,1,.13,5.38-3.95,4-.32-2.29,1.9-3.31,2.54-5.12A1.06,1.06,0,0,1,6,15.93a1,1,0,0,1,.29.85Q6.24,17.23,6.14,17.23Z" fill="#4294e5"/><path d="M14.06,250.2l1-1c2.07,2.58,5.55,3,7.92,5.17C19.22,254.68,16.76,252.18,14.06,250.2Z" fill="#509be7"/><path d="M128.73,177.28c-.83-1.89.49-1.74,1.66-1.74l6.31,0c-.72,3.18-3.46.56-4.88,1.7Z" fill="#5e96d1"/><path d="M84.21,58.91c-2,1.06-3.41-1.52-5.34-.88-1.19.89-1.94.42-2.47-.77A2.28,2.28,0,0,1,78,54.77Z" fill="#4f99dc"/><path d="M144.64,136.84a18,18,0,0,1-11.89,0Z" fill="#689fe1"/><path d="M356,12.25a8.47,8.47,0,0,1-5-5.89c2,1.17,4,2.42,5.11,4.6A.81.81,0,0,1,356,12.25Z" fill="#4698e5"/><path d="M78,54.77,76.87,57c-3.1-2.75-3-6.48.24-7.93A2.16,2.16,0,0,1,77,51.22Z" fill="#47a1f1"/><path d="M27,117.76c-.32-.88-.65-1.77-1-2.65,1.86,1.54,5.11-.47,6.4,2.52Z" fill="#4499ed"/><path d="M160.57,138.81l3-2h6a.76.76,0,0,1-.07,1.13c-1.24.53-2.7-.27-3.88.65l-4.31.21-.4.08Z" fill="#4696da"/><path d="M140.73,80.85l1.92-1.8,1.91-.2.25.17c1.34,1.35,4.05-1,4.85,1.81Z" fill="#4d9be7"/><path d="M42.93,138.56l-2.91-2c2.76-.83,5.14,1.24,7.82,1L49,138.76l-.38.11-.39-.08C46.43,139.24,44.65,139.59,42.93,138.56Z" fill="#519ae5"/><path d="M101.76,80.79a7.87,7.87,0,0,0,0-.84c3.63.42,7.39-1,10.92.82l-7.78.24Z" fill="#4e98d6"/><path d="M141.67,98.83c0-.29,0-.58,0-.87l10.95-.17c0,.35,0,.7,0,1.06l-8,0Z" fill="#3f92d5"/><path d="M18,4.22C19.17,5.6,16.87,5.39,17,6.31a5.27,5.27,0,0,1-2,1.93l-2.21-.17C13.78,5.75,15.87,5,18,4.22Z" fill="#3687d9"/><path d="M89.84,156.59c-3.15,2-6.65.58-10,1l1.25-1.17Z" fill="#3793d2"/><path d="M356,12.25c0-.43.07-.86.1-1.29,1.94,1.69,4.17,3.18,4,6.21l-1.1,0Z" fill="#3e92d8"/><path d="M42.93,138.56l5.28.23c-3.32,1.26-6.82.65-10.24,1C39.28,138,41.27,139,42.93,138.56Z" fill="#689fe1"/><path d="M77,51.22l-.18-2.16c-.45-1.92.45-3.13,2.1-3.93H81C79,46.72,78.47,49.31,77,51.22Z" fill="#68a6da"/><path d="M27,164.57l.07-1c.59-.52.21-1.55,1-1.95l2.25.06c-2.32,1.77-1.56,4.88-3.07,7l-.23-.16A4.16,4.16,0,0,1,27,164.57Z" fill="#4388d0"/><path d="M33,97.86c0-.45.09-.9.14-1.35,1.92.63,4.16-.4,5.9,1.16,0,.39,0,.78,0,1.17-2.23,1-4.14.2-6-1Z" fill="#3e96ea"/><path d="M97.82,157.6l8.3.11c-3,1.42-6.18.82-9.3.77Z" fill="#76a2c7"/><path d="M131.82,177.22c1.31-1.46,3.7.14,4.88-1.7h1l1.91,2.15Z" fill="#5f98d9"/><path d="M29.51,93.83C26.05,93,27.32,90.09,27,87.9L28.3,87A8.41,8.41,0,0,0,29.51,93.83Z" fill="#408ad6"/><path d="M151.66,175.52l-8.09-.09c2.57-1.78,5.4-.68,8.13-.73,0,.27,0,.55,0,.82Z" fill="#7ba5ce"/><path d="M78.91,210.42l.91,0,5,2.23-2,.73C81.48,212.46,78.7,213.46,78.91,210.42Z" fill="#3c89d1"/><path d="M26,119.76c0,.39,0,.78,0,1.17a6.06,6.06,0,0,1-4,1.66,1.16,1.16,0,0,1,0-1.83Z" fill="#4499ed"/><path d="M22.09,152.6l1.28-.16c1.24.59,2.77.7,3.43,2.19l-4.71,0Z" fill="#3e89d3"/><path d="M139.59,177.62c2.37.15,4.91-1,7.07.87C144.31,178.12,141.79,179.21,139.59,177.62Z" fill="#5f98d9"/><path d="M42,178.53l3.13,1A7.8,7.8,0,0,1,42,182.48C42,181.16,42,179.85,42,178.53Z" fill="#4e9de4"/><path d="M155.68,78c0-.29,0-.59,0-.88a4.33,4.33,0,0,1,4-.85l-1,1.71A2.07,2.07,0,0,1,155.68,78Z" fill="#398dd4"/><path d="M138.66,79.09a5,5,0,0,1-5.91,0Z" fill="#609ac9"/><path d="M6.14,16.26l-1.41-.14c.32-1.37.72-2.67,2.4-2.92.31.67.63,1.34.94,2C7.72,16.11,7.2,16.68,6.14,16.26Z" fill="#3e8dd6"/><path d="M169.6,155.63c0-.3,0-.59,0-.89l6-.17c0,.34,0,.68-.05,1a2.87,2.87,0,0,1-2.15,1C172,156.72,170.66,156.8,169.6,155.63Z" fill="#3b8bda"/><path d="M22.05,120.76c0,.61,0,1.22,0,1.83l-2.87,1.34C18.93,121.78,20.76,121.51,22.05,120.76Z" fill="#3e96e8"/><path d="M169.6,137.68c0-.28,0-.56,0-.84,2.07.1,4.3-1.08,6.16.75l-5.15.12A.58.58,0,0,1,169.6,137.68Z" fill="#3e8fd8"/><path d="M181.46,135.49c-1.15,2-3.11.92-4.7,1.24C177.93,134.83,179.91,136,181.46,135.49Z" fill="#4a99ec"/><path d="M186.55,134.79c-1.52,1.48-3.36.8-5.1.74C183,134,184.81,134.78,186.55,134.79Z" fill="#4a99ec"/><path d="M157.65,155.62v1a1.49,1.49,0,0,1-2,.1l-3.17-.22A10.74,10.74,0,0,1,157.65,155.62Z" fill="#5ba1df"/><path d="M126.74,100c0-.35,0-.7,0-1a8.25,8.25,0,0,1,4.78.4C129.9,100.51,128.29,100,126.74,100Z" fill="#719cbc"/><path d="M152.53,158.66l2.25-.13a2.06,2.06,0,0,1,2.84.05l0,.95C155.85,159.77,154.05,160.05,152.53,158.66Z" fill="#5ba1df"/><path d="M363,45.09c0,.66,0,1.33,0,2a3.7,3.7,0,0,1-2,2c-53.5-.57-107,1.19-160.5-1-1.59-1.73-3.68-.88-5.54-.95-1.63-.06-2.07-.57-1.43-2,2-1.65,4.46-1,6.71-1q75.64-.06,151.28,0c2.83.31,5.83-.77,8.49,1Z" fill="#3695fd"/><path d="M49,251.19c1.47-1.63,3.42-1,5.17-1,13.45-.05,26.9.07,40.36-.07,7.27-.08,14.52.4,21.82-.79,5.17-.84,10.52,0,15.8.74,6.94,1,13.86-1.23,20.79-.86,37.48,2,75,.75,112.49.75,11.22,0,22.54-1.41,33.73-.56,7,.53,14.15-.38,21,1.76-1.48,2.41-3.89,1.43-5.89,1.43q-97,.07-194.1,0c-22.23,0-44.46,0-66.69-.07C52,252.58,49.71,254,49,251.19Z" fill="#3398f7"/><path d="M49,251.19c1.47,1.63,3.42,1,5.17,1q130.1.06,260.2,0c2,0,4,.11,5.8-1H333c2.78,0,5.53.25,7.93-1.83,1.81-1.57,3.65-.94,5.13.82-3.27,2.39-6.77,4.13-11,4-1.83-1.77-4.11-.94-6.17-.94q-144.54-.08-289.09-.07c-2,0-4.21.54-6.13-.53l0-1.43Z" fill="#3198fb"/><path d="M336.09,5.27c1.14,0,2.35-.14,3.51,1.51H154.35l6.28-1.51c1.47-1.36,3.31-1.39,5.14-1.39,55.88.05,111.76-.21,167.64.12A5,5,0,0,1,336.09,5.27Z" fill="#3894f9"/><path d="M334.1,5.27H160.63c0-.67,0-1.33,0-2,.87-.64,1.88-.45,2.85-.49q82.93,0,165.87.1C331,2.89,334.39.84,334.1,5.27Z" fill="#2f9afc"/><path d="M352,45.09H193.53c-.71-.72-.92-1.57.25-1.79a24.52,24.52,0,0,1,4.46-.19H352A1.34,1.34,0,0,1,352,45.09Z" fill="#3098fb"/><path d="M144.67,5.27c.78.19,1.94.38.8,1.39s-2.87.58-4.33.58q-44.77,0-89.55,0a23.53,23.53,0,0,1-3.94-.31c-.61-.11-1.29-.76-.59-1.38.4-.36,1.25-.21,1.91-.29,1.78-1.61,4-1.39,6.13-1.4q41.72,0,83.44,0C140.68,3.88,142.89,3.66,144.67,5.27Z" fill="#3894f9"/><path d="M144.67,5.27H49v-2c1-.72,2.24-.48,3.38-.48h89c1.13,0,2.33-.24,3.37.48Z" fill="#2f9afc"/><path d="M334.1,5.27c-.81-3.27-3.49-1.93-5.35-1.94q-80.83-.11-161.65-.05h-4.48c-.33-.23-.44-.45-.33-.67s.22-.33.33-.33l174.46,0c.61,1.13-.45,1.42-1,2v1Z" fill="#2e95fb"/><path d="M162.62,2.28v1H34.23l0-1H162.62Z" fill="#2e94fb"/><path d="M78.88,45.13l-2.1,3.93c-2.11,2.68-.49,5.31.09,8a2,2,0,0,0,2,1c-.17,4.47-4.08,3.43-6.41,3.78-2.82.41-5.83-.42-8.76-.79-5-.64-9.77,1.22-14.72,1,2.35-3.69,6.47-2.1,9.57-2.58,4.43-.69,9.39-2.79,13.82.76,1.15.92,2.51,0,3.69-.49.24-1.07-.54-1.52-1.15-2C69,53.3,69.14,51.19,75.37,47a8.39,8.39,0,0,0,1.51-1.93c-.32-1.64.36-2.29,2-2h0Z" fill="#3498fa"/><path d="M38,176.51c1.56.2,3.66-.68,4,2-4.74,4.09-5.1,7.07-1.53,12.1a6.05,6.05,0,0,1,.54,1.84,19.16,19.16,0,0,0-3.86,2c-1,.85-1.66,2.35-3.2,1.56s-.75-2.35-.91-3.6a1.35,1.35,0,0,1,2,0c.94-.62,1.41-1.95.91-2.51-2.89-3.25-.43-6.31.08-9.43a1.35,1.35,0,0,1,0-2A1.82,1.82,0,0,1,38,176.51Z" fill="#3097fe"/><path d="M166.61,48l-1-.95c8.24-3.54,16.77-1.5,25.23-1.42-4.43,3-9.81-.24-14.25,2.39Z" fill="#3298fa"/><path d="M6.1,233.26l-1-2c2-1.64,4.06-1.54,5.61.48,1.85,2.44,4.37,4.74,3.21,8.37-.25.81-.67,1.61-1.63,1.6-1.15,0-1.1-1-1.18-1.81-.13-1.28.3-2.71-1-3.66C8.28,235.89,7.19,234.58,6.1,233.26Z" fill="#3894fd"/><path d="M17,168.75c.43-1.42-.78-4,1.72-3.83,3.38.27,2.3,3.83,3,5.91.57,1.61-1,2.75-2.7,2.55C15.93,173,17.53,170.38,17,168.75Z" fill="#3398f8"/><path d="M6.14,16.26l1.93-1c1.86-.9,3.11-.17,2.89,1.72s1.83,4.45-.56,5.83c-1.77,1-4,.34-3.36-2.21.38-1.61.14-2.42-.9-3.33C6.13,16.9,6.13,16.58,6.14,16.26Z" fill="#3099fd"/><path d="M77.89,199.43l-2,2c-1,.8-1.34,2.29-2.84,2.47a1.72,1.72,0,0,1-1.16-.49c-.38-1.88-3.43-3.86-1-5.49C73.06,196.5,76,197,77.89,199.43Z" fill="#3098f9"/><path d="M71.9,203.39h1a2.06,2.06,0,0,1,0,3h0c-1.27,1.42.51,4.05-2,5-2.69-.83-3.34-2.76-2.94-5.32C68.32,203.69,70,203.35,71.9,203.39Z" fill="#3995f7"/><path d="M6.1,233.26c2,.08,3.11,1.39,4,3,.09,2.15-.41,3.85-3,4C4.84,238.18,4.59,235.85,6.1,233.26Z" fill="#2d9afb"/><path d="M49,194.45H69.76c2,0,4.06-.33,5.17,1.94-6.69-1.83-13.53-.58-20.29-1C52.73,195.29,50.62,196.15,49,194.45Z" fill="#3899f6"/><path d="M20.06,86.91c.22-1.8-.71-4.49,2.27-4.47,1.79,0,1.89,2.11,1.64,3.56-.36,2.06-.61,4.64-3.91,2.9A1.3,1.3,0,0,1,20.06,86.91Z" fill="#3696f5"/><path d="M27,79c-1.73-.21-2.25-1.25-1.75-2.78s1.8-1.27,2.9-1.11c2.48.35,1.62,2.39,1.83,3.89C29,81.63,28,80.39,27,79Z" fill="#3697f5"/><path d="M41,62a6.59,6.59,0,0,0-.86.49c-1.32,1.05-2.67,2.18-4.41,1-.63-.43-.38-1.28.16-1.71C37.36,60.59,38.27,57.62,41,60A1.37,1.37,0,0,1,41,62Z" fill="#3996f1"/><path d="M41,62V60c1.42-.61,2.92-1.7,4.37-.43,1.25,1.1,0,2.29-.38,3.41l-1,1A3,3,0,0,1,41,62Z" fill="#2d99fd"/><path d="M363,213.35c0,.33,0,.66,0,1a10.79,10.79,0,0,1-7.46-.73c-.5-.27-.52-1.47.12-1.64C358.27,211.28,360.6,212.53,363,213.35Z" fill="#2e99fc"/><path d="M78.87,43.1a3.45,3.45,0,0,0-2,2c-1.57-.18-3.66.68-4-2a2,2,0,0,1,1-2C75.65,41.54,77.49,41.75,78.87,43.1Z" fill="#2d94fd"/><path d="M128.63,39.88a12.83,12.83,0,0,1,7.74-.33C133.59,41.88,131.14,41.27,128.63,39.88Z" fill="#3992f6"/><path d="M20.65,95.19c2.55-.61,4,.18,4.73,2.14.09.27-.71,1.2-1.2,1.28C21.75,99,21.11,97.34,20.65,95.19Z" fill="#3597f5"/><path d="M70.9,211.36c1.25-1.42.41-3.69,2-5,.15,1.61.3,3.21.46,4.81.1,1,2,2.46-.23,3C71,214.69,70.9,212.9,70.9,211.36Z" fill="#3498f8"/><path d="M352,45.09v-2c2.61.85,6.14-2,8,2Z" fill="#319af3"/><path d="M72.89,206.38v-3c1-.61,1.45-2.17,3-2l0,5.94Z" fill="#3498f8"/><path d="M18.06,111.79l3,2a2.15,2.15,0,0,1,0,3C18.43,116.08,15.59,115.52,18.06,111.79Z" fill="#2b9afc"/><path d="M33,97.87l6,1,1,0c-3.84,2.09-8,.47-12,1C29.19,98,31.84,99.75,33,97.87Z" fill="#3597f5"/><path d="M78.91,210.42l4,2.92c-4.5,2.43-5.17-.89-6-4Z" fill="#3498f8"/><path d="M73.9,41.11a2.07,2.07,0,0,1-1,2c-1.45.64-2.15.25-2-1.41.09-.95-.06-2.09,1.21-2.34S73.74,40.09,73.9,41.11Z" fill="#3497f2"/><path d="M118.74,40.12c-2-.34-4,1.62-6,0,2-3.7,4.64-.74,7-.62,0,.13-.05.35-.13.39A7.36,7.36,0,0,1,118.74,40.12Z" fill="#2d9afa"/><path d="M65.42,208.85a7.33,7.33,0,0,1,.23-6.13C67.05,205.8,67.05,205.8,65.42,208.85Z" fill="#2c9afc"/><path d="M363,29.16a15.89,15.89,0,0,1,0,12Z" fill="#3a94e8"/><path d="M20.06,86.91v2c-1.2.52-2.42,1.41-3.23-.56a1.85,1.85,0,0,1,.52-2.19C18.79,84.59,19.16,86.65,20.06,86.91Z" fill="#2c9afc"/><path d="M354,240.23c-1.43-1.51-3.75-2.84-1.12-5.32,1.69,1.45.83,3.82,2.12,5.32A.6.6,0,0,1,354,240.23Z" fill="#2e9af9"/><path d="M27,79c1,.26,2,1.58,3,0,1.18.7,1,1.88,1,3l-1,0C29.2,80.78,25.25,82.72,27,79Z" fill="#2793f4"/><path d="M38.83,68.94c.07,1-.2,1.76-1.23,1.85a1.2,1.2,0,0,1-1.4-1.05,1.62,1.62,0,0,1,1-2C38.27,67.37,38.5,68.33,38.83,68.94Z" fill="#2c99fe"/><path d="M40,77a2.8,2.8,0,0,1-3,3C35.1,76,38.26,77.21,40,77Z" fill="#3d96ed"/><path d="M144.51,213.13c-1.37,1.8-2.66.92-5,1.49C141.45,212.25,142.65,212,144.51,213.13Z" fill="#3497f3"/><path d="M20,146.67a3.46,3.46,0,0,1-.07,1c-.91-.33-2.29,1.36-2.77-.51A2.86,2.86,0,0,1,19,143.66C20.13,144.41,19.07,145.86,20,146.67Z" fill="#2d9cfe"/><path d="M356,234.26c2,.09,2,1.54,2,3C355.6,237.42,354.65,236.61,356,234.26Z" fill="#3e92f0"/><path d="M17.09,236.12c-.25.9-.25,1.82-1.15,1.5-.39-.13-.69-1-.73-1.53s.12-1.49,1-1.2C16.66,235,16.89,235.81,17.09,236.12Z" fill="#2f9af5"/><path d="M35,192.44H33c.24-1.15-.59-2.63,1-3.46C35.6,189.82,34.76,191.29,35,192.44Z" fill="#3a95f3"/><path d="M354,240.23h1a2.06,2.06,0,0,1,2,1,1.79,1.79,0,0,1-2,2C354.7,242.22,354.36,241.23,354,240.23Z" fill="#3094f2"/><path d="M15.05,8.24l2-1.93c1.09,1.37,2.63.82,4,.94C19.29,9.07,17.05,7.94,15.05,8.24Z" fill="#3496f7"/><path d="M21.05,154.61a3.44,3.44,0,0,1-2,2c-.68-.2-1.9-.21-1.37-1.25C18.37,154,19.9,154.82,21.05,154.61Z" fill="#3798ec"/><path d="M21,116.77c0-1,0-2,0-3,1.83.75,2.09,2.27,2,4Z" fill="#3796f2"/><path d="M20,146.67c-1.13-.75-.93-1.92-1-3l3-1c0,.33,0,.67,0,1A3.23,3.23,0,0,0,20,146.67Z" fill="#4296f3"/><path d="M36,178.51c0,.66,0,1.32,0,2-.92-.24-2.57.48-2.4-1.22C33.7,178.27,35.12,178.59,36,178.51Z" fill="#3899f6"/><path d="M21.05,7.25c-1.09-2.16,0-2.85,2-3C22.08,5.06,23.37,7.37,21.05,7.25Z" fill="#3496f7"/><path d="M27,164.57c0,1.32,0,2.63.05,4-2.5-.8-1.19-2.51-1-4Z" fill="#459cfb"/><path d="M18,150.75c.55.35,1,.49,1.26.82.34.51-.06.9-.55.88a1.81,1.81,0,0,1-1.16-.53C17.4,151.79,17.76,151.25,18,150.75Z" fill="#279afe"/><path d="M336.09,4.27l1-2a2,2,0,0,1,2,1C338.37,4.44,337.19,4.24,336.09,4.27Z" fill="#2f9afc"/><path d="M155.68,78l3,0c3-.27,5.88-1.47,9-1,2.57,1.18,5.28.1,6.66.38-1.38-.13-4.08.64-6.66-.38,1.48-1.6,3.43-1,5.17-1q91.62,0,183.25,0c3.28,0,6.49-.14,7,4.35.43,4-.28,4.95-5.17,5.08-8.66.23-17.39.07-26,.21-41.65.69-83.32.18-125,.48-5.24,0-9.17-3.87-14.29-3.14-4.68-1.15-9.42-.13-13.54-.53-1.25.11-.58,1.19-.68.53,0,0,0-.06.15-.08a29.29,29.29,0,0,1,11.08.09,35.69,35.69,0,0,1-19.18-.15c-3.21-.91-6.28-2.66-9.73-.93-2.37,0-4.8.45-7-1-.45-.84-2.58,0-2-1.91C153.07,78.84,154.63,79.4,155.68,78Z" fill="#3497fc"/><path d="M189.54,82.93H177.85c4.9-.46,9.83-2.18,14.68,0Z" fill="#3196f8"/><path d="M144.67,199.23v-2.8c3.37-1.18,7.08-.86,10.35-2.75a5.12,5.12,0,0,1,4.7.26,4.3,4.3,0,0,0,5.42.22c2.71-1.95,5.54-1.68,8.45-1.71a5.44,5.44,0,0,0,5,0c20.92-1.32,41.87-1,62.81-1,1.34.92,2.15,2,.77,3.47-1.62,1-3.47.9-5.27.88-12.68-.14-25.36.37-38-.27,0,0-.3-.11-.43.05s0,.62.37.79a2.83,2.83,0,0,1,.38,2c-.53,1.82-2,2.2-3.53,2-7.6-1-15.47,1.69-22.89-1.77a3.42,3.42,0,0,0-3.69.65,5.44,5.44,0,0,1-5.45,1.18Z" fill="#3497fc"/><path d="M163.61,200.41c1.59-.79,3.61-.19,4.72-2.65s3.76-1.78,5.56-.4c2.57,2,5.6,2.82,8.36,1.92,5.44-1.76,11,1.85,16.26-.86,4-2.46,8.33-1.15,12.55-1.11,4.31,1.35,8.77.45,13.15.78a11.22,11.22,0,0,1,2.64.38,10.57,10.57,0,0,0,4.91.52c9.38-1,18.8,0,28.19-.9a48.11,48.11,0,0,1,12.9.37,19.2,19.2,0,0,0,4.95.41c22.35-1.87,44.71.67,67.06,0,2,0,4,.14,5.68-1.24a5.74,5.74,0,0,1,.93-1.21,2.71,2.71,0,0,1,3.95.41c1.83,2.72,4.41,2.3,7,2.25l.61.32c-.36,2.48-2.29,2-3.87,2l-175.44,0c-5.13,0-10.26,0-15.39,0C166.72,201.31,165,201.86,163.61,200.41Z" fill="#3497fa"/><path d="M357,191.46l1,0c5.4.21,5.77.81,5,8h0c-2.75-1.24-1.74-5.6-5.2-6.23C357.2,192.75,356.72,192.27,357,191.46Z" fill="#3497fa"/><path d="M121.77,195.47h7c.33.62.65,1.25,1,1.87A14.75,14.75,0,0,1,121.77,195.47Z" fill="#3999fc"/><path d="M171.59,56.05h3c1.05-.7,2.24-.47,3.38-.47,52.53,0,105.06-.07,157.58,0,.74,3.58-2.28,2.71-3.79,2.79-6.73.38-13.48.12-20.22.18-2.85,0-5.6.28-7.36,3-3.3,1.58-6.86,1-10.29,1-27.18.08-54.37,0-81.56,0a29.09,29.09,0,0,1-8.84-1.13,17.13,17.13,0,0,0-11.2.16c-4.65,1.29-9.37.7-14.07.55a5.89,5.89,0,0,1-1.57-.51C175.12,59.67,170.65,60.26,171.59,56.05Z" fill="#3597fa"/><path d="M191.53,61c3.81-3.67,8.41-2.38,12.43-1.15A21,21,0,0,0,210.09,61q47.05,0,94.1,0a.78.78,0,0,1,1.26.34,3.44,3.44,0,0,1-1.22,2.91c-3,1.41-6.27.26-9.31,1.22-29.72,0-59.43.28-89.14-.17-9.4-.14-18.83,1.14-28.21-.31-11.51.46-22.63-2.35-33.89-4-1.33-.89-2.66-2.23-4,0-2-.26-4.24.67-6.47-1.21,6.38-3.15,13.26-.78,19.45-2.73,1.84,1,4-.07,5.74.57,2.68,1,.63,1.57-.28,2.41,6.17-.92,12.4-1.35,18.45,1h0A23.53,23.53,0,0,0,191.53,61Z" fill="#3598fa"/><path d="M305.18,61h-1c-.25-3.43,1.79-4,4.67-4,7.54.09,15.08.06,22.62,0,1.58,0,3.33.53,4.61-1,4.91-1.35,10,.39,14.94-1l4,0c0,2,1.2,2.83,3.56,1.48,3.44-2,3.84.1,4.39,2.5,0,.67,0,1.33,0,2-3.28,1.87-7,1.84-10.49,1.65-5.39-.28-10.77-.14-16.15-.25-8.37,0-16.74,0-25.1,0C309.13,62.39,306.91,62.73,305.18,61Z" fill="#3795fb"/><path d="M177.57,65H296.21c8.8-1.44,17.66-1.49,26.54-1.42,10.07.07,20.14,0,30.21,0,2.1,0,4.35-.37,6.07,1.4l-1,1q-87.63,0-175.27,0C181,66,179.06,66.6,177.57,65Z" fill="#3896f7"/><path d="M351,55.08c-4.87,2.12-10,.42-14.94,1H174.57c1.5-1.56,3.44-.93,5.19-.93Q265.4,55.07,351,55.08Z" fill="#3596f8"/><path d="M359,65l-62.82,0c2.23-2.39,5.75.4,8-2,1.75-1.19,3.76-1,5.72-1q13,0,26.09,0c7.06-.22,14.12.32,21.18.06,1.49,0,3.47-.51,3.83,1.93Z" fill="#2f96fe"/><path d="M176.58,61h-22.1c.36-3.05,3.19-1.18,4.25-2.58-1.92-1.12-4.39.56-6.06-1.36,6.37.84,12.63-.36,18.92-1C171.56,59.4,176.38,57.9,176.58,61Z" fill="#3596f8"/><path d="M361,64c-3.7-2.07-7.71-.73-11.57-.94-4.43-.25-8.9-.06-13.35-.06-.63-1.14.46-1.43,1-2H363C363,62.45,363.07,63.93,361,64Z" fill="#2e99f9"/><path d="M363,59c-1.13-.64-1.07-4.39-3.76-1-2.26,2.82-4.11-1.19-6.33-1.27L355,55a38.73,38.73,0,0,0,4.31,0C362.47,54.7,363.29,56.31,363,59Z" fill="#3596f8"/><path d="M139.69,61c.07-.7-2.11-1.61-.34-1.77,1.18-.11,4.47-2.36,4.33,1.77l-2,0Z" fill="#3099fc"/><path d="M363,179.5l-3,1c-1.59-1.18-3.52-1.68-5.23-2.62-1.71-1.89-3.86-1.16-5.94-1-33.56.13-67.12,0-100.67.07-2.49,0-5-.17-7.41.63-15.08.94-30.17.5-45.26.08-2.61-.07-4.87-2.18-7.67-1.66-3.29.24-6.53,1.48-9.85.64-2.48-.62-4-1.68-.69-3.55,56.43-4,112.93-1.19,169.39-2,1.79,0,3.65-.45,5.38.45h7C362.94,172.9,363.9,175.73,363,179.5Z" fill="#3298fa"/><path d="M355,177.51c2.47-.37,4.2.5,5,3a26.13,26.13,0,0,1-7.33,1.05q-84.71-.09-169.42-.1c-1.9,0-4,.74-5.69-.92a4.29,4.29,0,0,1,2.76-2c4.38-.52,8.68,1.12,13.08.47,46.15-.24,92.3,0,138.44-.12C339.6,178.86,347.4,179.51,355,177.51Z" fill="#3396f5"/><path d="M352.06,171.53c-43,0-86,.36-128.94-.18-15.62-.19-31,2.83-46.54,2.18-1.34.84-2.67,1.23-4,0,.57-.3,1.17-.9,1.71-.85,12,1.06,23.61-2.34,35.58-2.24,45.5.35,91,.13,136.5.17C348.27,170.6,350.39,169.87,352.06,171.53Z" fill="#3697f8"/><path d="M172.58,173.52h4c-.61,1.43-.2,1.91,1.41,2,3.28.26,6.38-.67,9.55-1,.83,1.37,2.32,1.59,3.64,2.12,1.88.76,2.23,2.1,1.35,3.85-4.4.65-8.61-1.1-13-1-1,.69-1.82.58-2.23-.7a2.34,2.34,0,0,1,2.2-1.24c-1.9,0-3.88-.26-5.41,1.33-2.37,2-5,1.15-7.53.62h0c-3.9-1.43-8.06.35-12-1h-1c-1-2.29.52-2.46,2.14-2.46,5.72,0,11.19-1.71,16.8-2.52Z" fill="#3597fb"/><path d="M172.59,173.52c-4.83,2.09-10,2.29-15.15,3-1.54.21-3.46-.45-3.79,2-1.79,0-3.61.12-5.1-1.29.66-1.27,2.56-.27,3.11-1.69h0C158.77,176.31,165.53,173.38,172.59,173.52Z" fill="#3697f8"/><path d="M177.57,178.51a2.07,2.07,0,0,0,2,1,2.07,2.07,0,0,1-2,1c-3.63-.55-7.47,1.07-11-1,1.66,0,3.32,0,5,0s1.31-1,1-2C174.48,176.72,176.07,177.41,177.57,178.51Z" fill="#3697f8"/><path d="M363,179.5a9.22,9.22,0,0,0-4-8C363.63,172.05,364.82,174.41,363,179.5Z" fill="#3697f8"/><path d="M154.63,178.51c4,.5,8.13-1.09,12,1C162.63,179,158.48,180.5,154.63,178.51Z" fill="#3697f8"/><path d="M160.61,209.38c1.44-1.72,3.22-.74,4.92,0h-4.92Z" fill="#3d94d4"/><path d="M352,113.78h2c1.86-1.19,4.12.23,6-.92,1.62.34,1.76,2.19,3,2.92a8.13,8.13,0,0,1,0,6h0c-.93,1.58-2.35,1.67-3.93,1.29-2.34-2.06.08-6.13-3.33-8,1.59,3.23,2.72,6.12-1.71,7.7h-2c-1.72.91-3.58.46-5.38.46q-58,0-116,0a27.6,27.6,0,0,0-10.6,0c-3.2-.19-6.43.61-9.58-.45,0-.32,0-.65,0-1,1-2.2,3-2.43,5-2.41,8.3.08,16.6-.46,24.91,0,10.53.11,21.07,0,31.61,0,24.34-.28,48.69.62,71.41.42-8.68-.32-19,.52-29.31-.37a10.47,10.47,0,0,0-6.91-2.17c-10.92,0-21.85.85-32.71.7q-24.79-.35-49.61-.91c-2.66-.62-5.32-1.42-8.09-.41a8.86,8.86,0,0,1-1.7.36,7.81,7.81,0,0,1-4.27-.35c-1.51-.74-3.11-1.72-.57-3.28q68.7-.08,137.39,0C349.12,113.32,350.66,113,352,113.78Z" fill="#3496fb"/><path d="M197.51,121.76l-17.95-2h-2c-2-2-4.79-.21-7.93-1.81l26.85-3.13c1.14,1.74,2.76,1.59,4.46,1.11a22,22,0,0,1,4.8,0,7.67,7.67,0,0,1,2.59,1.21,4.41,4.41,0,0,1,1,1.11c.37,1.14,1.23,2.38-.61,3.08-3.21,1-6.56,0-9.8.67A1.16,1.16,0,0,1,197.51,121.76Z" fill="#3897fb"/><path d="M352,113.78H209.48l-.51.38-.5-.4c1.5-1.57,3.44-.92,5.18-.92q66.61-.06,133.22,0C348.62,112.84,350.56,112.2,352,113.78Z" fill="#3d93f4"/><path d="M229.41,122.74H352c-1.48,1.6-3.42,1-5.16,1q-65.62.06-131.24,0c-1.74,0-3.68.67-5.15-1h9.95A18.16,18.16,0,0,1,229.41,122.74Z" fill="#3d93f4"/><path d="M209.47,120.76l-1-3a2.56,2.56,0,0,1,2.19-.92c9,1,18-1.08,27-.59,1.71.1,3.28.25,4.45,1.64,1.42,2.19-.88,2.09-1.77,2.86q-12.09,0-24.19,0c-2,0-4-.09-5.73,1q-.5,0-1,0c-.34-.21-.46-.43-.34-.65S209.36,120.76,209.47,120.76Z" fill="#3398f8"/><path d="M354,122.74c2.48-2.81,3.88-5.5-.91-7.42,6.67-1.19,7.3-.4,5.89,7.42a4,4,0,0,1-4,0Z" fill="#3298f6"/><path d="M206.48,116.78h-6c-.89-.39-1.52-.9-1-2l9-1v0C209.35,115.82,208.76,116.86,206.48,116.78Z" fill="#3298f6"/><path d="M209.47,120.76v1l-2,1c-2.9-1.27-6.11.36-9-1C202,119.65,205.84,121.27,209.47,120.76Z" fill="#2f9afe"/><path d="M199.51,114.79l1,2c-2.25,1.2-4.19,1.79-4-2Z" fill="#3398f8"/><path d="M198.51,121.73c3,.47,6.17-.92,9,1l-9.92,0a5.5,5.5,0,0,1-.08-.91Z" fill="#4098ec"/><path d="M355,122.76h4a6.76,6.76,0,0,0,4-1C360.76,125.42,357.86,123.82,355,122.76Z" fill="#3d93f4"/><path d="M360,112.86c-1.78,1.69-4,.63-6,.92C355.8,112,358,113.09,360,112.86Z" fill="#3d93f4"/><path d="M363,121.76c0-2,0-4,0-6A4.54,4.54,0,0,1,363,121.76Z" fill="#3d93f4"/><path d="M361,49.06l2-2C363.48,48.89,363.28,50,361,49.06Z" fill="#3a94e8"/><path d="M209.48,103.83c-5-.22-10.06.67-15-1-2.7-2.88.53-3.18,1.78-3.15,7.51.19,14.81-1.47,22.18-2.32,7.54-.87,15.21,0,22.65-2q53.28,0,106.53,0c1.47,0,3-.36,4.39.46h2c1.57-.63,3.39-1.19,4.33.56,1.15,2.11-.33,3.66-2,4.93a12.74,12.74,0,0,1-5.29,1.17c-6.24-.55-12.51.07-18.75-1.75-3.79-1.1-8.25-1.29-11.82,1.86-1.21,1.07-2.86.68-4.33.68q-36.1,0-72.21,0c-4.63,0-9.22-1.75-13.83-.91C223.29,103.63,216.33,102.8,209.48,103.83Z" fill="#3397fa"/><path d="M356,100.85c1.92-2.7,3.62-5.31-2-5,6.82-2.44,9.35-1,9,4.94-.14,2.53-1.38,3.64-3.57,3.9a49.43,49.43,0,0,1-5.45.1c-1.66-1.67-3.78-.93-5.68-.93q-69.44-.08-138.88,0c9.18-.76,18.36-4.54,27.4-2.55,6.31,1.38,12.4,1.46,18.61,1.5,19.71.15,39.43.08,59.14,0,2.3,0,5.17,1,5.83-2.79.21-1.17,1.5-1.11,2.48-1.15,9.84-.41,19.38,2.19,29.1,3C353.44,101.78,354.94,102.16,356,100.85Z" fill="#3795fa"/><path d="M352.05,95.86H240.38c-5.09,1.8-10.28,1-15.46.55a1.08,1.08,0,0,1-.49-1.54q61.21,0,122.45,0C348.62,94.91,350.57,94.25,352.05,95.86Z" fill="#3795fa"/><path d="M224.43,94.88v1c.08.74-.2,1.43-.9,1.54a55.42,55.42,0,0,1-13.8.23c-.66-.06-1.09-.7-1.32-1.53,2.45-1.75,5.53.17,8-1.22v0Z" fill="#2d9afc"/><path d="M204.48,162.51c-.74-1.11-1.9-.9-3-.94a1.08,1.08,0,0,1-.06-1.33c1.22-1.26,2.92-1.81,4.31-2.83,1.9-3,4.68-3.74,8-3.31a10.08,10.08,0,0,0,5.81-.86,33.74,33.74,0,0,1,4-.11c3.25-.29,6.56.63,9.77-.51h8a38.53,38.53,0,0,0,14,0h2l1.13,1.26c.73,1.14,1.88,1.21,3.06,1.24,13.38.23,26.69,1.81,40.07,2.27,6,.21,12,2.19,18,.07,10.28-.59,20.57-.07,30.85-.3,2.88-.39,5.28-1.89,7.63-3.44,1.53-1,2.93-2.29,4.93-1.11h0c1,7.69-.4,9.45-7.76,9.45q-71.69,0-143.37,0c-1.79,0-3.65-.44-5.38.46Z" fill="#3497fa"/><path d="M344.07,152.62c2.31-.38,4.86.9,7-1,1.33-.07,2.66-1,4,0,.54,4.54-2.94,5-6,5.94-9.65.09-19.3,0-28.95.05-9.66,1.19-19.32-.43-29-.11-2.43.09-4.49-.75-2.35-3.81,4.38-1.54,9.05.4,13.44-1.07h4a17.1,17.1,0,0,0,9,0h1A153.17,153.17,0,0,0,344.07,152.62Z" fill="#3296fd"/><path d="M206.5,162.54c1.66-1.67,3.78-.93,5.68-.93q70.72-.06,141.45,0c8.28,0,8.78-.48,9.38-9,2.35,6.73.28,9.94-6.55,9.94Q281.48,162.57,206.5,162.54Z" fill="#3795f7"/><path d="M350.05,156.6c1.74-1.58,4.26-2.38,5-5,2.65.45,5.53-1,8,1l-11,6C351.6,157.71,349.44,158.54,350.05,156.6Z" fill="#3795f7"/><path d="M358,192.44c5.56-.45,3.1,4.8,5,7-3.16,1.09-6.42,2.88-8.27-2-.23-.6-1.76-.7-2.68-1-3.06-1.84-6.43-.69-9.64-1-1.94-.18-3.95.37-5.82-.56-1.78-1.69-3.88-.65-4.8-.82-1.72.27-.67,1-1,.4a6.33,6.33,0,0,1,5.52.13c2.91,1.65,6.07.56,9.11.84,2.25.2,4.6-.41,6.66,1,.51,3.5-1.39,4-4.4,4-16.85-.12-33.71-.81-50.53-.73-11.53.06-23.06-.31-34.57-.09-10.31.2-20.65-.08-31,.72-1.71.13-3.69.68-5.16-1,3.84-1.92,7.7-.78,10.86-.7-2.17-.83-5.29.06-8.27-.36-1.34-.19-4,.91-3.23-2.36,6.37-1.34,12.89-.85,19.26-.72,17.38.32,34.76-.16,48,.15-12.22-.08-28.6.14-45-.08-1.94-.63-4.53-.64-3.68-3.89H354C354.55,195.06,356.33,193.56,358,192.44Z" fill="#3497fc"/><path d="M358,192.44c-.33,2.8-2.13,3.63-4.4,2.58-2.71-1.26-.35-2.43.41-3.56h3Z" fill="#2d98fe"/><path d="M244.37,191.45c-.18,2.18,2.31,1.68,3,3a3.67,3.67,0,0,1-5,0c-.34-1-.67-2-1-3Z" fill="#3497fa"/><path d="M144.67,196.43c-2.31-.39-4.87.91-7-1C140,195.81,142.57,194.51,144.67,196.43Z" fill="#3497fc"/><path d="M178.57,192.45a3.36,3.36,0,0,1-5,0Z" fill="#3497fa"/><path d="M216.45,94.89c-1.93,2.12-4.83,0-7.91,2.17,6-.79,11,1,15.89-1.19h15.95c-1.06,2.33-3.17,1.92-5.13,2-4.09.17-8.25.61-12.26.63-8.61,0-16.83,3.32-25.48,2.44-1-.1-3.86-1.58-3,1.89a21.13,21.13,0,0,0-8-1c-1.59-2.16-.22-3.23,1.53-4.16,1.55-.82,3.48-1,4.45-2.8Z" fill="#3696fb"/><path d="M192.53,94.88c1.17,2.27-.39,2.62-2.06,3.17-1.83.62-4.38.72-3.92,3.79-8.85.09-17.37-2-25.9-4l8.95,0c1.16-1,2.84-.94,4-1.95h2a6.89,6.89,0,0,0,2,1.35c1.88.31,3.82,1.22,5.5-.52a1,1,0,0,1,.52-.84A22.57,22.57,0,0,1,192.53,94.88Z" fill="#3397fa"/><path d="M356,143.59l-2,0a5.39,5.39,0,0,0-2.91-.42c-35.5-.41-71-.69-106.49-.41-6.45,0-12.91.48-19.37.38-2.13-.72-1.81-2.29-1.39-3.91a1.84,1.84,0,0,1,1.47-1c13.74,0,27.49-.62,41.21-.61,11.39,0,22.92,1.47,34.23.36,11.67-1.14,23.12.92,34.66.45,5.14,2.74,10.58.6,14.42,1.15-3.61-.3-8.74,1.17-13.73-.8a1.72,1.72,0,0,1-.1-2.3c4.9-2.36,10.21-.33,15.22-1.42,3.22-.84,6.53.6,9.79-.39,1.46-.44,1.86,1,2.3,2,.4,3.49-.6,5.93-4.59,6.14C357.87,143.18,356.83,143,356,143.59Z" fill="#3497fa"/><path d="M224.43,142.66c19.64-1.23,39.31-.7,59-1.07,22.32-.41,44.59,1.64,66.91,1.08,1.29,0,2.68-.26,3.71.9l-129.62,0c-.21-.21-.28-.4-.2-.6S224.36,142.66,224.43,142.66Z" fill="#4096f6"/><path d="M192.53,138.68c-.22-2.21.78-3.2,3-3,7.11.67,13.86-2.34,20.94-2,1.33,1.87,3.46,1.31,5.26,1.78,1.59.41,3.83.42,2.71,3.19h0c-2.37,2-5.24,1.42-7.92,1.36a11,11,0,0,0-8,2.65l-4.94-.13A4.14,4.14,0,0,1,202,141.4c-3-3-5.58-1-8.17.74-1.42-.15-2.91.41-4.25-.46l-3.92-.13C187.32,139.17,191.51,142.73,192.53,138.68Z" fill="#3497fa"/><path d="M208.47,142.69c-.19-3,1.29-4.11,4.16-4,3.93.1,7.87,0,11.8,0v4c0,.29,0,.59,0,.88C219.09,143.23,213.69,144.64,208.47,142.69Z" fill="#3695fb"/><path d="M358,142.66c2.52-1.27,5.54-2.13,5-6a2.42,2.42,0,0,1,0-3l0,0c2,3.53,1.07,6.77-1,9.87C360.81,142.6,359.16,143.72,358,142.66Z" fill="#3b95f7"/><path d="M202.5,141.66l1,.9c-4.66-.35-9.44,1.13-14-.88l5,0C197.18,140,199.84,139.61,202.5,141.66Z" fill="#489aee"/><path d="M358,142.66c1.36.14,2.88-.44,4,.91l-6,0A2.15,2.15,0,0,1,358,142.66Z" fill="#4096f6"/><path d="M169.6,137.68l1,0c0,.33,0,.67-.05,1l-4.91-.1C166.72,137.22,168.25,137.84,169.6,137.68Z" fill="#3c98e6"/><path d="M224.43,138.68c-.44-2.73-2.6-1.94-4.23-2-2.15,0-4-.13-3.74-3h6c6.11,2.75,12.59,1,18.89,1.57,29.22,0,58.44-.18,87.65,0,2.42,0,5-.6,7.11,1.38v2h0a39.46,39.46,0,0,1-16.9.39,42.36,42.36,0,0,0-11.36-.31,194.84,194.84,0,0,1-39,0c-4.53-.44-9.18.18-13.8.53-9.38.73-18.85.27-28.29.22A7,7,0,0,1,224.43,138.68Z" fill="#3495fe"/><path d="M336.09,136.69H240.38c-1-3.49,1.8-2.4,3.21-2.42,7.94-.11,15.89,0,23.83-.08,1.62,0,3.32.45,4.86-.48h39.89c7.88,1.12,15.81.27,23.71.48,4.8.13,9.6,0,14.4,0,1,0,1.92.09,1.76,1.47C346.83,137.8,341.39,136.15,336.09,136.69Z" fill="#3198fa"/><path d="M272.28,133.71c-1.82,1.78-4.1.91-6.16.94-7.13.12-14.26,0-21.39.08-1.65,0-3.87-.81-4.35,2-3.32,0-6.65-.17-9.95.05a9.28,9.28,0,0,1-8-3Z" fill="#3497fa"/><path d="M351,134.7c-11.24,0-22.48,0-33.73,0-1.73,0-3.67.66-5.14-1H351c.34.22.45.44.34.66S351.16,134.7,351,134.7Z" fill="#3497fa"/><path d="M351,134.7v-1l11.94,0c0,1,0,2,0,3-3.49-2.06-7.41.53-11-1Z" fill="#3397f8"/><path d="M219.45,153.61c-.8,1.06-1.95,1-3.09,1-3.44.13-7.49-1.22-9,3.69-.08.26-1.2.2-1.83.28a.82.82,0,0,1-1.31,0c-.77-1.95-.42-3.27,2.53-3.47-2.48,0-4.24,1-6.17,1-2,.22-4.14,1.24-6-.49l3-2c.73-1.14,1.91-.92,3-1,5.61,1.17,11.28,1.07,17,1A1.4,1.4,0,0,1,219.45,153.61Z" fill="#3697fb"/><path d="M302.19,152.62c-4.18,2.18-8.66.43-13,1a10.17,10.17,0,0,1-5.61,1.59c-7.24.12-14.47-.15-21.71-.12a6.35,6.35,0,0,1-4.58-1.47v-1Z" fill="#3795f7"/><path d="M344.07,152.62c-2.49,2-5.41,1-8.05.9-6.63-.33-13.35,1.36-19.87-.9Z" fill="#3795f7"/><path d="M255.34,152.62a20.84,20.84,0,0,1-14,0Z" fill="#3697fb"/><path d="M233.4,152.62c-3.15,2-6.66.54-10,1-.32-.22-.43-.44-.32-.66s.21-.33.33-.33Z" fill="#3697fb"/><path d="M315.16,152.62a9,9,0,0,1-9,0Z" fill="#3795f7"/><path d="M223.44,152.62c0,.33,0,.66,0,1h-6C219.2,151.81,221.44,152.94,223.44,152.62Z" fill="#3796f8"/><path d="M61.93,118.77H54c-.32-.18-.42-.37-.33-.56s.2-.3.3-.3h8c.3.2.4.4.29.59S62,118.77,61.93,118.77Z" fill="#4c94e1"/><path d="M61.93,118.77c0-.29,0-.57,0-.86h7.91c0,.29,0,.57,0,.86Z" fill="#4292da"/><path d="M46.92,118.77c-2.28-.37-4.8.88-6.89-.94C42.33,118.15,44.84,116.92,46.92,118.77Z" fill="#4292da"/><path d="M53.92,117.91c0,.29,0,.57,0,.86H48C49.77,117,51.94,118.09,53.92,117.91Z" fill="#4292da"/><path d="M33,158.57v-1.94c1.4.16,2.9-.49,4.27.53C36.34,159.26,34.48,158.36,33,158.57Z" fill="#339aed"/><path d="M28.05,161.61a2,2,0,0,1-1,1.95c-.54-1.29-1.59-2.75,1-3C28,160.93,28.05,161.27,28.05,161.61Z" fill="#339aed"/><path d="M48.9,177.48c-1.16-1.86-3.76-.1-4.93-1.94H72.89c.33.21.44.43.33.65s-.22.32-.33.32l-2,0A144.78,144.78,0,0,1,48.9,177.48Z" fill="#5196de"/><path d="M72.89,176.5v-1c6.75,0,13.5,0,20.24,0,1.58,0,3.34-.56,4.64.94Z" fill="#5394d3"/><path d="M19.06,157.6c1.29.05,2.86-.25,3.34,1.35.25.86-.69,1.5-1.55,1.52-2.12.06-.81-2.14-1.79-2.87Z" fill="#3496fc"/><path d="M48.91,79l12,.06L59,80.82l-15,.06C45.17,79.08,47.75,80.84,48.91,79Z" fill="#4692df"/><path d="M95.71,98.92c-2.78,1.91-5.92.47-8.86.94-13.57,0-27.14,0-40.71,0-1.74,0-3.69.66-5.15-1Z" fill="#3e96ea"/><path d="M183.59,95.9q0,.48,0,1c-.84,1-2,.94-3.12,1-1.44-.35-3.61.75-3.86-2Z" fill="#3c95eb"/><path d="M176.58,95.89c1.06,1.43,2.61.84,4,1-.76,2.64-2.48,1.39-4,1a2.07,2.07,0,0,1-1-2Z" fill="#3c97f2"/><path d="M173.6,95.9c-.79,1.77-2.3,2.06-4,1.95l1-1.94Z" fill="#3c97f2"/><path d="M194.52,155.6c2.11.36,4-.66,6-1a5,5,0,0,1,4,4h1a5.46,5.46,0,0,1-4,2c-5.57-1.69-11.47,2.21-16.95-1-2.76.5-5.28-1-8-1-1.49-.5-3.24-.75-3-3h2C181.88,157.4,188.2,156.44,194.52,155.6Z" fill="#2f99f7"/><path d="M173.59,155.61l3,3c-2.58,1-5.51-.8-8,1a38.3,38.3,0,0,1-11-1l-2.85-.05c.29-.61.58-1.21.86-1.81l2-.1c4-.5,8.12,1,12-1Z" fill="#3796f8"/><path d="M184.55,159.59c3,.22,5.78,1.5,9-.62,2.36-1.57,5.37.6,8,1.61,0,.33,0,.66,0,1h-12.2A5.84,5.84,0,0,1,184.55,159.59Z" fill="#3796f8"/><path d="M151.69,79l2,1.91-4-.06c-1.2-1.72-3.68,0-4.85-1.81Z" fill="#409bf0"/><path d="M201.6,84.43c2.19-2.71,2-6.14,5.59-5.26,1.47.35,1.46,1.73,1.18,2.79C207.47,85.35,204.69,83.31,201.6,84.43Z" fill="#3398f8"/><path d="M167.61,77h8.71c-2.93.65-5.87,1.89-8.71,0Z" fill="#3c98fe"/><path d="M171.66,80.92c.66-1,1.43-1.54,2.37-1.06.05,0-.07.67-.2.7C173.12,80.74,172.38,80.81,171.66,80.92Z" fill="#2c92f0"/><path d="M242.38,194.44h61.11c0,.66,0,1.32,0,2H225.43c-1.88,1.83-4.31,1.53-6.52,1.34-6.8-.57-13.7.6-20.4-1.34-1.76-.2-3.62.48-5.31-2Z" fill="#3696f9"/><path d="M198.51,196.43h26.92c2.87,2,6.11.58,9.16,1,1.68.22,3.6-.5,5.9,2H224.43c-4.23-1.45-8.72.41-13-1h-13Z" fill="#2e99fd"/><path d="M156,198.12c1.35-1.93,2.64-1.74,4.45-1.21C159.18,199,157.77,198.25,156,198.12Z" fill="#3b92f9"/><path d="M211.47,198.42c4.3.56,8.78-1.19,13,1C220.13,198.85,215.65,200.6,211.47,198.42Z" fill="#3497fc"/><path d="M191.53,61c.51.49.88,1.48.19,1.56-4.87.57-9.76,1-14.6-.24-.28-.07-.37-.86-.54-1.32Z" fill="#3596f8"/><path d="M337.09,61l-1,2h-31.9l1-2Z" fill="#3298f8"/><path d="M192.53,180.49c-.61-1.45-.53-3.33-3.08-3.23-1.17.05-3-.62-1.91-2.74,17.51,3.58,35.23,1.38,52.84,2,1.72-.91,3.58-.45,5.37-.46q50,0,99.93,0c1.79,0,3.65.48,5.36-.49,2.32-1.31,3.71-.77,4,2-2,2.6-4.63,3.05-7.79,3.05Q269.89,180.43,192.53,180.49Z" fill="#3795fb"/><path d="M351,175.52c-1.64,1.72-3.76,1-5.66,1q-52.5.08-105,0c1.64-1.71,3.76-.95,5.66-1Q298.54,175.49,351,175.52Z" fill="#3698fd"/><path d="M177.57,178.51l-5-1c3.77-1.9,7.53-1,12.69-.38C182,179.07,179.69,178.25,177.57,178.51Z" fill="#3396f5"/><path d="M242.38,118.77a23.5,23.5,0,0,0-18.84-.66c-3,1.11-5.75.35-8.65-.19a38,38,0,0,0-6.41-.15c0-2.28,1.73-1.28,2.79-1.46,1.71-.29,3.54.49,5.18-.53h0a11,11,0,0,1,7,0c10.6,0,21.21.1,31.81,0,7.44-.1,14.83,2.1,22.22.93,10.23-1.62,20.47-.53,30.7-.87,2.42-.08,5.16-.37,6,3-3,1.85-6.17.76-9.28.83-3.59-2.43-7.15-1.37-10.72.09-7,.17-14.07,0-21.11.08-8.48,0-16.95,0-25.42,0C245.84,119.73,243.94,120.11,242.38,118.77Z" fill="#3597fc"/><path d="M273.28,118.77h21.93a9.78,9.78,0,0,1,9,0H351.3l0,2h-79C271.65,119.62,272.74,119.33,273.28,118.77Z" fill="#2f99f6"/><path d="M273.28,118.77l-1,2H240.38l2-2Z" fill="#2f99fb"/><path d="M216.45,115.78c-2.22,2.39-5.74-.4-8,2a2.07,2.07,0,0,1-2-1,3,3,0,0,0,2-3h1C211,117.43,214.13,115.12,216.45,115.78Z" fill="#3398f8"/><path d="M229.41,122.74h-9A9.11,9.11,0,0,1,229.41,122.74Z" fill="#3897fb"/><path d="M223.43,115.78h-7A5.76,5.76,0,0,1,223.43,115.78Z" fill="#3398f8"/><path d="M356,100.85c-.71,2.81-2.24,2.36-4,1C353.09,100.38,354.65,101,356,100.85Z" fill="#3099f8"/><path d="M257.33,153.61h31.9c-1.73,3.47.88,3,2.78,3,9.38,0,18.75,0,28.13,0-1.64,3.2-4.24.53-5.87,1.47,1.2.56,3.24-.58,4.87.52-4.49,1-8.91,3.69-13.57.4a4.36,4.36,0,0,0-2.4-.38c-14,.2-28-1.78-42-2C259,156.59,257.08,156.6,257.33,153.61Z" fill="#3398f9"/><path d="M319.14,158.59h-6.35c2.56-2,5.5.19,7.35-2h29.91l2,2Z" fill="#3397f6"/><path d="M237.39,156.6h18.28l0,1.51h-30.3l9.06-1.51A2.14,2.14,0,0,1,237.39,156.6Z" fill="#3397f6"/><path d="M237.39,156.6h-3c.14-1,.4-2,1.73-1.8C237.16,154.93,237.26,155.8,237.39,156.6Z" fill="#3697fb"/><path d="M336.09,194.44c3.78,0,7.56,0,11.34,0,1.85,0,3.68-.07,4.61,2h0c-4.07,0-8.13,0-12.2,0C338.28,196.4,336.42,196.83,336.09,194.44Z" fill="#3497fa"/><path d="M336.38,194.3h-6.07C332.28,193.5,334.23,193,336.38,194.3Z" fill="#3497fa"/><path d="M176.58,97.86c1.37-.14,2.94.46,4-1h3c1.27.24,2,1.11.43,1.55C181.58,99.09,178.92,99.66,176.58,97.86Z" fill="#2e99f4"/><path d="M336.09,138.68h17v1.65c-5.36,0-10.73,0-16.09-.07-.32,0-.61-1-.92-1.58Z" fill="#3397f8"/><path d="M202.5,141.66h-8l-.51-2.32c3-.26,6-1.38,8.9.1C203.1,139.53,202.65,140.89,202.5,141.66Z" fill="#3597f4"/><path d="M204.49,158.59l-4-4h6.33C205.48,156,204,156.81,204.49,158.59Z" fill="#3497fa"/><path d="M304.19,118.76h-9C298.2,116,301.19,115.18,304.19,118.76Z" fill="#3496fb"/></svg>