<svg xmlns="http://www.w3.org/2000/svg" xmlns:xlink="http://www.w3.org/1999/xlink" width="63.178" height="91.152" viewBox="0 0 63.178 91.152"><defs><clipPath id="a"><rect width="63.178" height="91.152" fill="#fff" stroke="#707070" stroke-width="1"/></clipPath></defs><g clip-path="url(#a)"><g transform="translate(3.811 2.826)" fill="#032f98"><path d="M 75.42655944824219 83.79244232177734 L 12.89342784881592 83.79244232177734 C 6.335368633270264 83.79244232177734 1.000003933906555 77.90141296386719 1.000003933906555 70.66034698486328 L 1.000003933906555 14.1320686340332 C 1.000003933906555 6.891021251678467 6.335368633270264 0.999997615814209 12.89342784881592 0.999997615814209 L 75.42655944824219 0.999997615814209 C 81.984619140625 0.999997615814209 87.31997680664062 6.891021251678467 87.31997680664062 14.1320686340332 L 87.31997680664062 70.66034698486328 C 87.31997680664062 77.90141296386719 81.984619140625 83.79244232177734 75.42655944824219 83.79244232177734 Z" stroke="none"/><path d="M 12.89341735839844 1.999992370605469 C 6.886764526367188 1.999992370605469 1.999992370605469 7.442420959472656 1.999992370605469 14.13207244873047 L 1.999992370605469 70.66033935546875 C 1.999992370605469 77.34999084472656 6.886764526367188 82.79243469238281 12.89341735839844 82.79243469238281 L 75.42655181884766 82.79243469238281 C 81.43320465087891 82.79243469238281 86.31997680664062 77.34999084472656 86.31997680664062 70.66033935546875 L 86.31997680664062 14.13207244873047 C 86.31997680664062 7.442420959472656 81.43320465087891 1.999992370605469 75.42655181884766 1.999992370605469 L 12.89341735839844 1.999992370605469 M 12.89341735839844 -7.62939453125e-06 L 75.42655181884766 -7.62939453125e-06 C 82.54739379882812 -7.62939453125e-06 88.31997680664062 6.327140808105469 88.31997680664062 14.13207244873047 L 88.31997680664062 70.66033935546875 C 88.31997680664062 78.46527099609375 82.54739379882812 84.79243469238281 75.42655181884766 84.79243469238281 L 12.89341735839844 84.79243469238281 C 5.772575378417969 84.79243469238281 -7.62939453125e-06 78.46527099609375 -7.62939453125e-06 70.66033935546875 L -7.62939453125e-06 14.13207244873047 C -7.62939453125e-06 6.327140808105469 5.772575378417969 -7.62939453125e-06 12.89341735839844 -7.62939453125e-06 Z" stroke="none" fill="#334048"/></g></g><text transform="translate(10.845 61.677)" fill="#fff" font-size="15" font-family="Helvetica"><tspan x="0" y="0">I.R.</tspan></text><text transform="translate(10.845 77.696)" fill="#fff" font-size="15" font-family="Helvetica"><tspan x="0" y="0">IRAN</tspan></text><g transform="translate(11.955 12.249)"><rect width="45.137" height="8.039" fill="#2b9e45"/><rect width="45.137" height="8.229" transform="translate(0 8.039)" fill="#fff"/><rect width="45.137" height="8.229" transform="translate(0 16.268)" fill="#d70a16"/><path d="M841.053,432.51a2.344,2.344,0,0,0-1.685,2c-.08,1.938,1.1,2.313,1.1,2.313a3.29,3.29,0,0,1-.6-2.088A4.2,4.2,0,0,1,841.053,432.51Z" transform="translate(-819.706 -422.381)" fill="#d70a16"/><path d="M1017.5,434.514a2.344,2.344,0,0,0-1.685-2,4.2,4.2,0,0,1,1.182,2.23,3.3,3.3,0,0,1-.6,2.088S1017.584,436.452,1017.5,434.514Z" transform="translate(-992.029 -422.381)" fill="#d70a16"/><path d="M885.583,429.279a2.745,2.745,0,0,0-.647-3.332,3.327,3.327,0,0,1,.391,2.464,3.406,3.406,0,0,1-1.059,1.685l.03-4.066-.343-.359-.351.368.077,4.091a3.386,3.386,0,0,1-1.1-1.718,3.326,3.326,0,0,1,.391-2.464,2.745,2.745,0,0,0-.647,3.332,2.443,2.443,0,0,0,1.118,1.288,2.661,2.661,0,0,1-1.052.166,3.218,3.218,0,0,0,1.351.073l.214.351.261-.343a3.226,3.226,0,0,0,1.3-.081,2.688,2.688,0,0,1-1.052-.166A2.441,2.441,0,0,0,885.583,429.279Z" transform="translate(-861.385 -415.701)" fill="#d70a16"/><path d="M931.422,401.4c.287,0,.361-.232.377-.4.016.166.089.4.377.4.448,0,.417-.488.339-.661,0,0-.036.392-.343.392a.381.381,0,0,1-.372-.292,0,0,0,0,1,0,0h0a.381.381,0,0,1-.372.293c-.308,0-.344-.392-.344-.392C931,400.914,930.974,401.4,931.422,401.4Z" transform="translate(-909.231 -391.355)" fill="#d70a16"/><rect width="2.708" height="0.239" transform="translate(0.009 6.673)" fill="#fff"/><path d="M1.273,302.4v.248h.413v.183H1.1v-.443H0v.741H.3v-.489H.867v.493H1.912v-.008h0V302.4Z" transform="translate(0 -295.308)" fill="#fff"/><rect width="0.293" height="0.308" transform="translate(0.41 7.509)" fill="#fff"/><path d="M90.6,284.92v.851h-.217v-.851h-.236v.851h-.174v-.851h-.236v.423H88.93v.008h0v.719h.635v-.3h-.409v-.179h.582v.481h1.1v-1.15Z" transform="translate(-86.847 -278.247)" fill="#fff"/><rect width="1.894" height="0.304" transform="translate(0.013 7.959)" fill="#fff"/><rect width="1.894" height="0.304" transform="translate(2.103 7.959)" fill="#fff"/><rect width="2.708" height="0.239" transform="translate(4.136 6.673)" fill="#fff"/><path d="M177.453,302.4v.248h.413v.183h-.587v-.443h-1.1v.741h.3v-.489h.572v.493h1.045v-.008h0V302.4Z" transform="translate(-172.054 -295.308)" fill="#fff"/><rect width="0.293" height="0.308" transform="translate(4.536 7.509)" fill="#fff"/><path d="M266.78,284.92v.851h-.217v-.851h-.236v.851h-.174v-.851h-.236v.423h-.807v.008h0v.719h.635v-.3h-.409v-.179h.582v.481h1.1v-1.15Z" transform="translate(-258.901 -278.247)" fill="#fff"/><rect width="1.894" height="0.304" transform="translate(4.139 7.959)" fill="#fff"/><rect width="1.894" height="0.304" transform="translate(6.229 7.959)" fill="#fff"/><rect width="2.708" height="0.239" transform="translate(8.248 6.673)" fill="#fff"/><path d="M353.063,302.4v.248h.413v.183h-.587v-.443h-1.1v.741h.3v-.489h.572v.493H353.7v-.008h0V302.4Z" transform="translate(-343.551 -295.308)" fill="#fff"/><rect width="0.293" height="0.308" transform="translate(8.649 7.509)" fill="#fff"/><path d="M442.38,284.92v.851h-.217v-.851h-.236v.851h-.174v-.851h-.236v.423h-.807v.008h0v.719h.635v-.3h-.409v-.179h.582v.481h1.1v-1.15Z" transform="translate(-430.388 -278.247)" fill="#fff"/><rect width="1.894" height="0.304" transform="translate(8.252 7.959)" fill="#fff"/><rect width="1.894" height="0.304" transform="translate(10.342 7.959)" fill="#fff"/><rect width="2.708" height="0.239" transform="translate(12.361 6.673)" fill="#fff"/><path d="M528.673,302.4v.248h.413v.183H528.5v-.443h-1.1v.741h.3v-.489h.572v.493h1.044v-.008h0V302.4Z" transform="translate(-515.048 -295.308)" fill="#fff"/><rect width="0.293" height="0.308" transform="translate(12.761 7.509)" fill="#fff"/><path d="M617.99,284.92v.851h-.217v-.851h-.236v.851h-.174v-.851h-.236v.423h-.807v.008h0v.719h.635v-.3h-.409v-.179h.582v.481h1.1v-1.15Z" transform="translate(-601.886 -278.247)" fill="#fff"/><rect width="1.894" height="0.304" transform="translate(12.365 7.959)" fill="#fff"/><rect width="1.894" height="0.304" transform="translate(14.454 7.959)" fill="#fff"/><rect width="2.708" height="0.239" transform="translate(16.474 6.673)" fill="#fff"/><path d="M704.273,302.4v.248h.413v.183H704.1v-.443H703v.741h.3v-.489h.572v.493h1.045v-.008h0V302.4Z" transform="translate(-686.536 -295.308)" fill="#fff"/><rect width="0.293" height="0.308" transform="translate(16.874 7.509)" fill="#fff"/><path d="M793.6,284.92v.851h-.217v-.851h-.236v.851h-.174v-.851h-.236v.423h-.807v.008h0v.719h.635v-.3h-.409v-.179h.582v.481h1.1v-1.15Z" transform="translate(-773.383 -278.247)" fill="#fff"/><rect width="1.894" height="0.304" transform="translate(16.477 7.959)" fill="#fff"/><rect width="1.894" height="0.304" transform="translate(18.567 7.959)" fill="#fff"/><rect width="2.708" height="0.239" transform="translate(20.587 6.673)" fill="#fff"/><path d="M879.883,302.4v.248h.413v.183h-.587v-.443h-1.1v.741h.3v-.489h.572v.493h1.045v-.008h0V302.4Z" transform="translate(-858.033 -295.308)" fill="#fff"/><rect width="0.293" height="0.308" transform="translate(20.987 7.509)" fill="#fff"/><path d="M969.2,284.92v.851h-.217v-.851h-.236v.851h-.173v-.851h-.236v.423h-.807v.008h0v.719h.635v-.3h-.409v-.179h.582v.481h1.1v-1.15Z" transform="translate(-944.87 -278.247)" fill="#fff"/><rect width="1.894" height="0.304" transform="translate(20.59 7.959)" fill="#fff"/><rect width="1.894" height="0.304" transform="translate(22.68 7.959)" fill="#fff"/><rect width="2.708" height="0.239" transform="translate(24.699 6.673)" fill="#fff"/><path d="M1055.483,302.4v.248h.413v.183h-.587v-.443h-1.1v.741h.3v-.489h.572v.493h1.045v-.008h0V302.4Z" transform="translate(-1029.52 -295.308)" fill="#fff"/><rect width="0.293" height="0.308" transform="translate(25.099 7.509)" fill="#fff"/><path d="M1144.8,284.92v.851h-.217v-.851h-.236v.851h-.174v-.851h-.236v.423h-.807v.008h0v.719h.635v-.3h-.409v-.179h.582v.481h1.1v-1.15Z" transform="translate(-1116.358 -278.247)" fill="#fff"/><rect width="1.894" height="0.304" transform="translate(24.703 7.959)" fill="#fff"/><rect width="1.894" height="0.304" transform="translate(26.792 7.959)" fill="#fff"/><rect width="2.708" height="0.239" transform="translate(28.812 6.673)" fill="#fff"/><path d="M1231.093,302.4v.248h.414v.183h-.587v-.443h-1.1v.741h.3v-.489h.572v.493h1.044v-.008h0V302.4Z" transform="translate(-1201.017 -295.308)" fill="#fff"/><rect width="0.293" height="0.308" transform="translate(29.212 7.509)" fill="#fff"/><path d="M1320.41,284.92v.851h-.217v-.851h-.236v.851h-.174v-.851h-.236v.423h-.807v.008h0v.719h.635v-.3h-.409v-.179h.582v.481h1.1v-1.15Z" transform="translate(-1287.855 -278.247)" fill="#fff"/><rect width="1.894" height="0.304" transform="translate(28.815 7.959)" fill="#fff"/><rect width="1.894" height="0.304" transform="translate(30.905 7.959)" fill="#fff"/><rect width="2.708" height="0.239" transform="translate(32.925 6.673)" fill="#fff"/><path d="M1406.693,302.4v.248h.413v.183h-.587v-.443h-1.1v.741h.3v-.489h.572v.493h1.045v-.008h0V302.4Z" transform="translate(-1372.505 -295.308)" fill="#fff"/><rect width="0.293" height="0.308" transform="translate(33.325 7.509)" fill="#fff"/><path d="M1496.02,284.92v.851h-.217v-.851h-.236v.851h-.173v-.851h-.236v.423h-.807v.008h0v.719h.635v-.3h-.409v-.179h.582v.481h1.1v-1.15Z" transform="translate(-1459.352 -278.247)" fill="#fff"/><rect width="1.894" height="0.304" transform="translate(32.928 7.959)" fill="#fff"/><rect width="1.894" height="0.304" transform="translate(35.018 7.959)" fill="#fff"/><rect width="2.708" height="0.239" transform="translate(37.037 6.673)" fill="#fff"/><path d="M1582.3,302.4v.248h.413v.183h-.587v-.443h-1.1v.741h.3v-.489h.572v.493h1.044v-.008h0V302.4Z" transform="translate(-1544.002 -295.308)" fill="#fff"/><rect width="0.293" height="0.308" transform="translate(37.438 7.509)" fill="#fff"/><path d="M1671.62,284.92v.851h-.217v-.851h-.236v.851h-.173v-.851h-.236v.423h-.807v.008h0v.719h.635v-.3h-.409v-.179h.582v.481h1.1v-1.15Z" transform="translate(-1630.839 -278.247)" fill="#fff"/><rect width="1.894" height="0.304" transform="translate(37.041 7.959)" fill="#fff"/><rect width="1.894" height="0.304" transform="translate(39.131 7.959)" fill="#fff"/><rect width="2.708" height="0.239" transform="translate(41.15 6.673)" fill="#fff"/><path d="M1757.9,302.4v.248h.413v.183h-.587v-.443h-1.1v.741h.3v-.489h.572v.493h1.045v-.008h0V302.4Z" transform="translate(-1715.489 -295.308)" fill="#fff"/><rect width="0.293" height="0.308" transform="translate(41.55 7.509)" fill="#fff"/><path d="M1847.23,284.92v.851h-.217v-.851h-.236v.851h-.173v-.851h-.236v.423h-.807v.008h0v.719h.635v-.3h-.409v-.179h.582v.481h1.1v-1.15Z" transform="translate(-1802.337 -278.247)" fill="#fff"/><rect width="1.894" height="0.304" transform="translate(41.154 7.959)" fill="#fff"/><rect width="1.894" height="0.304" transform="translate(43.243 7.959)" fill="#fff"/><rect width="2.708" height="0.239" transform="translate(0.009 16.707)" fill="#fff"/><path d="M1.273,730.812v.248h.413v.183H1.1V730.8H0v.742H.3v-.489H.867v.493H1.912v-.008h0v-.726Z" transform="translate(0 -713.685)" fill="#fff"/><rect width="0.293" height="0.308" transform="translate(0.41 17.542)" fill="#fff"/><path d="M90.6,713.32v.851h-.217v-.851h-.236v.851h-.174v-.851h-.236v.423H88.93v.008h0v.719h.635v-.3h-.409v-.179h.582v.482h1.1v-1.15Z" transform="translate(-86.847 -696.614)" fill="#fff"/><rect width="1.894" height="0.304" transform="translate(0.013 16.242)" fill="#fff"/><rect width="1.894" height="0.304" transform="translate(2.103 16.242)" fill="#fff"/><rect width="2.708" height="0.239" transform="translate(4.136 16.707)" fill="#fff"/><path d="M177.453,730.812v.248h.413v.183h-.587V730.8h-1.1v.742h.3v-.489h.572v.493h1.045v-.008h0v-.726Z" transform="translate(-172.054 -713.685)" fill="#fff"/><rect width="0.293" height="0.308" transform="translate(4.536 17.542)" fill="#fff"/><path d="M266.78,713.32v.851h-.217v-.851h-.236v.851h-.174v-.851h-.236v.423h-.807v.008h0v.719h.635v-.3h-.409v-.179h.582v.482h1.1v-1.15Z" transform="translate(-258.901 -696.614)" fill="#fff"/><rect width="1.894" height="0.304" transform="translate(4.139 16.242)" fill="#fff"/><rect width="1.894" height="0.304" transform="translate(6.229 16.242)" fill="#fff"/><rect width="2.708" height="0.239" transform="translate(8.248 16.707)" fill="#fff"/><path d="M353.063,730.812v.248h.413v.183h-.587V730.8h-1.1v.742h.3v-.489h.572v.493H353.7v-.008h0v-.726Z" transform="translate(-343.551 -713.685)" fill="#fff"/><rect width="0.293" height="0.308" transform="translate(8.649 17.542)" fill="#fff"/><path d="M442.38,713.32v.851h-.217v-.851h-.236v.851h-.174v-.851h-.236v.423h-.807v.008h0v.719h.635v-.3h-.409v-.179h.582v.482h1.1v-1.15Z" transform="translate(-430.388 -696.614)" fill="#fff"/><rect width="1.894" height="0.304" transform="translate(8.252 16.242)" fill="#fff"/><rect width="1.894" height="0.304" transform="translate(10.342 16.242)" fill="#fff"/><rect width="2.708" height="0.239" transform="translate(12.361 16.707)" fill="#fff"/><path d="M528.673,730.812v.248h.413v.183H528.5V730.8h-1.1v.742h.3v-.489h.572v.493h1.044v-.008h0v-.726Z" transform="translate(-515.048 -713.685)" fill="#fff"/><rect width="0.293" height="0.308" transform="translate(12.761 17.542)" fill="#fff"/><path d="M617.99,713.32v.851h-.217v-.851h-.236v.851h-.174v-.851h-.236v.423h-.807v.008h0v.719h.635v-.3h-.409v-.179h.582v.482h1.1v-1.15Z" transform="translate(-601.886 -696.614)" fill="#fff"/><rect width="1.894" height="0.304" transform="translate(12.365 16.242)" fill="#fff"/><rect width="1.894" height="0.304" transform="translate(14.454 16.242)" fill="#fff"/><rect width="2.708" height="0.239" transform="translate(16.474 16.707)" fill="#fff"/><path d="M704.273,730.812v.248h.413v.183H704.1V730.8H703v.742h.3v-.489h.572v.493h1.045v-.008h0v-.726Z" transform="translate(-686.536 -713.685)" fill="#fff"/><rect width="0.293" height="0.308" transform="translate(16.874 17.542)" fill="#fff"/><path d="M793.6,713.32v.851h-.217v-.851h-.236v.851h-.174v-.851h-.236v.423h-.807v.008h0v.719h.635v-.3h-.409v-.179h.582v.482h1.1v-1.15Z" transform="translate(-773.383 -696.614)" fill="#fff"/><rect width="1.894" height="0.304" transform="translate(16.477 16.242)" fill="#fff"/><rect width="1.894" height="0.304" transform="translate(18.567 16.242)" fill="#fff"/><rect width="2.708" height="0.239" transform="translate(20.587 16.707)" fill="#fff"/><path d="M879.883,730.812v.248h.413v.183h-.587V730.8h-1.1v.742h.3v-.489h.572v.493h1.045v-.008h0v-.726Z" transform="translate(-858.033 -713.685)" fill="#fff"/><rect width="0.293" height="0.308" transform="translate(20.987 17.542)" fill="#fff"/><path d="M969.2,713.32v.851h-.217v-.851h-.236v.851h-.173v-.851h-.236v.423h-.807v.008h0v.719h.635v-.3h-.409v-.179h.582v.482h1.1v-1.15Z" transform="translate(-944.87 -696.614)" fill="#fff"/><rect width="1.894" height="0.304" transform="translate(20.59 16.242)" fill="#fff"/><rect width="1.894" height="0.304" transform="translate(22.68 16.242)" fill="#fff"/><rect width="2.708" height="0.239" transform="translate(24.699 16.707)" fill="#fff"/><path d="M1055.483,730.812v.248h.413v.183h-.587V730.8h-1.1v.742h.3v-.489h.572v.493h1.045v-.008h0v-.726Z" transform="translate(-1029.52 -713.685)" fill="#fff"/><rect width="0.293" height="0.308" transform="translate(25.099 17.542)" fill="#fff"/><path d="M1144.8,713.32v.851h-.217v-.851h-.236v.851h-.174v-.851h-.236v.423h-.807v.008h0v.719h.635v-.3h-.409v-.179h.582v.482h1.1v-1.15Z" transform="translate(-1116.358 -696.614)" fill="#fff"/><rect width="1.894" height="0.304" transform="translate(24.703 16.242)" fill="#fff"/><rect width="1.894" height="0.304" transform="translate(26.792 16.242)" fill="#fff"/><rect width="2.708" height="0.239" transform="translate(28.812 16.707)" fill="#fff"/><path d="M1231.093,730.812v.248h.414v.183h-.587V730.8h-1.1v.742h.3v-.489h.572v.493h1.044v-.008h0v-.726Z" transform="translate(-1201.017 -713.685)" fill="#fff"/><rect width="0.293" height="0.308" transform="translate(29.212 17.542)" fill="#fff"/><path d="M1320.41,713.32v.851h-.217v-.851h-.236v.851h-.174v-.851h-.236v.423h-.807v.008h0v.719h.635v-.3h-.409v-.179h.582v.482h1.1v-1.15Z" transform="translate(-1287.855 -696.614)" fill="#fff"/><rect width="1.894" height="0.304" transform="translate(28.815 16.242)" fill="#fff"/><rect width="1.894" height="0.304" transform="translate(30.905 16.242)" fill="#fff"/><rect width="2.708" height="0.239" transform="translate(32.925 16.707)" fill="#fff"/><path d="M1406.693,730.812v.248h.413v.183h-.587V730.8h-1.1v.742h.3v-.489h.572v.493h1.045v-.008h0v-.726Z" transform="translate(-1372.505 -713.685)" fill="#fff"/><rect width="0.293" height="0.308" transform="translate(33.325 17.542)" fill="#fff"/><path d="M1496.02,713.32v.851h-.217v-.851h-.236v.851h-.173v-.851h-.236v.423h-.807v.008h0v.719h.635v-.3h-.409v-.179h.582v.482h1.1v-1.15Z" transform="translate(-1459.352 -696.614)" fill="#fff"/><rect width="1.894" height="0.304" transform="translate(32.928 16.242)" fill="#fff"/><rect width="1.894" height="0.304" transform="translate(35.018 16.242)" fill="#fff"/><rect width="2.708" height="0.239" transform="translate(37.037 16.707)" fill="#fff"/><path d="M1582.3,730.812v.248h.413v.183h-.587V730.8h-1.1v.742h.3v-.489h.572v.493h1.044v-.008h0v-.726Z" transform="translate(-1544.002 -713.685)" fill="#fff"/><rect width="0.293" height="0.308" transform="translate(37.438 17.542)" fill="#fff"/><path d="M1671.62,713.32v.851h-.217v-.851h-.236v.851h-.173v-.851h-.236v.423h-.807v.008h0v.719h.635v-.3h-.409v-.179h.582v.482h1.1v-1.15Z" transform="translate(-1630.839 -696.614)" fill="#fff"/><rect width="1.894" height="0.304" transform="translate(37.041 16.242)" fill="#fff"/><rect width="1.894" height="0.304" transform="translate(39.131 16.242)" fill="#fff"/><rect width="2.708" height="0.239" transform="translate(41.15 16.707)" fill="#fff"/><path d="M1757.9,730.812v.248h.413v.183h-.587V730.8h-1.1v.742h.3v-.489h.572v.493h1.045v-.008h0v-.726Z" transform="translate(-1715.489 -713.685)" fill="#fff"/><rect width="0.293" height="0.308" transform="translate(41.55 17.542)" fill="#fff"/><path d="M1847.23,713.32v.851h-.217v-.851h-.236v.851h-.173v-.851h-.236v.423h-.807v.008h0v.719h.635v-.3h-.409v-.179h.582v.482h1.1v-1.15Z" transform="translate(-1802.337 -696.614)" fill="#fff"/><rect width="1.894" height="0.304" transform="translate(41.154 16.242)" fill="#fff"/><rect width="1.894" height="0.304" transform="translate(43.243 16.242)" fill="#fff"/></g></svg>