<svg xmlns="http://www.w3.org/2000/svg" width="68.455" height="68.302" viewBox="0 0 68.455 68.302"><g transform="translate(0.75 0.75)"><path d="M62.757,293.921h9.1a2.257,2.257,0,0,0,2.254-2.254v-9.1c0-3.8,5.739-3.8,5.739,0v9.1a8,8,0,0,1-7.993,7.993h-9.1C58.961,299.66,58.96,293.921,62.757,293.921ZM12.9,282.565c0-3.8,5.739-3.8,5.739,0v9.1a2.257,2.257,0,0,0,2.254,2.254h9.1c3.8,0,3.8,5.739,0,5.739h-9.1a8,8,0,0,1-7.993-7.993Z" transform="translate(-12.896 -232.857)" stroke="#c8c8c8" stroke-linecap="round" stroke-linejoin="round" stroke-width="1.5"/><path d="M62.757,285.457h9.1a2.257,2.257,0,0,1,2.254,2.253v9.1c0,3.8,5.739,3.8,5.739,0v-9.1a8,8,0,0,0-7.993-7.992h-9.1C58.961,279.718,58.96,285.457,62.757,285.457ZM12.9,296.812c0,3.8,5.739,3.8,5.739,0v-9.1a2.257,2.257,0,0,1,2.254-2.253h9.1c3.8,0,3.8-5.739,0-5.739h-9.1A8,8,0,0,0,12.9,287.71Z" transform="translate(-12.896 -279.718)" stroke="#c8c8c8" stroke-linecap="round" stroke-linejoin="round" stroke-width="1.5"/><rect width="59" height="6" rx="3" transform="translate(2.744 31.644)" fill="#ff641e"/></g></svg>