<svg xmlns="http://www.w3.org/2000/svg" viewBox="0 0 351.49 223.57"><g id="Layer_2" data-name="Layer 2"><g id="Layer_1-2" data-name="Layer 1"><path d="M175.75,223.56q-63.24,0-126.49,0c-23,0-41.77-14-47.44-35.52A54.72,54.72,0,0,1,.1,174.35q-.19-62.49-.06-125C.07,20.8,20.86,0,49.43,0Q175.73,0,302,0c28.58,0,49.37,20.75,49.41,49.32q.09,62.31,0,124.62c0,28.79-20.8,49.55-49.58,49.58Q238.81,223.62,175.75,223.56Zm.13-64c10.46,0,20.93.05,31.4,0,9.16-.06,16.15-6.73,16.36-15.46a15.68,15.68,0,0,0-15.89-16.28q-32-.3-63.92,0a15.69,15.69,0,0,0-16,16.19c.15,8.88,7.19,15.52,16.63,15.57C154.94,159.64,165.41,159.6,175.88,159.6Zm-72-16A23.94,23.94,0,1,0,80,167.67,23.88,23.88,0,0,0,103.87,143.57ZM271.58,119.8a23.94,23.94,0,1,0,23.92,24A23.9,23.9,0,0,0,271.58,119.8ZM80.06,55.94A23.91,23.91,0,1,0,103.87,80,23.91,23.91,0,0,0,80.06,55.94Zm87.61,23.74a23.93,23.93,0,0,0-47.85.1,24.08,24.08,0,0,0,24,24A23.83,23.83,0,0,0,167.67,79.68Zm39.94-23.75a23.92,23.92,0,0,0,.15,47.83,23.92,23.92,0,1,0-.15-47.83ZM295.5,79.64a23.95,23.95,0,1,0-23.86,24.12A23.89,23.89,0,0,0,295.5,79.64Z"/></g></g></svg>