<svg xmlns="http://www.w3.org/2000/svg" viewBox="0 0 120.89 153.14"><g id="Layer_2" data-name="Layer 2"><g id="Layer_1-2" data-name="Layer 1"><path d="M75.82,16.08A16,16,0,1,1,60.18,0,16,16,0,0,1,75.82,16.08Z"/><path d="M88.94,15.89a16,16,0,1,1,15.62,16A15.91,15.91,0,0,1,88.94,15.89Z"/><path d="M104.84,72.3a16,16,0,1,1,16-15.74A16,16,0,0,1,104.84,72.3Z"/><path d="M59.87,72.3a16,16,0,1,1,15.95-16A15.88,15.88,0,0,1,59.87,72.3Z"/><path d="M31.91,96.83a16,16,0,1,1-16-16A15.93,15.93,0,0,1,31.91,96.83Z"/><path d="M60.87,80.83a16,16,0,1,1-16,15.83A15.92,15.92,0,0,1,60.87,80.83Z"/><path d="M75.82,137.23a16,16,0,1,1-15.84-16A15.93,15.93,0,0,1,75.82,137.23Z"/><path d="M31.91,16.08A16,16,0,1,1,16,0,15.9,15.9,0,0,1,31.91,16.08Z"/><path d="M105,80.84a16,16,0,1,1-16,16A16,16,0,0,1,105,80.84Z"/><path d="M16,72.3a16,16,0,1,1,15.9-15.82A15.94,15.94,0,0,1,16,72.3Z"/></g></g></svg>