<svg xmlns="http://www.w3.org/2000/svg" viewBox="0 0 67.16 65.651">
  <g id="Search_Icon" transform="translate(-903.121 -331.956)">
    <path id="Path_2719" data-name="Path 2719" d="M455.178,341.035a3.022,3.022,0,0,0-4.274,0l-1.615,1.615-3.66-3.661-4.274,4.273,3.661,3.661L443.4,348.54a3.022,3.022,0,0,0,0,4.273l11.276,11.277a8.311,8.311,0,0,0,11.74,0l.039-.04a8.311,8.311,0,0,0,0-11.736Z" transform="translate(501.4 31.09)" fill="#ff641e"/>
    <path id="Path_2721" data-name="Path 2721" d="M404.774,271.657a21.737,21.737,0,0,0-31.794,29.613,3.036,3.036,0,0,1,.346.4c.228.252.461.5.7.738a21.741,21.741,0,1,0,30.746-30.747Z" transform="translate(536.465 67.672)" fill="none" stroke="#ff641e" stroke-width="2"/>
  </g>
</svg>
