<svg xmlns="http://www.w3.org/2000/svg" width="96" height="96" viewBox="0 0 96 96"><rect width="96" height="96" rx="15" fill="#19191a"/><path d="M115.427,120A24.427,24.427,0,1,1,91,144.427,24.455,24.455,0,0,1,115.427,120Z" transform="translate(-67.528 -92.234)" fill="#19191a" stroke="#c8c8c8" stroke-linecap="round" stroke-linejoin="round" stroke-width="1.5"/><path d="M110.844,156.275h4.441v-4.441h-4.441Zm-1.113-14.217a2.236,2.236,0,0,1,1.113,1.926v3.409h4.441v-3.409a6.684,6.684,0,0,0-3.329-5.769,2.221,2.221,0,1,1,3.329-1.926h4.441a6.662,6.662,0,1,0-10,5.769Z" transform="translate(-65.166 -90.758)" fill="#ff641e"/><path d="M9.031,221.1A28.7,28.7,0,0,1,11.258,210h-4.6A6.669,6.669,0,0,0,0,216.662v8.883a6.669,6.669,0,0,0,6.662,6.662h4.6A28.7,28.7,0,0,1,9.031,221.1Z" transform="translate(10 -168.91)" fill="#dcdcdc"/><path d="M440.552,210h-4.6a28.79,28.79,0,0,1,0,22.206h4.6a6.669,6.669,0,0,0,6.662-6.662v-8.883A6.669,6.669,0,0,0,440.552,210Z" transform="translate(-361.417 -168.91)" fill="#dcdcdc"/><path d="M96.094,26.648h3.028a10.946,10.946,0,0,1,1.574.159,33.3,33.3,0,0,0-65.325,0,10.945,10.945,0,0,1,1.574-.159h3.028a28.833,28.833,0,0,1,56.122,0Z" transform="translate(-20.135 10)" fill="#656f75"/><path d="M274.309,388.825h-2.445a15.785,15.785,0,0,1-15.32,13.62H241v4.441h15.544c10.33,0,18.754-8.2,19.782-18.265A11.053,11.053,0,0,1,274.309,388.825Z" transform="translate(-195.322 -321.09)" fill="#fafafa" stroke="#656f75" stroke-linecap="round" stroke-linejoin="round" stroke-width="1.5"/></svg>