<svg id="Support_Icon" xmlns="http://www.w3.org/2000/svg" viewBox="0 0 28.559 29.309">
  <path id="Path_954" data-name="Path 954" d="M100.2,120a9.2,9.2,0,1,1-9.2,9.2A9.214,9.214,0,0,1,100.2,120Z" transform="translate(-85.924 -113.306)" fill="#fff" stroke="#656f75" stroke-linecap="round" stroke-linejoin="round" stroke-width="1.5"/>
  <path id="Path_2490" data-name="Path 2490" d="M108.076,139.667h1.673v-1.673h-1.673Zm-.419-5.357a.842.842,0,0,1,.419.726v1.284h1.673v-1.284a2.519,2.519,0,0,0-1.254-2.174.837.837,0,1,1,1.254-.726h1.673a2.51,2.51,0,1,0-3.766,2.173Z" transform="translate(-94.633 -118.749)" fill="#ff641e"/>
  <path id="Path_955" data-name="Path 955" d="M3.4,214.184A10.814,10.814,0,0,1,4.242,210H2.51A2.513,2.513,0,0,0,0,212.51v3.347a2.513,2.513,0,0,0,2.51,2.51H4.242A10.814,10.814,0,0,1,3.4,214.184Z" transform="translate(0 -198.286)" fill="#334048"/>
  <path id="Path_956" data-name="Path 956" d="M437.688,210h-1.732a10.848,10.848,0,0,1,0,8.367h1.732a2.513,2.513,0,0,0,2.51-2.51V212.51A2.513,2.513,0,0,0,437.688,210Z" transform="translate(-411.638 -198.286)" fill="#334048"/>
  <path id="Path_957" data-name="Path 957" d="M58.251,10.04h1.141a4.124,4.124,0,0,1,.593.06,12.548,12.548,0,0,0-24.613,0,4.124,4.124,0,0,1,.593-.06H37.1a10.864,10.864,0,0,1,21.146,0Z" transform="translate(-33.398 0)" fill="#656f75"/>
  <path id="Path_958" data-name="Path 958" d="M253.551,388.7h-.921a5.948,5.948,0,0,1-5.772,5.132H241V395.5h5.857a7.612,7.612,0,0,0,7.454-6.882A4.166,4.166,0,0,1,253.551,388.7Z" transform="translate(-227.557 -366.944)" fill="#fafafa" stroke="#656f75" stroke-linecap="round" stroke-linejoin="round" stroke-width="1.5"/>
</svg>
