<svg xmlns="http://www.w3.org/2000/svg" viewBox="0 0 88.311 55.726"><g transform="translate(-16001.985 19964.19)"><g transform="translate(16002.61 -19956.533)"><rect width="64.885" height="44.471" rx="6" transform="translate(0 0)" fill="#fafafa" stroke="#334048" stroke-miterlimit="10" stroke-width="1.25"/><g transform="translate(7.249 30.425)"><path d="M36.465,74.744a.957.957,0,0,1-1.013,1.013h-8.1a.957.957,0,0,1-1.013-1.013V70.693a.957.957,0,0,1,1.013-1.013h8.1a.957.957,0,0,1,1.013,1.013Zm14.18,0a.957.957,0,0,1-1.013,1.013h-8.1a.957.957,0,0,1-1.013-1.013V70.693a.957.957,0,0,1,1.013-1.013h8.1a.957.957,0,0,1,1.013,1.013Zm14.18,0a.957.957,0,0,1-1.013,1.013h-8.1A.957.957,0,0,1,54.7,74.744V70.693A.957.957,0,0,1,55.71,69.68h8.1a.957.957,0,0,1,1.013,1.013Zm14.18,0a.957.957,0,0,1-1.013,1.013h-8.1a.957.957,0,0,1-1.013-1.013V70.693A.957.957,0,0,1,69.89,69.68h8.1a.957.957,0,0,1,1.013,1.013Z" transform="translate(-26.336 -69.68)" fill="#ff641e"/></g><rect width="56.723" height="3.621" rx="1.81" transform="translate(5.86 14.272)" fill="#fafafa" stroke="#334048" stroke-linecap="round" stroke-linejoin="round" stroke-width="1.5"/></g><path d="M77.068,36.268a3.088,3.088,0,0,1-2.812,1.954H64.282V58.369a3.5,3.5,0,0,1-.906,2.375,2.978,2.978,0,0,1-2.19.983H50.473a2.978,2.978,0,0,1-2.19-.983,3.505,3.505,0,0,1-.906-2.375V38.222H37.1a3.093,3.093,0,0,1-2.813-1.953,3.585,3.585,0,0,1,.459-3.588L53.323,9.175a2.944,2.944,0,0,1,4.705,0L76.608,32.68A3.577,3.577,0,0,1,77.068,36.268Z" transform="translate(16011.892 -19971.191)" fill="#fafafa" stroke="#334048" stroke-miterlimit="10" stroke-width="2"/></g></svg>