<?xml version="1.0" encoding="UTF-8" ?>
<!DOCTYPE svg PUBLIC "-//W3C//DTD SVG 1.1//EN" "http://www.w3.org/Graphics/SVG/1.1/DTD/svg11.dtd">
<svg width="512pt" height="512pt" viewBox="0 0 512 512" version="1.1" xmlns="http://www.w3.org/2000/svg">
<g id="#000000ff">
<path fill="#000000" opacity="1.00" d=" M 256.55 0.00 L 259.07 0.00 C 261.84 0.43 264.39 1.68 266.66 3.30 C 285.44 16.21 304.30 28.99 323.04 41.95 C 330.05 46.65 329.89 58.22 322.78 62.76 C 304.24 75.55 285.59 88.17 267.04 100.95 C 264.38 102.82 261.39 104.56 258.04 104.50 C 251.70 104.68 245.60 99.54 245.14 93.14 C 244.79 87.31 245.11 81.46 244.99 75.63 C 200.04 77.82 156.36 97.78 125.07 130.09 C 100.98 154.63 84.03 186.14 77.09 219.84 C 69.76 254.88 73.21 292.07 86.89 325.15 C 99.80 356.77 121.88 384.53 149.74 404.27 C 157.43 409.29 161.70 419.00 159.83 428.05 C 158.17 437.38 150.16 445.04 140.85 446.55 C 135.28 447.49 129.38 446.34 124.64 443.24 C 83.58 415.06 52.45 372.81 37.62 325.27 C 24.63 284.21 23.52 239.46 34.56 197.82 C 46.30 152.89 72.46 111.89 108.22 82.27 C 111.82 79.19 117.97 80.88 119.64 85.26 C 121.22 88.66 119.59 92.60 116.71 94.71 C 96.90 111.51 80.16 131.95 67.73 154.77 C 52.79 182.14 44.10 212.88 42.36 244.01 C 40.13 282.47 48.48 321.52 66.45 355.62 C 82.06 385.42 105.01 411.31 132.61 430.52 C 137.91 434.62 145.81 429.26 145.29 422.98 C 145.22 419.44 142.14 417.24 139.53 415.40 C 101.44 388.04 73.91 346.50 63.40 300.81 C 53.95 260.49 57.75 217.17 74.14 179.13 C 88.75 144.91 113.41 115.09 144.19 94.21 C 173.82 73.95 209.14 62.24 244.98 60.58 C 245.00 55.12 245.00 49.66 244.99 44.20 C 208.70 45.80 172.85 56.83 142.07 76.14 C 139.11 78.35 134.69 78.68 131.91 76.01 C 128.26 72.92 128.80 66.47 133.00 64.11 C 166.38 42.85 205.48 30.81 244.99 29.17 C 245.14 23.08 244.71 16.96 245.21 10.89 C 245.90 5.17 250.95 0.72 256.55 0.00 M 260.02 16.97 C 260.03 40.49 260.00 64.01 260.03 87.54 C 277.18 75.74 294.40 64.04 311.56 52.26 C 294.39 40.48 277.19 28.73 260.02 16.97 Z" />
<path fill="#000000" opacity="1.00" d=" M 356.67 75.67 C 363.16 65.44 378.15 61.75 388.33 68.63 C 407.30 81.62 424.09 97.74 438.22 115.85 C 465.24 150.52 481.89 193.14 485.42 236.95 C 489.07 281.35 479.48 326.81 457.75 365.74 C 438.49 400.59 409.87 430.19 375.71 450.63 C 343.32 470.20 305.95 481.27 268.16 482.81 C 268.00 488.86 268.42 494.93 267.94 500.97 C 267.30 506.67 262.36 511.11 256.82 512.00 L 253.43 512.00 C 249.74 510.94 246.58 508.68 243.42 506.60 C 225.75 494.57 208.13 482.46 190.51 470.34 C 185.48 467.10 183.45 460.15 185.89 454.69 C 187.39 450.80 191.16 448.65 194.43 446.42 C 210.87 435.19 227.31 423.95 243.73 412.70 C 246.90 410.57 250.03 407.88 254.01 407.54 C 260.73 406.74 267.58 412.12 268.01 418.95 C 268.36 424.75 268.03 430.56 268.16 436.37 C 297.04 434.83 325.54 426.30 350.40 411.49 C 380.90 393.52 405.93 366.45 421.46 334.64 C 442.68 291.80 445.60 240.42 429.52 195.41 C 417.43 160.93 394.64 130.27 365.00 108.89 C 361.96 106.71 358.90 104.40 356.84 101.22 C 351.67 93.77 351.57 83.18 356.67 75.67 M 367.90 87.96 C 367.67 91.50 370.16 94.36 372.98 96.13 C 413.63 125.04 442.29 170.11 451.42 219.14 C 457.67 252.09 455.27 286.64 444.52 318.40 C 432.83 353.20 411.04 384.48 382.56 407.62 C 350.42 433.99 309.68 449.51 268.17 451.42 C 268.15 456.87 268.16 462.33 268.16 467.78 C 296.98 466.45 325.54 459.26 351.44 446.52 C 387.58 428.90 418.52 400.82 439.58 366.58 C 462.04 330.47 473.06 287.45 470.91 245.00 C 469.23 210.71 459.03 176.90 441.54 147.37 C 426.18 121.40 405.27 98.70 380.51 81.44 C 375.63 77.89 367.93 82.01 367.90 87.96 M 201.61 459.73 C 218.74 471.53 235.98 483.20 253.12 494.99 C 253.13 471.49 253.13 447.99 253.12 424.49 C 235.95 436.23 218.76 447.96 201.61 459.73 Z" />
<path fill="#000000" opacity="1.00" d=" M 328.98 181.17 C 341.64 177.16 356.48 181.93 364.35 192.65 C 372.06 202.57 373.10 217.03 366.92 227.96 C 364.37 232.82 360.29 236.60 356.04 239.97 C 317.72 271.71 279.47 303.52 241.13 335.24 C 234.42 340.85 225.79 344.09 217.04 344.21 C 204.76 344.54 192.58 338.54 185.29 328.66 C 172.88 312.09 160.39 295.57 148.05 278.94 C 138.19 265.52 141.15 244.69 154.61 234.78 C 167.35 224.51 187.89 225.74 198.66 238.32 C 206.31 247.85 213.37 257.85 220.81 267.54 C 251.55 242.06 282.28 216.57 313.02 191.09 C 317.77 186.99 322.80 182.86 328.98 181.17 M 333.38 195.51 C 329.10 196.69 325.93 199.94 322.59 202.66 C 289.95 229.70 257.36 256.78 224.72 283.81 C 221.52 286.90 215.83 286.37 213.36 282.63 C 205.91 272.76 198.51 262.85 191.09 252.96 C 188.59 249.48 185.80 245.91 181.70 244.26 C 173.39 240.49 162.49 244.49 158.84 252.92 C 156.11 258.74 156.86 265.99 160.85 271.05 C 172.99 287.24 185.14 303.42 197.28 319.61 C 204.99 330.70 222.29 332.40 232.13 323.21 C 271.33 290.71 310.53 258.21 349.70 225.68 C 356.13 220.46 357.87 210.51 353.54 203.44 C 349.68 196.57 340.88 193.13 333.38 195.51 Z" />
</g>
</svg>
