<svg xmlns="http://www.w3.org/2000/svg" width="31.702" height="31.702" viewBox="0 0 31.702 31.702"><path d="M220.195,333.382a1.97,1.97,0,1,0,0,3.939,1.97,1.97,0,0,0,0-3.939Z" transform="translate(-204.34 -311.401)" fill="#c8c8c8"/><path d="M30.93,49.476a6.582,6.582,0,0,0,.013-6.159L20.738,23.983a5.395,5.395,0,0,0-9.762-.007L.757,43.331a6.635,6.635,0,0,0,.02,6.195,5.507,5.507,0,0,0,4.868,3.058H26.029A5.546,5.546,0,0,0,30.93,49.476Zm-2.216-1.4a3.043,3.043,0,0,1-2.691,1.7H5.638a3,3,0,0,1-2.659-1.668,3.649,3.649,0,0,1-.007-3.4L13.191,25.366a2.945,2.945,0,0,1,5.331.007L28.734,44.721A3.6,3.6,0,0,1,28.714,48.079Z" transform="translate(0 -20.882)" fill="#c8c8c8"/><path d="M219.246,157.232a2.142,2.142,0,0,0-1.521,2.151c.047.622.087,1.253.134,1.875.134,2.371.268,4.7.4,7.067a1.443,1.443,0,0,0,1.473,1.387,1.473,1.473,0,0,0,1.473-1.434c0-.488,0-.938.047-1.434.087-1.521.181-3.041.268-4.562.047-.985.134-1.97.181-2.954a2.433,2.433,0,0,0-.181-.985A1.975,1.975,0,0,0,219.246,157.232Z" transform="translate(-203.88 -148.029)" fill="#c8c8c8"/></svg>