<svg xmlns="http://www.w3.org/2000/svg" width="108.869" height="70.587" viewBox="0 0 108.869 70.587"><g transform="translate(1.25 1.25)"><path d="M48.14,77.411H11.128A11.256,11.256,0,0,1,0,66.283V18.627L14.515,0H48.14A11.256,11.256,0,0,1,59.268,11.128V66.283A11.256,11.256,0,0,1,48.14,77.411Z" transform="translate(77.411) rotate(90)" fill="#19191a" stroke="#c8c8c8" stroke-width="2.5" fill-rule="evenodd"/><path d="M48.14,77.411H11.128A11.256,11.256,0,0,1,0,66.283V18.627L14.515,0H48.14A11.256,11.256,0,0,1,59.268,11.128V66.283A11.256,11.256,0,0,1,48.14,77.411Z" transform="translate(83.411 4) rotate(90)" fill="#19191a" stroke="#c8c8c8" stroke-width="2.5" fill-rule="evenodd"/><path d="M7.983,12.579H0v7.015H7.983ZM0,8.467H7.983V0C3.145,0,0,3.871,0,8.467Zm32.658,4.112H24.433v7.015h8.225ZM24.433,8.467h8.225C32.658,3.629,29.513,0,24.675,0ZM7.983,23.949H0c0,4.6,3.145,8.467,7.983,8.467Zm24.675-.242H24.433v8.709C29.513,32.416,32.658,28.787,32.658,23.707Z" transform="translate(48.975 17.25) rotate(90)" fill="#ff641e" fill-rule="evenodd"/><rect width="32" height="7" rx="3" transform="translate(17.014 30.504)" fill="#19191a" stroke="#656f75" stroke-linecap="round" stroke-linejoin="round" stroke-width="1.5"/><path d="M48.14,77.411H11.128A11.256,11.256,0,0,1,0,66.283V18.627L14.515,0H48.14A11.256,11.256,0,0,1,59.268,11.128V66.283A11.256,11.256,0,0,1,48.14,77.411Z" transform="translate(90.411 8) rotate(90)" fill="#19191a" stroke="#c8c8c8" stroke-width="2.5" fill-rule="evenodd"/><path d="M7.983,12.579H0v7.015H7.983ZM0,8.467H7.983V0C3.145,0,0,3.871,0,8.467Zm32.658,4.112H24.433v7.015h8.225ZM24.433,8.467h8.225C32.658,3.629,29.513,0,24.675,0ZM7.983,23.949H0c0,4.6,3.145,8.467,7.983,8.467Zm24.675-.242H24.433v8.709C29.513,32.416,32.658,28.787,32.658,23.707Z" transform="translate(56.975 21.25) rotate(90)" fill="#ff641e" fill-rule="evenodd"/><rect width="32" height="7" rx="3" transform="translate(25.014 34.504)" stroke="#c8c8c8" stroke-linecap="round" stroke-linejoin="round" stroke-width="1.5"/><g transform="translate(-105.499 -505.205)"><g transform="translate(178.872 527.297)"><g transform="translate(0 0)"><path d="M13.85,45.366h0c10.007,0,20.3,1.022,16.4-14.638,0,0-1.13-6.259-8.582-10.068a16.583,16.583,0,0,0-7.486-1.81" transform="translate(2.172 0.869)" fill="#19191a" stroke="#c8c8c8" stroke-linecap="round" stroke-linejoin="round" stroke-width="2"/><path d="M31.1,45.367c-9.966,0-20.313,1.054-16.4-14.638,0,0,1.13-6.259,8.582-10.068a16.583,16.583,0,0,1,7.486-1.81" transform="translate(-13.85 0.869)" fill="#19191a" stroke="#c8c8c8" stroke-linecap="round" stroke-linejoin="round" stroke-width="2"/><path d="M9.45,22.776A9.409,9.409,0,0,1,0,13.568,9.036,9.036,0,0,1,.337,11.13v-2.5S-.51,5.368,2.986,2.492A10.687,10.687,0,0,1,8.907.027V.019A4.968,4.968,0,0,1,9.467,0a4.967,4.967,0,0,1,.561.019V.027a10.686,10.686,0,0,1,5.921,2.466c3.5,2.876,2.65,6.134,2.65,6.134v2.5a9.064,9.064,0,0,1,.336,2.438,9.413,9.413,0,0,1-9.294,9.21Z" transform="translate(6.592 0)" fill="#19191a" stroke="#c8c8c8" stroke-linecap="round" stroke-linejoin="round" stroke-width="1.5"/><g transform="translate(14.833 25.702)"><circle cx="2.308" cy="2.308" r="2.308" fill="#19191a"/><circle cx="2.308" cy="2.308" r="2.308" transform="translate(0 7.252)" fill="#19191a"/><circle cx="2.308" cy="2.308" r="2.308" transform="translate(0 14.506)" fill="#19191a"/></g></g></g></g></g></svg>