<svg xmlns="http://www.w3.org/2000/svg" width="108.869" height="70.587" viewBox="0 0 108.869 70.587">
  <g id="SIM_Card_Vector" transform="translate(-104.249 -539.25)">
    <path id="Path_3801" data-name="Path 3801" d="M48.14,77.411H11.128A11.256,11.256,0,0,1,0,66.283V18.627L14.515,0H48.14A11.256,11.256,0,0,1,59.268,11.128V66.283A11.256,11.256,0,0,1,48.14,77.411Z" transform="translate(182.91 540.5) rotate(90)" fill="#fafafa" stroke="#334048" stroke-width="2.5" fill-rule="evenodd"/>
    <path id="Path_1258" data-name="Path 1258" d="M48.14,77.411H11.128A11.256,11.256,0,0,1,0,66.283V18.627L14.515,0H48.14A11.256,11.256,0,0,1,59.268,11.128V66.283A11.256,11.256,0,0,1,48.14,77.411Z" transform="translate(188.91 544.5) rotate(90)" fill="#fafafa" stroke="#334048" stroke-width="2.5" fill-rule="evenodd"/>
    <path id="Path_2488" data-name="Path 2488" d="M7.983,12.579H0v7.015H7.983ZM0,8.467H7.983V0C3.145,0,0,3.871,0,8.467Zm32.658,4.112H24.433v7.015h8.225ZM24.433,8.467h8.225C32.658,3.629,29.513,0,24.675,0ZM7.983,23.949H0c0,4.6,3.145,8.467,7.983,8.467Zm24.675-.242H24.433v8.709C29.513,32.416,32.658,28.787,32.658,23.707Z" transform="translate(154.475 557.75) rotate(90)" fill="#ff641e" fill-rule="evenodd"/>
    <rect id="Rectangle_2869" data-name="Rectangle 2869" width="32" height="7" rx="3" transform="translate(122.514 571.004)" fill="#fafafa" stroke="#656f75" stroke-linecap="round" stroke-linejoin="round" stroke-width="1.5"/>
    <path id="Path_1258-2" data-name="Path 1258" d="M48.14,77.411H11.128A11.256,11.256,0,0,1,0,66.283V18.627L14.515,0H48.14A11.256,11.256,0,0,1,59.268,11.128V66.283A11.256,11.256,0,0,1,48.14,77.411Z" transform="translate(195.91 548.5) rotate(90)" fill="#fafafa" stroke="#334048" stroke-width="2.5" fill-rule="evenodd"/>
    <path id="Path_2488-2" data-name="Path 2488" d="M7.983,12.579H0v7.015H7.983ZM0,8.467H7.983V0C3.145,0,0,3.871,0,8.467Zm32.658,4.112H24.433v7.015h8.225ZM24.433,8.467h8.225C32.658,3.629,29.513,0,24.675,0ZM7.983,23.949H0c0,4.6,3.145,8.467,7.983,8.467Zm24.675-.242H24.433v8.709C29.513,32.416,32.658,28.787,32.658,23.707Z" transform="translate(162.475 561.75) rotate(90)" fill="#ff641e" fill-rule="evenodd"/>
    <rect id="Rectangle_2869-2" data-name="Rectangle 2869" width="32" height="7" rx="3" transform="translate(130.514 575.004)" fill="#fafafa" stroke="#656f75" stroke-linecap="round" stroke-linejoin="round" stroke-width="1.5"/>
    <g id="Group_2986" data-name="Group 2986" transform="translate(0 35.295)">
      <g id="Group_2901" data-name="Group 2901" transform="translate(178.872 527.297)">
        <g id="Group_2895" data-name="Group 2895" transform="translate(0 0)">
          <path id="Path_3094" data-name="Path 3094" d="M13.85,45.366h0c10.007,0,20.3,1.022,16.4-14.638,0,0-1.13-6.259-8.582-10.068a16.583,16.583,0,0,0-7.486-1.81" transform="translate(2.172 0.869)" fill="#fafafa" stroke="#334048" stroke-linecap="round" stroke-linejoin="round" stroke-width="2"/>
          <path id="Path_3095" data-name="Path 3095" d="M31.1,45.367c-9.966,0-20.313,1.054-16.4-14.638,0,0,1.13-6.259,8.582-10.068a16.583,16.583,0,0,1,7.486-1.81" transform="translate(-13.85 0.869)" fill="#fafafa" stroke="#334048" stroke-linecap="round" stroke-linejoin="round" stroke-width="2"/>
          <path id="Union_2" data-name="Union 2" d="M9.45,22.776A9.409,9.409,0,0,1,0,13.568,9.036,9.036,0,0,1,.337,11.13v-2.5S-.51,5.368,2.986,2.492A10.687,10.687,0,0,1,8.907.027V.019A4.968,4.968,0,0,1,9.467,0a4.967,4.967,0,0,1,.561.019V.027a10.686,10.686,0,0,1,5.921,2.466c3.5,2.876,2.65,6.134,2.65,6.134v2.5a9.064,9.064,0,0,1,.336,2.438,9.413,9.413,0,0,1-9.294,9.21Z" transform="translate(6.592 0)" fill="#fafafa" stroke="#334048" stroke-linecap="round" stroke-linejoin="round" stroke-width="2"/>
          <g id="Group_2894" data-name="Group 2894" transform="translate(14.833 25.702)">
            <circle id="Ellipse_476" data-name="Ellipse 476" cx="2.308" cy="2.308" r="2.308" fill="#fafafa"/>
            <circle id="Ellipse_477" data-name="Ellipse 477" cx="2.308" cy="2.308" r="2.308" transform="translate(0 7.252)" fill="#fafafa"/>
            <circle id="Ellipse_478" data-name="Ellipse 478" cx="2.308" cy="2.308" r="2.308" transform="translate(0 14.506)" fill="#fafafa"/>
          </g>
        </g>
      </g>
    </g>
  </g>
</svg>
