<svg xmlns="http://www.w3.org/2000/svg" width="33.369" height="45.079" viewBox="0 0 33.369 45.079"><path d="M28.632,43.163h.022a1.209,1.209,0,0,0,1.187-1.229l-.483-27.445a1.209,1.209,0,0,0-2.417.042l.483,27.445A1.209,1.209,0,0,0,28.632,43.163Zm7.069,0a1.208,1.208,0,0,0,1.208-1.187l.483-27.445A1.209,1.209,0,0,0,36.2,13.3h-.022a1.208,1.208,0,0,0-1.208,1.187l-.483,27.445a1.209,1.209,0,0,0,1.187,1.229ZM45.2,13.3a1.208,1.208,0,0,0-1.247,1.169L42.99,44.544a1.485,1.485,0,0,1-1.482,1.485H22.827A1.5,1.5,0,0,1,21.341,44.5L20.374,14.47a1.208,1.208,0,0,0-2.416.078l.966,30a3.906,3.906,0,0,0,3.9,3.9h18.68a3.9,3.9,0,0,0,3.9-3.863l.967-30.035A1.208,1.208,0,0,0,45.2,13.3Zm2.437-4.834h-6.55c-.98-3.255-4.163-5.1-8.926-5.1s-7.946,1.847-8.926,5.1h-6.55a1.208,1.208,0,1,0,0,2.417H47.641a1.208,1.208,0,0,0,0-2.417Zm-21.805,0c1.128-2.176,3.955-2.685,6.329-2.685s5.2.509,6.329,2.686H25.836Z" transform="translate(-15.48 -3.366)" fill="#c8c8c8"/></svg>