<svg id="Layer_1" data-name="Layer 1" xmlns="http://www.w3.org/2000/svg" viewBox="0 0 552.91 279.05"><path d="M377.57,173.47l1.44-1.61a4,4,0,0,1,2-2.53l1.76-2c1.29-3.67,4.41-6,6.75-8.86,3-3.68,5.77-7.64,9.66-10.53l2-2c.51-1.33,1.13-2.55,2.83-2.59,4.28-4.23,8.63-8.39,12.82-12.7,5-5.11,10.66-9.37,16-14.08,7.29-6.51,15.43-11.83,23.25-17.59,1.85-1.36,3.91-2.41,5.88-3.61a4.36,4.36,0,0,1,2.84-1.77,212.46,212.46,0,0,1,88.11-30.17c-1.6,3.24-4.46,4.2-6.63,5.79a213.72,213.72,0,0,0-29.21,26,268.18,268.18,0,0,0-24,30.1,11.76,11.76,0,0,0-.85,1.84c-.5.67-.28,1.85-1.46,2-11.94,17.57-21.13,36.57-28.85,56.31a312.22,312.22,0,0,0-15.09,51.89c-1.95,9.64-3,19.47-4.32,29.22-3.43,24.66-7.24,49.24-16.73,72.48-1.57,3.85-3.23,7.78-6.29,11,.38-7.68,1.45-15.21,1.63-22.8a17.66,17.66,0,0,0,0-7.52c0-13.37-1.44-26.61-3.24-39.83-.42-3.06-1.94-1.09-2.74-.66-9.42,5-18.16,11.06-26.91,17.13-2.1,1.45-4,4.61-6.43,3.78-1.93-.67-2.83-4-4.46-5.86-8.52-9.87-18.7-16.35-32.35-16.08-8,.16-15.37,2.35-22.78,4.85-.71.24-1.72,1.44-2.38.4a3.56,3.56,0,0,1,0-2.79c1.69-5.37,3-10.91,4.92-16.14,2.48-6.78,5-13.61,8-20.2a259.87,259.87,0,0,1,12-23.88,279.81,279.81,0,0,1,15.67-24.24,8.32,8.32,0,0,1,3.35-4.87l1.68-2a15,15,0,0,1,5.18-7c1-1.21,1.92-2.43,2.89-3.64C374.16,176.48,376,175.09,377.57,173.47Z" fill="#010101" opacity="0.1"/><path d="M132.5,128c6.22,6.28,12.53,12.47,18.64,18.87,12,12.57,23,26.06,33.84,39.64a252.63,252.63,0,0,1,27,40.72c4.1,7.85,7.24,16.21,10.74,24.36,4,9.31,6.83,19,9.84,28.68.23.76,1.31,1.94.14,2.73-.76.51-1.65-.08-2.53-.38-8.16-2.74-16.46-4.79-25.19-4.28-12.79.76-23.1,6-30.35,16.74-4,5.89-3.93,5.82-9.92,1.72-9.6-6.56-18.84-13.69-29.81-18.64-.78,6.77-1.75,13.34-2.25,20a280.94,280.94,0,0,0-.71,33.71c.2,4.65.85,9.27,1.18,13.92.06.74.81,1.89-.55,2.32s-1.47-.91-1.78-1.58A209.84,209.84,0,0,1,121,321.75a225,225,0,0,1-8.33-37.16c-1.34-9.48-2.22-19-3.55-28.5-3.39-24.15-7.92-48.08-17.48-70.65a351.26,351.26,0,0,0-21.21-42.65Q60.93,126.88,49.91,112C46,106.7,41.4,101.91,37.14,96.89,32.25,91.14,26.67,86.16,21.23,81A113,113,0,0,0,3,67.26c-.68-.42-1.14-1.09-1.87-1.34S-.19,65.47.06,64.55c.38-1.35,1.5-.82,2.28-.71,4.38.62,8.8,1.08,13.1,2,19.47,4.37,38.53,10,56.29,19.33a264.88,264.88,0,0,1,51.43,35c1.19,1,2.52,1.92,3.79,2.88a4.27,4.27,0,0,1,2.15,2c0,.74.58.77,1.12.79A3.32,3.32,0,0,1,132.5,128Z" fill="#010101" opacity="0.1"/><path d="M311.49,267.37c-2.83,7.08-5.65,14.17-8.53,21.23-.31.77-.31,1.87-1.37,2.18-.9.27-1-.46-1.4-1-3.49-5.58-9-8.1-15.06-9.53-8.6-2-17.06-1.78-25.11,2.37-1,.51-2.13.84-2.65,2a.63.63,0,0,1-.64.5,10.22,10.22,0,0,0-3.94,4.2c-1.36,2.61-2.08,1.32-2.68-.22-2.39-6.06-4.68-12.17-7-18.27q-2.22-5.82-4.4-11.68a1.87,1.87,0,0,1-1.06-2.15c-2.8-6.44-5.18-13.07-8.53-19.27a6.31,6.31,0,0,1-1.2-3c-3.9-8.06-7.77-16.14-11.74-24.17a3.57,3.57,0,0,1,.15-3.61c5-10.22,10.47-20.17,14.89-30.66-.36-.72.19-1,.63-1.39,21.2-46.77,33.28-96.31,44.47-146.22,2,3.75,2.37,7.8,3.19,11.7a853.84,853.84,0,0,0,23.66,88.13,3.12,3.12,0,0,0,.61.83c2.11,2,2.25,4.95,3.26,7.46.72,1.81,1.25,3.69,2,5.46.51,1.45.94,2.93,1.5,4.37,2.94,8,6.07,16,9.49,23.84a22,22,0,0,0,1.5,3.66c1.27,3.18,2.68,6.31,4,9.46.47,1,1,2,1.51,3,1,3.11,3.07,5.8,3.5,9.12a16.53,16.53,0,0,0,2.65,5.45,4.29,4.29,0,0,1,1.5,2.85c4.32,5.74,0,10.4-2.22,15-6.9,14.61-13.26,29.44-19.61,44.29a7.77,7.77,0,0,0-.32,1.65A2.81,2.81,0,0,1,311.49,267.37Z" fill="#010101" opacity="0.1"/><path d="M354.35,79.63a192.62,192.62,0,0,0,22.8-39.56c2.74-6.21,4.62-12.72,7.32-19.74,1.69,4.25,1.14,8,1.6,11.63.47,1.19-.08,2.51.48,3.7l.21,6.66c.48,1.17-.1,2.49.49,3.66-.09,9.07,1.36,18,2.45,27,.68,5.68,1.7,11.31,2.57,17,1.26.73,1.38,2,1.62,3.27a213.14,213.14,0,0,0,7.43,28.69c.86,2.5.16,4.34-1.54,6.24-15,16.81-29.59,34-43.5,51.68C353,184,350,188.35,346.69,192.5c-2.35,3-3.87,2.9-5.57-.45-8.8-17.44-17.9-34.73-23.82-53.48-4-12.62-4.05-12.45,5.11-21.91A324.3,324.3,0,0,0,351,83.1,11.31,11.31,0,0,1,354.35,79.63Z" fill="#b17e57" opacity="0.1"/><path d="M152.55,127.26c-1.49-1-1.56-2.44-1-4,4.32-11.39,6-23.34,8.12-35.26,1.66-9.5,2.6-19.08,3.83-28.62.82-6.37,1.28-12.83,1.65-19.28.35-6.09,1.33-12.17,1.25-18.31,0-.44-.09-1,.44-1.17a1,1,0,0,1,1.3.56,1,1,0,0,1,.05.16c.51,1.51.88,3.06,1.35,4.58C177,50,190.1,70.79,205.65,90.22a418.71,418.71,0,0,0,29.47,32.83,5.15,5.15,0,0,1,1.52,5.74c-3.78,12.89-8.78,25.31-14,37.66-3.51,8.29-7.6,16.3-11.52,24.39a21,21,0,0,1-1.93,2.37c-1,1.49-1.78,1.07-2.54-.2-5.57-9.2-12.23-17.62-18.84-26.06-4.25-5.41-9-10.45-13.52-15.62-4.27-4.86-8.61-9.66-12.91-14.48a10.45,10.45,0,0,1-1.93-2l-5.66-6.27A2.36,2.36,0,0,1,152.55,127.26Z" fill="#b17e57" opacity="0.1"/><path d="M186.29,23c1.3-9.91,7-16,16.25-19.37a57.59,57.59,0,0,1,38-.71c13,4.14,18.36,11.39,18.9,25s-2.3,26.64-5.83,39.58c-3.54,13.27-7.54,26.48-11.4,39.71-.4,1.38-.73,3.4-2.67,1C223.29,88.26,204.4,70.26,192.3,47.09c-3.07-5.88-5.67-11.89-6.07-18.63A16.38,16.38,0,0,1,186.29,23Z" fill="#010101" opacity="0.1"/><path d="M308.77,100.92c-2.13-9.81-5.45-19.29-8.09-29-3.53-13-6.93-26-7.94-39.55-1-13,4.73-22,16.15-27.73C325.07-3.43,341-1.84,356.2,6.94c9.36,5.4,12.37,15.06,9.39,26.16-3.94,14.67-12.66,26.64-21.74,38.4C340,76.5,336,81.3,332,86.2c-.87,2.86-3.21,4.67-5,6.81-4.34,5.1-9.09,9.85-13.22,15.14-1.34,1.73-2.74,1.65-3.66-.33S308.23,103.41,308.77,100.92Z" fill="#010101" opacity="0.1"/><path d="M150.56,55.94c-.4,13.46-3.44,26.48-6.72,39.45-1.33,5.27-2.91,10.47-4.48,15.67-1.14,3.76-1.49,3.86-4.23,1.12a159.66,159.66,0,0,0-13-11.08c-7.48-6-15.71-10.82-23.79-15.81C90.75,80.61,82.94,76.2,76.58,70,67.09,60.74,65,48.71,73.46,37.6c5.28-7,12.43-11,20-14.33A54.46,54.46,0,0,1,118.19,19c10.26.57,19.51,3.61,25.76,12.43C149.16,38.7,150.94,47.05,150.56,55.94Z" fill="#010101" opacity="0.1"/><path d="M421.07,109a23,23,0,0,0-4.75,5c-1,.69-1.54.29-1.85-.72-2.7-9.21-5.57-18.37-8-27.64-3.18-11.92-5.49-24-4.43-36.43.74-8.66,3.45-16.59,10.23-22.52a28.55,28.55,0,0,1,14.39-6.35c13.41-2.09,26.41-.55,38.64,5.76,10.84,5.59,17.91,14.15,19.77,26.44a15,15,0,0,1-2.49,10.05c-4.71,7.6-12.09,12.18-19.32,16.91-9.76,6.37-20.13,11.79-29.58,18.65-3.77,2.73-7.6,5.4-10.71,8.93A2.18,2.18,0,0,1,421.07,109Z" fill="#010101" opacity="0.1"/></svg>