<svg xmlns="http://www.w3.org/2000/svg" width="397.732" height="416.893" viewBox="0 0 397.732 416.893"><g transform="translate(-7520 -6760)"><path d="M126.013,0C138.719,7.751,146.82,19.313,152.7,32.559a123.694,123.694,0,0,1,10.864,52,93.835,93.835,0,0,1-10.006,38.881,163.368,163.368,0,0,1-44.281,58.639,101.807,101.807,0,0,1-37.292,19.663,13.787,13.787,0,0,1-2.224.445,15.888,15.888,0,0,1-1.747,0c0-1.366.826-2.128,1.429-3.018,16.709-26.047,31.765-52.953,41.93-82.3a470.754,470.754,0,0,0,19.694-77.729,60.132,60.132,0,0,0-5.051-36.911A3.462,3.462,0,0,1,125.441,0Z" transform="translate(7668.025 6760)" fill="#fbd109"/><path d="M0,99.22c3.177,0,6.353.191,9.53,0,2.192,0,2.732.7,2.7,2.8v47.648c0,6.607,2.891,9.53,9.53,9.53H33.481a7.909,7.909,0,0,0,8.322-8.481v-7.4c0-1.493.413-2.065,1.938-2h8.545c.953,0,1.811,0,1.811,1.271,0,7.56.731,15.311-4.86,21.664a18.17,18.17,0,0,1-13.6,6.861c-5.781,0-11.594.191-17.376,0A19.949,19.949,0,0,1,1.207,157.89c-.286-.762,0-1.747-1.048-2.224Z" transform="translate(7520 6975.954)" fill="#247bba"/><path d="M18.51,89.5a59.878,59.878,0,0,1,17.439-7.973c10.7-3.462,21.569-6.575,32.528-9.117A39.611,39.611,0,0,0,89.664,59.418,48.823,48.823,0,0,1,120.1,42.423,50.824,50.824,0,0,1,150.3,48.2c15.883,7.973,26.651,21.029,36.149,35.641-1.08.445-1.3-.349-1.715-.762-5.5-5.781-10.7-11.88-16.55-17.312a56.161,56.161,0,0,0-50.411-15.088,24.9,24.9,0,0,0-16.55,10.768c-3.558,5.241-2.319,9.974,3.177,13.183a47.648,47.648,0,0,0,11.848,3.939,61.91,61.91,0,0,1,19.059,8.513,28.208,28.208,0,0,1,12.007,25.92c-.191,9.085-3.367,17.789-4.638,26.651-1.906,11.531-1.906,22.9,3.717,33.639a36.943,36.943,0,0,0,11.372,13.278,270.931,270.931,0,0,0,31.543,18.233,76.24,76.24,0,0,1,11.817,7.306,20.838,20.838,0,0,1,7.528,11.086c3.907,14.2,7.211,28.589,10.1,42.947,1.3,6.671,5.559,10.2,11.658,13.151.731-17.884-3.748-34.592-6.766-51.936a6.8,6.8,0,0,1,2.065,3.589A239.387,239.387,0,0,1,236.07,274.4c.159.921.286,1.874.445,2.8.286,2.128-.222,4.733,1.779,6.1a20.71,20.71,0,0,0,9.72,2.954c1.62,0,1.239-1.175,1.144-2-.413-4.733-1.016-9.53-1.334-14.2a128.267,128.267,0,0,0-6.353-32.369c1.08,0,1.112.731,1.366,1.239,5.654,10.991,7.624,23,9.53,34.942.54,3.177,1.175,6.544,1.747,9.815.731,3.971,1.874,5.146,6.162,5.114,7.941,0,7.242,1.271,6.353-6.353a442.025,442.025,0,0,0-6.7-44.757,366.471,366.471,0,0,0-18.583-60.83,65.688,65.688,0,0,0-9.752-16.327c5.622,1.461,10.768.858,13.85,6.8A202.6,202.6,0,0,1,260.5,208.143a416.126,416.126,0,0,1,12.42,65.119c.794,7.56,1.08,15.152,1.684,22.744,0,1.525-.476,1.811-1.747,1.715-15.883-.953-31.765-2.7-46.441-10.07-9.974-5.019-14.326-13.564-16.073-24.046s-2.382-20.2-4.542-30.145c-.222-1.112-.508-2.224-.762-3.176A21.473,21.473,0,0,0,191.789,214.4,251.364,251.364,0,0,1,157.2,197.5c-17.662-11.308-28.239-26.937-29.192-48.442a175.247,175.247,0,0,0-1.461-24.459,34.942,34.942,0,0,0-6.893-16.041C111.106,98.171,101.227,89.5,87.885,86.323a47.934,47.934,0,0,0-10.2-1.08A368.7,368.7,0,0,0,19.622,89.5Z" transform="translate(7560.287 6851.562)" fill="#247bba"/><path d="M68.24,156.871c4.511-1.144,9.085-1.906,13.468-3.462a131.762,131.762,0,0,0,45.17-28.112A168.77,168.77,0,0,0,162.3,80.6a99.65,99.65,0,0,0,8.672-21.95,6.766,6.766,0,0,1,3.431-4.542c10.451-6.353,20.9-12.388,31.289-18.71,6.353-3.875,12.1-8.481,18.424-13.151a28.368,28.368,0,0,1-1.175,8.608c-7.4,31.13-19.949,59.75-41.8,83.67a129.031,129.031,0,0,1-63.53,38.595,122.87,122.87,0,0,1-33.544,4.924,82.592,82.592,0,0,1-15.819-1.175Z" transform="translate(7668.526 6808.427)" fill="#49b648"/><path d="M248.227,49.023c-15.883,25.412-36.689,45.583-64.356,57.59C145.085,123.48,106.554,121.1,68.69,103.182a66.7,66.7,0,0,1,12.706.826,131.953,131.953,0,0,0,87.132-23.125,139.767,139.767,0,0,0,25.825-23.125,8.608,8.608,0,0,1,6.131-3.177c15.025-1.429,30.018-3.177,44.884-5.845A3.462,3.462,0,0,1,248.227,49.023Z" transform="translate(7669.505 6865.674)" fill="#247bba"/><path d="M222.436,86.222A72.011,72.011,0,0,1,210.3,92.575c-22.236,9.53-44.948,15.374-69.153,13.977A94.12,94.12,0,0,1,68.724,67.894c-.222-.286-.349-.635-.6-1.048,1.842-.476,3.018.7,4.225,1.429a129.254,129.254,0,0,0,40.691,15.66,124.806,124.806,0,0,0,75.855-7.243,6.893,6.893,0,0,1,6.353,0,107.622,107.622,0,0,0,24.586,8.8A16.679,16.679,0,0,1,222.436,86.222Z" transform="translate(7668.265 6905.251)" fill="#db2229"/><path d="M85.283,129.058a19.822,19.822,0,0,1,13.627,6.957,21.124,21.124,0,0,1,3.177,23.22,18.646,18.646,0,0,1-18.36,11.975H70a19.663,19.663,0,0,1-20.076-19.44c-.191-16.74,0-33.481,0-50.221,0-1.684.476-2.382,2.255-2.287a53.65,53.65,0,0,0,7.147,0c2.319-.191,2.859.731,2.859,2.954v47.648c0,6.353,2.827,9.339,9.339,9.53H83.25a8.227,8.227,0,0,0,8.608-9.148,8.1,8.1,0,0,0-8.577-8.863H67.4c-2.065,0-2.319-.762-2.573-2.6A16.74,16.74,0,0,1,71.179,122.9c7.592-6.8,14.421-14.358,21.505-21.664a5.654,5.654,0,0,1,4.511-1.874h13.4c.826,0,1.938-.476,2.351.413s-.731,1.429-1.271,1.969Q99.164,114.6,86.49,127.374a5.814,5.814,0,0,1-1.493.889Z" transform="translate(7628.485 6975.976)" fill="#db2229"/><path d="M54.458,130.716a9.847,9.847,0,0,0-5.877-8.894,9.53,9.53,0,0,0-10.451,1.016,28.809,28.809,0,0,0-3.971,3.653,10.26,10.26,0,0,0,.381,14.612c4.638,4.828,4.638,4.828.159,9.784-3.558,3.939-3.494,3.875-7.37.286-7.37-6.8-10.768-14.866-7.941-24.809C22.566,115.5,34.414,107.3,44.8,108.766a25,25,0,0,1,21.886,23.951,21.569,21.569,0,0,1-6.353,15.692C50.233,158.733,40,168.961,29.9,179.253c-1.525,1.556-2.637,1.842-4.193,0a62.984,62.984,0,0,0-5.527-5.368c-1.779-1.588-1.62-2.8,0-4.415,6.893-6.83,13.691-13.723,20.52-20.616,3.748-3.78,7.433-7.624,11.213-11.372A9.053,9.053,0,0,0,54.458,130.716Z" transform="translate(7560.043 6996.363)" fill="#db2229"/><path d="M48.764,150.92H36.693c-1.461,0-2.033-.476-1.969-1.969v-7.687c0-1.938.667-2.414,2.478-2.414H56.578a8.259,8.259,0,0,0,8.068-5.21,10.61,10.61,0,0,0-2.319-10.8,8.513,8.513,0,0,0-6.067-2.033c-6.067,0-12.166,0-18.233.222-2.128,0-3.177-.349-2.954-2.8s0-5.114,0-7.687c0-1.207.191-1.969,1.684-1.938,7.4,0,14.834-.254,22.236.318,10.61.794,17.693,8.99,18.329,20.425a20.361,20.361,0,0,1-16.168,21.156,80.135,80.135,0,0,1-12.388.413Z" transform="translate(7595.565 6996.267)" fill="#db2229"/><path d="M30.512,115.811a2.291,2.291,0,0,1-.889,1.906c-3.177,3.367-6.734,6.671-10.006,10.07-1.271,1.334-2.1,1.112-3.177,0-3.177-3.177-6.353-6.607-9.847-9.847-1.239-1.175-1.3-2.065,0-3.177,3.367-3.621,6.544-6.8,9.974-10.228.826-.826,1.588-1.366,2.637-.318L30.036,115.08a2.732,2.732,0,0,1,.476.731Z" transform="translate(7532.275 6985.57)" fill="#247bba"/></g></svg>